%TF.GenerationSoftware,KiCad,Pcbnew,10.0.3*%
%TF.CreationDate,2026-06-23T15:24:23+01:00*%
%TF.ProjectId,PCB_Test,5043425f-5465-4737-942e-6b696361645f,rev?*%
%TF.SameCoordinates,Original*%
%TF.FileFunction,Soldermask,Bot*%
%TF.FilePolarity,Negative*%
%FSLAX46Y46*%
G04 Gerber Fmt 4.6, Leading zero omitted, Abs format (unit mm)*
G04 Created by KiCad (PCBNEW 10.0.3) date 2026-06-23 15:24:23*
%MOMM*%
%LPD*%
G01*
G04 APERTURE LIST*
G04 Aperture macros list*
%AMRoundRect*
0 Rectangle with rounded corners*
0 $1 Rounding radius*
0 $2 $3 $4 $5 $6 $7 $8 $9 X,Y pos of 4 corners*
0 Add a 4 corners polygon primitive as box body*
4,1,4,$2,$3,$4,$5,$6,$7,$8,$9,$2,$3,0*
0 Add four circle primitives for the rounded corners*
1,1,$1+$1,$2,$3*
1,1,$1+$1,$4,$5*
1,1,$1+$1,$6,$7*
1,1,$1+$1,$8,$9*
0 Add four rect primitives between the rounded corners*
20,1,$1+$1,$2,$3,$4,$5,0*
20,1,$1+$1,$4,$5,$6,$7,0*
20,1,$1+$1,$6,$7,$8,$9,0*
20,1,$1+$1,$8,$9,$2,$3,0*%
G04 Aperture macros list end*
%ADD10C,1.600000*%
%ADD11R,1.700000X1.700000*%
%ADD12C,1.700000*%
%ADD13C,3.050000*%
%ADD14C,2.775000*%
%ADD15C,3.000000*%
%ADD16R,1.100000X1.100000*%
%ADD17C,1.100000*%
%ADD18C,1.520000*%
%ADD19RoundRect,0.102000X-0.754000X-0.754000X0.754000X-0.754000X0.754000X0.754000X-0.754000X0.754000X0*%
%ADD20C,1.712000*%
%ADD21RoundRect,0.250000X0.750000X-0.600000X0.750000X0.600000X-0.750000X0.600000X-0.750000X-0.600000X0*%
%ADD22O,2.000000X1.700000*%
%ADD23RoundRect,0.250000X-0.620000X-0.845000X0.620000X-0.845000X0.620000X0.845000X-0.620000X0.845000X0*%
%ADD24O,1.740000X2.190000*%
%ADD25RoundRect,0.250000X-0.600000X-0.725000X0.600000X-0.725000X0.600000X0.725000X-0.600000X0.725000X0*%
%ADD26O,1.700000X1.950000*%
%ADD27RoundRect,0.102000X-0.669000X-0.669000X0.669000X-0.669000X0.669000X0.669000X-0.669000X0.669000X0*%
%ADD28C,1.542000*%
%ADD29R,2.000000X1.905000*%
%ADD30O,2.000000X1.905000*%
%ADD31RoundRect,0.250001X-1.149999X1.149999X-1.149999X-1.149999X1.149999X-1.149999X1.149999X1.149999X0*%
%ADD32C,2.800000*%
%ADD33RoundRect,0.250000X-1.050000X-1.050000X1.050000X-1.050000X1.050000X1.050000X-1.050000X1.050000X0*%
%ADD34C,2.600000*%
%ADD35R,1.524000X1.524000*%
%ADD36C,1.524000*%
%ADD37RoundRect,0.250000X0.750000X-0.750000X0.750000X0.750000X-0.750000X0.750000X-0.750000X-0.750000X0*%
%ADD38C,2.000000*%
%ADD39RoundRect,0.102000X-0.704000X-0.704000X0.704000X-0.704000X0.704000X0.704000X-0.704000X0.704000X0*%
%ADD40C,1.612000*%
%ADD41C,2.700000*%
%ADD42O,8.000000X3.800000*%
%ADD43RoundRect,0.250000X0.750000X0.750000X-0.750000X0.750000X-0.750000X-0.750000X0.750000X-0.750000X0*%
G04 APERTURE END LIST*
D10*
%TO.C,C8*%
X206100000Y-60000000D03*
X206100000Y-55000000D03*
%TD*%
D11*
%TO.C,J33*%
X130000000Y-48000000D03*
D12*
X130000000Y-50540000D03*
X130000000Y-53080000D03*
X130000000Y-55620000D03*
X130000000Y-58160000D03*
X130000000Y-60700000D03*
%TD*%
D13*
%TO.C,J8*%
X228200000Y-53225000D03*
X215600000Y-53225000D03*
D14*
X215600000Y-60525000D03*
X219800000Y-60525000D03*
X224000000Y-60525000D03*
X228200000Y-60525000D03*
%TD*%
D15*
%TO.C,J7*%
X238550000Y-104140000D03*
X238550000Y-93440000D03*
D16*
X235900000Y-95790000D03*
D17*
X235900000Y-97790000D03*
X235900000Y-99790000D03*
X235900000Y-101790000D03*
D18*
X234230000Y-91290000D03*
X234230000Y-94290000D03*
X234230000Y-97290000D03*
X234230000Y-100290000D03*
X234230000Y-103290000D03*
X234230000Y-106290000D03*
X231230000Y-91290000D03*
X231230000Y-94290000D03*
X231230000Y-97290000D03*
X231230000Y-100290000D03*
X231230000Y-103290000D03*
X231230000Y-106290000D03*
%TD*%
D10*
%TO.C,R7*%
X74050000Y-75660000D03*
X84210000Y-75660000D03*
%TD*%
D19*
%TO.C,J36*%
X164500000Y-148450000D03*
D20*
X162000000Y-148450000D03*
X159500000Y-148450000D03*
X157000000Y-148450000D03*
%TD*%
D10*
%TO.C,R12*%
X177450000Y-129500000D03*
X177450000Y-139660000D03*
%TD*%
D11*
%TO.C,J34*%
X142700000Y-48000000D03*
D12*
X142700000Y-50540000D03*
X142700000Y-53080000D03*
X142700000Y-55620000D03*
X142700000Y-58160000D03*
X142700000Y-60700000D03*
%TD*%
D21*
%TO.C,J5*%
X138335000Y-73470000D03*
D22*
X138335000Y-70970000D03*
%TD*%
D23*
%TO.C,J6*%
X217420000Y-147950000D03*
D24*
X219960000Y-147950000D03*
X222500000Y-147950000D03*
X225040000Y-147950000D03*
%TD*%
D25*
%TO.C,J22*%
X47500000Y-147450000D03*
D26*
X50000000Y-147450000D03*
X52500000Y-147450000D03*
%TD*%
D10*
%TO.C,R21*%
X84950000Y-140500000D03*
X84950000Y-130340000D03*
%TD*%
%TO.C,R5*%
X64450000Y-73630000D03*
X64450000Y-83790000D03*
%TD*%
D25*
%TO.C,J26*%
X109000000Y-147475000D03*
D26*
X111500000Y-147475000D03*
X114000000Y-147475000D03*
%TD*%
D27*
%TO.C,U3*%
X217010000Y-130000000D03*
D28*
X217010000Y-132540000D03*
X217010000Y-135080000D03*
X217010000Y-137620000D03*
X224950000Y-137620000D03*
X224950000Y-135080000D03*
X224950000Y-132540000D03*
X224950000Y-130000000D03*
%TD*%
D10*
%TO.C,R10*%
X73950000Y-89660000D03*
X84110000Y-89660000D03*
%TD*%
D29*
%TO.C,Q3*%
X163000000Y-134500000D03*
D30*
X163000000Y-137040000D03*
X163000000Y-139580000D03*
%TD*%
D25*
%TO.C,J23*%
X63000000Y-147450000D03*
D26*
X65500000Y-147450000D03*
X68000000Y-147450000D03*
%TD*%
D25*
%TO.C,J27*%
X125500000Y-147450000D03*
D26*
X128000000Y-147450000D03*
X130500000Y-147450000D03*
%TD*%
D25*
%TO.C,J13*%
X113250000Y-50975000D03*
D26*
X115750000Y-50975000D03*
X118250000Y-50975000D03*
X120750000Y-50975000D03*
%TD*%
D10*
%TO.C,R13*%
X206950000Y-139660000D03*
X206950000Y-129500000D03*
%TD*%
%TO.C,R3*%
X71160000Y-58740000D03*
X71160000Y-68900000D03*
%TD*%
%TO.C,C3*%
X195450000Y-122080000D03*
X190450000Y-122080000D03*
%TD*%
%TO.C,R24*%
X162010000Y-71230000D03*
X151850000Y-71230000D03*
%TD*%
D31*
%TO.C,J11*%
X240200000Y-113200000D03*
D32*
X240200000Y-118200000D03*
%TD*%
D33*
%TO.C,D1*%
X187880000Y-92000000D03*
D34*
X203120000Y-92000000D03*
%TD*%
D35*
%TO.C,J19*%
X62000000Y-50975000D03*
D36*
X64000000Y-50975000D03*
X66000000Y-50975000D03*
X68000000Y-50975000D03*
%TD*%
D25*
%TO.C,J25*%
X93500000Y-147450000D03*
D26*
X96000000Y-147450000D03*
X98500000Y-147450000D03*
%TD*%
D35*
%TO.C,J15*%
X96000000Y-50975000D03*
D36*
X98000000Y-50975000D03*
X100000000Y-50975000D03*
X102000000Y-50975000D03*
%TD*%
D10*
%TO.C,R6*%
X60970000Y-81220000D03*
X60970000Y-91380000D03*
%TD*%
D29*
%TO.C,Q2*%
X153490000Y-134460000D03*
D30*
X153490000Y-137000000D03*
X153490000Y-139540000D03*
%TD*%
D37*
%TO.C,C7*%
X244200000Y-77300000D03*
D38*
X244200000Y-72300000D03*
%TD*%
D10*
%TO.C,R1*%
X55950000Y-140500000D03*
X55950000Y-130340000D03*
%TD*%
D25*
%TO.C,J17*%
X78500000Y-50975000D03*
D26*
X81000000Y-50975000D03*
X83500000Y-50975000D03*
X86000000Y-50975000D03*
%TD*%
D10*
%TO.C,R19*%
X153500000Y-130080000D03*
X153500000Y-119920000D03*
%TD*%
%TO.C,R9*%
X73950000Y-85330000D03*
X84110000Y-85330000D03*
%TD*%
%TO.C,R2*%
X60000000Y-140500000D03*
X60000000Y-130340000D03*
%TD*%
D23*
%TO.C,J4*%
X202880000Y-147950000D03*
D24*
X205420000Y-147950000D03*
X207960000Y-147950000D03*
X210500000Y-147950000D03*
%TD*%
D27*
%TO.C,U2*%
X188950000Y-130500000D03*
D28*
X188950000Y-133040000D03*
X188950000Y-135580000D03*
X188950000Y-138120000D03*
X196890000Y-138120000D03*
X196890000Y-135580000D03*
X196890000Y-133040000D03*
X196890000Y-130500000D03*
%TD*%
D10*
%TO.C,C10*%
X164060000Y-98390000D03*
X159060000Y-98390000D03*
%TD*%
%TO.C,R23*%
X147820000Y-81450000D03*
X147820000Y-71290000D03*
%TD*%
%TO.C,R18*%
X172000000Y-105340000D03*
X172000000Y-115500000D03*
%TD*%
%TO.C,C9*%
X145560000Y-98310000D03*
X140560000Y-98310000D03*
%TD*%
D11*
%TO.C,J10*%
X43260000Y-67980000D03*
D12*
X45800000Y-67980000D03*
X43260000Y-70520000D03*
X45800000Y-70520000D03*
X43260000Y-73060000D03*
X45800000Y-73060000D03*
X43260000Y-75600000D03*
X45800000Y-75600000D03*
X43260000Y-78140000D03*
X45800000Y-78140000D03*
X43260000Y-80680000D03*
X45800000Y-80680000D03*
X43260000Y-83220000D03*
X45800000Y-83220000D03*
X43260000Y-85760000D03*
X45800000Y-85760000D03*
X43260000Y-88300000D03*
X45800000Y-88300000D03*
X43260000Y-90840000D03*
X45800000Y-90840000D03*
X43260000Y-93380000D03*
X45800000Y-93380000D03*
X43260000Y-95920000D03*
X45800000Y-95920000D03*
X43260000Y-98460000D03*
X45800000Y-98460000D03*
X43260000Y-101000000D03*
X45800000Y-101000000D03*
X43260000Y-103540000D03*
X45800000Y-103540000D03*
X43260000Y-106080000D03*
X45800000Y-106080000D03*
X43260000Y-108620000D03*
X45800000Y-108620000D03*
X43260000Y-111160000D03*
X45800000Y-111160000D03*
X43260000Y-113700000D03*
X45800000Y-113700000D03*
X43260000Y-116240000D03*
X45800000Y-116240000D03*
%TD*%
D27*
%TO.C,U5*%
X157590000Y-107080000D03*
D28*
X157590000Y-109620000D03*
X157590000Y-112160000D03*
X157590000Y-114700000D03*
X165530000Y-114700000D03*
X165530000Y-112160000D03*
X165530000Y-109620000D03*
X165530000Y-107080000D03*
%TD*%
D10*
%TO.C,C5*%
X210250000Y-98750000D03*
X210250000Y-103750000D03*
%TD*%
D25*
%TO.C,J24*%
X78100000Y-147450000D03*
D26*
X80600000Y-147450000D03*
X83100000Y-147450000D03*
%TD*%
D10*
%TO.C,R8*%
X74020000Y-80510000D03*
X84180000Y-80510000D03*
%TD*%
D11*
%TO.C,J1*%
X44220000Y-52110000D03*
D12*
X46760000Y-52110000D03*
X49300000Y-52110000D03*
X51840000Y-52110000D03*
X54380000Y-52110000D03*
%TD*%
D10*
%TO.C,C4*%
X223450000Y-122080000D03*
X218450000Y-122080000D03*
%TD*%
%TO.C,R14*%
X211000000Y-139660000D03*
X211000000Y-129500000D03*
%TD*%
%TO.C,R22*%
X89000000Y-140500000D03*
X89000000Y-130340000D03*
%TD*%
D25*
%TO.C,J9*%
X152500000Y-51000000D03*
D26*
X155000000Y-51000000D03*
X157500000Y-51000000D03*
X160000000Y-51000000D03*
%TD*%
D11*
%TO.C,J21*%
X58250000Y-99640000D03*
D12*
X58250000Y-102180000D03*
X58250000Y-104720000D03*
X58250000Y-107260000D03*
X58250000Y-109800000D03*
X58250000Y-112340000D03*
X58250000Y-114880000D03*
X58250000Y-117420000D03*
X58250000Y-119960000D03*
X58250000Y-122500000D03*
%TD*%
D27*
%TO.C,U4*%
X139060000Y-107000000D03*
D28*
X139060000Y-109540000D03*
X139060000Y-112080000D03*
X139060000Y-114620000D03*
X147000000Y-114620000D03*
X147000000Y-112080000D03*
X147000000Y-109540000D03*
X147000000Y-107000000D03*
%TD*%
D19*
%TO.C,J35*%
X148000000Y-148450000D03*
D20*
X145500000Y-148450000D03*
X143000000Y-148450000D03*
X140500000Y-148450000D03*
%TD*%
D35*
%TO.C,J18*%
X170000000Y-51000000D03*
D36*
X172000000Y-51000000D03*
X174000000Y-51000000D03*
X176000000Y-51000000D03*
%TD*%
D10*
%TO.C,R17*%
X142500000Y-130080000D03*
X142500000Y-119920000D03*
%TD*%
D39*
%TO.C,U1*%
X89600000Y-71880000D03*
D40*
X89600000Y-74420000D03*
X89600000Y-76960000D03*
X89600000Y-79500000D03*
X89600000Y-82040000D03*
X89600000Y-84580000D03*
X89600000Y-87120000D03*
X89600000Y-89660000D03*
X89600000Y-92200000D03*
X89600000Y-94740000D03*
X89600000Y-97280000D03*
X89600000Y-99820000D03*
X89600000Y-102360000D03*
X89600000Y-104900000D03*
X89600000Y-107440000D03*
X89600000Y-109980000D03*
X89600000Y-112520000D03*
X89600000Y-115060000D03*
X89600000Y-117600000D03*
X115000000Y-71880000D03*
X115000000Y-74420000D03*
X115000000Y-76960000D03*
X115000000Y-79500000D03*
X115000000Y-82040000D03*
X115000000Y-84580000D03*
X115000000Y-87120000D03*
X115000000Y-89660000D03*
X115000000Y-92200000D03*
X115000000Y-94740000D03*
X115000000Y-97280000D03*
X115000000Y-99820000D03*
X115000000Y-102360000D03*
X115000000Y-104900000D03*
X115000000Y-107440000D03*
X115000000Y-109980000D03*
X115000000Y-112520000D03*
X115000000Y-115060000D03*
X115000000Y-117600000D03*
%TD*%
D10*
%TO.C,R16*%
X127060000Y-105730000D03*
X127060000Y-115890000D03*
%TD*%
%TO.C,R25*%
X198930000Y-70110000D03*
X188770000Y-70110000D03*
%TD*%
%TO.C,R20*%
X163000000Y-130160000D03*
X163000000Y-120000000D03*
%TD*%
D23*
%TO.C,J3*%
X188380000Y-147950000D03*
D24*
X190920000Y-147950000D03*
X193460000Y-147950000D03*
X196000000Y-147950000D03*
%TD*%
D10*
%TO.C,R11*%
X181500000Y-129500000D03*
X181500000Y-139660000D03*
%TD*%
%TO.C,R15*%
X131110000Y-105730000D03*
X131110000Y-115890000D03*
%TD*%
D41*
%TO.C,F4*%
X222550000Y-74100000D03*
D15*
X233800000Y-74100000D03*
X211300000Y-74100000D03*
%TD*%
D42*
%TO.C,F3*%
X212100000Y-92000000D03*
X221400000Y-92000000D03*
%TD*%
D10*
%TO.C,R4*%
X67840000Y-66130000D03*
X67840000Y-76290000D03*
%TD*%
D23*
%TO.C,J2*%
X173880000Y-147950000D03*
D24*
X176420000Y-147950000D03*
X178960000Y-147950000D03*
X181500000Y-147950000D03*
%TD*%
D10*
%TO.C,R26*%
X184260000Y-79890000D03*
X184260000Y-69730000D03*
%TD*%
D21*
%TO.C,J20*%
X173370000Y-73310000D03*
D22*
X173370000Y-70810000D03*
%TD*%
D29*
%TO.C,Q1*%
X142500000Y-134500000D03*
D30*
X142500000Y-137040000D03*
X142500000Y-139580000D03*
%TD*%
D43*
%TO.C,C6*%
X203500000Y-101500000D03*
D38*
X198500000Y-101500000D03*
%TD*%
D10*
%TO.C,R27*%
X240400000Y-124300000D03*
X230240000Y-124300000D03*
%TD*%
M02*
