%TF.GenerationSoftware,KiCad,Pcbnew,10.0.3*%
%TF.CreationDate,2026-06-23T15:24:23+01:00*%
%TF.ProjectId,PCB_Test,5043425f-5465-4737-942e-6b696361645f,rev?*%
%TF.SameCoordinates,Original*%
%TF.FileFunction,Legend,Top*%
%TF.FilePolarity,Positive*%
%FSLAX46Y46*%
G04 Gerber Fmt 4.6, Leading zero omitted, Abs format (unit mm)*
G04 Created by KiCad (PCBNEW 10.0.3) date 2026-06-23 15:24:23*
%MOMM*%
%LPD*%
G01*
G04 APERTURE LIST*
%ADD10C,0.400000*%
%ADD11C,0.150000*%
%ADD12C,0.254000*%
%ADD13C,0.000000*%
%ADD14C,0.120000*%
%ADD15C,0.100000*%
%ADD16C,0.200000*%
%ADD17C,0.127000*%
G04 APERTURE END LIST*
D10*
X183653633Y-55434438D02*
X184320299Y-57434438D01*
X184320299Y-57434438D02*
X184986966Y-55434438D01*
X186415538Y-57339200D02*
X186225062Y-57434438D01*
X186225062Y-57434438D02*
X185844109Y-57434438D01*
X185844109Y-57434438D02*
X185653633Y-57339200D01*
X185653633Y-57339200D02*
X185558395Y-57148723D01*
X185558395Y-57148723D02*
X185558395Y-56386819D01*
X185558395Y-56386819D02*
X185653633Y-56196342D01*
X185653633Y-56196342D02*
X185844109Y-56101104D01*
X185844109Y-56101104D02*
X186225062Y-56101104D01*
X186225062Y-56101104D02*
X186415538Y-56196342D01*
X186415538Y-56196342D02*
X186510776Y-56386819D01*
X186510776Y-56386819D02*
X186510776Y-56577295D01*
X186510776Y-56577295D02*
X185558395Y-56767771D01*
X187367919Y-57434438D02*
X187367919Y-56101104D01*
X187367919Y-56482057D02*
X187463157Y-56291580D01*
X187463157Y-56291580D02*
X187558395Y-56196342D01*
X187558395Y-56196342D02*
X187748871Y-56101104D01*
X187748871Y-56101104D02*
X187939348Y-56101104D01*
X188320300Y-56101104D02*
X189082204Y-56101104D01*
X188606014Y-55434438D02*
X188606014Y-57148723D01*
X188606014Y-57148723D02*
X188701252Y-57339200D01*
X188701252Y-57339200D02*
X188891728Y-57434438D01*
X188891728Y-57434438D02*
X189082204Y-57434438D01*
X189748871Y-57434438D02*
X189748871Y-56101104D01*
X189748871Y-55434438D02*
X189653633Y-55529676D01*
X189653633Y-55529676D02*
X189748871Y-55624914D01*
X189748871Y-55624914D02*
X189844109Y-55529676D01*
X189844109Y-55529676D02*
X189748871Y-55434438D01*
X189748871Y-55434438D02*
X189748871Y-55624914D01*
X191367919Y-56386819D02*
X190701252Y-56386819D01*
X190701252Y-57434438D02*
X190701252Y-55434438D01*
X190701252Y-55434438D02*
X191653633Y-55434438D01*
X193272681Y-57434438D02*
X193272681Y-56386819D01*
X193272681Y-56386819D02*
X193177443Y-56196342D01*
X193177443Y-56196342D02*
X192986967Y-56101104D01*
X192986967Y-56101104D02*
X192606014Y-56101104D01*
X192606014Y-56101104D02*
X192415538Y-56196342D01*
X193272681Y-57339200D02*
X193082205Y-57434438D01*
X193082205Y-57434438D02*
X192606014Y-57434438D01*
X192606014Y-57434438D02*
X192415538Y-57339200D01*
X192415538Y-57339200D02*
X192320300Y-57148723D01*
X192320300Y-57148723D02*
X192320300Y-56958247D01*
X192320300Y-56958247D02*
X192415538Y-56767771D01*
X192415538Y-56767771D02*
X192606014Y-56672533D01*
X192606014Y-56672533D02*
X193082205Y-56672533D01*
X193082205Y-56672533D02*
X193272681Y-56577295D01*
X194225062Y-57434438D02*
X194225062Y-56101104D01*
X194225062Y-56482057D02*
X194320300Y-56291580D01*
X194320300Y-56291580D02*
X194415538Y-56196342D01*
X194415538Y-56196342D02*
X194606014Y-56101104D01*
X194606014Y-56101104D02*
X194796491Y-56101104D01*
X195463157Y-57434438D02*
X195463157Y-56101104D01*
X195463157Y-56291580D02*
X195558395Y-56196342D01*
X195558395Y-56196342D02*
X195748871Y-56101104D01*
X195748871Y-56101104D02*
X196034586Y-56101104D01*
X196034586Y-56101104D02*
X196225062Y-56196342D01*
X196225062Y-56196342D02*
X196320300Y-56386819D01*
X196320300Y-56386819D02*
X196320300Y-57434438D01*
X196320300Y-56386819D02*
X196415538Y-56196342D01*
X196415538Y-56196342D02*
X196606014Y-56101104D01*
X196606014Y-56101104D02*
X196891728Y-56101104D01*
X196891728Y-56101104D02*
X197082205Y-56196342D01*
X197082205Y-56196342D02*
X197177443Y-56386819D01*
X197177443Y-56386819D02*
X197177443Y-57434438D01*
D11*
X208689580Y-57666666D02*
X208737200Y-57714285D01*
X208737200Y-57714285D02*
X208784819Y-57857142D01*
X208784819Y-57857142D02*
X208784819Y-57952380D01*
X208784819Y-57952380D02*
X208737200Y-58095237D01*
X208737200Y-58095237D02*
X208641961Y-58190475D01*
X208641961Y-58190475D02*
X208546723Y-58238094D01*
X208546723Y-58238094D02*
X208356247Y-58285713D01*
X208356247Y-58285713D02*
X208213390Y-58285713D01*
X208213390Y-58285713D02*
X208022914Y-58238094D01*
X208022914Y-58238094D02*
X207927676Y-58190475D01*
X207927676Y-58190475D02*
X207832438Y-58095237D01*
X207832438Y-58095237D02*
X207784819Y-57952380D01*
X207784819Y-57952380D02*
X207784819Y-57857142D01*
X207784819Y-57857142D02*
X207832438Y-57714285D01*
X207832438Y-57714285D02*
X207880057Y-57666666D01*
X208213390Y-57095237D02*
X208165771Y-57190475D01*
X208165771Y-57190475D02*
X208118152Y-57238094D01*
X208118152Y-57238094D02*
X208022914Y-57285713D01*
X208022914Y-57285713D02*
X207975295Y-57285713D01*
X207975295Y-57285713D02*
X207880057Y-57238094D01*
X207880057Y-57238094D02*
X207832438Y-57190475D01*
X207832438Y-57190475D02*
X207784819Y-57095237D01*
X207784819Y-57095237D02*
X207784819Y-56904761D01*
X207784819Y-56904761D02*
X207832438Y-56809523D01*
X207832438Y-56809523D02*
X207880057Y-56761904D01*
X207880057Y-56761904D02*
X207975295Y-56714285D01*
X207975295Y-56714285D02*
X208022914Y-56714285D01*
X208022914Y-56714285D02*
X208118152Y-56761904D01*
X208118152Y-56761904D02*
X208165771Y-56809523D01*
X208165771Y-56809523D02*
X208213390Y-56904761D01*
X208213390Y-56904761D02*
X208213390Y-57095237D01*
X208213390Y-57095237D02*
X208261009Y-57190475D01*
X208261009Y-57190475D02*
X208308628Y-57238094D01*
X208308628Y-57238094D02*
X208403866Y-57285713D01*
X208403866Y-57285713D02*
X208594342Y-57285713D01*
X208594342Y-57285713D02*
X208689580Y-57238094D01*
X208689580Y-57238094D02*
X208737200Y-57190475D01*
X208737200Y-57190475D02*
X208784819Y-57095237D01*
X208784819Y-57095237D02*
X208784819Y-56904761D01*
X208784819Y-56904761D02*
X208737200Y-56809523D01*
X208737200Y-56809523D02*
X208689580Y-56761904D01*
X208689580Y-56761904D02*
X208594342Y-56714285D01*
X208594342Y-56714285D02*
X208403866Y-56714285D01*
X208403866Y-56714285D02*
X208308628Y-56761904D01*
X208308628Y-56761904D02*
X208261009Y-56809523D01*
X208261009Y-56809523D02*
X208213390Y-56904761D01*
X129190476Y-45074819D02*
X129190476Y-45789104D01*
X129190476Y-45789104D02*
X129142857Y-45931961D01*
X129142857Y-45931961D02*
X129047619Y-46027200D01*
X129047619Y-46027200D02*
X128904762Y-46074819D01*
X128904762Y-46074819D02*
X128809524Y-46074819D01*
X129571429Y-45074819D02*
X130190476Y-45074819D01*
X130190476Y-45074819D02*
X129857143Y-45455771D01*
X129857143Y-45455771D02*
X130000000Y-45455771D01*
X130000000Y-45455771D02*
X130095238Y-45503390D01*
X130095238Y-45503390D02*
X130142857Y-45551009D01*
X130142857Y-45551009D02*
X130190476Y-45646247D01*
X130190476Y-45646247D02*
X130190476Y-45884342D01*
X130190476Y-45884342D02*
X130142857Y-45979580D01*
X130142857Y-45979580D02*
X130095238Y-46027200D01*
X130095238Y-46027200D02*
X130000000Y-46074819D01*
X130000000Y-46074819D02*
X129714286Y-46074819D01*
X129714286Y-46074819D02*
X129619048Y-46027200D01*
X129619048Y-46027200D02*
X129571429Y-45979580D01*
X130523810Y-45074819D02*
X131142857Y-45074819D01*
X131142857Y-45074819D02*
X130809524Y-45455771D01*
X130809524Y-45455771D02*
X130952381Y-45455771D01*
X130952381Y-45455771D02*
X131047619Y-45503390D01*
X131047619Y-45503390D02*
X131095238Y-45551009D01*
X131095238Y-45551009D02*
X131142857Y-45646247D01*
X131142857Y-45646247D02*
X131142857Y-45884342D01*
X131142857Y-45884342D02*
X131095238Y-45979580D01*
X131095238Y-45979580D02*
X131047619Y-46027200D01*
X131047619Y-46027200D02*
X130952381Y-46074819D01*
X130952381Y-46074819D02*
X130666667Y-46074819D01*
X130666667Y-46074819D02*
X130571429Y-46027200D01*
X130571429Y-46027200D02*
X130523810Y-45979580D01*
D12*
X221476667Y-53904318D02*
X221476667Y-54811461D01*
X221476667Y-54811461D02*
X221416190Y-54992889D01*
X221416190Y-54992889D02*
X221295238Y-55113842D01*
X221295238Y-55113842D02*
X221113809Y-55174318D01*
X221113809Y-55174318D02*
X220992857Y-55174318D01*
X222262857Y-54448603D02*
X222141905Y-54388127D01*
X222141905Y-54388127D02*
X222081428Y-54327651D01*
X222081428Y-54327651D02*
X222020952Y-54206699D01*
X222020952Y-54206699D02*
X222020952Y-54146222D01*
X222020952Y-54146222D02*
X222081428Y-54025270D01*
X222081428Y-54025270D02*
X222141905Y-53964794D01*
X222141905Y-53964794D02*
X222262857Y-53904318D01*
X222262857Y-53904318D02*
X222504762Y-53904318D01*
X222504762Y-53904318D02*
X222625714Y-53964794D01*
X222625714Y-53964794D02*
X222686190Y-54025270D01*
X222686190Y-54025270D02*
X222746667Y-54146222D01*
X222746667Y-54146222D02*
X222746667Y-54206699D01*
X222746667Y-54206699D02*
X222686190Y-54327651D01*
X222686190Y-54327651D02*
X222625714Y-54388127D01*
X222625714Y-54388127D02*
X222504762Y-54448603D01*
X222504762Y-54448603D02*
X222262857Y-54448603D01*
X222262857Y-54448603D02*
X222141905Y-54509080D01*
X222141905Y-54509080D02*
X222081428Y-54569556D01*
X222081428Y-54569556D02*
X222020952Y-54690508D01*
X222020952Y-54690508D02*
X222020952Y-54932413D01*
X222020952Y-54932413D02*
X222081428Y-55053365D01*
X222081428Y-55053365D02*
X222141905Y-55113842D01*
X222141905Y-55113842D02*
X222262857Y-55174318D01*
X222262857Y-55174318D02*
X222504762Y-55174318D01*
X222504762Y-55174318D02*
X222625714Y-55113842D01*
X222625714Y-55113842D02*
X222686190Y-55053365D01*
X222686190Y-55053365D02*
X222746667Y-54932413D01*
X222746667Y-54932413D02*
X222746667Y-54690508D01*
X222746667Y-54690508D02*
X222686190Y-54569556D01*
X222686190Y-54569556D02*
X222625714Y-54509080D01*
X222625714Y-54509080D02*
X222504762Y-54448603D01*
X245576667Y-98204318D02*
X245576667Y-99111461D01*
X245576667Y-99111461D02*
X245516190Y-99292889D01*
X245516190Y-99292889D02*
X245395238Y-99413842D01*
X245395238Y-99413842D02*
X245213809Y-99474318D01*
X245213809Y-99474318D02*
X245092857Y-99474318D01*
X246060476Y-98204318D02*
X246907143Y-98204318D01*
X246907143Y-98204318D02*
X246362857Y-99474318D01*
D11*
X78963333Y-73744819D02*
X78630000Y-73268628D01*
X78391905Y-73744819D02*
X78391905Y-72744819D01*
X78391905Y-72744819D02*
X78772857Y-72744819D01*
X78772857Y-72744819D02*
X78868095Y-72792438D01*
X78868095Y-72792438D02*
X78915714Y-72840057D01*
X78915714Y-72840057D02*
X78963333Y-72935295D01*
X78963333Y-72935295D02*
X78963333Y-73078152D01*
X78963333Y-73078152D02*
X78915714Y-73173390D01*
X78915714Y-73173390D02*
X78868095Y-73221009D01*
X78868095Y-73221009D02*
X78772857Y-73268628D01*
X78772857Y-73268628D02*
X78391905Y-73268628D01*
X79296667Y-72744819D02*
X79963333Y-72744819D01*
X79963333Y-72744819D02*
X79534762Y-73744819D01*
X160135095Y-143484439D02*
X160135095Y-144159355D01*
X160135095Y-144159355D02*
X160090100Y-144294338D01*
X160090100Y-144294338D02*
X160000112Y-144384327D01*
X160000112Y-144384327D02*
X159865128Y-144429321D01*
X159865128Y-144429321D02*
X159775140Y-144429321D01*
X160495050Y-143484439D02*
X161079977Y-143484439D01*
X161079977Y-143484439D02*
X160765016Y-143844394D01*
X160765016Y-143844394D02*
X160899999Y-143844394D01*
X160899999Y-143844394D02*
X160989988Y-143889388D01*
X160989988Y-143889388D02*
X161034982Y-143934383D01*
X161034982Y-143934383D02*
X161079977Y-144024371D01*
X161079977Y-144024371D02*
X161079977Y-144249343D01*
X161079977Y-144249343D02*
X161034982Y-144339332D01*
X161034982Y-144339332D02*
X160989988Y-144384327D01*
X160989988Y-144384327D02*
X160899999Y-144429321D01*
X160899999Y-144429321D02*
X160630033Y-144429321D01*
X160630033Y-144429321D02*
X160540044Y-144384327D01*
X160540044Y-144384327D02*
X160495050Y-144339332D01*
X161889876Y-143484439D02*
X161709898Y-143484439D01*
X161709898Y-143484439D02*
X161619910Y-143529433D01*
X161619910Y-143529433D02*
X161574915Y-143574428D01*
X161574915Y-143574428D02*
X161484926Y-143709411D01*
X161484926Y-143709411D02*
X161439932Y-143889388D01*
X161439932Y-143889388D02*
X161439932Y-144249343D01*
X161439932Y-144249343D02*
X161484926Y-144339332D01*
X161484926Y-144339332D02*
X161529921Y-144384327D01*
X161529921Y-144384327D02*
X161619910Y-144429321D01*
X161619910Y-144429321D02*
X161799887Y-144429321D01*
X161799887Y-144429321D02*
X161889876Y-144384327D01*
X161889876Y-144384327D02*
X161934870Y-144339332D01*
X161934870Y-144339332D02*
X161979865Y-144249343D01*
X161979865Y-144249343D02*
X161979865Y-144024371D01*
X161979865Y-144024371D02*
X161934870Y-143934383D01*
X161934870Y-143934383D02*
X161889876Y-143889388D01*
X161889876Y-143889388D02*
X161799887Y-143844394D01*
X161799887Y-143844394D02*
X161619910Y-143844394D01*
X161619910Y-143844394D02*
X161529921Y-143889388D01*
X161529921Y-143889388D02*
X161484926Y-143934383D01*
X161484926Y-143934383D02*
X161439932Y-144024371D01*
X175654819Y-135042857D02*
X175178628Y-135376190D01*
X175654819Y-135614285D02*
X174654819Y-135614285D01*
X174654819Y-135614285D02*
X174654819Y-135233333D01*
X174654819Y-135233333D02*
X174702438Y-135138095D01*
X174702438Y-135138095D02*
X174750057Y-135090476D01*
X174750057Y-135090476D02*
X174845295Y-135042857D01*
X174845295Y-135042857D02*
X174988152Y-135042857D01*
X174988152Y-135042857D02*
X175083390Y-135090476D01*
X175083390Y-135090476D02*
X175131009Y-135138095D01*
X175131009Y-135138095D02*
X175178628Y-135233333D01*
X175178628Y-135233333D02*
X175178628Y-135614285D01*
X175654819Y-134090476D02*
X175654819Y-134661904D01*
X175654819Y-134376190D02*
X174654819Y-134376190D01*
X174654819Y-134376190D02*
X174797676Y-134471428D01*
X174797676Y-134471428D02*
X174892914Y-134566666D01*
X174892914Y-134566666D02*
X174940533Y-134661904D01*
X174750057Y-133709523D02*
X174702438Y-133661904D01*
X174702438Y-133661904D02*
X174654819Y-133566666D01*
X174654819Y-133566666D02*
X174654819Y-133328571D01*
X174654819Y-133328571D02*
X174702438Y-133233333D01*
X174702438Y-133233333D02*
X174750057Y-133185714D01*
X174750057Y-133185714D02*
X174845295Y-133138095D01*
X174845295Y-133138095D02*
X174940533Y-133138095D01*
X174940533Y-133138095D02*
X175083390Y-133185714D01*
X175083390Y-133185714D02*
X175654819Y-133757142D01*
X175654819Y-133757142D02*
X175654819Y-133138095D01*
X31828571Y-138431009D02*
X31495238Y-138431009D01*
X31495238Y-138954819D02*
X31495238Y-137954819D01*
X31495238Y-137954819D02*
X31971428Y-137954819D01*
X32352381Y-138954819D02*
X32352381Y-137954819D01*
X32828571Y-138954819D02*
X32828571Y-137954819D01*
X32828571Y-137954819D02*
X33066666Y-137954819D01*
X33066666Y-137954819D02*
X33209523Y-138002438D01*
X33209523Y-138002438D02*
X33304761Y-138097676D01*
X33304761Y-138097676D02*
X33352380Y-138192914D01*
X33352380Y-138192914D02*
X33399999Y-138383390D01*
X33399999Y-138383390D02*
X33399999Y-138526247D01*
X33399999Y-138526247D02*
X33352380Y-138716723D01*
X33352380Y-138716723D02*
X33304761Y-138811961D01*
X33304761Y-138811961D02*
X33209523Y-138907200D01*
X33209523Y-138907200D02*
X33066666Y-138954819D01*
X33066666Y-138954819D02*
X32828571Y-138954819D01*
X33733333Y-137954819D02*
X34352380Y-137954819D01*
X34352380Y-137954819D02*
X34019047Y-138335771D01*
X34019047Y-138335771D02*
X34161904Y-138335771D01*
X34161904Y-138335771D02*
X34257142Y-138383390D01*
X34257142Y-138383390D02*
X34304761Y-138431009D01*
X34304761Y-138431009D02*
X34352380Y-138526247D01*
X34352380Y-138526247D02*
X34352380Y-138764342D01*
X34352380Y-138764342D02*
X34304761Y-138859580D01*
X34304761Y-138859580D02*
X34257142Y-138907200D01*
X34257142Y-138907200D02*
X34161904Y-138954819D01*
X34161904Y-138954819D02*
X33876190Y-138954819D01*
X33876190Y-138954819D02*
X33780952Y-138907200D01*
X33780952Y-138907200D02*
X33733333Y-138859580D01*
X141890476Y-45074819D02*
X141890476Y-45789104D01*
X141890476Y-45789104D02*
X141842857Y-45931961D01*
X141842857Y-45931961D02*
X141747619Y-46027200D01*
X141747619Y-46027200D02*
X141604762Y-46074819D01*
X141604762Y-46074819D02*
X141509524Y-46074819D01*
X142271429Y-45074819D02*
X142890476Y-45074819D01*
X142890476Y-45074819D02*
X142557143Y-45455771D01*
X142557143Y-45455771D02*
X142700000Y-45455771D01*
X142700000Y-45455771D02*
X142795238Y-45503390D01*
X142795238Y-45503390D02*
X142842857Y-45551009D01*
X142842857Y-45551009D02*
X142890476Y-45646247D01*
X142890476Y-45646247D02*
X142890476Y-45884342D01*
X142890476Y-45884342D02*
X142842857Y-45979580D01*
X142842857Y-45979580D02*
X142795238Y-46027200D01*
X142795238Y-46027200D02*
X142700000Y-46074819D01*
X142700000Y-46074819D02*
X142414286Y-46074819D01*
X142414286Y-46074819D02*
X142319048Y-46027200D01*
X142319048Y-46027200D02*
X142271429Y-45979580D01*
X143747619Y-45408152D02*
X143747619Y-46074819D01*
X143509524Y-45027200D02*
X143271429Y-45741485D01*
X143271429Y-45741485D02*
X143890476Y-45741485D01*
X134239819Y-72553333D02*
X134954104Y-72553333D01*
X134954104Y-72553333D02*
X135096961Y-72600952D01*
X135096961Y-72600952D02*
X135192200Y-72696190D01*
X135192200Y-72696190D02*
X135239819Y-72839047D01*
X135239819Y-72839047D02*
X135239819Y-72934285D01*
X134239819Y-71600952D02*
X134239819Y-72077142D01*
X134239819Y-72077142D02*
X134716009Y-72124761D01*
X134716009Y-72124761D02*
X134668390Y-72077142D01*
X134668390Y-72077142D02*
X134620771Y-71981904D01*
X134620771Y-71981904D02*
X134620771Y-71743809D01*
X134620771Y-71743809D02*
X134668390Y-71648571D01*
X134668390Y-71648571D02*
X134716009Y-71600952D01*
X134716009Y-71600952D02*
X134811247Y-71553333D01*
X134811247Y-71553333D02*
X135049342Y-71553333D01*
X135049342Y-71553333D02*
X135144580Y-71600952D01*
X135144580Y-71600952D02*
X135192200Y-71648571D01*
X135192200Y-71648571D02*
X135239819Y-71743809D01*
X135239819Y-71743809D02*
X135239819Y-71981904D01*
X135239819Y-71981904D02*
X135192200Y-72077142D01*
X135192200Y-72077142D02*
X135144580Y-72124761D01*
X220896666Y-143284819D02*
X220896666Y-143999104D01*
X220896666Y-143999104D02*
X220849047Y-144141961D01*
X220849047Y-144141961D02*
X220753809Y-144237200D01*
X220753809Y-144237200D02*
X220610952Y-144284819D01*
X220610952Y-144284819D02*
X220515714Y-144284819D01*
X221801428Y-143284819D02*
X221610952Y-143284819D01*
X221610952Y-143284819D02*
X221515714Y-143332438D01*
X221515714Y-143332438D02*
X221468095Y-143380057D01*
X221468095Y-143380057D02*
X221372857Y-143522914D01*
X221372857Y-143522914D02*
X221325238Y-143713390D01*
X221325238Y-143713390D02*
X221325238Y-144094342D01*
X221325238Y-144094342D02*
X221372857Y-144189580D01*
X221372857Y-144189580D02*
X221420476Y-144237200D01*
X221420476Y-144237200D02*
X221515714Y-144284819D01*
X221515714Y-144284819D02*
X221706190Y-144284819D01*
X221706190Y-144284819D02*
X221801428Y-144237200D01*
X221801428Y-144237200D02*
X221849047Y-144189580D01*
X221849047Y-144189580D02*
X221896666Y-144094342D01*
X221896666Y-144094342D02*
X221896666Y-143856247D01*
X221896666Y-143856247D02*
X221849047Y-143761009D01*
X221849047Y-143761009D02*
X221801428Y-143713390D01*
X221801428Y-143713390D02*
X221706190Y-143665771D01*
X221706190Y-143665771D02*
X221515714Y-143665771D01*
X221515714Y-143665771D02*
X221420476Y-143713390D01*
X221420476Y-143713390D02*
X221372857Y-143761009D01*
X221372857Y-143761009D02*
X221325238Y-143856247D01*
X49190476Y-143354819D02*
X49190476Y-144069104D01*
X49190476Y-144069104D02*
X49142857Y-144211961D01*
X49142857Y-144211961D02*
X49047619Y-144307200D01*
X49047619Y-144307200D02*
X48904762Y-144354819D01*
X48904762Y-144354819D02*
X48809524Y-144354819D01*
X49619048Y-143450057D02*
X49666667Y-143402438D01*
X49666667Y-143402438D02*
X49761905Y-143354819D01*
X49761905Y-143354819D02*
X50000000Y-143354819D01*
X50000000Y-143354819D02*
X50095238Y-143402438D01*
X50095238Y-143402438D02*
X50142857Y-143450057D01*
X50142857Y-143450057D02*
X50190476Y-143545295D01*
X50190476Y-143545295D02*
X50190476Y-143640533D01*
X50190476Y-143640533D02*
X50142857Y-143783390D01*
X50142857Y-143783390D02*
X49571429Y-144354819D01*
X49571429Y-144354819D02*
X50190476Y-144354819D01*
X50571429Y-143450057D02*
X50619048Y-143402438D01*
X50619048Y-143402438D02*
X50714286Y-143354819D01*
X50714286Y-143354819D02*
X50952381Y-143354819D01*
X50952381Y-143354819D02*
X51047619Y-143402438D01*
X51047619Y-143402438D02*
X51095238Y-143450057D01*
X51095238Y-143450057D02*
X51142857Y-143545295D01*
X51142857Y-143545295D02*
X51142857Y-143640533D01*
X51142857Y-143640533D02*
X51095238Y-143783390D01*
X51095238Y-143783390D02*
X50523810Y-144354819D01*
X50523810Y-144354819D02*
X51142857Y-144354819D01*
X83034819Y-136062857D02*
X82558628Y-136396190D01*
X83034819Y-136634285D02*
X82034819Y-136634285D01*
X82034819Y-136634285D02*
X82034819Y-136253333D01*
X82034819Y-136253333D02*
X82082438Y-136158095D01*
X82082438Y-136158095D02*
X82130057Y-136110476D01*
X82130057Y-136110476D02*
X82225295Y-136062857D01*
X82225295Y-136062857D02*
X82368152Y-136062857D01*
X82368152Y-136062857D02*
X82463390Y-136110476D01*
X82463390Y-136110476D02*
X82511009Y-136158095D01*
X82511009Y-136158095D02*
X82558628Y-136253333D01*
X82558628Y-136253333D02*
X82558628Y-136634285D01*
X82130057Y-135681904D02*
X82082438Y-135634285D01*
X82082438Y-135634285D02*
X82034819Y-135539047D01*
X82034819Y-135539047D02*
X82034819Y-135300952D01*
X82034819Y-135300952D02*
X82082438Y-135205714D01*
X82082438Y-135205714D02*
X82130057Y-135158095D01*
X82130057Y-135158095D02*
X82225295Y-135110476D01*
X82225295Y-135110476D02*
X82320533Y-135110476D01*
X82320533Y-135110476D02*
X82463390Y-135158095D01*
X82463390Y-135158095D02*
X83034819Y-135729523D01*
X83034819Y-135729523D02*
X83034819Y-135110476D01*
X83034819Y-134158095D02*
X83034819Y-134729523D01*
X83034819Y-134443809D02*
X82034819Y-134443809D01*
X82034819Y-134443809D02*
X82177676Y-134539047D01*
X82177676Y-134539047D02*
X82272914Y-134634285D01*
X82272914Y-134634285D02*
X82320533Y-134729523D01*
X67274819Y-78876666D02*
X66798628Y-79209999D01*
X67274819Y-79448094D02*
X66274819Y-79448094D01*
X66274819Y-79448094D02*
X66274819Y-79067142D01*
X66274819Y-79067142D02*
X66322438Y-78971904D01*
X66322438Y-78971904D02*
X66370057Y-78924285D01*
X66370057Y-78924285D02*
X66465295Y-78876666D01*
X66465295Y-78876666D02*
X66608152Y-78876666D01*
X66608152Y-78876666D02*
X66703390Y-78924285D01*
X66703390Y-78924285D02*
X66751009Y-78971904D01*
X66751009Y-78971904D02*
X66798628Y-79067142D01*
X66798628Y-79067142D02*
X66798628Y-79448094D01*
X66274819Y-77971904D02*
X66274819Y-78448094D01*
X66274819Y-78448094D02*
X66751009Y-78495713D01*
X66751009Y-78495713D02*
X66703390Y-78448094D01*
X66703390Y-78448094D02*
X66655771Y-78352856D01*
X66655771Y-78352856D02*
X66655771Y-78114761D01*
X66655771Y-78114761D02*
X66703390Y-78019523D01*
X66703390Y-78019523D02*
X66751009Y-77971904D01*
X66751009Y-77971904D02*
X66846247Y-77924285D01*
X66846247Y-77924285D02*
X67084342Y-77924285D01*
X67084342Y-77924285D02*
X67179580Y-77971904D01*
X67179580Y-77971904D02*
X67227200Y-78019523D01*
X67227200Y-78019523D02*
X67274819Y-78114761D01*
X67274819Y-78114761D02*
X67274819Y-78352856D01*
X67274819Y-78352856D02*
X67227200Y-78448094D01*
X67227200Y-78448094D02*
X67179580Y-78495713D01*
X110690476Y-143379819D02*
X110690476Y-144094104D01*
X110690476Y-144094104D02*
X110642857Y-144236961D01*
X110642857Y-144236961D02*
X110547619Y-144332200D01*
X110547619Y-144332200D02*
X110404762Y-144379819D01*
X110404762Y-144379819D02*
X110309524Y-144379819D01*
X111119048Y-143475057D02*
X111166667Y-143427438D01*
X111166667Y-143427438D02*
X111261905Y-143379819D01*
X111261905Y-143379819D02*
X111500000Y-143379819D01*
X111500000Y-143379819D02*
X111595238Y-143427438D01*
X111595238Y-143427438D02*
X111642857Y-143475057D01*
X111642857Y-143475057D02*
X111690476Y-143570295D01*
X111690476Y-143570295D02*
X111690476Y-143665533D01*
X111690476Y-143665533D02*
X111642857Y-143808390D01*
X111642857Y-143808390D02*
X111071429Y-144379819D01*
X111071429Y-144379819D02*
X111690476Y-144379819D01*
X112547619Y-143379819D02*
X112357143Y-143379819D01*
X112357143Y-143379819D02*
X112261905Y-143427438D01*
X112261905Y-143427438D02*
X112214286Y-143475057D01*
X112214286Y-143475057D02*
X112119048Y-143617914D01*
X112119048Y-143617914D02*
X112071429Y-143808390D01*
X112071429Y-143808390D02*
X112071429Y-144189342D01*
X112071429Y-144189342D02*
X112119048Y-144284580D01*
X112119048Y-144284580D02*
X112166667Y-144332200D01*
X112166667Y-144332200D02*
X112261905Y-144379819D01*
X112261905Y-144379819D02*
X112452381Y-144379819D01*
X112452381Y-144379819D02*
X112547619Y-144332200D01*
X112547619Y-144332200D02*
X112595238Y-144284580D01*
X112595238Y-144284580D02*
X112642857Y-144189342D01*
X112642857Y-144189342D02*
X112642857Y-143951247D01*
X112642857Y-143951247D02*
X112595238Y-143856009D01*
X112595238Y-143856009D02*
X112547619Y-143808390D01*
X112547619Y-143808390D02*
X112452381Y-143760771D01*
X112452381Y-143760771D02*
X112261905Y-143760771D01*
X112261905Y-143760771D02*
X112166667Y-143808390D01*
X112166667Y-143808390D02*
X112119048Y-143856009D01*
X112119048Y-143856009D02*
X112071429Y-143951247D01*
X219748110Y-125724493D02*
X219748110Y-127001500D01*
X219748110Y-127001500D02*
X219823228Y-127151736D01*
X219823228Y-127151736D02*
X219898346Y-127226855D01*
X219898346Y-127226855D02*
X220048582Y-127301973D01*
X220048582Y-127301973D02*
X220349055Y-127301973D01*
X220349055Y-127301973D02*
X220499291Y-127226855D01*
X220499291Y-127226855D02*
X220574409Y-127151736D01*
X220574409Y-127151736D02*
X220649527Y-127001500D01*
X220649527Y-127001500D02*
X220649527Y-125724493D01*
X221250472Y-125724493D02*
X222227007Y-125724493D01*
X222227007Y-125724493D02*
X221701180Y-126325437D01*
X221701180Y-126325437D02*
X221926535Y-126325437D01*
X221926535Y-126325437D02*
X222076771Y-126400555D01*
X222076771Y-126400555D02*
X222151889Y-126475674D01*
X222151889Y-126475674D02*
X222227007Y-126625910D01*
X222227007Y-126625910D02*
X222227007Y-127001500D01*
X222227007Y-127001500D02*
X222151889Y-127151736D01*
X222151889Y-127151736D02*
X222076771Y-127226855D01*
X222076771Y-127226855D02*
X221926535Y-127301973D01*
X221926535Y-127301973D02*
X221475826Y-127301973D01*
X221475826Y-127301973D02*
X221325590Y-127226855D01*
X221325590Y-127226855D02*
X221250472Y-127151736D01*
X78387142Y-88054819D02*
X78053809Y-87578628D01*
X77815714Y-88054819D02*
X77815714Y-87054819D01*
X77815714Y-87054819D02*
X78196666Y-87054819D01*
X78196666Y-87054819D02*
X78291904Y-87102438D01*
X78291904Y-87102438D02*
X78339523Y-87150057D01*
X78339523Y-87150057D02*
X78387142Y-87245295D01*
X78387142Y-87245295D02*
X78387142Y-87388152D01*
X78387142Y-87388152D02*
X78339523Y-87483390D01*
X78339523Y-87483390D02*
X78291904Y-87531009D01*
X78291904Y-87531009D02*
X78196666Y-87578628D01*
X78196666Y-87578628D02*
X77815714Y-87578628D01*
X79339523Y-88054819D02*
X78768095Y-88054819D01*
X79053809Y-88054819D02*
X79053809Y-87054819D01*
X79053809Y-87054819D02*
X78958571Y-87197676D01*
X78958571Y-87197676D02*
X78863333Y-87292914D01*
X78863333Y-87292914D02*
X78768095Y-87340533D01*
X79958571Y-87054819D02*
X80053809Y-87054819D01*
X80053809Y-87054819D02*
X80149047Y-87102438D01*
X80149047Y-87102438D02*
X80196666Y-87150057D01*
X80196666Y-87150057D02*
X80244285Y-87245295D01*
X80244285Y-87245295D02*
X80291904Y-87435771D01*
X80291904Y-87435771D02*
X80291904Y-87673866D01*
X80291904Y-87673866D02*
X80244285Y-87864342D01*
X80244285Y-87864342D02*
X80196666Y-87959580D01*
X80196666Y-87959580D02*
X80149047Y-88007200D01*
X80149047Y-88007200D02*
X80053809Y-88054819D01*
X80053809Y-88054819D02*
X79958571Y-88054819D01*
X79958571Y-88054819D02*
X79863333Y-88007200D01*
X79863333Y-88007200D02*
X79815714Y-87959580D01*
X79815714Y-87959580D02*
X79768095Y-87864342D01*
X79768095Y-87864342D02*
X79720476Y-87673866D01*
X79720476Y-87673866D02*
X79720476Y-87435771D01*
X79720476Y-87435771D02*
X79768095Y-87245295D01*
X79768095Y-87245295D02*
X79815714Y-87150057D01*
X79815714Y-87150057D02*
X79863333Y-87102438D01*
X79863333Y-87102438D02*
X79958571Y-87054819D01*
X167650057Y-137135238D02*
X167602438Y-137230476D01*
X167602438Y-137230476D02*
X167507200Y-137325714D01*
X167507200Y-137325714D02*
X167364342Y-137468571D01*
X167364342Y-137468571D02*
X167316723Y-137563809D01*
X167316723Y-137563809D02*
X167316723Y-137659047D01*
X167554819Y-137611428D02*
X167507200Y-137706666D01*
X167507200Y-137706666D02*
X167411961Y-137801904D01*
X167411961Y-137801904D02*
X167221485Y-137849523D01*
X167221485Y-137849523D02*
X166888152Y-137849523D01*
X166888152Y-137849523D02*
X166697676Y-137801904D01*
X166697676Y-137801904D02*
X166602438Y-137706666D01*
X166602438Y-137706666D02*
X166554819Y-137611428D01*
X166554819Y-137611428D02*
X166554819Y-137420952D01*
X166554819Y-137420952D02*
X166602438Y-137325714D01*
X166602438Y-137325714D02*
X166697676Y-137230476D01*
X166697676Y-137230476D02*
X166888152Y-137182857D01*
X166888152Y-137182857D02*
X167221485Y-137182857D01*
X167221485Y-137182857D02*
X167411961Y-137230476D01*
X167411961Y-137230476D02*
X167507200Y-137325714D01*
X167507200Y-137325714D02*
X167554819Y-137420952D01*
X167554819Y-137420952D02*
X167554819Y-137611428D01*
X166554819Y-136849523D02*
X166554819Y-136230476D01*
X166554819Y-136230476D02*
X166935771Y-136563809D01*
X166935771Y-136563809D02*
X166935771Y-136420952D01*
X166935771Y-136420952D02*
X166983390Y-136325714D01*
X166983390Y-136325714D02*
X167031009Y-136278095D01*
X167031009Y-136278095D02*
X167126247Y-136230476D01*
X167126247Y-136230476D02*
X167364342Y-136230476D01*
X167364342Y-136230476D02*
X167459580Y-136278095D01*
X167459580Y-136278095D02*
X167507200Y-136325714D01*
X167507200Y-136325714D02*
X167554819Y-136420952D01*
X167554819Y-136420952D02*
X167554819Y-136706666D01*
X167554819Y-136706666D02*
X167507200Y-136801904D01*
X167507200Y-136801904D02*
X167459580Y-136849523D01*
X64690476Y-143354819D02*
X64690476Y-144069104D01*
X64690476Y-144069104D02*
X64642857Y-144211961D01*
X64642857Y-144211961D02*
X64547619Y-144307200D01*
X64547619Y-144307200D02*
X64404762Y-144354819D01*
X64404762Y-144354819D02*
X64309524Y-144354819D01*
X65119048Y-143450057D02*
X65166667Y-143402438D01*
X65166667Y-143402438D02*
X65261905Y-143354819D01*
X65261905Y-143354819D02*
X65500000Y-143354819D01*
X65500000Y-143354819D02*
X65595238Y-143402438D01*
X65595238Y-143402438D02*
X65642857Y-143450057D01*
X65642857Y-143450057D02*
X65690476Y-143545295D01*
X65690476Y-143545295D02*
X65690476Y-143640533D01*
X65690476Y-143640533D02*
X65642857Y-143783390D01*
X65642857Y-143783390D02*
X65071429Y-144354819D01*
X65071429Y-144354819D02*
X65690476Y-144354819D01*
X66023810Y-143354819D02*
X66642857Y-143354819D01*
X66642857Y-143354819D02*
X66309524Y-143735771D01*
X66309524Y-143735771D02*
X66452381Y-143735771D01*
X66452381Y-143735771D02*
X66547619Y-143783390D01*
X66547619Y-143783390D02*
X66595238Y-143831009D01*
X66595238Y-143831009D02*
X66642857Y-143926247D01*
X66642857Y-143926247D02*
X66642857Y-144164342D01*
X66642857Y-144164342D02*
X66595238Y-144259580D01*
X66595238Y-144259580D02*
X66547619Y-144307200D01*
X66547619Y-144307200D02*
X66452381Y-144354819D01*
X66452381Y-144354819D02*
X66166667Y-144354819D01*
X66166667Y-144354819D02*
X66071429Y-144307200D01*
X66071429Y-144307200D02*
X66023810Y-144259580D01*
X127190476Y-143354819D02*
X127190476Y-144069104D01*
X127190476Y-144069104D02*
X127142857Y-144211961D01*
X127142857Y-144211961D02*
X127047619Y-144307200D01*
X127047619Y-144307200D02*
X126904762Y-144354819D01*
X126904762Y-144354819D02*
X126809524Y-144354819D01*
X127619048Y-143450057D02*
X127666667Y-143402438D01*
X127666667Y-143402438D02*
X127761905Y-143354819D01*
X127761905Y-143354819D02*
X128000000Y-143354819D01*
X128000000Y-143354819D02*
X128095238Y-143402438D01*
X128095238Y-143402438D02*
X128142857Y-143450057D01*
X128142857Y-143450057D02*
X128190476Y-143545295D01*
X128190476Y-143545295D02*
X128190476Y-143640533D01*
X128190476Y-143640533D02*
X128142857Y-143783390D01*
X128142857Y-143783390D02*
X127571429Y-144354819D01*
X127571429Y-144354819D02*
X128190476Y-144354819D01*
X128523810Y-143354819D02*
X129190476Y-143354819D01*
X129190476Y-143354819D02*
X128761905Y-144354819D01*
X116190476Y-46879819D02*
X116190476Y-47594104D01*
X116190476Y-47594104D02*
X116142857Y-47736961D01*
X116142857Y-47736961D02*
X116047619Y-47832200D01*
X116047619Y-47832200D02*
X115904762Y-47879819D01*
X115904762Y-47879819D02*
X115809524Y-47879819D01*
X117190476Y-47879819D02*
X116619048Y-47879819D01*
X116904762Y-47879819D02*
X116904762Y-46879819D01*
X116904762Y-46879819D02*
X116809524Y-47022676D01*
X116809524Y-47022676D02*
X116714286Y-47117914D01*
X116714286Y-47117914D02*
X116619048Y-47165533D01*
X117523810Y-46879819D02*
X118142857Y-46879819D01*
X118142857Y-46879819D02*
X117809524Y-47260771D01*
X117809524Y-47260771D02*
X117952381Y-47260771D01*
X117952381Y-47260771D02*
X118047619Y-47308390D01*
X118047619Y-47308390D02*
X118095238Y-47356009D01*
X118095238Y-47356009D02*
X118142857Y-47451247D01*
X118142857Y-47451247D02*
X118142857Y-47689342D01*
X118142857Y-47689342D02*
X118095238Y-47784580D01*
X118095238Y-47784580D02*
X118047619Y-47832200D01*
X118047619Y-47832200D02*
X117952381Y-47879819D01*
X117952381Y-47879819D02*
X117666667Y-47879819D01*
X117666667Y-47879819D02*
X117571429Y-47832200D01*
X117571429Y-47832200D02*
X117523810Y-47784580D01*
X205034819Y-135222857D02*
X204558628Y-135556190D01*
X205034819Y-135794285D02*
X204034819Y-135794285D01*
X204034819Y-135794285D02*
X204034819Y-135413333D01*
X204034819Y-135413333D02*
X204082438Y-135318095D01*
X204082438Y-135318095D02*
X204130057Y-135270476D01*
X204130057Y-135270476D02*
X204225295Y-135222857D01*
X204225295Y-135222857D02*
X204368152Y-135222857D01*
X204368152Y-135222857D02*
X204463390Y-135270476D01*
X204463390Y-135270476D02*
X204511009Y-135318095D01*
X204511009Y-135318095D02*
X204558628Y-135413333D01*
X204558628Y-135413333D02*
X204558628Y-135794285D01*
X205034819Y-134270476D02*
X205034819Y-134841904D01*
X205034819Y-134556190D02*
X204034819Y-134556190D01*
X204034819Y-134556190D02*
X204177676Y-134651428D01*
X204177676Y-134651428D02*
X204272914Y-134746666D01*
X204272914Y-134746666D02*
X204320533Y-134841904D01*
X204034819Y-133937142D02*
X204034819Y-133318095D01*
X204034819Y-133318095D02*
X204415771Y-133651428D01*
X204415771Y-133651428D02*
X204415771Y-133508571D01*
X204415771Y-133508571D02*
X204463390Y-133413333D01*
X204463390Y-133413333D02*
X204511009Y-133365714D01*
X204511009Y-133365714D02*
X204606247Y-133318095D01*
X204606247Y-133318095D02*
X204844342Y-133318095D01*
X204844342Y-133318095D02*
X204939580Y-133365714D01*
X204939580Y-133365714D02*
X204987200Y-133413333D01*
X204987200Y-133413333D02*
X205034819Y-133508571D01*
X205034819Y-133508571D02*
X205034819Y-133794285D01*
X205034819Y-133794285D02*
X204987200Y-133889523D01*
X204987200Y-133889523D02*
X204939580Y-133937142D01*
X247428571Y-56331009D02*
X247095238Y-56331009D01*
X247095238Y-56854819D02*
X247095238Y-55854819D01*
X247095238Y-55854819D02*
X247571428Y-55854819D01*
X247952381Y-56854819D02*
X247952381Y-55854819D01*
X248428571Y-56854819D02*
X248428571Y-55854819D01*
X248428571Y-55854819D02*
X248666666Y-55854819D01*
X248666666Y-55854819D02*
X248809523Y-55902438D01*
X248809523Y-55902438D02*
X248904761Y-55997676D01*
X248904761Y-55997676D02*
X248952380Y-56092914D01*
X248952380Y-56092914D02*
X248999999Y-56283390D01*
X248999999Y-56283390D02*
X248999999Y-56426247D01*
X248999999Y-56426247D02*
X248952380Y-56616723D01*
X248952380Y-56616723D02*
X248904761Y-56711961D01*
X248904761Y-56711961D02*
X248809523Y-56807200D01*
X248809523Y-56807200D02*
X248666666Y-56854819D01*
X248666666Y-56854819D02*
X248428571Y-56854819D01*
X249380952Y-55950057D02*
X249428571Y-55902438D01*
X249428571Y-55902438D02*
X249523809Y-55854819D01*
X249523809Y-55854819D02*
X249761904Y-55854819D01*
X249761904Y-55854819D02*
X249857142Y-55902438D01*
X249857142Y-55902438D02*
X249904761Y-55950057D01*
X249904761Y-55950057D02*
X249952380Y-56045295D01*
X249952380Y-56045295D02*
X249952380Y-56140533D01*
X249952380Y-56140533D02*
X249904761Y-56283390D01*
X249904761Y-56283390D02*
X249333333Y-56854819D01*
X249333333Y-56854819D02*
X249952380Y-56854819D01*
X73984819Y-63986666D02*
X73508628Y-64319999D01*
X73984819Y-64558094D02*
X72984819Y-64558094D01*
X72984819Y-64558094D02*
X72984819Y-64177142D01*
X72984819Y-64177142D02*
X73032438Y-64081904D01*
X73032438Y-64081904D02*
X73080057Y-64034285D01*
X73080057Y-64034285D02*
X73175295Y-63986666D01*
X73175295Y-63986666D02*
X73318152Y-63986666D01*
X73318152Y-63986666D02*
X73413390Y-64034285D01*
X73413390Y-64034285D02*
X73461009Y-64081904D01*
X73461009Y-64081904D02*
X73508628Y-64177142D01*
X73508628Y-64177142D02*
X73508628Y-64558094D01*
X72984819Y-63653332D02*
X72984819Y-63034285D01*
X72984819Y-63034285D02*
X73365771Y-63367618D01*
X73365771Y-63367618D02*
X73365771Y-63224761D01*
X73365771Y-63224761D02*
X73413390Y-63129523D01*
X73413390Y-63129523D02*
X73461009Y-63081904D01*
X73461009Y-63081904D02*
X73556247Y-63034285D01*
X73556247Y-63034285D02*
X73794342Y-63034285D01*
X73794342Y-63034285D02*
X73889580Y-63081904D01*
X73889580Y-63081904D02*
X73937200Y-63129523D01*
X73937200Y-63129523D02*
X73984819Y-63224761D01*
X73984819Y-63224761D02*
X73984819Y-63510475D01*
X73984819Y-63510475D02*
X73937200Y-63605713D01*
X73937200Y-63605713D02*
X73889580Y-63653332D01*
X192783333Y-124939580D02*
X192735714Y-124987200D01*
X192735714Y-124987200D02*
X192592857Y-125034819D01*
X192592857Y-125034819D02*
X192497619Y-125034819D01*
X192497619Y-125034819D02*
X192354762Y-124987200D01*
X192354762Y-124987200D02*
X192259524Y-124891961D01*
X192259524Y-124891961D02*
X192211905Y-124796723D01*
X192211905Y-124796723D02*
X192164286Y-124606247D01*
X192164286Y-124606247D02*
X192164286Y-124463390D01*
X192164286Y-124463390D02*
X192211905Y-124272914D01*
X192211905Y-124272914D02*
X192259524Y-124177676D01*
X192259524Y-124177676D02*
X192354762Y-124082438D01*
X192354762Y-124082438D02*
X192497619Y-124034819D01*
X192497619Y-124034819D02*
X192592857Y-124034819D01*
X192592857Y-124034819D02*
X192735714Y-124082438D01*
X192735714Y-124082438D02*
X192783333Y-124130057D01*
X193116667Y-124034819D02*
X193735714Y-124034819D01*
X193735714Y-124034819D02*
X193402381Y-124415771D01*
X193402381Y-124415771D02*
X193545238Y-124415771D01*
X193545238Y-124415771D02*
X193640476Y-124463390D01*
X193640476Y-124463390D02*
X193688095Y-124511009D01*
X193688095Y-124511009D02*
X193735714Y-124606247D01*
X193735714Y-124606247D02*
X193735714Y-124844342D01*
X193735714Y-124844342D02*
X193688095Y-124939580D01*
X193688095Y-124939580D02*
X193640476Y-124987200D01*
X193640476Y-124987200D02*
X193545238Y-125034819D01*
X193545238Y-125034819D02*
X193259524Y-125034819D01*
X193259524Y-125034819D02*
X193164286Y-124987200D01*
X193164286Y-124987200D02*
X193116667Y-124939580D01*
X156287142Y-74054819D02*
X155953809Y-73578628D01*
X155715714Y-74054819D02*
X155715714Y-73054819D01*
X155715714Y-73054819D02*
X156096666Y-73054819D01*
X156096666Y-73054819D02*
X156191904Y-73102438D01*
X156191904Y-73102438D02*
X156239523Y-73150057D01*
X156239523Y-73150057D02*
X156287142Y-73245295D01*
X156287142Y-73245295D02*
X156287142Y-73388152D01*
X156287142Y-73388152D02*
X156239523Y-73483390D01*
X156239523Y-73483390D02*
X156191904Y-73531009D01*
X156191904Y-73531009D02*
X156096666Y-73578628D01*
X156096666Y-73578628D02*
X155715714Y-73578628D01*
X156668095Y-73150057D02*
X156715714Y-73102438D01*
X156715714Y-73102438D02*
X156810952Y-73054819D01*
X156810952Y-73054819D02*
X157049047Y-73054819D01*
X157049047Y-73054819D02*
X157144285Y-73102438D01*
X157144285Y-73102438D02*
X157191904Y-73150057D01*
X157191904Y-73150057D02*
X157239523Y-73245295D01*
X157239523Y-73245295D02*
X157239523Y-73340533D01*
X157239523Y-73340533D02*
X157191904Y-73483390D01*
X157191904Y-73483390D02*
X156620476Y-74054819D01*
X156620476Y-74054819D02*
X157239523Y-74054819D01*
X158096666Y-73388152D02*
X158096666Y-74054819D01*
X157858571Y-73007200D02*
X157620476Y-73721485D01*
X157620476Y-73721485D02*
X158239523Y-73721485D01*
X244774819Y-116259523D02*
X245489104Y-116259523D01*
X245489104Y-116259523D02*
X245631961Y-116307142D01*
X245631961Y-116307142D02*
X245727200Y-116402380D01*
X245727200Y-116402380D02*
X245774819Y-116545237D01*
X245774819Y-116545237D02*
X245774819Y-116640475D01*
X245774819Y-115259523D02*
X245774819Y-115830951D01*
X245774819Y-115545237D02*
X244774819Y-115545237D01*
X244774819Y-115545237D02*
X244917676Y-115640475D01*
X244917676Y-115640475D02*
X245012914Y-115735713D01*
X245012914Y-115735713D02*
X245060533Y-115830951D01*
X245774819Y-114307142D02*
X245774819Y-114878570D01*
X245774819Y-114592856D02*
X244774819Y-114592856D01*
X244774819Y-114592856D02*
X244917676Y-114688094D01*
X244917676Y-114688094D02*
X245012914Y-114783332D01*
X245012914Y-114783332D02*
X245060533Y-114878570D01*
X194761905Y-88729819D02*
X194761905Y-87729819D01*
X194761905Y-87729819D02*
X195000000Y-87729819D01*
X195000000Y-87729819D02*
X195142857Y-87777438D01*
X195142857Y-87777438D02*
X195238095Y-87872676D01*
X195238095Y-87872676D02*
X195285714Y-87967914D01*
X195285714Y-87967914D02*
X195333333Y-88158390D01*
X195333333Y-88158390D02*
X195333333Y-88301247D01*
X195333333Y-88301247D02*
X195285714Y-88491723D01*
X195285714Y-88491723D02*
X195238095Y-88586961D01*
X195238095Y-88586961D02*
X195142857Y-88682200D01*
X195142857Y-88682200D02*
X195000000Y-88729819D01*
X195000000Y-88729819D02*
X194761905Y-88729819D01*
X196285714Y-88729819D02*
X195714286Y-88729819D01*
X196000000Y-88729819D02*
X196000000Y-87729819D01*
X196000000Y-87729819D02*
X195904762Y-87872676D01*
X195904762Y-87872676D02*
X195809524Y-87967914D01*
X195809524Y-87967914D02*
X195714286Y-88015533D01*
X187618095Y-90154819D02*
X187618095Y-89154819D01*
X188189523Y-90154819D02*
X187760952Y-89583390D01*
X188189523Y-89154819D02*
X187618095Y-89726247D01*
X57454819Y-53284523D02*
X58169104Y-53284523D01*
X58169104Y-53284523D02*
X58311961Y-53332142D01*
X58311961Y-53332142D02*
X58407200Y-53427380D01*
X58407200Y-53427380D02*
X58454819Y-53570237D01*
X58454819Y-53570237D02*
X58454819Y-53665475D01*
X58454819Y-52284523D02*
X58454819Y-52855951D01*
X58454819Y-52570237D02*
X57454819Y-52570237D01*
X57454819Y-52570237D02*
X57597676Y-52665475D01*
X57597676Y-52665475D02*
X57692914Y-52760713D01*
X57692914Y-52760713D02*
X57740533Y-52855951D01*
X58454819Y-51808332D02*
X58454819Y-51617856D01*
X58454819Y-51617856D02*
X58407200Y-51522618D01*
X58407200Y-51522618D02*
X58359580Y-51474999D01*
X58359580Y-51474999D02*
X58216723Y-51379761D01*
X58216723Y-51379761D02*
X58026247Y-51332142D01*
X58026247Y-51332142D02*
X57645295Y-51332142D01*
X57645295Y-51332142D02*
X57550057Y-51379761D01*
X57550057Y-51379761D02*
X57502438Y-51427380D01*
X57502438Y-51427380D02*
X57454819Y-51522618D01*
X57454819Y-51522618D02*
X57454819Y-51713094D01*
X57454819Y-51713094D02*
X57502438Y-51808332D01*
X57502438Y-51808332D02*
X57550057Y-51855951D01*
X57550057Y-51855951D02*
X57645295Y-51903570D01*
X57645295Y-51903570D02*
X57883390Y-51903570D01*
X57883390Y-51903570D02*
X57978628Y-51855951D01*
X57978628Y-51855951D02*
X58026247Y-51808332D01*
X58026247Y-51808332D02*
X58073866Y-51713094D01*
X58073866Y-51713094D02*
X58073866Y-51522618D01*
X58073866Y-51522618D02*
X58026247Y-51427380D01*
X58026247Y-51427380D02*
X57978628Y-51379761D01*
X57978628Y-51379761D02*
X57883390Y-51332142D01*
X95190476Y-143354819D02*
X95190476Y-144069104D01*
X95190476Y-144069104D02*
X95142857Y-144211961D01*
X95142857Y-144211961D02*
X95047619Y-144307200D01*
X95047619Y-144307200D02*
X94904762Y-144354819D01*
X94904762Y-144354819D02*
X94809524Y-144354819D01*
X95619048Y-143450057D02*
X95666667Y-143402438D01*
X95666667Y-143402438D02*
X95761905Y-143354819D01*
X95761905Y-143354819D02*
X96000000Y-143354819D01*
X96000000Y-143354819D02*
X96095238Y-143402438D01*
X96095238Y-143402438D02*
X96142857Y-143450057D01*
X96142857Y-143450057D02*
X96190476Y-143545295D01*
X96190476Y-143545295D02*
X96190476Y-143640533D01*
X96190476Y-143640533D02*
X96142857Y-143783390D01*
X96142857Y-143783390D02*
X95571429Y-144354819D01*
X95571429Y-144354819D02*
X96190476Y-144354819D01*
X97095238Y-143354819D02*
X96619048Y-143354819D01*
X96619048Y-143354819D02*
X96571429Y-143831009D01*
X96571429Y-143831009D02*
X96619048Y-143783390D01*
X96619048Y-143783390D02*
X96714286Y-143735771D01*
X96714286Y-143735771D02*
X96952381Y-143735771D01*
X96952381Y-143735771D02*
X97047619Y-143783390D01*
X97047619Y-143783390D02*
X97095238Y-143831009D01*
X97095238Y-143831009D02*
X97142857Y-143926247D01*
X97142857Y-143926247D02*
X97142857Y-144164342D01*
X97142857Y-144164342D02*
X97095238Y-144259580D01*
X97095238Y-144259580D02*
X97047619Y-144307200D01*
X97047619Y-144307200D02*
X96952381Y-144354819D01*
X96952381Y-144354819D02*
X96714286Y-144354819D01*
X96714286Y-144354819D02*
X96619048Y-144307200D01*
X96619048Y-144307200D02*
X96571429Y-144259580D01*
X91454819Y-53284523D02*
X92169104Y-53284523D01*
X92169104Y-53284523D02*
X92311961Y-53332142D01*
X92311961Y-53332142D02*
X92407200Y-53427380D01*
X92407200Y-53427380D02*
X92454819Y-53570237D01*
X92454819Y-53570237D02*
X92454819Y-53665475D01*
X92454819Y-52284523D02*
X92454819Y-52855951D01*
X92454819Y-52570237D02*
X91454819Y-52570237D01*
X91454819Y-52570237D02*
X91597676Y-52665475D01*
X91597676Y-52665475D02*
X91692914Y-52760713D01*
X91692914Y-52760713D02*
X91740533Y-52855951D01*
X91454819Y-51379761D02*
X91454819Y-51855951D01*
X91454819Y-51855951D02*
X91931009Y-51903570D01*
X91931009Y-51903570D02*
X91883390Y-51855951D01*
X91883390Y-51855951D02*
X91835771Y-51760713D01*
X91835771Y-51760713D02*
X91835771Y-51522618D01*
X91835771Y-51522618D02*
X91883390Y-51427380D01*
X91883390Y-51427380D02*
X91931009Y-51379761D01*
X91931009Y-51379761D02*
X92026247Y-51332142D01*
X92026247Y-51332142D02*
X92264342Y-51332142D01*
X92264342Y-51332142D02*
X92359580Y-51379761D01*
X92359580Y-51379761D02*
X92407200Y-51427380D01*
X92407200Y-51427380D02*
X92454819Y-51522618D01*
X92454819Y-51522618D02*
X92454819Y-51760713D01*
X92454819Y-51760713D02*
X92407200Y-51855951D01*
X92407200Y-51855951D02*
X92359580Y-51903570D01*
X63794819Y-86466666D02*
X63318628Y-86799999D01*
X63794819Y-87038094D02*
X62794819Y-87038094D01*
X62794819Y-87038094D02*
X62794819Y-86657142D01*
X62794819Y-86657142D02*
X62842438Y-86561904D01*
X62842438Y-86561904D02*
X62890057Y-86514285D01*
X62890057Y-86514285D02*
X62985295Y-86466666D01*
X62985295Y-86466666D02*
X63128152Y-86466666D01*
X63128152Y-86466666D02*
X63223390Y-86514285D01*
X63223390Y-86514285D02*
X63271009Y-86561904D01*
X63271009Y-86561904D02*
X63318628Y-86657142D01*
X63318628Y-86657142D02*
X63318628Y-87038094D01*
X62794819Y-85609523D02*
X62794819Y-85799999D01*
X62794819Y-85799999D02*
X62842438Y-85895237D01*
X62842438Y-85895237D02*
X62890057Y-85942856D01*
X62890057Y-85942856D02*
X63032914Y-86038094D01*
X63032914Y-86038094D02*
X63223390Y-86085713D01*
X63223390Y-86085713D02*
X63604342Y-86085713D01*
X63604342Y-86085713D02*
X63699580Y-86038094D01*
X63699580Y-86038094D02*
X63747200Y-85990475D01*
X63747200Y-85990475D02*
X63794819Y-85895237D01*
X63794819Y-85895237D02*
X63794819Y-85704761D01*
X63794819Y-85704761D02*
X63747200Y-85609523D01*
X63747200Y-85609523D02*
X63699580Y-85561904D01*
X63699580Y-85561904D02*
X63604342Y-85514285D01*
X63604342Y-85514285D02*
X63366247Y-85514285D01*
X63366247Y-85514285D02*
X63271009Y-85561904D01*
X63271009Y-85561904D02*
X63223390Y-85609523D01*
X63223390Y-85609523D02*
X63175771Y-85704761D01*
X63175771Y-85704761D02*
X63175771Y-85895237D01*
X63175771Y-85895237D02*
X63223390Y-85990475D01*
X63223390Y-85990475D02*
X63271009Y-86038094D01*
X63271009Y-86038094D02*
X63366247Y-86085713D01*
X158140057Y-137095238D02*
X158092438Y-137190476D01*
X158092438Y-137190476D02*
X157997200Y-137285714D01*
X157997200Y-137285714D02*
X157854342Y-137428571D01*
X157854342Y-137428571D02*
X157806723Y-137523809D01*
X157806723Y-137523809D02*
X157806723Y-137619047D01*
X158044819Y-137571428D02*
X157997200Y-137666666D01*
X157997200Y-137666666D02*
X157901961Y-137761904D01*
X157901961Y-137761904D02*
X157711485Y-137809523D01*
X157711485Y-137809523D02*
X157378152Y-137809523D01*
X157378152Y-137809523D02*
X157187676Y-137761904D01*
X157187676Y-137761904D02*
X157092438Y-137666666D01*
X157092438Y-137666666D02*
X157044819Y-137571428D01*
X157044819Y-137571428D02*
X157044819Y-137380952D01*
X157044819Y-137380952D02*
X157092438Y-137285714D01*
X157092438Y-137285714D02*
X157187676Y-137190476D01*
X157187676Y-137190476D02*
X157378152Y-137142857D01*
X157378152Y-137142857D02*
X157711485Y-137142857D01*
X157711485Y-137142857D02*
X157901961Y-137190476D01*
X157901961Y-137190476D02*
X157997200Y-137285714D01*
X157997200Y-137285714D02*
X158044819Y-137380952D01*
X158044819Y-137380952D02*
X158044819Y-137571428D01*
X157140057Y-136761904D02*
X157092438Y-136714285D01*
X157092438Y-136714285D02*
X157044819Y-136619047D01*
X157044819Y-136619047D02*
X157044819Y-136380952D01*
X157044819Y-136380952D02*
X157092438Y-136285714D01*
X157092438Y-136285714D02*
X157140057Y-136238095D01*
X157140057Y-136238095D02*
X157235295Y-136190476D01*
X157235295Y-136190476D02*
X157330533Y-136190476D01*
X157330533Y-136190476D02*
X157473390Y-136238095D01*
X157473390Y-136238095D02*
X158044819Y-136809523D01*
X158044819Y-136809523D02*
X158044819Y-136190476D01*
X244083333Y-81409580D02*
X244035714Y-81457200D01*
X244035714Y-81457200D02*
X243892857Y-81504819D01*
X243892857Y-81504819D02*
X243797619Y-81504819D01*
X243797619Y-81504819D02*
X243654762Y-81457200D01*
X243654762Y-81457200D02*
X243559524Y-81361961D01*
X243559524Y-81361961D02*
X243511905Y-81266723D01*
X243511905Y-81266723D02*
X243464286Y-81076247D01*
X243464286Y-81076247D02*
X243464286Y-80933390D01*
X243464286Y-80933390D02*
X243511905Y-80742914D01*
X243511905Y-80742914D02*
X243559524Y-80647676D01*
X243559524Y-80647676D02*
X243654762Y-80552438D01*
X243654762Y-80552438D02*
X243797619Y-80504819D01*
X243797619Y-80504819D02*
X243892857Y-80504819D01*
X243892857Y-80504819D02*
X244035714Y-80552438D01*
X244035714Y-80552438D02*
X244083333Y-80600057D01*
X244416667Y-80504819D02*
X245083333Y-80504819D01*
X245083333Y-80504819D02*
X244654762Y-81504819D01*
X54034819Y-135586666D02*
X53558628Y-135919999D01*
X54034819Y-136158094D02*
X53034819Y-136158094D01*
X53034819Y-136158094D02*
X53034819Y-135777142D01*
X53034819Y-135777142D02*
X53082438Y-135681904D01*
X53082438Y-135681904D02*
X53130057Y-135634285D01*
X53130057Y-135634285D02*
X53225295Y-135586666D01*
X53225295Y-135586666D02*
X53368152Y-135586666D01*
X53368152Y-135586666D02*
X53463390Y-135634285D01*
X53463390Y-135634285D02*
X53511009Y-135681904D01*
X53511009Y-135681904D02*
X53558628Y-135777142D01*
X53558628Y-135777142D02*
X53558628Y-136158094D01*
X54034819Y-134634285D02*
X54034819Y-135205713D01*
X54034819Y-134919999D02*
X53034819Y-134919999D01*
X53034819Y-134919999D02*
X53177676Y-135015237D01*
X53177676Y-135015237D02*
X53272914Y-135110475D01*
X53272914Y-135110475D02*
X53320533Y-135205713D01*
X81440476Y-46879819D02*
X81440476Y-47594104D01*
X81440476Y-47594104D02*
X81392857Y-47736961D01*
X81392857Y-47736961D02*
X81297619Y-47832200D01*
X81297619Y-47832200D02*
X81154762Y-47879819D01*
X81154762Y-47879819D02*
X81059524Y-47879819D01*
X82440476Y-47879819D02*
X81869048Y-47879819D01*
X82154762Y-47879819D02*
X82154762Y-46879819D01*
X82154762Y-46879819D02*
X82059524Y-47022676D01*
X82059524Y-47022676D02*
X81964286Y-47117914D01*
X81964286Y-47117914D02*
X81869048Y-47165533D01*
X82773810Y-46879819D02*
X83440476Y-46879819D01*
X83440476Y-46879819D02*
X83011905Y-47879819D01*
X151584819Y-125642857D02*
X151108628Y-125976190D01*
X151584819Y-126214285D02*
X150584819Y-126214285D01*
X150584819Y-126214285D02*
X150584819Y-125833333D01*
X150584819Y-125833333D02*
X150632438Y-125738095D01*
X150632438Y-125738095D02*
X150680057Y-125690476D01*
X150680057Y-125690476D02*
X150775295Y-125642857D01*
X150775295Y-125642857D02*
X150918152Y-125642857D01*
X150918152Y-125642857D02*
X151013390Y-125690476D01*
X151013390Y-125690476D02*
X151061009Y-125738095D01*
X151061009Y-125738095D02*
X151108628Y-125833333D01*
X151108628Y-125833333D02*
X151108628Y-126214285D01*
X151584819Y-124690476D02*
X151584819Y-125261904D01*
X151584819Y-124976190D02*
X150584819Y-124976190D01*
X150584819Y-124976190D02*
X150727676Y-125071428D01*
X150727676Y-125071428D02*
X150822914Y-125166666D01*
X150822914Y-125166666D02*
X150870533Y-125261904D01*
X151584819Y-124214285D02*
X151584819Y-124023809D01*
X151584819Y-124023809D02*
X151537200Y-123928571D01*
X151537200Y-123928571D02*
X151489580Y-123880952D01*
X151489580Y-123880952D02*
X151346723Y-123785714D01*
X151346723Y-123785714D02*
X151156247Y-123738095D01*
X151156247Y-123738095D02*
X150775295Y-123738095D01*
X150775295Y-123738095D02*
X150680057Y-123785714D01*
X150680057Y-123785714D02*
X150632438Y-123833333D01*
X150632438Y-123833333D02*
X150584819Y-123928571D01*
X150584819Y-123928571D02*
X150584819Y-124119047D01*
X150584819Y-124119047D02*
X150632438Y-124214285D01*
X150632438Y-124214285D02*
X150680057Y-124261904D01*
X150680057Y-124261904D02*
X150775295Y-124309523D01*
X150775295Y-124309523D02*
X151013390Y-124309523D01*
X151013390Y-124309523D02*
X151108628Y-124261904D01*
X151108628Y-124261904D02*
X151156247Y-124214285D01*
X151156247Y-124214285D02*
X151203866Y-124119047D01*
X151203866Y-124119047D02*
X151203866Y-123928571D01*
X151203866Y-123928571D02*
X151156247Y-123833333D01*
X151156247Y-123833333D02*
X151108628Y-123785714D01*
X151108628Y-123785714D02*
X151013390Y-123738095D01*
X78863333Y-83414819D02*
X78530000Y-82938628D01*
X78291905Y-83414819D02*
X78291905Y-82414819D01*
X78291905Y-82414819D02*
X78672857Y-82414819D01*
X78672857Y-82414819D02*
X78768095Y-82462438D01*
X78768095Y-82462438D02*
X78815714Y-82510057D01*
X78815714Y-82510057D02*
X78863333Y-82605295D01*
X78863333Y-82605295D02*
X78863333Y-82748152D01*
X78863333Y-82748152D02*
X78815714Y-82843390D01*
X78815714Y-82843390D02*
X78768095Y-82891009D01*
X78768095Y-82891009D02*
X78672857Y-82938628D01*
X78672857Y-82938628D02*
X78291905Y-82938628D01*
X79339524Y-83414819D02*
X79530000Y-83414819D01*
X79530000Y-83414819D02*
X79625238Y-83367200D01*
X79625238Y-83367200D02*
X79672857Y-83319580D01*
X79672857Y-83319580D02*
X79768095Y-83176723D01*
X79768095Y-83176723D02*
X79815714Y-82986247D01*
X79815714Y-82986247D02*
X79815714Y-82605295D01*
X79815714Y-82605295D02*
X79768095Y-82510057D01*
X79768095Y-82510057D02*
X79720476Y-82462438D01*
X79720476Y-82462438D02*
X79625238Y-82414819D01*
X79625238Y-82414819D02*
X79434762Y-82414819D01*
X79434762Y-82414819D02*
X79339524Y-82462438D01*
X79339524Y-82462438D02*
X79291905Y-82510057D01*
X79291905Y-82510057D02*
X79244286Y-82605295D01*
X79244286Y-82605295D02*
X79244286Y-82843390D01*
X79244286Y-82843390D02*
X79291905Y-82938628D01*
X79291905Y-82938628D02*
X79339524Y-82986247D01*
X79339524Y-82986247D02*
X79434762Y-83033866D01*
X79434762Y-83033866D02*
X79625238Y-83033866D01*
X79625238Y-83033866D02*
X79720476Y-82986247D01*
X79720476Y-82986247D02*
X79768095Y-82938628D01*
X79768095Y-82938628D02*
X79815714Y-82843390D01*
X63154819Y-135366666D02*
X62678628Y-135699999D01*
X63154819Y-135938094D02*
X62154819Y-135938094D01*
X62154819Y-135938094D02*
X62154819Y-135557142D01*
X62154819Y-135557142D02*
X62202438Y-135461904D01*
X62202438Y-135461904D02*
X62250057Y-135414285D01*
X62250057Y-135414285D02*
X62345295Y-135366666D01*
X62345295Y-135366666D02*
X62488152Y-135366666D01*
X62488152Y-135366666D02*
X62583390Y-135414285D01*
X62583390Y-135414285D02*
X62631009Y-135461904D01*
X62631009Y-135461904D02*
X62678628Y-135557142D01*
X62678628Y-135557142D02*
X62678628Y-135938094D01*
X62250057Y-134985713D02*
X62202438Y-134938094D01*
X62202438Y-134938094D02*
X62154819Y-134842856D01*
X62154819Y-134842856D02*
X62154819Y-134604761D01*
X62154819Y-134604761D02*
X62202438Y-134509523D01*
X62202438Y-134509523D02*
X62250057Y-134461904D01*
X62250057Y-134461904D02*
X62345295Y-134414285D01*
X62345295Y-134414285D02*
X62440533Y-134414285D01*
X62440533Y-134414285D02*
X62583390Y-134461904D01*
X62583390Y-134461904D02*
X63154819Y-135033332D01*
X63154819Y-135033332D02*
X63154819Y-134414285D01*
X206356666Y-143284819D02*
X206356666Y-143999104D01*
X206356666Y-143999104D02*
X206309047Y-144141961D01*
X206309047Y-144141961D02*
X206213809Y-144237200D01*
X206213809Y-144237200D02*
X206070952Y-144284819D01*
X206070952Y-144284819D02*
X205975714Y-144284819D01*
X207261428Y-143618152D02*
X207261428Y-144284819D01*
X207023333Y-143237200D02*
X206785238Y-143951485D01*
X206785238Y-143951485D02*
X207404285Y-143951485D01*
X191504440Y-125709233D02*
X191504440Y-126986240D01*
X191504440Y-126986240D02*
X191579558Y-127136476D01*
X191579558Y-127136476D02*
X191654676Y-127211595D01*
X191654676Y-127211595D02*
X191804912Y-127286713D01*
X191804912Y-127286713D02*
X192105385Y-127286713D01*
X192105385Y-127286713D02*
X192255621Y-127211595D01*
X192255621Y-127211595D02*
X192330739Y-127136476D01*
X192330739Y-127136476D02*
X192405857Y-126986240D01*
X192405857Y-126986240D02*
X192405857Y-125709233D01*
X193081920Y-125859469D02*
X193157038Y-125784351D01*
X193157038Y-125784351D02*
X193307274Y-125709233D01*
X193307274Y-125709233D02*
X193682865Y-125709233D01*
X193682865Y-125709233D02*
X193833101Y-125784351D01*
X193833101Y-125784351D02*
X193908219Y-125859469D01*
X193908219Y-125859469D02*
X193983337Y-126009705D01*
X193983337Y-126009705D02*
X193983337Y-126159941D01*
X193983337Y-126159941D02*
X193908219Y-126385295D01*
X193908219Y-126385295D02*
X193006802Y-127286713D01*
X193006802Y-127286713D02*
X193983337Y-127286713D01*
X160917142Y-101249580D02*
X160869523Y-101297200D01*
X160869523Y-101297200D02*
X160726666Y-101344819D01*
X160726666Y-101344819D02*
X160631428Y-101344819D01*
X160631428Y-101344819D02*
X160488571Y-101297200D01*
X160488571Y-101297200D02*
X160393333Y-101201961D01*
X160393333Y-101201961D02*
X160345714Y-101106723D01*
X160345714Y-101106723D02*
X160298095Y-100916247D01*
X160298095Y-100916247D02*
X160298095Y-100773390D01*
X160298095Y-100773390D02*
X160345714Y-100582914D01*
X160345714Y-100582914D02*
X160393333Y-100487676D01*
X160393333Y-100487676D02*
X160488571Y-100392438D01*
X160488571Y-100392438D02*
X160631428Y-100344819D01*
X160631428Y-100344819D02*
X160726666Y-100344819D01*
X160726666Y-100344819D02*
X160869523Y-100392438D01*
X160869523Y-100392438D02*
X160917142Y-100440057D01*
X161869523Y-101344819D02*
X161298095Y-101344819D01*
X161583809Y-101344819D02*
X161583809Y-100344819D01*
X161583809Y-100344819D02*
X161488571Y-100487676D01*
X161488571Y-100487676D02*
X161393333Y-100582914D01*
X161393333Y-100582914D02*
X161298095Y-100630533D01*
X162488571Y-100344819D02*
X162583809Y-100344819D01*
X162583809Y-100344819D02*
X162679047Y-100392438D01*
X162679047Y-100392438D02*
X162726666Y-100440057D01*
X162726666Y-100440057D02*
X162774285Y-100535295D01*
X162774285Y-100535295D02*
X162821904Y-100725771D01*
X162821904Y-100725771D02*
X162821904Y-100963866D01*
X162821904Y-100963866D02*
X162774285Y-101154342D01*
X162774285Y-101154342D02*
X162726666Y-101249580D01*
X162726666Y-101249580D02*
X162679047Y-101297200D01*
X162679047Y-101297200D02*
X162583809Y-101344819D01*
X162583809Y-101344819D02*
X162488571Y-101344819D01*
X162488571Y-101344819D02*
X162393333Y-101297200D01*
X162393333Y-101297200D02*
X162345714Y-101249580D01*
X162345714Y-101249580D02*
X162298095Y-101154342D01*
X162298095Y-101154342D02*
X162250476Y-100963866D01*
X162250476Y-100963866D02*
X162250476Y-100725771D01*
X162250476Y-100725771D02*
X162298095Y-100535295D01*
X162298095Y-100535295D02*
X162345714Y-100440057D01*
X162345714Y-100440057D02*
X162393333Y-100392438D01*
X162393333Y-100392438D02*
X162488571Y-100344819D01*
X145904819Y-77012857D02*
X145428628Y-77346190D01*
X145904819Y-77584285D02*
X144904819Y-77584285D01*
X144904819Y-77584285D02*
X144904819Y-77203333D01*
X144904819Y-77203333D02*
X144952438Y-77108095D01*
X144952438Y-77108095D02*
X145000057Y-77060476D01*
X145000057Y-77060476D02*
X145095295Y-77012857D01*
X145095295Y-77012857D02*
X145238152Y-77012857D01*
X145238152Y-77012857D02*
X145333390Y-77060476D01*
X145333390Y-77060476D02*
X145381009Y-77108095D01*
X145381009Y-77108095D02*
X145428628Y-77203333D01*
X145428628Y-77203333D02*
X145428628Y-77584285D01*
X145000057Y-76631904D02*
X144952438Y-76584285D01*
X144952438Y-76584285D02*
X144904819Y-76489047D01*
X144904819Y-76489047D02*
X144904819Y-76250952D01*
X144904819Y-76250952D02*
X144952438Y-76155714D01*
X144952438Y-76155714D02*
X145000057Y-76108095D01*
X145000057Y-76108095D02*
X145095295Y-76060476D01*
X145095295Y-76060476D02*
X145190533Y-76060476D01*
X145190533Y-76060476D02*
X145333390Y-76108095D01*
X145333390Y-76108095D02*
X145904819Y-76679523D01*
X145904819Y-76679523D02*
X145904819Y-76060476D01*
X144904819Y-75727142D02*
X144904819Y-75108095D01*
X144904819Y-75108095D02*
X145285771Y-75441428D01*
X145285771Y-75441428D02*
X145285771Y-75298571D01*
X145285771Y-75298571D02*
X145333390Y-75203333D01*
X145333390Y-75203333D02*
X145381009Y-75155714D01*
X145381009Y-75155714D02*
X145476247Y-75108095D01*
X145476247Y-75108095D02*
X145714342Y-75108095D01*
X145714342Y-75108095D02*
X145809580Y-75155714D01*
X145809580Y-75155714D02*
X145857200Y-75203333D01*
X145857200Y-75203333D02*
X145904819Y-75298571D01*
X145904819Y-75298571D02*
X145904819Y-75584285D01*
X145904819Y-75584285D02*
X145857200Y-75679523D01*
X145857200Y-75679523D02*
X145809580Y-75727142D01*
X174824819Y-111062857D02*
X174348628Y-111396190D01*
X174824819Y-111634285D02*
X173824819Y-111634285D01*
X173824819Y-111634285D02*
X173824819Y-111253333D01*
X173824819Y-111253333D02*
X173872438Y-111158095D01*
X173872438Y-111158095D02*
X173920057Y-111110476D01*
X173920057Y-111110476D02*
X174015295Y-111062857D01*
X174015295Y-111062857D02*
X174158152Y-111062857D01*
X174158152Y-111062857D02*
X174253390Y-111110476D01*
X174253390Y-111110476D02*
X174301009Y-111158095D01*
X174301009Y-111158095D02*
X174348628Y-111253333D01*
X174348628Y-111253333D02*
X174348628Y-111634285D01*
X174824819Y-110110476D02*
X174824819Y-110681904D01*
X174824819Y-110396190D02*
X173824819Y-110396190D01*
X173824819Y-110396190D02*
X173967676Y-110491428D01*
X173967676Y-110491428D02*
X174062914Y-110586666D01*
X174062914Y-110586666D02*
X174110533Y-110681904D01*
X174253390Y-109539047D02*
X174205771Y-109634285D01*
X174205771Y-109634285D02*
X174158152Y-109681904D01*
X174158152Y-109681904D02*
X174062914Y-109729523D01*
X174062914Y-109729523D02*
X174015295Y-109729523D01*
X174015295Y-109729523D02*
X173920057Y-109681904D01*
X173920057Y-109681904D02*
X173872438Y-109634285D01*
X173872438Y-109634285D02*
X173824819Y-109539047D01*
X173824819Y-109539047D02*
X173824819Y-109348571D01*
X173824819Y-109348571D02*
X173872438Y-109253333D01*
X173872438Y-109253333D02*
X173920057Y-109205714D01*
X173920057Y-109205714D02*
X174015295Y-109158095D01*
X174015295Y-109158095D02*
X174062914Y-109158095D01*
X174062914Y-109158095D02*
X174158152Y-109205714D01*
X174158152Y-109205714D02*
X174205771Y-109253333D01*
X174205771Y-109253333D02*
X174253390Y-109348571D01*
X174253390Y-109348571D02*
X174253390Y-109539047D01*
X174253390Y-109539047D02*
X174301009Y-109634285D01*
X174301009Y-109634285D02*
X174348628Y-109681904D01*
X174348628Y-109681904D02*
X174443866Y-109729523D01*
X174443866Y-109729523D02*
X174634342Y-109729523D01*
X174634342Y-109729523D02*
X174729580Y-109681904D01*
X174729580Y-109681904D02*
X174777200Y-109634285D01*
X174777200Y-109634285D02*
X174824819Y-109539047D01*
X174824819Y-109539047D02*
X174824819Y-109348571D01*
X174824819Y-109348571D02*
X174777200Y-109253333D01*
X174777200Y-109253333D02*
X174729580Y-109205714D01*
X174729580Y-109205714D02*
X174634342Y-109158095D01*
X174634342Y-109158095D02*
X174443866Y-109158095D01*
X174443866Y-109158095D02*
X174348628Y-109205714D01*
X174348628Y-109205714D02*
X174301009Y-109253333D01*
X174301009Y-109253333D02*
X174253390Y-109348571D01*
X142893333Y-101169580D02*
X142845714Y-101217200D01*
X142845714Y-101217200D02*
X142702857Y-101264819D01*
X142702857Y-101264819D02*
X142607619Y-101264819D01*
X142607619Y-101264819D02*
X142464762Y-101217200D01*
X142464762Y-101217200D02*
X142369524Y-101121961D01*
X142369524Y-101121961D02*
X142321905Y-101026723D01*
X142321905Y-101026723D02*
X142274286Y-100836247D01*
X142274286Y-100836247D02*
X142274286Y-100693390D01*
X142274286Y-100693390D02*
X142321905Y-100502914D01*
X142321905Y-100502914D02*
X142369524Y-100407676D01*
X142369524Y-100407676D02*
X142464762Y-100312438D01*
X142464762Y-100312438D02*
X142607619Y-100264819D01*
X142607619Y-100264819D02*
X142702857Y-100264819D01*
X142702857Y-100264819D02*
X142845714Y-100312438D01*
X142845714Y-100312438D02*
X142893333Y-100360057D01*
X143369524Y-101264819D02*
X143560000Y-101264819D01*
X143560000Y-101264819D02*
X143655238Y-101217200D01*
X143655238Y-101217200D02*
X143702857Y-101169580D01*
X143702857Y-101169580D02*
X143798095Y-101026723D01*
X143798095Y-101026723D02*
X143845714Y-100836247D01*
X143845714Y-100836247D02*
X143845714Y-100455295D01*
X143845714Y-100455295D02*
X143798095Y-100360057D01*
X143798095Y-100360057D02*
X143750476Y-100312438D01*
X143750476Y-100312438D02*
X143655238Y-100264819D01*
X143655238Y-100264819D02*
X143464762Y-100264819D01*
X143464762Y-100264819D02*
X143369524Y-100312438D01*
X143369524Y-100312438D02*
X143321905Y-100360057D01*
X143321905Y-100360057D02*
X143274286Y-100455295D01*
X143274286Y-100455295D02*
X143274286Y-100693390D01*
X143274286Y-100693390D02*
X143321905Y-100788628D01*
X143321905Y-100788628D02*
X143369524Y-100836247D01*
X143369524Y-100836247D02*
X143464762Y-100883866D01*
X143464762Y-100883866D02*
X143655238Y-100883866D01*
X143655238Y-100883866D02*
X143750476Y-100836247D01*
X143750476Y-100836247D02*
X143798095Y-100788628D01*
X143798095Y-100788628D02*
X143845714Y-100693390D01*
X43720476Y-65054819D02*
X43720476Y-65769104D01*
X43720476Y-65769104D02*
X43672857Y-65911961D01*
X43672857Y-65911961D02*
X43577619Y-66007200D01*
X43577619Y-66007200D02*
X43434762Y-66054819D01*
X43434762Y-66054819D02*
X43339524Y-66054819D01*
X44720476Y-66054819D02*
X44149048Y-66054819D01*
X44434762Y-66054819D02*
X44434762Y-65054819D01*
X44434762Y-65054819D02*
X44339524Y-65197676D01*
X44339524Y-65197676D02*
X44244286Y-65292914D01*
X44244286Y-65292914D02*
X44149048Y-65340533D01*
X45339524Y-65054819D02*
X45434762Y-65054819D01*
X45434762Y-65054819D02*
X45530000Y-65102438D01*
X45530000Y-65102438D02*
X45577619Y-65150057D01*
X45577619Y-65150057D02*
X45625238Y-65245295D01*
X45625238Y-65245295D02*
X45672857Y-65435771D01*
X45672857Y-65435771D02*
X45672857Y-65673866D01*
X45672857Y-65673866D02*
X45625238Y-65864342D01*
X45625238Y-65864342D02*
X45577619Y-65959580D01*
X45577619Y-65959580D02*
X45530000Y-66007200D01*
X45530000Y-66007200D02*
X45434762Y-66054819D01*
X45434762Y-66054819D02*
X45339524Y-66054819D01*
X45339524Y-66054819D02*
X45244286Y-66007200D01*
X45244286Y-66007200D02*
X45196667Y-65959580D01*
X45196667Y-65959580D02*
X45149048Y-65864342D01*
X45149048Y-65864342D02*
X45101429Y-65673866D01*
X45101429Y-65673866D02*
X45101429Y-65435771D01*
X45101429Y-65435771D02*
X45149048Y-65245295D01*
X45149048Y-65245295D02*
X45196667Y-65150057D01*
X45196667Y-65150057D02*
X45244286Y-65102438D01*
X45244286Y-65102438D02*
X45339524Y-65054819D01*
X160144440Y-102289233D02*
X160144440Y-103566240D01*
X160144440Y-103566240D02*
X160219558Y-103716476D01*
X160219558Y-103716476D02*
X160294676Y-103791595D01*
X160294676Y-103791595D02*
X160444912Y-103866713D01*
X160444912Y-103866713D02*
X160745385Y-103866713D01*
X160745385Y-103866713D02*
X160895621Y-103791595D01*
X160895621Y-103791595D02*
X160970739Y-103716476D01*
X160970739Y-103716476D02*
X161045857Y-103566240D01*
X161045857Y-103566240D02*
X161045857Y-102289233D01*
X162548219Y-102289233D02*
X161797038Y-102289233D01*
X161797038Y-102289233D02*
X161721920Y-103040414D01*
X161721920Y-103040414D02*
X161797038Y-102965295D01*
X161797038Y-102965295D02*
X161947274Y-102890177D01*
X161947274Y-102890177D02*
X162322865Y-102890177D01*
X162322865Y-102890177D02*
X162473101Y-102965295D01*
X162473101Y-102965295D02*
X162548219Y-103040414D01*
X162548219Y-103040414D02*
X162623337Y-103190650D01*
X162623337Y-103190650D02*
X162623337Y-103566240D01*
X162623337Y-103566240D02*
X162548219Y-103716476D01*
X162548219Y-103716476D02*
X162473101Y-103791595D01*
X162473101Y-103791595D02*
X162322865Y-103866713D01*
X162322865Y-103866713D02*
X161947274Y-103866713D01*
X161947274Y-103866713D02*
X161797038Y-103791595D01*
X161797038Y-103791595D02*
X161721920Y-103716476D01*
X212959580Y-103966666D02*
X213007200Y-104014285D01*
X213007200Y-104014285D02*
X213054819Y-104157142D01*
X213054819Y-104157142D02*
X213054819Y-104252380D01*
X213054819Y-104252380D02*
X213007200Y-104395237D01*
X213007200Y-104395237D02*
X212911961Y-104490475D01*
X212911961Y-104490475D02*
X212816723Y-104538094D01*
X212816723Y-104538094D02*
X212626247Y-104585713D01*
X212626247Y-104585713D02*
X212483390Y-104585713D01*
X212483390Y-104585713D02*
X212292914Y-104538094D01*
X212292914Y-104538094D02*
X212197676Y-104490475D01*
X212197676Y-104490475D02*
X212102438Y-104395237D01*
X212102438Y-104395237D02*
X212054819Y-104252380D01*
X212054819Y-104252380D02*
X212054819Y-104157142D01*
X212054819Y-104157142D02*
X212102438Y-104014285D01*
X212102438Y-104014285D02*
X212150057Y-103966666D01*
X212054819Y-103061904D02*
X212054819Y-103538094D01*
X212054819Y-103538094D02*
X212531009Y-103585713D01*
X212531009Y-103585713D02*
X212483390Y-103538094D01*
X212483390Y-103538094D02*
X212435771Y-103442856D01*
X212435771Y-103442856D02*
X212435771Y-103204761D01*
X212435771Y-103204761D02*
X212483390Y-103109523D01*
X212483390Y-103109523D02*
X212531009Y-103061904D01*
X212531009Y-103061904D02*
X212626247Y-103014285D01*
X212626247Y-103014285D02*
X212864342Y-103014285D01*
X212864342Y-103014285D02*
X212959580Y-103061904D01*
X212959580Y-103061904D02*
X213007200Y-103109523D01*
X213007200Y-103109523D02*
X213054819Y-103204761D01*
X213054819Y-103204761D02*
X213054819Y-103442856D01*
X213054819Y-103442856D02*
X213007200Y-103538094D01*
X213007200Y-103538094D02*
X212959580Y-103585713D01*
X247328571Y-138531009D02*
X246995238Y-138531009D01*
X246995238Y-139054819D02*
X246995238Y-138054819D01*
X246995238Y-138054819D02*
X247471428Y-138054819D01*
X247852381Y-139054819D02*
X247852381Y-138054819D01*
X248328571Y-139054819D02*
X248328571Y-138054819D01*
X248328571Y-138054819D02*
X248566666Y-138054819D01*
X248566666Y-138054819D02*
X248709523Y-138102438D01*
X248709523Y-138102438D02*
X248804761Y-138197676D01*
X248804761Y-138197676D02*
X248852380Y-138292914D01*
X248852380Y-138292914D02*
X248899999Y-138483390D01*
X248899999Y-138483390D02*
X248899999Y-138626247D01*
X248899999Y-138626247D02*
X248852380Y-138816723D01*
X248852380Y-138816723D02*
X248804761Y-138911961D01*
X248804761Y-138911961D02*
X248709523Y-139007200D01*
X248709523Y-139007200D02*
X248566666Y-139054819D01*
X248566666Y-139054819D02*
X248328571Y-139054819D01*
X249757142Y-138388152D02*
X249757142Y-139054819D01*
X249519047Y-138007200D02*
X249280952Y-138721485D01*
X249280952Y-138721485D02*
X249899999Y-138721485D01*
X79790476Y-143354819D02*
X79790476Y-144069104D01*
X79790476Y-144069104D02*
X79742857Y-144211961D01*
X79742857Y-144211961D02*
X79647619Y-144307200D01*
X79647619Y-144307200D02*
X79504762Y-144354819D01*
X79504762Y-144354819D02*
X79409524Y-144354819D01*
X80219048Y-143450057D02*
X80266667Y-143402438D01*
X80266667Y-143402438D02*
X80361905Y-143354819D01*
X80361905Y-143354819D02*
X80600000Y-143354819D01*
X80600000Y-143354819D02*
X80695238Y-143402438D01*
X80695238Y-143402438D02*
X80742857Y-143450057D01*
X80742857Y-143450057D02*
X80790476Y-143545295D01*
X80790476Y-143545295D02*
X80790476Y-143640533D01*
X80790476Y-143640533D02*
X80742857Y-143783390D01*
X80742857Y-143783390D02*
X80171429Y-144354819D01*
X80171429Y-144354819D02*
X80790476Y-144354819D01*
X81647619Y-143688152D02*
X81647619Y-144354819D01*
X81409524Y-143307200D02*
X81171429Y-144021485D01*
X81171429Y-144021485D02*
X81790476Y-144021485D01*
X78933333Y-78594819D02*
X78600000Y-78118628D01*
X78361905Y-78594819D02*
X78361905Y-77594819D01*
X78361905Y-77594819D02*
X78742857Y-77594819D01*
X78742857Y-77594819D02*
X78838095Y-77642438D01*
X78838095Y-77642438D02*
X78885714Y-77690057D01*
X78885714Y-77690057D02*
X78933333Y-77785295D01*
X78933333Y-77785295D02*
X78933333Y-77928152D01*
X78933333Y-77928152D02*
X78885714Y-78023390D01*
X78885714Y-78023390D02*
X78838095Y-78071009D01*
X78838095Y-78071009D02*
X78742857Y-78118628D01*
X78742857Y-78118628D02*
X78361905Y-78118628D01*
X79504762Y-78023390D02*
X79409524Y-77975771D01*
X79409524Y-77975771D02*
X79361905Y-77928152D01*
X79361905Y-77928152D02*
X79314286Y-77832914D01*
X79314286Y-77832914D02*
X79314286Y-77785295D01*
X79314286Y-77785295D02*
X79361905Y-77690057D01*
X79361905Y-77690057D02*
X79409524Y-77642438D01*
X79409524Y-77642438D02*
X79504762Y-77594819D01*
X79504762Y-77594819D02*
X79695238Y-77594819D01*
X79695238Y-77594819D02*
X79790476Y-77642438D01*
X79790476Y-77642438D02*
X79838095Y-77690057D01*
X79838095Y-77690057D02*
X79885714Y-77785295D01*
X79885714Y-77785295D02*
X79885714Y-77832914D01*
X79885714Y-77832914D02*
X79838095Y-77928152D01*
X79838095Y-77928152D02*
X79790476Y-77975771D01*
X79790476Y-77975771D02*
X79695238Y-78023390D01*
X79695238Y-78023390D02*
X79504762Y-78023390D01*
X79504762Y-78023390D02*
X79409524Y-78071009D01*
X79409524Y-78071009D02*
X79361905Y-78118628D01*
X79361905Y-78118628D02*
X79314286Y-78213866D01*
X79314286Y-78213866D02*
X79314286Y-78404342D01*
X79314286Y-78404342D02*
X79361905Y-78499580D01*
X79361905Y-78499580D02*
X79409524Y-78547200D01*
X79409524Y-78547200D02*
X79504762Y-78594819D01*
X79504762Y-78594819D02*
X79695238Y-78594819D01*
X79695238Y-78594819D02*
X79790476Y-78547200D01*
X79790476Y-78547200D02*
X79838095Y-78499580D01*
X79838095Y-78499580D02*
X79885714Y-78404342D01*
X79885714Y-78404342D02*
X79885714Y-78213866D01*
X79885714Y-78213866D02*
X79838095Y-78118628D01*
X79838095Y-78118628D02*
X79790476Y-78071009D01*
X79790476Y-78071009D02*
X79695238Y-78023390D01*
X41294819Y-52443333D02*
X42009104Y-52443333D01*
X42009104Y-52443333D02*
X42151961Y-52490952D01*
X42151961Y-52490952D02*
X42247200Y-52586190D01*
X42247200Y-52586190D02*
X42294819Y-52729047D01*
X42294819Y-52729047D02*
X42294819Y-52824285D01*
X42294819Y-51443333D02*
X42294819Y-52014761D01*
X42294819Y-51729047D02*
X41294819Y-51729047D01*
X41294819Y-51729047D02*
X41437676Y-51824285D01*
X41437676Y-51824285D02*
X41532914Y-51919523D01*
X41532914Y-51919523D02*
X41580533Y-52014761D01*
X220783333Y-124939580D02*
X220735714Y-124987200D01*
X220735714Y-124987200D02*
X220592857Y-125034819D01*
X220592857Y-125034819D02*
X220497619Y-125034819D01*
X220497619Y-125034819D02*
X220354762Y-124987200D01*
X220354762Y-124987200D02*
X220259524Y-124891961D01*
X220259524Y-124891961D02*
X220211905Y-124796723D01*
X220211905Y-124796723D02*
X220164286Y-124606247D01*
X220164286Y-124606247D02*
X220164286Y-124463390D01*
X220164286Y-124463390D02*
X220211905Y-124272914D01*
X220211905Y-124272914D02*
X220259524Y-124177676D01*
X220259524Y-124177676D02*
X220354762Y-124082438D01*
X220354762Y-124082438D02*
X220497619Y-124034819D01*
X220497619Y-124034819D02*
X220592857Y-124034819D01*
X220592857Y-124034819D02*
X220735714Y-124082438D01*
X220735714Y-124082438D02*
X220783333Y-124130057D01*
X221640476Y-124368152D02*
X221640476Y-125034819D01*
X221402381Y-123987200D02*
X221164286Y-124701485D01*
X221164286Y-124701485D02*
X221783333Y-124701485D01*
X213654819Y-135342857D02*
X213178628Y-135676190D01*
X213654819Y-135914285D02*
X212654819Y-135914285D01*
X212654819Y-135914285D02*
X212654819Y-135533333D01*
X212654819Y-135533333D02*
X212702438Y-135438095D01*
X212702438Y-135438095D02*
X212750057Y-135390476D01*
X212750057Y-135390476D02*
X212845295Y-135342857D01*
X212845295Y-135342857D02*
X212988152Y-135342857D01*
X212988152Y-135342857D02*
X213083390Y-135390476D01*
X213083390Y-135390476D02*
X213131009Y-135438095D01*
X213131009Y-135438095D02*
X213178628Y-135533333D01*
X213178628Y-135533333D02*
X213178628Y-135914285D01*
X213654819Y-134390476D02*
X213654819Y-134961904D01*
X213654819Y-134676190D02*
X212654819Y-134676190D01*
X212654819Y-134676190D02*
X212797676Y-134771428D01*
X212797676Y-134771428D02*
X212892914Y-134866666D01*
X212892914Y-134866666D02*
X212940533Y-134961904D01*
X212988152Y-133533333D02*
X213654819Y-133533333D01*
X212607200Y-133771428D02*
X213321485Y-134009523D01*
X213321485Y-134009523D02*
X213321485Y-133390476D01*
X92154819Y-135942857D02*
X91678628Y-136276190D01*
X92154819Y-136514285D02*
X91154819Y-136514285D01*
X91154819Y-136514285D02*
X91154819Y-136133333D01*
X91154819Y-136133333D02*
X91202438Y-136038095D01*
X91202438Y-136038095D02*
X91250057Y-135990476D01*
X91250057Y-135990476D02*
X91345295Y-135942857D01*
X91345295Y-135942857D02*
X91488152Y-135942857D01*
X91488152Y-135942857D02*
X91583390Y-135990476D01*
X91583390Y-135990476D02*
X91631009Y-136038095D01*
X91631009Y-136038095D02*
X91678628Y-136133333D01*
X91678628Y-136133333D02*
X91678628Y-136514285D01*
X91250057Y-135561904D02*
X91202438Y-135514285D01*
X91202438Y-135514285D02*
X91154819Y-135419047D01*
X91154819Y-135419047D02*
X91154819Y-135180952D01*
X91154819Y-135180952D02*
X91202438Y-135085714D01*
X91202438Y-135085714D02*
X91250057Y-135038095D01*
X91250057Y-135038095D02*
X91345295Y-134990476D01*
X91345295Y-134990476D02*
X91440533Y-134990476D01*
X91440533Y-134990476D02*
X91583390Y-135038095D01*
X91583390Y-135038095D02*
X92154819Y-135609523D01*
X92154819Y-135609523D02*
X92154819Y-134990476D01*
X91250057Y-134609523D02*
X91202438Y-134561904D01*
X91202438Y-134561904D02*
X91154819Y-134466666D01*
X91154819Y-134466666D02*
X91154819Y-134228571D01*
X91154819Y-134228571D02*
X91202438Y-134133333D01*
X91202438Y-134133333D02*
X91250057Y-134085714D01*
X91250057Y-134085714D02*
X91345295Y-134038095D01*
X91345295Y-134038095D02*
X91440533Y-134038095D01*
X91440533Y-134038095D02*
X91583390Y-134085714D01*
X91583390Y-134085714D02*
X92154819Y-134657142D01*
X92154819Y-134657142D02*
X92154819Y-134038095D01*
X155916666Y-46904819D02*
X155916666Y-47619104D01*
X155916666Y-47619104D02*
X155869047Y-47761961D01*
X155869047Y-47761961D02*
X155773809Y-47857200D01*
X155773809Y-47857200D02*
X155630952Y-47904819D01*
X155630952Y-47904819D02*
X155535714Y-47904819D01*
X156440476Y-47904819D02*
X156630952Y-47904819D01*
X156630952Y-47904819D02*
X156726190Y-47857200D01*
X156726190Y-47857200D02*
X156773809Y-47809580D01*
X156773809Y-47809580D02*
X156869047Y-47666723D01*
X156869047Y-47666723D02*
X156916666Y-47476247D01*
X156916666Y-47476247D02*
X156916666Y-47095295D01*
X156916666Y-47095295D02*
X156869047Y-47000057D01*
X156869047Y-47000057D02*
X156821428Y-46952438D01*
X156821428Y-46952438D02*
X156726190Y-46904819D01*
X156726190Y-46904819D02*
X156535714Y-46904819D01*
X156535714Y-46904819D02*
X156440476Y-46952438D01*
X156440476Y-46952438D02*
X156392857Y-47000057D01*
X156392857Y-47000057D02*
X156345238Y-47095295D01*
X156345238Y-47095295D02*
X156345238Y-47333390D01*
X156345238Y-47333390D02*
X156392857Y-47428628D01*
X156392857Y-47428628D02*
X156440476Y-47476247D01*
X156440476Y-47476247D02*
X156535714Y-47523866D01*
X156535714Y-47523866D02*
X156726190Y-47523866D01*
X156726190Y-47523866D02*
X156821428Y-47476247D01*
X156821428Y-47476247D02*
X156869047Y-47428628D01*
X156869047Y-47428628D02*
X156916666Y-47333390D01*
X57440476Y-96714819D02*
X57440476Y-97429104D01*
X57440476Y-97429104D02*
X57392857Y-97571961D01*
X57392857Y-97571961D02*
X57297619Y-97667200D01*
X57297619Y-97667200D02*
X57154762Y-97714819D01*
X57154762Y-97714819D02*
X57059524Y-97714819D01*
X57869048Y-96810057D02*
X57916667Y-96762438D01*
X57916667Y-96762438D02*
X58011905Y-96714819D01*
X58011905Y-96714819D02*
X58250000Y-96714819D01*
X58250000Y-96714819D02*
X58345238Y-96762438D01*
X58345238Y-96762438D02*
X58392857Y-96810057D01*
X58392857Y-96810057D02*
X58440476Y-96905295D01*
X58440476Y-96905295D02*
X58440476Y-97000533D01*
X58440476Y-97000533D02*
X58392857Y-97143390D01*
X58392857Y-97143390D02*
X57821429Y-97714819D01*
X57821429Y-97714819D02*
X58440476Y-97714819D01*
X59392857Y-97714819D02*
X58821429Y-97714819D01*
X59107143Y-97714819D02*
X59107143Y-96714819D01*
X59107143Y-96714819D02*
X59011905Y-96857676D01*
X59011905Y-96857676D02*
X58916667Y-96952914D01*
X58916667Y-96952914D02*
X58821429Y-97000533D01*
X141614440Y-102209233D02*
X141614440Y-103486240D01*
X141614440Y-103486240D02*
X141689558Y-103636476D01*
X141689558Y-103636476D02*
X141764676Y-103711595D01*
X141764676Y-103711595D02*
X141914912Y-103786713D01*
X141914912Y-103786713D02*
X142215385Y-103786713D01*
X142215385Y-103786713D02*
X142365621Y-103711595D01*
X142365621Y-103711595D02*
X142440739Y-103636476D01*
X142440739Y-103636476D02*
X142515857Y-103486240D01*
X142515857Y-103486240D02*
X142515857Y-102209233D01*
X143943101Y-102735059D02*
X143943101Y-103786713D01*
X143567510Y-102134115D02*
X143191920Y-103260886D01*
X143191920Y-103260886D02*
X144168455Y-103260886D01*
X140285095Y-142809439D02*
X140285095Y-143484355D01*
X140285095Y-143484355D02*
X140240100Y-143619338D01*
X140240100Y-143619338D02*
X140150112Y-143709327D01*
X140150112Y-143709327D02*
X140015128Y-143754321D01*
X140015128Y-143754321D02*
X139925140Y-143754321D01*
X140645050Y-142809439D02*
X141229977Y-142809439D01*
X141229977Y-142809439D02*
X140915016Y-143169394D01*
X140915016Y-143169394D02*
X141049999Y-143169394D01*
X141049999Y-143169394D02*
X141139988Y-143214388D01*
X141139988Y-143214388D02*
X141184982Y-143259383D01*
X141184982Y-143259383D02*
X141229977Y-143349371D01*
X141229977Y-143349371D02*
X141229977Y-143574343D01*
X141229977Y-143574343D02*
X141184982Y-143664332D01*
X141184982Y-143664332D02*
X141139988Y-143709327D01*
X141139988Y-143709327D02*
X141049999Y-143754321D01*
X141049999Y-143754321D02*
X140780033Y-143754321D01*
X140780033Y-143754321D02*
X140690044Y-143709327D01*
X140690044Y-143709327D02*
X140645050Y-143664332D01*
X142084870Y-142809439D02*
X141634926Y-142809439D01*
X141634926Y-142809439D02*
X141589932Y-143259383D01*
X141589932Y-143259383D02*
X141634926Y-143214388D01*
X141634926Y-143214388D02*
X141724915Y-143169394D01*
X141724915Y-143169394D02*
X141949887Y-143169394D01*
X141949887Y-143169394D02*
X142039876Y-143214388D01*
X142039876Y-143214388D02*
X142084870Y-143259383D01*
X142084870Y-143259383D02*
X142129865Y-143349371D01*
X142129865Y-143349371D02*
X142129865Y-143574343D01*
X142129865Y-143574343D02*
X142084870Y-143664332D01*
X142084870Y-143664332D02*
X142039876Y-143709327D01*
X142039876Y-143709327D02*
X141949887Y-143754321D01*
X141949887Y-143754321D02*
X141724915Y-143754321D01*
X141724915Y-143754321D02*
X141634926Y-143709327D01*
X141634926Y-143709327D02*
X141589932Y-143664332D01*
X165454819Y-53309523D02*
X166169104Y-53309523D01*
X166169104Y-53309523D02*
X166311961Y-53357142D01*
X166311961Y-53357142D02*
X166407200Y-53452380D01*
X166407200Y-53452380D02*
X166454819Y-53595237D01*
X166454819Y-53595237D02*
X166454819Y-53690475D01*
X166454819Y-52309523D02*
X166454819Y-52880951D01*
X166454819Y-52595237D02*
X165454819Y-52595237D01*
X165454819Y-52595237D02*
X165597676Y-52690475D01*
X165597676Y-52690475D02*
X165692914Y-52785713D01*
X165692914Y-52785713D02*
X165740533Y-52880951D01*
X165883390Y-51738094D02*
X165835771Y-51833332D01*
X165835771Y-51833332D02*
X165788152Y-51880951D01*
X165788152Y-51880951D02*
X165692914Y-51928570D01*
X165692914Y-51928570D02*
X165645295Y-51928570D01*
X165645295Y-51928570D02*
X165550057Y-51880951D01*
X165550057Y-51880951D02*
X165502438Y-51833332D01*
X165502438Y-51833332D02*
X165454819Y-51738094D01*
X165454819Y-51738094D02*
X165454819Y-51547618D01*
X165454819Y-51547618D02*
X165502438Y-51452380D01*
X165502438Y-51452380D02*
X165550057Y-51404761D01*
X165550057Y-51404761D02*
X165645295Y-51357142D01*
X165645295Y-51357142D02*
X165692914Y-51357142D01*
X165692914Y-51357142D02*
X165788152Y-51404761D01*
X165788152Y-51404761D02*
X165835771Y-51452380D01*
X165835771Y-51452380D02*
X165883390Y-51547618D01*
X165883390Y-51547618D02*
X165883390Y-51738094D01*
X165883390Y-51738094D02*
X165931009Y-51833332D01*
X165931009Y-51833332D02*
X165978628Y-51880951D01*
X165978628Y-51880951D02*
X166073866Y-51928570D01*
X166073866Y-51928570D02*
X166264342Y-51928570D01*
X166264342Y-51928570D02*
X166359580Y-51880951D01*
X166359580Y-51880951D02*
X166407200Y-51833332D01*
X166407200Y-51833332D02*
X166454819Y-51738094D01*
X166454819Y-51738094D02*
X166454819Y-51547618D01*
X166454819Y-51547618D02*
X166407200Y-51452380D01*
X166407200Y-51452380D02*
X166359580Y-51404761D01*
X166359580Y-51404761D02*
X166264342Y-51357142D01*
X166264342Y-51357142D02*
X166073866Y-51357142D01*
X166073866Y-51357142D02*
X165978628Y-51404761D01*
X165978628Y-51404761D02*
X165931009Y-51452380D01*
X165931009Y-51452380D02*
X165883390Y-51547618D01*
X140584819Y-125642857D02*
X140108628Y-125976190D01*
X140584819Y-126214285D02*
X139584819Y-126214285D01*
X139584819Y-126214285D02*
X139584819Y-125833333D01*
X139584819Y-125833333D02*
X139632438Y-125738095D01*
X139632438Y-125738095D02*
X139680057Y-125690476D01*
X139680057Y-125690476D02*
X139775295Y-125642857D01*
X139775295Y-125642857D02*
X139918152Y-125642857D01*
X139918152Y-125642857D02*
X140013390Y-125690476D01*
X140013390Y-125690476D02*
X140061009Y-125738095D01*
X140061009Y-125738095D02*
X140108628Y-125833333D01*
X140108628Y-125833333D02*
X140108628Y-126214285D01*
X140584819Y-124690476D02*
X140584819Y-125261904D01*
X140584819Y-124976190D02*
X139584819Y-124976190D01*
X139584819Y-124976190D02*
X139727676Y-125071428D01*
X139727676Y-125071428D02*
X139822914Y-125166666D01*
X139822914Y-125166666D02*
X139870533Y-125261904D01*
X139584819Y-124357142D02*
X139584819Y-123690476D01*
X139584819Y-123690476D02*
X140584819Y-124119047D01*
X95505595Y-62102319D02*
X95505595Y-62911842D01*
X95505595Y-62911842D02*
X95553214Y-63007080D01*
X95553214Y-63007080D02*
X95600833Y-63054700D01*
X95600833Y-63054700D02*
X95696071Y-63102319D01*
X95696071Y-63102319D02*
X95886547Y-63102319D01*
X95886547Y-63102319D02*
X95981785Y-63054700D01*
X95981785Y-63054700D02*
X96029404Y-63007080D01*
X96029404Y-63007080D02*
X96077023Y-62911842D01*
X96077023Y-62911842D02*
X96077023Y-62102319D01*
X97077023Y-63102319D02*
X96505595Y-63102319D01*
X96791309Y-63102319D02*
X96791309Y-62102319D01*
X96791309Y-62102319D02*
X96696071Y-62245176D01*
X96696071Y-62245176D02*
X96600833Y-62340414D01*
X96600833Y-62340414D02*
X96505595Y-62388033D01*
X124954819Y-111542857D02*
X124478628Y-111876190D01*
X124954819Y-112114285D02*
X123954819Y-112114285D01*
X123954819Y-112114285D02*
X123954819Y-111733333D01*
X123954819Y-111733333D02*
X124002438Y-111638095D01*
X124002438Y-111638095D02*
X124050057Y-111590476D01*
X124050057Y-111590476D02*
X124145295Y-111542857D01*
X124145295Y-111542857D02*
X124288152Y-111542857D01*
X124288152Y-111542857D02*
X124383390Y-111590476D01*
X124383390Y-111590476D02*
X124431009Y-111638095D01*
X124431009Y-111638095D02*
X124478628Y-111733333D01*
X124478628Y-111733333D02*
X124478628Y-112114285D01*
X124954819Y-110590476D02*
X124954819Y-111161904D01*
X124954819Y-110876190D02*
X123954819Y-110876190D01*
X123954819Y-110876190D02*
X124097676Y-110971428D01*
X124097676Y-110971428D02*
X124192914Y-111066666D01*
X124192914Y-111066666D02*
X124240533Y-111161904D01*
X123954819Y-109733333D02*
X123954819Y-109923809D01*
X123954819Y-109923809D02*
X124002438Y-110019047D01*
X124002438Y-110019047D02*
X124050057Y-110066666D01*
X124050057Y-110066666D02*
X124192914Y-110161904D01*
X124192914Y-110161904D02*
X124383390Y-110209523D01*
X124383390Y-110209523D02*
X124764342Y-110209523D01*
X124764342Y-110209523D02*
X124859580Y-110161904D01*
X124859580Y-110161904D02*
X124907200Y-110114285D01*
X124907200Y-110114285D02*
X124954819Y-110019047D01*
X124954819Y-110019047D02*
X124954819Y-109828571D01*
X124954819Y-109828571D02*
X124907200Y-109733333D01*
X124907200Y-109733333D02*
X124859580Y-109685714D01*
X124859580Y-109685714D02*
X124764342Y-109638095D01*
X124764342Y-109638095D02*
X124526247Y-109638095D01*
X124526247Y-109638095D02*
X124431009Y-109685714D01*
X124431009Y-109685714D02*
X124383390Y-109733333D01*
X124383390Y-109733333D02*
X124335771Y-109828571D01*
X124335771Y-109828571D02*
X124335771Y-110019047D01*
X124335771Y-110019047D02*
X124383390Y-110114285D01*
X124383390Y-110114285D02*
X124431009Y-110161904D01*
X124431009Y-110161904D02*
X124526247Y-110209523D01*
X193207142Y-72934819D02*
X192873809Y-72458628D01*
X192635714Y-72934819D02*
X192635714Y-71934819D01*
X192635714Y-71934819D02*
X193016666Y-71934819D01*
X193016666Y-71934819D02*
X193111904Y-71982438D01*
X193111904Y-71982438D02*
X193159523Y-72030057D01*
X193159523Y-72030057D02*
X193207142Y-72125295D01*
X193207142Y-72125295D02*
X193207142Y-72268152D01*
X193207142Y-72268152D02*
X193159523Y-72363390D01*
X193159523Y-72363390D02*
X193111904Y-72411009D01*
X193111904Y-72411009D02*
X193016666Y-72458628D01*
X193016666Y-72458628D02*
X192635714Y-72458628D01*
X193588095Y-72030057D02*
X193635714Y-71982438D01*
X193635714Y-71982438D02*
X193730952Y-71934819D01*
X193730952Y-71934819D02*
X193969047Y-71934819D01*
X193969047Y-71934819D02*
X194064285Y-71982438D01*
X194064285Y-71982438D02*
X194111904Y-72030057D01*
X194111904Y-72030057D02*
X194159523Y-72125295D01*
X194159523Y-72125295D02*
X194159523Y-72220533D01*
X194159523Y-72220533D02*
X194111904Y-72363390D01*
X194111904Y-72363390D02*
X193540476Y-72934819D01*
X193540476Y-72934819D02*
X194159523Y-72934819D01*
X195064285Y-71934819D02*
X194588095Y-71934819D01*
X194588095Y-71934819D02*
X194540476Y-72411009D01*
X194540476Y-72411009D02*
X194588095Y-72363390D01*
X194588095Y-72363390D02*
X194683333Y-72315771D01*
X194683333Y-72315771D02*
X194921428Y-72315771D01*
X194921428Y-72315771D02*
X195016666Y-72363390D01*
X195016666Y-72363390D02*
X195064285Y-72411009D01*
X195064285Y-72411009D02*
X195111904Y-72506247D01*
X195111904Y-72506247D02*
X195111904Y-72744342D01*
X195111904Y-72744342D02*
X195064285Y-72839580D01*
X195064285Y-72839580D02*
X195016666Y-72887200D01*
X195016666Y-72887200D02*
X194921428Y-72934819D01*
X194921428Y-72934819D02*
X194683333Y-72934819D01*
X194683333Y-72934819D02*
X194588095Y-72887200D01*
X194588095Y-72887200D02*
X194540476Y-72839580D01*
X161084819Y-125722857D02*
X160608628Y-126056190D01*
X161084819Y-126294285D02*
X160084819Y-126294285D01*
X160084819Y-126294285D02*
X160084819Y-125913333D01*
X160084819Y-125913333D02*
X160132438Y-125818095D01*
X160132438Y-125818095D02*
X160180057Y-125770476D01*
X160180057Y-125770476D02*
X160275295Y-125722857D01*
X160275295Y-125722857D02*
X160418152Y-125722857D01*
X160418152Y-125722857D02*
X160513390Y-125770476D01*
X160513390Y-125770476D02*
X160561009Y-125818095D01*
X160561009Y-125818095D02*
X160608628Y-125913333D01*
X160608628Y-125913333D02*
X160608628Y-126294285D01*
X160180057Y-125341904D02*
X160132438Y-125294285D01*
X160132438Y-125294285D02*
X160084819Y-125199047D01*
X160084819Y-125199047D02*
X160084819Y-124960952D01*
X160084819Y-124960952D02*
X160132438Y-124865714D01*
X160132438Y-124865714D02*
X160180057Y-124818095D01*
X160180057Y-124818095D02*
X160275295Y-124770476D01*
X160275295Y-124770476D02*
X160370533Y-124770476D01*
X160370533Y-124770476D02*
X160513390Y-124818095D01*
X160513390Y-124818095D02*
X161084819Y-125389523D01*
X161084819Y-125389523D02*
X161084819Y-124770476D01*
X160084819Y-124151428D02*
X160084819Y-124056190D01*
X160084819Y-124056190D02*
X160132438Y-123960952D01*
X160132438Y-123960952D02*
X160180057Y-123913333D01*
X160180057Y-123913333D02*
X160275295Y-123865714D01*
X160275295Y-123865714D02*
X160465771Y-123818095D01*
X160465771Y-123818095D02*
X160703866Y-123818095D01*
X160703866Y-123818095D02*
X160894342Y-123865714D01*
X160894342Y-123865714D02*
X160989580Y-123913333D01*
X160989580Y-123913333D02*
X161037200Y-123960952D01*
X161037200Y-123960952D02*
X161084819Y-124056190D01*
X161084819Y-124056190D02*
X161084819Y-124151428D01*
X161084819Y-124151428D02*
X161037200Y-124246666D01*
X161037200Y-124246666D02*
X160989580Y-124294285D01*
X160989580Y-124294285D02*
X160894342Y-124341904D01*
X160894342Y-124341904D02*
X160703866Y-124389523D01*
X160703866Y-124389523D02*
X160465771Y-124389523D01*
X160465771Y-124389523D02*
X160275295Y-124341904D01*
X160275295Y-124341904D02*
X160180057Y-124294285D01*
X160180057Y-124294285D02*
X160132438Y-124246666D01*
X160132438Y-124246666D02*
X160084819Y-124151428D01*
X31228571Y-56431009D02*
X30895238Y-56431009D01*
X30895238Y-56954819D02*
X30895238Y-55954819D01*
X30895238Y-55954819D02*
X31371428Y-55954819D01*
X31752381Y-56954819D02*
X31752381Y-55954819D01*
X32228571Y-56954819D02*
X32228571Y-55954819D01*
X32228571Y-55954819D02*
X32466666Y-55954819D01*
X32466666Y-55954819D02*
X32609523Y-56002438D01*
X32609523Y-56002438D02*
X32704761Y-56097676D01*
X32704761Y-56097676D02*
X32752380Y-56192914D01*
X32752380Y-56192914D02*
X32799999Y-56383390D01*
X32799999Y-56383390D02*
X32799999Y-56526247D01*
X32799999Y-56526247D02*
X32752380Y-56716723D01*
X32752380Y-56716723D02*
X32704761Y-56811961D01*
X32704761Y-56811961D02*
X32609523Y-56907200D01*
X32609523Y-56907200D02*
X32466666Y-56954819D01*
X32466666Y-56954819D02*
X32228571Y-56954819D01*
X33752380Y-56954819D02*
X33180952Y-56954819D01*
X33466666Y-56954819D02*
X33466666Y-55954819D01*
X33466666Y-55954819D02*
X33371428Y-56097676D01*
X33371428Y-56097676D02*
X33276190Y-56192914D01*
X33276190Y-56192914D02*
X33180952Y-56240533D01*
X191856666Y-143284819D02*
X191856666Y-143999104D01*
X191856666Y-143999104D02*
X191809047Y-144141961D01*
X191809047Y-144141961D02*
X191713809Y-144237200D01*
X191713809Y-144237200D02*
X191570952Y-144284819D01*
X191570952Y-144284819D02*
X191475714Y-144284819D01*
X192237619Y-143284819D02*
X192856666Y-143284819D01*
X192856666Y-143284819D02*
X192523333Y-143665771D01*
X192523333Y-143665771D02*
X192666190Y-143665771D01*
X192666190Y-143665771D02*
X192761428Y-143713390D01*
X192761428Y-143713390D02*
X192809047Y-143761009D01*
X192809047Y-143761009D02*
X192856666Y-143856247D01*
X192856666Y-143856247D02*
X192856666Y-144094342D01*
X192856666Y-144094342D02*
X192809047Y-144189580D01*
X192809047Y-144189580D02*
X192761428Y-144237200D01*
X192761428Y-144237200D02*
X192666190Y-144284819D01*
X192666190Y-144284819D02*
X192380476Y-144284819D01*
X192380476Y-144284819D02*
X192285238Y-144237200D01*
X192285238Y-144237200D02*
X192237619Y-144189580D01*
X184324819Y-135222857D02*
X183848628Y-135556190D01*
X184324819Y-135794285D02*
X183324819Y-135794285D01*
X183324819Y-135794285D02*
X183324819Y-135413333D01*
X183324819Y-135413333D02*
X183372438Y-135318095D01*
X183372438Y-135318095D02*
X183420057Y-135270476D01*
X183420057Y-135270476D02*
X183515295Y-135222857D01*
X183515295Y-135222857D02*
X183658152Y-135222857D01*
X183658152Y-135222857D02*
X183753390Y-135270476D01*
X183753390Y-135270476D02*
X183801009Y-135318095D01*
X183801009Y-135318095D02*
X183848628Y-135413333D01*
X183848628Y-135413333D02*
X183848628Y-135794285D01*
X184324819Y-134270476D02*
X184324819Y-134841904D01*
X184324819Y-134556190D02*
X183324819Y-134556190D01*
X183324819Y-134556190D02*
X183467676Y-134651428D01*
X183467676Y-134651428D02*
X183562914Y-134746666D01*
X183562914Y-134746666D02*
X183610533Y-134841904D01*
X184324819Y-133318095D02*
X184324819Y-133889523D01*
X184324819Y-133603809D02*
X183324819Y-133603809D01*
X183324819Y-133603809D02*
X183467676Y-133699047D01*
X183467676Y-133699047D02*
X183562914Y-133794285D01*
X183562914Y-133794285D02*
X183610533Y-133889523D01*
X134554819Y-111442857D02*
X134078628Y-111776190D01*
X134554819Y-112014285D02*
X133554819Y-112014285D01*
X133554819Y-112014285D02*
X133554819Y-111633333D01*
X133554819Y-111633333D02*
X133602438Y-111538095D01*
X133602438Y-111538095D02*
X133650057Y-111490476D01*
X133650057Y-111490476D02*
X133745295Y-111442857D01*
X133745295Y-111442857D02*
X133888152Y-111442857D01*
X133888152Y-111442857D02*
X133983390Y-111490476D01*
X133983390Y-111490476D02*
X134031009Y-111538095D01*
X134031009Y-111538095D02*
X134078628Y-111633333D01*
X134078628Y-111633333D02*
X134078628Y-112014285D01*
X134554819Y-110490476D02*
X134554819Y-111061904D01*
X134554819Y-110776190D02*
X133554819Y-110776190D01*
X133554819Y-110776190D02*
X133697676Y-110871428D01*
X133697676Y-110871428D02*
X133792914Y-110966666D01*
X133792914Y-110966666D02*
X133840533Y-111061904D01*
X133554819Y-109585714D02*
X133554819Y-110061904D01*
X133554819Y-110061904D02*
X134031009Y-110109523D01*
X134031009Y-110109523D02*
X133983390Y-110061904D01*
X133983390Y-110061904D02*
X133935771Y-109966666D01*
X133935771Y-109966666D02*
X133935771Y-109728571D01*
X133935771Y-109728571D02*
X133983390Y-109633333D01*
X133983390Y-109633333D02*
X134031009Y-109585714D01*
X134031009Y-109585714D02*
X134126247Y-109538095D01*
X134126247Y-109538095D02*
X134364342Y-109538095D01*
X134364342Y-109538095D02*
X134459580Y-109585714D01*
X134459580Y-109585714D02*
X134507200Y-109633333D01*
X134507200Y-109633333D02*
X134554819Y-109728571D01*
X134554819Y-109728571D02*
X134554819Y-109966666D01*
X134554819Y-109966666D02*
X134507200Y-110061904D01*
X134507200Y-110061904D02*
X134459580Y-110109523D01*
X222216666Y-80031009D02*
X221883333Y-80031009D01*
X221883333Y-80554819D02*
X221883333Y-79554819D01*
X221883333Y-79554819D02*
X222359523Y-79554819D01*
X223169047Y-79888152D02*
X223169047Y-80554819D01*
X222930952Y-79507200D02*
X222692857Y-80221485D01*
X222692857Y-80221485D02*
X223311904Y-80221485D01*
X216566666Y-86131009D02*
X216233333Y-86131009D01*
X216233333Y-86654819D02*
X216233333Y-85654819D01*
X216233333Y-85654819D02*
X216709523Y-85654819D01*
X216995238Y-85654819D02*
X217614285Y-85654819D01*
X217614285Y-85654819D02*
X217280952Y-86035771D01*
X217280952Y-86035771D02*
X217423809Y-86035771D01*
X217423809Y-86035771D02*
X217519047Y-86083390D01*
X217519047Y-86083390D02*
X217566666Y-86131009D01*
X217566666Y-86131009D02*
X217614285Y-86226247D01*
X217614285Y-86226247D02*
X217614285Y-86464342D01*
X217614285Y-86464342D02*
X217566666Y-86559580D01*
X217566666Y-86559580D02*
X217519047Y-86607200D01*
X217519047Y-86607200D02*
X217423809Y-86654819D01*
X217423809Y-86654819D02*
X217138095Y-86654819D01*
X217138095Y-86654819D02*
X217042857Y-86607200D01*
X217042857Y-86607200D02*
X216995238Y-86559580D01*
X70664819Y-71376666D02*
X70188628Y-71709999D01*
X70664819Y-71948094D02*
X69664819Y-71948094D01*
X69664819Y-71948094D02*
X69664819Y-71567142D01*
X69664819Y-71567142D02*
X69712438Y-71471904D01*
X69712438Y-71471904D02*
X69760057Y-71424285D01*
X69760057Y-71424285D02*
X69855295Y-71376666D01*
X69855295Y-71376666D02*
X69998152Y-71376666D01*
X69998152Y-71376666D02*
X70093390Y-71424285D01*
X70093390Y-71424285D02*
X70141009Y-71471904D01*
X70141009Y-71471904D02*
X70188628Y-71567142D01*
X70188628Y-71567142D02*
X70188628Y-71948094D01*
X69998152Y-70519523D02*
X70664819Y-70519523D01*
X69617200Y-70757618D02*
X70331485Y-70995713D01*
X70331485Y-70995713D02*
X70331485Y-70376666D01*
X177356666Y-143284819D02*
X177356666Y-143999104D01*
X177356666Y-143999104D02*
X177309047Y-144141961D01*
X177309047Y-144141961D02*
X177213809Y-144237200D01*
X177213809Y-144237200D02*
X177070952Y-144284819D01*
X177070952Y-144284819D02*
X176975714Y-144284819D01*
X177785238Y-143380057D02*
X177832857Y-143332438D01*
X177832857Y-143332438D02*
X177928095Y-143284819D01*
X177928095Y-143284819D02*
X178166190Y-143284819D01*
X178166190Y-143284819D02*
X178261428Y-143332438D01*
X178261428Y-143332438D02*
X178309047Y-143380057D01*
X178309047Y-143380057D02*
X178356666Y-143475295D01*
X178356666Y-143475295D02*
X178356666Y-143570533D01*
X178356666Y-143570533D02*
X178309047Y-143713390D01*
X178309047Y-143713390D02*
X177737619Y-144284819D01*
X177737619Y-144284819D02*
X178356666Y-144284819D01*
X182344819Y-75452857D02*
X181868628Y-75786190D01*
X182344819Y-76024285D02*
X181344819Y-76024285D01*
X181344819Y-76024285D02*
X181344819Y-75643333D01*
X181344819Y-75643333D02*
X181392438Y-75548095D01*
X181392438Y-75548095D02*
X181440057Y-75500476D01*
X181440057Y-75500476D02*
X181535295Y-75452857D01*
X181535295Y-75452857D02*
X181678152Y-75452857D01*
X181678152Y-75452857D02*
X181773390Y-75500476D01*
X181773390Y-75500476D02*
X181821009Y-75548095D01*
X181821009Y-75548095D02*
X181868628Y-75643333D01*
X181868628Y-75643333D02*
X181868628Y-76024285D01*
X181440057Y-75071904D02*
X181392438Y-75024285D01*
X181392438Y-75024285D02*
X181344819Y-74929047D01*
X181344819Y-74929047D02*
X181344819Y-74690952D01*
X181344819Y-74690952D02*
X181392438Y-74595714D01*
X181392438Y-74595714D02*
X181440057Y-74548095D01*
X181440057Y-74548095D02*
X181535295Y-74500476D01*
X181535295Y-74500476D02*
X181630533Y-74500476D01*
X181630533Y-74500476D02*
X181773390Y-74548095D01*
X181773390Y-74548095D02*
X182344819Y-75119523D01*
X182344819Y-75119523D02*
X182344819Y-74500476D01*
X181344819Y-73643333D02*
X181344819Y-73833809D01*
X181344819Y-73833809D02*
X181392438Y-73929047D01*
X181392438Y-73929047D02*
X181440057Y-73976666D01*
X181440057Y-73976666D02*
X181582914Y-74071904D01*
X181582914Y-74071904D02*
X181773390Y-74119523D01*
X181773390Y-74119523D02*
X182154342Y-74119523D01*
X182154342Y-74119523D02*
X182249580Y-74071904D01*
X182249580Y-74071904D02*
X182297200Y-74024285D01*
X182297200Y-74024285D02*
X182344819Y-73929047D01*
X182344819Y-73929047D02*
X182344819Y-73738571D01*
X182344819Y-73738571D02*
X182297200Y-73643333D01*
X182297200Y-73643333D02*
X182249580Y-73595714D01*
X182249580Y-73595714D02*
X182154342Y-73548095D01*
X182154342Y-73548095D02*
X181916247Y-73548095D01*
X181916247Y-73548095D02*
X181821009Y-73595714D01*
X181821009Y-73595714D02*
X181773390Y-73643333D01*
X181773390Y-73643333D02*
X181725771Y-73738571D01*
X181725771Y-73738571D02*
X181725771Y-73929047D01*
X181725771Y-73929047D02*
X181773390Y-74024285D01*
X181773390Y-74024285D02*
X181821009Y-74071904D01*
X181821009Y-74071904D02*
X181916247Y-74119523D01*
X169274819Y-72869523D02*
X169989104Y-72869523D01*
X169989104Y-72869523D02*
X170131961Y-72917142D01*
X170131961Y-72917142D02*
X170227200Y-73012380D01*
X170227200Y-73012380D02*
X170274819Y-73155237D01*
X170274819Y-73155237D02*
X170274819Y-73250475D01*
X169370057Y-72440951D02*
X169322438Y-72393332D01*
X169322438Y-72393332D02*
X169274819Y-72298094D01*
X169274819Y-72298094D02*
X169274819Y-72059999D01*
X169274819Y-72059999D02*
X169322438Y-71964761D01*
X169322438Y-71964761D02*
X169370057Y-71917142D01*
X169370057Y-71917142D02*
X169465295Y-71869523D01*
X169465295Y-71869523D02*
X169560533Y-71869523D01*
X169560533Y-71869523D02*
X169703390Y-71917142D01*
X169703390Y-71917142D02*
X170274819Y-72488570D01*
X170274819Y-72488570D02*
X170274819Y-71869523D01*
X169274819Y-71250475D02*
X169274819Y-71155237D01*
X169274819Y-71155237D02*
X169322438Y-71059999D01*
X169322438Y-71059999D02*
X169370057Y-71012380D01*
X169370057Y-71012380D02*
X169465295Y-70964761D01*
X169465295Y-70964761D02*
X169655771Y-70917142D01*
X169655771Y-70917142D02*
X169893866Y-70917142D01*
X169893866Y-70917142D02*
X170084342Y-70964761D01*
X170084342Y-70964761D02*
X170179580Y-71012380D01*
X170179580Y-71012380D02*
X170227200Y-71059999D01*
X170227200Y-71059999D02*
X170274819Y-71155237D01*
X170274819Y-71155237D02*
X170274819Y-71250475D01*
X170274819Y-71250475D02*
X170227200Y-71345713D01*
X170227200Y-71345713D02*
X170179580Y-71393332D01*
X170179580Y-71393332D02*
X170084342Y-71440951D01*
X170084342Y-71440951D02*
X169893866Y-71488570D01*
X169893866Y-71488570D02*
X169655771Y-71488570D01*
X169655771Y-71488570D02*
X169465295Y-71440951D01*
X169465295Y-71440951D02*
X169370057Y-71393332D01*
X169370057Y-71393332D02*
X169322438Y-71345713D01*
X169322438Y-71345713D02*
X169274819Y-71250475D01*
X147150057Y-137135238D02*
X147102438Y-137230476D01*
X147102438Y-137230476D02*
X147007200Y-137325714D01*
X147007200Y-137325714D02*
X146864342Y-137468571D01*
X146864342Y-137468571D02*
X146816723Y-137563809D01*
X146816723Y-137563809D02*
X146816723Y-137659047D01*
X147054819Y-137611428D02*
X147007200Y-137706666D01*
X147007200Y-137706666D02*
X146911961Y-137801904D01*
X146911961Y-137801904D02*
X146721485Y-137849523D01*
X146721485Y-137849523D02*
X146388152Y-137849523D01*
X146388152Y-137849523D02*
X146197676Y-137801904D01*
X146197676Y-137801904D02*
X146102438Y-137706666D01*
X146102438Y-137706666D02*
X146054819Y-137611428D01*
X146054819Y-137611428D02*
X146054819Y-137420952D01*
X146054819Y-137420952D02*
X146102438Y-137325714D01*
X146102438Y-137325714D02*
X146197676Y-137230476D01*
X146197676Y-137230476D02*
X146388152Y-137182857D01*
X146388152Y-137182857D02*
X146721485Y-137182857D01*
X146721485Y-137182857D02*
X146911961Y-137230476D01*
X146911961Y-137230476D02*
X147007200Y-137325714D01*
X147007200Y-137325714D02*
X147054819Y-137420952D01*
X147054819Y-137420952D02*
X147054819Y-137611428D01*
X147054819Y-136230476D02*
X147054819Y-136801904D01*
X147054819Y-136516190D02*
X146054819Y-136516190D01*
X146054819Y-136516190D02*
X146197676Y-136611428D01*
X146197676Y-136611428D02*
X146292914Y-136706666D01*
X146292914Y-136706666D02*
X146340533Y-136801904D01*
X200833333Y-108109580D02*
X200785714Y-108157200D01*
X200785714Y-108157200D02*
X200642857Y-108204819D01*
X200642857Y-108204819D02*
X200547619Y-108204819D01*
X200547619Y-108204819D02*
X200404762Y-108157200D01*
X200404762Y-108157200D02*
X200309524Y-108061961D01*
X200309524Y-108061961D02*
X200261905Y-107966723D01*
X200261905Y-107966723D02*
X200214286Y-107776247D01*
X200214286Y-107776247D02*
X200214286Y-107633390D01*
X200214286Y-107633390D02*
X200261905Y-107442914D01*
X200261905Y-107442914D02*
X200309524Y-107347676D01*
X200309524Y-107347676D02*
X200404762Y-107252438D01*
X200404762Y-107252438D02*
X200547619Y-107204819D01*
X200547619Y-107204819D02*
X200642857Y-107204819D01*
X200642857Y-107204819D02*
X200785714Y-107252438D01*
X200785714Y-107252438D02*
X200833333Y-107300057D01*
X201690476Y-107204819D02*
X201500000Y-107204819D01*
X201500000Y-107204819D02*
X201404762Y-107252438D01*
X201404762Y-107252438D02*
X201357143Y-107300057D01*
X201357143Y-107300057D02*
X201261905Y-107442914D01*
X201261905Y-107442914D02*
X201214286Y-107633390D01*
X201214286Y-107633390D02*
X201214286Y-108014342D01*
X201214286Y-108014342D02*
X201261905Y-108109580D01*
X201261905Y-108109580D02*
X201309524Y-108157200D01*
X201309524Y-108157200D02*
X201404762Y-108204819D01*
X201404762Y-108204819D02*
X201595238Y-108204819D01*
X201595238Y-108204819D02*
X201690476Y-108157200D01*
X201690476Y-108157200D02*
X201738095Y-108109580D01*
X201738095Y-108109580D02*
X201785714Y-108014342D01*
X201785714Y-108014342D02*
X201785714Y-107776247D01*
X201785714Y-107776247D02*
X201738095Y-107681009D01*
X201738095Y-107681009D02*
X201690476Y-107633390D01*
X201690476Y-107633390D02*
X201595238Y-107585771D01*
X201595238Y-107585771D02*
X201404762Y-107585771D01*
X201404762Y-107585771D02*
X201309524Y-107633390D01*
X201309524Y-107633390D02*
X201261905Y-107681009D01*
X201261905Y-107681009D02*
X201214286Y-107776247D01*
X234677142Y-127124819D02*
X234343809Y-126648628D01*
X234105714Y-127124819D02*
X234105714Y-126124819D01*
X234105714Y-126124819D02*
X234486666Y-126124819D01*
X234486666Y-126124819D02*
X234581904Y-126172438D01*
X234581904Y-126172438D02*
X234629523Y-126220057D01*
X234629523Y-126220057D02*
X234677142Y-126315295D01*
X234677142Y-126315295D02*
X234677142Y-126458152D01*
X234677142Y-126458152D02*
X234629523Y-126553390D01*
X234629523Y-126553390D02*
X234581904Y-126601009D01*
X234581904Y-126601009D02*
X234486666Y-126648628D01*
X234486666Y-126648628D02*
X234105714Y-126648628D01*
X235058095Y-126220057D02*
X235105714Y-126172438D01*
X235105714Y-126172438D02*
X235200952Y-126124819D01*
X235200952Y-126124819D02*
X235439047Y-126124819D01*
X235439047Y-126124819D02*
X235534285Y-126172438D01*
X235534285Y-126172438D02*
X235581904Y-126220057D01*
X235581904Y-126220057D02*
X235629523Y-126315295D01*
X235629523Y-126315295D02*
X235629523Y-126410533D01*
X235629523Y-126410533D02*
X235581904Y-126553390D01*
X235581904Y-126553390D02*
X235010476Y-127124819D01*
X235010476Y-127124819D02*
X235629523Y-127124819D01*
X235962857Y-126124819D02*
X236629523Y-126124819D01*
X236629523Y-126124819D02*
X236200952Y-127124819D01*
D13*
%TO.C,G\u002A\u002A\u002A*%
G36*
X185341385Y-53056090D02*
G01*
X185341385Y-54093266D01*
X184592228Y-54153463D01*
X184317454Y-54176217D01*
X184060134Y-54198752D01*
X183842524Y-54219032D01*
X183686881Y-54235018D01*
X183640917Y-54240542D01*
X183513404Y-54252033D01*
X183454236Y-54236191D01*
X183438680Y-54185337D01*
X183438570Y-54177719D01*
X183434267Y-54098179D01*
X183422606Y-53942629D01*
X183405235Y-53729761D01*
X183383802Y-53478268D01*
X183359955Y-53206844D01*
X183335339Y-52934182D01*
X183311604Y-52678975D01*
X183290396Y-52459916D01*
X183273364Y-52295698D01*
X183270322Y-52268632D01*
X183241656Y-52018913D01*
X184291520Y-52018913D01*
X185341385Y-52018913D01*
X185341385Y-53056090D01*
G37*
G36*
X186947049Y-52019144D02*
G01*
X187208672Y-52020562D01*
X187398318Y-52024260D01*
X187527563Y-52031330D01*
X187607986Y-52042862D01*
X187651162Y-52059949D01*
X187668669Y-52083682D01*
X187672084Y-52115152D01*
X187672097Y-52119817D01*
X187676297Y-52199348D01*
X187687924Y-52355588D01*
X187705517Y-52570533D01*
X187727617Y-52826175D01*
X187745842Y-53029093D01*
X187769059Y-53295435D01*
X187787183Y-53526932D01*
X187799144Y-53707791D01*
X187803874Y-53822218D01*
X187801797Y-53855255D01*
X187752775Y-53863486D01*
X187625190Y-53878478D01*
X187435246Y-53898691D01*
X187199150Y-53922589D01*
X186933107Y-53948634D01*
X186653321Y-53975287D01*
X186375998Y-54001010D01*
X186117343Y-54024267D01*
X185893562Y-54043518D01*
X185720859Y-54057226D01*
X185615441Y-54063854D01*
X185599721Y-54064232D01*
X185576839Y-54050856D01*
X185559561Y-54003444D01*
X185547159Y-53911067D01*
X185538906Y-53762795D01*
X185534076Y-53547699D01*
X185531939Y-53254850D01*
X185531647Y-53041572D01*
X185531647Y-52018913D01*
X186601872Y-52018913D01*
X186947049Y-52019144D01*
G37*
G36*
X190050374Y-51757303D02*
G01*
X190050374Y-53969101D01*
X189606429Y-53969101D01*
X189409523Y-53965903D01*
X189250063Y-53957326D01*
X189150921Y-53944895D01*
X189130773Y-53937390D01*
X189124288Y-53884761D01*
X189118249Y-53746590D01*
X189112793Y-53532468D01*
X189108058Y-53251984D01*
X189104182Y-52914728D01*
X189101301Y-52530289D01*
X189099554Y-52108256D01*
X189099063Y-51725592D01*
X189099063Y-49545505D01*
X189574718Y-49545505D01*
X190050374Y-49545505D01*
X190050374Y-51757303D01*
G37*
G36*
X193580988Y-49985486D02*
G01*
X193746994Y-50425468D01*
X193171062Y-50449250D01*
X192595130Y-50473033D01*
X192582653Y-52221067D01*
X192570176Y-53969101D01*
X192119475Y-53969101D01*
X191668774Y-53969101D01*
X191656297Y-52221067D01*
X191643820Y-50473033D01*
X190966011Y-50459836D01*
X190288202Y-50446638D01*
X190288202Y-49996072D01*
X190288202Y-49545505D01*
X191851592Y-49545505D01*
X193414983Y-49545505D01*
X193580988Y-49985486D01*
G37*
G36*
X199049929Y-49556910D02*
G01*
X201204494Y-49569288D01*
X201218153Y-50007952D01*
X201231811Y-50446617D01*
X200552235Y-50459825D01*
X199872658Y-50473033D01*
X199860179Y-52222782D01*
X199847700Y-53972531D01*
X199384524Y-53958924D01*
X198921348Y-53945318D01*
X198908870Y-52197284D01*
X198896393Y-50449250D01*
X198213344Y-50449250D01*
X197530296Y-50449250D01*
X196948062Y-52007022D01*
X196808131Y-52380537D01*
X196675225Y-52733645D01*
X196553879Y-53054429D01*
X196448625Y-53330969D01*
X196363994Y-53551346D01*
X196304521Y-53703643D01*
X196278753Y-53766947D01*
X196191678Y-53969101D01*
X195766738Y-53969101D01*
X195514157Y-53961713D01*
X195355524Y-53939551D01*
X195294984Y-53909644D01*
X195269326Y-53854448D01*
X195214747Y-53721011D01*
X195135280Y-53520013D01*
X195034956Y-53262137D01*
X194917808Y-52958064D01*
X194787870Y-52618475D01*
X194649173Y-52254053D01*
X194505749Y-51875479D01*
X194361632Y-51493434D01*
X194220854Y-51118601D01*
X194087447Y-50761660D01*
X193965445Y-50433294D01*
X193858878Y-50144185D01*
X193771781Y-49905013D01*
X193708185Y-49726460D01*
X193672123Y-49619209D01*
X193665355Y-49592950D01*
X193712304Y-49567883D01*
X193852195Y-49554893D01*
X194083596Y-49554091D01*
X194152902Y-49555732D01*
X194640449Y-49569288D01*
X195182330Y-51174625D01*
X195308166Y-51545084D01*
X195425257Y-51885336D01*
X195530003Y-52185257D01*
X195618803Y-52434725D01*
X195688056Y-52623615D01*
X195734163Y-52741806D01*
X195753117Y-52779400D01*
X195774726Y-52735901D01*
X195822601Y-52612764D01*
X195892951Y-52420611D01*
X195981985Y-52170061D01*
X196085909Y-51871735D01*
X196200934Y-51536252D01*
X196275314Y-51316759D01*
X196397656Y-50955141D01*
X196512893Y-50616405D01*
X196616842Y-50312706D01*
X196705318Y-50056197D01*
X196774138Y-49859032D01*
X196819119Y-49733366D01*
X196831985Y-49699607D01*
X196895364Y-49544533D01*
X199049929Y-49556910D01*
G37*
G36*
X201121079Y-53223451D02*
G01*
X201195605Y-53282672D01*
X201225220Y-53405248D01*
X201228276Y-53499497D01*
X201185333Y-53657743D01*
X201074988Y-53788773D01*
X200924971Y-53864949D01*
X200852567Y-53873969D01*
X200712407Y-53841353D01*
X200583172Y-53764566D01*
X200501823Y-53658730D01*
X200453471Y-53526822D01*
X200441773Y-53397890D01*
X200470385Y-53300986D01*
X200520529Y-53266794D01*
X200574842Y-53276898D01*
X200577916Y-53353227D01*
X200575460Y-53366899D01*
X200584505Y-53523851D01*
X200661368Y-53644893D01*
X200783654Y-53712618D01*
X200928974Y-53709619D01*
X200986018Y-53686078D01*
X201054070Y-53614387D01*
X201086841Y-53512841D01*
X201081923Y-53415443D01*
X201036905Y-53356194D01*
X201009778Y-53350748D01*
X200937695Y-53390680D01*
X200909100Y-53445880D01*
X200870603Y-53529941D01*
X200831570Y-53528279D01*
X200804906Y-53449347D01*
X200800187Y-53374531D01*
X200806248Y-53266937D01*
X200842957Y-53219860D01*
X200938097Y-53208319D01*
X200985360Y-53208052D01*
X201121079Y-53223451D01*
G37*
G36*
X200821192Y-52804120D02*
G01*
X200836713Y-52827527D01*
X200931924Y-52903660D01*
X201062200Y-52922659D01*
X201185171Y-52938208D01*
X201228002Y-52987795D01*
X201228276Y-52994007D01*
X201204790Y-53037034D01*
X201122376Y-53059186D01*
X200966666Y-53065355D01*
X200822065Y-53061424D01*
X200724509Y-53051290D01*
X200699110Y-53041572D01*
X200693084Y-52981728D01*
X200687218Y-52875093D01*
X200701498Y-52763340D01*
X200749829Y-52738514D01*
X200821192Y-52804120D01*
G37*
G36*
X201115753Y-52122549D02*
G01*
X201149556Y-52153464D01*
X201223303Y-52287447D01*
X201221546Y-52419063D01*
X201161505Y-52531451D01*
X201060398Y-52607751D01*
X200935444Y-52631103D01*
X200803861Y-52584647D01*
X200752621Y-52542134D01*
X200668986Y-52410723D01*
X200670421Y-52388494D01*
X200807185Y-52388494D01*
X200817388Y-52423220D01*
X200882214Y-52483214D01*
X200935566Y-52494569D01*
X201042036Y-52459961D01*
X201085580Y-52423220D01*
X201120815Y-52347090D01*
X201085580Y-52280524D01*
X200987595Y-52214581D01*
X200889798Y-52220564D01*
X200820294Y-52283519D01*
X200807185Y-52388494D01*
X200670421Y-52388494D01*
X200678049Y-52270305D01*
X200731535Y-52172194D01*
X200842177Y-52087307D01*
X200983007Y-52070187D01*
X201115753Y-52122549D01*
G37*
G36*
X201212074Y-51612252D02*
G01*
X201207582Y-51748660D01*
X201181279Y-51848848D01*
X201172796Y-51861971D01*
X201098623Y-51897313D01*
X200971889Y-51918902D01*
X200833352Y-51924082D01*
X200723771Y-51910202D01*
X200690493Y-51893365D01*
X200674876Y-51838001D01*
X200741181Y-51798295D01*
X200876590Y-51781272D01*
X200895318Y-51781086D01*
X201044689Y-51759366D01*
X201115628Y-51706170D01*
X201110990Y-51639443D01*
X201033628Y-51577133D01*
X200886398Y-51537183D01*
X200856023Y-51534022D01*
X200732341Y-51512436D01*
X200694159Y-51481817D01*
X200733567Y-51451152D01*
X200842657Y-51429426D01*
X200952554Y-51424344D01*
X201200053Y-51424344D01*
X201212074Y-51612252D01*
G37*
G36*
X185341385Y-50758426D02*
G01*
X185341385Y-51781086D01*
X184294943Y-51781086D01*
X183990642Y-51780570D01*
X183720770Y-51779128D01*
X183498975Y-51776912D01*
X183338907Y-51774077D01*
X183254215Y-51770779D01*
X183244334Y-51769194D01*
X183236153Y-51712183D01*
X183222130Y-51580070D01*
X183203804Y-51390609D01*
X183182718Y-51161552D01*
X183160411Y-50910651D01*
X183138425Y-50655659D01*
X183118300Y-50414329D01*
X183101579Y-50204414D01*
X183089800Y-50043666D01*
X183084506Y-49949838D01*
X183084967Y-49933120D01*
X183134478Y-49923856D01*
X183262215Y-49908247D01*
X183451601Y-49887839D01*
X183686058Y-49864177D01*
X183949010Y-49838806D01*
X184223877Y-49813273D01*
X184494084Y-49789121D01*
X184743053Y-49767896D01*
X184954207Y-49751145D01*
X185110968Y-49740411D01*
X185186797Y-49737189D01*
X185341385Y-49735767D01*
X185341385Y-50758426D01*
G37*
G36*
X187420345Y-49563291D02*
G01*
X187430239Y-49614022D01*
X187446648Y-49742946D01*
X187467974Y-49933472D01*
X187492616Y-50169011D01*
X187518977Y-50432970D01*
X187545458Y-50708759D01*
X187570458Y-50979787D01*
X187592380Y-51229463D01*
X187609624Y-51441196D01*
X187620592Y-51598395D01*
X187623775Y-51674063D01*
X187624531Y-51781086D01*
X186609800Y-51781086D01*
X186308267Y-51779661D01*
X186039396Y-51775679D01*
X185817553Y-51769574D01*
X185657105Y-51761781D01*
X185572420Y-51752736D01*
X185563358Y-51749375D01*
X185552397Y-51692915D01*
X185543853Y-51559342D01*
X185537682Y-51365820D01*
X185533837Y-51129508D01*
X185532273Y-50867570D01*
X185532946Y-50597165D01*
X185535810Y-50335456D01*
X185540820Y-50099604D01*
X185547931Y-49906771D01*
X185557097Y-49774118D01*
X185568273Y-49718806D01*
X185568706Y-49718478D01*
X185627908Y-49705972D01*
X185762392Y-49688743D01*
X185954291Y-49668289D01*
X186185739Y-49646106D01*
X186438869Y-49623692D01*
X186695815Y-49602545D01*
X186938710Y-49584161D01*
X187149689Y-49570039D01*
X187310884Y-49561676D01*
X187404430Y-49560569D01*
X187420345Y-49563291D01*
G37*
G36*
X201096279Y-50724241D02*
G01*
X201194410Y-50823427D01*
X201219048Y-50966185D01*
X201219001Y-50966593D01*
X201223915Y-51059726D01*
X201286489Y-51098733D01*
X201335299Y-51106436D01*
X201433129Y-51139539D01*
X201466104Y-51189676D01*
X201445538Y-51225017D01*
X201373197Y-51246210D01*
X201233120Y-51256115D01*
X201085580Y-51257865D01*
X200908133Y-51256492D01*
X200773635Y-51252845D01*
X200704950Y-51247631D01*
X200700620Y-51245973D01*
X200694763Y-51195831D01*
X200685304Y-51083925D01*
X200681294Y-51030870D01*
X200687149Y-50942989D01*
X200807884Y-50942989D01*
X200824795Y-51043404D01*
X200899121Y-51100366D01*
X200998594Y-51102161D01*
X201085580Y-51043820D01*
X201120531Y-50968349D01*
X201083675Y-50898828D01*
X200992205Y-50844084D01*
X200890221Y-50850912D01*
X200818046Y-50912856D01*
X200807884Y-50942989D01*
X200687149Y-50942989D01*
X200693560Y-50846766D01*
X200765551Y-50734491D01*
X200901295Y-50688746D01*
X200942883Y-50687078D01*
X201096279Y-50724241D01*
G37*
G36*
X201510010Y-50064124D02*
G01*
X201551548Y-50118455D01*
X201591325Y-50196847D01*
X201573436Y-50201908D01*
X201512716Y-50138925D01*
X201472233Y-50070902D01*
X201473018Y-50045957D01*
X201510010Y-50064124D01*
G37*
G36*
X202069533Y-50147016D02*
G01*
X202060673Y-50163857D01*
X202015857Y-50209282D01*
X202007494Y-50211423D01*
X202004248Y-50180698D01*
X202013108Y-50163857D01*
X202057925Y-50118432D01*
X202066288Y-50116292D01*
X202069533Y-50147016D01*
G37*
G36*
X201690008Y-49819561D02*
G01*
X201697666Y-49943500D01*
X201689048Y-50009824D01*
X201676190Y-50020943D01*
X201668976Y-49952636D01*
X201668362Y-49902247D01*
X201673045Y-49810132D01*
X201683788Y-49796157D01*
X201690008Y-49819561D01*
G37*
G36*
X201894194Y-50044943D02*
G01*
X201870411Y-50068726D01*
X201846629Y-50044943D01*
X201870411Y-50021160D01*
X201894194Y-50044943D01*
G37*
G36*
X202116167Y-49989450D02*
G01*
X202121859Y-50045899D01*
X202116167Y-50052871D01*
X202087889Y-50046341D01*
X202084456Y-50021160D01*
X202101860Y-49982009D01*
X202116167Y-49989450D01*
G37*
G36*
X201450249Y-49894319D02*
G01*
X201455942Y-49950768D01*
X201450249Y-49957740D01*
X201421971Y-49951210D01*
X201418539Y-49926029D01*
X201435942Y-49886878D01*
X201450249Y-49894319D01*
G37*
G36*
X201890526Y-49765784D02*
G01*
X201897046Y-49771781D01*
X201934685Y-49828941D01*
X201896086Y-49888575D01*
X201880434Y-49902756D01*
X201834736Y-49937848D01*
X201843081Y-49920403D01*
X201867288Y-49833157D01*
X201859694Y-49789428D01*
X201849719Y-49739030D01*
X201890526Y-49765784D01*
G37*
G36*
X201961767Y-49607495D02*
G01*
X202032380Y-49671356D01*
X202102346Y-49760803D01*
X202118291Y-49835973D01*
X202117610Y-49837835D01*
X202095320Y-49876020D01*
X202088211Y-49834644D01*
X202056803Y-49748684D01*
X202002982Y-49668164D01*
X201953080Y-49605959D01*
X201961767Y-49607495D01*
G37*
G36*
X201670954Y-49597326D02*
G01*
X201650463Y-49639731D01*
X201581707Y-49716179D01*
X201575531Y-49722176D01*
X201501609Y-49783151D01*
X201466550Y-49792053D01*
X201466104Y-49789005D01*
X201494676Y-49736391D01*
X201559299Y-49667019D01*
X201628339Y-49610491D01*
X201670161Y-49596407D01*
X201670954Y-49597326D01*
G37*
%TO.C,C8*%
D14*
X204730000Y-54880000D02*
X205067000Y-54880000D01*
X204730000Y-60120000D02*
X204730000Y-54880000D01*
X205067000Y-60120000D02*
X204730000Y-60120000D01*
X207133000Y-54880000D02*
X207470000Y-54880000D01*
X207470000Y-54880000D02*
X207470000Y-60120000D01*
X207470000Y-60120000D02*
X207133000Y-60120000D01*
%TO.C,J33*%
X128620000Y-46620000D02*
X130000000Y-46620000D01*
X128620000Y-48000000D02*
X128620000Y-46620000D01*
X128620000Y-49270000D02*
X128620000Y-62080000D01*
X128620000Y-49270000D02*
X131380000Y-49270000D01*
X128620000Y-62080000D02*
X131380000Y-62080000D01*
X131380000Y-49270000D02*
X131380000Y-62080000D01*
%TO.C,J8*%
D15*
X212900000Y-46625000D02*
X230900000Y-46625000D01*
X212900000Y-59425000D02*
X212900000Y-46625000D01*
X214100000Y-59425000D02*
X212900000Y-59425000D01*
D16*
X215400000Y-62475000D02*
X215400000Y-62475000D01*
X215600000Y-62475000D02*
X215600000Y-62475000D01*
D15*
X230900000Y-46625000D02*
X230900000Y-59425000D01*
X230900000Y-59425000D02*
X229850000Y-59425000D01*
D16*
X215400000Y-62475000D02*
G75*
G02*
X215600000Y-62475000I100000J0D01*
G01*
X215600000Y-62475000D02*
G75*
G02*
X215400000Y-62475000I-100000J0D01*
G01*
%TO.C,J7*%
X233240000Y-89365000D02*
X243150000Y-89365000D01*
X233240000Y-90290000D02*
X233240000Y-89365000D01*
X233240000Y-108215000D02*
X233240000Y-107290000D01*
D15*
X235900000Y-88790000D02*
X235900000Y-88790000D01*
X235900000Y-88890000D02*
X235900000Y-88890000D01*
D16*
X243150000Y-89365000D02*
X243150000Y-108215000D01*
X243150000Y-108215000D02*
X233240000Y-108215000D01*
D15*
X235900000Y-88790000D02*
G75*
G02*
X235900000Y-88890000I0J-50000D01*
G01*
X235900000Y-88890000D02*
G75*
G02*
X235900000Y-88790000I0J50000D01*
G01*
%TO.C,R7*%
D14*
X75090000Y-75660000D02*
X75860000Y-75660000D01*
X83170000Y-75660000D02*
X82400000Y-75660000D01*
X75860000Y-74290000D02*
X82400000Y-74290000D01*
X82400000Y-77030000D01*
X75860000Y-77030000D01*
X75860000Y-74290000D01*
%TO.C,J36*%
D17*
X154550000Y-145050000D02*
X166950000Y-145050000D01*
X154550000Y-150800000D02*
X154550000Y-145050000D01*
X166950000Y-145050000D02*
X166950000Y-150800000D01*
X166950000Y-150800000D02*
X154550000Y-150800000D01*
D16*
X167850000Y-148450000D02*
G75*
G02*
X167650000Y-148450000I-100000J0D01*
G01*
X167650000Y-148450000D02*
G75*
G02*
X167850000Y-148450000I100000J0D01*
G01*
%TO.C,R12*%
D14*
X177450000Y-130540000D02*
X177450000Y-131310000D01*
X177450000Y-138620000D02*
X177450000Y-137850000D01*
X176080000Y-131310000D02*
X178820000Y-131310000D01*
X178820000Y-137850000D01*
X176080000Y-137850000D01*
X176080000Y-131310000D01*
%TO.C,J34*%
X141320000Y-46620000D02*
X142700000Y-46620000D01*
X141320000Y-48000000D02*
X141320000Y-46620000D01*
X141320000Y-49270000D02*
X141320000Y-62080000D01*
X141320000Y-49270000D02*
X144080000Y-49270000D01*
X141320000Y-62080000D02*
X144080000Y-62080000D01*
X144080000Y-49270000D02*
X144080000Y-62080000D01*
%TO.C,J5*%
X135585000Y-75070000D02*
X135585000Y-76320000D01*
X135585000Y-76320000D02*
X136835000Y-76320000D01*
X138135000Y-68420000D02*
X138135000Y-69170000D01*
X138135000Y-69170000D02*
X141085000Y-69170000D01*
X138135000Y-75270000D02*
X141085000Y-75270000D01*
X138135000Y-76020000D02*
X138135000Y-75270000D01*
X141085000Y-69170000D02*
X141085000Y-72220000D01*
X141085000Y-75270000D02*
X141085000Y-72220000D01*
X135875000Y-68410000D02*
X141845000Y-68410000D01*
X141845000Y-76030000D01*
X135875000Y-76030000D01*
X135875000Y-68410000D01*
X135885000Y-68420000D02*
X136635000Y-68420000D01*
X136635000Y-70220000D01*
X135885000Y-70220000D01*
X135885000Y-68420000D01*
X135885000Y-71720000D02*
X136635000Y-71720000D01*
X136635000Y-72720000D01*
X135885000Y-72720000D01*
X135885000Y-71720000D01*
X135885000Y-74220000D02*
X136635000Y-74220000D01*
X136635000Y-76020000D01*
X135885000Y-76020000D01*
X135885000Y-74220000D01*
%TO.C,J6*%
X215750000Y-145950000D02*
X215750000Y-149950000D01*
X216620000Y-144920000D02*
X216620000Y-145520000D01*
X216620000Y-145520000D02*
X218220000Y-145520000D01*
X217420000Y-149940000D02*
X217670000Y-149410000D01*
X217420000Y-149940000D02*
X225040000Y-149940000D01*
X217420000Y-150940000D02*
X217420000Y-149940000D01*
X217670000Y-149410000D02*
X224790000Y-149410000D01*
X217670000Y-150940000D02*
X217670000Y-149940000D01*
X218220000Y-145520000D02*
X218220000Y-144920000D01*
X219160000Y-144920000D02*
X219160000Y-145520000D01*
X219160000Y-145520000D02*
X220760000Y-145520000D01*
X220760000Y-145520000D02*
X220760000Y-144920000D01*
X221700000Y-144920000D02*
X221700000Y-145520000D01*
X221700000Y-145520000D02*
X223300000Y-145520000D01*
X223300000Y-145520000D02*
X223300000Y-144920000D01*
X224240000Y-144920000D02*
X224240000Y-145520000D01*
X224240000Y-145520000D02*
X225840000Y-145520000D01*
X224790000Y-149410000D02*
X225040000Y-149940000D01*
X224790000Y-150940000D02*
X224790000Y-149940000D01*
X225040000Y-149940000D02*
X225040000Y-150940000D01*
X225840000Y-145520000D02*
X225840000Y-144920000D01*
X216040000Y-144920000D02*
X226420000Y-144920000D01*
X226420000Y-150940000D01*
X216040000Y-150940000D01*
X216040000Y-144920000D01*
%TO.C,J22*%
X44650000Y-144700000D02*
X44650000Y-145950000D01*
X44950000Y-147250000D02*
X45700000Y-147250000D01*
X45700000Y-147250000D02*
X45700000Y-150200000D01*
X45700000Y-150200000D02*
X50000000Y-150200000D01*
X45900000Y-144700000D02*
X44650000Y-144700000D01*
X54300000Y-147250000D02*
X54300000Y-150200000D01*
X54300000Y-150200000D02*
X50000000Y-150200000D01*
X55050000Y-147250000D02*
X54300000Y-147250000D01*
X44940000Y-144990000D02*
X55060000Y-144990000D01*
X55060000Y-150960000D01*
X44940000Y-150960000D01*
X44940000Y-144990000D01*
X44950000Y-145000000D02*
X46750000Y-145000000D01*
X46750000Y-145750000D01*
X44950000Y-145750000D01*
X44950000Y-145000000D01*
X48250000Y-145000000D02*
X51750000Y-145000000D01*
X51750000Y-145750000D01*
X48250000Y-145750000D01*
X48250000Y-145000000D01*
X53250000Y-145000000D02*
X55050000Y-145000000D01*
X55050000Y-145750000D01*
X53250000Y-145750000D01*
X53250000Y-145000000D01*
%TO.C,R21*%
X84950000Y-131380000D02*
X84950000Y-132150000D01*
X84950000Y-139460000D02*
X84950000Y-138690000D01*
X83580000Y-132150000D02*
X86320000Y-132150000D01*
X86320000Y-138690000D01*
X83580000Y-138690000D01*
X83580000Y-132150000D01*
%TO.C,R5*%
X64450000Y-74670000D02*
X64450000Y-75440000D01*
X64450000Y-82750000D02*
X64450000Y-81980000D01*
X63080000Y-75440000D02*
X65820000Y-75440000D01*
X65820000Y-81980000D01*
X63080000Y-81980000D01*
X63080000Y-75440000D01*
%TO.C,J26*%
X106150000Y-144725000D02*
X106150000Y-145975000D01*
X106450000Y-147275000D02*
X107200000Y-147275000D01*
X107200000Y-147275000D02*
X107200000Y-150225000D01*
X107200000Y-150225000D02*
X111500000Y-150225000D01*
X107400000Y-144725000D02*
X106150000Y-144725000D01*
X115800000Y-147275000D02*
X115800000Y-150225000D01*
X115800000Y-150225000D02*
X111500000Y-150225000D01*
X116550000Y-147275000D02*
X115800000Y-147275000D01*
X106440000Y-145015000D02*
X116560000Y-145015000D01*
X116560000Y-150985000D01*
X106440000Y-150985000D01*
X106440000Y-145015000D01*
X106450000Y-145025000D02*
X108250000Y-145025000D01*
X108250000Y-145775000D01*
X106450000Y-145775000D01*
X106450000Y-145025000D01*
X109750000Y-145025000D02*
X113250000Y-145025000D01*
X113250000Y-145775000D01*
X109750000Y-145775000D01*
X109750000Y-145025000D01*
X114750000Y-145025000D02*
X116550000Y-145025000D01*
X116550000Y-145775000D01*
X114750000Y-145775000D01*
X114750000Y-145025000D01*
%TO.C,U3*%
D17*
X217680000Y-128920000D02*
X224280000Y-128920000D01*
X217680000Y-129110000D02*
X217680000Y-128920000D01*
X217680000Y-138510000D02*
X217680000Y-138700000D01*
X217680000Y-138700000D02*
X224280000Y-138700000D01*
X224280000Y-128920000D02*
X224280000Y-129110000D01*
X224280000Y-138700000D02*
X224280000Y-138510000D01*
D16*
X215930000Y-130030000D02*
G75*
G02*
X215730000Y-130030000I-100000J0D01*
G01*
X215730000Y-130030000D02*
G75*
G02*
X215930000Y-130030000I100000J0D01*
G01*
%TO.C,R10*%
D14*
X74990000Y-89660000D02*
X75760000Y-89660000D01*
X83070000Y-89660000D02*
X82300000Y-89660000D01*
X75760000Y-88290000D02*
X82300000Y-88290000D01*
X82300000Y-91030000D01*
X75760000Y-91030000D01*
X75760000Y-88290000D01*
%TO.C,Q3*%
X161640000Y-131930000D02*
X166260000Y-131930000D01*
X161640000Y-142150000D02*
X161640000Y-131930000D01*
X164880000Y-131930000D02*
X164880000Y-142150000D01*
X166260000Y-131930000D02*
X166260000Y-142150000D01*
X166260000Y-135190000D02*
X164880000Y-135190000D01*
X166260000Y-138890000D02*
X164880000Y-138890000D01*
X166260000Y-142150000D02*
X161640000Y-142150000D01*
%TO.C,J23*%
X60150000Y-144700000D02*
X60150000Y-145950000D01*
X60450000Y-147250000D02*
X61200000Y-147250000D01*
X61200000Y-147250000D02*
X61200000Y-150200000D01*
X61200000Y-150200000D02*
X65500000Y-150200000D01*
X61400000Y-144700000D02*
X60150000Y-144700000D01*
X69800000Y-147250000D02*
X69800000Y-150200000D01*
X69800000Y-150200000D02*
X65500000Y-150200000D01*
X70550000Y-147250000D02*
X69800000Y-147250000D01*
X60440000Y-144990000D02*
X70560000Y-144990000D01*
X70560000Y-150960000D01*
X60440000Y-150960000D01*
X60440000Y-144990000D01*
X60450000Y-145000000D02*
X62250000Y-145000000D01*
X62250000Y-145750000D01*
X60450000Y-145750000D01*
X60450000Y-145000000D01*
X63750000Y-145000000D02*
X67250000Y-145000000D01*
X67250000Y-145750000D01*
X63750000Y-145750000D01*
X63750000Y-145000000D01*
X68750000Y-145000000D02*
X70550000Y-145000000D01*
X70550000Y-145750000D01*
X68750000Y-145750000D01*
X68750000Y-145000000D01*
%TO.C,J27*%
X122650000Y-144700000D02*
X122650000Y-145950000D01*
X122950000Y-147250000D02*
X123700000Y-147250000D01*
X123700000Y-147250000D02*
X123700000Y-150200000D01*
X123700000Y-150200000D02*
X128000000Y-150200000D01*
X123900000Y-144700000D02*
X122650000Y-144700000D01*
X132300000Y-147250000D02*
X132300000Y-150200000D01*
X132300000Y-150200000D02*
X128000000Y-150200000D01*
X133050000Y-147250000D02*
X132300000Y-147250000D01*
X122940000Y-144990000D02*
X133060000Y-144990000D01*
X133060000Y-150960000D01*
X122940000Y-150960000D01*
X122940000Y-144990000D01*
X122950000Y-145000000D02*
X124750000Y-145000000D01*
X124750000Y-145750000D01*
X122950000Y-145750000D01*
X122950000Y-145000000D01*
X126250000Y-145000000D02*
X129750000Y-145000000D01*
X129750000Y-145750000D01*
X126250000Y-145750000D01*
X126250000Y-145000000D01*
X131250000Y-145000000D02*
X133050000Y-145000000D01*
X133050000Y-145750000D01*
X131250000Y-145750000D01*
X131250000Y-145000000D01*
%TO.C,J13*%
X110400000Y-48225000D02*
X110400000Y-49475000D01*
X110700000Y-50775000D02*
X111450000Y-50775000D01*
X111450000Y-50775000D02*
X111450000Y-53725000D01*
X111450000Y-53725000D02*
X117000000Y-53725000D01*
X111650000Y-48225000D02*
X110400000Y-48225000D01*
X122550000Y-50775000D02*
X122550000Y-53725000D01*
X122550000Y-53725000D02*
X117000000Y-53725000D01*
X123300000Y-50775000D02*
X122550000Y-50775000D01*
X110690000Y-48515000D02*
X123310000Y-48515000D01*
X123310000Y-54485000D01*
X110690000Y-54485000D01*
X110690000Y-48515000D01*
X110700000Y-48525000D02*
X112500000Y-48525000D01*
X112500000Y-49275000D01*
X110700000Y-49275000D01*
X110700000Y-48525000D01*
X114000000Y-48525000D02*
X120000000Y-48525000D01*
X120000000Y-49275000D01*
X114000000Y-49275000D01*
X114000000Y-48525000D01*
X121500000Y-48525000D02*
X123300000Y-48525000D01*
X123300000Y-49275000D01*
X121500000Y-49275000D01*
X121500000Y-48525000D01*
%TO.C,R13*%
X206950000Y-130540000D02*
X206950000Y-131310000D01*
X206950000Y-138620000D02*
X206950000Y-137850000D01*
X205580000Y-131310000D02*
X208320000Y-131310000D01*
X208320000Y-137850000D01*
X205580000Y-137850000D01*
X205580000Y-131310000D01*
%TO.C,R3*%
X71160000Y-59780000D02*
X71160000Y-60550000D01*
X71160000Y-67860000D02*
X71160000Y-67090000D01*
X69790000Y-60550000D02*
X72530000Y-60550000D01*
X72530000Y-67090000D01*
X69790000Y-67090000D01*
X69790000Y-60550000D01*
%TO.C,C3*%
X190330000Y-120710000D02*
X195570000Y-120710000D01*
X190330000Y-121047000D02*
X190330000Y-120710000D01*
X190330000Y-123450000D02*
X190330000Y-123113000D01*
X195570000Y-120710000D02*
X195570000Y-121047000D01*
X195570000Y-123113000D02*
X195570000Y-123450000D01*
X195570000Y-123450000D02*
X190330000Y-123450000D01*
%TO.C,R24*%
X152890000Y-71230000D02*
X153660000Y-71230000D01*
X160970000Y-71230000D02*
X160200000Y-71230000D01*
X153660000Y-69860000D02*
X160200000Y-69860000D01*
X160200000Y-72600000D01*
X153660000Y-72600000D01*
X153660000Y-69860000D01*
%TO.C,J11*%
X236280000Y-110080000D02*
X244320000Y-110080000D01*
X236280000Y-112900000D02*
X236280000Y-110080000D01*
X236280000Y-120820000D02*
X236280000Y-113500000D01*
X238400000Y-110080000D02*
X238400000Y-111320000D01*
X238400000Y-115080000D02*
X238400000Y-117657000D01*
X238400000Y-118743000D02*
X238400000Y-120820000D01*
X239700000Y-110080000D02*
X239700000Y-111320000D01*
X239700000Y-115080000D02*
X239700000Y-116388000D01*
X239700000Y-120012000D02*
X239700000Y-120820000D01*
X240700000Y-110080000D02*
X240700000Y-111320000D01*
X240700000Y-115080000D02*
X240700000Y-116388000D01*
X240700000Y-120012000D02*
X240700000Y-120820000D01*
X244320000Y-110080000D02*
X244320000Y-120820000D01*
X244320000Y-120820000D02*
X236280000Y-120820000D01*
X236280000Y-113200000D02*
X235670000Y-113640000D01*
X235670000Y-112760000D01*
X236280000Y-113200000D01*
G36*
X236280000Y-113200000D02*
G01*
X235670000Y-113640000D01*
X235670000Y-112760000D01*
X236280000Y-113200000D01*
G37*
%TO.C,D1*%
X189420000Y-92000000D02*
X190615000Y-92000000D01*
X192044500Y-89275000D02*
X192044500Y-94725000D01*
X192164500Y-89275000D02*
X192164500Y-94725000D01*
X192284500Y-89275000D02*
X192284500Y-94725000D01*
X201580000Y-92000000D02*
X200385000Y-92000000D01*
X190615000Y-89275000D02*
X200385000Y-89275000D01*
X200385000Y-94725000D01*
X190615000Y-94725000D01*
X190615000Y-89275000D01*
%TO.C,J19*%
X59000000Y-47975000D02*
X62000000Y-47975000D01*
X59000000Y-50975000D02*
X59000000Y-47975000D01*
X59500000Y-48425000D02*
X70550000Y-48425000D01*
X59500000Y-54275000D02*
X59500000Y-48425000D01*
X59500000Y-54275000D02*
X62150000Y-54275000D01*
X62400000Y-54275000D02*
X63000000Y-54275000D01*
X63250000Y-54275000D02*
X66750000Y-54275000D01*
X67000000Y-54275000D02*
X67600000Y-54275000D01*
X67900000Y-54275000D02*
X70550000Y-54275000D01*
X70550000Y-54275000D02*
X70550000Y-48425000D01*
%TO.C,J25*%
X90650000Y-144700000D02*
X90650000Y-145950000D01*
X90950000Y-147250000D02*
X91700000Y-147250000D01*
X91700000Y-147250000D02*
X91700000Y-150200000D01*
X91700000Y-150200000D02*
X96000000Y-150200000D01*
X91900000Y-144700000D02*
X90650000Y-144700000D01*
X100300000Y-147250000D02*
X100300000Y-150200000D01*
X100300000Y-150200000D02*
X96000000Y-150200000D01*
X101050000Y-147250000D02*
X100300000Y-147250000D01*
X90940000Y-144990000D02*
X101060000Y-144990000D01*
X101060000Y-150960000D01*
X90940000Y-150960000D01*
X90940000Y-144990000D01*
X90950000Y-145000000D02*
X92750000Y-145000000D01*
X92750000Y-145750000D01*
X90950000Y-145750000D01*
X90950000Y-145000000D01*
X94250000Y-145000000D02*
X97750000Y-145000000D01*
X97750000Y-145750000D01*
X94250000Y-145750000D01*
X94250000Y-145000000D01*
X99250000Y-145000000D02*
X101050000Y-145000000D01*
X101050000Y-145750000D01*
X99250000Y-145750000D01*
X99250000Y-145000000D01*
%TO.C,J15*%
X93000000Y-47975000D02*
X96000000Y-47975000D01*
X93000000Y-50975000D02*
X93000000Y-47975000D01*
X93500000Y-48425000D02*
X104550000Y-48425000D01*
X93500000Y-54275000D02*
X93500000Y-48425000D01*
X93500000Y-54275000D02*
X96150000Y-54275000D01*
X96400000Y-54275000D02*
X97000000Y-54275000D01*
X97250000Y-54275000D02*
X100750000Y-54275000D01*
X101000000Y-54275000D02*
X101600000Y-54275000D01*
X101900000Y-54275000D02*
X104550000Y-54275000D01*
X104550000Y-54275000D02*
X104550000Y-48425000D01*
%TO.C,R6*%
X60970000Y-82260000D02*
X60970000Y-83030000D01*
X60970000Y-90340000D02*
X60970000Y-89570000D01*
X59600000Y-83030000D02*
X62340000Y-83030000D01*
X62340000Y-89570000D01*
X59600000Y-89570000D01*
X59600000Y-83030000D01*
%TO.C,Q2*%
X152130000Y-131890000D02*
X156750000Y-131890000D01*
X152130000Y-142110000D02*
X152130000Y-131890000D01*
X155370000Y-131890000D02*
X155370000Y-142110000D01*
X156750000Y-131890000D02*
X156750000Y-142110000D01*
X156750000Y-135150000D02*
X155370000Y-135150000D01*
X156750000Y-138850000D02*
X155370000Y-138850000D01*
X156750000Y-142110000D02*
X152130000Y-142110000D01*
%TO.C,C7*%
X239120000Y-74760000D02*
X249280000Y-74760000D01*
X239120000Y-74800000D02*
X249280000Y-74800000D01*
X239121000Y-74680000D02*
X249279000Y-74680000D01*
X239121000Y-74720000D02*
X249279000Y-74720000D01*
X239123000Y-74640000D02*
X249277000Y-74640000D01*
X239124000Y-74600000D02*
X249276000Y-74600000D01*
X239126000Y-74560000D02*
X249274000Y-74560000D01*
X239128000Y-74520000D02*
X249272000Y-74520000D01*
X239130000Y-74480000D02*
X249270000Y-74480000D01*
X239133000Y-74440000D02*
X249267000Y-74440000D01*
X239136000Y-74400000D02*
X249264000Y-74400000D01*
X239139000Y-74360000D02*
X249261000Y-74360000D01*
X239143000Y-74320000D02*
X249257000Y-74320000D01*
X239146000Y-74280000D02*
X249254000Y-74280000D01*
X239151000Y-74240000D02*
X249249000Y-74240000D01*
X239155000Y-74200000D02*
X249245000Y-74200000D01*
X239160000Y-74160000D02*
X249240000Y-74160000D01*
X239165000Y-74120000D02*
X249235000Y-74120000D01*
X239171000Y-74080000D02*
X249229000Y-74080000D01*
X239177000Y-74040000D02*
X249223000Y-74040000D01*
X239183000Y-74000000D02*
X249217000Y-74000000D01*
X239189000Y-73960000D02*
X249211000Y-73960000D01*
X239196000Y-73920000D02*
X249204000Y-73920000D01*
X239203000Y-73880000D02*
X249197000Y-73880000D01*
X239211000Y-73840000D02*
X249189000Y-73840000D01*
X239219000Y-73800000D02*
X249181000Y-73800000D01*
X239227000Y-73760000D02*
X249173000Y-73760000D01*
X239235000Y-73720000D02*
X249165000Y-73720000D01*
X239244000Y-73680000D02*
X249156000Y-73680000D01*
X239253000Y-73640000D02*
X249147000Y-73640000D01*
X239263000Y-73600000D02*
X249137000Y-73600000D01*
X239272000Y-73560000D02*
X249128000Y-73560000D01*
X239283000Y-73520000D02*
X242960000Y-73520000D01*
X239293000Y-73480000D02*
X242960000Y-73480000D01*
X239304000Y-73440000D02*
X242960000Y-73440000D01*
X239315000Y-73400000D02*
X242960000Y-73400000D01*
X239327000Y-73360000D02*
X242960000Y-73360000D01*
X239339000Y-73320000D02*
X242960000Y-73320000D01*
X239351000Y-73280000D02*
X242960000Y-73280000D01*
X239363000Y-73240000D02*
X242960000Y-73240000D01*
X239376000Y-73200000D02*
X242960000Y-73200000D01*
X239390000Y-73160000D02*
X242960000Y-73160000D01*
X239403000Y-73120000D02*
X242960000Y-73120000D01*
X239418000Y-73080000D02*
X242960000Y-73080000D01*
X239432000Y-73040000D02*
X242960000Y-73040000D01*
X239447000Y-73000000D02*
X242960000Y-73000000D01*
X239462000Y-72960000D02*
X242960000Y-72960000D01*
X239478000Y-72920000D02*
X242960000Y-72920000D01*
X239494000Y-72880000D02*
X242960000Y-72880000D01*
X239510000Y-72840000D02*
X242960000Y-72840000D01*
X239527000Y-72800000D02*
X242960000Y-72800000D01*
X239544000Y-72760000D02*
X242960000Y-72760000D01*
X239562000Y-72720000D02*
X242960000Y-72720000D01*
X239580000Y-72680000D02*
X242960000Y-72680000D01*
X239598000Y-72640000D02*
X242960000Y-72640000D01*
X239617000Y-72600000D02*
X242960000Y-72600000D01*
X239636000Y-72560000D02*
X242960000Y-72560000D01*
X239656000Y-72520000D02*
X242960000Y-72520000D01*
X239676000Y-72480000D02*
X242960000Y-72480000D01*
X239696000Y-72440000D02*
X242960000Y-72440000D01*
X239717000Y-72400000D02*
X242960000Y-72400000D01*
X239739000Y-72360000D02*
X242960000Y-72360000D01*
X239761000Y-72320000D02*
X242960000Y-72320000D01*
X239783000Y-72280000D02*
X242960000Y-72280000D01*
X239806000Y-72240000D02*
X242960000Y-72240000D01*
X239829000Y-72200000D02*
X242960000Y-72200000D01*
X239853000Y-72160000D02*
X242960000Y-72160000D01*
X239877000Y-72120000D02*
X242960000Y-72120000D01*
X239902000Y-72080000D02*
X242960000Y-72080000D01*
X239928000Y-72040000D02*
X242960000Y-72040000D01*
X239953000Y-72000000D02*
X242960000Y-72000000D01*
X239980000Y-71960000D02*
X242960000Y-71960000D01*
X240007000Y-71920000D02*
X242960000Y-71920000D01*
X240034000Y-71880000D02*
X242960000Y-71880000D01*
X240062000Y-71840000D02*
X242960000Y-71840000D01*
X240091000Y-71800000D02*
X242960000Y-71800000D01*
X240120000Y-71760000D02*
X242960000Y-71760000D01*
X240150000Y-71720000D02*
X242960000Y-71720000D01*
X240180000Y-71680000D02*
X242960000Y-71680000D01*
X240212000Y-71640000D02*
X242960000Y-71640000D01*
X240243000Y-71600000D02*
X242960000Y-71600000D01*
X240276000Y-71560000D02*
X242960000Y-71560000D01*
X240309000Y-71520000D02*
X242960000Y-71520000D01*
X240342000Y-71480000D02*
X242960000Y-71480000D01*
X240377000Y-71440000D02*
X242960000Y-71440000D01*
X240412000Y-71400000D02*
X242960000Y-71400000D01*
X240448000Y-71360000D02*
X242960000Y-71360000D01*
X240484000Y-71320000D02*
X242960000Y-71320000D01*
X240522000Y-71280000D02*
X242960000Y-71280000D01*
X240560000Y-71240000D02*
X242960000Y-71240000D01*
X240599000Y-71200000D02*
X242960000Y-71200000D01*
X240639000Y-71160000D02*
X242960000Y-71160000D01*
X240680000Y-71120000D02*
X242960000Y-71120000D01*
X240722000Y-71080000D02*
X242960000Y-71080000D01*
X240765000Y-71040000D02*
X247635000Y-71040000D01*
X240809000Y-71000000D02*
X247591000Y-71000000D01*
X240825000Y-79779646D02*
X241825000Y-79779646D01*
X240853000Y-70960000D02*
X247547000Y-70960000D01*
X240899000Y-70920000D02*
X247501000Y-70920000D01*
X240946000Y-70880000D02*
X247454000Y-70880000D01*
X240995000Y-70840000D02*
X247405000Y-70840000D01*
X241044000Y-70800000D02*
X247356000Y-70800000D01*
X241095000Y-70760000D02*
X247305000Y-70760000D01*
X241147000Y-70720000D02*
X247253000Y-70720000D01*
X241200000Y-70680000D02*
X247200000Y-70680000D01*
X241255000Y-70640000D02*
X247145000Y-70640000D01*
X241312000Y-70600000D02*
X247088000Y-70600000D01*
X241325000Y-80279646D02*
X241325000Y-79279646D01*
X241370000Y-70560000D02*
X247030000Y-70560000D01*
X241430000Y-70520000D02*
X246970000Y-70520000D01*
X241492000Y-70480000D02*
X246908000Y-70480000D01*
X241556000Y-70440000D02*
X246844000Y-70440000D01*
X241622000Y-70400000D02*
X246778000Y-70400000D01*
X241690000Y-70360000D02*
X246710000Y-70360000D01*
X241761000Y-70320000D02*
X246639000Y-70320000D01*
X241835000Y-70280000D02*
X246565000Y-70280000D01*
X241912000Y-70240000D02*
X246488000Y-70240000D01*
X241992000Y-70200000D02*
X246408000Y-70200000D01*
X242076000Y-70160000D02*
X246324000Y-70160000D01*
X242163000Y-70120000D02*
X246237000Y-70120000D01*
X242256000Y-70080000D02*
X246144000Y-70080000D01*
X242354000Y-70040000D02*
X246046000Y-70040000D01*
X242458000Y-70000000D02*
X245942000Y-70000000D01*
X242570000Y-69960000D02*
X245830000Y-69960000D01*
X242691000Y-69920000D02*
X245709000Y-69920000D01*
X242823000Y-69880000D02*
X245577000Y-69880000D01*
X242970000Y-69840000D02*
X245430000Y-69840000D01*
X243138000Y-69800000D02*
X245262000Y-69800000D01*
X243338000Y-69760000D02*
X245062000Y-69760000D01*
X243601000Y-69720000D02*
X244799000Y-69720000D01*
X245440000Y-71080000D02*
X247678000Y-71080000D01*
X245440000Y-71120000D02*
X247720000Y-71120000D01*
X245440000Y-71160000D02*
X247761000Y-71160000D01*
X245440000Y-71200000D02*
X247801000Y-71200000D01*
X245440000Y-71240000D02*
X247840000Y-71240000D01*
X245440000Y-71280000D02*
X247878000Y-71280000D01*
X245440000Y-71320000D02*
X247916000Y-71320000D01*
X245440000Y-71360000D02*
X247952000Y-71360000D01*
X245440000Y-71400000D02*
X247988000Y-71400000D01*
X245440000Y-71440000D02*
X248023000Y-71440000D01*
X245440000Y-71480000D02*
X248058000Y-71480000D01*
X245440000Y-71520000D02*
X248091000Y-71520000D01*
X245440000Y-71560000D02*
X248124000Y-71560000D01*
X245440000Y-71600000D02*
X248157000Y-71600000D01*
X245440000Y-71640000D02*
X248188000Y-71640000D01*
X245440000Y-71680000D02*
X248220000Y-71680000D01*
X245440000Y-71720000D02*
X248250000Y-71720000D01*
X245440000Y-71760000D02*
X248280000Y-71760000D01*
X245440000Y-71800000D02*
X248309000Y-71800000D01*
X245440000Y-71840000D02*
X248338000Y-71840000D01*
X245440000Y-71880000D02*
X248366000Y-71880000D01*
X245440000Y-71920000D02*
X248393000Y-71920000D01*
X245440000Y-71960000D02*
X248420000Y-71960000D01*
X245440000Y-72000000D02*
X248447000Y-72000000D01*
X245440000Y-72040000D02*
X248472000Y-72040000D01*
X245440000Y-72080000D02*
X248498000Y-72080000D01*
X245440000Y-72120000D02*
X248523000Y-72120000D01*
X245440000Y-72160000D02*
X248547000Y-72160000D01*
X245440000Y-72200000D02*
X248571000Y-72200000D01*
X245440000Y-72240000D02*
X248594000Y-72240000D01*
X245440000Y-72280000D02*
X248617000Y-72280000D01*
X245440000Y-72320000D02*
X248639000Y-72320000D01*
X245440000Y-72360000D02*
X248661000Y-72360000D01*
X245440000Y-72400000D02*
X248683000Y-72400000D01*
X245440000Y-72440000D02*
X248704000Y-72440000D01*
X245440000Y-72480000D02*
X248724000Y-72480000D01*
X245440000Y-72520000D02*
X248744000Y-72520000D01*
X245440000Y-72560000D02*
X248764000Y-72560000D01*
X245440000Y-72600000D02*
X248783000Y-72600000D01*
X245440000Y-72640000D02*
X248802000Y-72640000D01*
X245440000Y-72680000D02*
X248820000Y-72680000D01*
X245440000Y-72720000D02*
X248838000Y-72720000D01*
X245440000Y-72760000D02*
X248856000Y-72760000D01*
X245440000Y-72800000D02*
X248873000Y-72800000D01*
X245440000Y-72840000D02*
X248890000Y-72840000D01*
X245440000Y-72880000D02*
X248906000Y-72880000D01*
X245440000Y-72920000D02*
X248922000Y-72920000D01*
X245440000Y-72960000D02*
X248938000Y-72960000D01*
X245440000Y-73000000D02*
X248953000Y-73000000D01*
X245440000Y-73040000D02*
X248968000Y-73040000D01*
X245440000Y-73080000D02*
X248982000Y-73080000D01*
X245440000Y-73120000D02*
X248997000Y-73120000D01*
X245440000Y-73160000D02*
X249010000Y-73160000D01*
X245440000Y-73200000D02*
X249024000Y-73200000D01*
X245440000Y-73240000D02*
X249037000Y-73240000D01*
X245440000Y-73280000D02*
X249049000Y-73280000D01*
X245440000Y-73320000D02*
X249061000Y-73320000D01*
X245440000Y-73360000D02*
X249073000Y-73360000D01*
X245440000Y-73400000D02*
X249085000Y-73400000D01*
X245440000Y-73440000D02*
X249096000Y-73440000D01*
X245440000Y-73480000D02*
X249107000Y-73480000D01*
X245440000Y-73520000D02*
X249117000Y-73520000D01*
X249320000Y-74800000D02*
G75*
G02*
X239080000Y-74800000I-5120000J0D01*
G01*
X239080000Y-74800000D02*
G75*
G02*
X249320000Y-74800000I5120000J0D01*
G01*
%TO.C,R1*%
X55950000Y-131380000D02*
X55950000Y-132150000D01*
X55950000Y-139460000D02*
X55950000Y-138690000D01*
X54580000Y-132150000D02*
X57320000Y-132150000D01*
X57320000Y-138690000D01*
X54580000Y-138690000D01*
X54580000Y-132150000D01*
%TO.C,J17*%
X75650000Y-48225000D02*
X75650000Y-49475000D01*
X75950000Y-50775000D02*
X76700000Y-50775000D01*
X76700000Y-50775000D02*
X76700000Y-53725000D01*
X76700000Y-53725000D02*
X82250000Y-53725000D01*
X76900000Y-48225000D02*
X75650000Y-48225000D01*
X87800000Y-50775000D02*
X87800000Y-53725000D01*
X87800000Y-53725000D02*
X82250000Y-53725000D01*
X88550000Y-50775000D02*
X87800000Y-50775000D01*
X75940000Y-48515000D02*
X88560000Y-48515000D01*
X88560000Y-54485000D01*
X75940000Y-54485000D01*
X75940000Y-48515000D01*
X75950000Y-48525000D02*
X77750000Y-48525000D01*
X77750000Y-49275000D01*
X75950000Y-49275000D01*
X75950000Y-48525000D01*
X79250000Y-48525000D02*
X85250000Y-48525000D01*
X85250000Y-49275000D01*
X79250000Y-49275000D01*
X79250000Y-48525000D01*
X86750000Y-48525000D02*
X88550000Y-48525000D01*
X88550000Y-49275000D01*
X86750000Y-49275000D01*
X86750000Y-48525000D01*
%TO.C,R19*%
X153500000Y-120960000D02*
X153500000Y-121730000D01*
X153500000Y-129040000D02*
X153500000Y-128270000D01*
X152130000Y-121730000D02*
X154870000Y-121730000D01*
X154870000Y-128270000D01*
X152130000Y-128270000D01*
X152130000Y-121730000D01*
%TO.C,R9*%
X74990000Y-85330000D02*
X75760000Y-85330000D01*
X83070000Y-85330000D02*
X82300000Y-85330000D01*
X75760000Y-83960000D02*
X82300000Y-83960000D01*
X82300000Y-86700000D01*
X75760000Y-86700000D01*
X75760000Y-83960000D01*
%TO.C,R2*%
X60000000Y-131380000D02*
X60000000Y-132150000D01*
X60000000Y-139460000D02*
X60000000Y-138690000D01*
X58630000Y-132150000D02*
X61370000Y-132150000D01*
X61370000Y-138690000D01*
X58630000Y-138690000D01*
X58630000Y-132150000D01*
%TO.C,J4*%
X201210000Y-145950000D02*
X201210000Y-149950000D01*
X202080000Y-144920000D02*
X202080000Y-145520000D01*
X202080000Y-145520000D02*
X203680000Y-145520000D01*
X202880000Y-149940000D02*
X203130000Y-149410000D01*
X202880000Y-149940000D02*
X210500000Y-149940000D01*
X202880000Y-150940000D02*
X202880000Y-149940000D01*
X203130000Y-149410000D02*
X210250000Y-149410000D01*
X203130000Y-150940000D02*
X203130000Y-149940000D01*
X203680000Y-145520000D02*
X203680000Y-144920000D01*
X204620000Y-144920000D02*
X204620000Y-145520000D01*
X204620000Y-145520000D02*
X206220000Y-145520000D01*
X206220000Y-145520000D02*
X206220000Y-144920000D01*
X207160000Y-144920000D02*
X207160000Y-145520000D01*
X207160000Y-145520000D02*
X208760000Y-145520000D01*
X208760000Y-145520000D02*
X208760000Y-144920000D01*
X209700000Y-144920000D02*
X209700000Y-145520000D01*
X209700000Y-145520000D02*
X211300000Y-145520000D01*
X210250000Y-149410000D02*
X210500000Y-149940000D01*
X210250000Y-150940000D02*
X210250000Y-149940000D01*
X210500000Y-149940000D02*
X210500000Y-150940000D01*
X211300000Y-145520000D02*
X211300000Y-144920000D01*
X201500000Y-144920000D02*
X211880000Y-144920000D01*
X211880000Y-150940000D01*
X201500000Y-150940000D01*
X201500000Y-144920000D01*
%TO.C,U2*%
D17*
X189620000Y-129420000D02*
X196220000Y-129420000D01*
X189620000Y-129610000D02*
X189620000Y-129420000D01*
X189620000Y-139010000D02*
X189620000Y-139200000D01*
X189620000Y-139200000D02*
X196220000Y-139200000D01*
X196220000Y-129420000D02*
X196220000Y-129610000D01*
X196220000Y-139200000D02*
X196220000Y-139010000D01*
D16*
X187870000Y-130530000D02*
G75*
G02*
X187670000Y-130530000I-100000J0D01*
G01*
X187670000Y-130530000D02*
G75*
G02*
X187870000Y-130530000I100000J0D01*
G01*
%TO.C,C10*%
D14*
X158940000Y-97020000D02*
X164180000Y-97020000D01*
X158940000Y-97357000D02*
X158940000Y-97020000D01*
X158940000Y-99760000D02*
X158940000Y-99423000D01*
X164180000Y-97020000D02*
X164180000Y-97357000D01*
X164180000Y-99423000D02*
X164180000Y-99760000D01*
X164180000Y-99760000D02*
X158940000Y-99760000D01*
%TO.C,R23*%
X147820000Y-72330000D02*
X147820000Y-73100000D01*
X147820000Y-80410000D02*
X147820000Y-79640000D01*
X146450000Y-73100000D02*
X149190000Y-73100000D01*
X149190000Y-79640000D01*
X146450000Y-79640000D01*
X146450000Y-73100000D01*
%TO.C,R18*%
X172000000Y-106380000D02*
X172000000Y-107150000D01*
X172000000Y-114460000D02*
X172000000Y-113690000D01*
X170630000Y-107150000D02*
X173370000Y-107150000D01*
X173370000Y-113690000D01*
X170630000Y-113690000D01*
X170630000Y-107150000D01*
%TO.C,C9*%
X140440000Y-96940000D02*
X145680000Y-96940000D01*
X140440000Y-97277000D02*
X140440000Y-96940000D01*
X140440000Y-99680000D02*
X140440000Y-99343000D01*
X145680000Y-96940000D02*
X145680000Y-97277000D01*
X145680000Y-99343000D02*
X145680000Y-99680000D01*
X145680000Y-99680000D02*
X140440000Y-99680000D01*
%TO.C,J10*%
X41880000Y-66600000D02*
X43260000Y-66600000D01*
X41880000Y-67980000D02*
X41880000Y-66600000D01*
X41880000Y-69250000D02*
X41880000Y-117620000D01*
X41880000Y-69250000D02*
X44530000Y-69250000D01*
X41880000Y-117620000D02*
X47180000Y-117620000D01*
X44530000Y-66600000D02*
X47180000Y-66600000D01*
X44530000Y-69250000D02*
X44530000Y-66600000D01*
X47180000Y-66600000D02*
X47180000Y-117620000D01*
%TO.C,U5*%
D17*
X158260000Y-106000000D02*
X164860000Y-106000000D01*
X158260000Y-106190000D02*
X158260000Y-106000000D01*
X158260000Y-115590000D02*
X158260000Y-115780000D01*
X158260000Y-115780000D02*
X164860000Y-115780000D01*
X164860000Y-106000000D02*
X164860000Y-106190000D01*
X164860000Y-115780000D02*
X164860000Y-115590000D01*
D16*
X156510000Y-107110000D02*
G75*
G02*
X156310000Y-107110000I-100000J0D01*
G01*
X156310000Y-107110000D02*
G75*
G02*
X156510000Y-107110000I100000J0D01*
G01*
%TO.C,C5*%
D14*
X208880000Y-98630000D02*
X209217000Y-98630000D01*
X208880000Y-103870000D02*
X208880000Y-98630000D01*
X209217000Y-103870000D02*
X208880000Y-103870000D01*
X211283000Y-98630000D02*
X211620000Y-98630000D01*
X211620000Y-98630000D02*
X211620000Y-103870000D01*
X211620000Y-103870000D02*
X211283000Y-103870000D01*
%TO.C,J24*%
X75250000Y-144700000D02*
X75250000Y-145950000D01*
X75550000Y-147250000D02*
X76300000Y-147250000D01*
X76300000Y-147250000D02*
X76300000Y-150200000D01*
X76300000Y-150200000D02*
X80600000Y-150200000D01*
X76500000Y-144700000D02*
X75250000Y-144700000D01*
X84900000Y-147250000D02*
X84900000Y-150200000D01*
X84900000Y-150200000D02*
X80600000Y-150200000D01*
X85650000Y-147250000D02*
X84900000Y-147250000D01*
X75540000Y-144990000D02*
X85660000Y-144990000D01*
X85660000Y-150960000D01*
X75540000Y-150960000D01*
X75540000Y-144990000D01*
X75550000Y-145000000D02*
X77350000Y-145000000D01*
X77350000Y-145750000D01*
X75550000Y-145750000D01*
X75550000Y-145000000D01*
X78850000Y-145000000D02*
X82350000Y-145000000D01*
X82350000Y-145750000D01*
X78850000Y-145750000D01*
X78850000Y-145000000D01*
X83850000Y-145000000D02*
X85650000Y-145000000D01*
X85650000Y-145750000D01*
X83850000Y-145750000D01*
X83850000Y-145000000D01*
%TO.C,R8*%
X75060000Y-80510000D02*
X75830000Y-80510000D01*
X83140000Y-80510000D02*
X82370000Y-80510000D01*
X75830000Y-79140000D02*
X82370000Y-79140000D01*
X82370000Y-81880000D01*
X75830000Y-81880000D01*
X75830000Y-79140000D01*
%TO.C,J1*%
X42840000Y-53490000D02*
X42840000Y-52110000D01*
X44220000Y-53490000D02*
X42840000Y-53490000D01*
X45490000Y-50730000D02*
X55760000Y-50730000D01*
X45490000Y-53490000D02*
X45490000Y-50730000D01*
X45490000Y-53490000D02*
X55760000Y-53490000D01*
X55760000Y-53490000D02*
X55760000Y-50730000D01*
%TO.C,C4*%
X218330000Y-120710000D02*
X223570000Y-120710000D01*
X218330000Y-121047000D02*
X218330000Y-120710000D01*
X218330000Y-123450000D02*
X218330000Y-123113000D01*
X223570000Y-120710000D02*
X223570000Y-121047000D01*
X223570000Y-123113000D02*
X223570000Y-123450000D01*
X223570000Y-123450000D02*
X218330000Y-123450000D01*
%TO.C,R14*%
X211000000Y-130540000D02*
X211000000Y-131310000D01*
X211000000Y-138620000D02*
X211000000Y-137850000D01*
X209630000Y-131310000D02*
X212370000Y-131310000D01*
X212370000Y-137850000D01*
X209630000Y-137850000D01*
X209630000Y-131310000D01*
%TO.C,R22*%
X89000000Y-131380000D02*
X89000000Y-132150000D01*
X89000000Y-139460000D02*
X89000000Y-138690000D01*
X87630000Y-132150000D02*
X90370000Y-132150000D01*
X90370000Y-138690000D01*
X87630000Y-138690000D01*
X87630000Y-132150000D01*
%TO.C,J9*%
X149650000Y-48250000D02*
X149650000Y-49500000D01*
X149950000Y-50800000D02*
X150700000Y-50800000D01*
X150700000Y-50800000D02*
X150700000Y-53750000D01*
X150700000Y-53750000D02*
X156250000Y-53750000D01*
X150900000Y-48250000D02*
X149650000Y-48250000D01*
X161800000Y-50800000D02*
X161800000Y-53750000D01*
X161800000Y-53750000D02*
X156250000Y-53750000D01*
X162550000Y-50800000D02*
X161800000Y-50800000D01*
X149940000Y-48540000D02*
X162560000Y-48540000D01*
X162560000Y-54510000D01*
X149940000Y-54510000D01*
X149940000Y-48540000D01*
X149950000Y-48550000D02*
X151750000Y-48550000D01*
X151750000Y-49300000D01*
X149950000Y-49300000D01*
X149950000Y-48550000D01*
X153250000Y-48550000D02*
X159250000Y-48550000D01*
X159250000Y-49300000D01*
X153250000Y-49300000D01*
X153250000Y-48550000D01*
X160750000Y-48550000D02*
X162550000Y-48550000D01*
X162550000Y-49300000D01*
X160750000Y-49300000D01*
X160750000Y-48550000D01*
%TO.C,J21*%
X56870000Y-98260000D02*
X58250000Y-98260000D01*
X56870000Y-99640000D02*
X56870000Y-98260000D01*
X56870000Y-100910000D02*
X56870000Y-123880000D01*
X56870000Y-100910000D02*
X59630000Y-100910000D01*
X56870000Y-123880000D02*
X59630000Y-123880000D01*
X59630000Y-100910000D02*
X59630000Y-123880000D01*
%TO.C,U4*%
D17*
X139730000Y-105920000D02*
X146330000Y-105920000D01*
X139730000Y-106110000D02*
X139730000Y-105920000D01*
X139730000Y-115510000D02*
X139730000Y-115700000D01*
X139730000Y-115700000D02*
X146330000Y-115700000D01*
X146330000Y-105920000D02*
X146330000Y-106110000D01*
X146330000Y-115700000D02*
X146330000Y-115510000D01*
D16*
X137980000Y-107030000D02*
G75*
G02*
X137780000Y-107030000I-100000J0D01*
G01*
X137780000Y-107030000D02*
G75*
G02*
X137980000Y-107030000I100000J0D01*
G01*
%TO.C,J35*%
D17*
X138050000Y-145050000D02*
X150450000Y-145050000D01*
X138050000Y-150800000D02*
X138050000Y-145050000D01*
X150450000Y-145050000D02*
X150450000Y-150800000D01*
X150450000Y-150800000D02*
X138050000Y-150800000D01*
D16*
X151350000Y-148450000D02*
G75*
G02*
X151150000Y-148450000I-100000J0D01*
G01*
X151150000Y-148450000D02*
G75*
G02*
X151350000Y-148450000I100000J0D01*
G01*
%TO.C,J18*%
D14*
X167000000Y-48000000D02*
X170000000Y-48000000D01*
X167000000Y-51000000D02*
X167000000Y-48000000D01*
X167500000Y-48450000D02*
X178550000Y-48450000D01*
X167500000Y-54300000D02*
X167500000Y-48450000D01*
X167500000Y-54300000D02*
X170150000Y-54300000D01*
X170400000Y-54300000D02*
X171000000Y-54300000D01*
X171250000Y-54300000D02*
X174750000Y-54300000D01*
X175000000Y-54300000D02*
X175600000Y-54300000D01*
X175900000Y-54300000D02*
X178550000Y-54300000D01*
X178550000Y-54300000D02*
X178550000Y-48450000D01*
%TO.C,R17*%
X142500000Y-120960000D02*
X142500000Y-121730000D01*
X142500000Y-129040000D02*
X142500000Y-128270000D01*
X141130000Y-121730000D02*
X143870000Y-121730000D01*
X143870000Y-128270000D01*
X141130000Y-128270000D01*
X141130000Y-121730000D01*
%TO.C,U1*%
D17*
X88330000Y-117845000D02*
X88330000Y-71585000D01*
X89330000Y-70585000D02*
X93300000Y-70585000D01*
X89330000Y-118845000D02*
X98250000Y-118845000D01*
X93300000Y-63845000D02*
X111300000Y-63845000D01*
X93300000Y-70585000D02*
X93300000Y-63845000D01*
X98250000Y-118845000D02*
X98250000Y-119845000D01*
X98250000Y-119845000D02*
X106350000Y-119845000D01*
X106350000Y-118845000D02*
X115270000Y-118845000D01*
X106350000Y-119845000D02*
X106350000Y-118845000D01*
X111300000Y-63845000D02*
X111300000Y-70585000D01*
X111300000Y-70585000D02*
X115270000Y-70585000D01*
X116270000Y-117845000D02*
X116270000Y-71585000D01*
X88330000Y-71585000D02*
G75*
G02*
X89330000Y-70585000I999999J1D01*
G01*
X89330000Y-118845000D02*
G75*
G02*
X88330000Y-117845000I-1J999999D01*
G01*
X115270000Y-70585000D02*
G75*
G02*
X116270000Y-71585000I0J-1000000D01*
G01*
X116270000Y-117845000D02*
G75*
G02*
X115270000Y-118845000I-1000000J0D01*
G01*
D16*
X87900000Y-71880000D02*
G75*
G02*
X87700000Y-71880000I-100000J0D01*
G01*
X87700000Y-71880000D02*
G75*
G02*
X87900000Y-71880000I100000J0D01*
G01*
%TO.C,R16*%
D14*
X127060000Y-106770000D02*
X127060000Y-107540000D01*
X127060000Y-114850000D02*
X127060000Y-114080000D01*
X125690000Y-107540000D02*
X128430000Y-107540000D01*
X128430000Y-114080000D01*
X125690000Y-114080000D01*
X125690000Y-107540000D01*
%TO.C,R25*%
X189810000Y-70110000D02*
X190580000Y-70110000D01*
X197890000Y-70110000D02*
X197120000Y-70110000D01*
X190580000Y-68740000D02*
X197120000Y-68740000D01*
X197120000Y-71480000D01*
X190580000Y-71480000D01*
X190580000Y-68740000D01*
%TO.C,R20*%
X163000000Y-121040000D02*
X163000000Y-121810000D01*
X163000000Y-129120000D02*
X163000000Y-128350000D01*
X161630000Y-121810000D02*
X164370000Y-121810000D01*
X164370000Y-128350000D01*
X161630000Y-128350000D01*
X161630000Y-121810000D01*
%TO.C,J3*%
X186710000Y-145950000D02*
X186710000Y-149950000D01*
X187580000Y-144920000D02*
X187580000Y-145520000D01*
X187580000Y-145520000D02*
X189180000Y-145520000D01*
X188380000Y-149940000D02*
X188630000Y-149410000D01*
X188380000Y-149940000D02*
X196000000Y-149940000D01*
X188380000Y-150940000D02*
X188380000Y-149940000D01*
X188630000Y-149410000D02*
X195750000Y-149410000D01*
X188630000Y-150940000D02*
X188630000Y-149940000D01*
X189180000Y-145520000D02*
X189180000Y-144920000D01*
X190120000Y-144920000D02*
X190120000Y-145520000D01*
X190120000Y-145520000D02*
X191720000Y-145520000D01*
X191720000Y-145520000D02*
X191720000Y-144920000D01*
X192660000Y-144920000D02*
X192660000Y-145520000D01*
X192660000Y-145520000D02*
X194260000Y-145520000D01*
X194260000Y-145520000D02*
X194260000Y-144920000D01*
X195200000Y-144920000D02*
X195200000Y-145520000D01*
X195200000Y-145520000D02*
X196800000Y-145520000D01*
X195750000Y-149410000D02*
X196000000Y-149940000D01*
X195750000Y-150940000D02*
X195750000Y-149940000D01*
X196000000Y-149940000D02*
X196000000Y-150940000D01*
X196800000Y-145520000D02*
X196800000Y-144920000D01*
X187000000Y-144920000D02*
X197380000Y-144920000D01*
X197380000Y-150940000D01*
X187000000Y-150940000D01*
X187000000Y-144920000D01*
%TO.C,R11*%
X181500000Y-130540000D02*
X181500000Y-131310000D01*
X181500000Y-138620000D02*
X181500000Y-137850000D01*
X180130000Y-131310000D02*
X182870000Y-131310000D01*
X182870000Y-137850000D01*
X180130000Y-137850000D01*
X180130000Y-131310000D01*
%TO.C,R15*%
X131110000Y-106770000D02*
X131110000Y-107540000D01*
X131110000Y-114850000D02*
X131110000Y-114080000D01*
X129740000Y-107540000D02*
X132480000Y-107540000D01*
X132480000Y-114080000D01*
X129740000Y-114080000D01*
X129740000Y-107540000D01*
%TO.C,F4*%
X211190000Y-69190000D02*
X211190000Y-72350000D01*
X211190000Y-75850000D02*
X211190000Y-79010000D01*
X233910000Y-69190000D02*
X211190000Y-69190000D01*
X233910000Y-69190000D02*
X233910000Y-72350000D01*
X233910000Y-75850000D02*
X233910000Y-79010000D01*
X233910000Y-79010000D02*
X211190000Y-79010000D01*
%TO.C,F3*%
X206630000Y-88880000D02*
X206630000Y-95120000D01*
X206630000Y-88880000D02*
X226870000Y-88880000D01*
X207150000Y-89500000D02*
X226350000Y-89500000D01*
X207150000Y-94500000D02*
X207150000Y-89500000D01*
X226350000Y-89500000D02*
X226350000Y-94500000D01*
X226350000Y-94500000D02*
X207150000Y-94500000D01*
X226870000Y-95120000D02*
X206630000Y-95120000D01*
X226870000Y-95120000D02*
X226870000Y-88880000D01*
%TO.C,R4*%
X67840000Y-67170000D02*
X67840000Y-67940000D01*
X67840000Y-75250000D02*
X67840000Y-74480000D01*
X66470000Y-67940000D02*
X69210000Y-67940000D01*
X69210000Y-74480000D01*
X66470000Y-74480000D01*
X66470000Y-67940000D01*
%TO.C,J2*%
X172210000Y-145950000D02*
X172210000Y-149950000D01*
X173080000Y-144920000D02*
X173080000Y-145520000D01*
X173080000Y-145520000D02*
X174680000Y-145520000D01*
X173880000Y-149940000D02*
X174130000Y-149410000D01*
X173880000Y-149940000D02*
X181500000Y-149940000D01*
X173880000Y-150940000D02*
X173880000Y-149940000D01*
X174130000Y-149410000D02*
X181250000Y-149410000D01*
X174130000Y-150940000D02*
X174130000Y-149940000D01*
X174680000Y-145520000D02*
X174680000Y-144920000D01*
X175620000Y-144920000D02*
X175620000Y-145520000D01*
X175620000Y-145520000D02*
X177220000Y-145520000D01*
X177220000Y-145520000D02*
X177220000Y-144920000D01*
X178160000Y-144920000D02*
X178160000Y-145520000D01*
X178160000Y-145520000D02*
X179760000Y-145520000D01*
X179760000Y-145520000D02*
X179760000Y-144920000D01*
X180700000Y-144920000D02*
X180700000Y-145520000D01*
X180700000Y-145520000D02*
X182300000Y-145520000D01*
X181250000Y-149410000D02*
X181500000Y-149940000D01*
X181250000Y-150940000D02*
X181250000Y-149940000D01*
X181500000Y-149940000D02*
X181500000Y-150940000D01*
X182300000Y-145520000D02*
X182300000Y-144920000D01*
X172500000Y-144920000D02*
X182880000Y-144920000D01*
X182880000Y-150940000D01*
X172500000Y-150940000D01*
X172500000Y-144920000D01*
%TO.C,R26*%
X184260000Y-70770000D02*
X184260000Y-71540000D01*
X184260000Y-78850000D02*
X184260000Y-78080000D01*
X182890000Y-71540000D02*
X185630000Y-71540000D01*
X185630000Y-78080000D01*
X182890000Y-78080000D01*
X182890000Y-71540000D01*
%TO.C,J20*%
X170620000Y-74910000D02*
X170620000Y-76160000D01*
X170620000Y-76160000D02*
X171870000Y-76160000D01*
X173170000Y-68260000D02*
X173170000Y-69010000D01*
X173170000Y-69010000D02*
X176120000Y-69010000D01*
X173170000Y-75110000D02*
X176120000Y-75110000D01*
X173170000Y-75860000D02*
X173170000Y-75110000D01*
X176120000Y-69010000D02*
X176120000Y-72060000D01*
X176120000Y-75110000D02*
X176120000Y-72060000D01*
X170910000Y-68250000D02*
X176880000Y-68250000D01*
X176880000Y-75870000D01*
X170910000Y-75870000D01*
X170910000Y-68250000D01*
X170920000Y-68260000D02*
X171670000Y-68260000D01*
X171670000Y-70060000D01*
X170920000Y-70060000D01*
X170920000Y-68260000D01*
X170920000Y-71560000D02*
X171670000Y-71560000D01*
X171670000Y-72560000D01*
X170920000Y-72560000D01*
X170920000Y-71560000D01*
X170920000Y-74060000D02*
X171670000Y-74060000D01*
X171670000Y-75860000D01*
X170920000Y-75860000D01*
X170920000Y-74060000D01*
%TO.C,Q1*%
X141140000Y-131930000D02*
X145760000Y-131930000D01*
X141140000Y-142150000D02*
X141140000Y-131930000D01*
X144380000Y-131930000D02*
X144380000Y-142150000D01*
X145760000Y-131930000D02*
X145760000Y-142150000D01*
X145760000Y-135190000D02*
X144380000Y-135190000D01*
X145760000Y-138890000D02*
X144380000Y-138890000D01*
X145760000Y-142150000D02*
X141140000Y-142150000D01*
%TO.C,C6*%
X195920000Y-102099000D02*
X195920000Y-100901000D01*
X195960000Y-102362000D02*
X195960000Y-100638000D01*
X196000000Y-102562000D02*
X196000000Y-100438000D01*
X196040000Y-102730000D02*
X196040000Y-100270000D01*
X196080000Y-102877000D02*
X196080000Y-100123000D01*
X196120000Y-103009000D02*
X196120000Y-99991000D01*
X196160000Y-103130000D02*
X196160000Y-99870000D01*
X196200000Y-103242000D02*
X196200000Y-99758000D01*
X196240000Y-103346000D02*
X196240000Y-99654000D01*
X196280000Y-103444000D02*
X196280000Y-99556000D01*
X196320000Y-103537000D02*
X196320000Y-99463000D01*
X196360000Y-103624000D02*
X196360000Y-99376000D01*
X196400000Y-103708000D02*
X196400000Y-99292000D01*
X196440000Y-103788000D02*
X196440000Y-99212000D01*
X196480000Y-103865000D02*
X196480000Y-99135000D01*
X196520000Y-103939000D02*
X196520000Y-99061000D01*
X196560000Y-104010000D02*
X196560000Y-98990000D01*
X196600000Y-104078000D02*
X196600000Y-98922000D01*
X196640000Y-104144000D02*
X196640000Y-98856000D01*
X196680000Y-104208000D02*
X196680000Y-98792000D01*
X196720000Y-104270000D02*
X196720000Y-98730000D01*
X196760000Y-104330000D02*
X196760000Y-98670000D01*
X196800000Y-104388000D02*
X196800000Y-98612000D01*
X196840000Y-104445000D02*
X196840000Y-98555000D01*
X196880000Y-104500000D02*
X196880000Y-98500000D01*
X196920000Y-104553000D02*
X196920000Y-98447000D01*
X196960000Y-104605000D02*
X196960000Y-98395000D01*
X197000000Y-104656000D02*
X197000000Y-98344000D01*
X197040000Y-104705000D02*
X197040000Y-98295000D01*
X197080000Y-104754000D02*
X197080000Y-98246000D01*
X197120000Y-104801000D02*
X197120000Y-98199000D01*
X197160000Y-104847000D02*
X197160000Y-98153000D01*
X197200000Y-104891000D02*
X197200000Y-98109000D01*
X197240000Y-104935000D02*
X197240000Y-98065000D01*
X197280000Y-100260000D02*
X197280000Y-98022000D01*
X197280000Y-104978000D02*
X197280000Y-102740000D01*
X197320000Y-100260000D02*
X197320000Y-97980000D01*
X197320000Y-105020000D02*
X197320000Y-102740000D01*
X197360000Y-100260000D02*
X197360000Y-97939000D01*
X197360000Y-105061000D02*
X197360000Y-102740000D01*
X197400000Y-100260000D02*
X197400000Y-97899000D01*
X197400000Y-105101000D02*
X197400000Y-102740000D01*
X197440000Y-100260000D02*
X197440000Y-97860000D01*
X197440000Y-105140000D02*
X197440000Y-102740000D01*
X197480000Y-100260000D02*
X197480000Y-97822000D01*
X197480000Y-105178000D02*
X197480000Y-102740000D01*
X197520000Y-100260000D02*
X197520000Y-97784000D01*
X197520000Y-105216000D02*
X197520000Y-102740000D01*
X197560000Y-100260000D02*
X197560000Y-97748000D01*
X197560000Y-105252000D02*
X197560000Y-102740000D01*
X197600000Y-100260000D02*
X197600000Y-97712000D01*
X197600000Y-105288000D02*
X197600000Y-102740000D01*
X197640000Y-100260000D02*
X197640000Y-97677000D01*
X197640000Y-105323000D02*
X197640000Y-102740000D01*
X197680000Y-100260000D02*
X197680000Y-97642000D01*
X197680000Y-105358000D02*
X197680000Y-102740000D01*
X197720000Y-100260000D02*
X197720000Y-97609000D01*
X197720000Y-105391000D02*
X197720000Y-102740000D01*
X197760000Y-100260000D02*
X197760000Y-97576000D01*
X197760000Y-105424000D02*
X197760000Y-102740000D01*
X197800000Y-100260000D02*
X197800000Y-97543000D01*
X197800000Y-105457000D02*
X197800000Y-102740000D01*
X197840000Y-100260000D02*
X197840000Y-97512000D01*
X197840000Y-105488000D02*
X197840000Y-102740000D01*
X197880000Y-100260000D02*
X197880000Y-97480000D01*
X197880000Y-105520000D02*
X197880000Y-102740000D01*
X197920000Y-100260000D02*
X197920000Y-97450000D01*
X197920000Y-105550000D02*
X197920000Y-102740000D01*
X197960000Y-100260000D02*
X197960000Y-97420000D01*
X197960000Y-105580000D02*
X197960000Y-102740000D01*
X198000000Y-100260000D02*
X198000000Y-97391000D01*
X198000000Y-105609000D02*
X198000000Y-102740000D01*
X198040000Y-100260000D02*
X198040000Y-97362000D01*
X198040000Y-105638000D02*
X198040000Y-102740000D01*
X198080000Y-100260000D02*
X198080000Y-97334000D01*
X198080000Y-105666000D02*
X198080000Y-102740000D01*
X198120000Y-100260000D02*
X198120000Y-97307000D01*
X198120000Y-105693000D02*
X198120000Y-102740000D01*
X198160000Y-100260000D02*
X198160000Y-97280000D01*
X198160000Y-105720000D02*
X198160000Y-102740000D01*
X198200000Y-100260000D02*
X198200000Y-97253000D01*
X198200000Y-105747000D02*
X198200000Y-102740000D01*
X198240000Y-100260000D02*
X198240000Y-97228000D01*
X198240000Y-105772000D02*
X198240000Y-102740000D01*
X198280000Y-100260000D02*
X198280000Y-97202000D01*
X198280000Y-105798000D02*
X198280000Y-102740000D01*
X198320000Y-100260000D02*
X198320000Y-97177000D01*
X198320000Y-105823000D02*
X198320000Y-102740000D01*
X198360000Y-100260000D02*
X198360000Y-97153000D01*
X198360000Y-105847000D02*
X198360000Y-102740000D01*
X198400000Y-100260000D02*
X198400000Y-97129000D01*
X198400000Y-105871000D02*
X198400000Y-102740000D01*
X198440000Y-100260000D02*
X198440000Y-97106000D01*
X198440000Y-105894000D02*
X198440000Y-102740000D01*
X198480000Y-100260000D02*
X198480000Y-97083000D01*
X198480000Y-105917000D02*
X198480000Y-102740000D01*
X198520000Y-100260000D02*
X198520000Y-97061000D01*
X198520000Y-105939000D02*
X198520000Y-102740000D01*
X198560000Y-100260000D02*
X198560000Y-97039000D01*
X198560000Y-105961000D02*
X198560000Y-102740000D01*
X198600000Y-100260000D02*
X198600000Y-97017000D01*
X198600000Y-105983000D02*
X198600000Y-102740000D01*
X198640000Y-100260000D02*
X198640000Y-96996000D01*
X198640000Y-106004000D02*
X198640000Y-102740000D01*
X198680000Y-100260000D02*
X198680000Y-96976000D01*
X198680000Y-106024000D02*
X198680000Y-102740000D01*
X198720000Y-100260000D02*
X198720000Y-96956000D01*
X198720000Y-106044000D02*
X198720000Y-102740000D01*
X198760000Y-100260000D02*
X198760000Y-96936000D01*
X198760000Y-106064000D02*
X198760000Y-102740000D01*
X198800000Y-100260000D02*
X198800000Y-96917000D01*
X198800000Y-106083000D02*
X198800000Y-102740000D01*
X198840000Y-100260000D02*
X198840000Y-96898000D01*
X198840000Y-106102000D02*
X198840000Y-102740000D01*
X198880000Y-100260000D02*
X198880000Y-96880000D01*
X198880000Y-106120000D02*
X198880000Y-102740000D01*
X198920000Y-100260000D02*
X198920000Y-96862000D01*
X198920000Y-106138000D02*
X198920000Y-102740000D01*
X198960000Y-100260000D02*
X198960000Y-96844000D01*
X198960000Y-106156000D02*
X198960000Y-102740000D01*
X199000000Y-100260000D02*
X199000000Y-96827000D01*
X199000000Y-106173000D02*
X199000000Y-102740000D01*
X199040000Y-100260000D02*
X199040000Y-96810000D01*
X199040000Y-106190000D02*
X199040000Y-102740000D01*
X199080000Y-100260000D02*
X199080000Y-96794000D01*
X199080000Y-106206000D02*
X199080000Y-102740000D01*
X199120000Y-100260000D02*
X199120000Y-96778000D01*
X199120000Y-106222000D02*
X199120000Y-102740000D01*
X199160000Y-100260000D02*
X199160000Y-96762000D01*
X199160000Y-106238000D02*
X199160000Y-102740000D01*
X199200000Y-100260000D02*
X199200000Y-96747000D01*
X199200000Y-106253000D02*
X199200000Y-102740000D01*
X199240000Y-100260000D02*
X199240000Y-96732000D01*
X199240000Y-106268000D02*
X199240000Y-102740000D01*
X199280000Y-100260000D02*
X199280000Y-96718000D01*
X199280000Y-106282000D02*
X199280000Y-102740000D01*
X199320000Y-100260000D02*
X199320000Y-96703000D01*
X199320000Y-106297000D02*
X199320000Y-102740000D01*
X199360000Y-100260000D02*
X199360000Y-96690000D01*
X199360000Y-106310000D02*
X199360000Y-102740000D01*
X199400000Y-100260000D02*
X199400000Y-96676000D01*
X199400000Y-106324000D02*
X199400000Y-102740000D01*
X199440000Y-100260000D02*
X199440000Y-96663000D01*
X199440000Y-106337000D02*
X199440000Y-102740000D01*
X199480000Y-100260000D02*
X199480000Y-96651000D01*
X199480000Y-106349000D02*
X199480000Y-102740000D01*
X199520000Y-100260000D02*
X199520000Y-96639000D01*
X199520000Y-106361000D02*
X199520000Y-102740000D01*
X199560000Y-100260000D02*
X199560000Y-96627000D01*
X199560000Y-106373000D02*
X199560000Y-102740000D01*
X199600000Y-100260000D02*
X199600000Y-96615000D01*
X199600000Y-106385000D02*
X199600000Y-102740000D01*
X199640000Y-100260000D02*
X199640000Y-96604000D01*
X199640000Y-106396000D02*
X199640000Y-102740000D01*
X199680000Y-100260000D02*
X199680000Y-96593000D01*
X199680000Y-106407000D02*
X199680000Y-102740000D01*
X199720000Y-100260000D02*
X199720000Y-96583000D01*
X199720000Y-106417000D02*
X199720000Y-102740000D01*
X199760000Y-106428000D02*
X199760000Y-96572000D01*
X199800000Y-106437000D02*
X199800000Y-96563000D01*
X199840000Y-106447000D02*
X199840000Y-96553000D01*
X199880000Y-106456000D02*
X199880000Y-96544000D01*
X199920000Y-106465000D02*
X199920000Y-96535000D01*
X199960000Y-106473000D02*
X199960000Y-96527000D01*
X200000000Y-106481000D02*
X200000000Y-96519000D01*
X200040000Y-106489000D02*
X200040000Y-96511000D01*
X200080000Y-106497000D02*
X200080000Y-96503000D01*
X200120000Y-106504000D02*
X200120000Y-96496000D01*
X200160000Y-106511000D02*
X200160000Y-96489000D01*
X200200000Y-106517000D02*
X200200000Y-96483000D01*
X200240000Y-106523000D02*
X200240000Y-96477000D01*
X200280000Y-106529000D02*
X200280000Y-96471000D01*
X200320000Y-106535000D02*
X200320000Y-96465000D01*
X200360000Y-106540000D02*
X200360000Y-96460000D01*
X200400000Y-106545000D02*
X200400000Y-96455000D01*
X200440000Y-106549000D02*
X200440000Y-96451000D01*
X200480000Y-106554000D02*
X200480000Y-96446000D01*
X200520000Y-106557000D02*
X200520000Y-96443000D01*
X200560000Y-106561000D02*
X200560000Y-96439000D01*
X200600000Y-106564000D02*
X200600000Y-96436000D01*
X200640000Y-106567000D02*
X200640000Y-96433000D01*
X200680000Y-106570000D02*
X200680000Y-96430000D01*
X200720000Y-106572000D02*
X200720000Y-96428000D01*
X200760000Y-106574000D02*
X200760000Y-96426000D01*
X200800000Y-106576000D02*
X200800000Y-96424000D01*
X200840000Y-106577000D02*
X200840000Y-96423000D01*
X200880000Y-106579000D02*
X200880000Y-96421000D01*
X200920000Y-106579000D02*
X200920000Y-96421000D01*
X200960000Y-106580000D02*
X200960000Y-96420000D01*
X201000000Y-106580000D02*
X201000000Y-96420000D01*
X205979646Y-104875000D02*
X205979646Y-103875000D01*
X206479646Y-104375000D02*
X205479646Y-104375000D01*
X206120000Y-101500000D02*
G75*
G02*
X195880000Y-101500000I-5120000J0D01*
G01*
X195880000Y-101500000D02*
G75*
G02*
X206120000Y-101500000I5120000J0D01*
G01*
%TO.C,R27*%
X231280000Y-124300000D02*
X232050000Y-124300000D01*
X239360000Y-124300000D02*
X238590000Y-124300000D01*
X232050000Y-122930000D02*
X238590000Y-122930000D01*
X238590000Y-125670000D01*
X232050000Y-125670000D01*
X232050000Y-122930000D01*
%TD*%
M02*
