%TF.GenerationSoftware,KiCad,Pcbnew,10.0.3*%
%TF.CreationDate,2026-06-23T15:24:23+01:00*%
%TF.ProjectId,PCB_Test,5043425f-5465-4737-942e-6b696361645f,rev?*%
%TF.SameCoordinates,Original*%
%TF.FileFunction,Copper,L4,Bot*%
%TF.FilePolarity,Positive*%
%FSLAX46Y46*%
G04 Gerber Fmt 4.6, Leading zero omitted, Abs format (unit mm)*
G04 Created by KiCad (PCBNEW 10.0.3) date 2026-06-23 15:24:23*
%MOMM*%
%LPD*%
G01*
G04 APERTURE LIST*
G04 Aperture macros list*
%AMRoundRect*
0 Rectangle with rounded corners*
0 $1 Rounding radius*
0 $2 $3 $4 $5 $6 $7 $8 $9 X,Y pos of 4 corners*
0 Add a 4 corners polygon primitive as box body*
4,1,4,$2,$3,$4,$5,$6,$7,$8,$9,$2,$3,0*
0 Add four circle primitives for the rounded corners*
1,1,$1+$1,$2,$3*
1,1,$1+$1,$4,$5*
1,1,$1+$1,$6,$7*
1,1,$1+$1,$8,$9*
0 Add four rect primitives between the rounded corners*
20,1,$1+$1,$2,$3,$4,$5,0*
20,1,$1+$1,$4,$5,$6,$7,0*
20,1,$1+$1,$6,$7,$8,$9,0*
20,1,$1+$1,$8,$9,$2,$3,0*%
G04 Aperture macros list end*
%TA.AperFunction,ComponentPad*%
%ADD10C,1.600000*%
%TD*%
%TA.AperFunction,ComponentPad*%
%ADD11R,1.700000X1.700000*%
%TD*%
%TA.AperFunction,ComponentPad*%
%ADD12C,1.700000*%
%TD*%
%TA.AperFunction,ComponentPad*%
%ADD13C,2.775000*%
%TD*%
%TA.AperFunction,ComponentPad*%
%ADD14R,1.100000X1.100000*%
%TD*%
%TA.AperFunction,ComponentPad*%
%ADD15C,1.100000*%
%TD*%
%TA.AperFunction,ComponentPad*%
%ADD16C,1.520000*%
%TD*%
%TA.AperFunction,ComponentPad*%
%ADD17R,1.508000X1.508000*%
%TD*%
%TA.AperFunction,ComponentPad*%
%ADD18C,1.508000*%
%TD*%
%TA.AperFunction,ComponentPad*%
%ADD19RoundRect,0.250000X0.750000X-0.600000X0.750000X0.600000X-0.750000X0.600000X-0.750000X-0.600000X0*%
%TD*%
%TA.AperFunction,ComponentPad*%
%ADD20O,2.000000X1.700000*%
%TD*%
%TA.AperFunction,ComponentPad*%
%ADD21RoundRect,0.250000X-0.620000X-0.845000X0.620000X-0.845000X0.620000X0.845000X-0.620000X0.845000X0*%
%TD*%
%TA.AperFunction,ComponentPad*%
%ADD22O,1.740000X2.190000*%
%TD*%
%TA.AperFunction,ComponentPad*%
%ADD23RoundRect,0.250000X-0.600000X-0.725000X0.600000X-0.725000X0.600000X0.725000X-0.600000X0.725000X0*%
%TD*%
%TA.AperFunction,ComponentPad*%
%ADD24O,1.700000X1.950000*%
%TD*%
%TA.AperFunction,ComponentPad*%
%ADD25R,1.338000X1.338000*%
%TD*%
%TA.AperFunction,ComponentPad*%
%ADD26C,1.338000*%
%TD*%
%TA.AperFunction,ComponentPad*%
%ADD27R,2.000000X1.905000*%
%TD*%
%TA.AperFunction,ComponentPad*%
%ADD28O,2.000000X1.905000*%
%TD*%
%TA.AperFunction,ComponentPad*%
%ADD29RoundRect,0.250001X-1.149999X1.149999X-1.149999X-1.149999X1.149999X-1.149999X1.149999X1.149999X0*%
%TD*%
%TA.AperFunction,ComponentPad*%
%ADD30C,2.800000*%
%TD*%
%TA.AperFunction,ComponentPad*%
%ADD31RoundRect,0.250000X-1.050000X-1.050000X1.050000X-1.050000X1.050000X1.050000X-1.050000X1.050000X0*%
%TD*%
%TA.AperFunction,ComponentPad*%
%ADD32C,2.600000*%
%TD*%
%TA.AperFunction,ComponentPad*%
%ADD33R,1.524000X1.524000*%
%TD*%
%TA.AperFunction,ComponentPad*%
%ADD34C,1.524000*%
%TD*%
%TA.AperFunction,ComponentPad*%
%ADD35RoundRect,0.250000X0.750000X-0.750000X0.750000X0.750000X-0.750000X0.750000X-0.750000X-0.750000X0*%
%TD*%
%TA.AperFunction,ComponentPad*%
%ADD36C,2.000000*%
%TD*%
%TA.AperFunction,ComponentPad*%
%ADD37R,1.408000X1.408000*%
%TD*%
%TA.AperFunction,ComponentPad*%
%ADD38C,1.408000*%
%TD*%
%TA.AperFunction,ComponentPad*%
%ADD39C,3.000000*%
%TD*%
%TA.AperFunction,ComponentPad*%
%ADD40O,8.000000X3.800000*%
%TD*%
%TA.AperFunction,ComponentPad*%
%ADD41RoundRect,0.250000X0.750000X0.750000X-0.750000X0.750000X-0.750000X-0.750000X0.750000X-0.750000X0*%
%TD*%
%TA.AperFunction,ViaPad*%
%ADD42C,0.600000*%
%TD*%
%TA.AperFunction,Conductor*%
%ADD43C,0.400000*%
%TD*%
%TA.AperFunction,Conductor*%
%ADD44C,0.200000*%
%TD*%
%TA.AperFunction,Conductor*%
%ADD45C,0.800000*%
%TD*%
%TA.AperFunction,Conductor*%
%ADD46C,0.300000*%
%TD*%
%TA.AperFunction,Conductor*%
%ADD47C,0.600000*%
%TD*%
G04 APERTURE END LIST*
D10*
%TO.P,C8,1*%
%TO.N,+5V*%
X206100000Y-60000000D03*
%TO.P,C8,2*%
%TO.N,GND*%
X206100000Y-55000000D03*
%TD*%
D11*
%TO.P,J33,1,Pin_1_1*%
%TO.N,Net-(J33-Pin_1)*%
X130000000Y-48000000D03*
D12*
%TO.P,J33,2,Pin_2_2*%
X130000000Y-50540000D03*
%TO.P,J33,3,Pin_3_3*%
%TO.N,3V3*%
X130000000Y-53080000D03*
%TO.P,J33,4,Pin_4_4*%
%TO.N,GND*%
X130000000Y-55620000D03*
%TO.P,J33,5,Pin_5_5*%
%TO.N,GPIO 2*%
X130000000Y-58160000D03*
%TO.P,J33,6,Pin_6_6*%
%TO.N,GPIO 3*%
X130000000Y-60700000D03*
%TD*%
D13*
%TO.P,J8,1,1_1*%
%TO.N,unconnected-(J8-Pad1)*%
X215600000Y-60525000D03*
%TO.P,J8,2,2_2*%
%TO.N,GND*%
X219800000Y-60525000D03*
%TO.P,J8,3,3_3*%
X224000000Y-60525000D03*
%TO.P,J8,4,4_4*%
%TO.N,Net-(F4-Pad1)*%
X228200000Y-60525000D03*
%TD*%
D14*
%TO.P,J7,1,SIGNAL_1_1*%
%TO.N,unconnected-(J7-SIGNAL_1-Pad1)*%
X235900000Y-95790000D03*
D15*
%TO.P,J7,2,SIGNAL_2_2*%
%TO.N,Net-(J7-SIGNAL_2)*%
X235900000Y-97790000D03*
%TO.P,J7,3,SIGNAL_3_3*%
X235900000Y-99790000D03*
%TO.P,J7,4,SIGNAL_4_4*%
%TO.N,unconnected-(J7-SIGNAL_4-Pad4)*%
X235900000Y-101790000D03*
D16*
%TO.P,J7,5,POWER_1_5*%
%TO.N,/Power Distribution/12V_FUSED_MAIN*%
X234230000Y-91290000D03*
%TO.P,J7,6,POWER_2_6*%
X234230000Y-94290000D03*
%TO.P,J7,7,POWER_3_7*%
X234230000Y-97290000D03*
%TO.P,J7,8,POWER_4_8*%
X234230000Y-100290000D03*
%TO.P,J7,9,POWER_5_9*%
X234230000Y-103290000D03*
%TO.P,J7,10,POWER_6_10*%
X234230000Y-106290000D03*
%TO.P,J7,11,POWER_7_11*%
%TO.N,GND*%
X231230000Y-91290000D03*
%TO.P,J7,12,POWER_8_12*%
X231230000Y-94290000D03*
%TO.P,J7,13,POWER_9_13*%
X231230000Y-97290000D03*
%TO.P,J7,14,POWER_10_14*%
X231230000Y-100290000D03*
%TO.P,J7,15,POWER_11_15*%
X231230000Y-103290000D03*
%TO.P,J7,16,POWER_12_16*%
X231230000Y-106290000D03*
%TD*%
D10*
%TO.P,R7,1*%
%TO.N,IO 34*%
X74050000Y-75660000D03*
%TO.P,R7,2*%
%TO.N,Net-(U1-IO34)*%
X84210000Y-75660000D03*
%TD*%
D17*
%TO.P,J36,1,1_1*%
%TO.N,+12V*%
X164500000Y-148450000D03*
D18*
%TO.P,J36,2,2_2*%
%TO.N,Net-(Q1-D)*%
X162000000Y-148450000D03*
%TO.P,J36,3,3_3*%
%TO.N,Net-(Q2-D)*%
X159500000Y-148450000D03*
%TO.P,J36,4,4_4*%
%TO.N,Net-(Q3-D)*%
X157000000Y-148450000D03*
%TD*%
D10*
%TO.P,R12,1*%
%TO.N,IO 18*%
X177450000Y-129500000D03*
%TO.P,R12,2*%
%TO.N,GND*%
X177450000Y-139660000D03*
%TD*%
D11*
%TO.P,J34,1,Pin_1_1*%
%TO.N,Net-(J34-Pin_1)*%
X142700000Y-48000000D03*
D12*
%TO.P,J34,2,Pin_2_2*%
X142700000Y-50540000D03*
%TO.P,J34,3,Pin_3_3*%
%TO.N,+5V*%
X142700000Y-53080000D03*
%TO.P,J34,4,Pin_4_4*%
%TO.N,GND*%
X142700000Y-55620000D03*
%TO.P,J34,5,Pin_5_5*%
%TO.N,SCL_5V*%
X142700000Y-58160000D03*
%TO.P,J34,6,Pin_6_6*%
%TO.N,SDA_5V*%
X142700000Y-60700000D03*
%TD*%
D19*
%TO.P,J5,1,1_1*%
%TO.N,3V3*%
X138335000Y-73470000D03*
D20*
%TO.P,J5,2,2_2*%
%TO.N,Net-(J5-Pad2)*%
X138335000Y-70970000D03*
%TD*%
D21*
%TO.P,J6,1,Pin_1_1*%
%TO.N,GND*%
X217420000Y-147950000D03*
D22*
%TO.P,J6,2,Pin_2_2*%
%TO.N,+12V*%
X219960000Y-147950000D03*
%TO.P,J6,3,Pin_3_3*%
%TO.N,IO 35*%
X222500000Y-147950000D03*
%TO.P,J6,4,Pin_4_4*%
%TO.N,Net-(J6-Pin_4)*%
X225040000Y-147950000D03*
%TD*%
D23*
%TO.P,J22,1,1_1*%
%TO.N,3V3*%
X47500000Y-147450000D03*
D24*
%TO.P,J22,2,2_2*%
%TO.N,/DS_in*%
X50000000Y-147450000D03*
%TO.P,J22,3,3_3*%
%TO.N,GND*%
X52500000Y-147450000D03*
%TD*%
D10*
%TO.P,R21,1*%
%TO.N,GPIO 27*%
X84950000Y-140500000D03*
%TO.P,R21,2*%
%TO.N,Net-(J24-Pad2)*%
X84950000Y-130340000D03*
%TD*%
%TO.P,R5,1*%
%TO.N,Net-(U1-3V3)*%
X64450000Y-73630000D03*
%TO.P,R5,2*%
%TO.N,IO 32*%
X64450000Y-83790000D03*
%TD*%
D23*
%TO.P,J26,1,1_1*%
%TO.N,+5V*%
X109000000Y-147475000D03*
D24*
%TO.P,J26,2,2_2*%
%TO.N,GPIO 5*%
X111500000Y-147475000D03*
%TO.P,J26,3,3_3*%
%TO.N,GND*%
X114000000Y-147475000D03*
%TD*%
D25*
%TO.P,U3,1*%
%TO.N,N/C*%
X217010000Y-130000000D03*
D26*
%TO.P,U3,2,IN_A_2*%
%TO.N,IO 21*%
X217010000Y-132540000D03*
%TO.P,U3,3,GND_3*%
%TO.N,GND*%
X217010000Y-135080000D03*
%TO.P,U3,4,IN_B_4*%
%TO.N,IO 22*%
X217010000Y-137620000D03*
%TO.P,U3,5,~{OUT_B}_5*%
%TO.N,Net-(J6-Pin_4)*%
X224950000Y-137620000D03*
%TO.P,U3,6,VDD_6*%
%TO.N,+12V*%
X224950000Y-135080000D03*
%TO.P,U3,7,~{OUT_A}_7*%
%TO.N,Net-(J4-Pin_4)*%
X224950000Y-132540000D03*
%TO.P,U3,8*%
%TO.N,N/C*%
X224950000Y-130000000D03*
%TD*%
D10*
%TO.P,R10,1*%
%TO.N,IO 33*%
X73950000Y-89660000D03*
%TO.P,R10,2*%
%TO.N,Net-(U1-IO33)*%
X84110000Y-89660000D03*
%TD*%
D27*
%TO.P,Q3,1,G_1*%
%TO.N,Net-(Q3-G)*%
X163000000Y-134500000D03*
D28*
%TO.P,Q3,2,D_2*%
%TO.N,Net-(Q3-D)*%
X163000000Y-137040000D03*
%TO.P,Q3,3,S_3*%
%TO.N,GND*%
X163000000Y-139580000D03*
%TD*%
D23*
%TO.P,J23,1,1_1*%
%TO.N,3V3*%
X63000000Y-147450000D03*
D24*
%TO.P,J23,2,2_2*%
%TO.N,/DS_in*%
X65500000Y-147450000D03*
%TO.P,J23,3,3_3*%
%TO.N,GND*%
X68000000Y-147450000D03*
%TD*%
D23*
%TO.P,J27,1,1_1*%
%TO.N,+5V*%
X125500000Y-147450000D03*
D24*
%TO.P,J27,2,2_2*%
%TO.N,GPIO 6*%
X128000000Y-147450000D03*
%TO.P,J27,3,3_3*%
%TO.N,GND*%
X130500000Y-147450000D03*
%TD*%
D23*
%TO.P,J13,1,1_1*%
%TO.N,GPIO 2*%
X113250000Y-50975000D03*
D24*
%TO.P,J13,2,2_2*%
%TO.N,GPIO 3*%
X115750000Y-50975000D03*
%TO.P,J13,3,3_3*%
%TO.N,3V3*%
X118250000Y-50975000D03*
%TO.P,J13,4,4_4*%
%TO.N,GND*%
X120750000Y-50975000D03*
%TD*%
D10*
%TO.P,R13,1*%
%TO.N,IO 22*%
X206950000Y-139660000D03*
%TO.P,R13,2*%
%TO.N,GND*%
X206950000Y-129500000D03*
%TD*%
%TO.P,R3,1*%
%TO.N,Net-(U1-3V3)*%
X71160000Y-58740000D03*
%TO.P,R3,2*%
%TO.N,IO 34*%
X71160000Y-68900000D03*
%TD*%
%TO.P,C3,1*%
%TO.N,+12V*%
X195450000Y-122080000D03*
%TO.P,C3,2*%
%TO.N,GND*%
X190450000Y-122080000D03*
%TD*%
%TO.P,R24,1*%
%TO.N,GND*%
X162010000Y-71230000D03*
%TO.P,R24,2*%
%TO.N,Net-(J5-Pad2)*%
X151850000Y-71230000D03*
%TD*%
D29*
%TO.P,J11,1,Pin_1_1*%
%TO.N,+12V*%
X240200000Y-113200000D03*
D30*
%TO.P,J11,2,Pin_2_2*%
%TO.N,Net-(J11-Pin_2)*%
X240200000Y-118200000D03*
%TD*%
D31*
%TO.P,D1,1,A1_1*%
%TO.N,GND*%
X187880000Y-92000000D03*
D32*
%TO.P,D1,2,A2_2*%
%TO.N,+12V*%
X203120000Y-92000000D03*
%TD*%
D33*
%TO.P,J19,1,1_1*%
%TO.N,GPIO 2*%
X62000000Y-50975000D03*
D34*
%TO.P,J19,2,2_2*%
%TO.N,GPIO 3*%
X64000000Y-50975000D03*
%TO.P,J19,3,3_3*%
%TO.N,3V3*%
X66000000Y-50975000D03*
%TO.P,J19,4,4_4*%
%TO.N,GND*%
X68000000Y-50975000D03*
%TD*%
D23*
%TO.P,J25,1,1_1*%
%TO.N,3V3*%
X93500000Y-147450000D03*
D24*
%TO.P,J25,2,2_2*%
%TO.N,Net-(J24-Pad2)*%
X96000000Y-147450000D03*
%TO.P,J25,3,3_3*%
%TO.N,GND*%
X98500000Y-147450000D03*
%TD*%
D33*
%TO.P,J15,1,1_1*%
%TO.N,GPIO 2*%
X96000000Y-50975000D03*
D34*
%TO.P,J15,2,2_2*%
%TO.N,GPIO 3*%
X98000000Y-50975000D03*
%TO.P,J15,3,3_3*%
%TO.N,3V3*%
X100000000Y-50975000D03*
%TO.P,J15,4,4_4*%
%TO.N,GND*%
X102000000Y-50975000D03*
%TD*%
D10*
%TO.P,R6,1*%
%TO.N,Net-(U1-3V3)*%
X60970000Y-81220000D03*
%TO.P,R6,2*%
%TO.N,IO 33*%
X60970000Y-91380000D03*
%TD*%
D27*
%TO.P,Q2,1,G_1*%
%TO.N,Net-(Q2-G)*%
X153490000Y-134460000D03*
D28*
%TO.P,Q2,2,D_2*%
%TO.N,Net-(Q2-D)*%
X153490000Y-137000000D03*
%TO.P,Q2,3,S_3*%
%TO.N,GND*%
X153490000Y-139540000D03*
%TD*%
D35*
%TO.P,C7,1*%
%TO.N,+5V*%
X244200000Y-77300000D03*
D36*
%TO.P,C7,2*%
%TO.N,GND*%
X244200000Y-72300000D03*
%TD*%
D10*
%TO.P,R1,1*%
%TO.N,GPIO 22*%
X55950000Y-140500000D03*
%TO.P,R1,2*%
%TO.N,3V3*%
X55950000Y-130340000D03*
%TD*%
D23*
%TO.P,J17,1,1_1*%
%TO.N,GPIO 2*%
X78500000Y-50975000D03*
D24*
%TO.P,J17,2,2_2*%
%TO.N,GPIO 3*%
X81000000Y-50975000D03*
%TO.P,J17,3,3_3*%
%TO.N,3V3*%
X83500000Y-50975000D03*
%TO.P,J17,4,4_4*%
%TO.N,GND*%
X86000000Y-50975000D03*
%TD*%
D10*
%TO.P,R19,1*%
%TO.N,Net-(Q2-G)*%
X153500000Y-130080000D03*
%TO.P,R19,2*%
%TO.N,GND*%
X153500000Y-119920000D03*
%TD*%
%TO.P,R9,1*%
%TO.N,IO 32*%
X73950000Y-85330000D03*
%TO.P,R9,2*%
%TO.N,Net-(U1-IO32)*%
X84110000Y-85330000D03*
%TD*%
%TO.P,R2,1*%
%TO.N,GPIO 22*%
X60000000Y-140500000D03*
%TO.P,R2,2*%
%TO.N,/DS_in*%
X60000000Y-130340000D03*
%TD*%
D21*
%TO.P,J4,1,Pin_1_1*%
%TO.N,GND*%
X202880000Y-147950000D03*
D22*
%TO.P,J4,2,Pin_2_2*%
%TO.N,+12V*%
X205420000Y-147950000D03*
%TO.P,J4,3,Pin_3_3*%
%TO.N,IO 34*%
X207960000Y-147950000D03*
%TO.P,J4,4,Pin_4_4*%
%TO.N,Net-(J4-Pin_4)*%
X210500000Y-147950000D03*
%TD*%
D25*
%TO.P,U2,1*%
%TO.N,N/C*%
X188950000Y-130500000D03*
D26*
%TO.P,U2,2,IN_A_2*%
%TO.N,IO 18*%
X188950000Y-133040000D03*
%TO.P,U2,3,GND_3*%
%TO.N,GND*%
X188950000Y-135580000D03*
%TO.P,U2,4,IN_B_4*%
%TO.N,IO 19*%
X188950000Y-138120000D03*
%TO.P,U2,5,~{OUT_B}_5*%
%TO.N,Net-(J3-Pin_4)*%
X196890000Y-138120000D03*
%TO.P,U2,6,VDD_6*%
%TO.N,+12V*%
X196890000Y-135580000D03*
%TO.P,U2,7,~{OUT_A}_7*%
%TO.N,Net-(J2-Pin_4)*%
X196890000Y-133040000D03*
%TO.P,U2,8*%
%TO.N,N/C*%
X196890000Y-130500000D03*
%TD*%
D10*
%TO.P,C10,1*%
%TO.N,+12V*%
X164060000Y-98390000D03*
%TO.P,C10,2*%
%TO.N,GND*%
X159060000Y-98390000D03*
%TD*%
%TO.P,R23,1*%
%TO.N,GPIO 20*%
X147820000Y-81450000D03*
%TO.P,R23,2*%
%TO.N,Net-(J5-Pad2)*%
X147820000Y-71290000D03*
%TD*%
%TO.P,R18,1*%
%TO.N,IO 14*%
X172000000Y-105340000D03*
%TO.P,R18,2*%
%TO.N,GND*%
X172000000Y-115500000D03*
%TD*%
%TO.P,C9,1*%
%TO.N,+12V*%
X145560000Y-98310000D03*
%TO.P,C9,2*%
%TO.N,GND*%
X140560000Y-98310000D03*
%TD*%
D11*
%TO.P,J10,1,Pin_1_1*%
%TO.N,unconnected-(J10-Pin_1-Pad1)*%
X43260000Y-67980000D03*
D12*
%TO.P,J10,2,Pin_2_2*%
%TO.N,unconnected-(J10-Pin_2-Pad2)*%
X45800000Y-67980000D03*
%TO.P,J10,3,Pin_3_3*%
%TO.N,unconnected-(J10-Pin_3-Pad3)*%
X43260000Y-70520000D03*
%TO.P,J10,4,Pin_4_4*%
%TO.N,GPIO 14*%
X45800000Y-70520000D03*
%TO.P,J10,5,Pin_5_5*%
%TO.N,GPIO 15*%
X43260000Y-73060000D03*
%TO.P,J10,6,Pin_6_6*%
%TO.N,unconnected-(J10-Pin_6-Pad6)*%
X45800000Y-73060000D03*
%TO.P,J10,7,Pin_7_7*%
%TO.N,unconnected-(J10-Pin_7-Pad7)*%
X43260000Y-75600000D03*
%TO.P,J10,8,Pin_8_8*%
%TO.N,GPIO 23*%
X45800000Y-75600000D03*
%TO.P,J10,9,Pin_9_9*%
%TO.N,GPIO 24*%
X43260000Y-78140000D03*
%TO.P,J10,10,Pin_10_10*%
%TO.N,unconnected-(J10-Pin_10-Pad10)*%
X45800000Y-78140000D03*
%TO.P,J10,11,Pin_11_11*%
%TO.N,unconnected-(J10-Pin_11-Pad11)*%
X43260000Y-80680000D03*
%TO.P,J10,12,Pin_12_12*%
%TO.N,unconnected-(J10-Pin_12-Pad12)*%
X45800000Y-80680000D03*
%TO.P,J10,13,Pin_13_13*%
%TO.N,GPIO 7*%
X43260000Y-83220000D03*
%TO.P,J10,14,Pin_14_14*%
%TO.N,unconnected-(J10-Pin_14-Pad14)*%
X45800000Y-83220000D03*
%TO.P,J10,15,Pin_15_15*%
%TO.N,unconnected-(J10-Pin_15-Pad15)*%
X43260000Y-85760000D03*
%TO.P,J10,16,Pin_16_16*%
%TO.N,GPIO 12*%
X45800000Y-85760000D03*
%TO.P,J10,17,Pin_17_17*%
%TO.N,unconnected-(J10-Pin_17-Pad17)*%
X43260000Y-88300000D03*
%TO.P,J10,18,Pin_18_18*%
%TO.N,GPIO 16*%
X45800000Y-88300000D03*
%TO.P,J10,19,Pin_19_19*%
%TO.N,GPIO 21*%
X43260000Y-90840000D03*
%TO.P,J10,20,Pin_20_20*%
%TO.N,GPIO 20*%
X45800000Y-90840000D03*
%TO.P,J10,21,Pin_21_21*%
%TO.N,GND*%
X43260000Y-93380000D03*
%TO.P,J10,22,Pin_22_22*%
%TO.N,GPIO 26*%
X45800000Y-93380000D03*
%TO.P,J10,23,Pin_23_23*%
%TO.N,unconnected-(J10-Pin_23-Pad23)*%
X43260000Y-95920000D03*
%TO.P,J10,24,Pin_24_24*%
%TO.N,GPIO 13*%
X45800000Y-95920000D03*
%TO.P,J10,25,Pin_25_25*%
%TO.N,GPIO 6*%
X43260000Y-98460000D03*
%TO.P,J10,26,Pin_26_26*%
%TO.N,GPIO 5*%
X45800000Y-98460000D03*
%TO.P,J10,27,Pin_27_27*%
%TO.N,unconnected-(J10-Pin_27-Pad27)*%
X43260000Y-101000000D03*
%TO.P,J10,28,Pin_28_28*%
%TO.N,unconnected-(J10-Pin_28-Pad28)*%
X45800000Y-101000000D03*
%TO.P,J10,29,Pin_29_29*%
%TO.N,GPIO 11*%
X43260000Y-103540000D03*
%TO.P,J10,30,Pin_30_30*%
%TO.N,GPIO 9*%
X45800000Y-103540000D03*
%TO.P,J10,31,Pin_31_31*%
%TO.N,GPIO 10*%
X43260000Y-106080000D03*
%TO.P,J10,32,Pin_32_32*%
%TO.N,unconnected-(J10-Pin_32-Pad32)*%
X45800000Y-106080000D03*
%TO.P,J10,33,Pin_33_33*%
%TO.N,GPIO 22*%
X43260000Y-108620000D03*
%TO.P,J10,34,Pin_34_34*%
%TO.N,GPIO 27*%
X45800000Y-108620000D03*
%TO.P,J10,35,Pin_35_35*%
%TO.N,unconnected-(J10-Pin_35-Pad35)*%
X43260000Y-111160000D03*
%TO.P,J10,36,Pin_36_36*%
%TO.N,GND*%
X45800000Y-111160000D03*
%TO.P,J10,37,Pin_37_37*%
%TO.N,unconnected-(J10-Pin_37-Pad37)*%
X43260000Y-113700000D03*
%TO.P,J10,38,Pin_38_38*%
%TO.N,GPIO 3*%
X45800000Y-113700000D03*
%TO.P,J10,39,Pin_39_39*%
%TO.N,GPIO 2*%
X43260000Y-116240000D03*
%TO.P,J10,40,Pin_40_40*%
%TO.N,3V3*%
X45800000Y-116240000D03*
%TD*%
D25*
%TO.P,U5,1*%
%TO.N,N/C*%
X157590000Y-107080000D03*
D26*
%TO.P,U5,2,IN_A_2*%
%TO.N,IO 14*%
X157590000Y-109620000D03*
%TO.P,U5,3,GND_3*%
%TO.N,GND*%
X157590000Y-112160000D03*
%TO.P,U5,4,IN_B_4*%
%TO.N,unconnected-(U5-IN_B-Pad4)*%
X157590000Y-114700000D03*
%TO.P,U5,5,~{OUT_B}_5*%
%TO.N,unconnected-(U5-~{OUT_B}-Pad5)*%
X165530000Y-114700000D03*
%TO.P,U5,6,VDD_6*%
%TO.N,+12V*%
X165530000Y-112160000D03*
%TO.P,U5,7,~{OUT_A}_7*%
%TO.N,Net-(Q3-G)*%
X165530000Y-109620000D03*
%TO.P,U5,8*%
%TO.N,N/C*%
X165530000Y-107080000D03*
%TD*%
D10*
%TO.P,C5,1*%
%TO.N,+12V*%
X210250000Y-98750000D03*
%TO.P,C5,2*%
%TO.N,GND*%
X210250000Y-103750000D03*
%TD*%
D23*
%TO.P,J24,1,1_1*%
%TO.N,3V3*%
X78100000Y-147450000D03*
D24*
%TO.P,J24,2,2_2*%
%TO.N,Net-(J24-Pad2)*%
X80600000Y-147450000D03*
%TO.P,J24,3,3_3*%
%TO.N,GND*%
X83100000Y-147450000D03*
%TD*%
D10*
%TO.P,R8,1*%
%TO.N,IO 35*%
X74020000Y-80510000D03*
%TO.P,R8,2*%
%TO.N,Net-(U1-IO35)*%
X84180000Y-80510000D03*
%TD*%
D11*
%TO.P,J1,1,Pin_1_1*%
%TO.N,GPIO 13*%
X44220000Y-52110000D03*
D12*
%TO.P,J1,2,Pin_2_2*%
%TO.N,GPIO 26*%
X46760000Y-52110000D03*
%TO.P,J1,3,Pin_3_3*%
%TO.N,GND*%
X49300000Y-52110000D03*
%TO.P,J1,4,Pin_4_4*%
%TO.N,GPIO 12*%
X51840000Y-52110000D03*
%TO.P,J1,5,Pin_5_5*%
%TO.N,GPIO 16*%
X54380000Y-52110000D03*
%TD*%
D10*
%TO.P,C4,1*%
%TO.N,+12V*%
X223450000Y-122080000D03*
%TO.P,C4,2*%
%TO.N,GND*%
X218450000Y-122080000D03*
%TD*%
%TO.P,R14,1*%
%TO.N,IO 21*%
X211000000Y-139660000D03*
%TO.P,R14,2*%
%TO.N,GND*%
X211000000Y-129500000D03*
%TD*%
%TO.P,R22,1*%
%TO.N,GPIO 27*%
X89000000Y-140500000D03*
%TO.P,R22,2*%
%TO.N,3V3*%
X89000000Y-130340000D03*
%TD*%
D23*
%TO.P,J9,1,1_1*%
%TO.N,SCL_5V*%
X152500000Y-51000000D03*
D24*
%TO.P,J9,2,2_2*%
%TO.N,SDA_5V*%
X155000000Y-51000000D03*
%TO.P,J9,3,3_3*%
%TO.N,+5V*%
X157500000Y-51000000D03*
%TO.P,J9,4,4_4*%
%TO.N,GND*%
X160000000Y-51000000D03*
%TD*%
D11*
%TO.P,J21,1,Pin_1_1*%
%TO.N,+5V*%
X58250000Y-99640000D03*
D12*
%TO.P,J21,2,Pin_2_2*%
%TO.N,GPIO 2*%
X58250000Y-102180000D03*
%TO.P,J21,3,Pin_3_3*%
%TO.N,GPIO 3*%
X58250000Y-104720000D03*
%TO.P,J21,4,Pin_4_4*%
%TO.N,GPIO 10*%
X58250000Y-107260000D03*
%TO.P,J21,5,Pin_5_5*%
%TO.N,GPIO 9*%
X58250000Y-109800000D03*
%TO.P,J21,6,Pin_6_6*%
%TO.N,GPIO 11*%
X58250000Y-112340000D03*
%TO.P,J21,7,Pin_7_7*%
%TO.N,GPIO 23*%
X58250000Y-114880000D03*
%TO.P,J21,8,Pin_8_8*%
%TO.N,GPIO 24*%
X58250000Y-117420000D03*
%TO.P,J21,9,Pin_9_9*%
%TO.N,GPIO 7*%
X58250000Y-119960000D03*
%TO.P,J21,10,Pin_10_10*%
%TO.N,GND*%
X58250000Y-122500000D03*
%TD*%
D25*
%TO.P,U4,1*%
%TO.N,N/C*%
X139060000Y-107000000D03*
D26*
%TO.P,U4,2,IN_A_2*%
%TO.N,IO 12*%
X139060000Y-109540000D03*
%TO.P,U4,3,GND_3*%
%TO.N,GND*%
X139060000Y-112080000D03*
%TO.P,U4,4,IN_B_4*%
%TO.N,IO 13*%
X139060000Y-114620000D03*
%TO.P,U4,5,~{OUT_B}_5*%
%TO.N,Net-(Q2-G)*%
X147000000Y-114620000D03*
%TO.P,U4,6,VDD_6*%
%TO.N,+12V*%
X147000000Y-112080000D03*
%TO.P,U4,7,~{OUT_A}_7*%
%TO.N,Net-(Q1-G)*%
X147000000Y-109540000D03*
%TO.P,U4,8*%
%TO.N,N/C*%
X147000000Y-107000000D03*
%TD*%
D17*
%TO.P,J35,1,1_1*%
%TO.N,+12V*%
X148000000Y-148450000D03*
D18*
%TO.P,J35,2,2_2*%
%TO.N,Net-(Q1-D)*%
X145500000Y-148450000D03*
%TO.P,J35,3,3_3*%
%TO.N,Net-(Q2-D)*%
X143000000Y-148450000D03*
%TO.P,J35,4,4_4*%
%TO.N,Net-(Q3-D)*%
X140500000Y-148450000D03*
%TD*%
D33*
%TO.P,J18,1,1_1*%
%TO.N,SCL_5V*%
X170000000Y-51000000D03*
D34*
%TO.P,J18,2,2_2*%
%TO.N,SDA_5V*%
X172000000Y-51000000D03*
%TO.P,J18,3,3_3*%
%TO.N,+5V*%
X174000000Y-51000000D03*
%TO.P,J18,4,4_4*%
%TO.N,GND*%
X176000000Y-51000000D03*
%TD*%
D10*
%TO.P,R17,1*%
%TO.N,Net-(Q1-G)*%
X142500000Y-130080000D03*
%TO.P,R17,2*%
%TO.N,GND*%
X142500000Y-119920000D03*
%TD*%
D37*
%TO.P,U1,J2_1,3V3_J2_1*%
%TO.N,Net-(U1-3V3)*%
X89600000Y-71880000D03*
D38*
%TO.P,U1,J2_2,EN_J2_2*%
%TO.N,unconnected-(U1-EN-PadJ2_2)*%
X89600000Y-74420000D03*
%TO.P,U1,J2_3,SENSOR_VP_J2_3*%
%TO.N,unconnected-(U1-SENSOR_VP-PadJ2_3)*%
X89600000Y-76960000D03*
%TO.P,U1,J2_4,SENSOR_VN_J2_4*%
%TO.N,unconnected-(U1-SENSOR_VN-PadJ2_4)*%
X89600000Y-79500000D03*
%TO.P,U1,J2_5,IO34_J2_5*%
%TO.N,Net-(U1-IO34)*%
X89600000Y-82040000D03*
%TO.P,U1,J2_6,IO35_J2_6*%
%TO.N,Net-(U1-IO35)*%
X89600000Y-84580000D03*
%TO.P,U1,J2_7,IO32_J2_7*%
%TO.N,Net-(U1-IO32)*%
X89600000Y-87120000D03*
%TO.P,U1,J2_8,IO33_J2_8*%
%TO.N,Net-(U1-IO33)*%
X89600000Y-89660000D03*
%TO.P,U1,J2_9,IO25_J2_9*%
%TO.N,unconnected-(U1-IO25-PadJ2_9)*%
X89600000Y-92200000D03*
%TO.P,U1,J2_10,IO26_J2_10*%
%TO.N,GPIO 14*%
X89600000Y-94740000D03*
%TO.P,U1,J2_11,IO27_J2_11*%
%TO.N,GPIO 15*%
X89600000Y-97280000D03*
%TO.P,U1,J2_12,IO14_J2_12*%
%TO.N,IO 14*%
X89600000Y-99820000D03*
%TO.P,U1,J2_13,IO12_J2_13*%
%TO.N,IO 12*%
X89600000Y-102360000D03*
%TO.P,U1,J2_14,GND_J2_14_J2_14*%
%TO.N,unconnected-(U1-GND_J2_14-PadJ2_14)*%
X89600000Y-104900000D03*
%TO.P,U1,J2_15,IO13_J2_15*%
%TO.N,IO 13*%
X89600000Y-107440000D03*
%TO.P,U1,J2_16,SD2_J2_16*%
%TO.N,unconnected-(U1-SD2-PadJ2_16)*%
X89600000Y-109980000D03*
%TO.P,U1,J2_17,SD3_J2_17*%
%TO.N,unconnected-(U1-SD3-PadJ2_17)*%
X89600000Y-112520000D03*
%TO.P,U1,J2_18,CMD_J2_18*%
%TO.N,unconnected-(U1-CMD-PadJ2_18)*%
X89600000Y-115060000D03*
%TO.P,U1,J2_19,EXT_5V_J2_19*%
%TO.N,+5V*%
X89600000Y-117600000D03*
%TO.P,U1,J3_1,GND_J3_1_J3_1*%
%TO.N,GND*%
X115000000Y-71880000D03*
%TO.P,U1,J3_2,IO23_J3_2*%
%TO.N,unconnected-(U1-IO23-PadJ3_2)*%
X115000000Y-74420000D03*
%TO.P,U1,J3_3,IO22_J3_3*%
%TO.N,IO 22*%
X115000000Y-76960000D03*
%TO.P,U1,J3_4,TXD0_J3_4*%
%TO.N,unconnected-(U1-TXD0-PadJ3_4)*%
X115000000Y-79500000D03*
%TO.P,U1,J3_5,RXD0_J3_5*%
%TO.N,unconnected-(U1-RXD0-PadJ3_5)*%
X115000000Y-82040000D03*
%TO.P,U1,J3_6,IO21_J3_6*%
%TO.N,IO 21*%
X115000000Y-84580000D03*
%TO.P,U1,J3_7,GND_J3_7_J3_7*%
%TO.N,unconnected-(U1-GND_J3_7-PadJ3_7)*%
X115000000Y-87120000D03*
%TO.P,U1,J3_8,IO19_J3_8*%
%TO.N,IO 19*%
X115000000Y-89660000D03*
%TO.P,U1,J3_9,IO18_J3_9*%
%TO.N,IO 18*%
X115000000Y-92200000D03*
%TO.P,U1,J3_10,IO5_J3_10*%
%TO.N,unconnected-(U1-IO5-PadJ3_10)*%
X115000000Y-94740000D03*
%TO.P,U1,J3_11,IO17_J3_11*%
%TO.N,unconnected-(U1-IO17-PadJ3_11)*%
X115000000Y-97280000D03*
%TO.P,U1,J3_12,IO16_J3_12*%
%TO.N,unconnected-(U1-IO16-PadJ3_12)*%
X115000000Y-99820000D03*
%TO.P,U1,J3_13,IO4_J3_13*%
%TO.N,unconnected-(U1-IO4-PadJ3_13)*%
X115000000Y-102360000D03*
%TO.P,U1,J3_14,IO0_J3_14*%
%TO.N,unconnected-(U1-IO0-PadJ3_14)*%
X115000000Y-104900000D03*
%TO.P,U1,J3_15,IO2_J3_15*%
%TO.N,unconnected-(U1-IO2-PadJ3_15)*%
X115000000Y-107440000D03*
%TO.P,U1,J3_16,IO15_J3_16*%
%TO.N,unconnected-(U1-IO15-PadJ3_16)*%
X115000000Y-109980000D03*
%TO.P,U1,J3_17,SD1_J3_17*%
%TO.N,unconnected-(U1-SD1-PadJ3_17)*%
X115000000Y-112520000D03*
%TO.P,U1,J3_18,SD0_J3_18*%
%TO.N,unconnected-(U1-SD0-PadJ3_18)*%
X115000000Y-115060000D03*
%TO.P,U1,J3_19,CLK_J3_19*%
%TO.N,unconnected-(U1-CLK-PadJ3_19)*%
X115000000Y-117600000D03*
%TD*%
D10*
%TO.P,R16,1*%
%TO.N,IO 12*%
X127060000Y-105730000D03*
%TO.P,R16,2*%
%TO.N,GND*%
X127060000Y-115890000D03*
%TD*%
%TO.P,R25,1*%
%TO.N,GPIO 21*%
X198930000Y-70110000D03*
%TO.P,R25,2*%
%TO.N,Net-(J20-Pad2)*%
X188770000Y-70110000D03*
%TD*%
%TO.P,R20,1*%
%TO.N,Net-(Q3-G)*%
X163000000Y-130160000D03*
%TO.P,R20,2*%
%TO.N,GND*%
X163000000Y-120000000D03*
%TD*%
D21*
%TO.P,J3,1,Pin_1_1*%
%TO.N,GND*%
X188380000Y-147950000D03*
D22*
%TO.P,J3,2,Pin_2_2*%
%TO.N,+12V*%
X190920000Y-147950000D03*
%TO.P,J3,3,Pin_3_3*%
%TO.N,IO 33*%
X193460000Y-147950000D03*
%TO.P,J3,4,Pin_4_4*%
%TO.N,Net-(J3-Pin_4)*%
X196000000Y-147950000D03*
%TD*%
D10*
%TO.P,R11,1*%
%TO.N,IO 19*%
X181500000Y-129500000D03*
%TO.P,R11,2*%
%TO.N,GND*%
X181500000Y-139660000D03*
%TD*%
%TO.P,R15,1*%
%TO.N,IO 13*%
X131110000Y-105730000D03*
%TO.P,R15,2*%
%TO.N,GND*%
X131110000Y-115890000D03*
%TD*%
D39*
%TO.P,F4,1*%
%TO.N,Net-(F4-Pad1)*%
X233800000Y-74100000D03*
%TO.P,F4,2*%
%TO.N,+5V*%
X211300000Y-74100000D03*
%TD*%
D40*
%TO.P,F3,1*%
%TO.N,+12V*%
X212100000Y-92000000D03*
%TO.P,F3,2*%
%TO.N,/Power Distribution/12V_FUSED_MAIN*%
X221400000Y-92000000D03*
%TD*%
D10*
%TO.P,R4,1*%
%TO.N,Net-(U1-3V3)*%
X67840000Y-66130000D03*
%TO.P,R4,2*%
%TO.N,IO 35*%
X67840000Y-76290000D03*
%TD*%
D21*
%TO.P,J2,1,Pin_1_1*%
%TO.N,GND*%
X173880000Y-147950000D03*
D22*
%TO.P,J2,2,Pin_2_2*%
%TO.N,+12V*%
X176420000Y-147950000D03*
%TO.P,J2,3,Pin_3_3*%
%TO.N,IO 32*%
X178960000Y-147950000D03*
%TO.P,J2,4,Pin_4_4*%
%TO.N,Net-(J2-Pin_4)*%
X181500000Y-147950000D03*
%TD*%
D10*
%TO.P,R26,1*%
%TO.N,GND*%
X184260000Y-79890000D03*
%TO.P,R26,2*%
%TO.N,Net-(J20-Pad2)*%
X184260000Y-69730000D03*
%TD*%
D19*
%TO.P,J20,1,1_1*%
%TO.N,3V3*%
X173370000Y-73310000D03*
D20*
%TO.P,J20,2,2_2*%
%TO.N,Net-(J20-Pad2)*%
X173370000Y-70810000D03*
%TD*%
D27*
%TO.P,Q1,1,G_1*%
%TO.N,Net-(Q1-G)*%
X142500000Y-134500000D03*
D28*
%TO.P,Q1,2,D_2*%
%TO.N,Net-(Q1-D)*%
X142500000Y-137040000D03*
%TO.P,Q1,3,S_3*%
%TO.N,GND*%
X142500000Y-139580000D03*
%TD*%
D41*
%TO.P,C6,1*%
%TO.N,+12V*%
X203500000Y-101500000D03*
D36*
%TO.P,C6,2*%
%TO.N,GND*%
X198500000Y-101500000D03*
%TD*%
D10*
%TO.P,R27,1*%
%TO.N,Net-(J11-Pin_2)*%
X240400000Y-124300000D03*
%TO.P,R27,2*%
%TO.N,GND*%
X230240000Y-124300000D03*
%TD*%
D42*
%TO.N,GPIO 2*%
X54290000Y-95210000D03*
X54400000Y-72860000D03*
X57140000Y-65000000D03*
X54290000Y-81800000D03*
%TO.N,GPIO 3*%
X54000000Y-113800000D03*
X49800000Y-113800000D03*
X51760000Y-79000000D03*
X58500000Y-58290000D03*
X51730000Y-72830000D03*
%TO.N,IO 18*%
X179140000Y-127840000D03*
%TO.N,GPIO 27*%
X67060000Y-126480000D03*
X73830000Y-127270000D03*
%TO.N,IO 32*%
X72090000Y-137260000D03*
X71980000Y-102470000D03*
%TO.N,GPIO 5*%
X67810000Y-128980000D03*
X50630000Y-119240000D03*
%TO.N,IO 22*%
X207000000Y-141250000D03*
X208310000Y-142660000D03*
%TO.N,IO 33*%
X69980000Y-102560000D03*
%TO.N,GPIO 6*%
X69970000Y-135460000D03*
%TO.N,GPIO 22*%
X40280000Y-120980000D03*
X40220000Y-117760000D03*
%TO.N,GPIO 20*%
X47900000Y-86900000D03*
X47900000Y-82100000D03*
X47940000Y-69100000D03*
X47900000Y-75100000D03*
%TO.N,IO 14*%
X77570000Y-114350000D03*
%TO.N,GPIO 23*%
X62000000Y-109800000D03*
X56300000Y-91100000D03*
%TO.N,GPIO 7*%
X39300000Y-84700000D03*
X33300000Y-88400000D03*
%TO.N,GPIO 12*%
X50530000Y-70100000D03*
X50530000Y-65670000D03*
X50500000Y-76600000D03*
%TO.N,GPIO 16*%
X53200000Y-86100000D03*
X53550000Y-76280000D03*
X53550000Y-68770000D03*
X53230000Y-80260000D03*
%TO.N,GPIO 21*%
X36600000Y-83200000D03*
%TO.N,GPIO 26*%
X49700000Y-84100000D03*
X49700000Y-78300000D03*
X49300000Y-61700000D03*
X49700000Y-87100000D03*
X49284265Y-72800000D03*
%TO.N,GPIO 13*%
X34600000Y-92800000D03*
%TO.N,GPIO 9*%
X49750000Y-111850000D03*
X55400000Y-112400000D03*
%TO.N,GPIO 10*%
X39500000Y-107400000D03*
X55200000Y-110000000D03*
%TO.N,IO 12*%
X115100000Y-124630000D03*
X124000000Y-119440000D03*
%TO.N,Net-(Q1-G)*%
X148530000Y-130080000D03*
X149970000Y-121600000D03*
%TD*%
%TO.N,GPIO 7*%
D43*
X33300000Y-88400000D02*
X37000000Y-84700000D01*
X37000000Y-84700000D02*
X39300000Y-84700000D01*
%TO.N,GPIO 26*%
X49700000Y-89480000D02*
X45800000Y-93380000D01*
X49700000Y-87100000D02*
X49700000Y-89480000D01*
%TO.N,GPIO 27*%
X83410000Y-140500000D02*
X84950000Y-140500000D01*
X81330000Y-134770000D02*
X81330000Y-138420000D01*
X81330000Y-138420000D02*
X83410000Y-140500000D01*
X73830000Y-127270000D02*
X81330000Y-134770000D01*
%TO.N,GPIO 9*%
X55400000Y-112400000D02*
X50300000Y-112400000D01*
X50300000Y-112400000D02*
X49750000Y-111850000D01*
%TO.N,GPIO 10*%
X33500000Y-115250000D02*
X33500000Y-109350000D01*
X48100000Y-119350000D02*
X37600000Y-119350000D01*
X37600000Y-119350000D02*
X33500000Y-115250000D01*
X48550000Y-118900000D02*
X48100000Y-119350000D01*
X33500000Y-109350000D02*
X35450000Y-107400000D01*
X48550000Y-111650000D02*
X48550000Y-118900000D01*
X50200000Y-110000000D02*
X48550000Y-111650000D01*
X55200000Y-110000000D02*
X50200000Y-110000000D01*
X35450000Y-107400000D02*
X39500000Y-107400000D01*
%TO.N,GPIO 26*%
X49300000Y-61930000D02*
X49284265Y-61945735D01*
X49284265Y-61945735D02*
X49284265Y-72800000D01*
X49300000Y-61700000D02*
X49300000Y-61930000D01*
%TO.N,GPIO 3*%
X51730000Y-64255000D02*
X51730000Y-72830000D01*
X57695000Y-58290000D02*
X51730000Y-64255000D01*
X58500000Y-58290000D02*
X57695000Y-58290000D01*
%TO.N,GPIO 2*%
X56160000Y-71100000D02*
X54400000Y-72860000D01*
X56160000Y-68620000D02*
X56160000Y-71100000D01*
X57140000Y-65000000D02*
X57140000Y-67640000D01*
X57140000Y-67640000D02*
X56160000Y-68620000D01*
X54290000Y-81800000D02*
X54290000Y-95210000D01*
%TO.N,GPIO 3*%
X51760000Y-98230000D02*
X58250000Y-104720000D01*
X51760000Y-79000000D02*
X51760000Y-98230000D01*
X54000000Y-113800000D02*
X49800000Y-113800000D01*
%TO.N,IO 34*%
D44*
X222880000Y-114960000D02*
X201530000Y-114960000D01*
X225690000Y-126840000D02*
X225690000Y-117770000D01*
X113910000Y-61350000D02*
X84600000Y-61350000D01*
X210710000Y-153400000D02*
X230120000Y-153400000D01*
X201530000Y-114960000D02*
X185830000Y-99260000D01*
X139870000Y-92680000D02*
X138450000Y-91260000D01*
X233520000Y-150000000D02*
X233520000Y-134670000D01*
X207960000Y-147950000D02*
X207960000Y-150650000D01*
X163920000Y-92680000D02*
X139870000Y-92680000D01*
X185830000Y-99130000D02*
X170370000Y-99130000D01*
X225690000Y-117770000D02*
X222880000Y-114960000D01*
X138450000Y-91260000D02*
X138450000Y-85830000D01*
X138450000Y-85830000D02*
X113940000Y-61320000D01*
X207960000Y-150650000D02*
X210710000Y-153400000D01*
X84600000Y-61350000D02*
X77050000Y-68900000D01*
X77050000Y-68900000D02*
X71160000Y-68900000D01*
X233520000Y-134670000D02*
X225690000Y-126840000D01*
X113940000Y-61320000D02*
X113910000Y-61350000D01*
X230120000Y-153400000D02*
X233520000Y-150000000D01*
X185830000Y-99260000D02*
X185830000Y-99130000D01*
X170370000Y-99130000D02*
X163920000Y-92680000D01*
%TO.N,Net-(Q3-D)*%
D45*
X163000000Y-137040000D02*
X162872669Y-137040000D01*
X157000000Y-143200000D02*
X157000000Y-148450000D01*
X140500000Y-148450000D02*
X140500000Y-146600000D01*
X162872669Y-137040000D02*
X157000000Y-142912669D01*
X140500000Y-146600000D02*
X143900000Y-143200000D01*
X143900000Y-143200000D02*
X157000000Y-143200000D01*
X157000000Y-142912669D02*
X157000000Y-143200000D01*
%TO.N,IO 18*%
D44*
X187960000Y-133040000D02*
X188950000Y-133040000D01*
X179140000Y-127840000D02*
X184860000Y-127840000D01*
X184860000Y-127840000D02*
X186640000Y-129620000D01*
X186640000Y-131720000D02*
X187960000Y-133040000D01*
X186640000Y-129620000D02*
X186640000Y-131720000D01*
%TO.N,SDA_5V*%
D46*
X169000000Y-59900000D02*
X171900000Y-57000000D01*
X151700000Y-59800000D02*
X155000000Y-56500000D01*
D44*
X172000000Y-56900000D02*
X171900000Y-57000000D01*
D46*
X158400000Y-59900000D02*
X169000000Y-59900000D01*
X155000000Y-56500000D02*
X158400000Y-59900000D01*
X143600000Y-59800000D02*
X151700000Y-59800000D01*
D44*
X172000000Y-51000000D02*
X172000000Y-56900000D01*
D46*
X142700000Y-60700000D02*
X143600000Y-59800000D01*
X171900000Y-51600000D02*
X172500000Y-51000000D01*
X155000000Y-56500000D02*
X155000000Y-51000000D01*
%TO.N,IO 35*%
D44*
X77200000Y-70800000D02*
X73330000Y-70800000D01*
X85260000Y-62740000D02*
X77200000Y-70800000D01*
X73330000Y-70800000D02*
X67840000Y-76290000D01*
X170350000Y-100100000D02*
X163810000Y-93560000D01*
X200310000Y-115730000D02*
X184680000Y-100100000D01*
X184680000Y-100100000D02*
X170350000Y-100100000D01*
X222500000Y-147950000D02*
X213570000Y-139020000D01*
X113770000Y-62740000D02*
X85260000Y-62740000D01*
X213570000Y-139020000D02*
X213570000Y-118380000D01*
X137190000Y-86160000D02*
X113770000Y-62740000D01*
X163810000Y-93560000D02*
X138290000Y-93560000D01*
X213570000Y-118380000D02*
X210920000Y-115730000D01*
X137190000Y-92450000D02*
X137190000Y-86160000D01*
X138290000Y-93560000D02*
X137185000Y-92455000D01*
X210920000Y-115730000D02*
X200310000Y-115730000D01*
X137185000Y-92455000D02*
X137190000Y-92450000D01*
%TO.N,GPIO 27*%
D43*
X56150000Y-114400000D02*
X56150000Y-124290000D01*
X56500000Y-114050000D02*
X56150000Y-114400000D01*
X55220000Y-108690000D02*
X56500000Y-109970000D01*
X56150000Y-124290000D02*
X58370000Y-126510000D01*
X45800000Y-108620000D02*
X54700000Y-108620000D01*
X67030000Y-126510000D02*
X67060000Y-126480000D01*
X54770000Y-108690000D02*
X55220000Y-108690000D01*
X54700000Y-108620000D02*
X54770000Y-108690000D01*
X89000000Y-140500000D02*
X84950000Y-140500000D01*
X58370000Y-126510000D02*
X67030000Y-126510000D01*
X56500000Y-109970000D02*
X56500000Y-114050000D01*
%TO.N,IO 32*%
D44*
X72070000Y-102560000D02*
X71980000Y-102470000D01*
X72070000Y-137240000D02*
X72070000Y-102560000D01*
X64450000Y-83790000D02*
X72410000Y-83790000D01*
X72090000Y-137260000D02*
X72070000Y-137240000D01*
X72410000Y-83790000D02*
X73950000Y-85330000D01*
%TO.N,GPIO 5*%
D43*
X55900000Y-128980000D02*
X50630000Y-123710000D01*
X67810000Y-128980000D02*
X55900000Y-128980000D01*
X50630000Y-123710000D02*
X50630000Y-119240000D01*
%TO.N,IO 22*%
D44*
X207000000Y-141250000D02*
X207000000Y-141350000D01*
X207000000Y-141350000D02*
X208310000Y-142660000D01*
%TO.N,IO 33*%
X60970000Y-91380000D02*
X72230000Y-91380000D01*
X193460000Y-147950000D02*
X188460000Y-152950000D01*
X71250000Y-151880000D02*
X71250000Y-103830000D01*
X72230000Y-91380000D02*
X73950000Y-89660000D01*
X72320000Y-152950000D02*
X71250000Y-151880000D01*
X188460000Y-152950000D02*
X72320000Y-152950000D01*
X71250000Y-103830000D02*
X69980000Y-102560000D01*
%TO.N,GPIO 6*%
D43*
X34270000Y-98460000D02*
X32900000Y-99830000D01*
X42400000Y-142250000D02*
X43450000Y-143300000D01*
X66630000Y-143300000D02*
X69970000Y-139960000D01*
X43260000Y-98460000D02*
X34270000Y-98460000D01*
X32900000Y-131030000D02*
X42400000Y-140530000D01*
X69970000Y-139960000D02*
X69970000Y-135460000D01*
X32900000Y-99830000D02*
X32900000Y-131030000D01*
X43450000Y-143300000D02*
X66630000Y-143300000D01*
X42400000Y-140530000D02*
X42400000Y-142250000D01*
%TO.N,GPIO 22*%
X43260000Y-108620000D02*
X40220000Y-111660000D01*
X44580000Y-140500000D02*
X55950000Y-140500000D01*
X55950000Y-140500000D02*
X60000000Y-140500000D01*
X40290000Y-120990000D02*
X40290000Y-136210000D01*
X40290000Y-136210000D02*
X44580000Y-140500000D01*
X40280000Y-120980000D02*
X40290000Y-120990000D01*
X40220000Y-111660000D02*
X40220000Y-117760000D01*
%TO.N,GPIO 20*%
D46*
X47900000Y-82100000D02*
X47900000Y-75100000D01*
X112900000Y-57500000D02*
X136850000Y-81450000D01*
X46660000Y-90840000D02*
X47900000Y-89600000D01*
X47940000Y-58460000D02*
X48900000Y-57500000D01*
X136850000Y-81450000D02*
X147820000Y-81450000D01*
X48900000Y-57500000D02*
X112900000Y-57500000D01*
X47940000Y-69100000D02*
X47940000Y-58460000D01*
X47900000Y-89600000D02*
X47900000Y-86900000D01*
X45800000Y-90840000D02*
X46660000Y-90840000D01*
%TO.N,IO 14*%
D44*
X152240000Y-117260000D02*
X153470000Y-116030000D01*
X153470000Y-116030000D02*
X153470000Y-113740000D01*
X131660000Y-125870000D02*
X140270000Y-117260000D01*
X77570000Y-114350000D02*
X77570000Y-122990000D01*
X153470000Y-113740000D02*
X157590000Y-109620000D01*
X140270000Y-117260000D02*
X152240000Y-117260000D01*
X80450000Y-125870000D02*
X131660000Y-125870000D01*
X77570000Y-122990000D02*
X80450000Y-125870000D01*
%TO.N,GPIO 14*%
X82810000Y-94740000D02*
X89600000Y-94740000D01*
X75800000Y-101770000D02*
X82820000Y-94750000D01*
X62880000Y-99060000D02*
X65590000Y-101770000D01*
X45800000Y-70520000D02*
X58150000Y-82870000D01*
X58150000Y-82870000D02*
X58150000Y-91700000D01*
X58150000Y-91700000D02*
X62880000Y-96430000D01*
X62880000Y-96430000D02*
X62880000Y-99060000D01*
X65590000Y-101770000D02*
X75800000Y-101770000D01*
X82820000Y-94750000D02*
X82810000Y-94740000D01*
%TO.N,GPIO 23*%
D43*
X56300000Y-92080000D02*
X56300000Y-91100000D01*
X62000000Y-109800000D02*
X62000000Y-97780000D01*
X62000000Y-97780000D02*
X56300000Y-92080000D01*
%TO.N,GPIO 12*%
X50530000Y-70100000D02*
X50530000Y-65670000D01*
X50500000Y-76600000D02*
X50500000Y-84990000D01*
X50500000Y-84990000D02*
X49730000Y-85760000D01*
X49730000Y-85760000D02*
X45800000Y-85760000D01*
%TO.N,GPIO 16*%
X53230000Y-80260000D02*
X53230000Y-86070000D01*
X53230000Y-86070000D02*
X53200000Y-86100000D01*
X53550000Y-68770000D02*
X53550000Y-76280000D01*
%TO.N,GPIO 21*%
X36600000Y-83200000D02*
X36600000Y-62510000D01*
X193880000Y-65060000D02*
X198930000Y-70110000D01*
X36600000Y-62510000D02*
X42720000Y-56390000D01*
X42720000Y-56390000D02*
X120150000Y-56390000D01*
X128820000Y-65060000D02*
X193880000Y-65060000D01*
X120150000Y-56390000D02*
X128820000Y-65060000D01*
%TO.N,GPIO 26*%
X49700000Y-78300000D02*
X49700000Y-84100000D01*
%TO.N,GPIO 13*%
X44550000Y-97170000D02*
X45800000Y-95920000D01*
X34600000Y-92800000D02*
X38970000Y-97170000D01*
X38970000Y-97170000D02*
X44550000Y-97170000D01*
%TO.N,IO 12*%
D44*
X133110000Y-102840000D02*
X136800000Y-106530000D01*
X137760000Y-109540000D02*
X139060000Y-109540000D01*
X124000000Y-119520000D02*
X124000000Y-119440000D01*
X122860000Y-120660000D02*
X124000000Y-119520000D01*
X128230000Y-102800000D02*
X133110000Y-102800000D01*
X115100000Y-124630000D02*
X115710000Y-124020000D01*
X116780000Y-120660000D02*
X122860000Y-120660000D01*
X133110000Y-102800000D02*
X133110000Y-102840000D01*
X127060000Y-103970000D02*
X128230000Y-102800000D01*
X127060000Y-105730000D02*
X127060000Y-103970000D01*
X115710000Y-121730000D02*
X116780000Y-120660000D01*
X136800000Y-106530000D02*
X136800000Y-108580000D01*
X115710000Y-124020000D02*
X115710000Y-121730000D01*
X136800000Y-108580000D02*
X137760000Y-109540000D01*
%TO.N,Net-(Q1-G)*%
D47*
X149970000Y-121600000D02*
X149970000Y-128640000D01*
X149970000Y-128640000D02*
X148530000Y-130080000D01*
%TD*%
M02*
