M48
; DRILL file KiCad 10.0.3 date 2026-06-23T13:31:45
; FORMAT={-:-/ absolute / metric / decimal}
; #@! TF.CreationDate,2026-06-23T13:31:45+01:00
; #@! TF.GenerationSoftware,Kicad,Pcbnew,10.0.3
; #@! TF.FileFunction,Plated,1,4,PTH
FMAT,2
METRIC
; #@! TA.AperFunction,Plated,PTH,ViaDrill
T1C0.300
; #@! TA.AperFunction,Plated,PTH,ComponentDrill
T2C0.600
; #@! TA.AperFunction,Plated,PTH,ComponentDrill
T3C0.762
; #@! TA.AperFunction,Plated,PTH,ComponentDrill
T4C0.800
; #@! TA.AperFunction,Plated,PTH,ComponentDrill
T5C0.830
; #@! TA.AperFunction,Plated,PTH,ComponentDrill
T6C0.900
; #@! TA.AperFunction,Plated,PTH,ComponentDrill
T7C0.950
; #@! TA.AperFunction,Plated,PTH,ComponentDrill
T8C1.000
; #@! TA.AperFunction,Plated,PTH,ComponentDrill
T9C1.020
; #@! TA.AperFunction,Plated,PTH,ComponentDrill
T10C1.100
; #@! TA.AperFunction,Plated,PTH,ComponentDrill
T11C1.190
; #@! TA.AperFunction,Plated,PTH,ComponentDrill
T12C1.300
; #@! TA.AperFunction,Plated,PTH,ComponentDrill
T13C1.850
; #@! TA.AperFunction,Plated,PTH,ComponentDrill
T14C2.000
%
G90
G05
T1
X33.3Y-88.4
X34.6Y-92.8
X36.6Y-83.2
X39.3Y-84.7
X39.5Y-107.4
X40.22Y-117.76
X40.28Y-120.98
X47.9Y-75.1
X47.9Y-82.1
X47.9Y-86.9
X47.94Y-69.1
X49.284Y-72.8
X49.3Y-61.7
X49.7Y-78.3
X49.7Y-84.1
X49.7Y-87.1
X49.75Y-111.85
X49.8Y-113.8
X50.5Y-76.6
X50.53Y-65.67
X50.53Y-70.1
X50.63Y-119.24
X51.73Y-72.83
X51.76Y-79.0
X53.2Y-86.1
X53.23Y-80.26
X53.55Y-68.77
X53.55Y-76.28
X54.0Y-113.8
X54.29Y-81.8
X54.29Y-95.21
X54.4Y-72.86
X55.2Y-110.0
X55.4Y-112.4
X56.3Y-91.1
X57.14Y-65.0
X58.5Y-58.29
X62.0Y-109.8
X67.06Y-126.48
X67.81Y-128.98
X69.97Y-135.46
X69.98Y-102.56
X71.98Y-102.47
X72.09Y-137.26
X73.83Y-127.27
X77.57Y-114.35
X115.1Y-124.63
X124.0Y-119.44
X148.53Y-130.08
X149.97Y-121.6
X179.14Y-127.84
X207.0Y-141.25
X208.31Y-142.66
T2
X235.9Y-95.79
X235.9Y-97.79
X235.9Y-99.79
X235.9Y-101.79
T3
X62.0Y-50.975
X64.0Y-50.975
X66.0Y-50.975
X68.0Y-50.975
X96.0Y-50.975
X98.0Y-50.975
X100.0Y-50.975
X102.0Y-50.975
X170.0Y-51.0
X172.0Y-51.0
X174.0Y-51.0
X176.0Y-51.0
T4
X55.95Y-130.34
X55.95Y-140.5
X60.0Y-130.34
X60.0Y-140.5
X60.97Y-81.22
X60.97Y-91.38
X64.45Y-73.63
X64.45Y-83.79
X67.84Y-66.13
X67.84Y-76.29
X71.16Y-58.74
X71.16Y-68.9
X73.95Y-85.33
X73.95Y-89.66
X74.02Y-80.51
X74.05Y-75.66
X84.11Y-85.33
X84.11Y-89.66
X84.18Y-80.51
X84.21Y-75.66
X84.95Y-130.34
X84.95Y-140.5
X89.0Y-130.34
X89.0Y-140.5
X127.06Y-105.73
X127.06Y-115.89
X131.11Y-105.73
X131.11Y-115.89
X140.56Y-98.31
X142.5Y-119.92
X142.5Y-130.08
X145.56Y-98.31
X147.82Y-71.29
X147.82Y-81.45
X151.85Y-71.23
X153.5Y-119.92
X153.5Y-130.08
X159.06Y-98.39
X162.01Y-71.23
X163.0Y-120.0
X163.0Y-130.16
X164.06Y-98.39
X172.0Y-105.34
X172.0Y-115.5
X177.45Y-129.5
X177.45Y-139.66
X181.5Y-129.5
X181.5Y-139.66
X184.26Y-69.73
X184.26Y-79.89
X188.77Y-70.11
X190.45Y-122.08
X195.45Y-122.08
X198.93Y-70.11
X206.1Y-55.0
X206.1Y-60.0
X206.95Y-129.5
X206.95Y-139.66
X210.25Y-98.75
X210.25Y-103.75
X211.0Y-129.5
X211.0Y-139.66
X218.45Y-122.08
X223.45Y-122.08
X230.24Y-124.3
X240.4Y-124.3
T5
X139.06Y-107.0
X139.06Y-109.54
X139.06Y-112.08
X139.06Y-114.62
X147.0Y-107.0
X147.0Y-109.54
X147.0Y-112.08
X147.0Y-114.62
X157.59Y-107.08
X157.59Y-109.62
X157.59Y-112.16
X157.59Y-114.7
X165.53Y-107.08
X165.53Y-109.62
X165.53Y-112.16
X165.53Y-114.7
X188.95Y-130.5
X188.95Y-133.04
X188.95Y-135.58
X188.95Y-138.12
X196.89Y-130.5
X196.89Y-133.04
X196.89Y-135.58
X196.89Y-138.12
X217.01Y-130.0
X217.01Y-132.54
X217.01Y-135.08
X217.01Y-137.62
X224.95Y-130.0
X224.95Y-132.54
X224.95Y-135.08
X224.95Y-137.62
T6
X89.6Y-71.88
X89.6Y-74.42
X89.6Y-76.96
X89.6Y-79.5
X89.6Y-82.04
X89.6Y-84.58
X89.6Y-87.12
X89.6Y-89.66
X89.6Y-92.2
X89.6Y-94.74
X89.6Y-97.28
X89.6Y-99.82
X89.6Y-102.36
X89.6Y-104.9
X89.6Y-107.44
X89.6Y-109.98
X89.6Y-112.52
X89.6Y-115.06
X89.6Y-117.6
X115.0Y-71.88
X115.0Y-74.42
X115.0Y-76.96
X115.0Y-79.5
X115.0Y-82.04
X115.0Y-84.58
X115.0Y-87.12
X115.0Y-89.66
X115.0Y-92.2
X115.0Y-94.74
X115.0Y-97.28
X115.0Y-99.82
X115.0Y-102.36
X115.0Y-104.9
X115.0Y-107.44
X115.0Y-109.98
X115.0Y-112.52
X115.0Y-115.06
X115.0Y-117.6
T7
X47.5Y-147.45
X50.0Y-147.45
X52.5Y-147.45
X63.0Y-147.45
X65.5Y-147.45
X68.0Y-147.45
X78.1Y-147.45
X78.5Y-50.975
X80.6Y-147.45
X81.0Y-50.975
X83.1Y-147.45
X83.5Y-50.975
X86.0Y-50.975
X93.5Y-147.45
X96.0Y-147.45
X98.5Y-147.45
X109.0Y-147.475
X111.5Y-147.475
X113.25Y-50.975
X114.0Y-147.475
X115.75Y-50.975
X118.25Y-50.975
X120.75Y-50.975
X125.5Y-147.45
X128.0Y-147.45
X130.5Y-147.45
X152.5Y-51.0
X155.0Y-51.0
X157.5Y-51.0
X160.0Y-51.0
T8
X43.26Y-67.98
X43.26Y-70.52
X43.26Y-73.06
X43.26Y-75.6
X43.26Y-78.14
X43.26Y-80.68
X43.26Y-83.22
X43.26Y-85.76
X43.26Y-88.3
X43.26Y-90.84
X43.26Y-93.38
X43.26Y-95.92
X43.26Y-98.46
X43.26Y-101.0
X43.26Y-103.54
X43.26Y-106.08
X43.26Y-108.62
X43.26Y-111.16
X43.26Y-113.7
X43.26Y-116.24
X44.22Y-52.11
X45.8Y-67.98
X45.8Y-70.52
X45.8Y-73.06
X45.8Y-75.6
X45.8Y-78.14
X45.8Y-80.68
X45.8Y-83.22
X45.8Y-85.76
X45.8Y-88.3
X45.8Y-90.84
X45.8Y-93.38
X45.8Y-95.92
X45.8Y-98.46
X45.8Y-101.0
X45.8Y-103.54
X45.8Y-106.08
X45.8Y-108.62
X45.8Y-111.16
X45.8Y-113.7
X45.8Y-116.24
X46.76Y-52.11
X49.3Y-52.11
X51.84Y-52.11
X54.38Y-52.11
X58.25Y-99.64
X58.25Y-102.18
X58.25Y-104.72
X58.25Y-107.26
X58.25Y-109.8
X58.25Y-112.34
X58.25Y-114.88
X58.25Y-117.42
X58.25Y-119.96
X58.25Y-122.5
X130.0Y-48.0
X130.0Y-50.54
X130.0Y-53.08
X130.0Y-55.62
X130.0Y-58.16
X130.0Y-60.7
X138.335Y-70.97
X138.335Y-73.47
X140.5Y-148.45
X142.7Y-48.0
X142.7Y-50.54
X142.7Y-53.08
X142.7Y-55.62
X142.7Y-58.16
X142.7Y-60.7
X143.0Y-148.45
X145.5Y-148.45
X148.0Y-148.45
X157.0Y-148.45
X159.5Y-148.45
X162.0Y-148.45
X164.5Y-148.45
X173.37Y-70.81
X173.37Y-73.31
X198.5Y-101.5
X203.5Y-101.5
X244.2Y-72.3
X244.2Y-77.3
T9
X231.23Y-91.29
X231.23Y-94.29
X231.23Y-97.29
X231.23Y-100.29
X231.23Y-103.29
X231.23Y-106.29
X234.23Y-91.29
X234.23Y-94.29
X234.23Y-97.29
X234.23Y-100.29
X234.23Y-103.29
X234.23Y-106.29
T10
X142.5Y-134.5
X142.5Y-137.04
X142.5Y-139.58
X153.49Y-134.46
X153.49Y-137.0
X153.49Y-139.54
X163.0Y-134.5
X163.0Y-137.04
X163.0Y-139.58
T11
X173.88Y-147.95
X176.42Y-147.95
X178.96Y-147.95
X181.5Y-147.95
X188.38Y-147.95
X190.92Y-147.95
X193.46Y-147.95
X196.0Y-147.95
X202.88Y-147.95
X205.42Y-147.95
X207.96Y-147.95
X210.5Y-147.95
X217.42Y-147.95
X219.96Y-147.95
X222.5Y-147.95
X225.04Y-147.95
T12
X187.88Y-92.0
X203.12Y-92.0
X211.3Y-74.1
X233.8Y-74.1
X240.2Y-113.2
X240.2Y-118.2
T13
X215.6Y-60.525
X219.8Y-60.525
X224.0Y-60.525
X228.2Y-60.525
T14
G00X210.1Y-92.0
M15
G01X214.1Y-92.0
M16
G05
G00X219.4Y-92.0
M15
G01X223.4Y-92.0
M16
G05
M30
