%TF.GenerationSoftware,KiCad,Pcbnew,10.0.3*%
%TF.CreationDate,2026-06-23T15:24:23+01:00*%
%TF.ProjectId,PCB_Test,5043425f-5465-4737-942e-6b696361645f,rev?*%
%TF.SameCoordinates,Original*%
%TF.FileFunction,Copper,L3,Inr*%
%TF.FilePolarity,Positive*%
%FSLAX46Y46*%
G04 Gerber Fmt 4.6, Leading zero omitted, Abs format (unit mm)*
G04 Created by KiCad (PCBNEW 10.0.3) date 2026-06-23 15:24:23*
%MOMM*%
%LPD*%
G01*
G04 APERTURE LIST*
G04 Aperture macros list*
%AMRoundRect*
0 Rectangle with rounded corners*
0 $1 Rounding radius*
0 $2 $3 $4 $5 $6 $7 $8 $9 X,Y pos of 4 corners*
0 Add a 4 corners polygon primitive as box body*
4,1,4,$2,$3,$4,$5,$6,$7,$8,$9,$2,$3,0*
0 Add four circle primitives for the rounded corners*
1,1,$1+$1,$2,$3*
1,1,$1+$1,$4,$5*
1,1,$1+$1,$6,$7*
1,1,$1+$1,$8,$9*
0 Add four rect primitives between the rounded corners*
20,1,$1+$1,$2,$3,$4,$5,0*
20,1,$1+$1,$4,$5,$6,$7,0*
20,1,$1+$1,$6,$7,$8,$9,0*
20,1,$1+$1,$8,$9,$2,$3,0*%
G04 Aperture macros list end*
%TA.AperFunction,ComponentPad*%
%ADD10C,1.600000*%
%TD*%
%TA.AperFunction,ComponentPad*%
%ADD11R,1.700000X1.700000*%
%TD*%
%TA.AperFunction,ComponentPad*%
%ADD12C,1.700000*%
%TD*%
%TA.AperFunction,ComponentPad*%
%ADD13C,2.775000*%
%TD*%
%TA.AperFunction,ComponentPad*%
%ADD14R,1.100000X1.100000*%
%TD*%
%TA.AperFunction,ComponentPad*%
%ADD15C,1.100000*%
%TD*%
%TA.AperFunction,ComponentPad*%
%ADD16C,1.520000*%
%TD*%
%TA.AperFunction,ComponentPad*%
%ADD17R,1.508000X1.508000*%
%TD*%
%TA.AperFunction,ComponentPad*%
%ADD18C,1.508000*%
%TD*%
%TA.AperFunction,ComponentPad*%
%ADD19RoundRect,0.250000X0.750000X-0.600000X0.750000X0.600000X-0.750000X0.600000X-0.750000X-0.600000X0*%
%TD*%
%TA.AperFunction,ComponentPad*%
%ADD20O,2.000000X1.700000*%
%TD*%
%TA.AperFunction,ComponentPad*%
%ADD21RoundRect,0.250000X-0.620000X-0.845000X0.620000X-0.845000X0.620000X0.845000X-0.620000X0.845000X0*%
%TD*%
%TA.AperFunction,ComponentPad*%
%ADD22O,1.740000X2.190000*%
%TD*%
%TA.AperFunction,ComponentPad*%
%ADD23RoundRect,0.250000X-0.600000X-0.725000X0.600000X-0.725000X0.600000X0.725000X-0.600000X0.725000X0*%
%TD*%
%TA.AperFunction,ComponentPad*%
%ADD24O,1.700000X1.950000*%
%TD*%
%TA.AperFunction,ComponentPad*%
%ADD25R,1.338000X1.338000*%
%TD*%
%TA.AperFunction,ComponentPad*%
%ADD26C,1.338000*%
%TD*%
%TA.AperFunction,ComponentPad*%
%ADD27R,2.000000X1.905000*%
%TD*%
%TA.AperFunction,ComponentPad*%
%ADD28O,2.000000X1.905000*%
%TD*%
%TA.AperFunction,ComponentPad*%
%ADD29RoundRect,0.250001X-1.149999X1.149999X-1.149999X-1.149999X1.149999X-1.149999X1.149999X1.149999X0*%
%TD*%
%TA.AperFunction,ComponentPad*%
%ADD30C,2.800000*%
%TD*%
%TA.AperFunction,ComponentPad*%
%ADD31RoundRect,0.250000X-1.050000X-1.050000X1.050000X-1.050000X1.050000X1.050000X-1.050000X1.050000X0*%
%TD*%
%TA.AperFunction,ComponentPad*%
%ADD32C,2.600000*%
%TD*%
%TA.AperFunction,ComponentPad*%
%ADD33R,1.524000X1.524000*%
%TD*%
%TA.AperFunction,ComponentPad*%
%ADD34C,1.524000*%
%TD*%
%TA.AperFunction,ComponentPad*%
%ADD35RoundRect,0.250000X0.750000X-0.750000X0.750000X0.750000X-0.750000X0.750000X-0.750000X-0.750000X0*%
%TD*%
%TA.AperFunction,ComponentPad*%
%ADD36C,2.000000*%
%TD*%
%TA.AperFunction,ComponentPad*%
%ADD37R,1.408000X1.408000*%
%TD*%
%TA.AperFunction,ComponentPad*%
%ADD38C,1.408000*%
%TD*%
%TA.AperFunction,ComponentPad*%
%ADD39C,3.000000*%
%TD*%
%TA.AperFunction,ComponentPad*%
%ADD40O,8.000000X3.800000*%
%TD*%
%TA.AperFunction,ComponentPad*%
%ADD41RoundRect,0.250000X0.750000X0.750000X-0.750000X0.750000X-0.750000X-0.750000X0.750000X-0.750000X0*%
%TD*%
%TA.AperFunction,ViaPad*%
%ADD42C,0.600000*%
%TD*%
%TA.AperFunction,Conductor*%
%ADD43C,2.500000*%
%TD*%
%TA.AperFunction,Conductor*%
%ADD44C,1.500000*%
%TD*%
%TA.AperFunction,Conductor*%
%ADD45C,0.200000*%
%TD*%
%TA.AperFunction,Conductor*%
%ADD46C,3.000000*%
%TD*%
%TA.AperFunction,Conductor*%
%ADD47C,5.000000*%
%TD*%
G04 APERTURE END LIST*
D10*
%TO.N,+5V*%
%TO.C,C8*%
X206100000Y-60000000D03*
%TO.N,GND*%
X206100000Y-55000000D03*
%TD*%
D11*
%TO.N,Net-(J33-Pin_1)*%
%TO.C,J33*%
X130000000Y-48000000D03*
D12*
X130000000Y-50540000D03*
%TO.N,3V3*%
X130000000Y-53080000D03*
%TO.N,GND*%
X130000000Y-55620000D03*
%TO.N,GPIO 2*%
X130000000Y-58160000D03*
%TO.N,GPIO 3*%
X130000000Y-60700000D03*
%TD*%
D13*
%TO.N,unconnected-(J8-Pad1)*%
%TO.C,J8*%
X215600000Y-60525000D03*
%TO.N,GND*%
X219800000Y-60525000D03*
X224000000Y-60525000D03*
%TO.N,Net-(F4-Pad1)*%
X228200000Y-60525000D03*
%TD*%
D14*
%TO.N,unconnected-(J7-SIGNAL_1-Pad1)*%
%TO.C,J7*%
X235900000Y-95790000D03*
D15*
%TO.N,Net-(J7-SIGNAL_2)*%
X235900000Y-97790000D03*
X235900000Y-99790000D03*
%TO.N,unconnected-(J7-SIGNAL_4-Pad4)*%
X235900000Y-101790000D03*
D16*
%TO.N,/Power Distribution/12V_FUSED_MAIN*%
X234230000Y-91290000D03*
X234230000Y-94290000D03*
X234230000Y-97290000D03*
X234230000Y-100290000D03*
X234230000Y-103290000D03*
X234230000Y-106290000D03*
%TO.N,GND*%
X231230000Y-91290000D03*
X231230000Y-94290000D03*
X231230000Y-97290000D03*
X231230000Y-100290000D03*
X231230000Y-103290000D03*
X231230000Y-106290000D03*
%TD*%
D10*
%TO.N,IO 34*%
%TO.C,R7*%
X74050000Y-75660000D03*
%TO.N,Net-(U1-IO34)*%
X84210000Y-75660000D03*
%TD*%
D17*
%TO.N,+12V*%
%TO.C,J36*%
X164500000Y-148450000D03*
D18*
%TO.N,Net-(Q1-D)*%
X162000000Y-148450000D03*
%TO.N,Net-(Q2-D)*%
X159500000Y-148450000D03*
%TO.N,Net-(Q3-D)*%
X157000000Y-148450000D03*
%TD*%
D10*
%TO.N,IO 18*%
%TO.C,R12*%
X177450000Y-129500000D03*
%TO.N,GND*%
X177450000Y-139660000D03*
%TD*%
D11*
%TO.N,Net-(J34-Pin_1)*%
%TO.C,J34*%
X142700000Y-48000000D03*
D12*
X142700000Y-50540000D03*
%TO.N,+5V*%
X142700000Y-53080000D03*
%TO.N,GND*%
X142700000Y-55620000D03*
%TO.N,SCL_5V*%
X142700000Y-58160000D03*
%TO.N,SDA_5V*%
X142700000Y-60700000D03*
%TD*%
D19*
%TO.N,3V3*%
%TO.C,J5*%
X138335000Y-73470000D03*
D20*
%TO.N,Net-(J5-Pad2)*%
X138335000Y-70970000D03*
%TD*%
D21*
%TO.N,GND*%
%TO.C,J6*%
X217420000Y-147950000D03*
D22*
%TO.N,+12V*%
X219960000Y-147950000D03*
%TO.N,IO 35*%
X222500000Y-147950000D03*
%TO.N,Net-(J6-Pin_4)*%
X225040000Y-147950000D03*
%TD*%
D23*
%TO.N,3V3*%
%TO.C,J22*%
X47500000Y-147450000D03*
D24*
%TO.N,/DS_in*%
X50000000Y-147450000D03*
%TO.N,GND*%
X52500000Y-147450000D03*
%TD*%
D10*
%TO.N,GPIO 27*%
%TO.C,R21*%
X84950000Y-140500000D03*
%TO.N,Net-(J24-Pad2)*%
X84950000Y-130340000D03*
%TD*%
%TO.N,Net-(U1-3V3)*%
%TO.C,R5*%
X64450000Y-73630000D03*
%TO.N,IO 32*%
X64450000Y-83790000D03*
%TD*%
D23*
%TO.N,+5V*%
%TO.C,J26*%
X109000000Y-147475000D03*
D24*
%TO.N,GPIO 5*%
X111500000Y-147475000D03*
%TO.N,GND*%
X114000000Y-147475000D03*
%TD*%
D25*
%TO.N,N/C*%
%TO.C,U3*%
X217010000Y-130000000D03*
D26*
%TO.N,IO 21*%
X217010000Y-132540000D03*
%TO.N,GND*%
X217010000Y-135080000D03*
%TO.N,IO 22*%
X217010000Y-137620000D03*
%TO.N,Net-(J6-Pin_4)*%
X224950000Y-137620000D03*
%TO.N,+12V*%
X224950000Y-135080000D03*
%TO.N,Net-(J4-Pin_4)*%
X224950000Y-132540000D03*
%TO.N,N/C*%
X224950000Y-130000000D03*
%TD*%
D10*
%TO.N,IO 33*%
%TO.C,R10*%
X73950000Y-89660000D03*
%TO.N,Net-(U1-IO33)*%
X84110000Y-89660000D03*
%TD*%
D27*
%TO.N,Net-(Q3-G)*%
%TO.C,Q3*%
X163000000Y-134500000D03*
D28*
%TO.N,Net-(Q3-D)*%
X163000000Y-137040000D03*
%TO.N,GND*%
X163000000Y-139580000D03*
%TD*%
D23*
%TO.N,3V3*%
%TO.C,J23*%
X63000000Y-147450000D03*
D24*
%TO.N,/DS_in*%
X65500000Y-147450000D03*
%TO.N,GND*%
X68000000Y-147450000D03*
%TD*%
D23*
%TO.N,+5V*%
%TO.C,J27*%
X125500000Y-147450000D03*
D24*
%TO.N,GPIO 6*%
X128000000Y-147450000D03*
%TO.N,GND*%
X130500000Y-147450000D03*
%TD*%
D23*
%TO.N,GPIO 2*%
%TO.C,J13*%
X113250000Y-50975000D03*
D24*
%TO.N,GPIO 3*%
X115750000Y-50975000D03*
%TO.N,3V3*%
X118250000Y-50975000D03*
%TO.N,GND*%
X120750000Y-50975000D03*
%TD*%
D10*
%TO.N,IO 22*%
%TO.C,R13*%
X206950000Y-139660000D03*
%TO.N,GND*%
X206950000Y-129500000D03*
%TD*%
%TO.N,Net-(U1-3V3)*%
%TO.C,R3*%
X71160000Y-58740000D03*
%TO.N,IO 34*%
X71160000Y-68900000D03*
%TD*%
%TO.N,+12V*%
%TO.C,C3*%
X195450000Y-122080000D03*
%TO.N,GND*%
X190450000Y-122080000D03*
%TD*%
%TO.N,GND*%
%TO.C,R24*%
X162010000Y-71230000D03*
%TO.N,Net-(J5-Pad2)*%
X151850000Y-71230000D03*
%TD*%
D29*
%TO.N,+12V*%
%TO.C,J11*%
X240200000Y-113200000D03*
D30*
%TO.N,Net-(J11-Pin_2)*%
X240200000Y-118200000D03*
%TD*%
D31*
%TO.N,GND*%
%TO.C,D1*%
X187880000Y-92000000D03*
D32*
%TO.N,+12V*%
X203120000Y-92000000D03*
%TD*%
D33*
%TO.N,GPIO 2*%
%TO.C,J19*%
X62000000Y-50975000D03*
D34*
%TO.N,GPIO 3*%
X64000000Y-50975000D03*
%TO.N,3V3*%
X66000000Y-50975000D03*
%TO.N,GND*%
X68000000Y-50975000D03*
%TD*%
D23*
%TO.N,3V3*%
%TO.C,J25*%
X93500000Y-147450000D03*
D24*
%TO.N,Net-(J24-Pad2)*%
X96000000Y-147450000D03*
%TO.N,GND*%
X98500000Y-147450000D03*
%TD*%
D33*
%TO.N,GPIO 2*%
%TO.C,J15*%
X96000000Y-50975000D03*
D34*
%TO.N,GPIO 3*%
X98000000Y-50975000D03*
%TO.N,3V3*%
X100000000Y-50975000D03*
%TO.N,GND*%
X102000000Y-50975000D03*
%TD*%
D10*
%TO.N,Net-(U1-3V3)*%
%TO.C,R6*%
X60970000Y-81220000D03*
%TO.N,IO 33*%
X60970000Y-91380000D03*
%TD*%
D27*
%TO.N,Net-(Q2-G)*%
%TO.C,Q2*%
X153490000Y-134460000D03*
D28*
%TO.N,Net-(Q2-D)*%
X153490000Y-137000000D03*
%TO.N,GND*%
X153490000Y-139540000D03*
%TD*%
D35*
%TO.N,+5V*%
%TO.C,C7*%
X244200000Y-77300000D03*
D36*
%TO.N,GND*%
X244200000Y-72300000D03*
%TD*%
D10*
%TO.N,GPIO 22*%
%TO.C,R1*%
X55950000Y-140500000D03*
%TO.N,3V3*%
X55950000Y-130340000D03*
%TD*%
D23*
%TO.N,GPIO 2*%
%TO.C,J17*%
X78500000Y-50975000D03*
D24*
%TO.N,GPIO 3*%
X81000000Y-50975000D03*
%TO.N,3V3*%
X83500000Y-50975000D03*
%TO.N,GND*%
X86000000Y-50975000D03*
%TD*%
D10*
%TO.N,Net-(Q2-G)*%
%TO.C,R19*%
X153500000Y-130080000D03*
%TO.N,GND*%
X153500000Y-119920000D03*
%TD*%
%TO.N,IO 32*%
%TO.C,R9*%
X73950000Y-85330000D03*
%TO.N,Net-(U1-IO32)*%
X84110000Y-85330000D03*
%TD*%
%TO.N,GPIO 22*%
%TO.C,R2*%
X60000000Y-140500000D03*
%TO.N,/DS_in*%
X60000000Y-130340000D03*
%TD*%
D21*
%TO.N,GND*%
%TO.C,J4*%
X202880000Y-147950000D03*
D22*
%TO.N,+12V*%
X205420000Y-147950000D03*
%TO.N,IO 34*%
X207960000Y-147950000D03*
%TO.N,Net-(J4-Pin_4)*%
X210500000Y-147950000D03*
%TD*%
D25*
%TO.N,N/C*%
%TO.C,U2*%
X188950000Y-130500000D03*
D26*
%TO.N,IO 18*%
X188950000Y-133040000D03*
%TO.N,GND*%
X188950000Y-135580000D03*
%TO.N,IO 19*%
X188950000Y-138120000D03*
%TO.N,Net-(J3-Pin_4)*%
X196890000Y-138120000D03*
%TO.N,+12V*%
X196890000Y-135580000D03*
%TO.N,Net-(J2-Pin_4)*%
X196890000Y-133040000D03*
%TO.N,N/C*%
X196890000Y-130500000D03*
%TD*%
D10*
%TO.N,+12V*%
%TO.C,C10*%
X164060000Y-98390000D03*
%TO.N,GND*%
X159060000Y-98390000D03*
%TD*%
%TO.N,GPIO 20*%
%TO.C,R23*%
X147820000Y-81450000D03*
%TO.N,Net-(J5-Pad2)*%
X147820000Y-71290000D03*
%TD*%
%TO.N,IO 14*%
%TO.C,R18*%
X172000000Y-105340000D03*
%TO.N,GND*%
X172000000Y-115500000D03*
%TD*%
%TO.N,+12V*%
%TO.C,C9*%
X145560000Y-98310000D03*
%TO.N,GND*%
X140560000Y-98310000D03*
%TD*%
D11*
%TO.N,unconnected-(J10-Pin_1-Pad1)*%
%TO.C,J10*%
X43260000Y-67980000D03*
D12*
%TO.N,unconnected-(J10-Pin_2-Pad2)*%
X45800000Y-67980000D03*
%TO.N,unconnected-(J10-Pin_3-Pad3)*%
X43260000Y-70520000D03*
%TO.N,GPIO 14*%
X45800000Y-70520000D03*
%TO.N,GPIO 15*%
X43260000Y-73060000D03*
%TO.N,unconnected-(J10-Pin_6-Pad6)*%
X45800000Y-73060000D03*
%TO.N,unconnected-(J10-Pin_7-Pad7)*%
X43260000Y-75600000D03*
%TO.N,GPIO 23*%
X45800000Y-75600000D03*
%TO.N,GPIO 24*%
X43260000Y-78140000D03*
%TO.N,unconnected-(J10-Pin_10-Pad10)*%
X45800000Y-78140000D03*
%TO.N,unconnected-(J10-Pin_11-Pad11)*%
X43260000Y-80680000D03*
%TO.N,unconnected-(J10-Pin_12-Pad12)*%
X45800000Y-80680000D03*
%TO.N,GPIO 7*%
X43260000Y-83220000D03*
%TO.N,unconnected-(J10-Pin_14-Pad14)*%
X45800000Y-83220000D03*
%TO.N,unconnected-(J10-Pin_15-Pad15)*%
X43260000Y-85760000D03*
%TO.N,GPIO 12*%
X45800000Y-85760000D03*
%TO.N,unconnected-(J10-Pin_17-Pad17)*%
X43260000Y-88300000D03*
%TO.N,GPIO 16*%
X45800000Y-88300000D03*
%TO.N,GPIO 21*%
X43260000Y-90840000D03*
%TO.N,GPIO 20*%
X45800000Y-90840000D03*
%TO.N,GND*%
X43260000Y-93380000D03*
%TO.N,GPIO 26*%
X45800000Y-93380000D03*
%TO.N,unconnected-(J10-Pin_23-Pad23)*%
X43260000Y-95920000D03*
%TO.N,GPIO 13*%
X45800000Y-95920000D03*
%TO.N,GPIO 6*%
X43260000Y-98460000D03*
%TO.N,GPIO 5*%
X45800000Y-98460000D03*
%TO.N,unconnected-(J10-Pin_27-Pad27)*%
X43260000Y-101000000D03*
%TO.N,unconnected-(J10-Pin_28-Pad28)*%
X45800000Y-101000000D03*
%TO.N,GPIO 11*%
X43260000Y-103540000D03*
%TO.N,GPIO 9*%
X45800000Y-103540000D03*
%TO.N,GPIO 10*%
X43260000Y-106080000D03*
%TO.N,unconnected-(J10-Pin_32-Pad32)*%
X45800000Y-106080000D03*
%TO.N,GPIO 22*%
X43260000Y-108620000D03*
%TO.N,GPIO 27*%
X45800000Y-108620000D03*
%TO.N,unconnected-(J10-Pin_35-Pad35)*%
X43260000Y-111160000D03*
%TO.N,GND*%
X45800000Y-111160000D03*
%TO.N,unconnected-(J10-Pin_37-Pad37)*%
X43260000Y-113700000D03*
%TO.N,GPIO 3*%
X45800000Y-113700000D03*
%TO.N,GPIO 2*%
X43260000Y-116240000D03*
%TO.N,3V3*%
X45800000Y-116240000D03*
%TD*%
D25*
%TO.N,N/C*%
%TO.C,U5*%
X157590000Y-107080000D03*
D26*
%TO.N,IO 14*%
X157590000Y-109620000D03*
%TO.N,GND*%
X157590000Y-112160000D03*
%TO.N,unconnected-(U5-IN_B-Pad4)*%
X157590000Y-114700000D03*
%TO.N,unconnected-(U5-~{OUT_B}-Pad5)*%
X165530000Y-114700000D03*
%TO.N,+12V*%
X165530000Y-112160000D03*
%TO.N,Net-(Q3-G)*%
X165530000Y-109620000D03*
%TO.N,N/C*%
X165530000Y-107080000D03*
%TD*%
D10*
%TO.N,+12V*%
%TO.C,C5*%
X210250000Y-98750000D03*
%TO.N,GND*%
X210250000Y-103750000D03*
%TD*%
D23*
%TO.N,3V3*%
%TO.C,J24*%
X78100000Y-147450000D03*
D24*
%TO.N,Net-(J24-Pad2)*%
X80600000Y-147450000D03*
%TO.N,GND*%
X83100000Y-147450000D03*
%TD*%
D10*
%TO.N,IO 35*%
%TO.C,R8*%
X74020000Y-80510000D03*
%TO.N,Net-(U1-IO35)*%
X84180000Y-80510000D03*
%TD*%
D11*
%TO.N,GPIO 13*%
%TO.C,J1*%
X44220000Y-52110000D03*
D12*
%TO.N,GPIO 26*%
X46760000Y-52110000D03*
%TO.N,GND*%
X49300000Y-52110000D03*
%TO.N,GPIO 12*%
X51840000Y-52110000D03*
%TO.N,GPIO 16*%
X54380000Y-52110000D03*
%TD*%
D10*
%TO.N,+12V*%
%TO.C,C4*%
X223450000Y-122080000D03*
%TO.N,GND*%
X218450000Y-122080000D03*
%TD*%
%TO.N,IO 21*%
%TO.C,R14*%
X211000000Y-139660000D03*
%TO.N,GND*%
X211000000Y-129500000D03*
%TD*%
%TO.N,GPIO 27*%
%TO.C,R22*%
X89000000Y-140500000D03*
%TO.N,3V3*%
X89000000Y-130340000D03*
%TD*%
D23*
%TO.N,SCL_5V*%
%TO.C,J9*%
X152500000Y-51000000D03*
D24*
%TO.N,SDA_5V*%
X155000000Y-51000000D03*
%TO.N,+5V*%
X157500000Y-51000000D03*
%TO.N,GND*%
X160000000Y-51000000D03*
%TD*%
D11*
%TO.N,+5V*%
%TO.C,J21*%
X58250000Y-99640000D03*
D12*
%TO.N,GPIO 2*%
X58250000Y-102180000D03*
%TO.N,GPIO 3*%
X58250000Y-104720000D03*
%TO.N,GPIO 10*%
X58250000Y-107260000D03*
%TO.N,GPIO 9*%
X58250000Y-109800000D03*
%TO.N,GPIO 11*%
X58250000Y-112340000D03*
%TO.N,GPIO 23*%
X58250000Y-114880000D03*
%TO.N,GPIO 24*%
X58250000Y-117420000D03*
%TO.N,GPIO 7*%
X58250000Y-119960000D03*
%TO.N,GND*%
X58250000Y-122500000D03*
%TD*%
D25*
%TO.N,N/C*%
%TO.C,U4*%
X139060000Y-107000000D03*
D26*
%TO.N,IO 12*%
X139060000Y-109540000D03*
%TO.N,GND*%
X139060000Y-112080000D03*
%TO.N,IO 13*%
X139060000Y-114620000D03*
%TO.N,Net-(Q2-G)*%
X147000000Y-114620000D03*
%TO.N,+12V*%
X147000000Y-112080000D03*
%TO.N,Net-(Q1-G)*%
X147000000Y-109540000D03*
%TO.N,N/C*%
X147000000Y-107000000D03*
%TD*%
D17*
%TO.N,+12V*%
%TO.C,J35*%
X148000000Y-148450000D03*
D18*
%TO.N,Net-(Q1-D)*%
X145500000Y-148450000D03*
%TO.N,Net-(Q2-D)*%
X143000000Y-148450000D03*
%TO.N,Net-(Q3-D)*%
X140500000Y-148450000D03*
%TD*%
D33*
%TO.N,SCL_5V*%
%TO.C,J18*%
X170000000Y-51000000D03*
D34*
%TO.N,SDA_5V*%
X172000000Y-51000000D03*
%TO.N,+5V*%
X174000000Y-51000000D03*
%TO.N,GND*%
X176000000Y-51000000D03*
%TD*%
D10*
%TO.N,Net-(Q1-G)*%
%TO.C,R17*%
X142500000Y-130080000D03*
%TO.N,GND*%
X142500000Y-119920000D03*
%TD*%
D37*
%TO.N,Net-(U1-3V3)*%
%TO.C,U1*%
X89600000Y-71880000D03*
D38*
%TO.N,unconnected-(U1-EN-PadJ2_2)*%
X89600000Y-74420000D03*
%TO.N,unconnected-(U1-SENSOR_VP-PadJ2_3)*%
X89600000Y-76960000D03*
%TO.N,unconnected-(U1-SENSOR_VN-PadJ2_4)*%
X89600000Y-79500000D03*
%TO.N,Net-(U1-IO34)*%
X89600000Y-82040000D03*
%TO.N,Net-(U1-IO35)*%
X89600000Y-84580000D03*
%TO.N,Net-(U1-IO32)*%
X89600000Y-87120000D03*
%TO.N,Net-(U1-IO33)*%
X89600000Y-89660000D03*
%TO.N,unconnected-(U1-IO25-PadJ2_9)*%
X89600000Y-92200000D03*
%TO.N,GPIO 14*%
X89600000Y-94740000D03*
%TO.N,GPIO 15*%
X89600000Y-97280000D03*
%TO.N,IO 14*%
X89600000Y-99820000D03*
%TO.N,IO 12*%
X89600000Y-102360000D03*
%TO.N,unconnected-(U1-GND_J2_14-PadJ2_14)*%
X89600000Y-104900000D03*
%TO.N,IO 13*%
X89600000Y-107440000D03*
%TO.N,unconnected-(U1-SD2-PadJ2_16)*%
X89600000Y-109980000D03*
%TO.N,unconnected-(U1-SD3-PadJ2_17)*%
X89600000Y-112520000D03*
%TO.N,unconnected-(U1-CMD-PadJ2_18)*%
X89600000Y-115060000D03*
%TO.N,+5V*%
X89600000Y-117600000D03*
%TO.N,GND*%
X115000000Y-71880000D03*
%TO.N,unconnected-(U1-IO23-PadJ3_2)*%
X115000000Y-74420000D03*
%TO.N,IO 22*%
X115000000Y-76960000D03*
%TO.N,unconnected-(U1-TXD0-PadJ3_4)*%
X115000000Y-79500000D03*
%TO.N,unconnected-(U1-RXD0-PadJ3_5)*%
X115000000Y-82040000D03*
%TO.N,IO 21*%
X115000000Y-84580000D03*
%TO.N,unconnected-(U1-GND_J3_7-PadJ3_7)*%
X115000000Y-87120000D03*
%TO.N,IO 19*%
X115000000Y-89660000D03*
%TO.N,IO 18*%
X115000000Y-92200000D03*
%TO.N,unconnected-(U1-IO5-PadJ3_10)*%
X115000000Y-94740000D03*
%TO.N,unconnected-(U1-IO17-PadJ3_11)*%
X115000000Y-97280000D03*
%TO.N,unconnected-(U1-IO16-PadJ3_12)*%
X115000000Y-99820000D03*
%TO.N,unconnected-(U1-IO4-PadJ3_13)*%
X115000000Y-102360000D03*
%TO.N,unconnected-(U1-IO0-PadJ3_14)*%
X115000000Y-104900000D03*
%TO.N,unconnected-(U1-IO2-PadJ3_15)*%
X115000000Y-107440000D03*
%TO.N,unconnected-(U1-IO15-PadJ3_16)*%
X115000000Y-109980000D03*
%TO.N,unconnected-(U1-SD1-PadJ3_17)*%
X115000000Y-112520000D03*
%TO.N,unconnected-(U1-SD0-PadJ3_18)*%
X115000000Y-115060000D03*
%TO.N,unconnected-(U1-CLK-PadJ3_19)*%
X115000000Y-117600000D03*
%TD*%
D10*
%TO.N,IO 12*%
%TO.C,R16*%
X127060000Y-105730000D03*
%TO.N,GND*%
X127060000Y-115890000D03*
%TD*%
%TO.N,GPIO 21*%
%TO.C,R25*%
X198930000Y-70110000D03*
%TO.N,Net-(J20-Pad2)*%
X188770000Y-70110000D03*
%TD*%
%TO.N,Net-(Q3-G)*%
%TO.C,R20*%
X163000000Y-130160000D03*
%TO.N,GND*%
X163000000Y-120000000D03*
%TD*%
D21*
%TO.N,GND*%
%TO.C,J3*%
X188380000Y-147950000D03*
D22*
%TO.N,+12V*%
X190920000Y-147950000D03*
%TO.N,IO 33*%
X193460000Y-147950000D03*
%TO.N,Net-(J3-Pin_4)*%
X196000000Y-147950000D03*
%TD*%
D10*
%TO.N,IO 19*%
%TO.C,R11*%
X181500000Y-129500000D03*
%TO.N,GND*%
X181500000Y-139660000D03*
%TD*%
%TO.N,IO 13*%
%TO.C,R15*%
X131110000Y-105730000D03*
%TO.N,GND*%
X131110000Y-115890000D03*
%TD*%
D39*
%TO.N,Net-(F4-Pad1)*%
%TO.C,F4*%
X233800000Y-74100000D03*
%TO.N,+5V*%
X211300000Y-74100000D03*
%TD*%
D40*
%TO.N,+12V*%
%TO.C,F3*%
X212100000Y-92000000D03*
%TO.N,/Power Distribution/12V_FUSED_MAIN*%
X221400000Y-92000000D03*
%TD*%
D10*
%TO.N,Net-(U1-3V3)*%
%TO.C,R4*%
X67840000Y-66130000D03*
%TO.N,IO 35*%
X67840000Y-76290000D03*
%TD*%
D21*
%TO.N,GND*%
%TO.C,J2*%
X173880000Y-147950000D03*
D22*
%TO.N,+12V*%
X176420000Y-147950000D03*
%TO.N,IO 32*%
X178960000Y-147950000D03*
%TO.N,Net-(J2-Pin_4)*%
X181500000Y-147950000D03*
%TD*%
D10*
%TO.N,GND*%
%TO.C,R26*%
X184260000Y-79890000D03*
%TO.N,Net-(J20-Pad2)*%
X184260000Y-69730000D03*
%TD*%
D19*
%TO.N,3V3*%
%TO.C,J20*%
X173370000Y-73310000D03*
D20*
%TO.N,Net-(J20-Pad2)*%
X173370000Y-70810000D03*
%TD*%
D27*
%TO.N,Net-(Q1-G)*%
%TO.C,Q1*%
X142500000Y-134500000D03*
D28*
%TO.N,Net-(Q1-D)*%
X142500000Y-137040000D03*
%TO.N,GND*%
X142500000Y-139580000D03*
%TD*%
D41*
%TO.N,+12V*%
%TO.C,C6*%
X203500000Y-101500000D03*
D36*
%TO.N,GND*%
X198500000Y-101500000D03*
%TD*%
D10*
%TO.N,Net-(J11-Pin_2)*%
%TO.C,R27*%
X240400000Y-124300000D03*
%TO.N,GND*%
X230240000Y-124300000D03*
%TD*%
D42*
%TO.N,GPIO 2*%
X54290000Y-95210000D03*
X54400000Y-72860000D03*
X57140000Y-65000000D03*
X54290000Y-81800000D03*
%TO.N,GPIO 3*%
X54000000Y-113800000D03*
X49800000Y-113800000D03*
X51760000Y-79000000D03*
X58500000Y-58290000D03*
X51730000Y-72830000D03*
%TO.N,IO 18*%
X179140000Y-127840000D03*
%TO.N,GPIO 27*%
X67060000Y-126480000D03*
X73830000Y-127270000D03*
%TO.N,IO 32*%
X72090000Y-137260000D03*
X71980000Y-102470000D03*
%TO.N,GPIO 5*%
X67810000Y-128980000D03*
X50630000Y-119240000D03*
%TO.N,IO 22*%
X207000000Y-141250000D03*
X208310000Y-142660000D03*
%TO.N,IO 33*%
X69980000Y-102560000D03*
%TO.N,GPIO 6*%
X69970000Y-135460000D03*
%TO.N,GPIO 22*%
X40280000Y-120980000D03*
X40220000Y-117760000D03*
%TO.N,GPIO 20*%
X47900000Y-86900000D03*
X47900000Y-82100000D03*
X47940000Y-69100000D03*
X47900000Y-75100000D03*
%TO.N,IO 14*%
X77570000Y-114350000D03*
%TO.N,GPIO 23*%
X62000000Y-109800000D03*
X56300000Y-91100000D03*
%TO.N,GPIO 7*%
X39300000Y-84700000D03*
X33300000Y-88400000D03*
%TO.N,GPIO 12*%
X50530000Y-70100000D03*
X50530000Y-65670000D03*
X50500000Y-76600000D03*
%TO.N,GPIO 16*%
X53200000Y-86100000D03*
X53550000Y-76280000D03*
X53550000Y-68770000D03*
X53230000Y-80260000D03*
%TO.N,GPIO 21*%
X36600000Y-83200000D03*
%TO.N,GPIO 26*%
X49700000Y-84100000D03*
X49700000Y-78300000D03*
X49300000Y-61700000D03*
X49700000Y-87100000D03*
X49284265Y-72800000D03*
%TO.N,GPIO 13*%
X34600000Y-92800000D03*
%TO.N,GPIO 9*%
X49750000Y-111850000D03*
X55400000Y-112400000D03*
%TO.N,GPIO 10*%
X39500000Y-107400000D03*
X55200000Y-110000000D03*
%TO.N,IO 12*%
X115100000Y-124630000D03*
X124000000Y-119440000D03*
%TO.N,Net-(Q1-G)*%
X148530000Y-130080000D03*
X149970000Y-121600000D03*
%TD*%
%TO.N,+5V*%
D43*
X68850000Y-108350000D02*
X68850000Y-117220000D01*
X112830000Y-135790000D02*
X110910000Y-137710000D01*
X89600000Y-117600000D02*
X90800000Y-117600000D01*
X240720000Y-77300000D02*
X244200000Y-77300000D01*
X210390000Y-82760000D02*
X209360000Y-82760000D01*
X110910000Y-137710000D02*
X108980000Y-139640000D01*
X145440000Y-53080000D02*
X149810000Y-57450000D01*
D44*
X174000000Y-55470000D02*
X175000000Y-56470000D01*
D43*
X211300000Y-74100000D02*
X211300000Y-65200000D01*
X121060000Y-135790000D02*
X112830000Y-135790000D01*
X121060000Y-101970000D02*
X132580000Y-90450000D01*
X125500000Y-147450000D02*
X125500000Y-140230000D01*
X167930000Y-63540000D02*
X175000000Y-56470000D01*
X181330000Y-62800000D02*
X201000000Y-62800000D01*
X157500000Y-51000000D02*
X157500000Y-57450000D01*
X132580000Y-90450000D02*
X132580000Y-90420000D01*
X60140000Y-99640000D02*
X68850000Y-108350000D01*
X203800000Y-60000000D02*
X206100000Y-60000000D01*
X142700000Y-53080000D02*
X145440000Y-53080000D01*
X201000000Y-62800000D02*
X203800000Y-60000000D01*
X68850000Y-117220000D02*
X69610000Y-117980000D01*
X132580000Y-90420000D02*
X134440000Y-88560000D01*
X175000000Y-56470000D02*
X181330000Y-62800000D01*
X109000000Y-139660000D02*
X109000000Y-147475000D01*
X69610000Y-117980000D02*
X89220000Y-117980000D01*
X185690000Y-85370000D02*
X188300000Y-82760000D01*
X173740000Y-88560000D02*
X176930000Y-85370000D01*
X89220000Y-117980000D02*
X89600000Y-117600000D01*
X176930000Y-85370000D02*
X185690000Y-85370000D01*
X90800000Y-117600000D02*
X110910000Y-137710000D01*
X163590000Y-63540000D02*
X167930000Y-63540000D01*
X125500000Y-140230000D02*
X121060000Y-135790000D01*
X108980000Y-139640000D02*
X109000000Y-139660000D01*
X157500000Y-57450000D02*
X163590000Y-63540000D01*
X134440000Y-88560000D02*
X173740000Y-88560000D01*
X209360000Y-82760000D02*
X206100000Y-79500000D01*
X210390000Y-82760000D02*
X235260000Y-82760000D01*
X121060000Y-135790000D02*
X121060000Y-101970000D01*
X149810000Y-57450000D02*
X157500000Y-57450000D01*
D44*
X174000000Y-51000000D02*
X174000000Y-55470000D01*
D43*
X188300000Y-82760000D02*
X210390000Y-82760000D01*
X58250000Y-99640000D02*
X60140000Y-99640000D01*
X235260000Y-82760000D02*
X240720000Y-77300000D01*
X206100000Y-79500000D02*
X206100000Y-60000000D01*
X211300000Y-65200000D02*
X206100000Y-60000000D01*
%TO.N,3V3*%
D45*
X129880000Y-73470000D02*
X125530000Y-69120000D01*
X78100000Y-147450000D02*
X78100000Y-151510000D01*
X118250000Y-50975000D02*
X118250000Y-54910000D01*
X55950000Y-130340000D02*
X55950000Y-126390000D01*
X47500000Y-138790000D02*
X55950000Y-130340000D01*
X118250000Y-54910000D02*
X115470000Y-57690000D01*
X138335000Y-73470000D02*
X138335000Y-81435000D01*
X78100000Y-151510000D02*
X79090000Y-152500000D01*
X87030000Y-57590000D02*
X83500000Y-54060000D01*
X55950000Y-126390000D02*
X45800000Y-116240000D01*
X79090000Y-152500000D02*
X92500000Y-152500000D01*
X78100000Y-151600000D02*
X77050000Y-152650000D01*
X65000000Y-152650000D02*
X63110000Y-150760000D01*
X63110000Y-150760000D02*
X63000000Y-150650000D01*
X56570000Y-57300000D02*
X61350000Y-57300000D01*
X95710000Y-57590000D02*
X87030000Y-57590000D01*
X60980000Y-152760000D02*
X62980000Y-150760000D01*
X118250000Y-55030000D02*
X118250000Y-54910000D01*
X100000000Y-53250000D02*
X100000000Y-50975000D01*
X83500000Y-54060000D02*
X83500000Y-50975000D01*
X48540000Y-65330000D02*
X56570000Y-57300000D01*
X169280000Y-85050000D02*
X173370000Y-80960000D01*
X47500000Y-147450000D02*
X47500000Y-138790000D01*
X78100000Y-151510000D02*
X78100000Y-151600000D01*
X77050000Y-152650000D02*
X65000000Y-152650000D01*
X80260000Y-57300000D02*
X83500000Y-54060000D01*
X125530000Y-57550000D02*
X120770000Y-57550000D01*
X62980000Y-150760000D02*
X63110000Y-150760000D01*
X66000000Y-52600000D02*
X66000000Y-50975000D01*
X130000000Y-53080000D02*
X125530000Y-57550000D01*
X138335000Y-73470000D02*
X129880000Y-73470000D01*
X104440000Y-57690000D02*
X101000000Y-54250000D01*
X92500000Y-152500000D02*
X93500000Y-151500000D01*
X50050000Y-152760000D02*
X60980000Y-152760000D01*
X173370000Y-80960000D02*
X173370000Y-73310000D01*
X63000000Y-150650000D02*
X63000000Y-147450000D01*
X99975000Y-53325000D02*
X95710000Y-57590000D01*
X45800000Y-116240000D02*
X48540000Y-113500000D01*
X70700000Y-57300000D02*
X80260000Y-57300000D01*
X125530000Y-69120000D02*
X125530000Y-57550000D01*
X93500000Y-151500000D02*
X93500000Y-147450000D01*
X67000000Y-53600000D02*
X70700000Y-57300000D01*
X67000000Y-53600000D02*
X66000000Y-52600000D01*
X47500000Y-147450000D02*
X47500000Y-150210000D01*
X100075000Y-53325000D02*
X99975000Y-53325000D01*
X141950000Y-85050000D02*
X169280000Y-85050000D01*
X93500000Y-147450000D02*
X93500000Y-134840000D01*
X48540000Y-113500000D02*
X48540000Y-65330000D01*
X61350000Y-57300000D02*
X66025000Y-52625000D01*
X66025000Y-52625000D02*
X67000000Y-53600000D01*
X101000000Y-54250000D02*
X100000000Y-53250000D01*
X120770000Y-57550000D02*
X118250000Y-55030000D01*
X138335000Y-81435000D02*
X141950000Y-85050000D01*
X115470000Y-57690000D02*
X104440000Y-57690000D01*
X47500000Y-150210000D02*
X50050000Y-152760000D01*
X101000000Y-54250000D02*
X100075000Y-53325000D01*
X93500000Y-134840000D02*
X89000000Y-130340000D01*
%TO.N,Net-(F4-Pad1)*%
D46*
X228200000Y-60525000D02*
X233900000Y-66225000D01*
X233900000Y-66225000D02*
X233900000Y-74000000D01*
X233900000Y-74000000D02*
X233800000Y-74100000D01*
%TO.N,+12V*%
D45*
X164060000Y-98390000D02*
X164060000Y-98470000D01*
X164060000Y-98470000D02*
X163980000Y-98550000D01*
%TO.N,Net-(U1-3V3)*%
X71160000Y-58740000D02*
X76460000Y-58740000D01*
X60970000Y-81220000D02*
X60970000Y-71740000D01*
X60970000Y-71740000D02*
X60970000Y-68930000D01*
X64450000Y-73630000D02*
X62860000Y-73630000D01*
X67840000Y-66130000D02*
X67840000Y-62060000D01*
X76460000Y-58740000D02*
X89600000Y-71880000D01*
X67840000Y-62060000D02*
X71160000Y-58740000D01*
X62860000Y-73630000D02*
X60970000Y-71740000D01*
X60970000Y-68930000D02*
X67840000Y-62060000D01*
%TO.N,Net-(J11-Pin_2)*%
D47*
X240400000Y-124300000D02*
X240400000Y-118400000D01*
X240400000Y-118400000D02*
X240200000Y-118200000D01*
%TD*%
%TA.AperFunction,Conductor*%
%TO.N,+12V*%
G36*
X168962084Y-113501994D02*
G01*
X168962083Y-113501996D01*
X168961783Y-113533444D01*
X168624361Y-148840850D01*
X168624100Y-148847801D01*
X168602763Y-149172307D01*
X168601074Y-149186109D01*
X168544157Y-149502745D01*
X168540933Y-149516272D01*
X168448923Y-149824541D01*
X168444205Y-149837621D01*
X168318259Y-150133647D01*
X168312106Y-150146118D01*
X168153797Y-150426200D01*
X168146287Y-150437902D01*
X167957633Y-150698474D01*
X167948860Y-150709263D01*
X167732199Y-150947093D01*
X167722273Y-150956831D01*
X167511028Y-151142011D01*
X167480362Y-151168893D01*
X167469407Y-151177459D01*
X167205261Y-151361110D01*
X167193417Y-151368395D01*
X166910374Y-151521315D01*
X166897789Y-151527228D01*
X166599404Y-151647496D01*
X166586235Y-151651963D01*
X166276268Y-151738063D01*
X166262683Y-151741028D01*
X165945013Y-151791884D01*
X165931181Y-151793309D01*
X165609814Y-151808278D01*
X165595912Y-151808145D01*
X165274800Y-151787040D01*
X165261004Y-151785353D01*
X164944256Y-151728444D01*
X164930740Y-151725224D01*
X164798839Y-151685875D01*
X164622361Y-151633227D01*
X164609287Y-151628514D01*
X164313136Y-151502583D01*
X164300670Y-151496436D01*
X164020467Y-151338151D01*
X164008769Y-151330648D01*
X163986063Y-151314220D01*
X163748044Y-151142003D01*
X163737272Y-151133250D01*
X163499284Y-150916601D01*
X163489549Y-150906685D01*
X163277309Y-150664774D01*
X163268753Y-150653841D01*
X163084919Y-150389697D01*
X163077635Y-150377869D01*
X162924514Y-150094807D01*
X162918597Y-150082232D01*
X162895135Y-150024123D01*
X162836804Y-149879646D01*
X162829960Y-149810116D01*
X162861793Y-149747920D01*
X162878899Y-149732910D01*
X163012689Y-149635706D01*
X163185706Y-149462689D01*
X163274582Y-149340362D01*
X163329911Y-149297698D01*
X163399525Y-149291719D01*
X163461320Y-149324325D01*
X163488334Y-149363164D01*
X163494211Y-149376474D01*
X163494214Y-149376479D01*
X163573520Y-149455785D01*
X163573525Y-149455788D01*
X163676123Y-149501089D01*
X163701206Y-149503999D01*
X164249999Y-149503999D01*
X164250000Y-149503998D01*
X164250000Y-148883012D01*
X164307007Y-148915925D01*
X164434174Y-148950000D01*
X164565826Y-148950000D01*
X164692993Y-148915925D01*
X164750000Y-148883012D01*
X164750000Y-149503999D01*
X165298786Y-149503999D01*
X165298808Y-149503997D01*
X165323869Y-149501091D01*
X165323873Y-149501090D01*
X165426474Y-149455788D01*
X165426479Y-149455785D01*
X165505785Y-149376479D01*
X165505788Y-149376474D01*
X165551089Y-149273877D01*
X165551089Y-149273875D01*
X165553999Y-149248794D01*
X165554000Y-149248791D01*
X165554000Y-148700000D01*
X164933012Y-148700000D01*
X164965925Y-148642993D01*
X165000000Y-148515826D01*
X165000000Y-148384174D01*
X164965925Y-148257007D01*
X164933012Y-148200000D01*
X165553999Y-148200000D01*
X165553999Y-147651214D01*
X165553997Y-147651191D01*
X165551091Y-147626130D01*
X165551090Y-147626126D01*
X165505788Y-147523525D01*
X165505785Y-147523520D01*
X165426479Y-147444214D01*
X165426474Y-147444211D01*
X165323876Y-147398910D01*
X165298794Y-147396000D01*
X164750000Y-147396000D01*
X164750000Y-148016988D01*
X164692993Y-147984075D01*
X164565826Y-147950000D01*
X164434174Y-147950000D01*
X164307007Y-147984075D01*
X164250000Y-148016988D01*
X164250000Y-147396000D01*
X163701214Y-147396000D01*
X163701191Y-147396002D01*
X163676130Y-147398908D01*
X163676126Y-147398909D01*
X163573525Y-147444211D01*
X163573520Y-147444214D01*
X163494214Y-147523520D01*
X163494210Y-147523526D01*
X163488333Y-147536837D01*
X163443247Y-147590213D01*
X163376460Y-147610740D01*
X163309178Y-147591901D01*
X163274581Y-147559636D01*
X163190719Y-147444211D01*
X163185706Y-147437311D01*
X163012689Y-147264294D01*
X162814736Y-147120472D01*
X162720017Y-147072210D01*
X162669222Y-147024237D01*
X162652319Y-146960643D01*
X162700666Y-141455274D01*
X162720938Y-141388413D01*
X162774142Y-141343124D01*
X162833434Y-141334515D01*
X162833551Y-141332735D01*
X162837594Y-141333000D01*
X162837602Y-141333000D01*
X163162391Y-141333000D01*
X163162398Y-141333000D01*
X163390227Y-141303005D01*
X163612192Y-141243530D01*
X163824496Y-141155591D01*
X164023504Y-141040693D01*
X164205813Y-140900803D01*
X164368303Y-140738313D01*
X164508193Y-140556004D01*
X164623091Y-140356996D01*
X164711030Y-140144692D01*
X164770505Y-139922727D01*
X164800500Y-139694898D01*
X164800500Y-139465102D01*
X164770505Y-139237273D01*
X164711030Y-139015308D01*
X164623091Y-138803004D01*
X164508193Y-138603996D01*
X164368303Y-138421687D01*
X164344296Y-138397680D01*
X164310812Y-138336360D01*
X164315795Y-138266669D01*
X164344296Y-138222319D01*
X164368303Y-138198313D01*
X164508193Y-138016004D01*
X164623091Y-137816996D01*
X164711030Y-137604692D01*
X164770505Y-137382727D01*
X164800500Y-137154898D01*
X164800500Y-136925102D01*
X164770505Y-136697273D01*
X164711030Y-136475308D01*
X164623091Y-136263004D01*
X164623089Y-136263001D01*
X164623087Y-136262996D01*
X164560302Y-136154250D01*
X164543829Y-136086350D01*
X164566681Y-136020323D01*
X164580005Y-136004571D01*
X164629816Y-135954762D01*
X164725789Y-135802022D01*
X164785368Y-135631755D01*
X164800500Y-135497454D01*
X164800500Y-133502546D01*
X164785368Y-133368245D01*
X164725789Y-133197978D01*
X164629816Y-133045238D01*
X164502262Y-132917684D01*
X164349523Y-132821711D01*
X164179254Y-132762131D01*
X164179249Y-132762130D01*
X164044960Y-132747000D01*
X164044954Y-132747000D01*
X162902234Y-132747000D01*
X162835195Y-132727315D01*
X162789440Y-132674511D01*
X162778239Y-132621911D01*
X162784724Y-131883408D01*
X162804996Y-131816547D01*
X162858200Y-131771258D01*
X162908719Y-131760500D01*
X163125961Y-131760500D01*
X163125962Y-131760500D01*
X163374785Y-131721090D01*
X163614379Y-131643241D01*
X163838845Y-131528870D01*
X164042656Y-131380793D01*
X164220793Y-131202656D01*
X164368870Y-130998845D01*
X164483241Y-130774379D01*
X164561090Y-130534785D01*
X164600500Y-130285962D01*
X164600500Y-130034038D01*
X164561090Y-129785215D01*
X164483241Y-129545621D01*
X164483239Y-129545618D01*
X164483239Y-129545616D01*
X164441747Y-129464184D01*
X164368870Y-129321155D01*
X164349952Y-129295117D01*
X164220798Y-129117350D01*
X164220794Y-129117345D01*
X164042654Y-128939205D01*
X164042649Y-128939201D01*
X163838848Y-128791132D01*
X163838847Y-128791131D01*
X163838845Y-128791130D01*
X163768747Y-128755413D01*
X163614383Y-128676760D01*
X163374785Y-128598910D01*
X163125962Y-128559500D01*
X162939007Y-128559500D01*
X162871968Y-128539815D01*
X162826213Y-128487011D01*
X162815013Y-128434415D01*
X162873948Y-121723411D01*
X162894220Y-121656547D01*
X162947424Y-121611258D01*
X162997943Y-121600500D01*
X163125961Y-121600500D01*
X163125962Y-121600500D01*
X163374785Y-121561090D01*
X163614379Y-121483241D01*
X163838845Y-121368870D01*
X164042656Y-121220793D01*
X164220793Y-121042656D01*
X164368870Y-120838845D01*
X164483241Y-120614379D01*
X164561090Y-120374785D01*
X164600500Y-120125962D01*
X164600500Y-119874038D01*
X164561090Y-119625215D01*
X164483241Y-119385621D01*
X164483239Y-119385618D01*
X164483239Y-119385616D01*
X164441747Y-119304184D01*
X164368870Y-119161155D01*
X164349952Y-119135117D01*
X164220798Y-118957350D01*
X164220794Y-118957345D01*
X164042654Y-118779205D01*
X164042649Y-118779201D01*
X163838848Y-118631132D01*
X163838847Y-118631131D01*
X163838845Y-118631130D01*
X163768747Y-118595413D01*
X163614383Y-118516760D01*
X163374785Y-118438910D01*
X163125962Y-118399500D01*
X163028231Y-118399500D01*
X162961192Y-118379815D01*
X162915437Y-118327011D01*
X162904236Y-118274411D01*
X162936694Y-114578387D01*
X162944202Y-113723397D01*
X162945676Y-113555557D01*
X162945675Y-113555556D01*
X162970872Y-110686439D01*
X164515596Y-110683783D01*
X164572685Y-110740872D01*
X164759814Y-110876829D01*
X164965908Y-110981839D01*
X165123206Y-111032948D01*
X165137325Y-111037536D01*
X165195001Y-111076974D01*
X165222199Y-111141332D01*
X165210284Y-111210179D01*
X165163040Y-111261654D01*
X165146461Y-111270028D01*
X165071006Y-111301282D01*
X165043329Y-111319775D01*
X165043329Y-111319776D01*
X165469993Y-111746439D01*
X165369816Y-111773282D01*
X165275184Y-111827917D01*
X165197917Y-111905184D01*
X165143282Y-111999816D01*
X165116439Y-112099992D01*
X164689776Y-111673329D01*
X164689775Y-111673329D01*
X164671280Y-111701009D01*
X164598239Y-111877348D01*
X164598236Y-111877360D01*
X164561000Y-112064557D01*
X164561000Y-112255442D01*
X164598236Y-112442639D01*
X164598239Y-112442651D01*
X164671280Y-112618989D01*
X164671285Y-112618998D01*
X164689775Y-112646670D01*
X164689776Y-112646670D01*
X165116439Y-112220006D01*
X165143282Y-112320184D01*
X165197917Y-112414816D01*
X165275184Y-112492083D01*
X165369816Y-112546718D01*
X165469992Y-112573560D01*
X165043328Y-113000222D01*
X165043329Y-113000223D01*
X165070999Y-113018713D01*
X165071010Y-113018719D01*
X165146459Y-113049971D01*
X165200863Y-113093812D01*
X165222928Y-113160106D01*
X165205649Y-113227805D01*
X165154512Y-113275416D01*
X165137326Y-113282463D01*
X164965903Y-113338162D01*
X164759813Y-113443171D01*
X164572682Y-113579130D01*
X164409130Y-113742682D01*
X164273171Y-113929813D01*
X164168162Y-114135903D01*
X164096683Y-114355890D01*
X164060500Y-114584342D01*
X164060500Y-114815657D01*
X164096683Y-115044109D01*
X164168162Y-115264096D01*
X164273171Y-115470186D01*
X164409128Y-115657315D01*
X164572685Y-115820872D01*
X164759814Y-115956829D01*
X164857185Y-116006442D01*
X164965903Y-116061837D01*
X164965905Y-116061837D01*
X164965908Y-116061839D01*
X165083824Y-116100152D01*
X165185890Y-116133316D01*
X165414343Y-116169500D01*
X165414348Y-116169500D01*
X165645657Y-116169500D01*
X165874109Y-116133316D01*
X166094092Y-116061839D01*
X166300186Y-115956829D01*
X166487315Y-115820872D01*
X166650872Y-115657315D01*
X166786829Y-115470186D01*
X166891839Y-115264092D01*
X166963316Y-115044109D01*
X166999500Y-114815657D01*
X166999500Y-114584342D01*
X166963316Y-114355890D01*
X166891837Y-114135903D01*
X166786828Y-113929813D01*
X166650872Y-113742685D01*
X166487315Y-113579128D01*
X166300186Y-113443171D01*
X166094096Y-113338162D01*
X165922672Y-113282463D01*
X165864997Y-113243025D01*
X165837799Y-113178666D01*
X165849714Y-113109820D01*
X165896958Y-113058344D01*
X165913539Y-113049971D01*
X165988992Y-113018717D01*
X166016669Y-113000222D01*
X165590008Y-112573560D01*
X165690184Y-112546718D01*
X165784816Y-112492083D01*
X165862083Y-112414816D01*
X165916718Y-112320184D01*
X165943560Y-112220007D01*
X166370222Y-112646669D01*
X166388716Y-112618994D01*
X166461761Y-112442647D01*
X166461763Y-112442639D01*
X166498999Y-112255442D01*
X166499000Y-112255439D01*
X166499000Y-112064561D01*
X166498999Y-112064557D01*
X166461763Y-111877360D01*
X166461760Y-111877348D01*
X166388719Y-111701010D01*
X166388713Y-111700999D01*
X166370223Y-111673329D01*
X166370222Y-111673328D01*
X165943560Y-112099991D01*
X165916718Y-111999816D01*
X165862083Y-111905184D01*
X165784816Y-111827917D01*
X165690184Y-111773282D01*
X165590007Y-111746439D01*
X166016670Y-111319776D01*
X166016670Y-111319775D01*
X165988998Y-111301285D01*
X165988992Y-111301282D01*
X165913539Y-111270028D01*
X165859136Y-111226187D01*
X165837071Y-111159892D01*
X165854350Y-111092193D01*
X165905488Y-111044583D01*
X165922671Y-111037537D01*
X166094092Y-110981839D01*
X166300186Y-110876829D01*
X166487315Y-110740872D01*
X166547897Y-110680289D01*
X168989091Y-110676095D01*
X168962084Y-113501994D01*
G37*
%TD.AperFunction*%
%TD*%
%TA.AperFunction,Conductor*%
%TO.N,+12V*%
G36*
X184497548Y-96021466D02*
G01*
X184535027Y-96021494D01*
X184604697Y-105473783D01*
X184610045Y-106199275D01*
X184643724Y-110768462D01*
X184730826Y-122585741D01*
X184735752Y-123254063D01*
X184735648Y-123260124D01*
X184719796Y-123641675D01*
X184718702Y-123653747D01*
X184666091Y-124028945D01*
X184663823Y-124040851D01*
X184574838Y-124409102D01*
X184571419Y-124420731D01*
X184446899Y-124778555D01*
X184442360Y-124789794D01*
X184283506Y-125133736D01*
X184277892Y-125144479D01*
X184086216Y-125471271D01*
X184079580Y-125481413D01*
X183856918Y-125787927D01*
X183849324Y-125797374D01*
X183597789Y-126080697D01*
X183589308Y-126089357D01*
X183311327Y-126346755D01*
X183302042Y-126354546D01*
X183000239Y-126583590D01*
X182990245Y-126590430D01*
X182747868Y-126739500D01*
X182667538Y-126788905D01*
X182656916Y-126794742D01*
X182316368Y-126960765D01*
X182305226Y-126965538D01*
X181950095Y-127097520D01*
X181938540Y-127101182D01*
X181572220Y-127197860D01*
X181560363Y-127200376D01*
X181186365Y-127260825D01*
X181174320Y-127262172D01*
X180793189Y-127286008D01*
X180787131Y-127286239D01*
X180168927Y-127294626D01*
X180101627Y-127275852D01*
X180066927Y-127243523D01*
X179979414Y-127123072D01*
X179856928Y-127000586D01*
X179716788Y-126898768D01*
X179562445Y-126820127D01*
X179397701Y-126766598D01*
X179397699Y-126766597D01*
X179397698Y-126766597D01*
X179266271Y-126745781D01*
X179226611Y-126739500D01*
X179053389Y-126739500D01*
X179013728Y-126745781D01*
X178882302Y-126766597D01*
X178717552Y-126820128D01*
X178563211Y-126898768D01*
X178483256Y-126956859D01*
X178423072Y-127000586D01*
X178423070Y-127000588D01*
X178423069Y-127000588D01*
X178300588Y-127123069D01*
X178300588Y-127123070D01*
X178300586Y-127123072D01*
X178271614Y-127162948D01*
X178198755Y-127263228D01*
X178198535Y-127263589D01*
X178198415Y-127263696D01*
X178195904Y-127267154D01*
X178195177Y-127266625D01*
X178146714Y-127310454D01*
X178094503Y-127322767D01*
X175349999Y-127360000D01*
X175290000Y-143340000D01*
X207382296Y-143340000D01*
X207449335Y-143359685D01*
X207469977Y-143376319D01*
X207470586Y-143376928D01*
X207593072Y-143499414D01*
X207733212Y-143601232D01*
X207887555Y-143679873D01*
X208052299Y-143733402D01*
X208223389Y-143760500D01*
X208223390Y-143760500D01*
X208396610Y-143760500D01*
X208396611Y-143760500D01*
X208567701Y-143733402D01*
X208732445Y-143679873D01*
X208886788Y-143601232D01*
X209026928Y-143499414D01*
X209149414Y-143376928D01*
X209149414Y-143376927D01*
X209150023Y-143376319D01*
X209211346Y-143342834D01*
X209237704Y-143340000D01*
X224902343Y-143340000D01*
X224908364Y-143340146D01*
X225287320Y-143358567D01*
X225299287Y-143359734D01*
X225671696Y-143414387D01*
X225683477Y-143416705D01*
X226048824Y-143507221D01*
X226060354Y-143510680D01*
X226415185Y-143636201D01*
X226426309Y-143640755D01*
X226767299Y-143800101D01*
X226777947Y-143805722D01*
X227101861Y-143997384D01*
X227111914Y-144004012D01*
X227415722Y-144226195D01*
X227425080Y-144233763D01*
X227705897Y-144484358D01*
X227714477Y-144492797D01*
X227969669Y-144769453D01*
X227977393Y-144778689D01*
X228204543Y-145078784D01*
X228211336Y-145088727D01*
X228408311Y-145409445D01*
X228414107Y-145420000D01*
X228579041Y-145758302D01*
X228583786Y-145769368D01*
X228715136Y-146122086D01*
X228718781Y-146133548D01*
X228815300Y-146497344D01*
X228817817Y-146509106D01*
X228878596Y-146880552D01*
X228879961Y-146892516D01*
X228904622Y-147271107D01*
X228904867Y-147277124D01*
X228912959Y-147768229D01*
X228912908Y-147774379D01*
X228900075Y-148161592D01*
X228899059Y-148173846D01*
X228848346Y-148554834D01*
X228846121Y-148566927D01*
X228757926Y-148941014D01*
X228754514Y-148952828D01*
X228629704Y-149316329D01*
X228625140Y-149327747D01*
X228464930Y-149677127D01*
X228459256Y-149688036D01*
X228265244Y-150019809D01*
X228258518Y-150030103D01*
X228032596Y-150341033D01*
X228024884Y-150350610D01*
X227769274Y-150637641D01*
X227760651Y-150646407D01*
X227477878Y-150906704D01*
X227468430Y-150914573D01*
X227161260Y-151145588D01*
X227151078Y-151152483D01*
X226822535Y-151351942D01*
X226811721Y-151357794D01*
X226465047Y-151523728D01*
X226453706Y-151528480D01*
X226092299Y-151659264D01*
X226080543Y-151662870D01*
X225707962Y-151757218D01*
X225695907Y-151759642D01*
X225315799Y-151816625D01*
X225303563Y-151817842D01*
X224916635Y-151837051D01*
X224910487Y-151837204D01*
X174815814Y-151837204D01*
X174809756Y-151837056D01*
X174428474Y-151818406D01*
X174416416Y-151817224D01*
X174041764Y-151761895D01*
X174029879Y-151759541D01*
X173662432Y-151667917D01*
X173650833Y-151664415D01*
X173294068Y-151537363D01*
X173282866Y-151532745D01*
X172940216Y-151371487D01*
X172929519Y-151365799D01*
X172604228Y-151171863D01*
X172594137Y-151165157D01*
X172289340Y-150940413D01*
X172279951Y-150932755D01*
X171998531Y-150679327D01*
X171989945Y-150670800D01*
X171734594Y-150391108D01*
X171726876Y-150381776D01*
X171500054Y-150078520D01*
X171493279Y-150068475D01*
X171470045Y-150030103D01*
X171297123Y-149744509D01*
X171291363Y-149733851D01*
X171127771Y-149392312D01*
X171123077Y-149381142D01*
X171084547Y-149275243D01*
X170993594Y-149025256D01*
X170990013Y-149013682D01*
X170895881Y-148646866D01*
X170893446Y-148634997D01*
X170881991Y-148560933D01*
X170835560Y-148260733D01*
X170834296Y-148248691D01*
X170829439Y-148161592D01*
X170813042Y-147867522D01*
X170812854Y-147861476D01*
X170812259Y-147774379D01*
X170810009Y-147444882D01*
X170807337Y-147053395D01*
X172209500Y-147053395D01*
X172209500Y-148846604D01*
X172224699Y-149000932D01*
X172251958Y-149090794D01*
X172284768Y-149198954D01*
X172382315Y-149381450D01*
X172382317Y-149381452D01*
X172513589Y-149541410D01*
X172610209Y-149620702D01*
X172673550Y-149672685D01*
X172856046Y-149770232D01*
X173054066Y-149830300D01*
X173054065Y-149830300D01*
X173092647Y-149834100D01*
X173208392Y-149845500D01*
X173208395Y-149845500D01*
X174551605Y-149845500D01*
X174551608Y-149845500D01*
X174705934Y-149830300D01*
X174903954Y-149770232D01*
X175086450Y-149672685D01*
X175246410Y-149541410D01*
X175377685Y-149381450D01*
X175475232Y-149198954D01*
X175490314Y-149149231D01*
X175528611Y-149090794D01*
X175592423Y-149062337D01*
X175661490Y-149072896D01*
X175681861Y-149084910D01*
X175806781Y-149175671D01*
X175970875Y-149259282D01*
X175970881Y-149259284D01*
X176019999Y-149275243D01*
X176020000Y-149275242D01*
X176020000Y-148391456D01*
X176054662Y-148426118D01*
X176190339Y-148504452D01*
X176341667Y-148545000D01*
X176498333Y-148545000D01*
X176649661Y-148504452D01*
X176785338Y-148426118D01*
X176820000Y-148391456D01*
X176820000Y-149275243D01*
X176869118Y-149259284D01*
X176869124Y-149259282D01*
X177033214Y-149175673D01*
X177182202Y-149067426D01*
X177298772Y-148950856D01*
X177360095Y-148917371D01*
X177429787Y-148922355D01*
X177485721Y-148964226D01*
X177493841Y-148976537D01*
X177568049Y-149105070D01*
X177701355Y-149278798D01*
X177701361Y-149278805D01*
X177856194Y-149433638D01*
X177856201Y-149433644D01*
X178029929Y-149566950D01*
X178219561Y-149676434D01*
X178219563Y-149676434D01*
X178219572Y-149676440D01*
X178421883Y-149760241D01*
X178633402Y-149816917D01*
X178850510Y-149845500D01*
X178850517Y-149845500D01*
X179069483Y-149845500D01*
X179069490Y-149845500D01*
X179286598Y-149816917D01*
X179498117Y-149760241D01*
X179700428Y-149676440D01*
X179890071Y-149566950D01*
X180063800Y-149433643D01*
X180063805Y-149433638D01*
X180142319Y-149355125D01*
X180203642Y-149321640D01*
X180273334Y-149326624D01*
X180317681Y-149355125D01*
X180396194Y-149433638D01*
X180396201Y-149433644D01*
X180569929Y-149566950D01*
X180759561Y-149676434D01*
X180759563Y-149676434D01*
X180759572Y-149676440D01*
X180961883Y-149760241D01*
X181173402Y-149816917D01*
X181390510Y-149845500D01*
X181390517Y-149845500D01*
X181609483Y-149845500D01*
X181609490Y-149845500D01*
X181826598Y-149816917D01*
X182038117Y-149760241D01*
X182240428Y-149676440D01*
X182430071Y-149566950D01*
X182603800Y-149433643D01*
X182758643Y-149278800D01*
X182891950Y-149105071D01*
X183001440Y-148915428D01*
X183085241Y-148713117D01*
X183141917Y-148501598D01*
X183170500Y-148284490D01*
X183170500Y-147615510D01*
X183141917Y-147398402D01*
X183085241Y-147186883D01*
X183029948Y-147053395D01*
X186709500Y-147053395D01*
X186709500Y-148846604D01*
X186724699Y-149000932D01*
X186751958Y-149090794D01*
X186784768Y-149198954D01*
X186882315Y-149381450D01*
X186882317Y-149381452D01*
X187013589Y-149541410D01*
X187110209Y-149620702D01*
X187173550Y-149672685D01*
X187356046Y-149770232D01*
X187554066Y-149830300D01*
X187554065Y-149830300D01*
X187592647Y-149834100D01*
X187708392Y-149845500D01*
X187708395Y-149845500D01*
X189051605Y-149845500D01*
X189051608Y-149845500D01*
X189205934Y-149830300D01*
X189403954Y-149770232D01*
X189586450Y-149672685D01*
X189746410Y-149541410D01*
X189877685Y-149381450D01*
X189975232Y-149198954D01*
X189990314Y-149149231D01*
X190028611Y-149090794D01*
X190092423Y-149062337D01*
X190161490Y-149072896D01*
X190181861Y-149084910D01*
X190306781Y-149175671D01*
X190470875Y-149259282D01*
X190470881Y-149259284D01*
X190519999Y-149275243D01*
X190520000Y-149275242D01*
X190520000Y-148391456D01*
X190554662Y-148426118D01*
X190690339Y-148504452D01*
X190841667Y-148545000D01*
X190998333Y-148545000D01*
X191149661Y-148504452D01*
X191285338Y-148426118D01*
X191320000Y-148391456D01*
X191320000Y-149275243D01*
X191369118Y-149259284D01*
X191369124Y-149259282D01*
X191533214Y-149175673D01*
X191682202Y-149067426D01*
X191798772Y-148950856D01*
X191860095Y-148917371D01*
X191929787Y-148922355D01*
X191985721Y-148964226D01*
X191993841Y-148976537D01*
X192068049Y-149105070D01*
X192201355Y-149278798D01*
X192201361Y-149278805D01*
X192356194Y-149433638D01*
X192356201Y-149433644D01*
X192529929Y-149566950D01*
X192719561Y-149676434D01*
X192719563Y-149676434D01*
X192719572Y-149676440D01*
X192921883Y-149760241D01*
X193133402Y-149816917D01*
X193350510Y-149845500D01*
X193350517Y-149845500D01*
X193569483Y-149845500D01*
X193569490Y-149845500D01*
X193786598Y-149816917D01*
X193998117Y-149760241D01*
X194200428Y-149676440D01*
X194390071Y-149566950D01*
X194563800Y-149433643D01*
X194563805Y-149433638D01*
X194642319Y-149355125D01*
X194703642Y-149321640D01*
X194773334Y-149326624D01*
X194817681Y-149355125D01*
X194896194Y-149433638D01*
X194896201Y-149433644D01*
X195069929Y-149566950D01*
X195259561Y-149676434D01*
X195259563Y-149676434D01*
X195259572Y-149676440D01*
X195461883Y-149760241D01*
X195673402Y-149816917D01*
X195890510Y-149845500D01*
X195890517Y-149845500D01*
X196109483Y-149845500D01*
X196109490Y-149845500D01*
X196326598Y-149816917D01*
X196538117Y-149760241D01*
X196740428Y-149676440D01*
X196930071Y-149566950D01*
X197103800Y-149433643D01*
X197258643Y-149278800D01*
X197391950Y-149105071D01*
X197501440Y-148915428D01*
X197585241Y-148713117D01*
X197641917Y-148501598D01*
X197670500Y-148284490D01*
X197670500Y-147615510D01*
X197641917Y-147398402D01*
X197585241Y-147186883D01*
X197529948Y-147053395D01*
X201209500Y-147053395D01*
X201209500Y-148846604D01*
X201224699Y-149000932D01*
X201251958Y-149090794D01*
X201284768Y-149198954D01*
X201382315Y-149381450D01*
X201382317Y-149381452D01*
X201513589Y-149541410D01*
X201610209Y-149620702D01*
X201673550Y-149672685D01*
X201856046Y-149770232D01*
X202054066Y-149830300D01*
X202054065Y-149830300D01*
X202092647Y-149834100D01*
X202208392Y-149845500D01*
X202208395Y-149845500D01*
X203551605Y-149845500D01*
X203551608Y-149845500D01*
X203705934Y-149830300D01*
X203903954Y-149770232D01*
X204086450Y-149672685D01*
X204246410Y-149541410D01*
X204377685Y-149381450D01*
X204475232Y-149198954D01*
X204490314Y-149149231D01*
X204528611Y-149090794D01*
X204592423Y-149062337D01*
X204661490Y-149072896D01*
X204681861Y-149084910D01*
X204806781Y-149175671D01*
X204970875Y-149259282D01*
X204970881Y-149259284D01*
X205019999Y-149275243D01*
X205020000Y-149275242D01*
X205020000Y-148391456D01*
X205054662Y-148426118D01*
X205190339Y-148504452D01*
X205341667Y-148545000D01*
X205498333Y-148545000D01*
X205649661Y-148504452D01*
X205785338Y-148426118D01*
X205820000Y-148391456D01*
X205820000Y-149275243D01*
X205869118Y-149259284D01*
X205869124Y-149259282D01*
X206033214Y-149175673D01*
X206182202Y-149067426D01*
X206298772Y-148950856D01*
X206360095Y-148917371D01*
X206429787Y-148922355D01*
X206485721Y-148964226D01*
X206493841Y-148976537D01*
X206568049Y-149105070D01*
X206701355Y-149278798D01*
X206701361Y-149278805D01*
X206856194Y-149433638D01*
X206856201Y-149433644D01*
X207029929Y-149566950D01*
X207219561Y-149676434D01*
X207219563Y-149676434D01*
X207219572Y-149676440D01*
X207421883Y-149760241D01*
X207633402Y-149816917D01*
X207850510Y-149845500D01*
X207850517Y-149845500D01*
X208069483Y-149845500D01*
X208069490Y-149845500D01*
X208286598Y-149816917D01*
X208498117Y-149760241D01*
X208700428Y-149676440D01*
X208890071Y-149566950D01*
X209063800Y-149433643D01*
X209063805Y-149433638D01*
X209142319Y-149355125D01*
X209203642Y-149321640D01*
X209273334Y-149326624D01*
X209317681Y-149355125D01*
X209396194Y-149433638D01*
X209396201Y-149433644D01*
X209569929Y-149566950D01*
X209759561Y-149676434D01*
X209759563Y-149676434D01*
X209759572Y-149676440D01*
X209961883Y-149760241D01*
X210173402Y-149816917D01*
X210390510Y-149845500D01*
X210390517Y-149845500D01*
X210609483Y-149845500D01*
X210609490Y-149845500D01*
X210826598Y-149816917D01*
X211038117Y-149760241D01*
X211240428Y-149676440D01*
X211430071Y-149566950D01*
X211603800Y-149433643D01*
X211758643Y-149278800D01*
X211891950Y-149105071D01*
X212001440Y-148915428D01*
X212085241Y-148713117D01*
X212141917Y-148501598D01*
X212170500Y-148284490D01*
X212170500Y-147615510D01*
X212141917Y-147398402D01*
X212085241Y-147186883D01*
X212029948Y-147053395D01*
X215749500Y-147053395D01*
X215749500Y-148846604D01*
X215764699Y-149000932D01*
X215791958Y-149090794D01*
X215824768Y-149198954D01*
X215922315Y-149381450D01*
X215922317Y-149381452D01*
X216053589Y-149541410D01*
X216150209Y-149620702D01*
X216213550Y-149672685D01*
X216396046Y-149770232D01*
X216594066Y-149830300D01*
X216594065Y-149830300D01*
X216632647Y-149834100D01*
X216748392Y-149845500D01*
X216748395Y-149845500D01*
X218091605Y-149845500D01*
X218091608Y-149845500D01*
X218245934Y-149830300D01*
X218443954Y-149770232D01*
X218626450Y-149672685D01*
X218786410Y-149541410D01*
X218917685Y-149381450D01*
X219015232Y-149198954D01*
X219030314Y-149149231D01*
X219068611Y-149090794D01*
X219132423Y-149062337D01*
X219201490Y-149072896D01*
X219221861Y-149084910D01*
X219346781Y-149175671D01*
X219510875Y-149259282D01*
X219510881Y-149259284D01*
X219559999Y-149275243D01*
X219560000Y-149275242D01*
X219560000Y-148391456D01*
X219594662Y-148426118D01*
X219730339Y-148504452D01*
X219881667Y-148545000D01*
X220038333Y-148545000D01*
X220189661Y-148504452D01*
X220325338Y-148426118D01*
X220360000Y-148391456D01*
X220360000Y-149275243D01*
X220409118Y-149259284D01*
X220409124Y-149259282D01*
X220573214Y-149175673D01*
X220722202Y-149067426D01*
X220838772Y-148950856D01*
X220900095Y-148917371D01*
X220969787Y-148922355D01*
X221025721Y-148964226D01*
X221033841Y-148976537D01*
X221108049Y-149105070D01*
X221241355Y-149278798D01*
X221241361Y-149278805D01*
X221396194Y-149433638D01*
X221396201Y-149433644D01*
X221569929Y-149566950D01*
X221759561Y-149676434D01*
X221759563Y-149676434D01*
X221759572Y-149676440D01*
X221961883Y-149760241D01*
X222173402Y-149816917D01*
X222390510Y-149845500D01*
X222390517Y-149845500D01*
X222609483Y-149845500D01*
X222609490Y-149845500D01*
X222826598Y-149816917D01*
X223038117Y-149760241D01*
X223240428Y-149676440D01*
X223430071Y-149566950D01*
X223603800Y-149433643D01*
X223603805Y-149433638D01*
X223682319Y-149355125D01*
X223743642Y-149321640D01*
X223813334Y-149326624D01*
X223857681Y-149355125D01*
X223936194Y-149433638D01*
X223936201Y-149433644D01*
X224109929Y-149566950D01*
X224299561Y-149676434D01*
X224299563Y-149676434D01*
X224299572Y-149676440D01*
X224501883Y-149760241D01*
X224713402Y-149816917D01*
X224930510Y-149845500D01*
X224930517Y-149845500D01*
X225149483Y-149845500D01*
X225149490Y-149845500D01*
X225366598Y-149816917D01*
X225578117Y-149760241D01*
X225780428Y-149676440D01*
X225970071Y-149566950D01*
X226143800Y-149433643D01*
X226298643Y-149278800D01*
X226431950Y-149105071D01*
X226541440Y-148915428D01*
X226625241Y-148713117D01*
X226681917Y-148501598D01*
X226710500Y-148284490D01*
X226710500Y-147615510D01*
X226681917Y-147398402D01*
X226625241Y-147186883D01*
X226541440Y-146984572D01*
X226526637Y-146958933D01*
X226431950Y-146794929D01*
X226298644Y-146621201D01*
X226298638Y-146621194D01*
X226143805Y-146466361D01*
X226143798Y-146466355D01*
X225970070Y-146333049D01*
X225780438Y-146223565D01*
X225780433Y-146223562D01*
X225780428Y-146223560D01*
X225578117Y-146139759D01*
X225578118Y-146139759D01*
X225578115Y-146139758D01*
X225472357Y-146111421D01*
X225366598Y-146083083D01*
X225330314Y-146078306D01*
X225149497Y-146054500D01*
X225149490Y-146054500D01*
X224930510Y-146054500D01*
X224930502Y-146054500D01*
X224723853Y-146081707D01*
X224713402Y-146083083D01*
X224668699Y-146095060D01*
X224501884Y-146139758D01*
X224383374Y-146188847D01*
X224299572Y-146223560D01*
X224299569Y-146223561D01*
X224299561Y-146223565D01*
X224109929Y-146333049D01*
X223936201Y-146466355D01*
X223936194Y-146466361D01*
X223857681Y-146544875D01*
X223796358Y-146578360D01*
X223726666Y-146573376D01*
X223682319Y-146544875D01*
X223603805Y-146466361D01*
X223603798Y-146466355D01*
X223430070Y-146333049D01*
X223240438Y-146223565D01*
X223240433Y-146223562D01*
X223240428Y-146223560D01*
X223038117Y-146139759D01*
X223038118Y-146139759D01*
X223038115Y-146139758D01*
X222932357Y-146111421D01*
X222826598Y-146083083D01*
X222790314Y-146078306D01*
X222609497Y-146054500D01*
X222609490Y-146054500D01*
X222390510Y-146054500D01*
X222390502Y-146054500D01*
X222183853Y-146081707D01*
X222173402Y-146083083D01*
X222128699Y-146095060D01*
X221961884Y-146139758D01*
X221843374Y-146188847D01*
X221759572Y-146223560D01*
X221759569Y-146223561D01*
X221759561Y-146223565D01*
X221569929Y-146333049D01*
X221396201Y-146466355D01*
X221396194Y-146466361D01*
X221241361Y-146621194D01*
X221241355Y-146621201D01*
X221108049Y-146794929D01*
X221033841Y-146923462D01*
X220983274Y-146971678D01*
X220914667Y-146984901D01*
X220849802Y-146958933D01*
X220838773Y-146949143D01*
X220722206Y-146832576D01*
X220573212Y-146724324D01*
X220409123Y-146640718D01*
X220360000Y-146624756D01*
X220360000Y-147508544D01*
X220325338Y-147473882D01*
X220189661Y-147395548D01*
X220038333Y-147355000D01*
X219881667Y-147355000D01*
X219730339Y-147395548D01*
X219594662Y-147473882D01*
X219560000Y-147508544D01*
X219560000Y-146624756D01*
X219510876Y-146640718D01*
X219346787Y-146724324D01*
X219221861Y-146815090D01*
X219156054Y-146838570D01*
X219088000Y-146822745D01*
X219039306Y-146772639D01*
X219030315Y-146750771D01*
X219015232Y-146701046D01*
X218917685Y-146518550D01*
X218865702Y-146455209D01*
X218786410Y-146358589D01*
X218626452Y-146227317D01*
X218626453Y-146227317D01*
X218626450Y-146227315D01*
X218443954Y-146129768D01*
X218245934Y-146069700D01*
X218245932Y-146069699D01*
X218245934Y-146069699D01*
X218126805Y-146057966D01*
X218091608Y-146054500D01*
X216748392Y-146054500D01*
X216710298Y-146058251D01*
X216594067Y-146069699D01*
X216396043Y-146129769D01*
X216285898Y-146188643D01*
X216213550Y-146227315D01*
X216213548Y-146227316D01*
X216213547Y-146227317D01*
X216053589Y-146358589D01*
X215922317Y-146518547D01*
X215824769Y-146701043D01*
X215764699Y-146899067D01*
X215757548Y-146971678D01*
X215749717Y-147051195D01*
X215749500Y-147053395D01*
X212029948Y-147053395D01*
X212001440Y-146984572D01*
X211986637Y-146958933D01*
X211891950Y-146794929D01*
X211758644Y-146621201D01*
X211758638Y-146621194D01*
X211603805Y-146466361D01*
X211603798Y-146466355D01*
X211430070Y-146333049D01*
X211240438Y-146223565D01*
X211240433Y-146223562D01*
X211240428Y-146223560D01*
X211038117Y-146139759D01*
X211038118Y-146139759D01*
X211038115Y-146139758D01*
X210932357Y-146111421D01*
X210826598Y-146083083D01*
X210790314Y-146078306D01*
X210609497Y-146054500D01*
X210609490Y-146054500D01*
X210390510Y-146054500D01*
X210390502Y-146054500D01*
X210183853Y-146081707D01*
X210173402Y-146083083D01*
X210128699Y-146095060D01*
X209961884Y-146139758D01*
X209843374Y-146188847D01*
X209759572Y-146223560D01*
X209759569Y-146223561D01*
X209759561Y-146223565D01*
X209569929Y-146333049D01*
X209396201Y-146466355D01*
X209396194Y-146466361D01*
X209317681Y-146544875D01*
X209256358Y-146578360D01*
X209186666Y-146573376D01*
X209142319Y-146544875D01*
X209063805Y-146466361D01*
X209063798Y-146466355D01*
X208890070Y-146333049D01*
X208700438Y-146223565D01*
X208700433Y-146223562D01*
X208700428Y-146223560D01*
X208498117Y-146139759D01*
X208498118Y-146139759D01*
X208498115Y-146139758D01*
X208392357Y-146111421D01*
X208286598Y-146083083D01*
X208250314Y-146078306D01*
X208069497Y-146054500D01*
X208069490Y-146054500D01*
X207850510Y-146054500D01*
X207850502Y-146054500D01*
X207643853Y-146081707D01*
X207633402Y-146083083D01*
X207588699Y-146095060D01*
X207421884Y-146139758D01*
X207303374Y-146188847D01*
X207219572Y-146223560D01*
X207219569Y-146223561D01*
X207219561Y-146223565D01*
X207029929Y-146333049D01*
X206856201Y-146466355D01*
X206856194Y-146466361D01*
X206701361Y-146621194D01*
X206701355Y-146621201D01*
X206568049Y-146794929D01*
X206493841Y-146923462D01*
X206443274Y-146971678D01*
X206374667Y-146984901D01*
X206309802Y-146958933D01*
X206298773Y-146949143D01*
X206182206Y-146832576D01*
X206033212Y-146724324D01*
X205869123Y-146640718D01*
X205820000Y-146624756D01*
X205820000Y-147508544D01*
X205785338Y-147473882D01*
X205649661Y-147395548D01*
X205498333Y-147355000D01*
X205341667Y-147355000D01*
X205190339Y-147395548D01*
X205054662Y-147473882D01*
X205020000Y-147508544D01*
X205020000Y-146624756D01*
X204970876Y-146640718D01*
X204806787Y-146724324D01*
X204681861Y-146815090D01*
X204616054Y-146838570D01*
X204548000Y-146822745D01*
X204499306Y-146772639D01*
X204490315Y-146750771D01*
X204475232Y-146701046D01*
X204377685Y-146518550D01*
X204325702Y-146455209D01*
X204246410Y-146358589D01*
X204086452Y-146227317D01*
X204086453Y-146227317D01*
X204086450Y-146227315D01*
X203903954Y-146129768D01*
X203705934Y-146069700D01*
X203705932Y-146069699D01*
X203705934Y-146069699D01*
X203586805Y-146057966D01*
X203551608Y-146054500D01*
X202208392Y-146054500D01*
X202170298Y-146058251D01*
X202054067Y-146069699D01*
X201856043Y-146129769D01*
X201745898Y-146188643D01*
X201673550Y-146227315D01*
X201673548Y-146227316D01*
X201673547Y-146227317D01*
X201513589Y-146358589D01*
X201382317Y-146518547D01*
X201284769Y-146701043D01*
X201224699Y-146899067D01*
X201217548Y-146971678D01*
X201209717Y-147051195D01*
X201209500Y-147053395D01*
X197529948Y-147053395D01*
X197501440Y-146984572D01*
X197486637Y-146958933D01*
X197391950Y-146794929D01*
X197258644Y-146621201D01*
X197258638Y-146621194D01*
X197103805Y-146466361D01*
X197103798Y-146466355D01*
X196930070Y-146333049D01*
X196740438Y-146223565D01*
X196740433Y-146223562D01*
X196740428Y-146223560D01*
X196538117Y-146139759D01*
X196538118Y-146139759D01*
X196538115Y-146139758D01*
X196432357Y-146111421D01*
X196326598Y-146083083D01*
X196290314Y-146078306D01*
X196109497Y-146054500D01*
X196109490Y-146054500D01*
X195890510Y-146054500D01*
X195890502Y-146054500D01*
X195683853Y-146081707D01*
X195673402Y-146083083D01*
X195628699Y-146095060D01*
X195461884Y-146139758D01*
X195343374Y-146188847D01*
X195259572Y-146223560D01*
X195259569Y-146223561D01*
X195259561Y-146223565D01*
X195069929Y-146333049D01*
X194896201Y-146466355D01*
X194896194Y-146466361D01*
X194817681Y-146544875D01*
X194756358Y-146578360D01*
X194686666Y-146573376D01*
X194642319Y-146544875D01*
X194563805Y-146466361D01*
X194563798Y-146466355D01*
X194390070Y-146333049D01*
X194200438Y-146223565D01*
X194200433Y-146223562D01*
X194200428Y-146223560D01*
X193998117Y-146139759D01*
X193998118Y-146139759D01*
X193998115Y-146139758D01*
X193892357Y-146111421D01*
X193786598Y-146083083D01*
X193750314Y-146078306D01*
X193569497Y-146054500D01*
X193569490Y-146054500D01*
X193350510Y-146054500D01*
X193350502Y-146054500D01*
X193143853Y-146081707D01*
X193133402Y-146083083D01*
X193088699Y-146095060D01*
X192921884Y-146139758D01*
X192803374Y-146188847D01*
X192719572Y-146223560D01*
X192719569Y-146223561D01*
X192719561Y-146223565D01*
X192529929Y-146333049D01*
X192356201Y-146466355D01*
X192356194Y-146466361D01*
X192201361Y-146621194D01*
X192201355Y-146621201D01*
X192068049Y-146794929D01*
X191993841Y-146923462D01*
X191943274Y-146971678D01*
X191874667Y-146984901D01*
X191809802Y-146958933D01*
X191798773Y-146949143D01*
X191682206Y-146832576D01*
X191533212Y-146724324D01*
X191369123Y-146640718D01*
X191320000Y-146624756D01*
X191320000Y-147508544D01*
X191285338Y-147473882D01*
X191149661Y-147395548D01*
X190998333Y-147355000D01*
X190841667Y-147355000D01*
X190690339Y-147395548D01*
X190554662Y-147473882D01*
X190520000Y-147508544D01*
X190520000Y-146624756D01*
X190470876Y-146640718D01*
X190306787Y-146724324D01*
X190181861Y-146815090D01*
X190116054Y-146838570D01*
X190048000Y-146822745D01*
X189999306Y-146772639D01*
X189990315Y-146750771D01*
X189975232Y-146701046D01*
X189877685Y-146518550D01*
X189825702Y-146455209D01*
X189746410Y-146358589D01*
X189586452Y-146227317D01*
X189586453Y-146227317D01*
X189586450Y-146227315D01*
X189403954Y-146129768D01*
X189205934Y-146069700D01*
X189205932Y-146069699D01*
X189205934Y-146069699D01*
X189086805Y-146057966D01*
X189051608Y-146054500D01*
X187708392Y-146054500D01*
X187670298Y-146058251D01*
X187554067Y-146069699D01*
X187356043Y-146129769D01*
X187245898Y-146188643D01*
X187173550Y-146227315D01*
X187173548Y-146227316D01*
X187173547Y-146227317D01*
X187013589Y-146358589D01*
X186882317Y-146518547D01*
X186784769Y-146701043D01*
X186724699Y-146899067D01*
X186717548Y-146971678D01*
X186709717Y-147051195D01*
X186709500Y-147053395D01*
X183029948Y-147053395D01*
X183001440Y-146984572D01*
X182986637Y-146958933D01*
X182891950Y-146794929D01*
X182758644Y-146621201D01*
X182758638Y-146621194D01*
X182603805Y-146466361D01*
X182603798Y-146466355D01*
X182430070Y-146333049D01*
X182240438Y-146223565D01*
X182240433Y-146223562D01*
X182240428Y-146223560D01*
X182038117Y-146139759D01*
X182038118Y-146139759D01*
X182038115Y-146139758D01*
X181932357Y-146111421D01*
X181826598Y-146083083D01*
X181790314Y-146078306D01*
X181609497Y-146054500D01*
X181609490Y-146054500D01*
X181390510Y-146054500D01*
X181390502Y-146054500D01*
X181183853Y-146081707D01*
X181173402Y-146083083D01*
X181128699Y-146095060D01*
X180961884Y-146139758D01*
X180843374Y-146188847D01*
X180759572Y-146223560D01*
X180759569Y-146223561D01*
X180759561Y-146223565D01*
X180569929Y-146333049D01*
X180396201Y-146466355D01*
X180396194Y-146466361D01*
X180317681Y-146544875D01*
X180256358Y-146578360D01*
X180186666Y-146573376D01*
X180142319Y-146544875D01*
X180063805Y-146466361D01*
X180063798Y-146466355D01*
X179890070Y-146333049D01*
X179700438Y-146223565D01*
X179700433Y-146223562D01*
X179700428Y-146223560D01*
X179498117Y-146139759D01*
X179498118Y-146139759D01*
X179498115Y-146139758D01*
X179392357Y-146111421D01*
X179286598Y-146083083D01*
X179250314Y-146078306D01*
X179069497Y-146054500D01*
X179069490Y-146054500D01*
X178850510Y-146054500D01*
X178850502Y-146054500D01*
X178643853Y-146081707D01*
X178633402Y-146083083D01*
X178588699Y-146095060D01*
X178421884Y-146139758D01*
X178303374Y-146188847D01*
X178219572Y-146223560D01*
X178219569Y-146223561D01*
X178219561Y-146223565D01*
X178029929Y-146333049D01*
X177856201Y-146466355D01*
X177856194Y-146466361D01*
X177701361Y-146621194D01*
X177701355Y-146621201D01*
X177568049Y-146794929D01*
X177493841Y-146923462D01*
X177443274Y-146971678D01*
X177374667Y-146984901D01*
X177309802Y-146958933D01*
X177298773Y-146949143D01*
X177182206Y-146832576D01*
X177033212Y-146724324D01*
X176869123Y-146640718D01*
X176820000Y-146624756D01*
X176820000Y-147508544D01*
X176785338Y-147473882D01*
X176649661Y-147395548D01*
X176498333Y-147355000D01*
X176341667Y-147355000D01*
X176190339Y-147395548D01*
X176054662Y-147473882D01*
X176020000Y-147508544D01*
X176020000Y-146624756D01*
X175970876Y-146640718D01*
X175806787Y-146724324D01*
X175681861Y-146815090D01*
X175616054Y-146838570D01*
X175548000Y-146822745D01*
X175499306Y-146772639D01*
X175490315Y-146750771D01*
X175475232Y-146701046D01*
X175377685Y-146518550D01*
X175325702Y-146455209D01*
X175246410Y-146358589D01*
X175086452Y-146227317D01*
X175086453Y-146227317D01*
X175086450Y-146227315D01*
X174903954Y-146129768D01*
X174705934Y-146069700D01*
X174705932Y-146069699D01*
X174705934Y-146069699D01*
X174586805Y-146057966D01*
X174551608Y-146054500D01*
X173208392Y-146054500D01*
X173170298Y-146058251D01*
X173054067Y-146069699D01*
X172856043Y-146129769D01*
X172745898Y-146188643D01*
X172673550Y-146227315D01*
X172673548Y-146227316D01*
X172673547Y-146227317D01*
X172513589Y-146358589D01*
X172382317Y-146518547D01*
X172284769Y-146701043D01*
X172224699Y-146899067D01*
X172217548Y-146971678D01*
X172209717Y-147051195D01*
X172209500Y-147053395D01*
X170807337Y-147053395D01*
X170807322Y-147051195D01*
X170672509Y-127306673D01*
X170654731Y-124702961D01*
X170654855Y-124696500D01*
X170667369Y-124420731D01*
X170671436Y-124331101D01*
X170672693Y-124318255D01*
X170726761Y-123959786D01*
X170729347Y-123947148D01*
X170820462Y-123596250D01*
X170824359Y-123583926D01*
X170951528Y-123244431D01*
X170956674Y-123232610D01*
X171118514Y-122908207D01*
X171124870Y-122896973D01*
X171319624Y-122591188D01*
X171327116Y-122580678D01*
X171552654Y-122296851D01*
X171561193Y-122287186D01*
X171815089Y-122028375D01*
X171824581Y-122019660D01*
X172104044Y-121788712D01*
X172114419Y-121781012D01*
X172416391Y-121580447D01*
X172427498Y-121573877D01*
X172748748Y-121405842D01*
X172760493Y-121400461D01*
X173097469Y-121266814D01*
X173109705Y-121262685D01*
X173458794Y-121164859D01*
X173471374Y-121162032D01*
X173828754Y-121101099D01*
X173841578Y-121099596D01*
X174206573Y-121076013D01*
X174213022Y-121075765D01*
X177789339Y-121031613D01*
X177690690Y-96016185D01*
X177690901Y-96016186D01*
X177736315Y-96016402D01*
X177742301Y-96015766D01*
X184478136Y-96015766D01*
X184497548Y-96021466D01*
G37*
%TD.AperFunction*%
%TD*%
%TA.AperFunction,Conductor*%
%TO.N,+12V*%
G36*
X195500000Y-96030000D02*
G01*
X195615002Y-102214181D01*
X195615002Y-102214183D01*
X195767017Y-110388665D01*
X195839807Y-114302882D01*
X199751318Y-114314265D01*
X199751375Y-114314267D01*
X219897097Y-114372896D01*
X224218794Y-114385474D01*
X224224868Y-114385640D01*
X224607771Y-114405568D01*
X224619862Y-114406795D01*
X224995938Y-114463699D01*
X225007864Y-114466107D01*
X225103666Y-114490400D01*
X225376576Y-114559606D01*
X225388194Y-114563167D01*
X225745941Y-114692347D01*
X225757168Y-114697035D01*
X226100551Y-114860668D01*
X226111252Y-114866428D01*
X226436938Y-115062927D01*
X226447020Y-115069706D01*
X226751877Y-115297182D01*
X226761256Y-115304925D01*
X227042332Y-115561172D01*
X227050912Y-115569801D01*
X227305536Y-115852383D01*
X227313221Y-115861804D01*
X227538920Y-116167983D01*
X227545629Y-116178085D01*
X227740232Y-116504913D01*
X227745937Y-116515662D01*
X227907562Y-116859979D01*
X227912186Y-116871235D01*
X228039284Y-117229735D01*
X228042782Y-117241390D01*
X228134126Y-117610613D01*
X228136465Y-117622554D01*
X228191179Y-117998950D01*
X228192337Y-118011064D01*
X228210036Y-118394075D01*
X228210167Y-118400160D01*
X228196738Y-123014963D01*
X228168393Y-132754260D01*
X228168205Y-132760742D01*
X228147277Y-133139395D01*
X228145886Y-133152285D01*
X228086054Y-133523478D01*
X228083324Y-133536152D01*
X227985066Y-133899050D01*
X227981028Y-133911370D01*
X227845407Y-134262051D01*
X227840105Y-134273882D01*
X227668619Y-134608468D01*
X227662110Y-134619681D01*
X227456627Y-134934529D01*
X227448984Y-134945001D01*
X227211741Y-135236687D01*
X227203046Y-135246303D01*
X226936655Y-135511613D01*
X226927003Y-135520270D01*
X226634356Y-135756322D01*
X226623853Y-135763923D01*
X226308166Y-135968125D01*
X226296927Y-135974588D01*
X225961638Y-136144715D01*
X225949785Y-136149969D01*
X225630912Y-136271799D01*
X225605448Y-136273823D01*
X225580621Y-136279818D01*
X225568984Y-136276722D01*
X225561262Y-136277337D01*
X225545972Y-136273101D01*
X225537934Y-136270309D01*
X225514092Y-136258161D01*
X225341497Y-136202081D01*
X225340307Y-136201668D01*
X225312858Y-136182076D01*
X225284997Y-136163025D01*
X225284491Y-136161830D01*
X225283437Y-136161077D01*
X225270938Y-136129759D01*
X225257799Y-136098666D01*
X225258020Y-136097387D01*
X225257540Y-136096184D01*
X225263956Y-136063086D01*
X225269714Y-136029820D01*
X225270591Y-136028864D01*
X225270838Y-136027592D01*
X225294133Y-136003212D01*
X225316958Y-135978344D01*
X225318773Y-135977427D01*
X225319108Y-135977077D01*
X225319795Y-135976910D01*
X225333539Y-135969971D01*
X225408992Y-135938717D01*
X225436669Y-135920222D01*
X225010008Y-135493560D01*
X225110184Y-135466718D01*
X225204816Y-135412083D01*
X225282083Y-135334816D01*
X225336718Y-135240184D01*
X225363560Y-135140007D01*
X225790222Y-135566669D01*
X225808716Y-135538994D01*
X225881761Y-135362647D01*
X225881763Y-135362639D01*
X225918999Y-135175442D01*
X225919000Y-135175439D01*
X225919000Y-134984561D01*
X225918999Y-134984557D01*
X225881763Y-134797360D01*
X225881760Y-134797348D01*
X225808719Y-134621010D01*
X225808713Y-134620999D01*
X225790223Y-134593329D01*
X225790222Y-134593328D01*
X225363560Y-135019991D01*
X225336718Y-134919816D01*
X225282083Y-134825184D01*
X225204816Y-134747917D01*
X225110184Y-134693282D01*
X225010007Y-134666439D01*
X225436670Y-134239776D01*
X225436670Y-134239775D01*
X225408998Y-134221285D01*
X225408992Y-134221282D01*
X225333539Y-134190028D01*
X225279136Y-134146187D01*
X225257071Y-134079892D01*
X225274350Y-134012193D01*
X225325488Y-133964583D01*
X225342671Y-133957537D01*
X225514092Y-133901839D01*
X225720186Y-133796829D01*
X225907315Y-133660872D01*
X226070872Y-133497315D01*
X226206829Y-133310186D01*
X226311839Y-133104092D01*
X226383316Y-132884109D01*
X226419500Y-132655657D01*
X226419500Y-132424342D01*
X226383316Y-132195890D01*
X226311837Y-131975903D01*
X226219471Y-131794626D01*
X226206829Y-131769814D01*
X226070872Y-131582685D01*
X225907315Y-131419128D01*
X225840134Y-131370318D01*
X225797468Y-131314988D01*
X225791489Y-131245375D01*
X225824095Y-131183580D01*
X225840134Y-131169682D01*
X225852766Y-131160503D01*
X225907315Y-131120872D01*
X226070872Y-130957315D01*
X226206829Y-130770186D01*
X226311839Y-130564092D01*
X226383316Y-130344109D01*
X226413127Y-130155891D01*
X226419500Y-130115657D01*
X226419500Y-129884342D01*
X226383316Y-129655890D01*
X226346532Y-129542682D01*
X226311839Y-129435908D01*
X226311837Y-129435905D01*
X226311837Y-129435903D01*
X226256442Y-129327185D01*
X226206829Y-129229814D01*
X226070872Y-129042685D01*
X225907315Y-128879128D01*
X225720186Y-128743171D01*
X225514096Y-128638162D01*
X225294109Y-128566683D01*
X225065657Y-128530500D01*
X225065652Y-128530500D01*
X224834348Y-128530500D01*
X224834343Y-128530500D01*
X224605890Y-128566683D01*
X224385903Y-128638162D01*
X224179813Y-128743171D01*
X223992682Y-128879130D01*
X223829130Y-129042682D01*
X223693171Y-129229813D01*
X223588162Y-129435903D01*
X223516683Y-129655890D01*
X223480500Y-129884342D01*
X223480500Y-130115657D01*
X223516683Y-130344109D01*
X223588162Y-130564096D01*
X223664519Y-130713954D01*
X223693171Y-130770186D01*
X223829128Y-130957315D01*
X223992685Y-131120872D01*
X224041234Y-131156145D01*
X224059866Y-131169682D01*
X224102531Y-131225013D01*
X224108510Y-131294626D01*
X224075904Y-131356421D01*
X224059866Y-131370318D01*
X223992683Y-131419129D01*
X223829130Y-131582682D01*
X223693171Y-131769813D01*
X223588162Y-131975903D01*
X223516683Y-132195890D01*
X223480500Y-132424342D01*
X223480500Y-132655657D01*
X223516683Y-132884109D01*
X223588162Y-133104096D01*
X223644608Y-133214876D01*
X223693171Y-133310186D01*
X223829128Y-133497315D01*
X223992685Y-133660872D01*
X224179814Y-133796829D01*
X224385908Y-133901839D01*
X224543206Y-133952948D01*
X224557325Y-133957536D01*
X224615001Y-133996974D01*
X224642199Y-134061332D01*
X224630284Y-134130179D01*
X224583040Y-134181654D01*
X224566461Y-134190028D01*
X224491006Y-134221282D01*
X224463329Y-134239775D01*
X224463329Y-134239776D01*
X224889993Y-134666439D01*
X224789816Y-134693282D01*
X224695184Y-134747917D01*
X224617917Y-134825184D01*
X224563282Y-134919816D01*
X224536439Y-135019992D01*
X224109776Y-134593329D01*
X224109775Y-134593329D01*
X224091280Y-134621009D01*
X224018239Y-134797348D01*
X224018236Y-134797360D01*
X223981000Y-134984557D01*
X223981000Y-135175442D01*
X224018236Y-135362639D01*
X224018239Y-135362651D01*
X224091280Y-135538989D01*
X224091285Y-135538998D01*
X224109775Y-135566670D01*
X224109776Y-135566670D01*
X224536439Y-135140006D01*
X224563282Y-135240184D01*
X224617917Y-135334816D01*
X224695184Y-135412083D01*
X224789816Y-135466718D01*
X224889992Y-135493560D01*
X224463328Y-135920222D01*
X224463329Y-135920223D01*
X224490999Y-135938713D01*
X224491010Y-135938719D01*
X224566459Y-135969971D01*
X224620863Y-136013812D01*
X224642928Y-136080106D01*
X224625649Y-136147805D01*
X224574512Y-136195416D01*
X224557326Y-136202463D01*
X224385903Y-136258162D01*
X224179810Y-136363173D01*
X224105602Y-136417088D01*
X224039796Y-136440568D01*
X224013177Y-136439221D01*
X223678352Y-136385792D01*
X223665659Y-136383078D01*
X223302866Y-136285416D01*
X223290527Y-136281391D01*
X222939921Y-136146339D01*
X222928070Y-136141046D01*
X222593510Y-135970090D01*
X222582277Y-135963588D01*
X222267405Y-135758588D01*
X222256914Y-135750947D01*
X222134186Y-135651328D01*
X221965201Y-135514162D01*
X221955579Y-135505478D01*
X221690202Y-135239487D01*
X221681532Y-135229835D01*
X221680839Y-135228977D01*
X221445423Y-134937572D01*
X221437808Y-134927064D01*
X221404479Y-134875611D01*
X221233544Y-134611723D01*
X221227070Y-134600480D01*
X221223436Y-134593328D01*
X221056884Y-134265512D01*
X221051621Y-134253652D01*
X220917384Y-133902738D01*
X220913387Y-133890389D01*
X220816566Y-133527362D01*
X220813883Y-133514668D01*
X220755536Y-133143500D01*
X220754197Y-133130610D01*
X220734800Y-132752091D01*
X220734639Y-132745660D01*
X220745378Y-123485811D01*
X220745377Y-123485805D01*
X220747108Y-121993428D01*
X222350000Y-121993428D01*
X222350000Y-122166571D01*
X222377085Y-122337584D01*
X222430592Y-122502259D01*
X222509196Y-122656525D01*
X222513709Y-122662736D01*
X222513709Y-122662737D01*
X223050000Y-122126446D01*
X223050000Y-122132661D01*
X223077259Y-122234394D01*
X223129920Y-122325606D01*
X223204394Y-122400080D01*
X223295606Y-122452741D01*
X223397339Y-122480000D01*
X223403553Y-122480000D01*
X222867261Y-123016289D01*
X222867262Y-123016290D01*
X222873471Y-123020801D01*
X223027742Y-123099408D01*
X223192415Y-123152914D01*
X223363429Y-123180000D01*
X223536571Y-123180000D01*
X223707584Y-123152914D01*
X223872257Y-123099408D01*
X224026525Y-123020803D01*
X224032736Y-123016289D01*
X224032737Y-123016289D01*
X223496448Y-122480000D01*
X223502661Y-122480000D01*
X223604394Y-122452741D01*
X223695606Y-122400080D01*
X223770080Y-122325606D01*
X223822741Y-122234394D01*
X223850000Y-122132661D01*
X223850000Y-122126447D01*
X224386289Y-122662736D01*
X224390803Y-122656525D01*
X224469408Y-122502257D01*
X224522914Y-122337584D01*
X224550000Y-122166571D01*
X224550000Y-121993428D01*
X224522914Y-121822415D01*
X224469408Y-121657742D01*
X224390801Y-121503471D01*
X224386290Y-121497262D01*
X224386289Y-121497261D01*
X223850000Y-122033551D01*
X223850000Y-122027339D01*
X223822741Y-121925606D01*
X223770080Y-121834394D01*
X223695606Y-121759920D01*
X223604394Y-121707259D01*
X223502661Y-121680000D01*
X223496447Y-121680000D01*
X224032737Y-121143709D01*
X224026525Y-121139196D01*
X223872259Y-121060592D01*
X223707584Y-121007085D01*
X223536571Y-120980000D01*
X223363429Y-120980000D01*
X223192415Y-121007085D01*
X223027740Y-121060592D01*
X222873480Y-121139193D01*
X222873463Y-121139203D01*
X222867261Y-121143708D01*
X222867261Y-121143709D01*
X223403554Y-121680000D01*
X223397339Y-121680000D01*
X223295606Y-121707259D01*
X223204394Y-121759920D01*
X223129920Y-121834394D01*
X223077259Y-121925606D01*
X223050000Y-122027339D01*
X223050000Y-122033552D01*
X222513709Y-121497261D01*
X222513708Y-121497261D01*
X222509203Y-121503463D01*
X222509193Y-121503480D01*
X222430592Y-121657740D01*
X222377085Y-121822415D01*
X222350000Y-121993428D01*
X220747108Y-121993428D01*
X220750000Y-119500000D01*
X209423546Y-119446622D01*
X205011629Y-119425831D01*
X205011624Y-119425831D01*
X205011622Y-119425830D01*
X201030612Y-119407070D01*
X201011674Y-119406981D01*
X201011673Y-119406981D01*
X200992823Y-123406936D01*
X200960759Y-130210675D01*
X200946969Y-133137087D01*
X200946969Y-133137088D01*
X200946617Y-133211668D01*
X200946420Y-133218089D01*
X200923917Y-133615760D01*
X200922528Y-133628528D01*
X200859525Y-134018563D01*
X200856823Y-134031119D01*
X200753813Y-134412541D01*
X200749827Y-134424751D01*
X200607910Y-134793485D01*
X200602682Y-134805216D01*
X200423389Y-135157286D01*
X200416975Y-135168414D01*
X200202229Y-135500042D01*
X200194699Y-135510447D01*
X199946796Y-135818091D01*
X199938230Y-135827661D01*
X199659842Y-136108003D01*
X199650333Y-136116636D01*
X199344422Y-136366693D01*
X199334070Y-136374295D01*
X199003951Y-136591357D01*
X198992877Y-136597843D01*
X198720261Y-136739085D01*
X198642064Y-136779599D01*
X198630369Y-136784908D01*
X198262649Y-136929397D01*
X198250467Y-136933469D01*
X197951024Y-137016590D01*
X197881163Y-137015554D01*
X197844973Y-136997426D01*
X197660189Y-136863173D01*
X197660188Y-136863172D01*
X197660186Y-136863171D01*
X197595826Y-136830377D01*
X197454096Y-136758162D01*
X197282672Y-136702463D01*
X197224997Y-136663025D01*
X197197799Y-136598666D01*
X197209714Y-136529820D01*
X197256958Y-136478344D01*
X197273539Y-136469971D01*
X197348992Y-136438717D01*
X197376669Y-136420222D01*
X196950008Y-135993560D01*
X197050184Y-135966718D01*
X197144816Y-135912083D01*
X197222083Y-135834816D01*
X197276718Y-135740184D01*
X197303560Y-135640007D01*
X197730222Y-136066669D01*
X197748716Y-136038994D01*
X197821761Y-135862647D01*
X197821763Y-135862639D01*
X197858999Y-135675442D01*
X197859000Y-135675439D01*
X197859000Y-135484561D01*
X197858999Y-135484557D01*
X197821763Y-135297360D01*
X197821760Y-135297348D01*
X197748719Y-135121010D01*
X197748713Y-135120999D01*
X197730223Y-135093329D01*
X197730222Y-135093328D01*
X197303560Y-135519991D01*
X197276718Y-135419816D01*
X197222083Y-135325184D01*
X197144816Y-135247917D01*
X197050184Y-135193282D01*
X196950007Y-135166439D01*
X197376670Y-134739776D01*
X197376670Y-134739775D01*
X197348998Y-134721285D01*
X197348992Y-134721282D01*
X197273539Y-134690028D01*
X197219136Y-134646187D01*
X197197071Y-134579892D01*
X197214350Y-134512193D01*
X197265488Y-134464583D01*
X197282671Y-134457537D01*
X197454092Y-134401839D01*
X197660186Y-134296829D01*
X197847315Y-134160872D01*
X198010872Y-133997315D01*
X198146829Y-133810186D01*
X198251839Y-133604092D01*
X198323316Y-133384109D01*
X198336261Y-133302379D01*
X198359500Y-133155657D01*
X198359500Y-132924342D01*
X198323316Y-132695890D01*
X198251837Y-132475903D01*
X198146828Y-132269813D01*
X198010872Y-132082685D01*
X197847315Y-131919128D01*
X197780134Y-131870318D01*
X197737468Y-131814988D01*
X197731489Y-131745375D01*
X197764095Y-131683580D01*
X197780134Y-131669682D01*
X197792766Y-131660503D01*
X197847315Y-131620872D01*
X198010872Y-131457315D01*
X198146829Y-131270186D01*
X198251839Y-131064092D01*
X198323316Y-130844109D01*
X198335024Y-130770186D01*
X198359500Y-130615657D01*
X198359500Y-130384342D01*
X198323316Y-130155890D01*
X198251837Y-129935903D01*
X198196442Y-129827185D01*
X198146829Y-129729814D01*
X198010872Y-129542685D01*
X197847315Y-129379128D01*
X197660186Y-129243171D01*
X197454096Y-129138162D01*
X197234109Y-129066683D01*
X197005657Y-129030500D01*
X197005652Y-129030500D01*
X196774348Y-129030500D01*
X196774343Y-129030500D01*
X196545890Y-129066683D01*
X196325903Y-129138162D01*
X196119813Y-129243171D01*
X195932682Y-129379130D01*
X195769130Y-129542682D01*
X195633171Y-129729813D01*
X195528162Y-129935903D01*
X195456683Y-130155890D01*
X195420500Y-130384342D01*
X195420500Y-130615657D01*
X195456683Y-130844109D01*
X195528162Y-131064096D01*
X195589043Y-131183580D01*
X195633171Y-131270186D01*
X195769128Y-131457315D01*
X195932685Y-131620872D01*
X195981234Y-131656145D01*
X195999866Y-131669682D01*
X196042531Y-131725013D01*
X196048510Y-131794626D01*
X196015904Y-131856421D01*
X195999866Y-131870318D01*
X195932683Y-131919129D01*
X195769130Y-132082682D01*
X195633171Y-132269813D01*
X195528162Y-132475903D01*
X195456683Y-132695890D01*
X195420500Y-132924342D01*
X195420500Y-133155657D01*
X195456683Y-133384109D01*
X195528162Y-133604096D01*
X195626365Y-133796828D01*
X195633171Y-133810186D01*
X195769128Y-133997315D01*
X195932685Y-134160872D01*
X196119814Y-134296829D01*
X196325908Y-134401839D01*
X196483206Y-134452948D01*
X196497325Y-134457536D01*
X196555001Y-134496974D01*
X196582199Y-134561332D01*
X196570284Y-134630179D01*
X196523040Y-134681654D01*
X196506461Y-134690028D01*
X196431006Y-134721282D01*
X196403329Y-134739775D01*
X196403329Y-134739776D01*
X196829993Y-135166439D01*
X196729816Y-135193282D01*
X196635184Y-135247917D01*
X196557917Y-135325184D01*
X196503282Y-135419816D01*
X196476439Y-135519992D01*
X196049776Y-135093329D01*
X196049775Y-135093329D01*
X196031280Y-135121009D01*
X195958239Y-135297348D01*
X195958236Y-135297360D01*
X195921000Y-135484557D01*
X195921000Y-135675442D01*
X195958236Y-135862639D01*
X195958239Y-135862651D01*
X196031280Y-136038989D01*
X196031285Y-136038998D01*
X196049775Y-136066670D01*
X196049776Y-136066670D01*
X196476439Y-135640006D01*
X196503282Y-135740184D01*
X196557917Y-135834816D01*
X196635184Y-135912083D01*
X196729816Y-135966718D01*
X196829992Y-135993560D01*
X196403328Y-136420222D01*
X196403329Y-136420223D01*
X196430999Y-136438713D01*
X196431010Y-136438719D01*
X196506459Y-136469971D01*
X196560863Y-136513812D01*
X196582928Y-136580106D01*
X196565649Y-136647805D01*
X196514512Y-136695416D01*
X196497326Y-136702463D01*
X196325903Y-136758162D01*
X196119814Y-136863170D01*
X196001462Y-136949158D01*
X196000084Y-136949649D01*
X195999167Y-136950785D01*
X195967295Y-136961348D01*
X195935655Y-136972637D01*
X195933783Y-136972454D01*
X195932845Y-136972766D01*
X195897758Y-136968948D01*
X195864074Y-136960305D01*
X195851638Y-136956407D01*
X195484691Y-136819827D01*
X195472733Y-136814645D01*
X195122161Y-136640310D01*
X195110812Y-136633902D01*
X194780462Y-136423728D01*
X194769849Y-136416164D01*
X194463386Y-136172479D01*
X194453626Y-136163843D01*
X194301032Y-136013812D01*
X194174437Y-135889343D01*
X194165638Y-135879733D01*
X194151576Y-135862651D01*
X193997470Y-135675442D01*
X193916796Y-135577439D01*
X193909054Y-135566956D01*
X193895742Y-135546795D01*
X193895741Y-135546794D01*
X193731046Y-135297360D01*
X193693313Y-135240212D01*
X193686716Y-135228977D01*
X193506465Y-134881401D01*
X193501083Y-134869537D01*
X193472812Y-134797348D01*
X193358306Y-134504957D01*
X193354199Y-134492591D01*
X193333915Y-134418755D01*
X193250475Y-134115031D01*
X193247692Y-134102317D01*
X193184169Y-133715964D01*
X193182734Y-133703015D01*
X193178056Y-133622178D01*
X193159921Y-133308829D01*
X193159719Y-133302379D01*
X193159261Y-133214876D01*
X193100572Y-121993428D01*
X194350000Y-121993428D01*
X194350000Y-122166571D01*
X194377085Y-122337584D01*
X194430592Y-122502259D01*
X194509196Y-122656525D01*
X194513709Y-122662736D01*
X194513709Y-122662737D01*
X195050000Y-122126446D01*
X195050000Y-122132661D01*
X195077259Y-122234394D01*
X195129920Y-122325606D01*
X195204394Y-122400080D01*
X195295606Y-122452741D01*
X195397339Y-122480000D01*
X195403553Y-122480000D01*
X194867261Y-123016289D01*
X194867262Y-123016290D01*
X194873471Y-123020801D01*
X195027742Y-123099408D01*
X195192415Y-123152914D01*
X195363429Y-123180000D01*
X195536571Y-123180000D01*
X195707584Y-123152914D01*
X195872257Y-123099408D01*
X196026525Y-123020803D01*
X196032736Y-123016289D01*
X196032737Y-123016289D01*
X195496448Y-122480000D01*
X195502661Y-122480000D01*
X195604394Y-122452741D01*
X195695606Y-122400080D01*
X195770080Y-122325606D01*
X195822741Y-122234394D01*
X195850000Y-122132661D01*
X195850000Y-122126447D01*
X196386289Y-122662736D01*
X196390803Y-122656525D01*
X196469408Y-122502257D01*
X196522914Y-122337584D01*
X196550000Y-122166571D01*
X196550000Y-121993428D01*
X196522914Y-121822415D01*
X196469408Y-121657742D01*
X196390801Y-121503471D01*
X196386290Y-121497262D01*
X196386289Y-121497261D01*
X195850000Y-122033551D01*
X195850000Y-122027339D01*
X195822741Y-121925606D01*
X195770080Y-121834394D01*
X195695606Y-121759920D01*
X195604394Y-121707259D01*
X195502661Y-121680000D01*
X195496447Y-121680000D01*
X196032737Y-121143709D01*
X196026525Y-121139196D01*
X195872259Y-121060592D01*
X195707584Y-121007085D01*
X195536571Y-120980000D01*
X195363429Y-120980000D01*
X195192415Y-121007085D01*
X195027740Y-121060592D01*
X194873480Y-121139193D01*
X194873463Y-121139203D01*
X194867261Y-121143708D01*
X194867261Y-121143709D01*
X195403554Y-121680000D01*
X195397339Y-121680000D01*
X195295606Y-121707259D01*
X195204394Y-121759920D01*
X195129920Y-121834394D01*
X195077259Y-121925606D01*
X195050000Y-122027339D01*
X195050000Y-122033552D01*
X194513709Y-121497261D01*
X194513708Y-121497261D01*
X194509203Y-121503463D01*
X194509193Y-121503480D01*
X194430592Y-121657740D01*
X194377085Y-121822415D01*
X194350000Y-121993428D01*
X193100572Y-121993428D01*
X193099967Y-121877655D01*
X193098010Y-121503463D01*
X193096379Y-121191615D01*
X193096105Y-121139196D01*
X193095493Y-121022228D01*
X193095492Y-121022224D01*
X193080000Y-118060000D01*
X193079999Y-118060000D01*
X188868016Y-118264648D01*
X188857882Y-118264726D01*
X188612517Y-118256576D01*
X188592396Y-118254252D01*
X188356629Y-118207262D01*
X188337156Y-118201695D01*
X188112170Y-118116948D01*
X188093863Y-118108284D01*
X187885682Y-117988046D01*
X187869034Y-117976521D01*
X187683194Y-117823991D01*
X187668645Y-117809910D01*
X187510122Y-117629170D01*
X187498055Y-117612903D01*
X187371068Y-117408765D01*
X187361810Y-117390753D01*
X187269742Y-117168654D01*
X187263548Y-117149395D01*
X187208863Y-116915271D01*
X187205885Y-116895254D01*
X187189706Y-116650256D01*
X187189454Y-116640134D01*
X187191511Y-116510153D01*
X187215512Y-114992933D01*
X187215512Y-114992891D01*
X187216303Y-114942915D01*
X187042339Y-96019602D01*
X187042567Y-96019040D01*
X187094458Y-96016068D01*
X187096190Y-96016470D01*
X187101753Y-96015865D01*
X195500000Y-96030000D01*
G37*
%TD.AperFunction*%
%TD*%
%TA.AperFunction,Conductor*%
%TO.N,+12V*%
G36*
X145893280Y-110511467D02*
G01*
X146042685Y-110660872D01*
X146229814Y-110796829D01*
X146435908Y-110901839D01*
X146593206Y-110952948D01*
X146607325Y-110957536D01*
X146665001Y-110996974D01*
X146692199Y-111061332D01*
X146680284Y-111130179D01*
X146633040Y-111181654D01*
X146616461Y-111190028D01*
X146541006Y-111221282D01*
X146513329Y-111239775D01*
X146513329Y-111239776D01*
X146939993Y-111666439D01*
X146839816Y-111693282D01*
X146745184Y-111747917D01*
X146667917Y-111825184D01*
X146613282Y-111919816D01*
X146586439Y-112019992D01*
X146159776Y-111593329D01*
X146159775Y-111593329D01*
X146141280Y-111621009D01*
X146068239Y-111797348D01*
X146068236Y-111797360D01*
X146031000Y-111984557D01*
X146031000Y-112175442D01*
X146068236Y-112362639D01*
X146068239Y-112362651D01*
X146141280Y-112538989D01*
X146141285Y-112538998D01*
X146159775Y-112566670D01*
X146159776Y-112566670D01*
X146586439Y-112140006D01*
X146613282Y-112240184D01*
X146667917Y-112334816D01*
X146745184Y-112412083D01*
X146839816Y-112466718D01*
X146939992Y-112493560D01*
X146513328Y-112920222D01*
X146513329Y-112920223D01*
X146540999Y-112938713D01*
X146541010Y-112938719D01*
X146616459Y-112969971D01*
X146670863Y-113013812D01*
X146692928Y-113080106D01*
X146675649Y-113147805D01*
X146624512Y-113195416D01*
X146607326Y-113202463D01*
X146435903Y-113258162D01*
X146229813Y-113363171D01*
X146042682Y-113499130D01*
X145879130Y-113662682D01*
X145743171Y-113849813D01*
X145638162Y-114055903D01*
X145566683Y-114275890D01*
X145530500Y-114504342D01*
X145530500Y-114735657D01*
X145566683Y-114964109D01*
X145638162Y-115184096D01*
X145743171Y-115390186D01*
X145879128Y-115577315D01*
X146042685Y-115740872D01*
X146229814Y-115876829D01*
X146327185Y-115926442D01*
X146435903Y-115981837D01*
X146435905Y-115981837D01*
X146435908Y-115981839D01*
X146553824Y-116020152D01*
X146655890Y-116053316D01*
X146884343Y-116089500D01*
X146884348Y-116089500D01*
X147115657Y-116089500D01*
X147344109Y-116053316D01*
X147564092Y-115981839D01*
X147770186Y-115876829D01*
X147957315Y-115740872D01*
X148120872Y-115577315D01*
X148256829Y-115390186D01*
X148361839Y-115184092D01*
X148433316Y-114964109D01*
X148469500Y-114735657D01*
X148469500Y-114504342D01*
X148433316Y-114275890D01*
X148361837Y-114055903D01*
X148256828Y-113849813D01*
X148120872Y-113662685D01*
X147957315Y-113499128D01*
X147770186Y-113363171D01*
X147564096Y-113258162D01*
X147392672Y-113202463D01*
X147334997Y-113163025D01*
X147307799Y-113098666D01*
X147319714Y-113029820D01*
X147366958Y-112978344D01*
X147383539Y-112969971D01*
X147458992Y-112938717D01*
X147486669Y-112920222D01*
X147060008Y-112493560D01*
X147160184Y-112466718D01*
X147254816Y-112412083D01*
X147332083Y-112334816D01*
X147386718Y-112240184D01*
X147413560Y-112140007D01*
X147840222Y-112566669D01*
X147858716Y-112538994D01*
X147931761Y-112362647D01*
X147931763Y-112362639D01*
X147968999Y-112175442D01*
X147969000Y-112175439D01*
X147969000Y-111984561D01*
X147968999Y-111984557D01*
X147931763Y-111797360D01*
X147931760Y-111797348D01*
X147858719Y-111621010D01*
X147858713Y-111620999D01*
X147840223Y-111593329D01*
X147840222Y-111593328D01*
X147413560Y-112019991D01*
X147386718Y-111919816D01*
X147332083Y-111825184D01*
X147254816Y-111747917D01*
X147160184Y-111693282D01*
X147060007Y-111666439D01*
X147486670Y-111239776D01*
X147486670Y-111239775D01*
X147458998Y-111221285D01*
X147458992Y-111221282D01*
X147383539Y-111190028D01*
X147329136Y-111146187D01*
X147307071Y-111079892D01*
X147324350Y-111012193D01*
X147375488Y-110964583D01*
X147392671Y-110957537D01*
X147564092Y-110901839D01*
X147770186Y-110796829D01*
X147957315Y-110660872D01*
X148089153Y-110529033D01*
X150893589Y-110551469D01*
X150879409Y-113330000D01*
X150842151Y-120630633D01*
X150822125Y-120697571D01*
X150769088Y-120743056D01*
X150699880Y-120752646D01*
X150645268Y-120730318D01*
X150546788Y-120658768D01*
X150392445Y-120580127D01*
X150227701Y-120526598D01*
X150227699Y-120526597D01*
X150227698Y-120526597D01*
X150096271Y-120505781D01*
X150056611Y-120499500D01*
X149883389Y-120499500D01*
X149843728Y-120505781D01*
X149712302Y-120526597D01*
X149547552Y-120580128D01*
X149393211Y-120658768D01*
X149339804Y-120697571D01*
X149253072Y-120760586D01*
X149253070Y-120760588D01*
X149253069Y-120760588D01*
X149130588Y-120883069D01*
X149130588Y-120883070D01*
X149130586Y-120883072D01*
X149086859Y-120943256D01*
X149028768Y-121023211D01*
X148950128Y-121177552D01*
X148896597Y-121342302D01*
X148869500Y-121513389D01*
X148869500Y-121686611D01*
X148896598Y-121857701D01*
X148950127Y-122022445D01*
X149028768Y-122176788D01*
X149130586Y-122316928D01*
X149253072Y-122439414D01*
X149393212Y-122541232D01*
X149547555Y-122619873D01*
X149712299Y-122673402D01*
X149883389Y-122700500D01*
X149883390Y-122700500D01*
X150056610Y-122700500D01*
X150056611Y-122700500D01*
X150227701Y-122673402D01*
X150392445Y-122619873D01*
X150546788Y-122541232D01*
X150635330Y-122476901D01*
X150701136Y-122453421D01*
X150769190Y-122469246D01*
X150817885Y-122519351D01*
X150832214Y-122577852D01*
X150701138Y-148262788D01*
X150700874Y-148270269D01*
X150678837Y-148606315D01*
X150676959Y-148621161D01*
X150615297Y-148948423D01*
X150611643Y-148962935D01*
X150511005Y-149280387D01*
X150505631Y-149294353D01*
X150367489Y-149597365D01*
X150360471Y-149610582D01*
X150186830Y-149894748D01*
X150178271Y-149907023D01*
X149971664Y-150168205D01*
X149961688Y-150179360D01*
X149725128Y-150413745D01*
X149713882Y-150423617D01*
X149450801Y-150627806D01*
X149438447Y-150636251D01*
X149152696Y-150807255D01*
X149139415Y-150814151D01*
X148835138Y-150949490D01*
X148821123Y-150954736D01*
X148502755Y-151052437D01*
X148488210Y-151055956D01*
X148160393Y-151114594D01*
X148145530Y-151116335D01*
X147813028Y-151135056D01*
X147798082Y-151134995D01*
X147465239Y-151113543D01*
X147450427Y-151111688D01*
X147122562Y-151050394D01*
X147108080Y-151046773D01*
X146789953Y-150946524D01*
X146776012Y-150941188D01*
X146472238Y-150803437D01*
X146459038Y-150796465D01*
X146174018Y-150623210D01*
X146161753Y-150614703D01*
X145899619Y-150408455D01*
X145888464Y-150398535D01*
X145684453Y-150193828D01*
X145651072Y-150132448D01*
X145656175Y-150062765D01*
X145698142Y-150006902D01*
X145752879Y-149983824D01*
X145864013Y-149966223D01*
X146096721Y-149890612D01*
X146314736Y-149779528D01*
X146512689Y-149635706D01*
X146685706Y-149462689D01*
X146774582Y-149340362D01*
X146829911Y-149297698D01*
X146899525Y-149291719D01*
X146961320Y-149324325D01*
X146988334Y-149363164D01*
X146994211Y-149376474D01*
X146994214Y-149376479D01*
X147073520Y-149455785D01*
X147073525Y-149455788D01*
X147176123Y-149501089D01*
X147201206Y-149503999D01*
X147749999Y-149503999D01*
X147750000Y-149503998D01*
X147750000Y-148883012D01*
X147807007Y-148915925D01*
X147934174Y-148950000D01*
X148065826Y-148950000D01*
X148192993Y-148915925D01*
X148250000Y-148883012D01*
X148250000Y-149503999D01*
X148798786Y-149503999D01*
X148798808Y-149503997D01*
X148823869Y-149501091D01*
X148823873Y-149501090D01*
X148926474Y-149455788D01*
X148926479Y-149455785D01*
X149005785Y-149376479D01*
X149005788Y-149376474D01*
X149051089Y-149273877D01*
X149051089Y-149273875D01*
X149053999Y-149248794D01*
X149054000Y-149248791D01*
X149054000Y-148700000D01*
X148433012Y-148700000D01*
X148465925Y-148642993D01*
X148500000Y-148515826D01*
X148500000Y-148384174D01*
X148465925Y-148257007D01*
X148433012Y-148200000D01*
X149053999Y-148200000D01*
X149053999Y-147651214D01*
X149053997Y-147651191D01*
X149051091Y-147626130D01*
X149051090Y-147626126D01*
X149005788Y-147523525D01*
X149005785Y-147523520D01*
X148926479Y-147444214D01*
X148926474Y-147444211D01*
X148823876Y-147398910D01*
X148798794Y-147396000D01*
X148250000Y-147396000D01*
X148250000Y-148016988D01*
X148192993Y-147984075D01*
X148065826Y-147950000D01*
X147934174Y-147950000D01*
X147807007Y-147984075D01*
X147750000Y-148016988D01*
X147750000Y-147396000D01*
X147201214Y-147396000D01*
X147201191Y-147396002D01*
X147176130Y-147398908D01*
X147176126Y-147398909D01*
X147073525Y-147444211D01*
X147073520Y-147444214D01*
X146994214Y-147523520D01*
X146994210Y-147523526D01*
X146988333Y-147536837D01*
X146943247Y-147590213D01*
X146876460Y-147610740D01*
X146809178Y-147591901D01*
X146774581Y-147559636D01*
X146690719Y-147444211D01*
X146685706Y-147437311D01*
X146512689Y-147264294D01*
X146314736Y-147120472D01*
X146096721Y-147009387D01*
X146096718Y-147009386D01*
X145864014Y-146933777D01*
X145743177Y-146914638D01*
X145622342Y-146895500D01*
X145377658Y-146895500D01*
X145344615Y-146900733D01*
X145135987Y-146933776D01*
X145083887Y-146950704D01*
X145014045Y-146952698D01*
X144954213Y-146916616D01*
X144923387Y-146853914D01*
X144921571Y-146832872D01*
X144909303Y-129993389D01*
X147429500Y-129993389D01*
X147429500Y-130166611D01*
X147456598Y-130337701D01*
X147510127Y-130502445D01*
X147588768Y-130656788D01*
X147690586Y-130796928D01*
X147813072Y-130919414D01*
X147953212Y-131021232D01*
X148107555Y-131099873D01*
X148272299Y-131153402D01*
X148443389Y-131180500D01*
X148443390Y-131180500D01*
X148616610Y-131180500D01*
X148616611Y-131180500D01*
X148787701Y-131153402D01*
X148952445Y-131099873D01*
X149106788Y-131021232D01*
X149246928Y-130919414D01*
X149369414Y-130796928D01*
X149471232Y-130656788D01*
X149549873Y-130502445D01*
X149603402Y-130337701D01*
X149630500Y-130166611D01*
X149630500Y-129993389D01*
X149603402Y-129822299D01*
X149549873Y-129657555D01*
X149471232Y-129503212D01*
X149369414Y-129363072D01*
X149246928Y-129240586D01*
X149106788Y-129138768D01*
X148952445Y-129060127D01*
X148787701Y-129006598D01*
X148787699Y-129006597D01*
X148787698Y-129006597D01*
X148656271Y-128985781D01*
X148616611Y-128979500D01*
X148443389Y-128979500D01*
X148403728Y-128985781D01*
X148272302Y-129006597D01*
X148107552Y-129060128D01*
X147953211Y-129138768D01*
X147873256Y-129196859D01*
X147813072Y-129240586D01*
X147813070Y-129240588D01*
X147813069Y-129240588D01*
X147690588Y-129363069D01*
X147690588Y-129363070D01*
X147690586Y-129363072D01*
X147646859Y-129423256D01*
X147588768Y-129503211D01*
X147510128Y-129657552D01*
X147456597Y-129822302D01*
X147429500Y-129993389D01*
X144909303Y-129993389D01*
X144897468Y-113748581D01*
X144895104Y-110503482D01*
X145893280Y-110511467D01*
G37*
%TD.AperFunction*%
%TD*%
%TA.AperFunction,Conductor*%
%TO.N,/Power Distribution/12V_FUSED_MAIN*%
G36*
X234585207Y-88682899D02*
G01*
X234589240Y-88683013D01*
X234884405Y-88696300D01*
X234892618Y-88696946D01*
X234900838Y-88697868D01*
X234908999Y-88699061D01*
X235193572Y-88750378D01*
X235201634Y-88752112D01*
X235209674Y-88754123D01*
X235217568Y-88756381D01*
X235492800Y-88845105D01*
X235500555Y-88847893D01*
X235508244Y-88850951D01*
X235515788Y-88854247D01*
X235776768Y-88978797D01*
X235784090Y-88982597D01*
X235791299Y-88986648D01*
X235798359Y-88990931D01*
X236040418Y-89149072D01*
X236047185Y-89153822D01*
X236053775Y-89158784D01*
X236060216Y-89163979D01*
X236279088Y-89352918D01*
X236285161Y-89358524D01*
X236291035Y-89364321D01*
X236296728Y-89370328D01*
X236410490Y-89498673D01*
X236410491Y-89498674D01*
X236488511Y-89586696D01*
X236493782Y-89593058D01*
X236498829Y-89599580D01*
X236503675Y-89606293D01*
X236664974Y-89846258D01*
X236669357Y-89853274D01*
X236673498Y-89860422D01*
X236677403Y-89867711D01*
X236803030Y-90122310D01*
X236803032Y-90122314D01*
X236803034Y-90122318D01*
X236805345Y-90127002D01*
X236808749Y-90134522D01*
X236811894Y-90142135D01*
X236814799Y-90149891D01*
X236907114Y-90423907D01*
X236909491Y-90431829D01*
X236911598Y-90439806D01*
X236913443Y-90447870D01*
X236968479Y-90731713D01*
X236969781Y-90739875D01*
X236970810Y-90748074D01*
X236971566Y-90756316D01*
X236988714Y-91051167D01*
X236988885Y-91055300D01*
X236988987Y-91059424D01*
X236989020Y-91063559D01*
X236975501Y-92631589D01*
X236973019Y-92655232D01*
X236968346Y-92678210D01*
X236961394Y-92700950D01*
X236888847Y-92876093D01*
X236888847Y-92876094D01*
X236888841Y-92876114D01*
X236847719Y-93029589D01*
X236829453Y-93097756D01*
X236829450Y-93097774D01*
X236829448Y-93097789D01*
X236800203Y-93319919D01*
X236799500Y-93325258D01*
X236799500Y-93554741D01*
X236809358Y-93629615D01*
X236829452Y-93782238D01*
X236877198Y-93960431D01*
X236888027Y-94000847D01*
X236888843Y-94003889D01*
X236888845Y-94003896D01*
X236976652Y-94215881D01*
X236976655Y-94215887D01*
X236976657Y-94215890D01*
X236982517Y-94226040D01*
X236994114Y-94253131D01*
X237002232Y-94280802D01*
X237007109Y-94309860D01*
X237029499Y-94784039D01*
X237026129Y-94819175D01*
X237023458Y-94830164D01*
X236988496Y-94890657D01*
X236926380Y-94922646D01*
X236856829Y-94915974D01*
X236856819Y-94915970D01*
X236854083Y-94914873D01*
X236812456Y-94887082D01*
X236812316Y-94887223D01*
X236807554Y-94882461D01*
X236807542Y-94882450D01*
X236723017Y-94819175D01*
X236692335Y-94796206D01*
X236692332Y-94796204D01*
X236692330Y-94796203D01*
X236692328Y-94796202D01*
X236557482Y-94745908D01*
X236557483Y-94745908D01*
X236497883Y-94739501D01*
X236497881Y-94739500D01*
X236497873Y-94739500D01*
X236497865Y-94739500D01*
X236496841Y-94739500D01*
X235597017Y-94739500D01*
X235562078Y-94734476D01*
X235548760Y-94730565D01*
X235533761Y-94720925D01*
X235516658Y-94715903D01*
X235504983Y-94702430D01*
X235489983Y-94692789D01*
X235482576Y-94676570D01*
X235470904Y-94663099D01*
X235460961Y-94629234D01*
X235459351Y-94618035D01*
X235459615Y-94580994D01*
X235490000Y-94389163D01*
X235490000Y-94190836D01*
X235458973Y-93994947D01*
X235458938Y-93994839D01*
X235397697Y-93806353D01*
X235397689Y-93806330D01*
X235397688Y-93806327D01*
X235307645Y-93629612D01*
X235280838Y-93592715D01*
X235280837Y-93592714D01*
X235280836Y-93592714D01*
X234847023Y-94026528D01*
X234785700Y-94060013D01*
X234716009Y-94055029D01*
X234660075Y-94013158D01*
X234651955Y-94000847D01*
X234638102Y-93976853D01*
X234543147Y-93881898D01*
X234519148Y-93868042D01*
X234470934Y-93817475D01*
X234457712Y-93748868D01*
X234483680Y-93684003D01*
X234493462Y-93672981D01*
X234927283Y-93239161D01*
X234927280Y-93239159D01*
X234890380Y-93212350D01*
X234890373Y-93212346D01*
X234713672Y-93122311D01*
X234713668Y-93122309D01*
X234713645Y-93122301D01*
X234525054Y-93061026D01*
X234525055Y-93061026D01*
X234378135Y-93037756D01*
X234329163Y-93030000D01*
X234329162Y-93030000D01*
X234130838Y-93030000D01*
X234130837Y-93030000D01*
X234065540Y-93040342D01*
X233934945Y-93061026D01*
X233746332Y-93122309D01*
X233746317Y-93122314D01*
X233569621Y-93212348D01*
X233569614Y-93212352D01*
X233532715Y-93239159D01*
X233532715Y-93239161D01*
X233966529Y-93672975D01*
X234000014Y-93734298D01*
X233995030Y-93803990D01*
X233953158Y-93859923D01*
X233940852Y-93868041D01*
X233916856Y-93881896D01*
X233916850Y-93881900D01*
X233821900Y-93976850D01*
X233821896Y-93976856D01*
X233808041Y-94000852D01*
X233757472Y-94049066D01*
X233688865Y-94062286D01*
X233624001Y-94036316D01*
X233612975Y-94026529D01*
X233179161Y-93592715D01*
X233179160Y-93592715D01*
X233179159Y-93592715D01*
X233152352Y-93629614D01*
X233152352Y-93629615D01*
X233062314Y-93806317D01*
X233062309Y-93806332D01*
X233001026Y-93994945D01*
X232984072Y-94101989D01*
X232970000Y-94190836D01*
X232970000Y-94389163D01*
X232974031Y-94414612D01*
X233001026Y-94585053D01*
X233062301Y-94773645D01*
X233062309Y-94773668D01*
X233062311Y-94773672D01*
X233138218Y-94922646D01*
X233152350Y-94950380D01*
X233179161Y-94987283D01*
X233612976Y-94553468D01*
X233674298Y-94519984D01*
X233743990Y-94524968D01*
X233799923Y-94566840D01*
X233808039Y-94579144D01*
X233821898Y-94603147D01*
X233916853Y-94698102D01*
X233940847Y-94711955D01*
X233989063Y-94762522D01*
X234002285Y-94831129D01*
X233976317Y-94895994D01*
X233966528Y-94907023D01*
X233532714Y-95340836D01*
X233532714Y-95340837D01*
X233532715Y-95340838D01*
X233569612Y-95367645D01*
X233746327Y-95457688D01*
X233746330Y-95457689D01*
X233746353Y-95457697D01*
X233934944Y-95518972D01*
X233934947Y-95518973D01*
X234130837Y-95550000D01*
X234329162Y-95550000D01*
X234329163Y-95550000D01*
X234525052Y-95518973D01*
X234670237Y-95471800D01*
X234704993Y-95465786D01*
X234718884Y-95465389D01*
X234786453Y-95483152D01*
X234833691Y-95534620D01*
X234836776Y-95540897D01*
X234849500Y-95595608D01*
X234849500Y-95977943D01*
X234844475Y-96012884D01*
X234840564Y-96026201D01*
X234830924Y-96041198D01*
X234825900Y-96058307D01*
X234812425Y-96069980D01*
X234802787Y-96084977D01*
X234786567Y-96092383D01*
X234773092Y-96104058D01*
X234739232Y-96113997D01*
X234739229Y-96113999D01*
X234739227Y-96113999D01*
X234732310Y-96114993D01*
X234676356Y-96110186D01*
X234653368Y-96102717D01*
X234618024Y-96091233D01*
X234588554Y-96071083D01*
X234329168Y-96030000D01*
X234329163Y-96030000D01*
X234130837Y-96030000D01*
X234065540Y-96040342D01*
X233934945Y-96061026D01*
X233746332Y-96122309D01*
X233746317Y-96122314D01*
X233569621Y-96212348D01*
X233569614Y-96212352D01*
X233532715Y-96239159D01*
X233532715Y-96239161D01*
X233966529Y-96672975D01*
X234000014Y-96734298D01*
X233995030Y-96803990D01*
X233953158Y-96859923D01*
X233940852Y-96868041D01*
X233916856Y-96881896D01*
X233916850Y-96881900D01*
X233821900Y-96976850D01*
X233821896Y-96976856D01*
X233808041Y-97000852D01*
X233757472Y-97049066D01*
X233688865Y-97062286D01*
X233624001Y-97036316D01*
X233612975Y-97026529D01*
X233179161Y-96592715D01*
X233179160Y-96592715D01*
X233179159Y-96592715D01*
X233152352Y-96629614D01*
X233152348Y-96629621D01*
X233062314Y-96806317D01*
X233062309Y-96806332D01*
X233001026Y-96994945D01*
X232970000Y-97190836D01*
X232970000Y-97389162D01*
X233001026Y-97585055D01*
X233062301Y-97773645D01*
X233062309Y-97773668D01*
X233062311Y-97773672D01*
X233130257Y-97907022D01*
X233152350Y-97950380D01*
X233179161Y-97987283D01*
X233612976Y-97553468D01*
X233674298Y-97519984D01*
X233743990Y-97524968D01*
X233799923Y-97566840D01*
X233808039Y-97579144D01*
X233821898Y-97603147D01*
X233916853Y-97698102D01*
X233940846Y-97711955D01*
X233989061Y-97762520D01*
X234002285Y-97831127D01*
X233976317Y-97895992D01*
X233966527Y-97907022D01*
X233532714Y-98340836D01*
X233532714Y-98340837D01*
X233532715Y-98340838D01*
X233569612Y-98367645D01*
X233746327Y-98457688D01*
X233746330Y-98457689D01*
X233746353Y-98457697D01*
X233934944Y-98518972D01*
X233934947Y-98518973D01*
X234130837Y-98550000D01*
X234329162Y-98550000D01*
X234329163Y-98550000D01*
X234427107Y-98534486D01*
X234525053Y-98518973D01*
X234572206Y-98503652D01*
X234713669Y-98457689D01*
X234713677Y-98457686D01*
X234874916Y-98375529D01*
X234908307Y-98364148D01*
X234923684Y-98361260D01*
X234993197Y-98368229D01*
X234997176Y-98369844D01*
X234998468Y-98370369D01*
X235043003Y-98401220D01*
X235043638Y-98401910D01*
X235055553Y-98417048D01*
X235084022Y-98459654D01*
X235084026Y-98459659D01*
X235084029Y-98459663D01*
X235230339Y-98605973D01*
X235230345Y-98605977D01*
X235230349Y-98605980D01*
X235336630Y-98676995D01*
X235362880Y-98700574D01*
X235371785Y-98711228D01*
X235399670Y-98775289D01*
X235388495Y-98844259D01*
X235388491Y-98844267D01*
X235386231Y-98848990D01*
X235343267Y-98898569D01*
X235230376Y-98973999D01*
X235230354Y-98974014D01*
X235230336Y-98974028D01*
X235084027Y-99120337D01*
X235084023Y-99120342D01*
X235060103Y-99156143D01*
X235060100Y-99156145D01*
X235060100Y-99156147D01*
X235036515Y-99182403D01*
X235024520Y-99192427D01*
X234960458Y-99220311D01*
X234960457Y-99220311D01*
X234960456Y-99220311D01*
X234960454Y-99220311D01*
X234960452Y-99220311D01*
X234954829Y-99221018D01*
X234900763Y-99215820D01*
X234899878Y-99215530D01*
X234882201Y-99208182D01*
X234713672Y-99122311D01*
X234713669Y-99122310D01*
X234713666Y-99122309D01*
X234713664Y-99122308D01*
X234713645Y-99122301D01*
X234525054Y-99061026D01*
X234525055Y-99061026D01*
X234378135Y-99037756D01*
X234329163Y-99030000D01*
X234329162Y-99030000D01*
X234130838Y-99030000D01*
X234130837Y-99030000D01*
X234065540Y-99040342D01*
X233934945Y-99061026D01*
X233746332Y-99122309D01*
X233746317Y-99122314D01*
X233569621Y-99212348D01*
X233569614Y-99212352D01*
X233532715Y-99239159D01*
X233532715Y-99239161D01*
X233966529Y-99672975D01*
X234000014Y-99734298D01*
X233995030Y-99803990D01*
X233953158Y-99859923D01*
X233940852Y-99868041D01*
X233916856Y-99881896D01*
X233916850Y-99881900D01*
X233821900Y-99976850D01*
X233821896Y-99976856D01*
X233808041Y-100000852D01*
X233757472Y-100049066D01*
X233688865Y-100062286D01*
X233624001Y-100036316D01*
X233612975Y-100026529D01*
X233179161Y-99592715D01*
X233179160Y-99592715D01*
X233179159Y-99592715D01*
X233152352Y-99629614D01*
X233152348Y-99629621D01*
X233062314Y-99806317D01*
X233062309Y-99806332D01*
X233001026Y-99994945D01*
X232970000Y-100190836D01*
X232970000Y-100389162D01*
X233001026Y-100585055D01*
X233062301Y-100773645D01*
X233062309Y-100773668D01*
X233062311Y-100773672D01*
X233148550Y-100942924D01*
X233152350Y-100950380D01*
X233179161Y-100987283D01*
X233612976Y-100553468D01*
X233674298Y-100519984D01*
X233743990Y-100524968D01*
X233799923Y-100566840D01*
X233808039Y-100579144D01*
X233821898Y-100603147D01*
X233916853Y-100698102D01*
X233940846Y-100711955D01*
X233989061Y-100762520D01*
X234002285Y-100831127D01*
X233976317Y-100895992D01*
X233966527Y-100907022D01*
X233532714Y-101340836D01*
X233532714Y-101340837D01*
X233532715Y-101340838D01*
X233569612Y-101367645D01*
X233746327Y-101457688D01*
X233746330Y-101457689D01*
X233746353Y-101457697D01*
X233934944Y-101518972D01*
X233934947Y-101518973D01*
X234130837Y-101550000D01*
X234329162Y-101550000D01*
X234329163Y-101550000D01*
X234525052Y-101518973D01*
X234689396Y-101465575D01*
X234724152Y-101459561D01*
X234738043Y-101459164D01*
X234805612Y-101476927D01*
X234852844Y-101528384D01*
X234853751Y-101530229D01*
X234866472Y-101586528D01*
X234866418Y-101590784D01*
X234864045Y-101613402D01*
X234849500Y-101686525D01*
X234849500Y-101686530D01*
X234849500Y-101893469D01*
X234849500Y-101893471D01*
X234849499Y-101893471D01*
X234862796Y-101960316D01*
X234862797Y-101960317D01*
X234864687Y-101995561D01*
X234863450Y-102009386D01*
X234837869Y-102074404D01*
X234781197Y-102115271D01*
X234779261Y-102115954D01*
X234721878Y-102121964D01*
X234720986Y-102121848D01*
X234717655Y-102121411D01*
X234695467Y-102116395D01*
X234618024Y-102091233D01*
X234588555Y-102071083D01*
X234329168Y-102030000D01*
X234329163Y-102030000D01*
X234130837Y-102030000D01*
X234065540Y-102040342D01*
X233934945Y-102061026D01*
X233746332Y-102122309D01*
X233746317Y-102122314D01*
X233569621Y-102212348D01*
X233569614Y-102212352D01*
X233532715Y-102239159D01*
X233532715Y-102239161D01*
X233966529Y-102672975D01*
X234000014Y-102734298D01*
X233995030Y-102803990D01*
X233953158Y-102859923D01*
X233940852Y-102868041D01*
X233916856Y-102881896D01*
X233916850Y-102881900D01*
X233821900Y-102976850D01*
X233821896Y-102976856D01*
X233808041Y-103000852D01*
X233757472Y-103049066D01*
X233688865Y-103062286D01*
X233624001Y-103036316D01*
X233612975Y-103026529D01*
X233179161Y-102592715D01*
X233179160Y-102592715D01*
X233179159Y-102592715D01*
X233152352Y-102629614D01*
X233152348Y-102629621D01*
X233062314Y-102806317D01*
X233062309Y-102806332D01*
X233001026Y-102994945D01*
X232970000Y-103190836D01*
X232970000Y-103389162D01*
X233001026Y-103585055D01*
X233062301Y-103773645D01*
X233062309Y-103773668D01*
X233062311Y-103773672D01*
X233123582Y-103893922D01*
X233152350Y-103950380D01*
X233179161Y-103987283D01*
X233612976Y-103553468D01*
X233674298Y-103519984D01*
X233743990Y-103524968D01*
X233799923Y-103566840D01*
X233808039Y-103579144D01*
X233821898Y-103603147D01*
X233916853Y-103698102D01*
X233940845Y-103711954D01*
X233940847Y-103711955D01*
X233989063Y-103762522D01*
X234002285Y-103831129D01*
X233976317Y-103895994D01*
X233966528Y-103907023D01*
X233532714Y-104340836D01*
X233532714Y-104340837D01*
X233532715Y-104340838D01*
X233569612Y-104367645D01*
X233746327Y-104457688D01*
X233746330Y-104457689D01*
X233746353Y-104457697D01*
X233934944Y-104518972D01*
X233934947Y-104518973D01*
X234130837Y-104550000D01*
X234329162Y-104550000D01*
X234329163Y-104550000D01*
X234525052Y-104518973D01*
X234546009Y-104512163D01*
X234713645Y-104457697D01*
X234713653Y-104457693D01*
X234713669Y-104457689D01*
X234713672Y-104457688D01*
X234890382Y-104367648D01*
X234927283Y-104340837D01*
X234927284Y-104340836D01*
X234493471Y-103907023D01*
X234459986Y-103845700D01*
X234464970Y-103776008D01*
X234506842Y-103720075D01*
X234519139Y-103711962D01*
X234543147Y-103698102D01*
X234638102Y-103603147D01*
X234651956Y-103579150D01*
X234702523Y-103530935D01*
X234771130Y-103517712D01*
X234835995Y-103543680D01*
X234847023Y-103553469D01*
X235280837Y-103987283D01*
X235307647Y-103950384D01*
X235397688Y-103773672D01*
X235397689Y-103773669D01*
X235458973Y-103585052D01*
X235490000Y-103389163D01*
X235490000Y-103190836D01*
X235458973Y-102994947D01*
X235452882Y-102976200D01*
X235446867Y-102941439D01*
X235446470Y-102927549D01*
X235464233Y-102859981D01*
X235515688Y-102812750D01*
X235517539Y-102811840D01*
X235573830Y-102799122D01*
X235578093Y-102799175D01*
X235600707Y-102801548D01*
X235794345Y-102840064D01*
X235796351Y-102840500D01*
X236003466Y-102840500D01*
X236007586Y-102840500D01*
X236015435Y-102838118D01*
X236206420Y-102800130D01*
X236397598Y-102720941D01*
X236569655Y-102605977D01*
X236715977Y-102459655D01*
X236783894Y-102358009D01*
X236798100Y-102336749D01*
X236809308Y-102326709D01*
X236815357Y-102316159D01*
X236821682Y-102310494D01*
X236830359Y-102303242D01*
X236840380Y-102298879D01*
X236844044Y-102295598D01*
X236854005Y-102290424D01*
X236864549Y-102288358D01*
X236894422Y-102275354D01*
X236914402Y-102278591D01*
X236922571Y-102276991D01*
X236935025Y-102281932D01*
X236963392Y-102286529D01*
X236976676Y-102298459D01*
X236987515Y-102302760D01*
X236998444Y-102318009D01*
X237015364Y-102333204D01*
X237016650Y-102335286D01*
X237020544Y-102348842D01*
X237028218Y-102359549D01*
X237029204Y-102378992D01*
X237035161Y-102399732D01*
X237039912Y-103203905D01*
X237035783Y-103236377D01*
X237027626Y-103267184D01*
X237015145Y-103297443D01*
X236976667Y-103364090D01*
X236976651Y-103364119D01*
X236888845Y-103576102D01*
X236888839Y-103576120D01*
X236881597Y-103603145D01*
X236881598Y-103603146D01*
X236870256Y-103645477D01*
X236835856Y-103773864D01*
X236833910Y-103781127D01*
X236829454Y-103797755D01*
X236829450Y-103797774D01*
X236829448Y-103797789D01*
X236799500Y-104025257D01*
X236799500Y-104254747D01*
X236814422Y-104368075D01*
X236814422Y-104368076D01*
X236829452Y-104482237D01*
X236847609Y-104550001D01*
X236888842Y-104703886D01*
X236888847Y-104703902D01*
X236976644Y-104915863D01*
X236976650Y-104915876D01*
X236976657Y-104915891D01*
X237014916Y-104982158D01*
X237024725Y-105003650D01*
X237026636Y-105009181D01*
X237028016Y-105014854D01*
X237029457Y-105017344D01*
X237033199Y-105028170D01*
X237033646Y-105037660D01*
X237039867Y-105074431D01*
X237032885Y-105224627D01*
X237032414Y-105231107D01*
X237031772Y-105237580D01*
X237030963Y-105244016D01*
X236977852Y-105592668D01*
X236976707Y-105599056D01*
X236975399Y-105605394D01*
X236973920Y-105611717D01*
X236884662Y-105952882D01*
X236882853Y-105959124D01*
X236880883Y-105965310D01*
X236878754Y-105971436D01*
X236754315Y-106301425D01*
X236751872Y-106307425D01*
X236749267Y-106313372D01*
X236746501Y-106319260D01*
X236588266Y-106634402D01*
X236585206Y-106640120D01*
X236581991Y-106645766D01*
X236578628Y-106651327D01*
X236388305Y-106948224D01*
X236384657Y-106953600D01*
X236380873Y-106958873D01*
X236376954Y-106964042D01*
X236156648Y-107239408D01*
X236152468Y-107244362D01*
X236148164Y-107249200D01*
X236143717Y-107253942D01*
X235895809Y-107504798D01*
X235891121Y-107509300D01*
X235886332Y-107513663D01*
X235881426Y-107517903D01*
X235691736Y-107673377D01*
X235691735Y-107673378D01*
X235608670Y-107741458D01*
X235603542Y-107745441D01*
X235598323Y-107749280D01*
X235592996Y-107752987D01*
X235298368Y-107946805D01*
X235292863Y-107950224D01*
X235287270Y-107953498D01*
X235281574Y-107956635D01*
X234968289Y-108118600D01*
X234962443Y-108121431D01*
X234956542Y-108124100D01*
X234950562Y-108126618D01*
X234622074Y-108254945D01*
X234615984Y-108257142D01*
X234609805Y-108259190D01*
X234603608Y-108261066D01*
X234263500Y-108354353D01*
X234257210Y-108355903D01*
X234250886Y-108357287D01*
X234244497Y-108358511D01*
X233896486Y-108415741D01*
X233890061Y-108416625D01*
X233883636Y-108417339D01*
X233877161Y-108417888D01*
X233520189Y-108438712D01*
X233516958Y-108438857D01*
X233513730Y-108438961D01*
X233510506Y-108439022D01*
X229959964Y-108459998D01*
X227087011Y-108501637D01*
X225837856Y-108519741D01*
X225837580Y-108519745D01*
X225822120Y-108519934D01*
X225820306Y-108519957D01*
X225820017Y-108519960D01*
X225819716Y-108519963D01*
X225819455Y-108519965D01*
X225802664Y-108520097D01*
X225802607Y-108520098D01*
X225802337Y-108520100D01*
X225802125Y-108520101D01*
X225435624Y-108522188D01*
X225435617Y-108522189D01*
X225431652Y-108522212D01*
X225430659Y-108522218D01*
X225430641Y-108522218D01*
X224535610Y-108527316D01*
X224530201Y-108527229D01*
X224524800Y-108527024D01*
X224519400Y-108526701D01*
X224319150Y-108510331D01*
X224308411Y-108508979D01*
X224306635Y-108508676D01*
X224297777Y-108507166D01*
X224287211Y-108504886D01*
X224175711Y-108475690D01*
X224175709Y-108475689D01*
X224100716Y-108456051D01*
X224090382Y-108452857D01*
X224080218Y-108449223D01*
X224070200Y-108445141D01*
X223895035Y-108364672D01*
X223885416Y-108359734D01*
X223876036Y-108354390D01*
X223866875Y-108348627D01*
X223708338Y-108238958D01*
X223699727Y-108232429D01*
X223695873Y-108229233D01*
X223691419Y-108225538D01*
X223683400Y-108218275D01*
X223546307Y-108082733D01*
X223538956Y-108074801D01*
X223531979Y-108066582D01*
X223525343Y-108058036D01*
X223413875Y-107900758D01*
X223408012Y-107891670D01*
X223402561Y-107882352D01*
X223397510Y-107872783D01*
X223338282Y-107747634D01*
X223338282Y-107747633D01*
X223329212Y-107728470D01*
X223315037Y-107698517D01*
X223310850Y-107688568D01*
X223307098Y-107678441D01*
X223303796Y-107668171D01*
X223252832Y-107482217D01*
X223250434Y-107471681D01*
X223248503Y-107461084D01*
X223247029Y-107450366D01*
X223228375Y-107250280D01*
X223227993Y-107244919D01*
X223227725Y-107239463D01*
X223227578Y-107234126D01*
X223226878Y-107111162D01*
X223221635Y-106190790D01*
X229969500Y-106190790D01*
X229969500Y-106389209D01*
X229991948Y-106530937D01*
X230000458Y-106584667D01*
X230000478Y-106584924D01*
X230000508Y-106585051D01*
X230000518Y-106585050D01*
X230000535Y-106585164D01*
X230037231Y-106698099D01*
X230037232Y-106698102D01*
X230044371Y-106720075D01*
X230061851Y-106773871D01*
X230065549Y-106781128D01*
X230123021Y-106893922D01*
X230151923Y-106950646D01*
X230268544Y-107111161D01*
X230408839Y-107251456D01*
X230569354Y-107368077D01*
X230682800Y-107425880D01*
X230725790Y-107447785D01*
X230730856Y-107450366D01*
X230739686Y-107454865D01*
X230741272Y-107455794D01*
X230744954Y-107457577D01*
X230746994Y-107458590D01*
X230750733Y-107459644D01*
X230934832Y-107519463D01*
X230989575Y-107528133D01*
X231032653Y-107534956D01*
X231032752Y-107534971D01*
X231032814Y-107534981D01*
X231130791Y-107550500D01*
X231130796Y-107550500D01*
X231329208Y-107550500D01*
X231329209Y-107550500D01*
X231418278Y-107536392D01*
X231525168Y-107519463D01*
X231713864Y-107458151D01*
X231890646Y-107368077D01*
X232051161Y-107251456D01*
X232191456Y-107111161D01*
X232308077Y-106950646D01*
X232398151Y-106773864D01*
X232459463Y-106585168D01*
X232476392Y-106478278D01*
X232490500Y-106389209D01*
X232490500Y-106190836D01*
X232970000Y-106190836D01*
X232970000Y-106389162D01*
X233001026Y-106585055D01*
X233062301Y-106773645D01*
X233062309Y-106773668D01*
X233062311Y-106773672D01*
X233123582Y-106893922D01*
X233152350Y-106950380D01*
X233179161Y-106987283D01*
X233612976Y-106553468D01*
X233674298Y-106519984D01*
X233743990Y-106524968D01*
X233799923Y-106566840D01*
X233808039Y-106579144D01*
X233821898Y-106603147D01*
X233916853Y-106698102D01*
X233940845Y-106711954D01*
X233940847Y-106711955D01*
X233989063Y-106762522D01*
X234002285Y-106831129D01*
X233976317Y-106895994D01*
X233966528Y-106907023D01*
X233532714Y-107340836D01*
X233532714Y-107340837D01*
X233532715Y-107340838D01*
X233569612Y-107367645D01*
X233746327Y-107457688D01*
X233746330Y-107457689D01*
X233746353Y-107457697D01*
X233934944Y-107518972D01*
X233934947Y-107518973D01*
X234130837Y-107550000D01*
X234329162Y-107550000D01*
X234329163Y-107550000D01*
X234525052Y-107518973D01*
X234638147Y-107482227D01*
X234713645Y-107457697D01*
X234713653Y-107457693D01*
X234713669Y-107457689D01*
X234713672Y-107457688D01*
X234890382Y-107367648D01*
X234927283Y-107340837D01*
X234927284Y-107340836D01*
X234493471Y-106907023D01*
X234459986Y-106845700D01*
X234464970Y-106776008D01*
X234506842Y-106720075D01*
X234519139Y-106711962D01*
X234543147Y-106698102D01*
X234638102Y-106603147D01*
X234651956Y-106579150D01*
X234702521Y-106530937D01*
X234771127Y-106517713D01*
X234835993Y-106543681D01*
X234847023Y-106553471D01*
X235280835Y-106987284D01*
X235280836Y-106987284D01*
X235280837Y-106987283D01*
X235307648Y-106950382D01*
X235397688Y-106773672D01*
X235397689Y-106773669D01*
X235458973Y-106585052D01*
X235490000Y-106389163D01*
X235490000Y-106190836D01*
X235458973Y-105994947D01*
X235458972Y-105994943D01*
X235397697Y-105806353D01*
X235397689Y-105806330D01*
X235397688Y-105806327D01*
X235307645Y-105629612D01*
X235280838Y-105592715D01*
X235280837Y-105592714D01*
X234847022Y-106026527D01*
X234785699Y-106060012D01*
X234716007Y-106055028D01*
X234660074Y-106013156D01*
X234651958Y-106000852D01*
X234638102Y-105976853D01*
X234543147Y-105881898D01*
X234519148Y-105868042D01*
X234470934Y-105817475D01*
X234457712Y-105748868D01*
X234483680Y-105684003D01*
X234493462Y-105672981D01*
X234927283Y-105239161D01*
X234927280Y-105239159D01*
X234890380Y-105212350D01*
X234890373Y-105212346D01*
X234713672Y-105122311D01*
X234713668Y-105122309D01*
X234713645Y-105122301D01*
X234525054Y-105061026D01*
X234525055Y-105061026D01*
X234377526Y-105037660D01*
X234329163Y-105030000D01*
X234329162Y-105030000D01*
X234130838Y-105030000D01*
X234130837Y-105030000D01*
X234082474Y-105037660D01*
X233934945Y-105061026D01*
X233746332Y-105122309D01*
X233746317Y-105122314D01*
X233569621Y-105212348D01*
X233569614Y-105212352D01*
X233532715Y-105239159D01*
X233532715Y-105239161D01*
X233966529Y-105672975D01*
X234000014Y-105734298D01*
X233995030Y-105803990D01*
X233953158Y-105859923D01*
X233940852Y-105868041D01*
X233916856Y-105881896D01*
X233916850Y-105881900D01*
X233821900Y-105976850D01*
X233821896Y-105976856D01*
X233808041Y-106000852D01*
X233757472Y-106049066D01*
X233688865Y-106062286D01*
X233624001Y-106036316D01*
X233612975Y-106026529D01*
X233179161Y-105592715D01*
X233179160Y-105592715D01*
X233179159Y-105592715D01*
X233152352Y-105629614D01*
X233152348Y-105629621D01*
X233062314Y-105806317D01*
X233062309Y-105806332D01*
X233001026Y-105994945D01*
X232970000Y-106190836D01*
X232490500Y-106190836D01*
X232490500Y-106190790D01*
X232473570Y-106083906D01*
X232473483Y-106083361D01*
X232473465Y-106083238D01*
X232459481Y-105994945D01*
X232459463Y-105994832D01*
X232398151Y-105806136D01*
X232398149Y-105806133D01*
X232398149Y-105806131D01*
X232395895Y-105801708D01*
X232395589Y-105800923D01*
X232394865Y-105799686D01*
X232365881Y-105742801D01*
X232365879Y-105742799D01*
X232361548Y-105734298D01*
X232308077Y-105629354D01*
X232191456Y-105468839D01*
X232051161Y-105328544D01*
X231890646Y-105211923D01*
X231833922Y-105183021D01*
X231833919Y-105183019D01*
X231796893Y-105164154D01*
X231713868Y-105121850D01*
X231713862Y-105121848D01*
X231713863Y-105121848D01*
X231668597Y-105107139D01*
X231668597Y-105107140D01*
X231525168Y-105060537D01*
X231525112Y-105060527D01*
X231333584Y-105030193D01*
X231329209Y-105029500D01*
X231329208Y-105029500D01*
X231130786Y-105029500D01*
X230947783Y-105058485D01*
X230947772Y-105058487D01*
X230934837Y-105060536D01*
X230934835Y-105060536D01*
X230934832Y-105060537D01*
X230928319Y-105062652D01*
X230928301Y-105062657D01*
X230840485Y-105091192D01*
X230840483Y-105091193D01*
X230746133Y-105121848D01*
X230569349Y-105211925D01*
X230483255Y-105274477D01*
X230420710Y-105319919D01*
X230413329Y-105324052D01*
X230264052Y-105473329D01*
X230259919Y-105480710D01*
X230214477Y-105543255D01*
X230151925Y-105629349D01*
X230061849Y-105806130D01*
X230061848Y-105806135D01*
X230059234Y-105814181D01*
X230059048Y-105814755D01*
X230013146Y-105956027D01*
X230000695Y-105994346D01*
X230000537Y-105994823D01*
X229999083Y-106003785D01*
X229999081Y-106004017D01*
X229999039Y-106004283D01*
X229969500Y-106190790D01*
X223221635Y-106190790D01*
X223218192Y-105586459D01*
X223218129Y-105567745D01*
X223218153Y-105549031D01*
X223220666Y-104862628D01*
X223223548Y-104074985D01*
X223226785Y-103190790D01*
X229969500Y-103190790D01*
X229969500Y-103195439D01*
X229969500Y-103389208D01*
X229997896Y-103568496D01*
X229997897Y-103568501D01*
X229999103Y-103576112D01*
X230000537Y-103585168D01*
X230019508Y-103643553D01*
X230020131Y-103645472D01*
X230020133Y-103645477D01*
X230061851Y-103773872D01*
X230098450Y-103845700D01*
X230123021Y-103893922D01*
X230151923Y-103950646D01*
X230268544Y-104111161D01*
X230408839Y-104251456D01*
X230569354Y-104368077D01*
X230682800Y-104425880D01*
X230738854Y-104454441D01*
X230739686Y-104454865D01*
X230741272Y-104455794D01*
X230744954Y-104457577D01*
X230746994Y-104458590D01*
X230750733Y-104459644D01*
X230934832Y-104519463D01*
X230989575Y-104528133D01*
X231032653Y-104534956D01*
X231032752Y-104534971D01*
X231032814Y-104534981D01*
X231130791Y-104550500D01*
X231130796Y-104550500D01*
X231329208Y-104550500D01*
X231329209Y-104550500D01*
X231418278Y-104536392D01*
X231525168Y-104519463D01*
X231713864Y-104458151D01*
X231890646Y-104368077D01*
X232051161Y-104251456D01*
X232191456Y-104111161D01*
X232308077Y-103950646D01*
X232398151Y-103773864D01*
X232459463Y-103585168D01*
X232476392Y-103478278D01*
X232490500Y-103389209D01*
X232490500Y-103190790D01*
X232473570Y-103083906D01*
X232459463Y-102994832D01*
X232398151Y-102806136D01*
X232398149Y-102806133D01*
X232398149Y-102806131D01*
X232395892Y-102801702D01*
X232395586Y-102800917D01*
X232394868Y-102799690D01*
X232354743Y-102720942D01*
X232354741Y-102720940D01*
X232308077Y-102629354D01*
X232191456Y-102468839D01*
X232051161Y-102328544D01*
X231890646Y-102211923D01*
X231833922Y-102183021D01*
X231833919Y-102183019D01*
X231796893Y-102164154D01*
X231713868Y-102121850D01*
X231713862Y-102121848D01*
X231713863Y-102121848D01*
X231668597Y-102107139D01*
X231668597Y-102107140D01*
X231525168Y-102060537D01*
X231525112Y-102060527D01*
X231354248Y-102033465D01*
X231329209Y-102029500D01*
X231329208Y-102029500D01*
X231130786Y-102029500D01*
X230947783Y-102058485D01*
X230947772Y-102058487D01*
X230934837Y-102060536D01*
X230934835Y-102060536D01*
X230934832Y-102060537D01*
X230928319Y-102062652D01*
X230928301Y-102062657D01*
X230840485Y-102091192D01*
X230840483Y-102091193D01*
X230746133Y-102121848D01*
X230569354Y-102211922D01*
X230547864Y-102227535D01*
X230531865Y-102239160D01*
X230531864Y-102239161D01*
X230531863Y-102239160D01*
X230420709Y-102319919D01*
X230413330Y-102324051D01*
X230264052Y-102473329D01*
X230259919Y-102480710D01*
X230214477Y-102543255D01*
X230151925Y-102629349D01*
X230061848Y-102806133D01*
X230031193Y-102900483D01*
X230031192Y-102900485D01*
X230000677Y-102994396D01*
X230000538Y-102994818D01*
X229999083Y-103003785D01*
X229999081Y-103004017D01*
X229999039Y-103004283D01*
X229969500Y-103190790D01*
X223226785Y-103190790D01*
X223229043Y-102573873D01*
X223229042Y-102573864D01*
X223232290Y-101686530D01*
X223237765Y-100190790D01*
X229969500Y-100190790D01*
X229969500Y-100389209D01*
X229980658Y-100459655D01*
X229988649Y-100510110D01*
X230000536Y-100585165D01*
X230000537Y-100585168D01*
X230037232Y-100698102D01*
X230061850Y-100773868D01*
X230122604Y-100893103D01*
X230151923Y-100950646D01*
X230268544Y-101111161D01*
X230408839Y-101251456D01*
X230569354Y-101368077D01*
X230682800Y-101425880D01*
X230738854Y-101454441D01*
X230739686Y-101454865D01*
X230741272Y-101455794D01*
X230744954Y-101457577D01*
X230746994Y-101458590D01*
X230750733Y-101459644D01*
X230934832Y-101519463D01*
X230989575Y-101528133D01*
X231032653Y-101534956D01*
X231032752Y-101534971D01*
X231032814Y-101534981D01*
X231130791Y-101550500D01*
X231130796Y-101550500D01*
X231329208Y-101550500D01*
X231329209Y-101550500D01*
X231418278Y-101536392D01*
X231525168Y-101519463D01*
X231713864Y-101458151D01*
X231890646Y-101368077D01*
X232051161Y-101251456D01*
X232191456Y-101111161D01*
X232308077Y-100950646D01*
X232398151Y-100773864D01*
X232459463Y-100585168D01*
X232471520Y-100509043D01*
X232476392Y-100478280D01*
X232476392Y-100478278D01*
X232490500Y-100389207D01*
X232490500Y-100190791D01*
X232484423Y-100152425D01*
X232473570Y-100083906D01*
X232459463Y-99994832D01*
X232398151Y-99806136D01*
X232398149Y-99806133D01*
X232398149Y-99806131D01*
X232395895Y-99801708D01*
X232395589Y-99800923D01*
X232394865Y-99799686D01*
X232365881Y-99742801D01*
X232365879Y-99742799D01*
X232361548Y-99734298D01*
X232308077Y-99629354D01*
X232191456Y-99468839D01*
X232051161Y-99328544D01*
X231890646Y-99211923D01*
X231833922Y-99183021D01*
X231713868Y-99121850D01*
X231634676Y-99096119D01*
X231629034Y-99094285D01*
X231629030Y-99094284D01*
X231525168Y-99060537D01*
X231525112Y-99060527D01*
X231354248Y-99033465D01*
X231329209Y-99029500D01*
X231329208Y-99029500D01*
X231130786Y-99029500D01*
X230947783Y-99058485D01*
X230947772Y-99058487D01*
X230934837Y-99060536D01*
X230934835Y-99060536D01*
X230934832Y-99060537D01*
X230928319Y-99062652D01*
X230928301Y-99062657D01*
X230840485Y-99091192D01*
X230840483Y-99091193D01*
X230746133Y-99121848D01*
X230569350Y-99211924D01*
X230569349Y-99211926D01*
X230509936Y-99255091D01*
X230509937Y-99255092D01*
X230420707Y-99319920D01*
X230413328Y-99324053D01*
X230264052Y-99473329D01*
X230259919Y-99480710D01*
X230214477Y-99543255D01*
X230151925Y-99629349D01*
X230061849Y-99806130D01*
X230061848Y-99806135D01*
X230059049Y-99814751D01*
X230059048Y-99814756D01*
X230000691Y-99994357D01*
X230000538Y-99994820D01*
X229999083Y-100003785D01*
X229999081Y-100004017D01*
X229999039Y-100004283D01*
X229969500Y-100190790D01*
X223237765Y-100190790D01*
X223237784Y-100185470D01*
X223237785Y-100185470D01*
X223237784Y-100185464D01*
X223240000Y-99580000D01*
X223239999Y-99580000D01*
X220246110Y-99582099D01*
X220246108Y-99582099D01*
X220216205Y-99582120D01*
X220216203Y-99582120D01*
X220092463Y-99582205D01*
X220089001Y-99582159D01*
X220085514Y-99582064D01*
X220082025Y-99581920D01*
X219744652Y-99563211D01*
X219737720Y-99562630D01*
X219734847Y-99562309D01*
X219730830Y-99561859D01*
X219723951Y-99560893D01*
X219395925Y-99505396D01*
X219389094Y-99504042D01*
X219382327Y-99502502D01*
X219375599Y-99500771D01*
X219055857Y-99408898D01*
X219049223Y-99406788D01*
X219045876Y-99405619D01*
X219042657Y-99404495D01*
X219036176Y-99402025D01*
X218728751Y-99274939D01*
X218722412Y-99272109D01*
X218716142Y-99269095D01*
X218709963Y-99265909D01*
X218418677Y-99105188D01*
X218412686Y-99101659D01*
X218406804Y-99097969D01*
X218401041Y-99094125D01*
X218129554Y-98901781D01*
X218124016Y-98897618D01*
X218118594Y-98893301D01*
X218113269Y-98888811D01*
X218058014Y-98839501D01*
X218058005Y-98839494D01*
X218058001Y-98839491D01*
X217865023Y-98667278D01*
X217860021Y-98662556D01*
X217855052Y-98657593D01*
X217850300Y-98652572D01*
X217808604Y-98605980D01*
X217675893Y-98457684D01*
X217628456Y-98404676D01*
X217623966Y-98399367D01*
X217619619Y-98393924D01*
X217615432Y-98388368D01*
X217601012Y-98368075D01*
X217474164Y-98189566D01*
X217451379Y-98123518D01*
X217451245Y-98117263D01*
X217453414Y-97579149D01*
X217454979Y-97190790D01*
X229969500Y-97190790D01*
X229969500Y-97389209D01*
X229977611Y-97440418D01*
X229988649Y-97510110D01*
X230000536Y-97585165D01*
X230000537Y-97585168D01*
X230033474Y-97686535D01*
X230061850Y-97773868D01*
X230061851Y-97773869D01*
X230061852Y-97773873D01*
X230077950Y-97805465D01*
X230077950Y-97805467D01*
X230077951Y-97805467D01*
X230151923Y-97950646D01*
X230268544Y-98111161D01*
X230408839Y-98251456D01*
X230569354Y-98368077D01*
X230649730Y-98409030D01*
X230739688Y-98454866D01*
X230741272Y-98455794D01*
X230744954Y-98457577D01*
X230746994Y-98458590D01*
X230750733Y-98459644D01*
X230934832Y-98519463D01*
X230989575Y-98528133D01*
X231032653Y-98534956D01*
X231032752Y-98534971D01*
X231032814Y-98534981D01*
X231130791Y-98550500D01*
X231130796Y-98550500D01*
X231329208Y-98550500D01*
X231329209Y-98550500D01*
X231418278Y-98536392D01*
X231525168Y-98519463D01*
X231713864Y-98458151D01*
X231890646Y-98368077D01*
X232051161Y-98251456D01*
X232191456Y-98111161D01*
X232308077Y-97950646D01*
X232398151Y-97773864D01*
X232459463Y-97585168D01*
X232482389Y-97440418D01*
X232490500Y-97389209D01*
X232490500Y-97190790D01*
X232473570Y-97083906D01*
X232468178Y-97049863D01*
X232459463Y-96994833D01*
X232459461Y-96994827D01*
X232459459Y-96994820D01*
X232398151Y-96806136D01*
X232398149Y-96806133D01*
X232398149Y-96806131D01*
X232395898Y-96801713D01*
X232395592Y-96800929D01*
X232394869Y-96799694D01*
X232353799Y-96719090D01*
X232308077Y-96629354D01*
X232191456Y-96468839D01*
X232051161Y-96328544D01*
X231890646Y-96211923D01*
X231833922Y-96183021D01*
X231833919Y-96183019D01*
X231796893Y-96164154D01*
X231713868Y-96121850D01*
X231713862Y-96121848D01*
X231713863Y-96121848D01*
X231668597Y-96107139D01*
X231668597Y-96107140D01*
X231525168Y-96060537D01*
X231525112Y-96060527D01*
X231354248Y-96033465D01*
X231329209Y-96029500D01*
X231329208Y-96029500D01*
X231130786Y-96029500D01*
X230947783Y-96058485D01*
X230947772Y-96058487D01*
X230934837Y-96060536D01*
X230934835Y-96060536D01*
X230934832Y-96060537D01*
X230928319Y-96062652D01*
X230928301Y-96062657D01*
X230840485Y-96091192D01*
X230840483Y-96091193D01*
X230746133Y-96121848D01*
X230569354Y-96211922D01*
X230547864Y-96227535D01*
X230531865Y-96239160D01*
X230531864Y-96239161D01*
X230531863Y-96239160D01*
X230420709Y-96319919D01*
X230413330Y-96324051D01*
X230264052Y-96473329D01*
X230259919Y-96480710D01*
X230214477Y-96543255D01*
X230151925Y-96629349D01*
X230061849Y-96806130D01*
X230061847Y-96806136D01*
X230050683Y-96840496D01*
X230050683Y-96840500D01*
X230028382Y-96909135D01*
X230000691Y-96994357D01*
X230000538Y-96994820D01*
X229999083Y-97003785D01*
X229999081Y-97004017D01*
X229999039Y-97004283D01*
X229969500Y-97190790D01*
X217454979Y-97190790D01*
X217455001Y-97185418D01*
X217455001Y-97185417D01*
X217455085Y-97164423D01*
X217450653Y-97076730D01*
X217450652Y-97076726D01*
X217450652Y-97076713D01*
X217447821Y-97049861D01*
X217433860Y-96963129D01*
X217418216Y-96891200D01*
X217415902Y-96881900D01*
X217409169Y-96854838D01*
X217405500Y-96824898D01*
X217405500Y-93798975D01*
X217425185Y-93731936D01*
X217477989Y-93686181D01*
X217547147Y-93676237D01*
X217610703Y-93705262D01*
X217617181Y-93711294D01*
X217698248Y-93792361D01*
X217909001Y-93960431D01*
X218100772Y-94080928D01*
X218137252Y-94103850D01*
X218380106Y-94220802D01*
X218380108Y-94220803D01*
X218380123Y-94220809D01*
X218634511Y-94309824D01*
X218634532Y-94309831D01*
X218634536Y-94309832D01*
X218634548Y-94309836D01*
X218897348Y-94369818D01*
X218897366Y-94369821D01*
X218897369Y-94369821D01*
X218897373Y-94369822D01*
X218897386Y-94369824D01*
X219030501Y-94384821D01*
X219164628Y-94399933D01*
X219165195Y-94400000D01*
X219165216Y-94400000D01*
X221150000Y-94400000D01*
X221150000Y-93124000D01*
X221169685Y-93056961D01*
X221222489Y-93011206D01*
X221274000Y-93000000D01*
X221526000Y-93000000D01*
X221593039Y-93019685D01*
X221638794Y-93072489D01*
X221650000Y-93124000D01*
X221650000Y-94400000D01*
X223634784Y-94400000D01*
X223635316Y-94400000D01*
X223637776Y-94399662D01*
X223780336Y-94383600D01*
X223902612Y-94369824D01*
X223902625Y-94369822D01*
X223902626Y-94369821D01*
X223902633Y-94369821D01*
X223902651Y-94369818D01*
X224165451Y-94309836D01*
X224165463Y-94309832D01*
X224165466Y-94309831D01*
X224165487Y-94309824D01*
X224368997Y-94238612D01*
X224419881Y-94220807D01*
X224419895Y-94220801D01*
X224482213Y-94190790D01*
X229969500Y-94190790D01*
X229969500Y-94389209D01*
X230000518Y-94585048D01*
X230000537Y-94585168D01*
X230027130Y-94667011D01*
X230061850Y-94773868D01*
X230076107Y-94801848D01*
X230151923Y-94950646D01*
X230268544Y-95111161D01*
X230408839Y-95251456D01*
X230569354Y-95368077D01*
X230682800Y-95425880D01*
X230738854Y-95454441D01*
X230739686Y-95454865D01*
X230741272Y-95455794D01*
X230744954Y-95457577D01*
X230746994Y-95458590D01*
X230750733Y-95459644D01*
X230934832Y-95519463D01*
X230989575Y-95528133D01*
X231032653Y-95534956D01*
X231032752Y-95534971D01*
X231032814Y-95534981D01*
X231130791Y-95550500D01*
X231130796Y-95550500D01*
X231329208Y-95550500D01*
X231329209Y-95550500D01*
X231418278Y-95536392D01*
X231525168Y-95519463D01*
X231713864Y-95458151D01*
X231890646Y-95368077D01*
X232051161Y-95251456D01*
X232191456Y-95111161D01*
X232308077Y-94950646D01*
X232398151Y-94773864D01*
X232459463Y-94585168D01*
X232486476Y-94414612D01*
X232490500Y-94389209D01*
X232490500Y-94190790D01*
X232473099Y-94080930D01*
X232473097Y-94080920D01*
X232460919Y-94004023D01*
X232459463Y-93994832D01*
X232398151Y-93806136D01*
X232398149Y-93806133D01*
X232398149Y-93806131D01*
X232395892Y-93801703D01*
X232395588Y-93800922D01*
X232394865Y-93799686D01*
X232365881Y-93742801D01*
X232365879Y-93742799D01*
X232361548Y-93734298D01*
X232308077Y-93629354D01*
X232191456Y-93468839D01*
X232051161Y-93328544D01*
X231890646Y-93211923D01*
X231827993Y-93180000D01*
X231827990Y-93179998D01*
X231827989Y-93179997D01*
X231713868Y-93121850D01*
X231713863Y-93121848D01*
X231668597Y-93107139D01*
X231668597Y-93107140D01*
X231525168Y-93060537D01*
X231525112Y-93060527D01*
X231354248Y-93033465D01*
X231329209Y-93029500D01*
X231329208Y-93029500D01*
X231130786Y-93029500D01*
X230947783Y-93058485D01*
X230947772Y-93058487D01*
X230934837Y-93060536D01*
X230934835Y-93060536D01*
X230934832Y-93060537D01*
X230928319Y-93062652D01*
X230928301Y-93062657D01*
X230853279Y-93087035D01*
X230853277Y-93087036D01*
X230746133Y-93121848D01*
X230569354Y-93211922D01*
X230547864Y-93227535D01*
X230531865Y-93239160D01*
X230531864Y-93239161D01*
X230531863Y-93239160D01*
X230420709Y-93319919D01*
X230413330Y-93324051D01*
X230264052Y-93473329D01*
X230259919Y-93480710D01*
X230214477Y-93543255D01*
X230151925Y-93629349D01*
X230061849Y-93806130D01*
X230061848Y-93806135D01*
X230059049Y-93814751D01*
X230059048Y-93814755D01*
X230044372Y-93859923D01*
X230000691Y-93994357D01*
X230000538Y-93994820D01*
X229999044Y-94004023D01*
X229999008Y-94004478D01*
X229969500Y-94190790D01*
X224482213Y-94190790D01*
X224662756Y-94103845D01*
X224662757Y-94103844D01*
X224662760Y-94103841D01*
X224663381Y-94103543D01*
X224665686Y-94102003D01*
X224699223Y-94080932D01*
X224699241Y-94080921D01*
X224699243Y-94080920D01*
X224699246Y-94080918D01*
X224700622Y-94080053D01*
X224700626Y-94080050D01*
X224890998Y-93960431D01*
X225101751Y-93792361D01*
X225292361Y-93601751D01*
X225460431Y-93390998D01*
X225603847Y-93162752D01*
X225720801Y-92919895D01*
X225720807Y-92919881D01*
X225809832Y-92665463D01*
X225809836Y-92665451D01*
X225869818Y-92402651D01*
X225869821Y-92402633D01*
X225887018Y-92250000D01*
X224520958Y-92250000D01*
X224453919Y-92230315D01*
X224408164Y-92177511D01*
X224398220Y-92108353D01*
X224399340Y-92101812D01*
X224400000Y-92098493D01*
X224400000Y-91901506D01*
X224399340Y-91898188D01*
X224399498Y-91896415D01*
X224399403Y-91895444D01*
X224399587Y-91895425D01*
X224405570Y-91828596D01*
X224448434Y-91773420D01*
X224514325Y-91750178D01*
X224520958Y-91750000D01*
X225887019Y-91750000D01*
X225893026Y-91735495D01*
X225884214Y-91719356D01*
X225882160Y-91706880D01*
X225869824Y-91597386D01*
X225869822Y-91597373D01*
X225869817Y-91597342D01*
X225809833Y-91334535D01*
X225809670Y-91334074D01*
X225772161Y-91226878D01*
X225772130Y-91226788D01*
X225759534Y-91190790D01*
X229969500Y-91190790D01*
X229969500Y-91389208D01*
X229991217Y-91526322D01*
X229991217Y-91526323D01*
X230000536Y-91585163D01*
X230000536Y-91585165D01*
X230000537Y-91585168D01*
X230019508Y-91643553D01*
X230061850Y-91773868D01*
X230108382Y-91865191D01*
X230151923Y-91950646D01*
X230268544Y-92111161D01*
X230408839Y-92251456D01*
X230569354Y-92368077D01*
X230682800Y-92425880D01*
X230738854Y-92454441D01*
X230739686Y-92454865D01*
X230741272Y-92455794D01*
X230744954Y-92457577D01*
X230746994Y-92458590D01*
X230750733Y-92459644D01*
X230934832Y-92519463D01*
X230989575Y-92528133D01*
X231032653Y-92534956D01*
X231032752Y-92534971D01*
X231032814Y-92534981D01*
X231130791Y-92550500D01*
X231130796Y-92550500D01*
X231329208Y-92550500D01*
X231329209Y-92550500D01*
X231418278Y-92536392D01*
X231525168Y-92519463D01*
X231713864Y-92458151D01*
X231890646Y-92368077D01*
X232051161Y-92251456D01*
X232191456Y-92111161D01*
X232308077Y-91950646D01*
X232398151Y-91773864D01*
X232459463Y-91585168D01*
X232476392Y-91478278D01*
X232490500Y-91389209D01*
X232490500Y-91190836D01*
X232970000Y-91190836D01*
X232970000Y-91389162D01*
X233001026Y-91585055D01*
X233062301Y-91773645D01*
X233062309Y-91773668D01*
X233062311Y-91773672D01*
X233152350Y-91950380D01*
X233179161Y-91987283D01*
X233612976Y-91553468D01*
X233674298Y-91519984D01*
X233743990Y-91524968D01*
X233799923Y-91566840D01*
X233808039Y-91579144D01*
X233821898Y-91603147D01*
X233916853Y-91698102D01*
X233932057Y-91706880D01*
X233940847Y-91711955D01*
X233989063Y-91762522D01*
X234002285Y-91831129D01*
X233976317Y-91895994D01*
X233966528Y-91907023D01*
X233532714Y-92340836D01*
X233532714Y-92340837D01*
X233532715Y-92340838D01*
X233569612Y-92367645D01*
X233746327Y-92457688D01*
X233746330Y-92457689D01*
X233746353Y-92457697D01*
X233934944Y-92518972D01*
X233934947Y-92518973D01*
X234130837Y-92550000D01*
X234329162Y-92550000D01*
X234329163Y-92550000D01*
X234525052Y-92518973D01*
X234546009Y-92512163D01*
X234713645Y-92457697D01*
X234713653Y-92457693D01*
X234713669Y-92457689D01*
X234713672Y-92457688D01*
X234890382Y-92367648D01*
X234927283Y-92340837D01*
X234927284Y-92340836D01*
X234493471Y-91907023D01*
X234459986Y-91845700D01*
X234464970Y-91776008D01*
X234506842Y-91720075D01*
X234519139Y-91711962D01*
X234543147Y-91698102D01*
X234638102Y-91603147D01*
X234651956Y-91579150D01*
X234702521Y-91530937D01*
X234771127Y-91517713D01*
X234835993Y-91543681D01*
X234847023Y-91553471D01*
X235280835Y-91987284D01*
X235280836Y-91987284D01*
X235280837Y-91987283D01*
X235307648Y-91950382D01*
X235397688Y-91773672D01*
X235397689Y-91773669D01*
X235405380Y-91750000D01*
X235458972Y-91585055D01*
X235458971Y-91585055D01*
X235458973Y-91585052D01*
X235490000Y-91389163D01*
X235490000Y-91190836D01*
X235458973Y-90994947D01*
X235458972Y-90994943D01*
X235397697Y-90806353D01*
X235397689Y-90806330D01*
X235397688Y-90806327D01*
X235307645Y-90629612D01*
X235280838Y-90592715D01*
X235280837Y-90592714D01*
X234847022Y-91026527D01*
X234785699Y-91060012D01*
X234716007Y-91055028D01*
X234660074Y-91013156D01*
X234651958Y-91000852D01*
X234638102Y-90976853D01*
X234543147Y-90881898D01*
X234519148Y-90868042D01*
X234470934Y-90817475D01*
X234457712Y-90748868D01*
X234483680Y-90684003D01*
X234493462Y-90672981D01*
X234927283Y-90239161D01*
X234927280Y-90239159D01*
X234890380Y-90212350D01*
X234890373Y-90212346D01*
X234713672Y-90122311D01*
X234713668Y-90122309D01*
X234713645Y-90122301D01*
X234525054Y-90061026D01*
X234525055Y-90061026D01*
X234378135Y-90037756D01*
X234329163Y-90030000D01*
X234329162Y-90030000D01*
X234130838Y-90030000D01*
X234130837Y-90030000D01*
X234070427Y-90039568D01*
X233934945Y-90061026D01*
X233746332Y-90122309D01*
X233746317Y-90122314D01*
X233569621Y-90212348D01*
X233569614Y-90212352D01*
X233532715Y-90239159D01*
X233532715Y-90239161D01*
X233966529Y-90672975D01*
X234000014Y-90734298D01*
X233995030Y-90803990D01*
X233953158Y-90859923D01*
X233940852Y-90868041D01*
X233916856Y-90881896D01*
X233916850Y-90881900D01*
X233821900Y-90976850D01*
X233821896Y-90976856D01*
X233808041Y-91000852D01*
X233757472Y-91049066D01*
X233688865Y-91062286D01*
X233624001Y-91036316D01*
X233612975Y-91026529D01*
X233179161Y-90592715D01*
X233179160Y-90592715D01*
X233179159Y-90592715D01*
X233152352Y-90629614D01*
X233152348Y-90629621D01*
X233062314Y-90806317D01*
X233062309Y-90806332D01*
X233001026Y-90994945D01*
X232970000Y-91190836D01*
X232490500Y-91190836D01*
X232490500Y-91190790D01*
X232472939Y-91079921D01*
X232470020Y-91061492D01*
X232459481Y-90994945D01*
X232459463Y-90994832D01*
X232398151Y-90806136D01*
X232398149Y-90806133D01*
X232398149Y-90806131D01*
X232395898Y-90801713D01*
X232395590Y-90800924D01*
X232394866Y-90799687D01*
X232362302Y-90735776D01*
X232362302Y-90735777D01*
X232308077Y-90629354D01*
X232191456Y-90468839D01*
X232051161Y-90328544D01*
X231890646Y-90211923D01*
X231833922Y-90183021D01*
X231833919Y-90183019D01*
X231796893Y-90164154D01*
X231713868Y-90121850D01*
X231713862Y-90121848D01*
X231713863Y-90121848D01*
X231668597Y-90107139D01*
X231668597Y-90107140D01*
X231525168Y-90060537D01*
X231525112Y-90060527D01*
X231354248Y-90033465D01*
X231329209Y-90029500D01*
X231329208Y-90029500D01*
X231130786Y-90029500D01*
X230947783Y-90058485D01*
X230947772Y-90058487D01*
X230934837Y-90060536D01*
X230934835Y-90060536D01*
X230934832Y-90060537D01*
X230928319Y-90062652D01*
X230928301Y-90062657D01*
X230840485Y-90091192D01*
X230840483Y-90091193D01*
X230746133Y-90121848D01*
X230569354Y-90211922D01*
X230547864Y-90227535D01*
X230531865Y-90239160D01*
X230531864Y-90239161D01*
X230531863Y-90239160D01*
X230420709Y-90319919D01*
X230413330Y-90324051D01*
X230264052Y-90473329D01*
X230259919Y-90480710D01*
X230214477Y-90543255D01*
X230151925Y-90629349D01*
X230061850Y-90806129D01*
X230059237Y-90814172D01*
X230051741Y-90837244D01*
X230041734Y-90868043D01*
X230000691Y-90994357D01*
X230000538Y-90994820D01*
X229999044Y-91004023D01*
X229999009Y-91004478D01*
X229969500Y-91190790D01*
X225759534Y-91190790D01*
X225720809Y-91080123D01*
X225720803Y-91080108D01*
X225720802Y-91080106D01*
X225603850Y-90837252D01*
X225603846Y-90837245D01*
X225537536Y-90731713D01*
X225460431Y-90609001D01*
X225292361Y-90398248D01*
X225101751Y-90207638D01*
X224890998Y-90039568D01*
X224662752Y-89896152D01*
X224662753Y-89896152D01*
X224662746Y-89896148D01*
X224419892Y-89779196D01*
X224419890Y-89779195D01*
X224419875Y-89779189D01*
X224165487Y-89690174D01*
X224165466Y-89690167D01*
X224165454Y-89690164D01*
X224165451Y-89690163D01*
X224058096Y-89665660D01*
X223902653Y-89630181D01*
X223902625Y-89630176D01*
X223902615Y-89630175D01*
X223634793Y-89600000D01*
X223634787Y-89600000D01*
X221650000Y-89600000D01*
X221650000Y-90876000D01*
X221630315Y-90943039D01*
X221577511Y-90988794D01*
X221526000Y-91000000D01*
X221274000Y-91000000D01*
X221206961Y-90980315D01*
X221161206Y-90927511D01*
X221150000Y-90876000D01*
X221150000Y-89600000D01*
X219165212Y-89600000D01*
X219165205Y-89600000D01*
X218897383Y-89630175D01*
X218897373Y-89630176D01*
X218897345Y-89630181D01*
X218634544Y-89690164D01*
X218634532Y-89690167D01*
X218634511Y-89690174D01*
X218380123Y-89779189D01*
X218380108Y-89779195D01*
X218380106Y-89779196D01*
X218137252Y-89896148D01*
X217909002Y-90039567D01*
X217698248Y-90207637D01*
X217518641Y-90387244D01*
X217457318Y-90420729D01*
X217387626Y-90415745D01*
X217331693Y-90373873D01*
X217310000Y-90326849D01*
X217302164Y-90292108D01*
X217244438Y-90062657D01*
X217229949Y-90005066D01*
X217229984Y-90004159D01*
X217229536Y-90003373D01*
X217231349Y-89969310D01*
X217232683Y-89935250D01*
X217233217Y-89934209D01*
X217233250Y-89933602D01*
X217249595Y-89902327D01*
X217381989Y-89718590D01*
X217387339Y-89711696D01*
X217392970Y-89704947D01*
X217398839Y-89698400D01*
X217588074Y-89501809D01*
X217594352Y-89495734D01*
X217600913Y-89489822D01*
X217607603Y-89484210D01*
X217822767Y-89316351D01*
X217829842Y-89311225D01*
X217837159Y-89306310D01*
X217844595Y-89301689D01*
X218081309Y-89165976D01*
X218089067Y-89161887D01*
X218096992Y-89158063D01*
X218105027Y-89154531D01*
X218358576Y-89053662D01*
X218366791Y-89050727D01*
X218375202Y-89048055D01*
X218383609Y-89045708D01*
X218648908Y-88981717D01*
X218657500Y-88979965D01*
X218666141Y-88978520D01*
X218674850Y-88977379D01*
X218953095Y-88950939D01*
X218957438Y-88950604D01*
X218961826Y-88950343D01*
X218966167Y-88950162D01*
X223419826Y-88844275D01*
X225574374Y-88793050D01*
X225605757Y-88792430D01*
X225605852Y-88792428D01*
X225606530Y-88792418D01*
X225606679Y-88792416D01*
X225606679Y-88792423D01*
X225606920Y-88792413D01*
X225637844Y-88792047D01*
X225637926Y-88792046D01*
X225638073Y-88792044D01*
X230539982Y-88753499D01*
X231773234Y-88743802D01*
X231800124Y-88743217D01*
X231800129Y-88743217D01*
X231800514Y-88743208D01*
X231800643Y-88743206D01*
X231800677Y-88743205D01*
X231800884Y-88743200D01*
X231800957Y-88743200D01*
X233716723Y-88701567D01*
X234577006Y-88682871D01*
X234581029Y-88682851D01*
X234585207Y-88682899D01*
G37*
%TD.AperFunction*%
%TD*%
%TA.AperFunction,Conductor*%
%TO.N,+12V*%
G36*
X216624999Y-97059804D02*
G01*
X216625000Y-97059805D01*
X216631117Y-97062388D01*
X216646761Y-97134317D01*
X216649592Y-97161169D01*
X216639400Y-99690801D01*
X216616552Y-105361859D01*
X216600000Y-109470000D01*
X220592432Y-109479296D01*
X220592434Y-109479297D01*
X220606794Y-109479330D01*
X220606796Y-109479331D01*
X244004203Y-109533818D01*
X244011670Y-109534061D01*
X244316110Y-109553188D01*
X244330943Y-109555025D01*
X244627160Y-109610022D01*
X244641681Y-109613637D01*
X244929102Y-109703935D01*
X244943088Y-109709277D01*
X245217527Y-109833561D01*
X245230769Y-109840550D01*
X245488231Y-109997011D01*
X245500524Y-110005539D01*
X245527966Y-110027142D01*
X245737241Y-110191887D01*
X245748426Y-110201842D01*
X245960959Y-110415366D01*
X245970863Y-110426598D01*
X246156107Y-110664183D01*
X246164584Y-110676526D01*
X246319836Y-110934701D01*
X246326764Y-110947975D01*
X246449770Y-111222992D01*
X246455047Y-111237005D01*
X246544003Y-111524833D01*
X246547553Y-111539381D01*
X246601168Y-111835843D01*
X246602938Y-111850711D01*
X246620430Y-112151501D01*
X246620400Y-112166402D01*
X246601570Y-112468957D01*
X246599765Y-112483675D01*
X246544952Y-112781841D01*
X246541404Y-112796237D01*
X246451391Y-113085737D01*
X246446150Y-113099608D01*
X246322225Y-113376289D01*
X246315366Y-113389435D01*
X246159296Y-113649354D01*
X246150916Y-113661587D01*
X245964944Y-113901009D01*
X245955165Y-113912154D01*
X245741939Y-114127671D01*
X245730898Y-114137570D01*
X245493472Y-114326094D01*
X245481330Y-114334603D01*
X245223102Y-114493437D01*
X245210030Y-114500437D01*
X244934683Y-114627315D01*
X244920869Y-114632704D01*
X244632353Y-114725805D01*
X244617994Y-114729507D01*
X244320417Y-114787505D01*
X244305720Y-114789466D01*
X243999650Y-114811800D01*
X243992240Y-114812118D01*
X241920631Y-114839083D01*
X241853341Y-114820273D01*
X241806903Y-114768069D01*
X241796060Y-114699046D01*
X241820214Y-114640167D01*
X241833922Y-114622090D01*
X241889385Y-114481445D01*
X241900000Y-114393052D01*
X241900000Y-113450000D01*
X240800001Y-113450000D01*
X240825021Y-113389598D01*
X240850000Y-113264019D01*
X240850000Y-113135981D01*
X240825021Y-113010402D01*
X240800001Y-112950000D01*
X241899999Y-112950000D01*
X241899999Y-112006947D01*
X241889386Y-111918556D01*
X241889384Y-111918552D01*
X241833921Y-111777908D01*
X241833920Y-111777906D01*
X241742564Y-111657435D01*
X241622093Y-111566079D01*
X241622091Y-111566078D01*
X241481445Y-111510614D01*
X241393053Y-111500000D01*
X240450000Y-111500000D01*
X240450000Y-112599998D01*
X240389598Y-112574979D01*
X240264019Y-112550000D01*
X240135981Y-112550000D01*
X240010402Y-112574979D01*
X239950000Y-112599998D01*
X239950000Y-111500000D01*
X239006947Y-111500000D01*
X238918556Y-111510613D01*
X238918552Y-111510615D01*
X238777908Y-111566078D01*
X238777906Y-111566079D01*
X238657435Y-111657435D01*
X238566079Y-111777906D01*
X238566078Y-111777908D01*
X238510614Y-111918554D01*
X238500000Y-112006947D01*
X238500000Y-112950000D01*
X239599999Y-112950000D01*
X239574979Y-113010402D01*
X239550000Y-113135981D01*
X239550000Y-113264019D01*
X239574979Y-113389598D01*
X239599999Y-113450000D01*
X238500001Y-113450000D01*
X238500001Y-114393052D01*
X238510613Y-114481443D01*
X238510615Y-114481447D01*
X238566078Y-114622091D01*
X238566079Y-114622093D01*
X238613390Y-114684482D01*
X238638213Y-114749793D01*
X238623785Y-114818157D01*
X238574687Y-114867868D01*
X238516200Y-114883396D01*
X235558559Y-114921895D01*
X232160823Y-114966122D01*
X232146930Y-114965524D01*
X231999137Y-114950817D01*
X231971989Y-114944991D01*
X231837823Y-114899996D01*
X231812650Y-114888274D01*
X231691866Y-114814555D01*
X231669934Y-114797527D01*
X231568580Y-114698778D01*
X231550986Y-114677296D01*
X231474148Y-114558471D01*
X231461776Y-114533613D01*
X231413302Y-114400660D01*
X231406772Y-114373676D01*
X231388223Y-114226316D01*
X231387264Y-114212449D01*
X231386289Y-114137570D01*
X231377506Y-113462767D01*
X230620829Y-113455699D01*
X230620827Y-113455699D01*
X230620825Y-113455698D01*
X212462838Y-113286096D01*
X211531069Y-113277392D01*
X211524986Y-113277185D01*
X211142260Y-113254799D01*
X211130162Y-113253494D01*
X210754446Y-113194170D01*
X210742533Y-113191684D01*
X210374458Y-113095824D01*
X210362847Y-113092183D01*
X210005939Y-112960705D01*
X209994741Y-112955944D01*
X209652427Y-112790112D01*
X209641749Y-112784275D01*
X209317360Y-112585702D01*
X209307305Y-112578848D01*
X209003915Y-112349416D01*
X208994581Y-112341608D01*
X208726822Y-112094331D01*
X208726821Y-112094330D01*
X208715155Y-112083556D01*
X208706632Y-112074873D01*
X208453831Y-111790658D01*
X208446211Y-111781193D01*
X208443822Y-111777908D01*
X208222494Y-111473583D01*
X208215838Y-111463418D01*
X208023340Y-111135345D01*
X208017708Y-111124566D01*
X207858295Y-110779206D01*
X207853756Y-110767954D01*
X207728961Y-110408626D01*
X207725538Y-110396949D01*
X207636566Y-110027131D01*
X207634308Y-110015197D01*
X207582014Y-109638448D01*
X207580934Y-109626327D01*
X207577265Y-109534062D01*
X207565698Y-109243217D01*
X207565606Y-109237146D01*
X207574371Y-108298763D01*
X207603004Y-105233239D01*
X207618035Y-103624038D01*
X208649500Y-103624038D01*
X208649500Y-103875962D01*
X208688910Y-104124785D01*
X208766760Y-104364383D01*
X208881132Y-104588848D01*
X209029201Y-104792649D01*
X209029205Y-104792654D01*
X209207345Y-104970794D01*
X209207350Y-104970798D01*
X209384794Y-105099718D01*
X209411155Y-105118870D01*
X209554184Y-105191747D01*
X209635616Y-105233239D01*
X209635618Y-105233239D01*
X209635621Y-105233241D01*
X209875215Y-105311090D01*
X210124038Y-105350500D01*
X210124039Y-105350500D01*
X210375961Y-105350500D01*
X210375962Y-105350500D01*
X210624785Y-105311090D01*
X210864379Y-105233241D01*
X211088845Y-105118870D01*
X211292656Y-104970793D01*
X211470793Y-104792656D01*
X211618870Y-104588845D01*
X211733241Y-104364379D01*
X211811090Y-104124785D01*
X211850500Y-103875962D01*
X211850500Y-103624038D01*
X211811090Y-103375215D01*
X211733241Y-103135621D01*
X211733239Y-103135618D01*
X211733239Y-103135616D01*
X211685313Y-103041557D01*
X211618870Y-102911155D01*
X211552718Y-102820104D01*
X211470798Y-102707350D01*
X211470794Y-102707345D01*
X211292654Y-102529205D01*
X211292649Y-102529201D01*
X211088848Y-102381132D01*
X211088847Y-102381131D01*
X211088845Y-102381130D01*
X211018747Y-102345413D01*
X210864383Y-102266760D01*
X210624785Y-102188910D01*
X210375962Y-102149500D01*
X210124038Y-102149500D01*
X209999626Y-102169205D01*
X209875214Y-102188910D01*
X209635616Y-102266760D01*
X209411151Y-102381132D01*
X209207350Y-102529201D01*
X209207345Y-102529205D01*
X209029205Y-102707345D01*
X209029201Y-102707350D01*
X208881132Y-102911151D01*
X208766760Y-103135616D01*
X208688910Y-103375214D01*
X208688910Y-103375215D01*
X208649500Y-103624038D01*
X207618035Y-103624038D01*
X207664369Y-98663428D01*
X209150000Y-98663428D01*
X209150000Y-98836571D01*
X209177085Y-99007584D01*
X209230592Y-99172259D01*
X209309196Y-99326525D01*
X209313709Y-99332736D01*
X209313709Y-99332737D01*
X209850000Y-98796446D01*
X209850000Y-98802661D01*
X209877259Y-98904394D01*
X209929920Y-98995606D01*
X210004394Y-99070080D01*
X210095606Y-99122741D01*
X210197339Y-99150000D01*
X210203553Y-99150000D01*
X209667261Y-99686289D01*
X209667262Y-99686290D01*
X209673471Y-99690801D01*
X209827742Y-99769408D01*
X209992415Y-99822914D01*
X210163429Y-99850000D01*
X210336571Y-99850000D01*
X210507584Y-99822914D01*
X210672257Y-99769408D01*
X210826525Y-99690803D01*
X210832736Y-99686289D01*
X210832737Y-99686289D01*
X210296448Y-99150000D01*
X210302661Y-99150000D01*
X210404394Y-99122741D01*
X210495606Y-99070080D01*
X210570080Y-98995606D01*
X210622741Y-98904394D01*
X210650000Y-98802661D01*
X210650000Y-98796448D01*
X211186289Y-99332737D01*
X211186289Y-99332736D01*
X211190803Y-99326525D01*
X211269408Y-99172257D01*
X211322914Y-99007584D01*
X211350000Y-98836571D01*
X211350000Y-98663428D01*
X211322914Y-98492415D01*
X211269408Y-98327742D01*
X211190801Y-98173471D01*
X211186290Y-98167262D01*
X211186289Y-98167261D01*
X210650000Y-98703551D01*
X210650000Y-98697339D01*
X210622741Y-98595606D01*
X210570080Y-98504394D01*
X210495606Y-98429920D01*
X210404394Y-98377259D01*
X210302661Y-98350000D01*
X210296447Y-98350000D01*
X210832737Y-97813709D01*
X210826525Y-97809196D01*
X210672259Y-97730592D01*
X210507584Y-97677085D01*
X210336571Y-97650000D01*
X210163429Y-97650000D01*
X209992415Y-97677085D01*
X209827740Y-97730592D01*
X209673480Y-97809193D01*
X209673463Y-97809203D01*
X209667261Y-97813708D01*
X209667261Y-97813709D01*
X210203554Y-98350000D01*
X210197339Y-98350000D01*
X210095606Y-98377259D01*
X210004394Y-98429920D01*
X209929920Y-98504394D01*
X209877259Y-98595606D01*
X209850000Y-98697339D01*
X209850000Y-98703552D01*
X209313709Y-98167261D01*
X209313708Y-98167261D01*
X209309203Y-98173463D01*
X209309193Y-98173480D01*
X209230592Y-98327740D01*
X209177085Y-98492415D01*
X209150000Y-98663428D01*
X207664369Y-98663428D01*
X207680000Y-96990000D01*
X216624999Y-97059804D01*
G37*
%TD.AperFunction*%
%TD*%
%TA.AperFunction,Conductor*%
%TO.N,+12V*%
G36*
X177690690Y-96016186D02*
G01*
X177715195Y-102230120D01*
X177715194Y-102230121D01*
X177715194Y-102230120D01*
X173708856Y-102252326D01*
X173708855Y-102252326D01*
X173610193Y-102252871D01*
X173610194Y-102252872D01*
X169235054Y-102277122D01*
X169235053Y-102277123D01*
X169161995Y-106180569D01*
X169027096Y-113387939D01*
X169006161Y-113454599D01*
X168990771Y-113473328D01*
X168962084Y-113501994D01*
X168989091Y-110676095D01*
X166547896Y-110680290D01*
X166650872Y-110577315D01*
X166786829Y-110390186D01*
X166891839Y-110184092D01*
X166963316Y-109964109D01*
X166975987Y-109884109D01*
X166999500Y-109735657D01*
X166999500Y-109504342D01*
X166963316Y-109275890D01*
X166891837Y-109055903D01*
X166786828Y-108849813D01*
X166650872Y-108662685D01*
X166487315Y-108499128D01*
X166420134Y-108450318D01*
X166377468Y-108394988D01*
X166371489Y-108325375D01*
X166404095Y-108263580D01*
X166420134Y-108249682D01*
X166432766Y-108240503D01*
X166487315Y-108200872D01*
X166650872Y-108037315D01*
X166786829Y-107850186D01*
X166891839Y-107644092D01*
X166963316Y-107424109D01*
X166975987Y-107344109D01*
X166999500Y-107195657D01*
X166999500Y-106964342D01*
X166963316Y-106735890D01*
X166891837Y-106515903D01*
X166823060Y-106380921D01*
X166786829Y-106309814D01*
X166650872Y-106122685D01*
X166487315Y-105959128D01*
X166300186Y-105823171D01*
X166094096Y-105718162D01*
X165874109Y-105646683D01*
X165645657Y-105610500D01*
X165645652Y-105610500D01*
X165414348Y-105610500D01*
X165414343Y-105610500D01*
X165185890Y-105646683D01*
X164965903Y-105718162D01*
X164759813Y-105823171D01*
X164572682Y-105959130D01*
X164409130Y-106122682D01*
X164273171Y-106309813D01*
X164168162Y-106515903D01*
X164096683Y-106735890D01*
X164060500Y-106964342D01*
X164060500Y-107195657D01*
X164096683Y-107424109D01*
X164168162Y-107644096D01*
X164232409Y-107770186D01*
X164273171Y-107850186D01*
X164409128Y-108037315D01*
X164572685Y-108200872D01*
X164621234Y-108236145D01*
X164639866Y-108249682D01*
X164682531Y-108305013D01*
X164688510Y-108374626D01*
X164655904Y-108436421D01*
X164639866Y-108450318D01*
X164572683Y-108499129D01*
X164409130Y-108662682D01*
X164273171Y-108849813D01*
X164168162Y-109055903D01*
X164096683Y-109275890D01*
X164060500Y-109504342D01*
X164060500Y-109735657D01*
X164096683Y-109964109D01*
X164168162Y-110184096D01*
X164232409Y-110310186D01*
X164273171Y-110390186D01*
X164409128Y-110577315D01*
X164515596Y-110683783D01*
X162970872Y-110686439D01*
X162945676Y-113555555D01*
X162945674Y-113555556D01*
X162945675Y-113555556D01*
X162794234Y-113556905D01*
X162761963Y-113552929D01*
X162726280Y-113543662D01*
X162670237Y-113511792D01*
X162656104Y-113497809D01*
X162623638Y-113442113D01*
X162613987Y-113406522D01*
X162609668Y-113374305D01*
X162597203Y-106380925D01*
X162597202Y-106380921D01*
X162590002Y-102341200D01*
X158047193Y-102394199D01*
X155477934Y-102424174D01*
X155477931Y-102424174D01*
X152531982Y-102458543D01*
X151549999Y-102470000D01*
X151483487Y-112789147D01*
X151483487Y-112789148D01*
X151482014Y-113017546D01*
X151479496Y-113041623D01*
X151463300Y-113120710D01*
X151444645Y-113165139D01*
X151406456Y-113221797D01*
X151372275Y-113255758D01*
X151315372Y-113293582D01*
X151270822Y-113311952D01*
X151191635Y-113327637D01*
X151167542Y-113330000D01*
X150879409Y-113330000D01*
X150893589Y-110551469D01*
X148089153Y-110529033D01*
X148120872Y-110497315D01*
X148256829Y-110310186D01*
X148361839Y-110104092D01*
X148433316Y-109884109D01*
X148469500Y-109655657D01*
X148469500Y-109424342D01*
X148433316Y-109195890D01*
X148361837Y-108975903D01*
X148256828Y-108769813D01*
X148178993Y-108662682D01*
X148120872Y-108582685D01*
X147957315Y-108419128D01*
X147890134Y-108370318D01*
X147847468Y-108314988D01*
X147841489Y-108245375D01*
X147874095Y-108183580D01*
X147890134Y-108169682D01*
X147902766Y-108160503D01*
X147957315Y-108120872D01*
X148120872Y-107957315D01*
X148256829Y-107770186D01*
X148361839Y-107564092D01*
X148433316Y-107344109D01*
X148469500Y-107115657D01*
X148469500Y-106884342D01*
X148433316Y-106655890D01*
X148361837Y-106435903D01*
X148297590Y-106309813D01*
X148256829Y-106229814D01*
X148120872Y-106042685D01*
X147957315Y-105879128D01*
X147770186Y-105743171D01*
X147721103Y-105718162D01*
X147564096Y-105638162D01*
X147344109Y-105566683D01*
X147115657Y-105530500D01*
X147115652Y-105530500D01*
X146884348Y-105530500D01*
X146884343Y-105530500D01*
X146655890Y-105566683D01*
X146435903Y-105638162D01*
X146229813Y-105743171D01*
X146042682Y-105879130D01*
X145879130Y-106042682D01*
X145743171Y-106229813D01*
X145638162Y-106435903D01*
X145566683Y-106655890D01*
X145530500Y-106884342D01*
X145530500Y-107115657D01*
X145566683Y-107344109D01*
X145638162Y-107564096D01*
X145743171Y-107770186D01*
X145879128Y-107957315D01*
X146042685Y-108120872D01*
X146091234Y-108156145D01*
X146109866Y-108169682D01*
X146152531Y-108225013D01*
X146158510Y-108294626D01*
X146125904Y-108356421D01*
X146109866Y-108370318D01*
X146042683Y-108419129D01*
X145879130Y-108582682D01*
X145743171Y-108769813D01*
X145638162Y-108975903D01*
X145566683Y-109195890D01*
X145530500Y-109424342D01*
X145530500Y-109655657D01*
X145566683Y-109884109D01*
X145638162Y-110104096D01*
X145743171Y-110310186D01*
X145879128Y-110497315D01*
X145893280Y-110511467D01*
X144895104Y-110503482D01*
X144897163Y-113330000D01*
X144488295Y-113330000D01*
X144468990Y-113328488D01*
X144447849Y-113325156D01*
X144368165Y-113312596D01*
X144331426Y-113300719D01*
X144249152Y-113259031D01*
X144217846Y-113236429D01*
X144152384Y-113171456D01*
X144129548Y-113140321D01*
X144087244Y-113058361D01*
X144075092Y-113021711D01*
X144074597Y-113018719D01*
X144058445Y-112921011D01*
X144056789Y-112901719D01*
X144054877Y-112646669D01*
X143960259Y-100026123D01*
X143960364Y-100020072D01*
X143976490Y-99634954D01*
X143977601Y-99622806D01*
X144031165Y-99244191D01*
X144033470Y-99232198D01*
X144124081Y-98860695D01*
X144127556Y-98848993D01*
X144131921Y-98836571D01*
X144243416Y-98519285D01*
X144284212Y-98462566D01*
X144349198Y-98436905D01*
X144417742Y-98450452D01*
X144468081Y-98498906D01*
X144482875Y-98540999D01*
X144487086Y-98567585D01*
X144540592Y-98732259D01*
X144619196Y-98886525D01*
X144623709Y-98892736D01*
X144623709Y-98892737D01*
X145160000Y-98356446D01*
X145160000Y-98362661D01*
X145187259Y-98464394D01*
X145239920Y-98555606D01*
X145314394Y-98630080D01*
X145405606Y-98682741D01*
X145507339Y-98710000D01*
X145513553Y-98710000D01*
X144977261Y-99246289D01*
X144977262Y-99246290D01*
X144983471Y-99250801D01*
X145137742Y-99329408D01*
X145302415Y-99382914D01*
X145473429Y-99410000D01*
X145646571Y-99410000D01*
X145817584Y-99382914D01*
X145982257Y-99329408D01*
X146136525Y-99250803D01*
X146142736Y-99246289D01*
X146142737Y-99246289D01*
X145606448Y-98710000D01*
X145612661Y-98710000D01*
X145714394Y-98682741D01*
X145805606Y-98630080D01*
X145880080Y-98555606D01*
X145932741Y-98464394D01*
X145960000Y-98362661D01*
X145960000Y-98356447D01*
X146496289Y-98892736D01*
X146500803Y-98886525D01*
X146579408Y-98732257D01*
X146632914Y-98567584D01*
X146660000Y-98396571D01*
X146660000Y-98264038D01*
X157459500Y-98264038D01*
X157459500Y-98515962D01*
X157477575Y-98630080D01*
X157498910Y-98764785D01*
X157576760Y-99004383D01*
X157655413Y-99158747D01*
X157688017Y-99222736D01*
X157691132Y-99228848D01*
X157839201Y-99432649D01*
X157839205Y-99432654D01*
X158017345Y-99610794D01*
X158017350Y-99610798D01*
X158139439Y-99699500D01*
X158221155Y-99758870D01*
X158346849Y-99822914D01*
X158445616Y-99873239D01*
X158445618Y-99873239D01*
X158445621Y-99873241D01*
X158685215Y-99951090D01*
X158934038Y-99990500D01*
X158934039Y-99990500D01*
X159185961Y-99990500D01*
X159185962Y-99990500D01*
X159434785Y-99951090D01*
X159674379Y-99873241D01*
X159898845Y-99758870D01*
X160102656Y-99610793D01*
X160280793Y-99432656D01*
X160428870Y-99228845D01*
X160543241Y-99004379D01*
X160621090Y-98764785D01*
X160660500Y-98515962D01*
X160660500Y-98303428D01*
X162960000Y-98303428D01*
X162960000Y-98476571D01*
X162987085Y-98647584D01*
X163040592Y-98812259D01*
X163119196Y-98966525D01*
X163123709Y-98972736D01*
X163123709Y-98972737D01*
X163660000Y-98436446D01*
X163660000Y-98442661D01*
X163687259Y-98544394D01*
X163739920Y-98635606D01*
X163814394Y-98710080D01*
X163905606Y-98762741D01*
X164007339Y-98790000D01*
X164013553Y-98790000D01*
X163477261Y-99326289D01*
X163477262Y-99326290D01*
X163483471Y-99330801D01*
X163637742Y-99409408D01*
X163802415Y-99462914D01*
X163973429Y-99490000D01*
X164146571Y-99490000D01*
X164317584Y-99462914D01*
X164482257Y-99409408D01*
X164636525Y-99330803D01*
X164642736Y-99326289D01*
X164642737Y-99326289D01*
X164106448Y-98790000D01*
X164112661Y-98790000D01*
X164214394Y-98762741D01*
X164305606Y-98710080D01*
X164380080Y-98635606D01*
X164432741Y-98544394D01*
X164460000Y-98442661D01*
X164460000Y-98436448D01*
X164996289Y-98972737D01*
X164996289Y-98972736D01*
X165000803Y-98966525D01*
X165079408Y-98812257D01*
X165132913Y-98647587D01*
X165134249Y-98639155D01*
X165134249Y-98639153D01*
X165160000Y-98476571D01*
X165160000Y-98303428D01*
X165132914Y-98132415D01*
X165079408Y-97967742D01*
X165053686Y-97917261D01*
X165000801Y-97813471D01*
X164996290Y-97807262D01*
X164996289Y-97807261D01*
X164460000Y-98343551D01*
X164460000Y-98337339D01*
X164432741Y-98235606D01*
X164380080Y-98144394D01*
X164305606Y-98069920D01*
X164214394Y-98017259D01*
X164112661Y-97990000D01*
X164106447Y-97990000D01*
X164642737Y-97453709D01*
X164636525Y-97449196D01*
X164482259Y-97370592D01*
X164317584Y-97317085D01*
X164146571Y-97290000D01*
X163973429Y-97290000D01*
X163802415Y-97317085D01*
X163637740Y-97370592D01*
X163483480Y-97449193D01*
X163483463Y-97449203D01*
X163477261Y-97453708D01*
X163477261Y-97453709D01*
X164013554Y-97990000D01*
X164007339Y-97990000D01*
X163905606Y-98017259D01*
X163814394Y-98069920D01*
X163739920Y-98144394D01*
X163687259Y-98235606D01*
X163660000Y-98337339D01*
X163660000Y-98343552D01*
X163123709Y-97807261D01*
X163123708Y-97807261D01*
X163119203Y-97813463D01*
X163119193Y-97813480D01*
X163040592Y-97967740D01*
X162987085Y-98132415D01*
X162960000Y-98303428D01*
X160660500Y-98303428D01*
X160660500Y-98264038D01*
X160621090Y-98015215D01*
X160543241Y-97775621D01*
X160543239Y-97775618D01*
X160543239Y-97775616D01*
X160431981Y-97557261D01*
X160428870Y-97551155D01*
X160354793Y-97449196D01*
X160280798Y-97347350D01*
X160280794Y-97347345D01*
X160102654Y-97169205D01*
X160102649Y-97169201D01*
X159898848Y-97021132D01*
X159898847Y-97021131D01*
X159898845Y-97021130D01*
X159828747Y-96985413D01*
X159674383Y-96906760D01*
X159434785Y-96828910D01*
X159185962Y-96789500D01*
X158934038Y-96789500D01*
X158809626Y-96809205D01*
X158685214Y-96828910D01*
X158445616Y-96906760D01*
X158221151Y-97021132D01*
X158017350Y-97169201D01*
X158017345Y-97169205D01*
X157839205Y-97347345D01*
X157839201Y-97347350D01*
X157691132Y-97551151D01*
X157576760Y-97775616D01*
X157498910Y-98015214D01*
X157473843Y-98173480D01*
X157459500Y-98264038D01*
X146660000Y-98264038D01*
X146660000Y-98223428D01*
X146632914Y-98052415D01*
X146579408Y-97887742D01*
X146500801Y-97733471D01*
X146496290Y-97727262D01*
X146496289Y-97727261D01*
X145960000Y-98263551D01*
X145960000Y-98257339D01*
X145932741Y-98155606D01*
X145880080Y-98064394D01*
X145805606Y-97989920D01*
X145714394Y-97937259D01*
X145612661Y-97910000D01*
X145606446Y-97910000D01*
X146142737Y-97373709D01*
X146136525Y-97369196D01*
X145982259Y-97290592D01*
X145817584Y-97237085D01*
X145646571Y-97210000D01*
X145473428Y-97210000D01*
X145409593Y-97220110D01*
X145375647Y-97215723D01*
X145341567Y-97211704D01*
X145341011Y-97211246D01*
X145340300Y-97211155D01*
X145314067Y-97189072D01*
X145287618Y-97167305D01*
X145287398Y-97166622D01*
X145286848Y-97166159D01*
X145276717Y-97133393D01*
X145266236Y-97100787D01*
X145266420Y-97100092D01*
X145266209Y-97099407D01*
X145275393Y-97066388D01*
X145284211Y-97033270D01*
X145284808Y-97032543D01*
X145284934Y-97032093D01*
X145306636Y-97006020D01*
X145409248Y-96912436D01*
X145418680Y-96904652D01*
X145573108Y-96789500D01*
X145725212Y-96676080D01*
X145735348Y-96669273D01*
X146062914Y-96472016D01*
X146073677Y-96466238D01*
X146419099Y-96302210D01*
X146430363Y-96297527D01*
X146790256Y-96168335D01*
X146801957Y-96164776D01*
X147172807Y-96071679D01*
X147184799Y-96069290D01*
X147563041Y-96013183D01*
X147575186Y-96011990D01*
X147960180Y-95993275D01*
X147966268Y-95993130D01*
X177690690Y-96016186D01*
G37*
%TD.AperFunction*%
%TA.AperFunction,Conductor*%
G36*
X212576750Y-87278368D02*
G01*
X212961436Y-87294812D01*
X212973574Y-87295932D01*
X213351740Y-87349727D01*
X213363719Y-87352039D01*
X213734747Y-87442793D01*
X213746449Y-87446275D01*
X214010476Y-87539219D01*
X214106720Y-87573099D01*
X214118033Y-87577719D01*
X214464100Y-87739401D01*
X214474884Y-87745103D01*
X214803341Y-87940051D01*
X214813516Y-87946789D01*
X215121198Y-88173126D01*
X215130669Y-88180840D01*
X215414577Y-88436359D01*
X215423230Y-88444955D01*
X215560506Y-88595482D01*
X215680612Y-88727181D01*
X215688391Y-88736605D01*
X215916731Y-89042774D01*
X215923545Y-89052917D01*
X216120650Y-89380087D01*
X216126424Y-89390836D01*
X216290376Y-89735831D01*
X216295066Y-89747103D01*
X216424256Y-90106536D01*
X216427818Y-90118225D01*
X216521006Y-90488633D01*
X216523400Y-90500616D01*
X216579677Y-90878405D01*
X216580879Y-90890565D01*
X216599849Y-91275091D01*
X216600000Y-91281201D01*
X216600000Y-91514903D01*
X216580315Y-91581942D01*
X216527511Y-91627697D01*
X216458353Y-91637641D01*
X216394797Y-91608616D01*
X216357023Y-91549838D01*
X216356225Y-91546996D01*
X216287716Y-91291317D01*
X216177355Y-91024883D01*
X216177351Y-91024873D01*
X216033158Y-90775123D01*
X215857597Y-90546328D01*
X215857591Y-90546321D01*
X215653678Y-90342408D01*
X215653671Y-90342402D01*
X215424876Y-90166841D01*
X215175126Y-90022648D01*
X215175116Y-90022644D01*
X214908682Y-89912283D01*
X214630118Y-89837643D01*
X214344203Y-89800000D01*
X212350000Y-89800000D01*
X212350000Y-91000000D01*
X211850000Y-91000000D01*
X211850000Y-89800000D01*
X209855796Y-89800000D01*
X209569881Y-89837643D01*
X209291317Y-89912283D01*
X209024883Y-90022644D01*
X209024873Y-90022648D01*
X208775123Y-90166841D01*
X208546328Y-90342402D01*
X208546321Y-90342408D01*
X208342408Y-90546321D01*
X208342402Y-90546328D01*
X208166841Y-90775123D01*
X208022648Y-91024873D01*
X208022644Y-91024883D01*
X207912283Y-91291317D01*
X207837642Y-91569881D01*
X207813929Y-91750000D01*
X209130137Y-91750000D01*
X209100000Y-91901509D01*
X209100000Y-92098491D01*
X209130137Y-92250000D01*
X207813930Y-92250000D01*
X207837642Y-92430118D01*
X207912283Y-92708682D01*
X208022644Y-92975116D01*
X208022648Y-92975126D01*
X208166841Y-93224876D01*
X208342402Y-93453671D01*
X208342408Y-93453678D01*
X208546321Y-93657591D01*
X208546328Y-93657597D01*
X208775123Y-93833158D01*
X209024873Y-93977351D01*
X209024883Y-93977355D01*
X209291317Y-94087716D01*
X209569881Y-94162356D01*
X209855796Y-94199999D01*
X209855811Y-94200000D01*
X211850000Y-94200000D01*
X211850000Y-93000000D01*
X212350000Y-93000000D01*
X212350000Y-94200000D01*
X214344189Y-94200000D01*
X214344203Y-94199999D01*
X214630118Y-94162356D01*
X214908682Y-94087716D01*
X215175116Y-93977355D01*
X215175126Y-93977351D01*
X215424876Y-93833158D01*
X215653671Y-93657597D01*
X215653678Y-93657591D01*
X215857591Y-93453678D01*
X215857597Y-93453671D01*
X216033158Y-93224876D01*
X216177351Y-92975126D01*
X216177355Y-92975116D01*
X216287716Y-92708682D01*
X216356225Y-92453003D01*
X216392590Y-92393342D01*
X216455437Y-92362813D01*
X216524812Y-92371108D01*
X216578690Y-92415593D01*
X216599965Y-92482145D01*
X216600000Y-92485096D01*
X216600000Y-97059609D01*
X207680000Y-96990000D01*
X207613586Y-104100326D01*
X207613584Y-104100327D01*
X207613585Y-104100327D01*
X203494036Y-104137328D01*
X203485847Y-104137131D01*
X203170831Y-104119127D01*
X203154581Y-104117115D01*
X202848722Y-104058535D01*
X202832878Y-104054400D01*
X202537396Y-103956028D01*
X202522237Y-103949842D01*
X202242292Y-103813396D01*
X202228078Y-103805265D01*
X202221438Y-103800860D01*
X201968554Y-103633122D01*
X201955552Y-103623203D01*
X201720954Y-103418352D01*
X201709364Y-103406796D01*
X201503821Y-103172840D01*
X201493850Y-103159853D01*
X201320921Y-102900850D01*
X201312750Y-102886667D01*
X201175453Y-102607132D01*
X201169221Y-102591991D01*
X201124873Y-102460117D01*
X201069952Y-102296802D01*
X201065774Y-102280990D01*
X201006264Y-101975295D01*
X201004204Y-101959053D01*
X200988978Y-101706089D01*
X200985246Y-101644094D01*
X200985024Y-101635905D01*
X200989027Y-100963459D01*
X200990554Y-100706946D01*
X202200000Y-100706946D01*
X202200000Y-101250000D01*
X203066988Y-101250000D01*
X203034075Y-101307007D01*
X203000000Y-101434174D01*
X203000000Y-101565826D01*
X203034075Y-101692993D01*
X203066988Y-101750000D01*
X202200000Y-101750000D01*
X202200000Y-102293053D01*
X202210613Y-102381443D01*
X202266079Y-102522095D01*
X202357435Y-102642564D01*
X202477904Y-102733920D01*
X202618556Y-102789386D01*
X202706946Y-102800000D01*
X203250000Y-102800000D01*
X203250000Y-101933012D01*
X203307007Y-101965925D01*
X203434174Y-102000000D01*
X203565826Y-102000000D01*
X203692993Y-101965925D01*
X203750000Y-101933012D01*
X203750000Y-102800000D01*
X204293054Y-102800000D01*
X204381443Y-102789386D01*
X204522095Y-102733920D01*
X204642564Y-102642564D01*
X204733920Y-102522095D01*
X204789386Y-102381443D01*
X204800000Y-102293053D01*
X204800000Y-101750000D01*
X203933012Y-101750000D01*
X203965925Y-101692993D01*
X204000000Y-101565826D01*
X204000000Y-101434174D01*
X203965925Y-101307007D01*
X203933012Y-101250000D01*
X204800000Y-101250000D01*
X204800000Y-100706946D01*
X204789386Y-100618556D01*
X204733920Y-100477904D01*
X204642564Y-100357435D01*
X204522095Y-100266079D01*
X204381443Y-100210613D01*
X204293054Y-100200000D01*
X203750000Y-100200000D01*
X203750000Y-101066988D01*
X203692993Y-101034075D01*
X203565826Y-101000000D01*
X203434174Y-101000000D01*
X203307007Y-101034075D01*
X203250000Y-101066988D01*
X203250000Y-100200000D01*
X202706946Y-100200000D01*
X202618556Y-100210613D01*
X202477904Y-100266079D01*
X202357435Y-100357435D01*
X202266079Y-100477904D01*
X202210613Y-100618556D01*
X202200000Y-100706946D01*
X200990554Y-100706946D01*
X201000000Y-99120000D01*
X197853422Y-99101811D01*
X197330049Y-99098786D01*
X197330043Y-99098786D01*
X197330041Y-99098785D01*
X195818836Y-99090051D01*
X195810000Y-99090000D01*
X195809999Y-99090000D01*
X195795000Y-100610000D01*
X195781205Y-102007902D01*
X195760860Y-102074744D01*
X195707607Y-102119975D01*
X195657899Y-102130676D01*
X195613454Y-102130921D01*
X195500000Y-96030000D01*
X195500000Y-96029999D01*
X195522556Y-93245986D01*
X195526909Y-92708682D01*
X195533671Y-91874071D01*
X201520000Y-91874071D01*
X201520000Y-92125928D01*
X201559397Y-92374669D01*
X201637219Y-92614184D01*
X201751557Y-92838583D01*
X201825748Y-92940697D01*
X201825748Y-92940698D01*
X202518958Y-92247488D01*
X202543978Y-92307890D01*
X202615112Y-92414351D01*
X202705649Y-92504888D01*
X202812110Y-92576022D01*
X202872510Y-92601041D01*
X202179300Y-93294250D01*
X202281416Y-93368442D01*
X202505815Y-93482780D01*
X202745330Y-93560602D01*
X202994072Y-93600000D01*
X203245928Y-93600000D01*
X203494669Y-93560602D01*
X203734184Y-93482780D01*
X203958575Y-93368446D01*
X203958581Y-93368442D01*
X204060697Y-93294250D01*
X204060698Y-93294250D01*
X203367488Y-92601041D01*
X203427890Y-92576022D01*
X203534351Y-92504888D01*
X203624888Y-92414351D01*
X203696022Y-92307890D01*
X203721041Y-92247488D01*
X204414250Y-92940698D01*
X204414250Y-92940697D01*
X204488442Y-92838581D01*
X204488446Y-92838575D01*
X204602780Y-92614184D01*
X204680602Y-92374669D01*
X204709680Y-92191084D01*
X204720000Y-92125928D01*
X204720000Y-91874071D01*
X204709680Y-91808916D01*
X204680602Y-91625330D01*
X204602780Y-91385815D01*
X204488442Y-91161416D01*
X204414250Y-91059301D01*
X204414250Y-91059300D01*
X203721041Y-91752510D01*
X203696022Y-91692110D01*
X203624888Y-91585649D01*
X203534351Y-91495112D01*
X203427890Y-91423978D01*
X203367487Y-91398957D01*
X204060698Y-90705748D01*
X203958583Y-90631557D01*
X203734184Y-90517219D01*
X203494669Y-90439397D01*
X203245928Y-90400000D01*
X202994072Y-90400000D01*
X202745330Y-90439397D01*
X202505815Y-90517219D01*
X202281413Y-90631559D01*
X202179301Y-90705747D01*
X202179300Y-90705748D01*
X202872511Y-91398958D01*
X202812110Y-91423978D01*
X202705649Y-91495112D01*
X202615112Y-91585649D01*
X202543978Y-91692110D01*
X202518958Y-91752511D01*
X201825748Y-91059300D01*
X201825747Y-91059301D01*
X201751559Y-91161413D01*
X201637219Y-91385815D01*
X201559397Y-91625330D01*
X201520000Y-91874071D01*
X195533671Y-91874071D01*
X195538041Y-91334602D01*
X195538235Y-91328619D01*
X195559774Y-90949349D01*
X195561037Y-90937402D01*
X195618837Y-90565023D01*
X195621261Y-90553227D01*
X195623034Y-90546321D01*
X195714943Y-90188235D01*
X195718495Y-90176748D01*
X195847180Y-89822569D01*
X195851842Y-89811457D01*
X195882593Y-89747103D01*
X196014307Y-89471455D01*
X196020006Y-89460882D01*
X196214732Y-89138243D01*
X196221434Y-89128267D01*
X196446574Y-88826055D01*
X196454210Y-88816783D01*
X196707625Y-88537869D01*
X196716139Y-88529369D01*
X196995417Y-88276401D01*
X197004714Y-88268768D01*
X197307268Y-88044092D01*
X197317260Y-88037401D01*
X197640182Y-87843178D01*
X197650773Y-87837489D01*
X197991050Y-87675530D01*
X198002135Y-87670902D01*
X198356514Y-87542757D01*
X198368005Y-87539223D01*
X198733162Y-87446094D01*
X198744936Y-87443693D01*
X199117414Y-87386461D01*
X199129374Y-87385215D01*
X199508644Y-87364258D01*
X199514655Y-87364073D01*
X212570649Y-87278259D01*
X212576750Y-87278368D01*
G37*
%TD.AperFunction*%
%TA.AperFunction,Conductor*%
G36*
X187042374Y-96023439D02*
G01*
X187098955Y-102178111D01*
X187098954Y-102178112D01*
X184580509Y-102192069D01*
X184535027Y-96021494D01*
X187042374Y-96023439D01*
G37*
%TD.AperFunction*%
%TD*%
M02*
