%TF.GenerationSoftware,KiCad,Pcbnew,10.0.3*%
%TF.CreationDate,2026-06-23T15:24:23+01:00*%
%TF.ProjectId,PCB_Test,5043425f-5465-4737-942e-6b696361645f,rev?*%
%TF.SameCoordinates,Original*%
%TF.FileFunction,Profile,NP*%
%FSLAX46Y46*%
G04 Gerber Fmt 4.6, Leading zero omitted, Abs format (unit mm)*
G04 Created by KiCad (PCBNEW 10.0.3) date 2026-06-23 15:24:23*
%MOMM*%
%LPD*%
G01*
G04 APERTURE LIST*
%TA.AperFunction,Profile*%
%ADD10C,0.200000*%
%TD*%
G04 APERTURE END LIST*
D10*
X40400000Y-52000000D02*
G75*
G02*
X33600000Y-52000000I-3400000J0D01*
G01*
X33600000Y-52000000D02*
G75*
G02*
X40400000Y-52000000I3400000J0D01*
G01*
%TA.AperFunction,Profile*%
G36*
X40467754Y-51586365D02*
G01*
X40467754Y-51662903D01*
X40446077Y-51695345D01*
X36695345Y-55446077D01*
X36662903Y-55467754D01*
X36586365Y-55467754D01*
X36532246Y-55413635D01*
X36532246Y-55337097D01*
X36553923Y-55304655D01*
X40304655Y-51553923D01*
X40337097Y-51532246D01*
X40413635Y-51532246D01*
X40467754Y-51586365D01*
G37*
%TD.AperFunction*%
%TA.AperFunction,Profile*%
G36*
X39941243Y-50112877D02*
G01*
X39941243Y-50189414D01*
X39919566Y-50221856D01*
X35221856Y-54919566D01*
X35189414Y-54941243D01*
X35112876Y-54941243D01*
X35058757Y-54887124D01*
X35058757Y-54810586D01*
X35080434Y-54778144D01*
X39778144Y-50080434D01*
X39810586Y-50058757D01*
X39887123Y-50058757D01*
X39941243Y-50112877D01*
G37*
%TD.AperFunction*%
%TA.AperFunction,Profile*%
G36*
X38941243Y-49112877D02*
G01*
X38941243Y-49189414D01*
X38919566Y-49221856D01*
X34221856Y-53919566D01*
X34189414Y-53941243D01*
X34112876Y-53941243D01*
X34058757Y-53887124D01*
X34058757Y-53810586D01*
X34080434Y-53778144D01*
X38778144Y-49080434D01*
X38810586Y-49058757D01*
X38887123Y-49058757D01*
X38941243Y-49112877D01*
G37*
%TD.AperFunction*%
%TA.AperFunction,Profile*%
G36*
X37467754Y-48586365D02*
G01*
X37467754Y-48662903D01*
X37446077Y-48695345D01*
X33695345Y-52446077D01*
X33662903Y-52467754D01*
X33586365Y-52467754D01*
X33532246Y-52413635D01*
X33532246Y-52337097D01*
X33553923Y-52304655D01*
X37304655Y-48553923D01*
X37337097Y-48532246D01*
X37413635Y-48532246D01*
X37467754Y-48586365D01*
G37*
%TD.AperFunction*%
X40400000Y-146000000D02*
G75*
G02*
X33600000Y-146000000I-3400000J0D01*
G01*
X33600000Y-146000000D02*
G75*
G02*
X40400000Y-146000000I3400000J0D01*
G01*
%TA.AperFunction,Profile*%
G36*
X40467754Y-145586365D02*
G01*
X40467754Y-145662903D01*
X40446077Y-145695345D01*
X36695345Y-149446077D01*
X36662903Y-149467754D01*
X36586365Y-149467754D01*
X36532246Y-149413635D01*
X36532246Y-149337097D01*
X36553923Y-149304655D01*
X40304655Y-145553923D01*
X40337097Y-145532246D01*
X40413635Y-145532246D01*
X40467754Y-145586365D01*
G37*
%TD.AperFunction*%
%TA.AperFunction,Profile*%
G36*
X39941243Y-144112877D02*
G01*
X39941243Y-144189414D01*
X39919566Y-144221856D01*
X35221856Y-148919566D01*
X35189414Y-148941243D01*
X35112876Y-148941243D01*
X35058757Y-148887124D01*
X35058757Y-148810586D01*
X35080434Y-148778144D01*
X39778144Y-144080434D01*
X39810586Y-144058757D01*
X39887123Y-144058757D01*
X39941243Y-144112877D01*
G37*
%TD.AperFunction*%
%TA.AperFunction,Profile*%
G36*
X38941243Y-143112877D02*
G01*
X38941243Y-143189414D01*
X38919566Y-143221856D01*
X34221856Y-147919566D01*
X34189414Y-147941243D01*
X34112876Y-147941243D01*
X34058757Y-147887124D01*
X34058757Y-147810586D01*
X34080434Y-147778144D01*
X38778144Y-143080434D01*
X38810586Y-143058757D01*
X38887123Y-143058757D01*
X38941243Y-143112877D01*
G37*
%TD.AperFunction*%
%TA.AperFunction,Profile*%
G36*
X37467754Y-142586365D02*
G01*
X37467754Y-142662903D01*
X37446077Y-142695345D01*
X33695345Y-146446077D01*
X33662903Y-146467754D01*
X33586365Y-146467754D01*
X33532246Y-146413635D01*
X33532246Y-146337097D01*
X33553923Y-146304655D01*
X37304655Y-142553923D01*
X37337097Y-142532246D01*
X37413635Y-142532246D01*
X37467754Y-142586365D01*
G37*
%TD.AperFunction*%
X247400000Y-146000000D02*
G75*
G02*
X240600000Y-146000000I-3400000J0D01*
G01*
X240600000Y-146000000D02*
G75*
G02*
X247400000Y-146000000I3400000J0D01*
G01*
%TA.AperFunction,Profile*%
G36*
X247421342Y-146632777D02*
G01*
X247421342Y-146709314D01*
X247399665Y-146741756D01*
X244741756Y-149399666D01*
X244709314Y-149421343D01*
X244632776Y-149421343D01*
X244578657Y-149367224D01*
X244578657Y-149290686D01*
X244600334Y-149258244D01*
X247258244Y-146600335D01*
X247290686Y-146578658D01*
X247367223Y-146578658D01*
X247421342Y-146632777D01*
G37*
%TD.AperFunction*%
%TA.AperFunction,Profile*%
G36*
X247277287Y-144776832D02*
G01*
X247277287Y-144853369D01*
X247255610Y-144885811D01*
X242885811Y-149255611D01*
X242853369Y-149277288D01*
X242776831Y-149277288D01*
X242722712Y-149223169D01*
X242722712Y-149146631D01*
X242744389Y-149114189D01*
X247114189Y-144744390D01*
X247146631Y-144722713D01*
X247223168Y-144722713D01*
X247277287Y-144776832D01*
G37*
%TD.AperFunction*%
%TA.AperFunction,Profile*%
G36*
X246493655Y-143560464D02*
G01*
X246493655Y-143637001D01*
X246471978Y-143669443D01*
X241669444Y-148471978D01*
X241637002Y-148493655D01*
X241560464Y-148493655D01*
X241506345Y-148439536D01*
X241506345Y-148362998D01*
X241528022Y-148330556D01*
X246330557Y-143528022D01*
X246362999Y-143506345D01*
X246439536Y-143506345D01*
X246493655Y-143560464D01*
G37*
%TD.AperFunction*%
%TA.AperFunction,Profile*%
G36*
X245277287Y-142776832D02*
G01*
X245277287Y-142853369D01*
X245255610Y-142885811D01*
X240885811Y-147255611D01*
X240853369Y-147277288D01*
X240776831Y-147277288D01*
X240722712Y-147223169D01*
X240722712Y-147146631D01*
X240744389Y-147114189D01*
X245114189Y-142744390D01*
X245146631Y-142722713D01*
X245223168Y-142722713D01*
X245277287Y-142776832D01*
G37*
%TD.AperFunction*%
%TA.AperFunction,Profile*%
G36*
X243421342Y-142632777D02*
G01*
X243421342Y-142709314D01*
X243399665Y-142741756D01*
X240741756Y-145399666D01*
X240709314Y-145421343D01*
X240632776Y-145421343D01*
X240578657Y-145367224D01*
X240578657Y-145290686D01*
X240600334Y-145258244D01*
X243258244Y-142600335D01*
X243290686Y-142578658D01*
X243367223Y-142578658D01*
X243421342Y-142632777D01*
G37*
%TD.AperFunction*%
X247400000Y-52000000D02*
G75*
G02*
X240600000Y-52000000I-3400000J0D01*
G01*
X240600000Y-52000000D02*
G75*
G02*
X247400000Y-52000000I3400000J0D01*
G01*
%TA.AperFunction,Profile*%
G36*
X247421342Y-52632777D02*
G01*
X247421342Y-52709314D01*
X247399665Y-52741756D01*
X244741756Y-55399666D01*
X244709314Y-55421343D01*
X244632776Y-55421343D01*
X244578657Y-55367224D01*
X244578657Y-55290686D01*
X244600334Y-55258244D01*
X247258244Y-52600335D01*
X247290686Y-52578658D01*
X247367223Y-52578658D01*
X247421342Y-52632777D01*
G37*
%TD.AperFunction*%
%TA.AperFunction,Profile*%
G36*
X247277287Y-50776832D02*
G01*
X247277287Y-50853369D01*
X247255610Y-50885811D01*
X242885811Y-55255611D01*
X242853369Y-55277288D01*
X242776831Y-55277288D01*
X242722712Y-55223169D01*
X242722712Y-55146631D01*
X242744389Y-55114189D01*
X247114189Y-50744390D01*
X247146631Y-50722713D01*
X247223168Y-50722713D01*
X247277287Y-50776832D01*
G37*
%TD.AperFunction*%
%TA.AperFunction,Profile*%
G36*
X246493655Y-49560464D02*
G01*
X246493655Y-49637001D01*
X246471978Y-49669443D01*
X241669444Y-54471978D01*
X241637002Y-54493655D01*
X241560464Y-54493655D01*
X241506345Y-54439536D01*
X241506345Y-54362998D01*
X241528022Y-54330556D01*
X246330557Y-49528022D01*
X246362999Y-49506345D01*
X246439536Y-49506345D01*
X246493655Y-49560464D01*
G37*
%TD.AperFunction*%
%TA.AperFunction,Profile*%
G36*
X245277287Y-48776832D02*
G01*
X245277287Y-48853369D01*
X245255610Y-48885811D01*
X240885811Y-53255611D01*
X240853369Y-53277288D01*
X240776831Y-53277288D01*
X240722712Y-53223169D01*
X240722712Y-53146631D01*
X240744389Y-53114189D01*
X245114189Y-48744390D01*
X245146631Y-48722713D01*
X245223168Y-48722713D01*
X245277287Y-48776832D01*
G37*
%TD.AperFunction*%
%TA.AperFunction,Profile*%
G36*
X243421342Y-48632777D02*
G01*
X243421342Y-48709314D01*
X243399665Y-48741756D01*
X240741756Y-51399666D01*
X240709314Y-51421343D01*
X240632776Y-51421343D01*
X240578657Y-51367224D01*
X240578657Y-51290686D01*
X240600334Y-51258244D01*
X243258244Y-48600335D01*
X243290686Y-48578658D01*
X243367223Y-48578658D01*
X243421342Y-48632777D01*
G37*
%TD.AperFunction*%
X29769999Y-44825396D02*
X250799999Y-44825396D01*
X250799999Y-154000000D01*
X29769999Y-154000000D01*
X29769999Y-44825396D01*
M02*
