%TF.GenerationSoftware,KiCad,Pcbnew,10.0.3*%
%TF.CreationDate,2026-08-19T08:44:01+01:00*%
%TF.ProjectId,VertiFarm_PCB,56657274-6946-4617-926d-5f5043422e6b,rev?*%
%TF.SameCoordinates,Original*%
%TF.FileFunction,Profile,NP*%
%FSLAX46Y46*%
G04 Gerber Fmt 4.6, Leading zero omitted, Abs format (unit mm)*
G04 Created by KiCad (PCBNEW 10.0.3) date 2026-08-19 08:44:01*
%MOMM*%
%LPD*%
G01*
G04 APERTURE LIST*
%TA.AperFunction,Profile*%
%ADD10C,0.200000*%
%TD*%
G04 APERTURE END LIST*
D10*
X32000000Y-46000000D02*
X242000000Y-46000000D01*
X242000000Y-153000000D01*
X32000000Y-153000000D01*
X32000000Y-46000000D01*
X40400000Y-52000000D02*
G75*
G02*
X33600000Y-52000000I-3400000J0D01*
G01*
X33600000Y-52000000D02*
G75*
G02*
X40400000Y-52000000I3400000J0D01*
G01*
%TA.AperFunction,Profile*%
G36*
X40467754Y-51586365D02*
G01*
X40467754Y-51662903D01*
X40446077Y-51695345D01*
X36695345Y-55446077D01*
X36662903Y-55467754D01*
X36586365Y-55467754D01*
X36532246Y-55413635D01*
X36532246Y-55337097D01*
X36553923Y-55304655D01*
X40304655Y-51553923D01*
X40337097Y-51532246D01*
X40413635Y-51532246D01*
X40467754Y-51586365D01*
G37*
%TD.AperFunction*%
%TA.AperFunction,Profile*%
G36*
X39941243Y-50112877D02*
G01*
X39941243Y-50189414D01*
X39919566Y-50221856D01*
X35221856Y-54919566D01*
X35189414Y-54941243D01*
X35112876Y-54941243D01*
X35058757Y-54887124D01*
X35058757Y-54810586D01*
X35080434Y-54778144D01*
X39778144Y-50080434D01*
X39810586Y-50058757D01*
X39887123Y-50058757D01*
X39941243Y-50112877D01*
G37*
%TD.AperFunction*%
%TA.AperFunction,Profile*%
G36*
X38941243Y-49112877D02*
G01*
X38941243Y-49189414D01*
X38919566Y-49221856D01*
X34221856Y-53919566D01*
X34189414Y-53941243D01*
X34112876Y-53941243D01*
X34058757Y-53887124D01*
X34058757Y-53810586D01*
X34080434Y-53778144D01*
X38778144Y-49080434D01*
X38810586Y-49058757D01*
X38887123Y-49058757D01*
X38941243Y-49112877D01*
G37*
%TD.AperFunction*%
%TA.AperFunction,Profile*%
G36*
X37467754Y-48586365D02*
G01*
X37467754Y-48662903D01*
X37446077Y-48695345D01*
X33695345Y-52446077D01*
X33662903Y-52467754D01*
X33586365Y-52467754D01*
X33532246Y-52413635D01*
X33532246Y-52337097D01*
X33553923Y-52304655D01*
X37304655Y-48553923D01*
X37337097Y-48532246D01*
X37413635Y-48532246D01*
X37467754Y-48586365D01*
G37*
%TD.AperFunction*%
X40400000Y-147000000D02*
G75*
G02*
X33600000Y-147000000I-3400000J0D01*
G01*
X33600000Y-147000000D02*
G75*
G02*
X40400000Y-147000000I3400000J0D01*
G01*
%TA.AperFunction,Profile*%
G36*
X40421342Y-147632777D02*
G01*
X40421342Y-147709314D01*
X40399665Y-147741756D01*
X37741756Y-150399666D01*
X37709314Y-150421343D01*
X37632776Y-150421343D01*
X37578657Y-150367224D01*
X37578657Y-150290686D01*
X37600334Y-150258244D01*
X40258244Y-147600335D01*
X40290686Y-147578658D01*
X40367223Y-147578658D01*
X40421342Y-147632777D01*
G37*
%TD.AperFunction*%
%TA.AperFunction,Profile*%
G36*
X40277287Y-145776832D02*
G01*
X40277287Y-145853369D01*
X40255610Y-145885811D01*
X35885811Y-150255611D01*
X35853369Y-150277288D01*
X35776831Y-150277288D01*
X35722712Y-150223169D01*
X35722712Y-150146631D01*
X35744389Y-150114189D01*
X40114189Y-145744390D01*
X40146631Y-145722713D01*
X40223168Y-145722713D01*
X40277287Y-145776832D01*
G37*
%TD.AperFunction*%
%TA.AperFunction,Profile*%
G36*
X39493655Y-144560464D02*
G01*
X39493655Y-144637001D01*
X39471978Y-144669443D01*
X34669444Y-149471978D01*
X34637002Y-149493655D01*
X34560464Y-149493655D01*
X34506345Y-149439536D01*
X34506345Y-149362998D01*
X34528022Y-149330556D01*
X39330557Y-144528022D01*
X39362999Y-144506345D01*
X39439536Y-144506345D01*
X39493655Y-144560464D01*
G37*
%TD.AperFunction*%
%TA.AperFunction,Profile*%
G36*
X38277287Y-143776832D02*
G01*
X38277287Y-143853369D01*
X38255610Y-143885811D01*
X33885811Y-148255611D01*
X33853369Y-148277288D01*
X33776831Y-148277288D01*
X33722712Y-148223169D01*
X33722712Y-148146631D01*
X33744389Y-148114189D01*
X38114189Y-143744390D01*
X38146631Y-143722713D01*
X38223168Y-143722713D01*
X38277287Y-143776832D01*
G37*
%TD.AperFunction*%
%TA.AperFunction,Profile*%
G36*
X36421342Y-143632777D02*
G01*
X36421342Y-143709314D01*
X36399665Y-143741756D01*
X33741756Y-146399666D01*
X33709314Y-146421343D01*
X33632776Y-146421343D01*
X33578657Y-146367224D01*
X33578657Y-146290686D01*
X33600334Y-146258244D01*
X36258244Y-143600335D01*
X36290686Y-143578658D01*
X36367223Y-143578658D01*
X36421342Y-143632777D01*
G37*
%TD.AperFunction*%
X240400000Y-52000000D02*
G75*
G02*
X233600000Y-52000000I-3400000J0D01*
G01*
X233600000Y-52000000D02*
G75*
G02*
X240400000Y-52000000I3400000J0D01*
G01*
%TA.AperFunction,Profile*%
G36*
X240467754Y-51586365D02*
G01*
X240467754Y-51662903D01*
X240446077Y-51695345D01*
X236695345Y-55446077D01*
X236662903Y-55467754D01*
X236586365Y-55467754D01*
X236532246Y-55413635D01*
X236532246Y-55337097D01*
X236553923Y-55304655D01*
X240304655Y-51553923D01*
X240337097Y-51532246D01*
X240413635Y-51532246D01*
X240467754Y-51586365D01*
G37*
%TD.AperFunction*%
%TA.AperFunction,Profile*%
G36*
X239941243Y-50112877D02*
G01*
X239941243Y-50189414D01*
X239919566Y-50221856D01*
X235221856Y-54919566D01*
X235189414Y-54941243D01*
X235112876Y-54941243D01*
X235058757Y-54887124D01*
X235058757Y-54810586D01*
X235080434Y-54778144D01*
X239778144Y-50080434D01*
X239810586Y-50058757D01*
X239887123Y-50058757D01*
X239941243Y-50112877D01*
G37*
%TD.AperFunction*%
%TA.AperFunction,Profile*%
G36*
X238941243Y-49112877D02*
G01*
X238941243Y-49189414D01*
X238919566Y-49221856D01*
X234221856Y-53919566D01*
X234189414Y-53941243D01*
X234112876Y-53941243D01*
X234058757Y-53887124D01*
X234058757Y-53810586D01*
X234080434Y-53778144D01*
X238778144Y-49080434D01*
X238810586Y-49058757D01*
X238887123Y-49058757D01*
X238941243Y-49112877D01*
G37*
%TD.AperFunction*%
%TA.AperFunction,Profile*%
G36*
X237467754Y-48586365D02*
G01*
X237467754Y-48662903D01*
X237446077Y-48695345D01*
X233695345Y-52446077D01*
X233662903Y-52467754D01*
X233586365Y-52467754D01*
X233532246Y-52413635D01*
X233532246Y-52337097D01*
X233553923Y-52304655D01*
X237304655Y-48553923D01*
X237337097Y-48532246D01*
X237413635Y-48532246D01*
X237467754Y-48586365D01*
G37*
%TD.AperFunction*%
X240400000Y-147000000D02*
G75*
G02*
X233600000Y-147000000I-3400000J0D01*
G01*
X233600000Y-147000000D02*
G75*
G02*
X240400000Y-147000000I3400000J0D01*
G01*
%TA.AperFunction,Profile*%
G36*
X240421342Y-147632777D02*
G01*
X240421342Y-147709314D01*
X240399665Y-147741756D01*
X237741756Y-150399666D01*
X237709314Y-150421343D01*
X237632776Y-150421343D01*
X237578657Y-150367224D01*
X237578657Y-150290686D01*
X237600334Y-150258244D01*
X240258244Y-147600335D01*
X240290686Y-147578658D01*
X240367223Y-147578658D01*
X240421342Y-147632777D01*
G37*
%TD.AperFunction*%
%TA.AperFunction,Profile*%
G36*
X240277287Y-145776832D02*
G01*
X240277287Y-145853369D01*
X240255610Y-145885811D01*
X235885811Y-150255611D01*
X235853369Y-150277288D01*
X235776831Y-150277288D01*
X235722712Y-150223169D01*
X235722712Y-150146631D01*
X235744389Y-150114189D01*
X240114189Y-145744390D01*
X240146631Y-145722713D01*
X240223168Y-145722713D01*
X240277287Y-145776832D01*
G37*
%TD.AperFunction*%
%TA.AperFunction,Profile*%
G36*
X239493655Y-144560464D02*
G01*
X239493655Y-144637001D01*
X239471978Y-144669443D01*
X234669444Y-149471978D01*
X234637002Y-149493655D01*
X234560464Y-149493655D01*
X234506345Y-149439536D01*
X234506345Y-149362998D01*
X234528022Y-149330556D01*
X239330557Y-144528022D01*
X239362999Y-144506345D01*
X239439536Y-144506345D01*
X239493655Y-144560464D01*
G37*
%TD.AperFunction*%
%TA.AperFunction,Profile*%
G36*
X238277287Y-143776832D02*
G01*
X238277287Y-143853369D01*
X238255610Y-143885811D01*
X233885811Y-148255611D01*
X233853369Y-148277288D01*
X233776831Y-148277288D01*
X233722712Y-148223169D01*
X233722712Y-148146631D01*
X233744389Y-148114189D01*
X238114189Y-143744390D01*
X238146631Y-143722713D01*
X238223168Y-143722713D01*
X238277287Y-143776832D01*
G37*
%TD.AperFunction*%
%TA.AperFunction,Profile*%
G36*
X236421342Y-143632777D02*
G01*
X236421342Y-143709314D01*
X236399665Y-143741756D01*
X233741756Y-146399666D01*
X233709314Y-146421343D01*
X233632776Y-146421343D01*
X233578657Y-146367224D01*
X233578657Y-146290686D01*
X233600334Y-146258244D01*
X236258244Y-143600335D01*
X236290686Y-143578658D01*
X236367223Y-143578658D01*
X236421342Y-143632777D01*
G37*
%TD.AperFunction*%
M02*
