%TF.GenerationSoftware,KiCad,Pcbnew,10.0.3*%
%TF.CreationDate,2026-08-19T08:44:01+01:00*%
%TF.ProjectId,VertiFarm_PCB,56657274-6946-4617-926d-5f5043422e6b,rev?*%
%TF.SameCoordinates,Original*%
%TF.FileFunction,Soldermask,Bot*%
%TF.FilePolarity,Negative*%
%FSLAX46Y46*%
G04 Gerber Fmt 4.6, Leading zero omitted, Abs format (unit mm)*
G04 Created by KiCad (PCBNEW 10.0.3) date 2026-08-19 08:44:01*
%MOMM*%
%LPD*%
G01*
G04 APERTURE LIST*
G04 Aperture macros list*
%AMRoundRect*
0 Rectangle with rounded corners*
0 $1 Rounding radius*
0 $2 $3 $4 $5 $6 $7 $8 $9 X,Y pos of 4 corners*
0 Add a 4 corners polygon primitive as box body*
4,1,4,$2,$3,$4,$5,$6,$7,$8,$9,$2,$3,0*
0 Add four circle primitives for the rounded corners*
1,1,$1+$1,$2,$3*
1,1,$1+$1,$4,$5*
1,1,$1+$1,$6,$7*
1,1,$1+$1,$8,$9*
0 Add four rect primitives between the rounded corners*
20,1,$1+$1,$2,$3,$4,$5,0*
20,1,$1+$1,$4,$5,$6,$7,0*
20,1,$1+$1,$6,$7,$8,$9,0*
20,1,$1+$1,$8,$9,$2,$3,0*%
G04 Aperture macros list end*
%ADD10C,1.600000*%
%ADD11R,1.700000X1.700000*%
%ADD12C,1.700000*%
%ADD13C,3.050000*%
%ADD14C,2.775000*%
%ADD15C,3.000000*%
%ADD16R,1.100000X1.100000*%
%ADD17C,1.100000*%
%ADD18C,1.520000*%
%ADD19RoundRect,0.102000X-0.754000X-0.754000X0.754000X-0.754000X0.754000X0.754000X-0.754000X0.754000X0*%
%ADD20C,1.712000*%
%ADD21RoundRect,0.250000X0.750000X-0.600000X0.750000X0.600000X-0.750000X0.600000X-0.750000X-0.600000X0*%
%ADD22O,2.000000X1.700000*%
%ADD23RoundRect,0.250000X-0.620000X-0.845000X0.620000X-0.845000X0.620000X0.845000X-0.620000X0.845000X0*%
%ADD24O,1.740000X2.190000*%
%ADD25RoundRect,0.250000X-0.600000X-0.725000X0.600000X-0.725000X0.600000X0.725000X-0.600000X0.725000X0*%
%ADD26O,1.700000X1.950000*%
%ADD27RoundRect,0.102000X-0.669000X-0.669000X0.669000X-0.669000X0.669000X0.669000X-0.669000X0.669000X0*%
%ADD28C,1.542000*%
%ADD29R,2.000000X1.905000*%
%ADD30O,2.000000X1.905000*%
%ADD31RoundRect,0.250001X-1.149999X1.149999X-1.149999X-1.149999X1.149999X-1.149999X1.149999X1.149999X0*%
%ADD32C,2.800000*%
%ADD33RoundRect,0.250000X-1.050000X-1.050000X1.050000X-1.050000X1.050000X1.050000X-1.050000X1.050000X0*%
%ADD34C,2.600000*%
%ADD35R,1.524000X1.524000*%
%ADD36C,1.524000*%
%ADD37RoundRect,0.250000X0.750000X-0.750000X0.750000X0.750000X-0.750000X0.750000X-0.750000X-0.750000X0*%
%ADD38C,2.000000*%
%ADD39O,4.000000X2.000000*%
%ADD40RoundRect,0.102000X-0.704000X-0.704000X0.704000X-0.704000X0.704000X0.704000X-0.704000X0.704000X0*%
%ADD41C,1.612000*%
%ADD42O,3.500000X1.000000*%
%ADD43O,7.000000X2.000000*%
%ADD44RoundRect,0.250000X0.750000X0.750000X-0.750000X0.750000X-0.750000X-0.750000X0.750000X-0.750000X0*%
G04 APERTURE END LIST*
D10*
%TO.C,C8*%
X204000000Y-61700000D03*
X204000000Y-56700000D03*
%TD*%
D11*
%TO.C,J33*%
X131500000Y-49360000D03*
D12*
X131500000Y-51900000D03*
X131500000Y-54440000D03*
X131500000Y-56980000D03*
X131500000Y-59520000D03*
X131500000Y-62060000D03*
%TD*%
D13*
%TO.C,J8*%
X223700000Y-54700000D03*
X211100000Y-54700000D03*
D14*
X211100000Y-62000000D03*
X215300000Y-62000000D03*
X219500000Y-62000000D03*
X223700000Y-62000000D03*
%TD*%
D15*
%TO.C,J7*%
X234950000Y-104550000D03*
X234950000Y-93850000D03*
D16*
X232300000Y-96200000D03*
D17*
X232300000Y-98200000D03*
X232300000Y-100200000D03*
X232300000Y-102200000D03*
D18*
X230630000Y-91700000D03*
X230630000Y-94700000D03*
X230630000Y-97700000D03*
X230630000Y-100700000D03*
X230630000Y-103700000D03*
X230630000Y-106700000D03*
X227630000Y-91700000D03*
X227630000Y-94700000D03*
X227630000Y-97700000D03*
X227630000Y-100700000D03*
X227630000Y-103700000D03*
X227630000Y-106700000D03*
%TD*%
D10*
%TO.C,R7*%
X74050000Y-75660000D03*
X84210000Y-75660000D03*
%TD*%
D19*
%TO.C,J36*%
X167150000Y-147325000D03*
D20*
X164650000Y-147325000D03*
X162150000Y-147325000D03*
X159650000Y-147325000D03*
%TD*%
D10*
%TO.C,R12*%
X177450000Y-129500000D03*
X177450000Y-139660000D03*
%TD*%
D11*
%TO.C,J34*%
X144200000Y-49360000D03*
D12*
X144200000Y-51900000D03*
X144200000Y-54440000D03*
X144200000Y-56980000D03*
X144200000Y-59520000D03*
X144200000Y-62060000D03*
%TD*%
D21*
%TO.C,J5*%
X138335000Y-73470000D03*
D22*
X138335000Y-70970000D03*
%TD*%
D23*
%TO.C,J6*%
X217200000Y-146800000D03*
D24*
X219740000Y-146800000D03*
X222280000Y-146800000D03*
X224820000Y-146800000D03*
%TD*%
D25*
%TO.C,J22*%
X48400000Y-146300000D03*
D26*
X50900000Y-146300000D03*
X53400000Y-146300000D03*
%TD*%
D10*
%TO.C,R21*%
X84950000Y-140500000D03*
X84950000Y-130340000D03*
%TD*%
%TO.C,R5*%
X64450000Y-73630000D03*
X64450000Y-83790000D03*
%TD*%
D25*
%TO.C,J26*%
X109000000Y-146200000D03*
D26*
X111500000Y-146200000D03*
X114000000Y-146200000D03*
%TD*%
D27*
%TO.C,U3*%
X217010000Y-130000000D03*
D28*
X217010000Y-132540000D03*
X217010000Y-135080000D03*
X217010000Y-137620000D03*
X224950000Y-137620000D03*
X224950000Y-135080000D03*
X224950000Y-132540000D03*
X224950000Y-130000000D03*
%TD*%
D10*
%TO.C,R10*%
X73950000Y-89660000D03*
X84110000Y-89660000D03*
%TD*%
D29*
%TO.C,Q3*%
X166800000Y-133500000D03*
D30*
X166800000Y-136040000D03*
X166800000Y-138580000D03*
%TD*%
D25*
%TO.C,J23*%
X62600000Y-146300000D03*
D26*
X65100000Y-146300000D03*
X67600000Y-146300000D03*
%TD*%
D25*
%TO.C,J27*%
X125500000Y-146100000D03*
D26*
X128000000Y-146100000D03*
X130500000Y-146100000D03*
%TD*%
D25*
%TO.C,J13*%
X113200000Y-51800000D03*
D26*
X115700000Y-51800000D03*
X118200000Y-51800000D03*
X120700000Y-51800000D03*
%TD*%
D10*
%TO.C,R13*%
X206950000Y-139660000D03*
X206950000Y-129500000D03*
%TD*%
%TO.C,R3*%
X71160000Y-58740000D03*
X71160000Y-68900000D03*
%TD*%
%TO.C,C3*%
X195450000Y-122080000D03*
X190450000Y-122080000D03*
%TD*%
%TO.C,R24*%
X162010000Y-71230000D03*
X151850000Y-71230000D03*
%TD*%
D31*
%TO.C,J11*%
X233900000Y-114940000D03*
D32*
X233900000Y-119940000D03*
%TD*%
D33*
%TO.C,D1*%
X183860000Y-92700000D03*
D34*
X199100000Y-92700000D03*
%TD*%
D35*
%TO.C,J19*%
X62000000Y-51400000D03*
D36*
X64000000Y-51400000D03*
X66000000Y-51400000D03*
X68000000Y-51400000D03*
%TD*%
D25*
%TO.C,J25*%
X93400000Y-146300000D03*
D26*
X95900000Y-146300000D03*
X98400000Y-146300000D03*
%TD*%
D35*
%TO.C,J15*%
X95900000Y-51400000D03*
D36*
X97900000Y-51400000D03*
X99900000Y-51400000D03*
X101900000Y-51400000D03*
%TD*%
D10*
%TO.C,R6*%
X60970000Y-81220000D03*
X60970000Y-91380000D03*
%TD*%
D29*
%TO.C,Q2*%
X156900000Y-133600000D03*
D30*
X156900000Y-136140000D03*
X156900000Y-138680000D03*
%TD*%
D37*
%TO.C,C7*%
X236000000Y-75700000D03*
D38*
X236000000Y-70700000D03*
%TD*%
D10*
%TO.C,R1*%
X55950000Y-140500000D03*
X55950000Y-130340000D03*
%TD*%
D25*
%TO.C,J17*%
X78500000Y-51500000D03*
D26*
X81000000Y-51500000D03*
X83500000Y-51500000D03*
X86000000Y-51500000D03*
%TD*%
D10*
%TO.C,R19*%
X157900000Y-128900000D03*
X157900000Y-118740000D03*
%TD*%
%TO.C,R9*%
X73950000Y-85330000D03*
X84110000Y-85330000D03*
%TD*%
%TO.C,R2*%
X60000000Y-140500000D03*
X60000000Y-130340000D03*
%TD*%
D23*
%TO.C,J4*%
X204300000Y-146700000D03*
D24*
X206840000Y-146700000D03*
X209380000Y-146700000D03*
X211920000Y-146700000D03*
%TD*%
D27*
%TO.C,U2*%
X188950000Y-130500000D03*
D28*
X188950000Y-133040000D03*
X188950000Y-135580000D03*
X188950000Y-138120000D03*
X196890000Y-138120000D03*
X196890000Y-135580000D03*
X196890000Y-133040000D03*
X196890000Y-130500000D03*
%TD*%
D10*
%TO.C,C10*%
X168800000Y-98400000D03*
X163800000Y-98400000D03*
%TD*%
D39*
%TO.C,F1*%
X218987393Y-114968566D03*
X223987393Y-114968566D03*
%TD*%
D10*
%TO.C,R23*%
X147820000Y-81450000D03*
X147820000Y-71290000D03*
%TD*%
%TO.C,R18*%
X174700000Y-105400000D03*
X174700000Y-115560000D03*
%TD*%
%TO.C,C9*%
X148800000Y-98700000D03*
X143800000Y-98700000D03*
%TD*%
D11*
%TO.C,J10*%
X43260000Y-67980000D03*
D12*
X45800000Y-67980000D03*
X43260000Y-70520000D03*
X45800000Y-70520000D03*
X43260000Y-73060000D03*
X45800000Y-73060000D03*
X43260000Y-75600000D03*
X45800000Y-75600000D03*
X43260000Y-78140000D03*
X45800000Y-78140000D03*
X43260000Y-80680000D03*
X45800000Y-80680000D03*
X43260000Y-83220000D03*
X45800000Y-83220000D03*
X43260000Y-85760000D03*
X45800000Y-85760000D03*
X43260000Y-88300000D03*
X45800000Y-88300000D03*
X43260000Y-90840000D03*
X45800000Y-90840000D03*
X43260000Y-93380000D03*
X45800000Y-93380000D03*
X43260000Y-95920000D03*
X45800000Y-95920000D03*
X43260000Y-98460000D03*
X45800000Y-98460000D03*
X43260000Y-101000000D03*
X45800000Y-101000000D03*
X43260000Y-103540000D03*
X45800000Y-103540000D03*
X43260000Y-106080000D03*
X45800000Y-106080000D03*
X43260000Y-108620000D03*
X45800000Y-108620000D03*
X43260000Y-111160000D03*
X45800000Y-111160000D03*
X43260000Y-113700000D03*
X45800000Y-113700000D03*
X43260000Y-116240000D03*
X45800000Y-116240000D03*
%TD*%
D27*
%TO.C,U5*%
X162730000Y-107190000D03*
D28*
X162730000Y-109730000D03*
X162730000Y-112270000D03*
X162730000Y-114810000D03*
X170670000Y-114810000D03*
X170670000Y-112270000D03*
X170670000Y-109730000D03*
X170670000Y-107190000D03*
%TD*%
D10*
%TO.C,C5*%
X205700000Y-100200000D03*
X205700000Y-105200000D03*
%TD*%
D25*
%TO.C,J24*%
X78100000Y-146200000D03*
D26*
X80600000Y-146200000D03*
X83100000Y-146200000D03*
%TD*%
D10*
%TO.C,R8*%
X74020000Y-80510000D03*
X84180000Y-80510000D03*
%TD*%
D11*
%TO.C,J1*%
X44220000Y-52110000D03*
D12*
X46760000Y-52110000D03*
X49300000Y-52110000D03*
X51840000Y-52110000D03*
X54380000Y-52110000D03*
%TD*%
D10*
%TO.C,C4*%
X223450000Y-122080000D03*
X218450000Y-122080000D03*
%TD*%
%TO.C,R14*%
X211000000Y-139660000D03*
X211000000Y-129500000D03*
%TD*%
%TO.C,R22*%
X89000000Y-140500000D03*
X89000000Y-130340000D03*
%TD*%
D25*
%TO.C,J9*%
X152500000Y-51000000D03*
D26*
X155000000Y-51000000D03*
X157500000Y-51000000D03*
X160000000Y-51000000D03*
%TD*%
D27*
%TO.C,U4*%
X142730000Y-107090000D03*
D28*
X142730000Y-109630000D03*
X142730000Y-112170000D03*
X142730000Y-114710000D03*
X150670000Y-114710000D03*
X150670000Y-112170000D03*
X150670000Y-109630000D03*
X150670000Y-107090000D03*
%TD*%
D19*
%TO.C,J35*%
X152950000Y-147425000D03*
D20*
X150450000Y-147425000D03*
X147950000Y-147425000D03*
X145450000Y-147425000D03*
%TD*%
D35*
%TO.C,J18*%
X170000000Y-51000000D03*
D36*
X172000000Y-51000000D03*
X174000000Y-51000000D03*
X176000000Y-51000000D03*
%TD*%
D10*
%TO.C,R17*%
X147000000Y-128900000D03*
X147000000Y-118740000D03*
%TD*%
D40*
%TO.C,U1*%
X95100000Y-72265000D03*
D41*
X95100000Y-74805000D03*
X95100000Y-77345000D03*
X95100000Y-79885000D03*
X95100000Y-82425000D03*
X95100000Y-84965000D03*
X95100000Y-87505000D03*
X95100000Y-90045000D03*
X95100000Y-92585000D03*
X95100000Y-95125000D03*
X95100000Y-97665000D03*
X95100000Y-100205000D03*
X95100000Y-102745000D03*
X95100000Y-105285000D03*
X95100000Y-107825000D03*
X95100000Y-110365000D03*
X95100000Y-112905000D03*
X95100000Y-115445000D03*
X95100000Y-117985000D03*
X120500000Y-72265000D03*
X120500000Y-74805000D03*
X120500000Y-77345000D03*
X120500000Y-79885000D03*
X120500000Y-82425000D03*
X120500000Y-84965000D03*
X120500000Y-87505000D03*
X120500000Y-90045000D03*
X120500000Y-92585000D03*
X120500000Y-95125000D03*
X120500000Y-97665000D03*
X120500000Y-100205000D03*
X120500000Y-102745000D03*
X120500000Y-105285000D03*
X120500000Y-107825000D03*
X120500000Y-110365000D03*
X120500000Y-112905000D03*
X120500000Y-115445000D03*
X120500000Y-117985000D03*
%TD*%
D10*
%TO.C,R16*%
X131000000Y-106000000D03*
X131000000Y-116160000D03*
%TD*%
%TO.C,R25*%
X193630000Y-70710000D03*
X183470000Y-70710000D03*
%TD*%
%TO.C,R20*%
X166800000Y-129000000D03*
X166800000Y-118840000D03*
%TD*%
D23*
%TO.C,J3*%
X189300000Y-146600000D03*
D24*
X191840000Y-146600000D03*
X194380000Y-146600000D03*
X196920000Y-146600000D03*
%TD*%
D10*
%TO.C,R11*%
X181500000Y-129500000D03*
X181500000Y-139660000D03*
%TD*%
%TO.C,R15*%
X136100000Y-106000000D03*
X136100000Y-116160000D03*
%TD*%
D42*
%TO.C,F4*%
X223675812Y-72773103D03*
X214375812Y-72773103D03*
%TD*%
D43*
%TO.C,F3*%
X208570000Y-92900000D03*
X217870000Y-92900000D03*
%TD*%
D10*
%TO.C,R4*%
X67840000Y-66130000D03*
X67840000Y-76290000D03*
%TD*%
D23*
%TO.C,J2*%
X177000000Y-146600000D03*
D24*
X179540000Y-146600000D03*
X182080000Y-146600000D03*
X184620000Y-146600000D03*
%TD*%
D10*
%TO.C,R26*%
X178960000Y-80490000D03*
X178960000Y-70330000D03*
%TD*%
D21*
%TO.C,J20*%
X168070000Y-73910000D03*
D22*
X168070000Y-71410000D03*
%TD*%
D29*
%TO.C,Q1*%
X147000000Y-133500000D03*
D30*
X147000000Y-136040000D03*
X147000000Y-138580000D03*
%TD*%
D44*
%TO.C,C6*%
X199700000Y-103300000D03*
D38*
X194700000Y-103300000D03*
%TD*%
D10*
%TO.C,R27*%
X233900000Y-126040000D03*
X233900000Y-136200000D03*
%TD*%
D11*
%TO.C,J21*%
X58250000Y-99640000D03*
D12*
X58250000Y-102180000D03*
X58250000Y-104720000D03*
X58250000Y-107260000D03*
X58250000Y-109800000D03*
X58250000Y-112340000D03*
X58250000Y-114880000D03*
X58250000Y-117420000D03*
X58250000Y-119960000D03*
X58250000Y-122500000D03*
%TD*%
M02*
