M48
; DRILL file KiCad 10.0.3 date 2026-08-19T09:52:08
; FORMAT={-:-/ absolute / metric / decimal}
; #@! TF.CreationDate,2026-08-19T09:52:08+01:00
; #@! TF.GenerationSoftware,Kicad,Pcbnew,10.0.3
; #@! TF.FileFunction,Plated,1,4,PTH
FMAT,2
METRIC
; #@! TA.AperFunction,Plated,PTH,ViaDrill
T1C0.300
; #@! TA.AperFunction,Plated,PTH,ComponentDrill
T2C0.460
; #@! TA.AperFunction,Plated,PTH,ComponentDrill
T3C0.600
; #@! TA.AperFunction,Plated,PTH,ComponentDrill
T4C0.700
; #@! TA.AperFunction,Plated,PTH,ComponentDrill
T5C0.762
; #@! TA.AperFunction,Plated,PTH,ComponentDrill
T6C0.800
; #@! TA.AperFunction,Plated,PTH,ComponentDrill
T7C0.830
; #@! TA.AperFunction,Plated,PTH,ComponentDrill
T8C0.900
; #@! TA.AperFunction,Plated,PTH,ComponentDrill
T9C0.950
; #@! TA.AperFunction,Plated,PTH,ComponentDrill
T10C1.000
; #@! TA.AperFunction,Plated,PTH,ComponentDrill
T11C1.020
; #@! TA.AperFunction,Plated,PTH,ComponentDrill
T12C1.100
; #@! TA.AperFunction,Plated,PTH,ComponentDrill
T13C1.190
; #@! TA.AperFunction,Plated,PTH,ComponentDrill
T14C1.300
; #@! TA.AperFunction,Plated,PTH,ComponentDrill
T15C1.850
%
G90
G05
T1
X33.8Y-104.4
X33.8Y-112.4
X34.9Y-94.6
X37.8Y-119.2
X38.3Y-107.1
X39.6Y-104.6
X40.4Y-108.6
X41.4Y-118.9
X43.0Y-56.0
X43.5Y-119.5
X45.2Y-124.6
X49.43Y-107.53
X50.5Y-116.7
X50.8Y-80.1
X50.8Y-91.3
X51.6Y-64.8
X52.7Y-116.3
X53.5Y-97.8
X54.4Y-84.4
X54.4Y-92.4
X60.069Y-56.7
X62.0Y-109.8
X65.8Y-127.9
X69.4Y-135.6
X70.0Y-106.0
X71.98Y-106.7
X72.09Y-137.26
X73.04Y-126.48
X77.62Y-113.7
X87.05Y-92.05
X89.4Y-92.0
X94.7Y-63.4
X96.8Y-63.4
X100.55Y-59.65
X111.39Y-58.6
X118.3Y-123.7
X120.7Y-121.3
X152.95Y-128.55
X153.5Y-124.8
X179.14Y-127.84
X207.0Y-141.25
X208.31Y-142.66
T3
X232.3Y-96.2
X232.3Y-98.2
X232.3Y-100.2
X232.3Y-102.2
T5
X62.0Y-51.4
X64.0Y-51.4
X66.0Y-51.4
X68.0Y-51.4
X95.9Y-51.4
X97.9Y-51.4
X99.9Y-51.4
X101.9Y-51.4
X170.0Y-51.0
X172.0Y-51.0
X174.0Y-51.0
X176.0Y-51.0
T6
X55.95Y-130.34
X55.95Y-140.5
X60.0Y-130.34
X60.0Y-140.5
X60.97Y-81.22
X60.97Y-91.38
X64.45Y-73.63
X64.45Y-83.79
X67.84Y-66.13
X67.84Y-76.29
X71.16Y-58.74
X71.16Y-68.9
X73.95Y-85.33
X73.95Y-89.66
X74.02Y-80.51
X74.05Y-75.66
X84.11Y-85.33
X84.11Y-89.66
X84.18Y-80.51
X84.21Y-75.66
X84.95Y-130.34
X84.95Y-140.5
X89.0Y-130.34
X89.0Y-140.5
X131.0Y-106.0
X131.0Y-116.16
X136.1Y-106.0
X136.1Y-116.16
X143.8Y-98.7
X147.0Y-118.74
X147.0Y-128.9
X147.82Y-71.29
X147.82Y-81.45
X148.8Y-98.7
X151.85Y-71.23
X157.9Y-118.74
X157.9Y-128.9
X162.01Y-71.23
X163.8Y-98.4
X166.8Y-118.84
X166.8Y-129.0
X168.8Y-98.4
X174.7Y-105.4
X174.7Y-115.56
X177.45Y-129.5
X177.45Y-139.66
X178.96Y-70.33
X178.96Y-80.49
X181.5Y-129.5
X181.5Y-139.66
X183.47Y-70.71
X190.45Y-122.08
X193.63Y-70.71
X195.45Y-122.08
X204.0Y-56.7
X204.0Y-61.7
X205.7Y-100.2
X205.7Y-105.2
X206.95Y-129.5
X206.95Y-139.66
X211.0Y-129.5
X211.0Y-139.66
X218.45Y-122.08
X223.45Y-122.08
X233.9Y-126.04
X233.9Y-136.2
T7
X142.73Y-107.09
X142.73Y-109.63
X142.73Y-112.17
X142.73Y-114.71
X150.67Y-107.09
X150.67Y-109.63
X150.67Y-112.17
X150.67Y-114.71
X162.73Y-107.19
X162.73Y-109.73
X162.73Y-112.27
X162.73Y-114.81
X170.67Y-107.19
X170.67Y-109.73
X170.67Y-112.27
X170.67Y-114.81
X188.95Y-130.5
X188.95Y-133.04
X188.95Y-135.58
X188.95Y-138.12
X196.89Y-130.5
X196.89Y-133.04
X196.89Y-135.58
X196.89Y-138.12
X217.01Y-130.0
X217.01Y-132.54
X217.01Y-135.08
X217.01Y-137.62
X224.95Y-130.0
X224.95Y-132.54
X224.95Y-135.08
X224.95Y-137.62
T8
X95.1Y-72.265
X95.1Y-74.805
X95.1Y-77.345
X95.1Y-79.885
X95.1Y-82.425
X95.1Y-84.965
X95.1Y-87.505
X95.1Y-90.045
X95.1Y-92.585
X95.1Y-95.125
X95.1Y-97.665
X95.1Y-100.205
X95.1Y-102.745
X95.1Y-105.285
X95.1Y-107.825
X95.1Y-110.365
X95.1Y-112.905
X95.1Y-115.445
X95.1Y-117.985
X120.5Y-72.265
X120.5Y-74.805
X120.5Y-77.345
X120.5Y-79.885
X120.5Y-82.425
X120.5Y-84.965
X120.5Y-87.505
X120.5Y-90.045
X120.5Y-92.585
X120.5Y-95.125
X120.5Y-97.665
X120.5Y-100.205
X120.5Y-102.745
X120.5Y-105.285
X120.5Y-107.825
X120.5Y-110.365
X120.5Y-112.905
X120.5Y-115.445
X120.5Y-117.985
T9
X48.4Y-146.3
X50.9Y-146.3
X53.4Y-146.3
X62.6Y-146.3
X65.1Y-146.3
X67.6Y-146.3
X78.1Y-146.2
X78.5Y-51.5
X80.6Y-146.2
X81.0Y-51.5
X83.1Y-146.2
X83.5Y-51.5
X86.0Y-51.5
X93.4Y-146.3
X95.9Y-146.3
X98.4Y-146.3
X109.0Y-146.2
X111.5Y-146.2
X113.2Y-51.8
X114.0Y-146.2
X115.7Y-51.8
X118.2Y-51.8
X120.7Y-51.8
X125.5Y-146.1
X128.0Y-146.1
X130.5Y-146.1
X152.5Y-51.0
X155.0Y-51.0
X157.5Y-51.0
X160.0Y-51.0
T10
X43.26Y-67.98
X43.26Y-70.52
X43.26Y-73.06
X43.26Y-75.6
X43.26Y-78.14
X43.26Y-80.68
X43.26Y-83.22
X43.26Y-85.76
X43.26Y-88.3
X43.26Y-90.84
X43.26Y-93.38
X43.26Y-95.92
X43.26Y-98.46
X43.26Y-101.0
X43.26Y-103.54
X43.26Y-106.08
X43.26Y-108.62
X43.26Y-111.16
X43.26Y-113.7
X43.26Y-116.24
X44.22Y-52.11
X45.8Y-67.98
X45.8Y-70.52
X45.8Y-73.06
X45.8Y-75.6
X45.8Y-78.14
X45.8Y-80.68
X45.8Y-83.22
X45.8Y-85.76
X45.8Y-88.3
X45.8Y-90.84
X45.8Y-93.38
X45.8Y-95.92
X45.8Y-98.46
X45.8Y-101.0
X45.8Y-103.54
X45.8Y-106.08
X45.8Y-108.62
X45.8Y-111.16
X45.8Y-113.7
X45.8Y-116.24
X46.76Y-52.11
X49.3Y-52.11
X51.84Y-52.11
X54.38Y-52.11
X58.25Y-99.64
X58.25Y-102.18
X58.25Y-104.72
X58.25Y-107.26
X58.25Y-109.8
X58.25Y-112.34
X58.25Y-114.88
X58.25Y-117.42
X58.25Y-119.96
X58.25Y-122.5
X131.5Y-49.36
X131.5Y-51.9
X131.5Y-54.44
X131.5Y-56.98
X131.5Y-59.52
X131.5Y-62.06
X138.335Y-70.97
X138.335Y-73.47
X144.2Y-49.36
X144.2Y-51.9
X144.2Y-54.44
X144.2Y-56.98
X144.2Y-59.52
X144.2Y-62.06
X145.45Y-147.425
X147.95Y-147.425
X150.45Y-147.425
X152.95Y-147.425
X159.65Y-147.325
X162.15Y-147.325
X164.65Y-147.325
X167.15Y-147.325
X168.07Y-71.41
X168.07Y-73.91
X194.7Y-103.3
X199.7Y-103.3
X236.0Y-70.7
X236.0Y-75.7
T11
X227.63Y-91.7
X227.63Y-94.7
X227.63Y-97.7
X227.63Y-100.7
X227.63Y-103.7
X227.63Y-106.7
X230.63Y-91.7
X230.63Y-94.7
X230.63Y-97.7
X230.63Y-100.7
X230.63Y-103.7
X230.63Y-106.7
T12
X147.0Y-133.5
X147.0Y-136.04
X147.0Y-138.58
X156.9Y-133.6
X156.9Y-136.14
X156.9Y-138.68
X166.8Y-133.5
X166.8Y-136.04
X166.8Y-138.58
T13
X177.0Y-146.6
X179.54Y-146.6
X182.08Y-146.6
X184.62Y-146.6
X189.3Y-146.6
X191.84Y-146.6
X194.38Y-146.6
X196.92Y-146.6
X204.3Y-146.7
X206.84Y-146.7
X209.38Y-146.7
X211.92Y-146.7
X217.2Y-146.8
X219.74Y-146.8
X222.28Y-146.8
X224.82Y-146.8
T14
X183.86Y-92.7
X199.1Y-92.7
X233.9Y-114.94
X233.9Y-119.94
T15
X211.1Y-62.0
X215.3Y-62.0
X219.5Y-62.0
X223.7Y-62.0
T2
G00X215.546Y-72.773
M15
G01X213.206Y-72.773
M16
G05
G00X224.846Y-72.773
M15
G01X222.506Y-72.773
M16
G05
T4
G00X206.32Y-92.9
M15
G01X210.82Y-92.9
M16
G05
T6
G00X215.67Y-92.9
M15
G01X220.07Y-92.9
M16
G05
G00X217.987Y-114.969
M15
G01X219.987Y-114.969
M16
G05
G00X222.987Y-114.969
M15
G01X224.987Y-114.969
M16
G05
M30
