%TF.GenerationSoftware,KiCad,Pcbnew,10.0.3*%
%TF.CreationDate,2026-08-19T09:52:12+01:00*%
%TF.ProjectId,VertiFarm_PCB,56657274-6946-4617-926d-5f5043422e6b,rev?*%
%TF.SameCoordinates,Original*%
%TF.FileFunction,Copper,L4,Bot*%
%TF.FilePolarity,Positive*%
%FSLAX46Y46*%
G04 Gerber Fmt 4.6, Leading zero omitted, Abs format (unit mm)*
G04 Created by KiCad (PCBNEW 10.0.3) date 2026-08-19 09:52:12*
%MOMM*%
%LPD*%
G01*
G04 APERTURE LIST*
G04 Aperture macros list*
%AMRoundRect*
0 Rectangle with rounded corners*
0 $1 Rounding radius*
0 $2 $3 $4 $5 $6 $7 $8 $9 X,Y pos of 4 corners*
0 Add a 4 corners polygon primitive as box body*
4,1,4,$2,$3,$4,$5,$6,$7,$8,$9,$2,$3,0*
0 Add four circle primitives for the rounded corners*
1,1,$1+$1,$2,$3*
1,1,$1+$1,$4,$5*
1,1,$1+$1,$6,$7*
1,1,$1+$1,$8,$9*
0 Add four rect primitives between the rounded corners*
20,1,$1+$1,$2,$3,$4,$5,0*
20,1,$1+$1,$4,$5,$6,$7,0*
20,1,$1+$1,$6,$7,$8,$9,0*
20,1,$1+$1,$8,$9,$2,$3,0*%
G04 Aperture macros list end*
%TA.AperFunction,ComponentPad*%
%ADD10C,1.600000*%
%TD*%
%TA.AperFunction,ComponentPad*%
%ADD11R,1.700000X1.700000*%
%TD*%
%TA.AperFunction,ComponentPad*%
%ADD12C,1.700000*%
%TD*%
%TA.AperFunction,ComponentPad*%
%ADD13C,2.775000*%
%TD*%
%TA.AperFunction,ComponentPad*%
%ADD14R,1.100000X1.100000*%
%TD*%
%TA.AperFunction,ComponentPad*%
%ADD15C,1.100000*%
%TD*%
%TA.AperFunction,ComponentPad*%
%ADD16C,1.520000*%
%TD*%
%TA.AperFunction,ComponentPad*%
%ADD17R,1.508000X1.508000*%
%TD*%
%TA.AperFunction,ComponentPad*%
%ADD18C,1.508000*%
%TD*%
%TA.AperFunction,ComponentPad*%
%ADD19RoundRect,0.250000X0.750000X-0.600000X0.750000X0.600000X-0.750000X0.600000X-0.750000X-0.600000X0*%
%TD*%
%TA.AperFunction,ComponentPad*%
%ADD20O,2.000000X1.700000*%
%TD*%
%TA.AperFunction,ComponentPad*%
%ADD21RoundRect,0.250000X-0.620000X-0.845000X0.620000X-0.845000X0.620000X0.845000X-0.620000X0.845000X0*%
%TD*%
%TA.AperFunction,ComponentPad*%
%ADD22O,1.740000X2.190000*%
%TD*%
%TA.AperFunction,ComponentPad*%
%ADD23RoundRect,0.250000X-0.600000X-0.725000X0.600000X-0.725000X0.600000X0.725000X-0.600000X0.725000X0*%
%TD*%
%TA.AperFunction,ComponentPad*%
%ADD24O,1.700000X1.950000*%
%TD*%
%TA.AperFunction,ComponentPad*%
%ADD25R,1.338000X1.338000*%
%TD*%
%TA.AperFunction,ComponentPad*%
%ADD26C,1.338000*%
%TD*%
%TA.AperFunction,ComponentPad*%
%ADD27R,2.000000X1.905000*%
%TD*%
%TA.AperFunction,ComponentPad*%
%ADD28O,2.000000X1.905000*%
%TD*%
%TA.AperFunction,ComponentPad*%
%ADD29RoundRect,0.250001X-1.149999X1.149999X-1.149999X-1.149999X1.149999X-1.149999X1.149999X1.149999X0*%
%TD*%
%TA.AperFunction,ComponentPad*%
%ADD30C,2.800000*%
%TD*%
%TA.AperFunction,ComponentPad*%
%ADD31RoundRect,0.250000X-1.050000X-1.050000X1.050000X-1.050000X1.050000X1.050000X-1.050000X1.050000X0*%
%TD*%
%TA.AperFunction,ComponentPad*%
%ADD32C,2.600000*%
%TD*%
%TA.AperFunction,ComponentPad*%
%ADD33R,1.524000X1.524000*%
%TD*%
%TA.AperFunction,ComponentPad*%
%ADD34C,1.524000*%
%TD*%
%TA.AperFunction,ComponentPad*%
%ADD35RoundRect,0.250000X0.750000X-0.750000X0.750000X0.750000X-0.750000X0.750000X-0.750000X-0.750000X0*%
%TD*%
%TA.AperFunction,ComponentPad*%
%ADD36C,2.000000*%
%TD*%
%TA.AperFunction,ComponentPad*%
%ADD37O,4.000000X2.000000*%
%TD*%
%TA.AperFunction,ComponentPad*%
%ADD38R,1.408000X1.408000*%
%TD*%
%TA.AperFunction,ComponentPad*%
%ADD39C,1.408000*%
%TD*%
%TA.AperFunction,ComponentPad*%
%ADD40O,3.500000X1.000000*%
%TD*%
%TA.AperFunction,ComponentPad*%
%ADD41O,7.000000X2.000000*%
%TD*%
%TA.AperFunction,ComponentPad*%
%ADD42RoundRect,0.250000X0.750000X0.750000X-0.750000X0.750000X-0.750000X-0.750000X0.750000X-0.750000X0*%
%TD*%
%TA.AperFunction,ViaPad*%
%ADD43C,0.600000*%
%TD*%
%TA.AperFunction,Conductor*%
%ADD44C,0.400000*%
%TD*%
%TA.AperFunction,Conductor*%
%ADD45C,0.200000*%
%TD*%
%TA.AperFunction,Conductor*%
%ADD46C,0.800000*%
%TD*%
%TA.AperFunction,Conductor*%
%ADD47C,0.300000*%
%TD*%
%TA.AperFunction,Conductor*%
%ADD48C,0.600000*%
%TD*%
G04 APERTURE END LIST*
D10*
%TO.P,C8,1*%
%TO.N,+5V*%
X204000000Y-61700000D03*
%TO.P,C8,2*%
%TO.N,GND*%
X204000000Y-56700000D03*
%TD*%
D11*
%TO.P,J33,1,Pin_1_1*%
%TO.N,Net-(J33-Pin_1)*%
X131500000Y-49360000D03*
D12*
%TO.P,J33,2,Pin_2_2*%
X131500000Y-51900000D03*
%TO.P,J33,3,Pin_3_3*%
%TO.N,3V3*%
X131500000Y-54440000D03*
%TO.P,J33,4,Pin_4_4*%
%TO.N,GND*%
X131500000Y-56980000D03*
%TO.P,J33,5,Pin_5_5*%
%TO.N,GPIO 2*%
X131500000Y-59520000D03*
%TO.P,J33,6,Pin_6_6*%
%TO.N,GPIO 3*%
X131500000Y-62060000D03*
%TD*%
D13*
%TO.P,J8,1,1_1*%
%TO.N,unconnected-(J8-Pad1)*%
X211100000Y-62000000D03*
%TO.P,J8,2,2_2*%
%TO.N,GND*%
X215300000Y-62000000D03*
%TO.P,J8,3,3_3*%
X219500000Y-62000000D03*
%TO.P,J8,4,4_4*%
%TO.N,Net-(F4-Pad1)*%
X223700000Y-62000000D03*
%TD*%
D14*
%TO.P,J7,1,SIGNAL_1_1*%
%TO.N,unconnected-(J7-SIGNAL_1-Pad1)*%
X232300000Y-96200000D03*
D15*
%TO.P,J7,2,SIGNAL_2_2*%
%TO.N,Net-(J7-SIGNAL_2)*%
X232300000Y-98200000D03*
%TO.P,J7,3,SIGNAL_3_3*%
X232300000Y-100200000D03*
%TO.P,J7,4,SIGNAL_4_4*%
%TO.N,unconnected-(J7-SIGNAL_4-Pad4)*%
X232300000Y-102200000D03*
D16*
%TO.P,J7,5,POWER_1_5*%
%TO.N,/Power Distribution/12V_FUSED_MAIN*%
X230630000Y-91700000D03*
%TO.P,J7,6,POWER_2_6*%
X230630000Y-94700000D03*
%TO.P,J7,7,POWER_3_7*%
X230630000Y-97700000D03*
%TO.P,J7,8,POWER_4_8*%
X230630000Y-100700000D03*
%TO.P,J7,9,POWER_5_9*%
X230630000Y-103700000D03*
%TO.P,J7,10,POWER_6_10*%
X230630000Y-106700000D03*
%TO.P,J7,11,POWER_7_11*%
%TO.N,GND*%
X227630000Y-91700000D03*
%TO.P,J7,12,POWER_8_12*%
X227630000Y-94700000D03*
%TO.P,J7,13,POWER_9_13*%
X227630000Y-97700000D03*
%TO.P,J7,14,POWER_10_14*%
X227630000Y-100700000D03*
%TO.P,J7,15,POWER_11_15*%
X227630000Y-103700000D03*
%TO.P,J7,16,POWER_12_16*%
X227630000Y-106700000D03*
%TD*%
D10*
%TO.P,R7,1*%
%TO.N,IO 34*%
X74050000Y-75660000D03*
%TO.P,R7,2*%
%TO.N,Net-(U1-IO34)*%
X84210000Y-75660000D03*
%TD*%
D17*
%TO.P,J36,1,1_1*%
%TO.N,+12V*%
X167150000Y-147325000D03*
D18*
%TO.P,J36,2,2_2*%
%TO.N,Net-(Q1-D)*%
X164650000Y-147325000D03*
%TO.P,J36,3,3_3*%
%TO.N,Net-(Q2-D)*%
X162150000Y-147325000D03*
%TO.P,J36,4,4_4*%
%TO.N,Net-(Q3-D)*%
X159650000Y-147325000D03*
%TD*%
D10*
%TO.P,R12,1*%
%TO.N,IO 18*%
X177450000Y-129500000D03*
%TO.P,R12,2*%
%TO.N,GND*%
X177450000Y-139660000D03*
%TD*%
D11*
%TO.P,J34,1,Pin_1_1*%
%TO.N,Net-(J34-Pin_1)*%
X144200000Y-49360000D03*
D12*
%TO.P,J34,2,Pin_2_2*%
X144200000Y-51900000D03*
%TO.P,J34,3,Pin_3_3*%
%TO.N,+5V*%
X144200000Y-54440000D03*
%TO.P,J34,4,Pin_4_4*%
%TO.N,GND*%
X144200000Y-56980000D03*
%TO.P,J34,5,Pin_5_5*%
%TO.N,SCL_5V*%
X144200000Y-59520000D03*
%TO.P,J34,6,Pin_6_6*%
%TO.N,SDA_5V*%
X144200000Y-62060000D03*
%TD*%
D19*
%TO.P,J5,1,1_1*%
%TO.N,3V3*%
X138335000Y-73470000D03*
D20*
%TO.P,J5,2,2_2*%
%TO.N,Net-(J5-Pad2)*%
X138335000Y-70970000D03*
%TD*%
D21*
%TO.P,J6,1,Pin_1_1*%
%TO.N,GND*%
X217200000Y-146800000D03*
D22*
%TO.P,J6,2,Pin_2_2*%
%TO.N,+12V*%
X219740000Y-146800000D03*
%TO.P,J6,3,Pin_3_3*%
%TO.N,IO 35*%
X222280000Y-146800000D03*
%TO.P,J6,4,Pin_4_4*%
%TO.N,Net-(J6-Pin_4)*%
X224820000Y-146800000D03*
%TD*%
D23*
%TO.P,J22,1,1_1*%
%TO.N,3V3*%
X48400000Y-146300000D03*
D24*
%TO.P,J22,2,2_2*%
%TO.N,/DS_in*%
X50900000Y-146300000D03*
%TO.P,J22,3,3_3*%
%TO.N,GND*%
X53400000Y-146300000D03*
%TD*%
D10*
%TO.P,R21,1*%
%TO.N,GPIO 27*%
X84950000Y-140500000D03*
%TO.P,R21,2*%
%TO.N,Net-(J24-Pad2)*%
X84950000Y-130340000D03*
%TD*%
%TO.P,R5,1*%
%TO.N,Net-(U1-3V3)*%
X64450000Y-73630000D03*
%TO.P,R5,2*%
%TO.N,IO 32*%
X64450000Y-83790000D03*
%TD*%
D23*
%TO.P,J26,1,1_1*%
%TO.N,+5V*%
X109000000Y-146200000D03*
D24*
%TO.P,J26,2,2_2*%
%TO.N,GPIO 5*%
X111500000Y-146200000D03*
%TO.P,J26,3,3_3*%
%TO.N,GND*%
X114000000Y-146200000D03*
%TD*%
D25*
%TO.P,U3,1*%
%TO.N,N/C*%
X217010000Y-130000000D03*
D26*
%TO.P,U3,2,IN_A_2*%
%TO.N,IO 21*%
X217010000Y-132540000D03*
%TO.P,U3,3,GND_3*%
%TO.N,GND*%
X217010000Y-135080000D03*
%TO.P,U3,4,IN_B_4*%
%TO.N,IO 22*%
X217010000Y-137620000D03*
%TO.P,U3,5,~{OUT_B}_5*%
%TO.N,Net-(J6-Pin_4)*%
X224950000Y-137620000D03*
%TO.P,U3,6,VDD_6*%
%TO.N,+12V*%
X224950000Y-135080000D03*
%TO.P,U3,7,~{OUT_A}_7*%
%TO.N,Net-(J4-Pin_4)*%
X224950000Y-132540000D03*
%TO.P,U3,8*%
%TO.N,N/C*%
X224950000Y-130000000D03*
%TD*%
D10*
%TO.P,R10,1*%
%TO.N,IO 33*%
X73950000Y-89660000D03*
%TO.P,R10,2*%
%TO.N,Net-(U1-IO33)*%
X84110000Y-89660000D03*
%TD*%
D27*
%TO.P,Q3,1,G_1*%
%TO.N,Net-(Q3-G)*%
X166800000Y-133500000D03*
D28*
%TO.P,Q3,2,D_2*%
%TO.N,Net-(Q3-D)*%
X166800000Y-136040000D03*
%TO.P,Q3,3,S_3*%
%TO.N,GND*%
X166800000Y-138580000D03*
%TD*%
D23*
%TO.P,J23,1,1_1*%
%TO.N,3V3*%
X62600000Y-146300000D03*
D24*
%TO.P,J23,2,2_2*%
%TO.N,/DS_in*%
X65100000Y-146300000D03*
%TO.P,J23,3,3_3*%
%TO.N,GND*%
X67600000Y-146300000D03*
%TD*%
D23*
%TO.P,J27,1,1_1*%
%TO.N,+5V*%
X125500000Y-146100000D03*
D24*
%TO.P,J27,2,2_2*%
%TO.N,GPIO 6*%
X128000000Y-146100000D03*
%TO.P,J27,3,3_3*%
%TO.N,GND*%
X130500000Y-146100000D03*
%TD*%
D23*
%TO.P,J13,1,1_1*%
%TO.N,GPIO 2*%
X113200000Y-51800000D03*
D24*
%TO.P,J13,2,2_2*%
%TO.N,GPIO 3*%
X115700000Y-51800000D03*
%TO.P,J13,3,3_3*%
%TO.N,3V3*%
X118200000Y-51800000D03*
%TO.P,J13,4,4_4*%
%TO.N,GND*%
X120700000Y-51800000D03*
%TD*%
D10*
%TO.P,R13,1*%
%TO.N,IO 22*%
X206950000Y-139660000D03*
%TO.P,R13,2*%
%TO.N,GND*%
X206950000Y-129500000D03*
%TD*%
%TO.P,R3,1*%
%TO.N,Net-(U1-3V3)*%
X71160000Y-58740000D03*
%TO.P,R3,2*%
%TO.N,IO 34*%
X71160000Y-68900000D03*
%TD*%
%TO.P,C3,1*%
%TO.N,+12V*%
X195450000Y-122080000D03*
%TO.P,C3,2*%
%TO.N,GND*%
X190450000Y-122080000D03*
%TD*%
%TO.P,R24,1*%
%TO.N,GND*%
X162010000Y-71230000D03*
%TO.P,R24,2*%
%TO.N,Net-(J5-Pad2)*%
X151850000Y-71230000D03*
%TD*%
D29*
%TO.P,J11,1,Pin_1_1*%
%TO.N,Net-(J11-Pin_1)*%
X233900000Y-114940000D03*
D30*
%TO.P,J11,2,Pin_2_2*%
%TO.N,Net-(J11-Pin_2)*%
X233900000Y-119940000D03*
%TD*%
D31*
%TO.P,D1,1,A1_1*%
%TO.N,GND*%
X183860000Y-92700000D03*
D32*
%TO.P,D1,2,A2_2*%
%TO.N,+12V*%
X199100000Y-92700000D03*
%TD*%
D33*
%TO.P,J19,1,1_1*%
%TO.N,GPIO 2*%
X62000000Y-51400000D03*
D34*
%TO.P,J19,2,2_2*%
%TO.N,GPIO 3*%
X64000000Y-51400000D03*
%TO.P,J19,3,3_3*%
%TO.N,3V3*%
X66000000Y-51400000D03*
%TO.P,J19,4,4_4*%
%TO.N,GND*%
X68000000Y-51400000D03*
%TD*%
D23*
%TO.P,J25,1,1_1*%
%TO.N,3V3*%
X93400000Y-146300000D03*
D24*
%TO.P,J25,2,2_2*%
%TO.N,Net-(J24-Pad2)*%
X95900000Y-146300000D03*
%TO.P,J25,3,3_3*%
%TO.N,GND*%
X98400000Y-146300000D03*
%TD*%
D33*
%TO.P,J15,1,1_1*%
%TO.N,GPIO 2*%
X95900000Y-51400000D03*
D34*
%TO.P,J15,2,2_2*%
%TO.N,GPIO 3*%
X97900000Y-51400000D03*
%TO.P,J15,3,3_3*%
%TO.N,3V3*%
X99900000Y-51400000D03*
%TO.P,J15,4,4_4*%
%TO.N,GND*%
X101900000Y-51400000D03*
%TD*%
D10*
%TO.P,R6,1*%
%TO.N,Net-(U1-3V3)*%
X60970000Y-81220000D03*
%TO.P,R6,2*%
%TO.N,IO 33*%
X60970000Y-91380000D03*
%TD*%
D27*
%TO.P,Q2,1,G_1*%
%TO.N,Net-(Q2-G)*%
X156900000Y-133600000D03*
D28*
%TO.P,Q2,2,D_2*%
%TO.N,Net-(Q2-D)*%
X156900000Y-136140000D03*
%TO.P,Q2,3,S_3*%
%TO.N,GND*%
X156900000Y-138680000D03*
%TD*%
D35*
%TO.P,C7,1*%
%TO.N,+5V*%
X236000000Y-75700000D03*
D36*
%TO.P,C7,2*%
%TO.N,GND*%
X236000000Y-70700000D03*
%TD*%
D10*
%TO.P,R1,1*%
%TO.N,GPIO 22*%
X55950000Y-140500000D03*
%TO.P,R1,2*%
%TO.N,3V3*%
X55950000Y-130340000D03*
%TD*%
D23*
%TO.P,J17,1,1_1*%
%TO.N,GPIO 2*%
X78500000Y-51500000D03*
D24*
%TO.P,J17,2,2_2*%
%TO.N,GPIO 3*%
X81000000Y-51500000D03*
%TO.P,J17,3,3_3*%
%TO.N,3V3*%
X83500000Y-51500000D03*
%TO.P,J17,4,4_4*%
%TO.N,GND*%
X86000000Y-51500000D03*
%TD*%
D10*
%TO.P,R19,1*%
%TO.N,Net-(Q2-G)*%
X157900000Y-128900000D03*
%TO.P,R19,2*%
%TO.N,GND*%
X157900000Y-118740000D03*
%TD*%
%TO.P,R9,1*%
%TO.N,IO 32*%
X73950000Y-85330000D03*
%TO.P,R9,2*%
%TO.N,Net-(U1-IO32)*%
X84110000Y-85330000D03*
%TD*%
%TO.P,R2,1*%
%TO.N,GPIO 22*%
X60000000Y-140500000D03*
%TO.P,R2,2*%
%TO.N,/DS_in*%
X60000000Y-130340000D03*
%TD*%
D21*
%TO.P,J4,1,Pin_1_1*%
%TO.N,GND*%
X204300000Y-146700000D03*
D22*
%TO.P,J4,2,Pin_2_2*%
%TO.N,+12V*%
X206840000Y-146700000D03*
%TO.P,J4,3,Pin_3_3*%
%TO.N,IO 34*%
X209380000Y-146700000D03*
%TO.P,J4,4,Pin_4_4*%
%TO.N,Net-(J4-Pin_4)*%
X211920000Y-146700000D03*
%TD*%
D25*
%TO.P,U2,1*%
%TO.N,N/C*%
X188950000Y-130500000D03*
D26*
%TO.P,U2,2,IN_A_2*%
%TO.N,IO 18*%
X188950000Y-133040000D03*
%TO.P,U2,3,GND_3*%
%TO.N,GND*%
X188950000Y-135580000D03*
%TO.P,U2,4,IN_B_4*%
%TO.N,IO 19*%
X188950000Y-138120000D03*
%TO.P,U2,5,~{OUT_B}_5*%
%TO.N,Net-(J3-Pin_4)*%
X196890000Y-138120000D03*
%TO.P,U2,6,VDD_6*%
%TO.N,+12V*%
X196890000Y-135580000D03*
%TO.P,U2,7,~{OUT_A}_7*%
%TO.N,Net-(J2-Pin_4)*%
X196890000Y-133040000D03*
%TO.P,U2,8*%
%TO.N,N/C*%
X196890000Y-130500000D03*
%TD*%
D10*
%TO.P,C10,1*%
%TO.N,+12V*%
X168800000Y-98400000D03*
%TO.P,C10,2*%
%TO.N,GND*%
X163800000Y-98400000D03*
%TD*%
D37*
%TO.P,F1,1*%
%TO.N,+12V*%
X218987393Y-114968566D03*
%TO.P,F1,2*%
%TO.N,Net-(J11-Pin_1)*%
X223987393Y-114968566D03*
%TD*%
D10*
%TO.P,R23,1*%
%TO.N,GPIO 20*%
X147820000Y-81450000D03*
%TO.P,R23,2*%
%TO.N,Net-(J5-Pad2)*%
X147820000Y-71290000D03*
%TD*%
%TO.P,R18,1*%
%TO.N,IO 14*%
X174700000Y-105400000D03*
%TO.P,R18,2*%
%TO.N,GND*%
X174700000Y-115560000D03*
%TD*%
%TO.P,C9,1*%
%TO.N,+12V*%
X148800000Y-98700000D03*
%TO.P,C9,2*%
%TO.N,GND*%
X143800000Y-98700000D03*
%TD*%
D11*
%TO.P,J10,1,Pin_1_1*%
%TO.N,3V3*%
X43260000Y-67980000D03*
D12*
%TO.P,J10,2,Pin_2_2*%
%TO.N,unconnected-(J10-Pin_2-Pad2)*%
X45800000Y-67980000D03*
%TO.P,J10,3,Pin_3_3*%
%TO.N,GPIO 2*%
X43260000Y-70520000D03*
%TO.P,J10,4,Pin_4_4*%
%TO.N,unconnected-(J10-Pin_4-Pad4)*%
X45800000Y-70520000D03*
%TO.P,J10,5,Pin_5_5*%
%TO.N,GPIO 3*%
X43260000Y-73060000D03*
%TO.P,J10,6,Pin_6_6*%
%TO.N,unconnected-(J10-Pin_6-Pad6)*%
X45800000Y-73060000D03*
%TO.P,J10,7,Pin_7_7*%
%TO.N,unconnected-(J10-Pin_7-Pad7)*%
X43260000Y-75600000D03*
%TO.P,J10,8,Pin_8_8*%
%TO.N,GPIO 14*%
X45800000Y-75600000D03*
%TO.P,J10,9,Pin_9_9*%
%TO.N,GND*%
X43260000Y-78140000D03*
%TO.P,J10,10,Pin_10_10*%
%TO.N,GPIO 15*%
X45800000Y-78140000D03*
%TO.P,J10,11,Pin_11_11*%
%TO.N,unconnected-(J10-Pin_11-Pad11)*%
X43260000Y-80680000D03*
%TO.P,J10,12,Pin_12_12*%
%TO.N,unconnected-(J10-Pin_12-Pad12)*%
X45800000Y-80680000D03*
%TO.P,J10,13,Pin_13_13*%
%TO.N,GPIO 27*%
X43260000Y-83220000D03*
%TO.P,J10,14,Pin_14_14*%
%TO.N,unconnected-(J10-Pin_14-Pad14)*%
X45800000Y-83220000D03*
%TO.P,J10,15,Pin_15_15*%
%TO.N,GPIO 22*%
X43260000Y-85760000D03*
%TO.P,J10,16,Pin_16_16*%
%TO.N,GPIO 23*%
X45800000Y-85760000D03*
%TO.P,J10,17,Pin_17_17*%
%TO.N,unconnected-(J10-Pin_17-Pad17)*%
X43260000Y-88300000D03*
%TO.P,J10,18,Pin_18_18*%
%TO.N,GPIO 24*%
X45800000Y-88300000D03*
%TO.P,J10,19,Pin_19_19*%
%TO.N,GPIO 10*%
X43260000Y-90840000D03*
%TO.P,J10,20,Pin_20_20*%
%TO.N,unconnected-(J10-Pin_20-Pad20)*%
X45800000Y-90840000D03*
%TO.P,J10,21,Pin_21_21*%
%TO.N,GPIO 9*%
X43260000Y-93380000D03*
%TO.P,J10,22,Pin_22_22*%
%TO.N,unconnected-(J10-Pin_22-Pad22)*%
X45800000Y-93380000D03*
%TO.P,J10,23,Pin_23_23*%
%TO.N,GPIO 11*%
X43260000Y-95920000D03*
%TO.P,J10,24,Pin_24_24*%
%TO.N,unconnected-(J10-Pin_24-Pad24)*%
X45800000Y-95920000D03*
%TO.P,J10,25,Pin_25_25*%
%TO.N,unconnected-(J10-Pin_25-Pad25)*%
X43260000Y-98460000D03*
%TO.P,J10,26,Pin_26_26*%
%TO.N,GPIO 7*%
X45800000Y-98460000D03*
%TO.P,J10,27,Pin_27_27*%
%TO.N,unconnected-(J10-Pin_27-Pad27)*%
X43260000Y-101000000D03*
%TO.P,J10,28,Pin_28_28*%
%TO.N,unconnected-(J10-Pin_28-Pad28)*%
X45800000Y-101000000D03*
%TO.P,J10,29,Pin_29_29*%
%TO.N,GPIO 5*%
X43260000Y-103540000D03*
%TO.P,J10,30,Pin_30_30*%
%TO.N,unconnected-(J10-Pin_30-Pad30)*%
X45800000Y-103540000D03*
%TO.P,J10,31,Pin_31_31*%
%TO.N,GPIO 6*%
X43260000Y-106080000D03*
%TO.P,J10,32,Pin_32_32*%
%TO.N,GPIO 12*%
X45800000Y-106080000D03*
%TO.P,J10,33,Pin_33_33*%
%TO.N,GPIO 13*%
X43260000Y-108620000D03*
%TO.P,J10,34,Pin_34_34*%
%TO.N,unconnected-(J10-Pin_34-Pad34)*%
X45800000Y-108620000D03*
%TO.P,J10,35,Pin_35_35*%
%TO.N,unconnected-(J10-Pin_35-Pad35)*%
X43260000Y-111160000D03*
%TO.P,J10,36,Pin_36_36*%
%TO.N,GPIO 16*%
X45800000Y-111160000D03*
%TO.P,J10,37,Pin_37_37*%
%TO.N,GPIO 26*%
X43260000Y-113700000D03*
%TO.P,J10,38,Pin_38_38*%
%TO.N,GPIO 20*%
X45800000Y-113700000D03*
%TO.P,J10,39,Pin_39_39*%
%TO.N,unconnected-(J10-Pin_39-Pad39)*%
X43260000Y-116240000D03*
%TO.P,J10,40,Pin_40_40*%
%TO.N,GPIO 21*%
X45800000Y-116240000D03*
%TD*%
D25*
%TO.P,U5,1*%
%TO.N,N/C*%
X162730000Y-107190000D03*
D26*
%TO.P,U5,2,IN_A_2*%
%TO.N,IO 14*%
X162730000Y-109730000D03*
%TO.P,U5,3,GND_3*%
%TO.N,GND*%
X162730000Y-112270000D03*
%TO.P,U5,4,IN_B_4*%
%TO.N,unconnected-(U5-IN_B-Pad4)*%
X162730000Y-114810000D03*
%TO.P,U5,5,~{OUT_B}_5*%
%TO.N,unconnected-(U5-~{OUT_B}-Pad5)*%
X170670000Y-114810000D03*
%TO.P,U5,6,VDD_6*%
%TO.N,+12V*%
X170670000Y-112270000D03*
%TO.P,U5,7,~{OUT_A}_7*%
%TO.N,Net-(Q3-G)*%
X170670000Y-109730000D03*
%TO.P,U5,8*%
%TO.N,N/C*%
X170670000Y-107190000D03*
%TD*%
D10*
%TO.P,C5,1*%
%TO.N,+12V*%
X205700000Y-100200000D03*
%TO.P,C5,2*%
%TO.N,GND*%
X205700000Y-105200000D03*
%TD*%
D23*
%TO.P,J24,1,1_1*%
%TO.N,3V3*%
X78100000Y-146200000D03*
D24*
%TO.P,J24,2,2_2*%
%TO.N,Net-(J24-Pad2)*%
X80600000Y-146200000D03*
%TO.P,J24,3,3_3*%
%TO.N,GND*%
X83100000Y-146200000D03*
%TD*%
D10*
%TO.P,R8,1*%
%TO.N,IO 35*%
X74020000Y-80510000D03*
%TO.P,R8,2*%
%TO.N,Net-(U1-IO35)*%
X84180000Y-80510000D03*
%TD*%
D11*
%TO.P,J1,1,Pin_1_1*%
%TO.N,GPIO 13*%
X44220000Y-52110000D03*
D12*
%TO.P,J1,2,Pin_2_2*%
%TO.N,GPIO 26*%
X46760000Y-52110000D03*
%TO.P,J1,3,Pin_3_3*%
%TO.N,GND*%
X49300000Y-52110000D03*
%TO.P,J1,4,Pin_4_4*%
%TO.N,GPIO 12*%
X51840000Y-52110000D03*
%TO.P,J1,5,Pin_5_5*%
%TO.N,GPIO 16*%
X54380000Y-52110000D03*
%TD*%
D10*
%TO.P,C4,1*%
%TO.N,+12V*%
X223450000Y-122080000D03*
%TO.P,C4,2*%
%TO.N,GND*%
X218450000Y-122080000D03*
%TD*%
%TO.P,R14,1*%
%TO.N,IO 21*%
X211000000Y-139660000D03*
%TO.P,R14,2*%
%TO.N,GND*%
X211000000Y-129500000D03*
%TD*%
%TO.P,R22,1*%
%TO.N,GPIO 27*%
X89000000Y-140500000D03*
%TO.P,R22,2*%
%TO.N,3V3*%
X89000000Y-130340000D03*
%TD*%
D23*
%TO.P,J9,1,1_1*%
%TO.N,SCL_5V*%
X152500000Y-51000000D03*
D24*
%TO.P,J9,2,2_2*%
%TO.N,SDA_5V*%
X155000000Y-51000000D03*
%TO.P,J9,3,3_3*%
%TO.N,+5V*%
X157500000Y-51000000D03*
%TO.P,J9,4,4_4*%
%TO.N,GND*%
X160000000Y-51000000D03*
%TD*%
D25*
%TO.P,U4,1*%
%TO.N,N/C*%
X142730000Y-107090000D03*
D26*
%TO.P,U4,2,IN_A_2*%
%TO.N,IO 12*%
X142730000Y-109630000D03*
%TO.P,U4,3,GND_3*%
%TO.N,GND*%
X142730000Y-112170000D03*
%TO.P,U4,4,IN_B_4*%
%TO.N,IO 13*%
X142730000Y-114710000D03*
%TO.P,U4,5,~{OUT_B}_5*%
%TO.N,Net-(Q2-G)*%
X150670000Y-114710000D03*
%TO.P,U4,6,VDD_6*%
%TO.N,+12V*%
X150670000Y-112170000D03*
%TO.P,U4,7,~{OUT_A}_7*%
%TO.N,Net-(Q1-G)*%
X150670000Y-109630000D03*
%TO.P,U4,8*%
%TO.N,N/C*%
X150670000Y-107090000D03*
%TD*%
D17*
%TO.P,J35,1,1_1*%
%TO.N,+12V*%
X152950000Y-147425000D03*
D18*
%TO.P,J35,2,2_2*%
%TO.N,Net-(Q1-D)*%
X150450000Y-147425000D03*
%TO.P,J35,3,3_3*%
%TO.N,Net-(Q2-D)*%
X147950000Y-147425000D03*
%TO.P,J35,4,4_4*%
%TO.N,Net-(Q3-D)*%
X145450000Y-147425000D03*
%TD*%
D33*
%TO.P,J18,1,1_1*%
%TO.N,SCL_5V*%
X170000000Y-51000000D03*
D34*
%TO.P,J18,2,2_2*%
%TO.N,SDA_5V*%
X172000000Y-51000000D03*
%TO.P,J18,3,3_3*%
%TO.N,+5V*%
X174000000Y-51000000D03*
%TO.P,J18,4,4_4*%
%TO.N,GND*%
X176000000Y-51000000D03*
%TD*%
D10*
%TO.P,R17,1*%
%TO.N,Net-(Q1-G)*%
X147000000Y-128900000D03*
%TO.P,R17,2*%
%TO.N,GND*%
X147000000Y-118740000D03*
%TD*%
D38*
%TO.P,U1,J2_1,3V3_J2_1*%
%TO.N,Net-(U1-3V3)*%
X95100000Y-72265000D03*
D39*
%TO.P,U1,J2_2,EN_J2_2*%
%TO.N,unconnected-(U1-EN-PadJ2_2)*%
X95100000Y-74805000D03*
%TO.P,U1,J2_3,SENSOR_VP_J2_3*%
%TO.N,unconnected-(U1-SENSOR_VP-PadJ2_3)*%
X95100000Y-77345000D03*
%TO.P,U1,J2_4,SENSOR_VN_J2_4*%
%TO.N,unconnected-(U1-SENSOR_VN-PadJ2_4)*%
X95100000Y-79885000D03*
%TO.P,U1,J2_5,IO34_J2_5*%
%TO.N,Net-(U1-IO34)*%
X95100000Y-82425000D03*
%TO.P,U1,J2_6,IO35_J2_6*%
%TO.N,Net-(U1-IO35)*%
X95100000Y-84965000D03*
%TO.P,U1,J2_7,IO32_J2_7*%
%TO.N,Net-(U1-IO32)*%
X95100000Y-87505000D03*
%TO.P,U1,J2_8,IO33_J2_8*%
%TO.N,Net-(U1-IO33)*%
X95100000Y-90045000D03*
%TO.P,U1,J2_9,IO25_J2_9*%
%TO.N,unconnected-(U1-IO25-PadJ2_9)*%
X95100000Y-92585000D03*
%TO.P,U1,J2_10,IO26_J2_10*%
%TO.N,GPIO 14*%
X95100000Y-95125000D03*
%TO.P,U1,J2_11,IO27_J2_11*%
%TO.N,GPIO 15*%
X95100000Y-97665000D03*
%TO.P,U1,J2_12,IO14_J2_12*%
%TO.N,IO 14*%
X95100000Y-100205000D03*
%TO.P,U1,J2_13,IO12_J2_13*%
%TO.N,IO 12*%
X95100000Y-102745000D03*
%TO.P,U1,J2_14,GND_J2_14_J2_14*%
%TO.N,unconnected-(U1-GND_J2_14-PadJ2_14)*%
X95100000Y-105285000D03*
%TO.P,U1,J2_15,IO13_J2_15*%
%TO.N,IO 13*%
X95100000Y-107825000D03*
%TO.P,U1,J2_16,SD2_J2_16*%
%TO.N,unconnected-(U1-SD2-PadJ2_16)*%
X95100000Y-110365000D03*
%TO.P,U1,J2_17,SD3_J2_17*%
%TO.N,unconnected-(U1-SD3-PadJ2_17)*%
X95100000Y-112905000D03*
%TO.P,U1,J2_18,CMD_J2_18*%
%TO.N,unconnected-(U1-CMD-PadJ2_18)*%
X95100000Y-115445000D03*
%TO.P,U1,J2_19,EXT_5V_J2_19*%
%TO.N,+5V*%
X95100000Y-117985000D03*
%TO.P,U1,J3_1,GND_J3_1_J3_1*%
%TO.N,GND*%
X120500000Y-72265000D03*
%TO.P,U1,J3_2,IO23_J3_2*%
%TO.N,unconnected-(U1-IO23-PadJ3_2)*%
X120500000Y-74805000D03*
%TO.P,U1,J3_3,IO22_J3_3*%
%TO.N,IO 22*%
X120500000Y-77345000D03*
%TO.P,U1,J3_4,TXD0_J3_4*%
%TO.N,unconnected-(U1-TXD0-PadJ3_4)*%
X120500000Y-79885000D03*
%TO.P,U1,J3_5,RXD0_J3_5*%
%TO.N,unconnected-(U1-RXD0-PadJ3_5)*%
X120500000Y-82425000D03*
%TO.P,U1,J3_6,IO21_J3_6*%
%TO.N,IO 21*%
X120500000Y-84965000D03*
%TO.P,U1,J3_7,GND_J3_7_J3_7*%
%TO.N,unconnected-(U1-GND_J3_7-PadJ3_7)*%
X120500000Y-87505000D03*
%TO.P,U1,J3_8,IO19_J3_8*%
%TO.N,IO 19*%
X120500000Y-90045000D03*
%TO.P,U1,J3_9,IO18_J3_9*%
%TO.N,IO 18*%
X120500000Y-92585000D03*
%TO.P,U1,J3_10,IO5_J3_10*%
%TO.N,unconnected-(U1-IO5-PadJ3_10)*%
X120500000Y-95125000D03*
%TO.P,U1,J3_11,IO17_J3_11*%
%TO.N,unconnected-(U1-IO17-PadJ3_11)*%
X120500000Y-97665000D03*
%TO.P,U1,J3_12,IO16_J3_12*%
%TO.N,unconnected-(U1-IO16-PadJ3_12)*%
X120500000Y-100205000D03*
%TO.P,U1,J3_13,IO4_J3_13*%
%TO.N,unconnected-(U1-IO4-PadJ3_13)*%
X120500000Y-102745000D03*
%TO.P,U1,J3_14,IO0_J3_14*%
%TO.N,unconnected-(U1-IO0-PadJ3_14)*%
X120500000Y-105285000D03*
%TO.P,U1,J3_15,IO2_J3_15*%
%TO.N,unconnected-(U1-IO2-PadJ3_15)*%
X120500000Y-107825000D03*
%TO.P,U1,J3_16,IO15_J3_16*%
%TO.N,unconnected-(U1-IO15-PadJ3_16)*%
X120500000Y-110365000D03*
%TO.P,U1,J3_17,SD1_J3_17*%
%TO.N,unconnected-(U1-SD1-PadJ3_17)*%
X120500000Y-112905000D03*
%TO.P,U1,J3_18,SD0_J3_18*%
%TO.N,unconnected-(U1-SD0-PadJ3_18)*%
X120500000Y-115445000D03*
%TO.P,U1,J3_19,CLK_J3_19*%
%TO.N,unconnected-(U1-CLK-PadJ3_19)*%
X120500000Y-117985000D03*
%TD*%
D10*
%TO.P,R16,1*%
%TO.N,IO 12*%
X131000000Y-106000000D03*
%TO.P,R16,2*%
%TO.N,GND*%
X131000000Y-116160000D03*
%TD*%
%TO.P,R25,1*%
%TO.N,GPIO 21*%
X193630000Y-70710000D03*
%TO.P,R25,2*%
%TO.N,Net-(J20-Pad2)*%
X183470000Y-70710000D03*
%TD*%
%TO.P,R20,1*%
%TO.N,Net-(Q3-G)*%
X166800000Y-129000000D03*
%TO.P,R20,2*%
%TO.N,GND*%
X166800000Y-118840000D03*
%TD*%
D21*
%TO.P,J3,1,Pin_1_1*%
%TO.N,GND*%
X189300000Y-146600000D03*
D22*
%TO.P,J3,2,Pin_2_2*%
%TO.N,+12V*%
X191840000Y-146600000D03*
%TO.P,J3,3,Pin_3_3*%
%TO.N,IO 33*%
X194380000Y-146600000D03*
%TO.P,J3,4,Pin_4_4*%
%TO.N,Net-(J3-Pin_4)*%
X196920000Y-146600000D03*
%TD*%
D10*
%TO.P,R11,1*%
%TO.N,IO 19*%
X181500000Y-129500000D03*
%TO.P,R11,2*%
%TO.N,GND*%
X181500000Y-139660000D03*
%TD*%
%TO.P,R15,1*%
%TO.N,IO 13*%
X136100000Y-106000000D03*
%TO.P,R15,2*%
%TO.N,GND*%
X136100000Y-116160000D03*
%TD*%
D40*
%TO.P,F4,1*%
%TO.N,Net-(F4-Pad1)*%
X223675812Y-72773103D03*
%TO.P,F4,2*%
%TO.N,+5V*%
X214375812Y-72773103D03*
%TD*%
D41*
%TO.P,F3,1*%
%TO.N,+12V*%
X208570000Y-92900000D03*
%TO.P,F3,2*%
%TO.N,/Power Distribution/12V_FUSED_MAIN*%
X217870000Y-92900000D03*
%TD*%
D10*
%TO.P,R4,1*%
%TO.N,Net-(U1-3V3)*%
X67840000Y-66130000D03*
%TO.P,R4,2*%
%TO.N,IO 35*%
X67840000Y-76290000D03*
%TD*%
D21*
%TO.P,J2,1,Pin_1_1*%
%TO.N,GND*%
X177000000Y-146600000D03*
D22*
%TO.P,J2,2,Pin_2_2*%
%TO.N,+12V*%
X179540000Y-146600000D03*
%TO.P,J2,3,Pin_3_3*%
%TO.N,IO 32*%
X182080000Y-146600000D03*
%TO.P,J2,4,Pin_4_4*%
%TO.N,Net-(J2-Pin_4)*%
X184620000Y-146600000D03*
%TD*%
D10*
%TO.P,R26,1*%
%TO.N,GND*%
X178960000Y-80490000D03*
%TO.P,R26,2*%
%TO.N,Net-(J20-Pad2)*%
X178960000Y-70330000D03*
%TD*%
D19*
%TO.P,J20,1,1_1*%
%TO.N,3V3*%
X168070000Y-73910000D03*
D20*
%TO.P,J20,2,2_2*%
%TO.N,Net-(J20-Pad2)*%
X168070000Y-71410000D03*
%TD*%
D27*
%TO.P,Q1,1,G_1*%
%TO.N,Net-(Q1-G)*%
X147000000Y-133500000D03*
D28*
%TO.P,Q1,2,D_2*%
%TO.N,Net-(Q1-D)*%
X147000000Y-136040000D03*
%TO.P,Q1,3,S_3*%
%TO.N,GND*%
X147000000Y-138580000D03*
%TD*%
D42*
%TO.P,C6,1*%
%TO.N,+12V*%
X199700000Y-103300000D03*
D36*
%TO.P,C6,2*%
%TO.N,GND*%
X194700000Y-103300000D03*
%TD*%
D10*
%TO.P,R27,1*%
%TO.N,Net-(J11-Pin_2)*%
X233900000Y-126040000D03*
%TO.P,R27,2*%
%TO.N,GND*%
X233900000Y-136200000D03*
%TD*%
D11*
%TO.P,J21,1,Pin_1_1*%
%TO.N,+5V*%
X58250000Y-99640000D03*
D12*
%TO.P,J21,2,Pin_2_2*%
%TO.N,GPIO 2*%
X58250000Y-102180000D03*
%TO.P,J21,3,Pin_3_3*%
%TO.N,GPIO 3*%
X58250000Y-104720000D03*
%TO.P,J21,4,Pin_4_4*%
%TO.N,GPIO 10*%
X58250000Y-107260000D03*
%TO.P,J21,5,Pin_5_5*%
%TO.N,GPIO 9*%
X58250000Y-109800000D03*
%TO.P,J21,6,Pin_6_6*%
%TO.N,GPIO 11*%
X58250000Y-112340000D03*
%TO.P,J21,7,Pin_7_7*%
%TO.N,GPIO 23*%
X58250000Y-114880000D03*
%TO.P,J21,8,Pin_8_8*%
%TO.N,GPIO 24*%
X58250000Y-117420000D03*
%TO.P,J21,9,Pin_9_9*%
%TO.N,GPIO 7*%
X58250000Y-119960000D03*
%TO.P,J21,10,Pin_10_10*%
%TO.N,GND*%
X58250000Y-122500000D03*
%TD*%
D43*
%TO.N,GPIO 3*%
X60069390Y-56700000D03*
X54400000Y-84400000D03*
X54400000Y-92400000D03*
%TO.N,IO 18*%
X179140000Y-127840000D03*
%TO.N,GPIO 27*%
X73040000Y-126480000D03*
%TO.N,IO 32*%
X72090000Y-137260000D03*
X71980000Y-106700000D03*
%TO.N,GPIO 5*%
X65800000Y-127900000D03*
X45200000Y-124600000D03*
%TO.N,IO 22*%
X207000000Y-141250000D03*
X208310000Y-142660000D03*
%TO.N,IO 33*%
X70000000Y-106000000D03*
%TO.N,GPIO 6*%
X69400000Y-135600000D03*
%TO.N,GPIO 22*%
X34900000Y-94600000D03*
%TO.N,GPIO 20*%
X94700000Y-63400000D03*
X87050000Y-92050000D03*
X111390000Y-58600000D03*
%TO.N,IO 14*%
X77620000Y-113700000D03*
%TO.N,GPIO 23*%
X62000000Y-109800000D03*
%TO.N,GPIO 10*%
X41400000Y-118900000D03*
X38300000Y-107100000D03*
%TO.N,GPIO 9*%
X52700000Y-116300000D03*
X50500000Y-116700000D03*
X39600000Y-104600000D03*
X43500000Y-119500000D03*
%TO.N,GPIO 11*%
X37800000Y-119200000D03*
%TO.N,GPIO 12*%
X50800000Y-91300000D03*
X50800000Y-80100000D03*
X51600000Y-64800000D03*
%TO.N,GPIO 13*%
X40400000Y-108600000D03*
%TO.N,GPIO 16*%
X53500000Y-97800000D03*
X49430000Y-107530000D03*
%TO.N,GPIO 26*%
X43000000Y-56000000D03*
X33800000Y-112400000D03*
X33800000Y-104400000D03*
%TO.N,GPIO 21*%
X96800000Y-63400000D03*
X100550000Y-59650000D03*
X89400000Y-92000000D03*
%TO.N,IO 12*%
X120700000Y-121300000D03*
X118300000Y-123700000D03*
%TO.N,Net-(Q1-G)*%
X152950000Y-128550000D03*
X153500000Y-124800000D03*
%TD*%
%TO.N,GPIO 3*%
D44*
X54500000Y-100970000D02*
X58250000Y-104720000D01*
X54400000Y-84400000D02*
X54400000Y-63800000D01*
X54400000Y-63800000D02*
X47300000Y-56700000D01*
X38600000Y-65400000D02*
X47300000Y-56700000D01*
X54400000Y-92400000D02*
X54500000Y-92500000D01*
X38600000Y-68400000D02*
X38600000Y-65400000D01*
X43260000Y-73060000D02*
X38600000Y-68400000D01*
X54500000Y-92500000D02*
X54500000Y-100970000D01*
X47300000Y-56700000D02*
X60069390Y-56700000D01*
%TO.N,IO 34*%
D45*
X175100000Y-99600000D02*
X168180000Y-92680000D01*
X114800000Y-60500000D02*
X85450000Y-60500000D01*
X231000000Y-132150000D02*
X225690000Y-126840000D01*
X138450000Y-84150000D02*
X114800000Y-60500000D01*
X209380000Y-149380000D02*
X211400000Y-151400000D01*
X231000000Y-149300000D02*
X231000000Y-132150000D01*
X228900000Y-151400000D02*
X231000000Y-149300000D01*
X194530000Y-115330000D02*
X178800000Y-99600000D01*
X209380000Y-146700000D02*
X209380000Y-149380000D01*
X85450000Y-60500000D02*
X77050000Y-68900000D01*
X209380000Y-146700000D02*
X209400000Y-146720000D01*
X215655685Y-119900000D02*
X211085685Y-115330000D01*
X225690000Y-120990000D02*
X224600000Y-119900000D01*
X224600000Y-119900000D02*
X215655685Y-119900000D01*
X211400000Y-151400000D02*
X228900000Y-151400000D01*
X178800000Y-99600000D02*
X175100000Y-99600000D01*
X77050000Y-68900000D02*
X71160000Y-68900000D01*
X211085685Y-115330000D02*
X194530000Y-115330000D01*
X225690000Y-126840000D02*
X225690000Y-120990000D01*
X168180000Y-92680000D02*
X139870000Y-92680000D01*
X139870000Y-92680000D02*
X138450000Y-91260000D01*
X138450000Y-91260000D02*
X138450000Y-84150000D01*
%TO.N,Net-(Q3-D)*%
D46*
X165985169Y-136727500D02*
X164900000Y-137812669D01*
X161300000Y-142100000D02*
X155900000Y-142100000D01*
X150675000Y-142100000D02*
X145450000Y-147325000D01*
X166800000Y-136040000D02*
X166112500Y-136727500D01*
X155900000Y-142100000D02*
X157000000Y-143200000D01*
X157000000Y-143200000D02*
X157000000Y-145275000D01*
X164900000Y-137812669D02*
X164900000Y-138500000D01*
X145450000Y-147325000D02*
X145450000Y-147425000D01*
X164900000Y-138500000D02*
X161300000Y-142100000D01*
X155900000Y-142100000D02*
X150675000Y-142100000D01*
X166112500Y-136727500D02*
X165985169Y-136727500D01*
X159050000Y-147325000D02*
X159650000Y-147325000D01*
X157000000Y-145275000D02*
X159050000Y-147325000D01*
%TO.N,IO 18*%
D45*
X187960000Y-133040000D02*
X188950000Y-133040000D01*
X179140000Y-127840000D02*
X184860000Y-127840000D01*
X184860000Y-127840000D02*
X186640000Y-129620000D01*
X186640000Y-131720000D02*
X187960000Y-133040000D01*
X186640000Y-129620000D02*
X186640000Y-131720000D01*
%TO.N,SDA_5V*%
D47*
X169000000Y-59900000D02*
X171900000Y-57000000D01*
D45*
X172000000Y-56900000D02*
X171900000Y-57000000D01*
D47*
X152360000Y-62000000D02*
X155000000Y-59360000D01*
X158400000Y-59900000D02*
X169000000Y-59900000D01*
X155000000Y-56500000D02*
X158400000Y-59900000D01*
X155000000Y-59360000D02*
X155000000Y-56500000D01*
D45*
X172000000Y-51000000D02*
X172000000Y-56900000D01*
D47*
X144260000Y-62000000D02*
X152360000Y-62000000D01*
X144200000Y-62060000D02*
X144260000Y-62000000D01*
X171900000Y-51600000D02*
X172500000Y-51000000D01*
X155000000Y-56500000D02*
X155000000Y-51000000D01*
%TO.N,IO 35*%
D45*
X77200000Y-70800000D02*
X73330000Y-70800000D01*
X137190000Y-92450000D02*
X137190000Y-84190000D01*
X222280000Y-145680000D02*
X213570000Y-136970000D01*
X114600000Y-61600000D02*
X86400000Y-61600000D01*
X167460000Y-93560000D02*
X138290000Y-93560000D01*
X174000000Y-100100000D02*
X167460000Y-93560000D01*
X213570000Y-118380000D02*
X210920000Y-115730000D01*
X213570000Y-136970000D02*
X213570000Y-118380000D01*
X137190000Y-84190000D02*
X114600000Y-61600000D01*
X210920000Y-115730000D02*
X193430000Y-115730000D01*
X193430000Y-115730000D02*
X177800000Y-100100000D01*
X222280000Y-146800000D02*
X221980000Y-146800000D01*
X73330000Y-70800000D02*
X67840000Y-76290000D01*
X138290000Y-93560000D02*
X137185000Y-92455000D01*
X86400000Y-61600000D02*
X77200000Y-70800000D01*
X177800000Y-100100000D02*
X174000000Y-100100000D01*
X222280000Y-146500000D02*
X222280000Y-145680000D01*
X221980000Y-146800000D02*
X222280000Y-146500000D01*
X137185000Y-92455000D02*
X137190000Y-92450000D01*
%TO.N,GPIO 27*%
D44*
X81330000Y-134770000D02*
X81330000Y-138420000D01*
X81330000Y-138420000D02*
X83410000Y-140500000D01*
X89000000Y-140500000D02*
X84950000Y-140500000D01*
X73040000Y-126480000D02*
X81330000Y-134770000D01*
X83410000Y-140500000D02*
X84950000Y-140500000D01*
%TO.N,IO 32*%
D45*
X64450000Y-83790000D02*
X72410000Y-83790000D01*
X71980000Y-106700000D02*
X71980000Y-137150000D01*
X71980000Y-137150000D02*
X72090000Y-137260000D01*
X72410000Y-83790000D02*
X73950000Y-85330000D01*
%TO.N,GPIO 5*%
D44*
X48500000Y-127900000D02*
X45200000Y-124600000D01*
X65800000Y-127900000D02*
X48500000Y-127900000D01*
%TO.N,IO 22*%
D45*
X207000000Y-141250000D02*
X207000000Y-141350000D01*
X207000000Y-141350000D02*
X208310000Y-142660000D01*
%TO.N,IO 33*%
X60970000Y-91380000D02*
X72230000Y-91380000D01*
X70000000Y-106000000D02*
X70000000Y-147870000D01*
X70000000Y-147870000D02*
X72630000Y-150500000D01*
X72630000Y-150500000D02*
X190910000Y-150500000D01*
X72230000Y-91380000D02*
X73950000Y-89660000D01*
X190910000Y-150500000D02*
X194380000Y-147030000D01*
X194380000Y-147030000D02*
X194380000Y-146600000D01*
%TO.N,GPIO 6*%
D44*
X67530000Y-142400000D02*
X42500000Y-142400000D01*
X40200000Y-110300000D02*
X42010000Y-108490000D01*
X43260000Y-106340000D02*
X43260000Y-106080000D01*
X32900000Y-111800000D02*
X34400000Y-110300000D01*
X42500000Y-142400000D02*
X32900000Y-132800000D01*
X68400000Y-136600000D02*
X68400000Y-141530000D01*
X32900000Y-132800000D02*
X32900000Y-111800000D01*
X34400000Y-110300000D02*
X40200000Y-110300000D01*
X42010000Y-108490000D02*
X42010000Y-107330000D01*
X68400000Y-141530000D02*
X67530000Y-142400000D01*
X42010000Y-107330000D02*
X43260000Y-106080000D01*
X69400000Y-135600000D02*
X68400000Y-136600000D01*
%TO.N,GPIO 22*%
X34900000Y-94600000D02*
X43260000Y-86240000D01*
X55950000Y-140500000D02*
X60000000Y-140500000D01*
X43260000Y-86240000D02*
X43260000Y-85760000D01*
%TO.N,GPIO 20*%
X88500000Y-90500000D02*
X88500000Y-69600000D01*
X88500000Y-69600000D02*
X94700000Y-63400000D01*
X87050000Y-92050000D02*
X87050000Y-91950000D01*
X137550000Y-81450000D02*
X147820000Y-81450000D01*
X87050000Y-91950000D02*
X88500000Y-90500000D01*
X136850000Y-80750000D02*
X114700000Y-58600000D01*
X136850000Y-80750000D02*
X137550000Y-81450000D01*
X114700000Y-58600000D02*
X111390000Y-58600000D01*
%TO.N,IO 14*%
D45*
X131660000Y-125870000D02*
X140270000Y-117260000D01*
X80450000Y-125870000D02*
X131660000Y-125870000D01*
X77620000Y-113700000D02*
X77570000Y-113750000D01*
X77570000Y-113750000D02*
X77570000Y-122990000D01*
X155240000Y-117260000D02*
X162730000Y-109770000D01*
X77570000Y-122990000D02*
X80450000Y-125870000D01*
X140270000Y-117260000D02*
X155240000Y-117260000D01*
X162730000Y-109770000D02*
X162730000Y-109730000D01*
%TO.N,GPIO 14*%
D44*
X49200000Y-79000000D02*
X45800000Y-75600000D01*
X94715000Y-94740000D02*
X82810000Y-94740000D01*
D45*
X82810000Y-94740000D02*
X82820000Y-94750000D01*
X95100000Y-95125000D02*
X94715000Y-94740000D01*
D44*
X67400000Y-100300000D02*
X49200000Y-82100000D01*
X77270000Y-100300000D02*
X67400000Y-100300000D01*
X82820000Y-94750000D02*
X77270000Y-100300000D01*
X49200000Y-82100000D02*
X49200000Y-79000000D01*
%TO.N,GPIO 15*%
X48000000Y-82400000D02*
X48000000Y-80340000D01*
X78500000Y-101500000D02*
X67100000Y-101500000D01*
X67100000Y-101500000D02*
X48000000Y-82400000D01*
X82335000Y-97665000D02*
X78500000Y-101500000D01*
X95100000Y-97665000D02*
X82335000Y-97665000D01*
X48000000Y-80340000D02*
X45800000Y-78140000D01*
%TO.N,GPIO 23*%
X62000000Y-97780000D02*
X61980000Y-97780000D01*
X62000000Y-109800000D02*
X62000000Y-97780000D01*
X53500000Y-89300000D02*
X49340000Y-89300000D01*
X49340000Y-89300000D02*
X45800000Y-85760000D01*
X61980000Y-97780000D02*
X53500000Y-89300000D01*
%TO.N,GPIO 10*%
X51600000Y-113900000D02*
X57000000Y-108500000D01*
X43200000Y-120700000D02*
X48600000Y-120700000D01*
X48600000Y-120700000D02*
X51600000Y-117700000D01*
X38300000Y-95800000D02*
X43260000Y-90840000D01*
X38300000Y-107100000D02*
X38300000Y-95800000D01*
X51600000Y-117700000D02*
X51600000Y-113900000D01*
X41400000Y-118900000D02*
X43200000Y-120700000D01*
X57000000Y-108500000D02*
X57010000Y-108500000D01*
X57010000Y-108500000D02*
X58250000Y-107260000D01*
%TO.N,unconnected-(J10-Pin_20-Pad20)*%
D47*
X45800000Y-90840000D02*
X46660000Y-90840000D01*
%TO.N,GPIO 9*%
D44*
X39600000Y-104600000D02*
X39600000Y-97040000D01*
X53200000Y-114850000D02*
X58250000Y-109800000D01*
X52700000Y-116300000D02*
X53200000Y-115800000D01*
X47700000Y-119500000D02*
X50500000Y-116700000D01*
X39600000Y-97040000D02*
X43260000Y-93380000D01*
X43500000Y-119500000D02*
X47700000Y-119500000D01*
X53200000Y-115800000D02*
X53200000Y-114850000D01*
%TO.N,GPIO 11*%
X39900000Y-121300000D02*
X37800000Y-119200000D01*
X58250000Y-112340000D02*
X49290000Y-121300000D01*
X49290000Y-121300000D02*
X39900000Y-121300000D01*
%TO.N,GPIO 12*%
X51600000Y-64800000D02*
X51600000Y-79300000D01*
X50800000Y-91300000D02*
X50800000Y-101080000D01*
X51600000Y-79300000D02*
X50800000Y-80100000D01*
X50800000Y-101080000D02*
X45800000Y-106080000D01*
%TO.N,GPIO 13*%
X40400000Y-108600000D02*
X40394975Y-108605025D01*
X32800000Y-105200000D02*
X32800000Y-63530000D01*
X36205025Y-108605025D02*
X32800000Y-105200000D01*
X40394975Y-108605025D02*
X36205025Y-108605025D01*
X32800000Y-63530000D02*
X44220000Y-52110000D01*
%TO.N,GPIO 16*%
X49430000Y-107370000D02*
X53500000Y-103300000D01*
X49430000Y-107530000D02*
X49430000Y-107370000D01*
X53500000Y-103300000D02*
X53500000Y-97800000D01*
%TO.N,GPIO 26*%
X33800000Y-90400000D02*
X37100000Y-87100000D01*
X35200000Y-113800000D02*
X43160000Y-113800000D01*
X37100000Y-61700000D02*
X42800000Y-56000000D01*
X33800000Y-104400000D02*
X33800000Y-90400000D01*
X33800000Y-112400000D02*
X35200000Y-113800000D01*
X43160000Y-113800000D02*
X43260000Y-113700000D01*
X42800000Y-56000000D02*
X43000000Y-56000000D01*
X37100000Y-87100000D02*
X37100000Y-61700000D01*
%TO.N,GPIO 21*%
X104000000Y-56300000D02*
X120060000Y-56300000D01*
X89400000Y-70800000D02*
X96800000Y-63400000D01*
X187980000Y-65060000D02*
X193630000Y-70710000D01*
X120060000Y-56300000D02*
X128820000Y-65060000D01*
X100650000Y-59650000D02*
X104000000Y-56300000D01*
X89400000Y-92000000D02*
X89400000Y-70800000D01*
X128820000Y-65060000D02*
X187980000Y-65060000D01*
X100550000Y-59650000D02*
X100650000Y-59650000D01*
%TO.N,IO 12*%
D45*
X140800000Y-108700000D02*
X141750000Y-109650000D01*
X141750000Y-109650000D02*
X141770000Y-109630000D01*
X118300000Y-123700000D02*
X120700000Y-121300000D01*
X133500000Y-103500000D02*
X138000000Y-103500000D01*
X142640000Y-109540000D02*
X142730000Y-109630000D01*
X141770000Y-109630000D02*
X142730000Y-109630000D01*
X138000000Y-103500000D02*
X140800000Y-106300000D01*
X140800000Y-106300000D02*
X140800000Y-108700000D01*
X131000000Y-106000000D02*
X133500000Y-103500000D01*
%TO.N,Net-(Q1-G)*%
D48*
X153500000Y-128000000D02*
X153500000Y-124800000D01*
X152950000Y-128550000D02*
X153500000Y-128000000D01*
%TD*%
M02*
