%TF.GenerationSoftware,KiCad,Pcbnew,10.0.3*%
%TF.CreationDate,2026-08-20T22:22:51+01:00*%
%TF.ProjectId,VertiFarm_PCB,56657274-6946-4617-926d-5f5043422e6b,rev?*%
%TF.SameCoordinates,Original*%
%TF.FileFunction,Legend,Top*%
%TF.FilePolarity,Positive*%
%FSLAX46Y46*%
G04 Gerber Fmt 4.6, Leading zero omitted, Abs format (unit mm)*
G04 Created by KiCad (PCBNEW 10.0.3) date 2026-08-20 22:22:51*
%MOMM*%
%LPD*%
G01*
G04 APERTURE LIST*
%ADD10C,0.400000*%
%ADD11C,0.150000*%
%ADD12C,0.254000*%
%ADD13C,0.120000*%
%ADD14C,0.100000*%
%ADD15C,0.200000*%
%ADD16C,0.127000*%
%ADD17C,0.000000*%
G04 APERTURE END LIST*
D10*
X181853633Y-55434438D02*
X182520299Y-57434438D01*
X182520299Y-57434438D02*
X183186966Y-55434438D01*
X184615538Y-57339200D02*
X184425062Y-57434438D01*
X184425062Y-57434438D02*
X184044109Y-57434438D01*
X184044109Y-57434438D02*
X183853633Y-57339200D01*
X183853633Y-57339200D02*
X183758395Y-57148723D01*
X183758395Y-57148723D02*
X183758395Y-56386819D01*
X183758395Y-56386819D02*
X183853633Y-56196342D01*
X183853633Y-56196342D02*
X184044109Y-56101104D01*
X184044109Y-56101104D02*
X184425062Y-56101104D01*
X184425062Y-56101104D02*
X184615538Y-56196342D01*
X184615538Y-56196342D02*
X184710776Y-56386819D01*
X184710776Y-56386819D02*
X184710776Y-56577295D01*
X184710776Y-56577295D02*
X183758395Y-56767771D01*
X185567919Y-57434438D02*
X185567919Y-56101104D01*
X185567919Y-56482057D02*
X185663157Y-56291580D01*
X185663157Y-56291580D02*
X185758395Y-56196342D01*
X185758395Y-56196342D02*
X185948871Y-56101104D01*
X185948871Y-56101104D02*
X186139348Y-56101104D01*
X186520300Y-56101104D02*
X187282204Y-56101104D01*
X186806014Y-55434438D02*
X186806014Y-57148723D01*
X186806014Y-57148723D02*
X186901252Y-57339200D01*
X186901252Y-57339200D02*
X187091728Y-57434438D01*
X187091728Y-57434438D02*
X187282204Y-57434438D01*
X187948871Y-57434438D02*
X187948871Y-56101104D01*
X187948871Y-55434438D02*
X187853633Y-55529676D01*
X187853633Y-55529676D02*
X187948871Y-55624914D01*
X187948871Y-55624914D02*
X188044109Y-55529676D01*
X188044109Y-55529676D02*
X187948871Y-55434438D01*
X187948871Y-55434438D02*
X187948871Y-55624914D01*
X189567919Y-56386819D02*
X188901252Y-56386819D01*
X188901252Y-57434438D02*
X188901252Y-55434438D01*
X188901252Y-55434438D02*
X189853633Y-55434438D01*
X191472681Y-57434438D02*
X191472681Y-56386819D01*
X191472681Y-56386819D02*
X191377443Y-56196342D01*
X191377443Y-56196342D02*
X191186967Y-56101104D01*
X191186967Y-56101104D02*
X190806014Y-56101104D01*
X190806014Y-56101104D02*
X190615538Y-56196342D01*
X191472681Y-57339200D02*
X191282205Y-57434438D01*
X191282205Y-57434438D02*
X190806014Y-57434438D01*
X190806014Y-57434438D02*
X190615538Y-57339200D01*
X190615538Y-57339200D02*
X190520300Y-57148723D01*
X190520300Y-57148723D02*
X190520300Y-56958247D01*
X190520300Y-56958247D02*
X190615538Y-56767771D01*
X190615538Y-56767771D02*
X190806014Y-56672533D01*
X190806014Y-56672533D02*
X191282205Y-56672533D01*
X191282205Y-56672533D02*
X191472681Y-56577295D01*
X192425062Y-57434438D02*
X192425062Y-56101104D01*
X192425062Y-56482057D02*
X192520300Y-56291580D01*
X192520300Y-56291580D02*
X192615538Y-56196342D01*
X192615538Y-56196342D02*
X192806014Y-56101104D01*
X192806014Y-56101104D02*
X192996491Y-56101104D01*
X193663157Y-57434438D02*
X193663157Y-56101104D01*
X193663157Y-56291580D02*
X193758395Y-56196342D01*
X193758395Y-56196342D02*
X193948871Y-56101104D01*
X193948871Y-56101104D02*
X194234586Y-56101104D01*
X194234586Y-56101104D02*
X194425062Y-56196342D01*
X194425062Y-56196342D02*
X194520300Y-56386819D01*
X194520300Y-56386819D02*
X194520300Y-57434438D01*
X194520300Y-56386819D02*
X194615538Y-56196342D01*
X194615538Y-56196342D02*
X194806014Y-56101104D01*
X194806014Y-56101104D02*
X195091728Y-56101104D01*
X195091728Y-56101104D02*
X195282205Y-56196342D01*
X195282205Y-56196342D02*
X195377443Y-56386819D01*
X195377443Y-56386819D02*
X195377443Y-57434438D01*
D11*
X206589580Y-59366666D02*
X206637200Y-59414285D01*
X206637200Y-59414285D02*
X206684819Y-59557142D01*
X206684819Y-59557142D02*
X206684819Y-59652380D01*
X206684819Y-59652380D02*
X206637200Y-59795237D01*
X206637200Y-59795237D02*
X206541961Y-59890475D01*
X206541961Y-59890475D02*
X206446723Y-59938094D01*
X206446723Y-59938094D02*
X206256247Y-59985713D01*
X206256247Y-59985713D02*
X206113390Y-59985713D01*
X206113390Y-59985713D02*
X205922914Y-59938094D01*
X205922914Y-59938094D02*
X205827676Y-59890475D01*
X205827676Y-59890475D02*
X205732438Y-59795237D01*
X205732438Y-59795237D02*
X205684819Y-59652380D01*
X205684819Y-59652380D02*
X205684819Y-59557142D01*
X205684819Y-59557142D02*
X205732438Y-59414285D01*
X205732438Y-59414285D02*
X205780057Y-59366666D01*
X206113390Y-58795237D02*
X206065771Y-58890475D01*
X206065771Y-58890475D02*
X206018152Y-58938094D01*
X206018152Y-58938094D02*
X205922914Y-58985713D01*
X205922914Y-58985713D02*
X205875295Y-58985713D01*
X205875295Y-58985713D02*
X205780057Y-58938094D01*
X205780057Y-58938094D02*
X205732438Y-58890475D01*
X205732438Y-58890475D02*
X205684819Y-58795237D01*
X205684819Y-58795237D02*
X205684819Y-58604761D01*
X205684819Y-58604761D02*
X205732438Y-58509523D01*
X205732438Y-58509523D02*
X205780057Y-58461904D01*
X205780057Y-58461904D02*
X205875295Y-58414285D01*
X205875295Y-58414285D02*
X205922914Y-58414285D01*
X205922914Y-58414285D02*
X206018152Y-58461904D01*
X206018152Y-58461904D02*
X206065771Y-58509523D01*
X206065771Y-58509523D02*
X206113390Y-58604761D01*
X206113390Y-58604761D02*
X206113390Y-58795237D01*
X206113390Y-58795237D02*
X206161009Y-58890475D01*
X206161009Y-58890475D02*
X206208628Y-58938094D01*
X206208628Y-58938094D02*
X206303866Y-58985713D01*
X206303866Y-58985713D02*
X206494342Y-58985713D01*
X206494342Y-58985713D02*
X206589580Y-58938094D01*
X206589580Y-58938094D02*
X206637200Y-58890475D01*
X206637200Y-58890475D02*
X206684819Y-58795237D01*
X206684819Y-58795237D02*
X206684819Y-58604761D01*
X206684819Y-58604761D02*
X206637200Y-58509523D01*
X206637200Y-58509523D02*
X206589580Y-58461904D01*
X206589580Y-58461904D02*
X206494342Y-58414285D01*
X206494342Y-58414285D02*
X206303866Y-58414285D01*
X206303866Y-58414285D02*
X206208628Y-58461904D01*
X206208628Y-58461904D02*
X206161009Y-58509523D01*
X206161009Y-58509523D02*
X206113390Y-58604761D01*
X130690476Y-46542295D02*
X130690476Y-47113723D01*
X130690476Y-47113723D02*
X130642857Y-47228009D01*
X130642857Y-47228009D02*
X130547619Y-47304200D01*
X130547619Y-47304200D02*
X130404762Y-47342295D01*
X130404762Y-47342295D02*
X130309524Y-47342295D01*
X131071429Y-46542295D02*
X131690476Y-46542295D01*
X131690476Y-46542295D02*
X131357143Y-46847057D01*
X131357143Y-46847057D02*
X131500000Y-46847057D01*
X131500000Y-46847057D02*
X131595238Y-46885152D01*
X131595238Y-46885152D02*
X131642857Y-46923247D01*
X131642857Y-46923247D02*
X131690476Y-46999438D01*
X131690476Y-46999438D02*
X131690476Y-47189914D01*
X131690476Y-47189914D02*
X131642857Y-47266104D01*
X131642857Y-47266104D02*
X131595238Y-47304200D01*
X131595238Y-47304200D02*
X131500000Y-47342295D01*
X131500000Y-47342295D02*
X131214286Y-47342295D01*
X131214286Y-47342295D02*
X131119048Y-47304200D01*
X131119048Y-47304200D02*
X131071429Y-47266104D01*
X132023810Y-46542295D02*
X132642857Y-46542295D01*
X132642857Y-46542295D02*
X132309524Y-46847057D01*
X132309524Y-46847057D02*
X132452381Y-46847057D01*
X132452381Y-46847057D02*
X132547619Y-46885152D01*
X132547619Y-46885152D02*
X132595238Y-46923247D01*
X132595238Y-46923247D02*
X132642857Y-46999438D01*
X132642857Y-46999438D02*
X132642857Y-47189914D01*
X132642857Y-47189914D02*
X132595238Y-47266104D01*
X132595238Y-47266104D02*
X132547619Y-47304200D01*
X132547619Y-47304200D02*
X132452381Y-47342295D01*
X132452381Y-47342295D02*
X132166667Y-47342295D01*
X132166667Y-47342295D02*
X132071429Y-47304200D01*
X132071429Y-47304200D02*
X132023810Y-47266104D01*
D12*
X216976667Y-55379318D02*
X216976667Y-56286461D01*
X216976667Y-56286461D02*
X216916190Y-56467889D01*
X216916190Y-56467889D02*
X216795238Y-56588842D01*
X216795238Y-56588842D02*
X216613809Y-56649318D01*
X216613809Y-56649318D02*
X216492857Y-56649318D01*
X217762857Y-55923603D02*
X217641905Y-55863127D01*
X217641905Y-55863127D02*
X217581428Y-55802651D01*
X217581428Y-55802651D02*
X217520952Y-55681699D01*
X217520952Y-55681699D02*
X217520952Y-55621222D01*
X217520952Y-55621222D02*
X217581428Y-55500270D01*
X217581428Y-55500270D02*
X217641905Y-55439794D01*
X217641905Y-55439794D02*
X217762857Y-55379318D01*
X217762857Y-55379318D02*
X218004762Y-55379318D01*
X218004762Y-55379318D02*
X218125714Y-55439794D01*
X218125714Y-55439794D02*
X218186190Y-55500270D01*
X218186190Y-55500270D02*
X218246667Y-55621222D01*
X218246667Y-55621222D02*
X218246667Y-55681699D01*
X218246667Y-55681699D02*
X218186190Y-55802651D01*
X218186190Y-55802651D02*
X218125714Y-55863127D01*
X218125714Y-55863127D02*
X218004762Y-55923603D01*
X218004762Y-55923603D02*
X217762857Y-55923603D01*
X217762857Y-55923603D02*
X217641905Y-55984080D01*
X217641905Y-55984080D02*
X217581428Y-56044556D01*
X217581428Y-56044556D02*
X217520952Y-56165508D01*
X217520952Y-56165508D02*
X217520952Y-56407413D01*
X217520952Y-56407413D02*
X217581428Y-56528365D01*
X217581428Y-56528365D02*
X217641905Y-56588842D01*
X217641905Y-56588842D02*
X217762857Y-56649318D01*
X217762857Y-56649318D02*
X218004762Y-56649318D01*
X218004762Y-56649318D02*
X218125714Y-56588842D01*
X218125714Y-56588842D02*
X218186190Y-56528365D01*
X218186190Y-56528365D02*
X218246667Y-56407413D01*
X218246667Y-56407413D02*
X218246667Y-56165508D01*
X218246667Y-56165508D02*
X218186190Y-56044556D01*
X218186190Y-56044556D02*
X218125714Y-55984080D01*
X218125714Y-55984080D02*
X218004762Y-55923603D01*
X232876667Y-86604318D02*
X232876667Y-87511461D01*
X232876667Y-87511461D02*
X232816190Y-87692889D01*
X232816190Y-87692889D02*
X232695238Y-87813842D01*
X232695238Y-87813842D02*
X232513809Y-87874318D01*
X232513809Y-87874318D02*
X232392857Y-87874318D01*
X233360476Y-86604318D02*
X234207143Y-86604318D01*
X234207143Y-86604318D02*
X233662857Y-87874318D01*
D11*
X78963333Y-73744819D02*
X78630000Y-73268628D01*
X78391905Y-73744819D02*
X78391905Y-72744819D01*
X78391905Y-72744819D02*
X78772857Y-72744819D01*
X78772857Y-72744819D02*
X78868095Y-72792438D01*
X78868095Y-72792438D02*
X78915714Y-72840057D01*
X78915714Y-72840057D02*
X78963333Y-72935295D01*
X78963333Y-72935295D02*
X78963333Y-73078152D01*
X78963333Y-73078152D02*
X78915714Y-73173390D01*
X78915714Y-73173390D02*
X78868095Y-73221009D01*
X78868095Y-73221009D02*
X78772857Y-73268628D01*
X78772857Y-73268628D02*
X78391905Y-73268628D01*
X79296667Y-72744819D02*
X79963333Y-72744819D01*
X79963333Y-72744819D02*
X79534762Y-73744819D01*
X162785095Y-142359439D02*
X162785095Y-143034355D01*
X162785095Y-143034355D02*
X162740100Y-143169338D01*
X162740100Y-143169338D02*
X162650112Y-143259327D01*
X162650112Y-143259327D02*
X162515128Y-143304321D01*
X162515128Y-143304321D02*
X162425140Y-143304321D01*
X163145050Y-142359439D02*
X163729977Y-142359439D01*
X163729977Y-142359439D02*
X163415016Y-142719394D01*
X163415016Y-142719394D02*
X163549999Y-142719394D01*
X163549999Y-142719394D02*
X163639988Y-142764388D01*
X163639988Y-142764388D02*
X163684982Y-142809383D01*
X163684982Y-142809383D02*
X163729977Y-142899371D01*
X163729977Y-142899371D02*
X163729977Y-143124343D01*
X163729977Y-143124343D02*
X163684982Y-143214332D01*
X163684982Y-143214332D02*
X163639988Y-143259327D01*
X163639988Y-143259327D02*
X163549999Y-143304321D01*
X163549999Y-143304321D02*
X163280033Y-143304321D01*
X163280033Y-143304321D02*
X163190044Y-143259327D01*
X163190044Y-143259327D02*
X163145050Y-143214332D01*
X164539876Y-142359439D02*
X164359898Y-142359439D01*
X164359898Y-142359439D02*
X164269910Y-142404433D01*
X164269910Y-142404433D02*
X164224915Y-142449428D01*
X164224915Y-142449428D02*
X164134926Y-142584411D01*
X164134926Y-142584411D02*
X164089932Y-142764388D01*
X164089932Y-142764388D02*
X164089932Y-143124343D01*
X164089932Y-143124343D02*
X164134926Y-143214332D01*
X164134926Y-143214332D02*
X164179921Y-143259327D01*
X164179921Y-143259327D02*
X164269910Y-143304321D01*
X164269910Y-143304321D02*
X164449887Y-143304321D01*
X164449887Y-143304321D02*
X164539876Y-143259327D01*
X164539876Y-143259327D02*
X164584870Y-143214332D01*
X164584870Y-143214332D02*
X164629865Y-143124343D01*
X164629865Y-143124343D02*
X164629865Y-142899371D01*
X164629865Y-142899371D02*
X164584870Y-142809383D01*
X164584870Y-142809383D02*
X164539876Y-142764388D01*
X164539876Y-142764388D02*
X164449887Y-142719394D01*
X164449887Y-142719394D02*
X164269910Y-142719394D01*
X164269910Y-142719394D02*
X164179921Y-142764388D01*
X164179921Y-142764388D02*
X164134926Y-142809383D01*
X164134926Y-142809383D02*
X164089932Y-142899371D01*
X175654819Y-135042857D02*
X175178628Y-135376190D01*
X175654819Y-135614285D02*
X174654819Y-135614285D01*
X174654819Y-135614285D02*
X174654819Y-135233333D01*
X174654819Y-135233333D02*
X174702438Y-135138095D01*
X174702438Y-135138095D02*
X174750057Y-135090476D01*
X174750057Y-135090476D02*
X174845295Y-135042857D01*
X174845295Y-135042857D02*
X174988152Y-135042857D01*
X174988152Y-135042857D02*
X175083390Y-135090476D01*
X175083390Y-135090476D02*
X175131009Y-135138095D01*
X175131009Y-135138095D02*
X175178628Y-135233333D01*
X175178628Y-135233333D02*
X175178628Y-135614285D01*
X175654819Y-134090476D02*
X175654819Y-134661904D01*
X175654819Y-134376190D02*
X174654819Y-134376190D01*
X174654819Y-134376190D02*
X174797676Y-134471428D01*
X174797676Y-134471428D02*
X174892914Y-134566666D01*
X174892914Y-134566666D02*
X174940533Y-134661904D01*
X174750057Y-133709523D02*
X174702438Y-133661904D01*
X174702438Y-133661904D02*
X174654819Y-133566666D01*
X174654819Y-133566666D02*
X174654819Y-133328571D01*
X174654819Y-133328571D02*
X174702438Y-133233333D01*
X174702438Y-133233333D02*
X174750057Y-133185714D01*
X174750057Y-133185714D02*
X174845295Y-133138095D01*
X174845295Y-133138095D02*
X174940533Y-133138095D01*
X174940533Y-133138095D02*
X175083390Y-133185714D01*
X175083390Y-133185714D02*
X175654819Y-133757142D01*
X175654819Y-133757142D02*
X175654819Y-133138095D01*
X33128571Y-138160536D02*
X32795238Y-138160536D01*
X32795238Y-138684346D02*
X32795238Y-137684346D01*
X32795238Y-137684346D02*
X33271428Y-137684346D01*
X33652381Y-138684346D02*
X33652381Y-137684346D01*
X34128571Y-138684346D02*
X34128571Y-137684346D01*
X34128571Y-137684346D02*
X34366666Y-137684346D01*
X34366666Y-137684346D02*
X34509523Y-137731965D01*
X34509523Y-137731965D02*
X34604761Y-137827203D01*
X34604761Y-137827203D02*
X34652380Y-137922441D01*
X34652380Y-137922441D02*
X34699999Y-138112917D01*
X34699999Y-138112917D02*
X34699999Y-138255774D01*
X34699999Y-138255774D02*
X34652380Y-138446250D01*
X34652380Y-138446250D02*
X34604761Y-138541488D01*
X34604761Y-138541488D02*
X34509523Y-138636727D01*
X34509523Y-138636727D02*
X34366666Y-138684346D01*
X34366666Y-138684346D02*
X34128571Y-138684346D01*
X35033333Y-137684346D02*
X35652380Y-137684346D01*
X35652380Y-137684346D02*
X35319047Y-138065298D01*
X35319047Y-138065298D02*
X35461904Y-138065298D01*
X35461904Y-138065298D02*
X35557142Y-138112917D01*
X35557142Y-138112917D02*
X35604761Y-138160536D01*
X35604761Y-138160536D02*
X35652380Y-138255774D01*
X35652380Y-138255774D02*
X35652380Y-138493869D01*
X35652380Y-138493869D02*
X35604761Y-138589107D01*
X35604761Y-138589107D02*
X35557142Y-138636727D01*
X35557142Y-138636727D02*
X35461904Y-138684346D01*
X35461904Y-138684346D02*
X35176190Y-138684346D01*
X35176190Y-138684346D02*
X35080952Y-138636727D01*
X35080952Y-138636727D02*
X35033333Y-138589107D01*
X143390476Y-46542295D02*
X143390476Y-47113723D01*
X143390476Y-47113723D02*
X143342857Y-47228009D01*
X143342857Y-47228009D02*
X143247619Y-47304200D01*
X143247619Y-47304200D02*
X143104762Y-47342295D01*
X143104762Y-47342295D02*
X143009524Y-47342295D01*
X143771429Y-46542295D02*
X144390476Y-46542295D01*
X144390476Y-46542295D02*
X144057143Y-46847057D01*
X144057143Y-46847057D02*
X144200000Y-46847057D01*
X144200000Y-46847057D02*
X144295238Y-46885152D01*
X144295238Y-46885152D02*
X144342857Y-46923247D01*
X144342857Y-46923247D02*
X144390476Y-46999438D01*
X144390476Y-46999438D02*
X144390476Y-47189914D01*
X144390476Y-47189914D02*
X144342857Y-47266104D01*
X144342857Y-47266104D02*
X144295238Y-47304200D01*
X144295238Y-47304200D02*
X144200000Y-47342295D01*
X144200000Y-47342295D02*
X143914286Y-47342295D01*
X143914286Y-47342295D02*
X143819048Y-47304200D01*
X143819048Y-47304200D02*
X143771429Y-47266104D01*
X145247619Y-46808961D02*
X145247619Y-47342295D01*
X145009524Y-46504200D02*
X144771429Y-47075628D01*
X144771429Y-47075628D02*
X145390476Y-47075628D01*
X134239819Y-72553333D02*
X134954104Y-72553333D01*
X134954104Y-72553333D02*
X135096961Y-72600952D01*
X135096961Y-72600952D02*
X135192200Y-72696190D01*
X135192200Y-72696190D02*
X135239819Y-72839047D01*
X135239819Y-72839047D02*
X135239819Y-72934285D01*
X134239819Y-71600952D02*
X134239819Y-72077142D01*
X134239819Y-72077142D02*
X134716009Y-72124761D01*
X134716009Y-72124761D02*
X134668390Y-72077142D01*
X134668390Y-72077142D02*
X134620771Y-71981904D01*
X134620771Y-71981904D02*
X134620771Y-71743809D01*
X134620771Y-71743809D02*
X134668390Y-71648571D01*
X134668390Y-71648571D02*
X134716009Y-71600952D01*
X134716009Y-71600952D02*
X134811247Y-71553333D01*
X134811247Y-71553333D02*
X135049342Y-71553333D01*
X135049342Y-71553333D02*
X135144580Y-71600952D01*
X135144580Y-71600952D02*
X135192200Y-71648571D01*
X135192200Y-71648571D02*
X135239819Y-71743809D01*
X135239819Y-71743809D02*
X135239819Y-71981904D01*
X135239819Y-71981904D02*
X135192200Y-72077142D01*
X135192200Y-72077142D02*
X135144580Y-72124761D01*
X220676666Y-142134819D02*
X220676666Y-142849104D01*
X220676666Y-142849104D02*
X220629047Y-142991961D01*
X220629047Y-142991961D02*
X220533809Y-143087200D01*
X220533809Y-143087200D02*
X220390952Y-143134819D01*
X220390952Y-143134819D02*
X220295714Y-143134819D01*
X221581428Y-142134819D02*
X221390952Y-142134819D01*
X221390952Y-142134819D02*
X221295714Y-142182438D01*
X221295714Y-142182438D02*
X221248095Y-142230057D01*
X221248095Y-142230057D02*
X221152857Y-142372914D01*
X221152857Y-142372914D02*
X221105238Y-142563390D01*
X221105238Y-142563390D02*
X221105238Y-142944342D01*
X221105238Y-142944342D02*
X221152857Y-143039580D01*
X221152857Y-143039580D02*
X221200476Y-143087200D01*
X221200476Y-143087200D02*
X221295714Y-143134819D01*
X221295714Y-143134819D02*
X221486190Y-143134819D01*
X221486190Y-143134819D02*
X221581428Y-143087200D01*
X221581428Y-143087200D02*
X221629047Y-143039580D01*
X221629047Y-143039580D02*
X221676666Y-142944342D01*
X221676666Y-142944342D02*
X221676666Y-142706247D01*
X221676666Y-142706247D02*
X221629047Y-142611009D01*
X221629047Y-142611009D02*
X221581428Y-142563390D01*
X221581428Y-142563390D02*
X221486190Y-142515771D01*
X221486190Y-142515771D02*
X221295714Y-142515771D01*
X221295714Y-142515771D02*
X221200476Y-142563390D01*
X221200476Y-142563390D02*
X221152857Y-142611009D01*
X221152857Y-142611009D02*
X221105238Y-142706247D01*
X50090476Y-142204819D02*
X50090476Y-142919104D01*
X50090476Y-142919104D02*
X50042857Y-143061961D01*
X50042857Y-143061961D02*
X49947619Y-143157200D01*
X49947619Y-143157200D02*
X49804762Y-143204819D01*
X49804762Y-143204819D02*
X49709524Y-143204819D01*
X50519048Y-142300057D02*
X50566667Y-142252438D01*
X50566667Y-142252438D02*
X50661905Y-142204819D01*
X50661905Y-142204819D02*
X50900000Y-142204819D01*
X50900000Y-142204819D02*
X50995238Y-142252438D01*
X50995238Y-142252438D02*
X51042857Y-142300057D01*
X51042857Y-142300057D02*
X51090476Y-142395295D01*
X51090476Y-142395295D02*
X51090476Y-142490533D01*
X51090476Y-142490533D02*
X51042857Y-142633390D01*
X51042857Y-142633390D02*
X50471429Y-143204819D01*
X50471429Y-143204819D02*
X51090476Y-143204819D01*
X51471429Y-142300057D02*
X51519048Y-142252438D01*
X51519048Y-142252438D02*
X51614286Y-142204819D01*
X51614286Y-142204819D02*
X51852381Y-142204819D01*
X51852381Y-142204819D02*
X51947619Y-142252438D01*
X51947619Y-142252438D02*
X51995238Y-142300057D01*
X51995238Y-142300057D02*
X52042857Y-142395295D01*
X52042857Y-142395295D02*
X52042857Y-142490533D01*
X52042857Y-142490533D02*
X51995238Y-142633390D01*
X51995238Y-142633390D02*
X51423810Y-143204819D01*
X51423810Y-143204819D02*
X52042857Y-143204819D01*
X83034819Y-136062857D02*
X82558628Y-136396190D01*
X83034819Y-136634285D02*
X82034819Y-136634285D01*
X82034819Y-136634285D02*
X82034819Y-136253333D01*
X82034819Y-136253333D02*
X82082438Y-136158095D01*
X82082438Y-136158095D02*
X82130057Y-136110476D01*
X82130057Y-136110476D02*
X82225295Y-136062857D01*
X82225295Y-136062857D02*
X82368152Y-136062857D01*
X82368152Y-136062857D02*
X82463390Y-136110476D01*
X82463390Y-136110476D02*
X82511009Y-136158095D01*
X82511009Y-136158095D02*
X82558628Y-136253333D01*
X82558628Y-136253333D02*
X82558628Y-136634285D01*
X82130057Y-135681904D02*
X82082438Y-135634285D01*
X82082438Y-135634285D02*
X82034819Y-135539047D01*
X82034819Y-135539047D02*
X82034819Y-135300952D01*
X82034819Y-135300952D02*
X82082438Y-135205714D01*
X82082438Y-135205714D02*
X82130057Y-135158095D01*
X82130057Y-135158095D02*
X82225295Y-135110476D01*
X82225295Y-135110476D02*
X82320533Y-135110476D01*
X82320533Y-135110476D02*
X82463390Y-135158095D01*
X82463390Y-135158095D02*
X83034819Y-135729523D01*
X83034819Y-135729523D02*
X83034819Y-135110476D01*
X83034819Y-134158095D02*
X83034819Y-134729523D01*
X83034819Y-134443809D02*
X82034819Y-134443809D01*
X82034819Y-134443809D02*
X82177676Y-134539047D01*
X82177676Y-134539047D02*
X82272914Y-134634285D01*
X82272914Y-134634285D02*
X82320533Y-134729523D01*
X67274819Y-78876666D02*
X66798628Y-79209999D01*
X67274819Y-79448094D02*
X66274819Y-79448094D01*
X66274819Y-79448094D02*
X66274819Y-79067142D01*
X66274819Y-79067142D02*
X66322438Y-78971904D01*
X66322438Y-78971904D02*
X66370057Y-78924285D01*
X66370057Y-78924285D02*
X66465295Y-78876666D01*
X66465295Y-78876666D02*
X66608152Y-78876666D01*
X66608152Y-78876666D02*
X66703390Y-78924285D01*
X66703390Y-78924285D02*
X66751009Y-78971904D01*
X66751009Y-78971904D02*
X66798628Y-79067142D01*
X66798628Y-79067142D02*
X66798628Y-79448094D01*
X66274819Y-77971904D02*
X66274819Y-78448094D01*
X66274819Y-78448094D02*
X66751009Y-78495713D01*
X66751009Y-78495713D02*
X66703390Y-78448094D01*
X66703390Y-78448094D02*
X66655771Y-78352856D01*
X66655771Y-78352856D02*
X66655771Y-78114761D01*
X66655771Y-78114761D02*
X66703390Y-78019523D01*
X66703390Y-78019523D02*
X66751009Y-77971904D01*
X66751009Y-77971904D02*
X66846247Y-77924285D01*
X66846247Y-77924285D02*
X67084342Y-77924285D01*
X67084342Y-77924285D02*
X67179580Y-77971904D01*
X67179580Y-77971904D02*
X67227200Y-78019523D01*
X67227200Y-78019523D02*
X67274819Y-78114761D01*
X67274819Y-78114761D02*
X67274819Y-78352856D01*
X67274819Y-78352856D02*
X67227200Y-78448094D01*
X67227200Y-78448094D02*
X67179580Y-78495713D01*
X110690476Y-142104819D02*
X110690476Y-142819104D01*
X110690476Y-142819104D02*
X110642857Y-142961961D01*
X110642857Y-142961961D02*
X110547619Y-143057200D01*
X110547619Y-143057200D02*
X110404762Y-143104819D01*
X110404762Y-143104819D02*
X110309524Y-143104819D01*
X111119048Y-142200057D02*
X111166667Y-142152438D01*
X111166667Y-142152438D02*
X111261905Y-142104819D01*
X111261905Y-142104819D02*
X111500000Y-142104819D01*
X111500000Y-142104819D02*
X111595238Y-142152438D01*
X111595238Y-142152438D02*
X111642857Y-142200057D01*
X111642857Y-142200057D02*
X111690476Y-142295295D01*
X111690476Y-142295295D02*
X111690476Y-142390533D01*
X111690476Y-142390533D02*
X111642857Y-142533390D01*
X111642857Y-142533390D02*
X111071429Y-143104819D01*
X111071429Y-143104819D02*
X111690476Y-143104819D01*
X112547619Y-142104819D02*
X112357143Y-142104819D01*
X112357143Y-142104819D02*
X112261905Y-142152438D01*
X112261905Y-142152438D02*
X112214286Y-142200057D01*
X112214286Y-142200057D02*
X112119048Y-142342914D01*
X112119048Y-142342914D02*
X112071429Y-142533390D01*
X112071429Y-142533390D02*
X112071429Y-142914342D01*
X112071429Y-142914342D02*
X112119048Y-143009580D01*
X112119048Y-143009580D02*
X112166667Y-143057200D01*
X112166667Y-143057200D02*
X112261905Y-143104819D01*
X112261905Y-143104819D02*
X112452381Y-143104819D01*
X112452381Y-143104819D02*
X112547619Y-143057200D01*
X112547619Y-143057200D02*
X112595238Y-143009580D01*
X112595238Y-143009580D02*
X112642857Y-142914342D01*
X112642857Y-142914342D02*
X112642857Y-142676247D01*
X112642857Y-142676247D02*
X112595238Y-142581009D01*
X112595238Y-142581009D02*
X112547619Y-142533390D01*
X112547619Y-142533390D02*
X112452381Y-142485771D01*
X112452381Y-142485771D02*
X112261905Y-142485771D01*
X112261905Y-142485771D02*
X112166667Y-142533390D01*
X112166667Y-142533390D02*
X112119048Y-142581009D01*
X112119048Y-142581009D02*
X112071429Y-142676247D01*
X219748110Y-125724493D02*
X219748110Y-127001500D01*
X219748110Y-127001500D02*
X219823228Y-127151736D01*
X219823228Y-127151736D02*
X219898346Y-127226855D01*
X219898346Y-127226855D02*
X220048582Y-127301973D01*
X220048582Y-127301973D02*
X220349055Y-127301973D01*
X220349055Y-127301973D02*
X220499291Y-127226855D01*
X220499291Y-127226855D02*
X220574409Y-127151736D01*
X220574409Y-127151736D02*
X220649527Y-127001500D01*
X220649527Y-127001500D02*
X220649527Y-125724493D01*
X221250472Y-125724493D02*
X222227007Y-125724493D01*
X222227007Y-125724493D02*
X221701180Y-126325437D01*
X221701180Y-126325437D02*
X221926535Y-126325437D01*
X221926535Y-126325437D02*
X222076771Y-126400555D01*
X222076771Y-126400555D02*
X222151889Y-126475674D01*
X222151889Y-126475674D02*
X222227007Y-126625910D01*
X222227007Y-126625910D02*
X222227007Y-127001500D01*
X222227007Y-127001500D02*
X222151889Y-127151736D01*
X222151889Y-127151736D02*
X222076771Y-127226855D01*
X222076771Y-127226855D02*
X221926535Y-127301973D01*
X221926535Y-127301973D02*
X221475826Y-127301973D01*
X221475826Y-127301973D02*
X221325590Y-127226855D01*
X221325590Y-127226855D02*
X221250472Y-127151736D01*
X78387142Y-88054819D02*
X78053809Y-87578628D01*
X77815714Y-88054819D02*
X77815714Y-87054819D01*
X77815714Y-87054819D02*
X78196666Y-87054819D01*
X78196666Y-87054819D02*
X78291904Y-87102438D01*
X78291904Y-87102438D02*
X78339523Y-87150057D01*
X78339523Y-87150057D02*
X78387142Y-87245295D01*
X78387142Y-87245295D02*
X78387142Y-87388152D01*
X78387142Y-87388152D02*
X78339523Y-87483390D01*
X78339523Y-87483390D02*
X78291904Y-87531009D01*
X78291904Y-87531009D02*
X78196666Y-87578628D01*
X78196666Y-87578628D02*
X77815714Y-87578628D01*
X79339523Y-88054819D02*
X78768095Y-88054819D01*
X79053809Y-88054819D02*
X79053809Y-87054819D01*
X79053809Y-87054819D02*
X78958571Y-87197676D01*
X78958571Y-87197676D02*
X78863333Y-87292914D01*
X78863333Y-87292914D02*
X78768095Y-87340533D01*
X79958571Y-87054819D02*
X80053809Y-87054819D01*
X80053809Y-87054819D02*
X80149047Y-87102438D01*
X80149047Y-87102438D02*
X80196666Y-87150057D01*
X80196666Y-87150057D02*
X80244285Y-87245295D01*
X80244285Y-87245295D02*
X80291904Y-87435771D01*
X80291904Y-87435771D02*
X80291904Y-87673866D01*
X80291904Y-87673866D02*
X80244285Y-87864342D01*
X80244285Y-87864342D02*
X80196666Y-87959580D01*
X80196666Y-87959580D02*
X80149047Y-88007200D01*
X80149047Y-88007200D02*
X80053809Y-88054819D01*
X80053809Y-88054819D02*
X79958571Y-88054819D01*
X79958571Y-88054819D02*
X79863333Y-88007200D01*
X79863333Y-88007200D02*
X79815714Y-87959580D01*
X79815714Y-87959580D02*
X79768095Y-87864342D01*
X79768095Y-87864342D02*
X79720476Y-87673866D01*
X79720476Y-87673866D02*
X79720476Y-87435771D01*
X79720476Y-87435771D02*
X79768095Y-87245295D01*
X79768095Y-87245295D02*
X79815714Y-87150057D01*
X79815714Y-87150057D02*
X79863333Y-87102438D01*
X79863333Y-87102438D02*
X79958571Y-87054819D01*
X171450057Y-136135238D02*
X171402438Y-136230476D01*
X171402438Y-136230476D02*
X171307200Y-136325714D01*
X171307200Y-136325714D02*
X171164342Y-136468571D01*
X171164342Y-136468571D02*
X171116723Y-136563809D01*
X171116723Y-136563809D02*
X171116723Y-136659047D01*
X171354819Y-136611428D02*
X171307200Y-136706666D01*
X171307200Y-136706666D02*
X171211961Y-136801904D01*
X171211961Y-136801904D02*
X171021485Y-136849523D01*
X171021485Y-136849523D02*
X170688152Y-136849523D01*
X170688152Y-136849523D02*
X170497676Y-136801904D01*
X170497676Y-136801904D02*
X170402438Y-136706666D01*
X170402438Y-136706666D02*
X170354819Y-136611428D01*
X170354819Y-136611428D02*
X170354819Y-136420952D01*
X170354819Y-136420952D02*
X170402438Y-136325714D01*
X170402438Y-136325714D02*
X170497676Y-136230476D01*
X170497676Y-136230476D02*
X170688152Y-136182857D01*
X170688152Y-136182857D02*
X171021485Y-136182857D01*
X171021485Y-136182857D02*
X171211961Y-136230476D01*
X171211961Y-136230476D02*
X171307200Y-136325714D01*
X171307200Y-136325714D02*
X171354819Y-136420952D01*
X171354819Y-136420952D02*
X171354819Y-136611428D01*
X170354819Y-135849523D02*
X170354819Y-135230476D01*
X170354819Y-135230476D02*
X170735771Y-135563809D01*
X170735771Y-135563809D02*
X170735771Y-135420952D01*
X170735771Y-135420952D02*
X170783390Y-135325714D01*
X170783390Y-135325714D02*
X170831009Y-135278095D01*
X170831009Y-135278095D02*
X170926247Y-135230476D01*
X170926247Y-135230476D02*
X171164342Y-135230476D01*
X171164342Y-135230476D02*
X171259580Y-135278095D01*
X171259580Y-135278095D02*
X171307200Y-135325714D01*
X171307200Y-135325714D02*
X171354819Y-135420952D01*
X171354819Y-135420952D02*
X171354819Y-135706666D01*
X171354819Y-135706666D02*
X171307200Y-135801904D01*
X171307200Y-135801904D02*
X171259580Y-135849523D01*
X64290476Y-142204819D02*
X64290476Y-142919104D01*
X64290476Y-142919104D02*
X64242857Y-143061961D01*
X64242857Y-143061961D02*
X64147619Y-143157200D01*
X64147619Y-143157200D02*
X64004762Y-143204819D01*
X64004762Y-143204819D02*
X63909524Y-143204819D01*
X64719048Y-142300057D02*
X64766667Y-142252438D01*
X64766667Y-142252438D02*
X64861905Y-142204819D01*
X64861905Y-142204819D02*
X65100000Y-142204819D01*
X65100000Y-142204819D02*
X65195238Y-142252438D01*
X65195238Y-142252438D02*
X65242857Y-142300057D01*
X65242857Y-142300057D02*
X65290476Y-142395295D01*
X65290476Y-142395295D02*
X65290476Y-142490533D01*
X65290476Y-142490533D02*
X65242857Y-142633390D01*
X65242857Y-142633390D02*
X64671429Y-143204819D01*
X64671429Y-143204819D02*
X65290476Y-143204819D01*
X65623810Y-142204819D02*
X66242857Y-142204819D01*
X66242857Y-142204819D02*
X65909524Y-142585771D01*
X65909524Y-142585771D02*
X66052381Y-142585771D01*
X66052381Y-142585771D02*
X66147619Y-142633390D01*
X66147619Y-142633390D02*
X66195238Y-142681009D01*
X66195238Y-142681009D02*
X66242857Y-142776247D01*
X66242857Y-142776247D02*
X66242857Y-143014342D01*
X66242857Y-143014342D02*
X66195238Y-143109580D01*
X66195238Y-143109580D02*
X66147619Y-143157200D01*
X66147619Y-143157200D02*
X66052381Y-143204819D01*
X66052381Y-143204819D02*
X65766667Y-143204819D01*
X65766667Y-143204819D02*
X65671429Y-143157200D01*
X65671429Y-143157200D02*
X65623810Y-143109580D01*
X127190476Y-142004819D02*
X127190476Y-142719104D01*
X127190476Y-142719104D02*
X127142857Y-142861961D01*
X127142857Y-142861961D02*
X127047619Y-142957200D01*
X127047619Y-142957200D02*
X126904762Y-143004819D01*
X126904762Y-143004819D02*
X126809524Y-143004819D01*
X127619048Y-142100057D02*
X127666667Y-142052438D01*
X127666667Y-142052438D02*
X127761905Y-142004819D01*
X127761905Y-142004819D02*
X128000000Y-142004819D01*
X128000000Y-142004819D02*
X128095238Y-142052438D01*
X128095238Y-142052438D02*
X128142857Y-142100057D01*
X128142857Y-142100057D02*
X128190476Y-142195295D01*
X128190476Y-142195295D02*
X128190476Y-142290533D01*
X128190476Y-142290533D02*
X128142857Y-142433390D01*
X128142857Y-142433390D02*
X127571429Y-143004819D01*
X127571429Y-143004819D02*
X128190476Y-143004819D01*
X128523810Y-142004819D02*
X129190476Y-142004819D01*
X129190476Y-142004819D02*
X128761905Y-143004819D01*
X205034819Y-135222857D02*
X204558628Y-135556190D01*
X205034819Y-135794285D02*
X204034819Y-135794285D01*
X204034819Y-135794285D02*
X204034819Y-135413333D01*
X204034819Y-135413333D02*
X204082438Y-135318095D01*
X204082438Y-135318095D02*
X204130057Y-135270476D01*
X204130057Y-135270476D02*
X204225295Y-135222857D01*
X204225295Y-135222857D02*
X204368152Y-135222857D01*
X204368152Y-135222857D02*
X204463390Y-135270476D01*
X204463390Y-135270476D02*
X204511009Y-135318095D01*
X204511009Y-135318095D02*
X204558628Y-135413333D01*
X204558628Y-135413333D02*
X204558628Y-135794285D01*
X205034819Y-134270476D02*
X205034819Y-134841904D01*
X205034819Y-134556190D02*
X204034819Y-134556190D01*
X204034819Y-134556190D02*
X204177676Y-134651428D01*
X204177676Y-134651428D02*
X204272914Y-134746666D01*
X204272914Y-134746666D02*
X204320533Y-134841904D01*
X204034819Y-133937142D02*
X204034819Y-133318095D01*
X204034819Y-133318095D02*
X204415771Y-133651428D01*
X204415771Y-133651428D02*
X204415771Y-133508571D01*
X204415771Y-133508571D02*
X204463390Y-133413333D01*
X204463390Y-133413333D02*
X204511009Y-133365714D01*
X204511009Y-133365714D02*
X204606247Y-133318095D01*
X204606247Y-133318095D02*
X204844342Y-133318095D01*
X204844342Y-133318095D02*
X204939580Y-133365714D01*
X204939580Y-133365714D02*
X204987200Y-133413333D01*
X204987200Y-133413333D02*
X205034819Y-133508571D01*
X205034819Y-133508571D02*
X205034819Y-133794285D01*
X205034819Y-133794285D02*
X204987200Y-133889523D01*
X204987200Y-133889523D02*
X204939580Y-133937142D01*
X238628571Y-56331009D02*
X238295238Y-56331009D01*
X238295238Y-56854819D02*
X238295238Y-55854819D01*
X238295238Y-55854819D02*
X238771428Y-55854819D01*
X239152381Y-56854819D02*
X239152381Y-55854819D01*
X239628571Y-56854819D02*
X239628571Y-55854819D01*
X239628571Y-55854819D02*
X239866666Y-55854819D01*
X239866666Y-55854819D02*
X240009523Y-55902438D01*
X240009523Y-55902438D02*
X240104761Y-55997676D01*
X240104761Y-55997676D02*
X240152380Y-56092914D01*
X240152380Y-56092914D02*
X240199999Y-56283390D01*
X240199999Y-56283390D02*
X240199999Y-56426247D01*
X240199999Y-56426247D02*
X240152380Y-56616723D01*
X240152380Y-56616723D02*
X240104761Y-56711961D01*
X240104761Y-56711961D02*
X240009523Y-56807200D01*
X240009523Y-56807200D02*
X239866666Y-56854819D01*
X239866666Y-56854819D02*
X239628571Y-56854819D01*
X240580952Y-55950057D02*
X240628571Y-55902438D01*
X240628571Y-55902438D02*
X240723809Y-55854819D01*
X240723809Y-55854819D02*
X240961904Y-55854819D01*
X240961904Y-55854819D02*
X241057142Y-55902438D01*
X241057142Y-55902438D02*
X241104761Y-55950057D01*
X241104761Y-55950057D02*
X241152380Y-56045295D01*
X241152380Y-56045295D02*
X241152380Y-56140533D01*
X241152380Y-56140533D02*
X241104761Y-56283390D01*
X241104761Y-56283390D02*
X240533333Y-56854819D01*
X240533333Y-56854819D02*
X241152380Y-56854819D01*
X73984819Y-63986666D02*
X73508628Y-64319999D01*
X73984819Y-64558094D02*
X72984819Y-64558094D01*
X72984819Y-64558094D02*
X72984819Y-64177142D01*
X72984819Y-64177142D02*
X73032438Y-64081904D01*
X73032438Y-64081904D02*
X73080057Y-64034285D01*
X73080057Y-64034285D02*
X73175295Y-63986666D01*
X73175295Y-63986666D02*
X73318152Y-63986666D01*
X73318152Y-63986666D02*
X73413390Y-64034285D01*
X73413390Y-64034285D02*
X73461009Y-64081904D01*
X73461009Y-64081904D02*
X73508628Y-64177142D01*
X73508628Y-64177142D02*
X73508628Y-64558094D01*
X72984819Y-63653332D02*
X72984819Y-63034285D01*
X72984819Y-63034285D02*
X73365771Y-63367618D01*
X73365771Y-63367618D02*
X73365771Y-63224761D01*
X73365771Y-63224761D02*
X73413390Y-63129523D01*
X73413390Y-63129523D02*
X73461009Y-63081904D01*
X73461009Y-63081904D02*
X73556247Y-63034285D01*
X73556247Y-63034285D02*
X73794342Y-63034285D01*
X73794342Y-63034285D02*
X73889580Y-63081904D01*
X73889580Y-63081904D02*
X73937200Y-63129523D01*
X73937200Y-63129523D02*
X73984819Y-63224761D01*
X73984819Y-63224761D02*
X73984819Y-63510475D01*
X73984819Y-63510475D02*
X73937200Y-63605713D01*
X73937200Y-63605713D02*
X73889580Y-63653332D01*
X192783333Y-124939580D02*
X192735714Y-124987200D01*
X192735714Y-124987200D02*
X192592857Y-125034819D01*
X192592857Y-125034819D02*
X192497619Y-125034819D01*
X192497619Y-125034819D02*
X192354762Y-124987200D01*
X192354762Y-124987200D02*
X192259524Y-124891961D01*
X192259524Y-124891961D02*
X192211905Y-124796723D01*
X192211905Y-124796723D02*
X192164286Y-124606247D01*
X192164286Y-124606247D02*
X192164286Y-124463390D01*
X192164286Y-124463390D02*
X192211905Y-124272914D01*
X192211905Y-124272914D02*
X192259524Y-124177676D01*
X192259524Y-124177676D02*
X192354762Y-124082438D01*
X192354762Y-124082438D02*
X192497619Y-124034819D01*
X192497619Y-124034819D02*
X192592857Y-124034819D01*
X192592857Y-124034819D02*
X192735714Y-124082438D01*
X192735714Y-124082438D02*
X192783333Y-124130057D01*
X193116667Y-124034819D02*
X193735714Y-124034819D01*
X193735714Y-124034819D02*
X193402381Y-124415771D01*
X193402381Y-124415771D02*
X193545238Y-124415771D01*
X193545238Y-124415771D02*
X193640476Y-124463390D01*
X193640476Y-124463390D02*
X193688095Y-124511009D01*
X193688095Y-124511009D02*
X193735714Y-124606247D01*
X193735714Y-124606247D02*
X193735714Y-124844342D01*
X193735714Y-124844342D02*
X193688095Y-124939580D01*
X193688095Y-124939580D02*
X193640476Y-124987200D01*
X193640476Y-124987200D02*
X193545238Y-125034819D01*
X193545238Y-125034819D02*
X193259524Y-125034819D01*
X193259524Y-125034819D02*
X193164286Y-124987200D01*
X193164286Y-124987200D02*
X193116667Y-124939580D01*
X156287142Y-74054819D02*
X155953809Y-73578628D01*
X155715714Y-74054819D02*
X155715714Y-73054819D01*
X155715714Y-73054819D02*
X156096666Y-73054819D01*
X156096666Y-73054819D02*
X156191904Y-73102438D01*
X156191904Y-73102438D02*
X156239523Y-73150057D01*
X156239523Y-73150057D02*
X156287142Y-73245295D01*
X156287142Y-73245295D02*
X156287142Y-73388152D01*
X156287142Y-73388152D02*
X156239523Y-73483390D01*
X156239523Y-73483390D02*
X156191904Y-73531009D01*
X156191904Y-73531009D02*
X156096666Y-73578628D01*
X156096666Y-73578628D02*
X155715714Y-73578628D01*
X156668095Y-73150057D02*
X156715714Y-73102438D01*
X156715714Y-73102438D02*
X156810952Y-73054819D01*
X156810952Y-73054819D02*
X157049047Y-73054819D01*
X157049047Y-73054819D02*
X157144285Y-73102438D01*
X157144285Y-73102438D02*
X157191904Y-73150057D01*
X157191904Y-73150057D02*
X157239523Y-73245295D01*
X157239523Y-73245295D02*
X157239523Y-73340533D01*
X157239523Y-73340533D02*
X157191904Y-73483390D01*
X157191904Y-73483390D02*
X156620476Y-74054819D01*
X156620476Y-74054819D02*
X157239523Y-74054819D01*
X158096666Y-73388152D02*
X158096666Y-74054819D01*
X157858571Y-73007200D02*
X157620476Y-73721485D01*
X157620476Y-73721485D02*
X158239523Y-73721485D01*
X238474819Y-117999523D02*
X239189104Y-117999523D01*
X239189104Y-117999523D02*
X239331961Y-118047142D01*
X239331961Y-118047142D02*
X239427200Y-118142380D01*
X239427200Y-118142380D02*
X239474819Y-118285237D01*
X239474819Y-118285237D02*
X239474819Y-118380475D01*
X239474819Y-116999523D02*
X239474819Y-117570951D01*
X239474819Y-117285237D02*
X238474819Y-117285237D01*
X238474819Y-117285237D02*
X238617676Y-117380475D01*
X238617676Y-117380475D02*
X238712914Y-117475713D01*
X238712914Y-117475713D02*
X238760533Y-117570951D01*
X239474819Y-116047142D02*
X239474819Y-116618570D01*
X239474819Y-116332856D02*
X238474819Y-116332856D01*
X238474819Y-116332856D02*
X238617676Y-116428094D01*
X238617676Y-116428094D02*
X238712914Y-116523332D01*
X238712914Y-116523332D02*
X238760533Y-116618570D01*
X190741905Y-89429819D02*
X190741905Y-88429819D01*
X190741905Y-88429819D02*
X190980000Y-88429819D01*
X190980000Y-88429819D02*
X191122857Y-88477438D01*
X191122857Y-88477438D02*
X191218095Y-88572676D01*
X191218095Y-88572676D02*
X191265714Y-88667914D01*
X191265714Y-88667914D02*
X191313333Y-88858390D01*
X191313333Y-88858390D02*
X191313333Y-89001247D01*
X191313333Y-89001247D02*
X191265714Y-89191723D01*
X191265714Y-89191723D02*
X191218095Y-89286961D01*
X191218095Y-89286961D02*
X191122857Y-89382200D01*
X191122857Y-89382200D02*
X190980000Y-89429819D01*
X190980000Y-89429819D02*
X190741905Y-89429819D01*
X192265714Y-89429819D02*
X191694286Y-89429819D01*
X191980000Y-89429819D02*
X191980000Y-88429819D01*
X191980000Y-88429819D02*
X191884762Y-88572676D01*
X191884762Y-88572676D02*
X191789524Y-88667914D01*
X191789524Y-88667914D02*
X191694286Y-88715533D01*
X183598095Y-90854819D02*
X183598095Y-89854819D01*
X184169523Y-90854819D02*
X183740952Y-90283390D01*
X184169523Y-89854819D02*
X183598095Y-90426247D01*
X57454819Y-53709523D02*
X58169104Y-53709523D01*
X58169104Y-53709523D02*
X58311961Y-53757142D01*
X58311961Y-53757142D02*
X58407200Y-53852380D01*
X58407200Y-53852380D02*
X58454819Y-53995237D01*
X58454819Y-53995237D02*
X58454819Y-54090475D01*
X58454819Y-52709523D02*
X58454819Y-53280951D01*
X58454819Y-52995237D02*
X57454819Y-52995237D01*
X57454819Y-52995237D02*
X57597676Y-53090475D01*
X57597676Y-53090475D02*
X57692914Y-53185713D01*
X57692914Y-53185713D02*
X57740533Y-53280951D01*
X58454819Y-52233332D02*
X58454819Y-52042856D01*
X58454819Y-52042856D02*
X58407200Y-51947618D01*
X58407200Y-51947618D02*
X58359580Y-51899999D01*
X58359580Y-51899999D02*
X58216723Y-51804761D01*
X58216723Y-51804761D02*
X58026247Y-51757142D01*
X58026247Y-51757142D02*
X57645295Y-51757142D01*
X57645295Y-51757142D02*
X57550057Y-51804761D01*
X57550057Y-51804761D02*
X57502438Y-51852380D01*
X57502438Y-51852380D02*
X57454819Y-51947618D01*
X57454819Y-51947618D02*
X57454819Y-52138094D01*
X57454819Y-52138094D02*
X57502438Y-52233332D01*
X57502438Y-52233332D02*
X57550057Y-52280951D01*
X57550057Y-52280951D02*
X57645295Y-52328570D01*
X57645295Y-52328570D02*
X57883390Y-52328570D01*
X57883390Y-52328570D02*
X57978628Y-52280951D01*
X57978628Y-52280951D02*
X58026247Y-52233332D01*
X58026247Y-52233332D02*
X58073866Y-52138094D01*
X58073866Y-52138094D02*
X58073866Y-51947618D01*
X58073866Y-51947618D02*
X58026247Y-51852380D01*
X58026247Y-51852380D02*
X57978628Y-51804761D01*
X57978628Y-51804761D02*
X57883390Y-51757142D01*
X95090476Y-142204819D02*
X95090476Y-142919104D01*
X95090476Y-142919104D02*
X95042857Y-143061961D01*
X95042857Y-143061961D02*
X94947619Y-143157200D01*
X94947619Y-143157200D02*
X94804762Y-143204819D01*
X94804762Y-143204819D02*
X94709524Y-143204819D01*
X95519048Y-142300057D02*
X95566667Y-142252438D01*
X95566667Y-142252438D02*
X95661905Y-142204819D01*
X95661905Y-142204819D02*
X95900000Y-142204819D01*
X95900000Y-142204819D02*
X95995238Y-142252438D01*
X95995238Y-142252438D02*
X96042857Y-142300057D01*
X96042857Y-142300057D02*
X96090476Y-142395295D01*
X96090476Y-142395295D02*
X96090476Y-142490533D01*
X96090476Y-142490533D02*
X96042857Y-142633390D01*
X96042857Y-142633390D02*
X95471429Y-143204819D01*
X95471429Y-143204819D02*
X96090476Y-143204819D01*
X96995238Y-142204819D02*
X96519048Y-142204819D01*
X96519048Y-142204819D02*
X96471429Y-142681009D01*
X96471429Y-142681009D02*
X96519048Y-142633390D01*
X96519048Y-142633390D02*
X96614286Y-142585771D01*
X96614286Y-142585771D02*
X96852381Y-142585771D01*
X96852381Y-142585771D02*
X96947619Y-142633390D01*
X96947619Y-142633390D02*
X96995238Y-142681009D01*
X96995238Y-142681009D02*
X97042857Y-142776247D01*
X97042857Y-142776247D02*
X97042857Y-143014342D01*
X97042857Y-143014342D02*
X96995238Y-143109580D01*
X96995238Y-143109580D02*
X96947619Y-143157200D01*
X96947619Y-143157200D02*
X96852381Y-143204819D01*
X96852381Y-143204819D02*
X96614286Y-143204819D01*
X96614286Y-143204819D02*
X96519048Y-143157200D01*
X96519048Y-143157200D02*
X96471429Y-143109580D01*
X91354819Y-53709523D02*
X92069104Y-53709523D01*
X92069104Y-53709523D02*
X92211961Y-53757142D01*
X92211961Y-53757142D02*
X92307200Y-53852380D01*
X92307200Y-53852380D02*
X92354819Y-53995237D01*
X92354819Y-53995237D02*
X92354819Y-54090475D01*
X92354819Y-52709523D02*
X92354819Y-53280951D01*
X92354819Y-52995237D02*
X91354819Y-52995237D01*
X91354819Y-52995237D02*
X91497676Y-53090475D01*
X91497676Y-53090475D02*
X91592914Y-53185713D01*
X91592914Y-53185713D02*
X91640533Y-53280951D01*
X91354819Y-51804761D02*
X91354819Y-52280951D01*
X91354819Y-52280951D02*
X91831009Y-52328570D01*
X91831009Y-52328570D02*
X91783390Y-52280951D01*
X91783390Y-52280951D02*
X91735771Y-52185713D01*
X91735771Y-52185713D02*
X91735771Y-51947618D01*
X91735771Y-51947618D02*
X91783390Y-51852380D01*
X91783390Y-51852380D02*
X91831009Y-51804761D01*
X91831009Y-51804761D02*
X91926247Y-51757142D01*
X91926247Y-51757142D02*
X92164342Y-51757142D01*
X92164342Y-51757142D02*
X92259580Y-51804761D01*
X92259580Y-51804761D02*
X92307200Y-51852380D01*
X92307200Y-51852380D02*
X92354819Y-51947618D01*
X92354819Y-51947618D02*
X92354819Y-52185713D01*
X92354819Y-52185713D02*
X92307200Y-52280951D01*
X92307200Y-52280951D02*
X92259580Y-52328570D01*
X63794819Y-86466666D02*
X63318628Y-86799999D01*
X63794819Y-87038094D02*
X62794819Y-87038094D01*
X62794819Y-87038094D02*
X62794819Y-86657142D01*
X62794819Y-86657142D02*
X62842438Y-86561904D01*
X62842438Y-86561904D02*
X62890057Y-86514285D01*
X62890057Y-86514285D02*
X62985295Y-86466666D01*
X62985295Y-86466666D02*
X63128152Y-86466666D01*
X63128152Y-86466666D02*
X63223390Y-86514285D01*
X63223390Y-86514285D02*
X63271009Y-86561904D01*
X63271009Y-86561904D02*
X63318628Y-86657142D01*
X63318628Y-86657142D02*
X63318628Y-87038094D01*
X62794819Y-85609523D02*
X62794819Y-85799999D01*
X62794819Y-85799999D02*
X62842438Y-85895237D01*
X62842438Y-85895237D02*
X62890057Y-85942856D01*
X62890057Y-85942856D02*
X63032914Y-86038094D01*
X63032914Y-86038094D02*
X63223390Y-86085713D01*
X63223390Y-86085713D02*
X63604342Y-86085713D01*
X63604342Y-86085713D02*
X63699580Y-86038094D01*
X63699580Y-86038094D02*
X63747200Y-85990475D01*
X63747200Y-85990475D02*
X63794819Y-85895237D01*
X63794819Y-85895237D02*
X63794819Y-85704761D01*
X63794819Y-85704761D02*
X63747200Y-85609523D01*
X63747200Y-85609523D02*
X63699580Y-85561904D01*
X63699580Y-85561904D02*
X63604342Y-85514285D01*
X63604342Y-85514285D02*
X63366247Y-85514285D01*
X63366247Y-85514285D02*
X63271009Y-85561904D01*
X63271009Y-85561904D02*
X63223390Y-85609523D01*
X63223390Y-85609523D02*
X63175771Y-85704761D01*
X63175771Y-85704761D02*
X63175771Y-85895237D01*
X63175771Y-85895237D02*
X63223390Y-85990475D01*
X63223390Y-85990475D02*
X63271009Y-86038094D01*
X63271009Y-86038094D02*
X63366247Y-86085713D01*
X161550057Y-136235238D02*
X161502438Y-136330476D01*
X161502438Y-136330476D02*
X161407200Y-136425714D01*
X161407200Y-136425714D02*
X161264342Y-136568571D01*
X161264342Y-136568571D02*
X161216723Y-136663809D01*
X161216723Y-136663809D02*
X161216723Y-136759047D01*
X161454819Y-136711428D02*
X161407200Y-136806666D01*
X161407200Y-136806666D02*
X161311961Y-136901904D01*
X161311961Y-136901904D02*
X161121485Y-136949523D01*
X161121485Y-136949523D02*
X160788152Y-136949523D01*
X160788152Y-136949523D02*
X160597676Y-136901904D01*
X160597676Y-136901904D02*
X160502438Y-136806666D01*
X160502438Y-136806666D02*
X160454819Y-136711428D01*
X160454819Y-136711428D02*
X160454819Y-136520952D01*
X160454819Y-136520952D02*
X160502438Y-136425714D01*
X160502438Y-136425714D02*
X160597676Y-136330476D01*
X160597676Y-136330476D02*
X160788152Y-136282857D01*
X160788152Y-136282857D02*
X161121485Y-136282857D01*
X161121485Y-136282857D02*
X161311961Y-136330476D01*
X161311961Y-136330476D02*
X161407200Y-136425714D01*
X161407200Y-136425714D02*
X161454819Y-136520952D01*
X161454819Y-136520952D02*
X161454819Y-136711428D01*
X160550057Y-135901904D02*
X160502438Y-135854285D01*
X160502438Y-135854285D02*
X160454819Y-135759047D01*
X160454819Y-135759047D02*
X160454819Y-135520952D01*
X160454819Y-135520952D02*
X160502438Y-135425714D01*
X160502438Y-135425714D02*
X160550057Y-135378095D01*
X160550057Y-135378095D02*
X160645295Y-135330476D01*
X160645295Y-135330476D02*
X160740533Y-135330476D01*
X160740533Y-135330476D02*
X160883390Y-135378095D01*
X160883390Y-135378095D02*
X161454819Y-135949523D01*
X161454819Y-135949523D02*
X161454819Y-135330476D01*
X235883333Y-79809580D02*
X235835714Y-79857200D01*
X235835714Y-79857200D02*
X235692857Y-79904819D01*
X235692857Y-79904819D02*
X235597619Y-79904819D01*
X235597619Y-79904819D02*
X235454762Y-79857200D01*
X235454762Y-79857200D02*
X235359524Y-79761961D01*
X235359524Y-79761961D02*
X235311905Y-79666723D01*
X235311905Y-79666723D02*
X235264286Y-79476247D01*
X235264286Y-79476247D02*
X235264286Y-79333390D01*
X235264286Y-79333390D02*
X235311905Y-79142914D01*
X235311905Y-79142914D02*
X235359524Y-79047676D01*
X235359524Y-79047676D02*
X235454762Y-78952438D01*
X235454762Y-78952438D02*
X235597619Y-78904819D01*
X235597619Y-78904819D02*
X235692857Y-78904819D01*
X235692857Y-78904819D02*
X235835714Y-78952438D01*
X235835714Y-78952438D02*
X235883333Y-79000057D01*
X236216667Y-78904819D02*
X236883333Y-78904819D01*
X236883333Y-78904819D02*
X236454762Y-79904819D01*
X54034819Y-135586666D02*
X53558628Y-135919999D01*
X54034819Y-136158094D02*
X53034819Y-136158094D01*
X53034819Y-136158094D02*
X53034819Y-135777142D01*
X53034819Y-135777142D02*
X53082438Y-135681904D01*
X53082438Y-135681904D02*
X53130057Y-135634285D01*
X53130057Y-135634285D02*
X53225295Y-135586666D01*
X53225295Y-135586666D02*
X53368152Y-135586666D01*
X53368152Y-135586666D02*
X53463390Y-135634285D01*
X53463390Y-135634285D02*
X53511009Y-135681904D01*
X53511009Y-135681904D02*
X53558628Y-135777142D01*
X53558628Y-135777142D02*
X53558628Y-136158094D01*
X54034819Y-134634285D02*
X54034819Y-135205713D01*
X54034819Y-134919999D02*
X53034819Y-134919999D01*
X53034819Y-134919999D02*
X53177676Y-135015237D01*
X53177676Y-135015237D02*
X53272914Y-135110475D01*
X53272914Y-135110475D02*
X53320533Y-135205713D01*
X81440476Y-47404819D02*
X81440476Y-48119104D01*
X81440476Y-48119104D02*
X81392857Y-48261961D01*
X81392857Y-48261961D02*
X81297619Y-48357200D01*
X81297619Y-48357200D02*
X81154762Y-48404819D01*
X81154762Y-48404819D02*
X81059524Y-48404819D01*
X82440476Y-48404819D02*
X81869048Y-48404819D01*
X82154762Y-48404819D02*
X82154762Y-47404819D01*
X82154762Y-47404819D02*
X82059524Y-47547676D01*
X82059524Y-47547676D02*
X81964286Y-47642914D01*
X81964286Y-47642914D02*
X81869048Y-47690533D01*
X82773810Y-47404819D02*
X83440476Y-47404819D01*
X83440476Y-47404819D02*
X83011905Y-48404819D01*
X155984819Y-124462857D02*
X155508628Y-124796190D01*
X155984819Y-125034285D02*
X154984819Y-125034285D01*
X154984819Y-125034285D02*
X154984819Y-124653333D01*
X154984819Y-124653333D02*
X155032438Y-124558095D01*
X155032438Y-124558095D02*
X155080057Y-124510476D01*
X155080057Y-124510476D02*
X155175295Y-124462857D01*
X155175295Y-124462857D02*
X155318152Y-124462857D01*
X155318152Y-124462857D02*
X155413390Y-124510476D01*
X155413390Y-124510476D02*
X155461009Y-124558095D01*
X155461009Y-124558095D02*
X155508628Y-124653333D01*
X155508628Y-124653333D02*
X155508628Y-125034285D01*
X155984819Y-123510476D02*
X155984819Y-124081904D01*
X155984819Y-123796190D02*
X154984819Y-123796190D01*
X154984819Y-123796190D02*
X155127676Y-123891428D01*
X155127676Y-123891428D02*
X155222914Y-123986666D01*
X155222914Y-123986666D02*
X155270533Y-124081904D01*
X155984819Y-123034285D02*
X155984819Y-122843809D01*
X155984819Y-122843809D02*
X155937200Y-122748571D01*
X155937200Y-122748571D02*
X155889580Y-122700952D01*
X155889580Y-122700952D02*
X155746723Y-122605714D01*
X155746723Y-122605714D02*
X155556247Y-122558095D01*
X155556247Y-122558095D02*
X155175295Y-122558095D01*
X155175295Y-122558095D02*
X155080057Y-122605714D01*
X155080057Y-122605714D02*
X155032438Y-122653333D01*
X155032438Y-122653333D02*
X154984819Y-122748571D01*
X154984819Y-122748571D02*
X154984819Y-122939047D01*
X154984819Y-122939047D02*
X155032438Y-123034285D01*
X155032438Y-123034285D02*
X155080057Y-123081904D01*
X155080057Y-123081904D02*
X155175295Y-123129523D01*
X155175295Y-123129523D02*
X155413390Y-123129523D01*
X155413390Y-123129523D02*
X155508628Y-123081904D01*
X155508628Y-123081904D02*
X155556247Y-123034285D01*
X155556247Y-123034285D02*
X155603866Y-122939047D01*
X155603866Y-122939047D02*
X155603866Y-122748571D01*
X155603866Y-122748571D02*
X155556247Y-122653333D01*
X155556247Y-122653333D02*
X155508628Y-122605714D01*
X155508628Y-122605714D02*
X155413390Y-122558095D01*
X78863333Y-83414819D02*
X78530000Y-82938628D01*
X78291905Y-83414819D02*
X78291905Y-82414819D01*
X78291905Y-82414819D02*
X78672857Y-82414819D01*
X78672857Y-82414819D02*
X78768095Y-82462438D01*
X78768095Y-82462438D02*
X78815714Y-82510057D01*
X78815714Y-82510057D02*
X78863333Y-82605295D01*
X78863333Y-82605295D02*
X78863333Y-82748152D01*
X78863333Y-82748152D02*
X78815714Y-82843390D01*
X78815714Y-82843390D02*
X78768095Y-82891009D01*
X78768095Y-82891009D02*
X78672857Y-82938628D01*
X78672857Y-82938628D02*
X78291905Y-82938628D01*
X79339524Y-83414819D02*
X79530000Y-83414819D01*
X79530000Y-83414819D02*
X79625238Y-83367200D01*
X79625238Y-83367200D02*
X79672857Y-83319580D01*
X79672857Y-83319580D02*
X79768095Y-83176723D01*
X79768095Y-83176723D02*
X79815714Y-82986247D01*
X79815714Y-82986247D02*
X79815714Y-82605295D01*
X79815714Y-82605295D02*
X79768095Y-82510057D01*
X79768095Y-82510057D02*
X79720476Y-82462438D01*
X79720476Y-82462438D02*
X79625238Y-82414819D01*
X79625238Y-82414819D02*
X79434762Y-82414819D01*
X79434762Y-82414819D02*
X79339524Y-82462438D01*
X79339524Y-82462438D02*
X79291905Y-82510057D01*
X79291905Y-82510057D02*
X79244286Y-82605295D01*
X79244286Y-82605295D02*
X79244286Y-82843390D01*
X79244286Y-82843390D02*
X79291905Y-82938628D01*
X79291905Y-82938628D02*
X79339524Y-82986247D01*
X79339524Y-82986247D02*
X79434762Y-83033866D01*
X79434762Y-83033866D02*
X79625238Y-83033866D01*
X79625238Y-83033866D02*
X79720476Y-82986247D01*
X79720476Y-82986247D02*
X79768095Y-82938628D01*
X79768095Y-82938628D02*
X79815714Y-82843390D01*
X63154819Y-135366666D02*
X62678628Y-135699999D01*
X63154819Y-135938094D02*
X62154819Y-135938094D01*
X62154819Y-135938094D02*
X62154819Y-135557142D01*
X62154819Y-135557142D02*
X62202438Y-135461904D01*
X62202438Y-135461904D02*
X62250057Y-135414285D01*
X62250057Y-135414285D02*
X62345295Y-135366666D01*
X62345295Y-135366666D02*
X62488152Y-135366666D01*
X62488152Y-135366666D02*
X62583390Y-135414285D01*
X62583390Y-135414285D02*
X62631009Y-135461904D01*
X62631009Y-135461904D02*
X62678628Y-135557142D01*
X62678628Y-135557142D02*
X62678628Y-135938094D01*
X62250057Y-134985713D02*
X62202438Y-134938094D01*
X62202438Y-134938094D02*
X62154819Y-134842856D01*
X62154819Y-134842856D02*
X62154819Y-134604761D01*
X62154819Y-134604761D02*
X62202438Y-134509523D01*
X62202438Y-134509523D02*
X62250057Y-134461904D01*
X62250057Y-134461904D02*
X62345295Y-134414285D01*
X62345295Y-134414285D02*
X62440533Y-134414285D01*
X62440533Y-134414285D02*
X62583390Y-134461904D01*
X62583390Y-134461904D02*
X63154819Y-135033332D01*
X63154819Y-135033332D02*
X63154819Y-134414285D01*
X207776666Y-142034819D02*
X207776666Y-142749104D01*
X207776666Y-142749104D02*
X207729047Y-142891961D01*
X207729047Y-142891961D02*
X207633809Y-142987200D01*
X207633809Y-142987200D02*
X207490952Y-143034819D01*
X207490952Y-143034819D02*
X207395714Y-143034819D01*
X208681428Y-142368152D02*
X208681428Y-143034819D01*
X208443333Y-141987200D02*
X208205238Y-142701485D01*
X208205238Y-142701485D02*
X208824285Y-142701485D01*
X191504440Y-125709233D02*
X191504440Y-126986240D01*
X191504440Y-126986240D02*
X191579558Y-127136476D01*
X191579558Y-127136476D02*
X191654676Y-127211595D01*
X191654676Y-127211595D02*
X191804912Y-127286713D01*
X191804912Y-127286713D02*
X192105385Y-127286713D01*
X192105385Y-127286713D02*
X192255621Y-127211595D01*
X192255621Y-127211595D02*
X192330739Y-127136476D01*
X192330739Y-127136476D02*
X192405857Y-126986240D01*
X192405857Y-126986240D02*
X192405857Y-125709233D01*
X193081920Y-125859469D02*
X193157038Y-125784351D01*
X193157038Y-125784351D02*
X193307274Y-125709233D01*
X193307274Y-125709233D02*
X193682865Y-125709233D01*
X193682865Y-125709233D02*
X193833101Y-125784351D01*
X193833101Y-125784351D02*
X193908219Y-125859469D01*
X193908219Y-125859469D02*
X193983337Y-126009705D01*
X193983337Y-126009705D02*
X193983337Y-126159941D01*
X193983337Y-126159941D02*
X193908219Y-126385295D01*
X193908219Y-126385295D02*
X193006802Y-127286713D01*
X193006802Y-127286713D02*
X193983337Y-127286713D01*
X165657142Y-101259580D02*
X165609523Y-101307200D01*
X165609523Y-101307200D02*
X165466666Y-101354819D01*
X165466666Y-101354819D02*
X165371428Y-101354819D01*
X165371428Y-101354819D02*
X165228571Y-101307200D01*
X165228571Y-101307200D02*
X165133333Y-101211961D01*
X165133333Y-101211961D02*
X165085714Y-101116723D01*
X165085714Y-101116723D02*
X165038095Y-100926247D01*
X165038095Y-100926247D02*
X165038095Y-100783390D01*
X165038095Y-100783390D02*
X165085714Y-100592914D01*
X165085714Y-100592914D02*
X165133333Y-100497676D01*
X165133333Y-100497676D02*
X165228571Y-100402438D01*
X165228571Y-100402438D02*
X165371428Y-100354819D01*
X165371428Y-100354819D02*
X165466666Y-100354819D01*
X165466666Y-100354819D02*
X165609523Y-100402438D01*
X165609523Y-100402438D02*
X165657142Y-100450057D01*
X166609523Y-101354819D02*
X166038095Y-101354819D01*
X166323809Y-101354819D02*
X166323809Y-100354819D01*
X166323809Y-100354819D02*
X166228571Y-100497676D01*
X166228571Y-100497676D02*
X166133333Y-100592914D01*
X166133333Y-100592914D02*
X166038095Y-100640533D01*
X167228571Y-100354819D02*
X167323809Y-100354819D01*
X167323809Y-100354819D02*
X167419047Y-100402438D01*
X167419047Y-100402438D02*
X167466666Y-100450057D01*
X167466666Y-100450057D02*
X167514285Y-100545295D01*
X167514285Y-100545295D02*
X167561904Y-100735771D01*
X167561904Y-100735771D02*
X167561904Y-100973866D01*
X167561904Y-100973866D02*
X167514285Y-101164342D01*
X167514285Y-101164342D02*
X167466666Y-101259580D01*
X167466666Y-101259580D02*
X167419047Y-101307200D01*
X167419047Y-101307200D02*
X167323809Y-101354819D01*
X167323809Y-101354819D02*
X167228571Y-101354819D01*
X167228571Y-101354819D02*
X167133333Y-101307200D01*
X167133333Y-101307200D02*
X167085714Y-101259580D01*
X167085714Y-101259580D02*
X167038095Y-101164342D01*
X167038095Y-101164342D02*
X166990476Y-100973866D01*
X166990476Y-100973866D02*
X166990476Y-100735771D01*
X166990476Y-100735771D02*
X167038095Y-100545295D01*
X167038095Y-100545295D02*
X167085714Y-100450057D01*
X167085714Y-100450057D02*
X167133333Y-100402438D01*
X167133333Y-100402438D02*
X167228571Y-100354819D01*
X221164059Y-109709575D02*
X220830726Y-109709575D01*
X220830726Y-110233385D02*
X220830726Y-109233385D01*
X220830726Y-109233385D02*
X221306916Y-109233385D01*
X222211678Y-110233385D02*
X221640250Y-110233385D01*
X221925964Y-110233385D02*
X221925964Y-109233385D01*
X221925964Y-109233385D02*
X221830726Y-109376242D01*
X221830726Y-109376242D02*
X221735488Y-109471480D01*
X221735488Y-109471480D02*
X221640250Y-109519099D01*
X145904819Y-77012857D02*
X145428628Y-77346190D01*
X145904819Y-77584285D02*
X144904819Y-77584285D01*
X144904819Y-77584285D02*
X144904819Y-77203333D01*
X144904819Y-77203333D02*
X144952438Y-77108095D01*
X144952438Y-77108095D02*
X145000057Y-77060476D01*
X145000057Y-77060476D02*
X145095295Y-77012857D01*
X145095295Y-77012857D02*
X145238152Y-77012857D01*
X145238152Y-77012857D02*
X145333390Y-77060476D01*
X145333390Y-77060476D02*
X145381009Y-77108095D01*
X145381009Y-77108095D02*
X145428628Y-77203333D01*
X145428628Y-77203333D02*
X145428628Y-77584285D01*
X145000057Y-76631904D02*
X144952438Y-76584285D01*
X144952438Y-76584285D02*
X144904819Y-76489047D01*
X144904819Y-76489047D02*
X144904819Y-76250952D01*
X144904819Y-76250952D02*
X144952438Y-76155714D01*
X144952438Y-76155714D02*
X145000057Y-76108095D01*
X145000057Y-76108095D02*
X145095295Y-76060476D01*
X145095295Y-76060476D02*
X145190533Y-76060476D01*
X145190533Y-76060476D02*
X145333390Y-76108095D01*
X145333390Y-76108095D02*
X145904819Y-76679523D01*
X145904819Y-76679523D02*
X145904819Y-76060476D01*
X144904819Y-75727142D02*
X144904819Y-75108095D01*
X144904819Y-75108095D02*
X145285771Y-75441428D01*
X145285771Y-75441428D02*
X145285771Y-75298571D01*
X145285771Y-75298571D02*
X145333390Y-75203333D01*
X145333390Y-75203333D02*
X145381009Y-75155714D01*
X145381009Y-75155714D02*
X145476247Y-75108095D01*
X145476247Y-75108095D02*
X145714342Y-75108095D01*
X145714342Y-75108095D02*
X145809580Y-75155714D01*
X145809580Y-75155714D02*
X145857200Y-75203333D01*
X145857200Y-75203333D02*
X145904819Y-75298571D01*
X145904819Y-75298571D02*
X145904819Y-75584285D01*
X145904819Y-75584285D02*
X145857200Y-75679523D01*
X145857200Y-75679523D02*
X145809580Y-75727142D01*
X177524819Y-111122857D02*
X177048628Y-111456190D01*
X177524819Y-111694285D02*
X176524819Y-111694285D01*
X176524819Y-111694285D02*
X176524819Y-111313333D01*
X176524819Y-111313333D02*
X176572438Y-111218095D01*
X176572438Y-111218095D02*
X176620057Y-111170476D01*
X176620057Y-111170476D02*
X176715295Y-111122857D01*
X176715295Y-111122857D02*
X176858152Y-111122857D01*
X176858152Y-111122857D02*
X176953390Y-111170476D01*
X176953390Y-111170476D02*
X177001009Y-111218095D01*
X177001009Y-111218095D02*
X177048628Y-111313333D01*
X177048628Y-111313333D02*
X177048628Y-111694285D01*
X177524819Y-110170476D02*
X177524819Y-110741904D01*
X177524819Y-110456190D02*
X176524819Y-110456190D01*
X176524819Y-110456190D02*
X176667676Y-110551428D01*
X176667676Y-110551428D02*
X176762914Y-110646666D01*
X176762914Y-110646666D02*
X176810533Y-110741904D01*
X176953390Y-109599047D02*
X176905771Y-109694285D01*
X176905771Y-109694285D02*
X176858152Y-109741904D01*
X176858152Y-109741904D02*
X176762914Y-109789523D01*
X176762914Y-109789523D02*
X176715295Y-109789523D01*
X176715295Y-109789523D02*
X176620057Y-109741904D01*
X176620057Y-109741904D02*
X176572438Y-109694285D01*
X176572438Y-109694285D02*
X176524819Y-109599047D01*
X176524819Y-109599047D02*
X176524819Y-109408571D01*
X176524819Y-109408571D02*
X176572438Y-109313333D01*
X176572438Y-109313333D02*
X176620057Y-109265714D01*
X176620057Y-109265714D02*
X176715295Y-109218095D01*
X176715295Y-109218095D02*
X176762914Y-109218095D01*
X176762914Y-109218095D02*
X176858152Y-109265714D01*
X176858152Y-109265714D02*
X176905771Y-109313333D01*
X176905771Y-109313333D02*
X176953390Y-109408571D01*
X176953390Y-109408571D02*
X176953390Y-109599047D01*
X176953390Y-109599047D02*
X177001009Y-109694285D01*
X177001009Y-109694285D02*
X177048628Y-109741904D01*
X177048628Y-109741904D02*
X177143866Y-109789523D01*
X177143866Y-109789523D02*
X177334342Y-109789523D01*
X177334342Y-109789523D02*
X177429580Y-109741904D01*
X177429580Y-109741904D02*
X177477200Y-109694285D01*
X177477200Y-109694285D02*
X177524819Y-109599047D01*
X177524819Y-109599047D02*
X177524819Y-109408571D01*
X177524819Y-109408571D02*
X177477200Y-109313333D01*
X177477200Y-109313333D02*
X177429580Y-109265714D01*
X177429580Y-109265714D02*
X177334342Y-109218095D01*
X177334342Y-109218095D02*
X177143866Y-109218095D01*
X177143866Y-109218095D02*
X177048628Y-109265714D01*
X177048628Y-109265714D02*
X177001009Y-109313333D01*
X177001009Y-109313333D02*
X176953390Y-109408571D01*
X146133333Y-101559580D02*
X146085714Y-101607200D01*
X146085714Y-101607200D02*
X145942857Y-101654819D01*
X145942857Y-101654819D02*
X145847619Y-101654819D01*
X145847619Y-101654819D02*
X145704762Y-101607200D01*
X145704762Y-101607200D02*
X145609524Y-101511961D01*
X145609524Y-101511961D02*
X145561905Y-101416723D01*
X145561905Y-101416723D02*
X145514286Y-101226247D01*
X145514286Y-101226247D02*
X145514286Y-101083390D01*
X145514286Y-101083390D02*
X145561905Y-100892914D01*
X145561905Y-100892914D02*
X145609524Y-100797676D01*
X145609524Y-100797676D02*
X145704762Y-100702438D01*
X145704762Y-100702438D02*
X145847619Y-100654819D01*
X145847619Y-100654819D02*
X145942857Y-100654819D01*
X145942857Y-100654819D02*
X146085714Y-100702438D01*
X146085714Y-100702438D02*
X146133333Y-100750057D01*
X146609524Y-101654819D02*
X146800000Y-101654819D01*
X146800000Y-101654819D02*
X146895238Y-101607200D01*
X146895238Y-101607200D02*
X146942857Y-101559580D01*
X146942857Y-101559580D02*
X147038095Y-101416723D01*
X147038095Y-101416723D02*
X147085714Y-101226247D01*
X147085714Y-101226247D02*
X147085714Y-100845295D01*
X147085714Y-100845295D02*
X147038095Y-100750057D01*
X147038095Y-100750057D02*
X146990476Y-100702438D01*
X146990476Y-100702438D02*
X146895238Y-100654819D01*
X146895238Y-100654819D02*
X146704762Y-100654819D01*
X146704762Y-100654819D02*
X146609524Y-100702438D01*
X146609524Y-100702438D02*
X146561905Y-100750057D01*
X146561905Y-100750057D02*
X146514286Y-100845295D01*
X146514286Y-100845295D02*
X146514286Y-101083390D01*
X146514286Y-101083390D02*
X146561905Y-101178628D01*
X146561905Y-101178628D02*
X146609524Y-101226247D01*
X146609524Y-101226247D02*
X146704762Y-101273866D01*
X146704762Y-101273866D02*
X146895238Y-101273866D01*
X146895238Y-101273866D02*
X146990476Y-101226247D01*
X146990476Y-101226247D02*
X147038095Y-101178628D01*
X147038095Y-101178628D02*
X147085714Y-101083390D01*
X43790476Y-64654819D02*
X43790476Y-65369104D01*
X43790476Y-65369104D02*
X43742857Y-65511961D01*
X43742857Y-65511961D02*
X43647619Y-65607200D01*
X43647619Y-65607200D02*
X43504762Y-65654819D01*
X43504762Y-65654819D02*
X43409524Y-65654819D01*
X44790476Y-65654819D02*
X44219048Y-65654819D01*
X44504762Y-65654819D02*
X44504762Y-64654819D01*
X44504762Y-64654819D02*
X44409524Y-64797676D01*
X44409524Y-64797676D02*
X44314286Y-64892914D01*
X44314286Y-64892914D02*
X44219048Y-64940533D01*
X45409524Y-64654819D02*
X45504762Y-64654819D01*
X45504762Y-64654819D02*
X45600000Y-64702438D01*
X45600000Y-64702438D02*
X45647619Y-64750057D01*
X45647619Y-64750057D02*
X45695238Y-64845295D01*
X45695238Y-64845295D02*
X45742857Y-65035771D01*
X45742857Y-65035771D02*
X45742857Y-65273866D01*
X45742857Y-65273866D02*
X45695238Y-65464342D01*
X45695238Y-65464342D02*
X45647619Y-65559580D01*
X45647619Y-65559580D02*
X45600000Y-65607200D01*
X45600000Y-65607200D02*
X45504762Y-65654819D01*
X45504762Y-65654819D02*
X45409524Y-65654819D01*
X45409524Y-65654819D02*
X45314286Y-65607200D01*
X45314286Y-65607200D02*
X45266667Y-65559580D01*
X45266667Y-65559580D02*
X45219048Y-65464342D01*
X45219048Y-65464342D02*
X45171429Y-65273866D01*
X45171429Y-65273866D02*
X45171429Y-65035771D01*
X45171429Y-65035771D02*
X45219048Y-64845295D01*
X45219048Y-64845295D02*
X45266667Y-64750057D01*
X45266667Y-64750057D02*
X45314286Y-64702438D01*
X45314286Y-64702438D02*
X45409524Y-64654819D01*
X165284440Y-102399233D02*
X165284440Y-103676240D01*
X165284440Y-103676240D02*
X165359558Y-103826476D01*
X165359558Y-103826476D02*
X165434676Y-103901595D01*
X165434676Y-103901595D02*
X165584912Y-103976713D01*
X165584912Y-103976713D02*
X165885385Y-103976713D01*
X165885385Y-103976713D02*
X166035621Y-103901595D01*
X166035621Y-103901595D02*
X166110739Y-103826476D01*
X166110739Y-103826476D02*
X166185857Y-103676240D01*
X166185857Y-103676240D02*
X166185857Y-102399233D01*
X167688219Y-102399233D02*
X166937038Y-102399233D01*
X166937038Y-102399233D02*
X166861920Y-103150414D01*
X166861920Y-103150414D02*
X166937038Y-103075295D01*
X166937038Y-103075295D02*
X167087274Y-103000177D01*
X167087274Y-103000177D02*
X167462865Y-103000177D01*
X167462865Y-103000177D02*
X167613101Y-103075295D01*
X167613101Y-103075295D02*
X167688219Y-103150414D01*
X167688219Y-103150414D02*
X167763337Y-103300650D01*
X167763337Y-103300650D02*
X167763337Y-103676240D01*
X167763337Y-103676240D02*
X167688219Y-103826476D01*
X167688219Y-103826476D02*
X167613101Y-103901595D01*
X167613101Y-103901595D02*
X167462865Y-103976713D01*
X167462865Y-103976713D02*
X167087274Y-103976713D01*
X167087274Y-103976713D02*
X166937038Y-103901595D01*
X166937038Y-103901595D02*
X166861920Y-103826476D01*
X208409580Y-105416666D02*
X208457200Y-105464285D01*
X208457200Y-105464285D02*
X208504819Y-105607142D01*
X208504819Y-105607142D02*
X208504819Y-105702380D01*
X208504819Y-105702380D02*
X208457200Y-105845237D01*
X208457200Y-105845237D02*
X208361961Y-105940475D01*
X208361961Y-105940475D02*
X208266723Y-105988094D01*
X208266723Y-105988094D02*
X208076247Y-106035713D01*
X208076247Y-106035713D02*
X207933390Y-106035713D01*
X207933390Y-106035713D02*
X207742914Y-105988094D01*
X207742914Y-105988094D02*
X207647676Y-105940475D01*
X207647676Y-105940475D02*
X207552438Y-105845237D01*
X207552438Y-105845237D02*
X207504819Y-105702380D01*
X207504819Y-105702380D02*
X207504819Y-105607142D01*
X207504819Y-105607142D02*
X207552438Y-105464285D01*
X207552438Y-105464285D02*
X207600057Y-105416666D01*
X207504819Y-104511904D02*
X207504819Y-104988094D01*
X207504819Y-104988094D02*
X207981009Y-105035713D01*
X207981009Y-105035713D02*
X207933390Y-104988094D01*
X207933390Y-104988094D02*
X207885771Y-104892856D01*
X207885771Y-104892856D02*
X207885771Y-104654761D01*
X207885771Y-104654761D02*
X207933390Y-104559523D01*
X207933390Y-104559523D02*
X207981009Y-104511904D01*
X207981009Y-104511904D02*
X208076247Y-104464285D01*
X208076247Y-104464285D02*
X208314342Y-104464285D01*
X208314342Y-104464285D02*
X208409580Y-104511904D01*
X208409580Y-104511904D02*
X208457200Y-104559523D01*
X208457200Y-104559523D02*
X208504819Y-104654761D01*
X208504819Y-104654761D02*
X208504819Y-104892856D01*
X208504819Y-104892856D02*
X208457200Y-104988094D01*
X208457200Y-104988094D02*
X208409580Y-105035713D01*
X238528571Y-138531009D02*
X238195238Y-138531009D01*
X238195238Y-139054819D02*
X238195238Y-138054819D01*
X238195238Y-138054819D02*
X238671428Y-138054819D01*
X239052381Y-139054819D02*
X239052381Y-138054819D01*
X239528571Y-139054819D02*
X239528571Y-138054819D01*
X239528571Y-138054819D02*
X239766666Y-138054819D01*
X239766666Y-138054819D02*
X239909523Y-138102438D01*
X239909523Y-138102438D02*
X240004761Y-138197676D01*
X240004761Y-138197676D02*
X240052380Y-138292914D01*
X240052380Y-138292914D02*
X240099999Y-138483390D01*
X240099999Y-138483390D02*
X240099999Y-138626247D01*
X240099999Y-138626247D02*
X240052380Y-138816723D01*
X240052380Y-138816723D02*
X240004761Y-138911961D01*
X240004761Y-138911961D02*
X239909523Y-139007200D01*
X239909523Y-139007200D02*
X239766666Y-139054819D01*
X239766666Y-139054819D02*
X239528571Y-139054819D01*
X240957142Y-138388152D02*
X240957142Y-139054819D01*
X240719047Y-138007200D02*
X240480952Y-138721485D01*
X240480952Y-138721485D02*
X241099999Y-138721485D01*
X77790476Y-142054819D02*
X77790476Y-142769104D01*
X77790476Y-142769104D02*
X77742857Y-142911961D01*
X77742857Y-142911961D02*
X77647619Y-143007200D01*
X77647619Y-143007200D02*
X77504762Y-143054819D01*
X77504762Y-143054819D02*
X77409524Y-143054819D01*
X78219048Y-142150057D02*
X78266667Y-142102438D01*
X78266667Y-142102438D02*
X78361905Y-142054819D01*
X78361905Y-142054819D02*
X78600000Y-142054819D01*
X78600000Y-142054819D02*
X78695238Y-142102438D01*
X78695238Y-142102438D02*
X78742857Y-142150057D01*
X78742857Y-142150057D02*
X78790476Y-142245295D01*
X78790476Y-142245295D02*
X78790476Y-142340533D01*
X78790476Y-142340533D02*
X78742857Y-142483390D01*
X78742857Y-142483390D02*
X78171429Y-143054819D01*
X78171429Y-143054819D02*
X78790476Y-143054819D01*
X79647619Y-142388152D02*
X79647619Y-143054819D01*
X79409524Y-142007200D02*
X79171429Y-142721485D01*
X79171429Y-142721485D02*
X79790476Y-142721485D01*
X78933333Y-78594819D02*
X78600000Y-78118628D01*
X78361905Y-78594819D02*
X78361905Y-77594819D01*
X78361905Y-77594819D02*
X78742857Y-77594819D01*
X78742857Y-77594819D02*
X78838095Y-77642438D01*
X78838095Y-77642438D02*
X78885714Y-77690057D01*
X78885714Y-77690057D02*
X78933333Y-77785295D01*
X78933333Y-77785295D02*
X78933333Y-77928152D01*
X78933333Y-77928152D02*
X78885714Y-78023390D01*
X78885714Y-78023390D02*
X78838095Y-78071009D01*
X78838095Y-78071009D02*
X78742857Y-78118628D01*
X78742857Y-78118628D02*
X78361905Y-78118628D01*
X79504762Y-78023390D02*
X79409524Y-77975771D01*
X79409524Y-77975771D02*
X79361905Y-77928152D01*
X79361905Y-77928152D02*
X79314286Y-77832914D01*
X79314286Y-77832914D02*
X79314286Y-77785295D01*
X79314286Y-77785295D02*
X79361905Y-77690057D01*
X79361905Y-77690057D02*
X79409524Y-77642438D01*
X79409524Y-77642438D02*
X79504762Y-77594819D01*
X79504762Y-77594819D02*
X79695238Y-77594819D01*
X79695238Y-77594819D02*
X79790476Y-77642438D01*
X79790476Y-77642438D02*
X79838095Y-77690057D01*
X79838095Y-77690057D02*
X79885714Y-77785295D01*
X79885714Y-77785295D02*
X79885714Y-77832914D01*
X79885714Y-77832914D02*
X79838095Y-77928152D01*
X79838095Y-77928152D02*
X79790476Y-77975771D01*
X79790476Y-77975771D02*
X79695238Y-78023390D01*
X79695238Y-78023390D02*
X79504762Y-78023390D01*
X79504762Y-78023390D02*
X79409524Y-78071009D01*
X79409524Y-78071009D02*
X79361905Y-78118628D01*
X79361905Y-78118628D02*
X79314286Y-78213866D01*
X79314286Y-78213866D02*
X79314286Y-78404342D01*
X79314286Y-78404342D02*
X79361905Y-78499580D01*
X79361905Y-78499580D02*
X79409524Y-78547200D01*
X79409524Y-78547200D02*
X79504762Y-78594819D01*
X79504762Y-78594819D02*
X79695238Y-78594819D01*
X79695238Y-78594819D02*
X79790476Y-78547200D01*
X79790476Y-78547200D02*
X79838095Y-78499580D01*
X79838095Y-78499580D02*
X79885714Y-78404342D01*
X79885714Y-78404342D02*
X79885714Y-78213866D01*
X79885714Y-78213866D02*
X79838095Y-78118628D01*
X79838095Y-78118628D02*
X79790476Y-78071009D01*
X79790476Y-78071009D02*
X79695238Y-78023390D01*
X41294819Y-52443333D02*
X42009104Y-52443333D01*
X42009104Y-52443333D02*
X42151961Y-52490952D01*
X42151961Y-52490952D02*
X42247200Y-52586190D01*
X42247200Y-52586190D02*
X42294819Y-52729047D01*
X42294819Y-52729047D02*
X42294819Y-52824285D01*
X42294819Y-51443333D02*
X42294819Y-52014761D01*
X42294819Y-51729047D02*
X41294819Y-51729047D01*
X41294819Y-51729047D02*
X41437676Y-51824285D01*
X41437676Y-51824285D02*
X41532914Y-51919523D01*
X41532914Y-51919523D02*
X41580533Y-52014761D01*
X220783333Y-124939580D02*
X220735714Y-124987200D01*
X220735714Y-124987200D02*
X220592857Y-125034819D01*
X220592857Y-125034819D02*
X220497619Y-125034819D01*
X220497619Y-125034819D02*
X220354762Y-124987200D01*
X220354762Y-124987200D02*
X220259524Y-124891961D01*
X220259524Y-124891961D02*
X220211905Y-124796723D01*
X220211905Y-124796723D02*
X220164286Y-124606247D01*
X220164286Y-124606247D02*
X220164286Y-124463390D01*
X220164286Y-124463390D02*
X220211905Y-124272914D01*
X220211905Y-124272914D02*
X220259524Y-124177676D01*
X220259524Y-124177676D02*
X220354762Y-124082438D01*
X220354762Y-124082438D02*
X220497619Y-124034819D01*
X220497619Y-124034819D02*
X220592857Y-124034819D01*
X220592857Y-124034819D02*
X220735714Y-124082438D01*
X220735714Y-124082438D02*
X220783333Y-124130057D01*
X221640476Y-124368152D02*
X221640476Y-125034819D01*
X221402381Y-123987200D02*
X221164286Y-124701485D01*
X221164286Y-124701485D02*
X221783333Y-124701485D01*
X213654819Y-135342857D02*
X213178628Y-135676190D01*
X213654819Y-135914285D02*
X212654819Y-135914285D01*
X212654819Y-135914285D02*
X212654819Y-135533333D01*
X212654819Y-135533333D02*
X212702438Y-135438095D01*
X212702438Y-135438095D02*
X212750057Y-135390476D01*
X212750057Y-135390476D02*
X212845295Y-135342857D01*
X212845295Y-135342857D02*
X212988152Y-135342857D01*
X212988152Y-135342857D02*
X213083390Y-135390476D01*
X213083390Y-135390476D02*
X213131009Y-135438095D01*
X213131009Y-135438095D02*
X213178628Y-135533333D01*
X213178628Y-135533333D02*
X213178628Y-135914285D01*
X213654819Y-134390476D02*
X213654819Y-134961904D01*
X213654819Y-134676190D02*
X212654819Y-134676190D01*
X212654819Y-134676190D02*
X212797676Y-134771428D01*
X212797676Y-134771428D02*
X212892914Y-134866666D01*
X212892914Y-134866666D02*
X212940533Y-134961904D01*
X212988152Y-133533333D02*
X213654819Y-133533333D01*
X212607200Y-133771428D02*
X213321485Y-134009523D01*
X213321485Y-134009523D02*
X213321485Y-133390476D01*
X92154819Y-135942857D02*
X91678628Y-136276190D01*
X92154819Y-136514285D02*
X91154819Y-136514285D01*
X91154819Y-136514285D02*
X91154819Y-136133333D01*
X91154819Y-136133333D02*
X91202438Y-136038095D01*
X91202438Y-136038095D02*
X91250057Y-135990476D01*
X91250057Y-135990476D02*
X91345295Y-135942857D01*
X91345295Y-135942857D02*
X91488152Y-135942857D01*
X91488152Y-135942857D02*
X91583390Y-135990476D01*
X91583390Y-135990476D02*
X91631009Y-136038095D01*
X91631009Y-136038095D02*
X91678628Y-136133333D01*
X91678628Y-136133333D02*
X91678628Y-136514285D01*
X91250057Y-135561904D02*
X91202438Y-135514285D01*
X91202438Y-135514285D02*
X91154819Y-135419047D01*
X91154819Y-135419047D02*
X91154819Y-135180952D01*
X91154819Y-135180952D02*
X91202438Y-135085714D01*
X91202438Y-135085714D02*
X91250057Y-135038095D01*
X91250057Y-135038095D02*
X91345295Y-134990476D01*
X91345295Y-134990476D02*
X91440533Y-134990476D01*
X91440533Y-134990476D02*
X91583390Y-135038095D01*
X91583390Y-135038095D02*
X92154819Y-135609523D01*
X92154819Y-135609523D02*
X92154819Y-134990476D01*
X91250057Y-134609523D02*
X91202438Y-134561904D01*
X91202438Y-134561904D02*
X91154819Y-134466666D01*
X91154819Y-134466666D02*
X91154819Y-134228571D01*
X91154819Y-134228571D02*
X91202438Y-134133333D01*
X91202438Y-134133333D02*
X91250057Y-134085714D01*
X91250057Y-134085714D02*
X91345295Y-134038095D01*
X91345295Y-134038095D02*
X91440533Y-134038095D01*
X91440533Y-134038095D02*
X91583390Y-134085714D01*
X91583390Y-134085714D02*
X92154819Y-134657142D01*
X92154819Y-134657142D02*
X92154819Y-134038095D01*
X155916666Y-46904819D02*
X155916666Y-47619104D01*
X155916666Y-47619104D02*
X155869047Y-47761961D01*
X155869047Y-47761961D02*
X155773809Y-47857200D01*
X155773809Y-47857200D02*
X155630952Y-47904819D01*
X155630952Y-47904819D02*
X155535714Y-47904819D01*
X156440476Y-47904819D02*
X156630952Y-47904819D01*
X156630952Y-47904819D02*
X156726190Y-47857200D01*
X156726190Y-47857200D02*
X156773809Y-47809580D01*
X156773809Y-47809580D02*
X156869047Y-47666723D01*
X156869047Y-47666723D02*
X156916666Y-47476247D01*
X156916666Y-47476247D02*
X156916666Y-47095295D01*
X156916666Y-47095295D02*
X156869047Y-47000057D01*
X156869047Y-47000057D02*
X156821428Y-46952438D01*
X156821428Y-46952438D02*
X156726190Y-46904819D01*
X156726190Y-46904819D02*
X156535714Y-46904819D01*
X156535714Y-46904819D02*
X156440476Y-46952438D01*
X156440476Y-46952438D02*
X156392857Y-47000057D01*
X156392857Y-47000057D02*
X156345238Y-47095295D01*
X156345238Y-47095295D02*
X156345238Y-47333390D01*
X156345238Y-47333390D02*
X156392857Y-47428628D01*
X156392857Y-47428628D02*
X156440476Y-47476247D01*
X156440476Y-47476247D02*
X156535714Y-47523866D01*
X156535714Y-47523866D02*
X156726190Y-47523866D01*
X156726190Y-47523866D02*
X156821428Y-47476247D01*
X156821428Y-47476247D02*
X156869047Y-47428628D01*
X156869047Y-47428628D02*
X156916666Y-47333390D01*
X145284440Y-102299233D02*
X145284440Y-103576240D01*
X145284440Y-103576240D02*
X145359558Y-103726476D01*
X145359558Y-103726476D02*
X145434676Y-103801595D01*
X145434676Y-103801595D02*
X145584912Y-103876713D01*
X145584912Y-103876713D02*
X145885385Y-103876713D01*
X145885385Y-103876713D02*
X146035621Y-103801595D01*
X146035621Y-103801595D02*
X146110739Y-103726476D01*
X146110739Y-103726476D02*
X146185857Y-103576240D01*
X146185857Y-103576240D02*
X146185857Y-102299233D01*
X147613101Y-102825059D02*
X147613101Y-103876713D01*
X147237510Y-102224115D02*
X146861920Y-103350886D01*
X146861920Y-103350886D02*
X147838455Y-103350886D01*
X145235095Y-141784439D02*
X145235095Y-142459355D01*
X145235095Y-142459355D02*
X145190100Y-142594338D01*
X145190100Y-142594338D02*
X145100112Y-142684327D01*
X145100112Y-142684327D02*
X144965128Y-142729321D01*
X144965128Y-142729321D02*
X144875140Y-142729321D01*
X145595050Y-141784439D02*
X146179977Y-141784439D01*
X146179977Y-141784439D02*
X145865016Y-142144394D01*
X145865016Y-142144394D02*
X145999999Y-142144394D01*
X145999999Y-142144394D02*
X146089988Y-142189388D01*
X146089988Y-142189388D02*
X146134982Y-142234383D01*
X146134982Y-142234383D02*
X146179977Y-142324371D01*
X146179977Y-142324371D02*
X146179977Y-142549343D01*
X146179977Y-142549343D02*
X146134982Y-142639332D01*
X146134982Y-142639332D02*
X146089988Y-142684327D01*
X146089988Y-142684327D02*
X145999999Y-142729321D01*
X145999999Y-142729321D02*
X145730033Y-142729321D01*
X145730033Y-142729321D02*
X145640044Y-142684327D01*
X145640044Y-142684327D02*
X145595050Y-142639332D01*
X147034870Y-141784439D02*
X146584926Y-141784439D01*
X146584926Y-141784439D02*
X146539932Y-142234383D01*
X146539932Y-142234383D02*
X146584926Y-142189388D01*
X146584926Y-142189388D02*
X146674915Y-142144394D01*
X146674915Y-142144394D02*
X146899887Y-142144394D01*
X146899887Y-142144394D02*
X146989876Y-142189388D01*
X146989876Y-142189388D02*
X147034870Y-142234383D01*
X147034870Y-142234383D02*
X147079865Y-142324371D01*
X147079865Y-142324371D02*
X147079865Y-142549343D01*
X147079865Y-142549343D02*
X147034870Y-142639332D01*
X147034870Y-142639332D02*
X146989876Y-142684327D01*
X146989876Y-142684327D02*
X146899887Y-142729321D01*
X146899887Y-142729321D02*
X146674915Y-142729321D01*
X146674915Y-142729321D02*
X146584926Y-142684327D01*
X146584926Y-142684327D02*
X146539932Y-142639332D01*
X165454819Y-53309523D02*
X166169104Y-53309523D01*
X166169104Y-53309523D02*
X166311961Y-53357142D01*
X166311961Y-53357142D02*
X166407200Y-53452380D01*
X166407200Y-53452380D02*
X166454819Y-53595237D01*
X166454819Y-53595237D02*
X166454819Y-53690475D01*
X166454819Y-52309523D02*
X166454819Y-52880951D01*
X166454819Y-52595237D02*
X165454819Y-52595237D01*
X165454819Y-52595237D02*
X165597676Y-52690475D01*
X165597676Y-52690475D02*
X165692914Y-52785713D01*
X165692914Y-52785713D02*
X165740533Y-52880951D01*
X165883390Y-51738094D02*
X165835771Y-51833332D01*
X165835771Y-51833332D02*
X165788152Y-51880951D01*
X165788152Y-51880951D02*
X165692914Y-51928570D01*
X165692914Y-51928570D02*
X165645295Y-51928570D01*
X165645295Y-51928570D02*
X165550057Y-51880951D01*
X165550057Y-51880951D02*
X165502438Y-51833332D01*
X165502438Y-51833332D02*
X165454819Y-51738094D01*
X165454819Y-51738094D02*
X165454819Y-51547618D01*
X165454819Y-51547618D02*
X165502438Y-51452380D01*
X165502438Y-51452380D02*
X165550057Y-51404761D01*
X165550057Y-51404761D02*
X165645295Y-51357142D01*
X165645295Y-51357142D02*
X165692914Y-51357142D01*
X165692914Y-51357142D02*
X165788152Y-51404761D01*
X165788152Y-51404761D02*
X165835771Y-51452380D01*
X165835771Y-51452380D02*
X165883390Y-51547618D01*
X165883390Y-51547618D02*
X165883390Y-51738094D01*
X165883390Y-51738094D02*
X165931009Y-51833332D01*
X165931009Y-51833332D02*
X165978628Y-51880951D01*
X165978628Y-51880951D02*
X166073866Y-51928570D01*
X166073866Y-51928570D02*
X166264342Y-51928570D01*
X166264342Y-51928570D02*
X166359580Y-51880951D01*
X166359580Y-51880951D02*
X166407200Y-51833332D01*
X166407200Y-51833332D02*
X166454819Y-51738094D01*
X166454819Y-51738094D02*
X166454819Y-51547618D01*
X166454819Y-51547618D02*
X166407200Y-51452380D01*
X166407200Y-51452380D02*
X166359580Y-51404761D01*
X166359580Y-51404761D02*
X166264342Y-51357142D01*
X166264342Y-51357142D02*
X166073866Y-51357142D01*
X166073866Y-51357142D02*
X165978628Y-51404761D01*
X165978628Y-51404761D02*
X165931009Y-51452380D01*
X165931009Y-51452380D02*
X165883390Y-51547618D01*
X145084819Y-124462857D02*
X144608628Y-124796190D01*
X145084819Y-125034285D02*
X144084819Y-125034285D01*
X144084819Y-125034285D02*
X144084819Y-124653333D01*
X144084819Y-124653333D02*
X144132438Y-124558095D01*
X144132438Y-124558095D02*
X144180057Y-124510476D01*
X144180057Y-124510476D02*
X144275295Y-124462857D01*
X144275295Y-124462857D02*
X144418152Y-124462857D01*
X144418152Y-124462857D02*
X144513390Y-124510476D01*
X144513390Y-124510476D02*
X144561009Y-124558095D01*
X144561009Y-124558095D02*
X144608628Y-124653333D01*
X144608628Y-124653333D02*
X144608628Y-125034285D01*
X145084819Y-123510476D02*
X145084819Y-124081904D01*
X145084819Y-123796190D02*
X144084819Y-123796190D01*
X144084819Y-123796190D02*
X144227676Y-123891428D01*
X144227676Y-123891428D02*
X144322914Y-123986666D01*
X144322914Y-123986666D02*
X144370533Y-124081904D01*
X144084819Y-123177142D02*
X144084819Y-122510476D01*
X144084819Y-122510476D02*
X145084819Y-122939047D01*
X106938095Y-62554819D02*
X106938095Y-63364342D01*
X106938095Y-63364342D02*
X106985714Y-63459580D01*
X106985714Y-63459580D02*
X107033333Y-63507200D01*
X107033333Y-63507200D02*
X107128571Y-63554819D01*
X107128571Y-63554819D02*
X107319047Y-63554819D01*
X107319047Y-63554819D02*
X107414285Y-63507200D01*
X107414285Y-63507200D02*
X107461904Y-63459580D01*
X107461904Y-63459580D02*
X107509523Y-63364342D01*
X107509523Y-63364342D02*
X107509523Y-62554819D01*
X108509523Y-63554819D02*
X107938095Y-63554819D01*
X108223809Y-63554819D02*
X108223809Y-62554819D01*
X108223809Y-62554819D02*
X108128571Y-62697676D01*
X108128571Y-62697676D02*
X108033333Y-62792914D01*
X108033333Y-62792914D02*
X107938095Y-62840533D01*
X128894819Y-111812857D02*
X128418628Y-112146190D01*
X128894819Y-112384285D02*
X127894819Y-112384285D01*
X127894819Y-112384285D02*
X127894819Y-112003333D01*
X127894819Y-112003333D02*
X127942438Y-111908095D01*
X127942438Y-111908095D02*
X127990057Y-111860476D01*
X127990057Y-111860476D02*
X128085295Y-111812857D01*
X128085295Y-111812857D02*
X128228152Y-111812857D01*
X128228152Y-111812857D02*
X128323390Y-111860476D01*
X128323390Y-111860476D02*
X128371009Y-111908095D01*
X128371009Y-111908095D02*
X128418628Y-112003333D01*
X128418628Y-112003333D02*
X128418628Y-112384285D01*
X128894819Y-110860476D02*
X128894819Y-111431904D01*
X128894819Y-111146190D02*
X127894819Y-111146190D01*
X127894819Y-111146190D02*
X128037676Y-111241428D01*
X128037676Y-111241428D02*
X128132914Y-111336666D01*
X128132914Y-111336666D02*
X128180533Y-111431904D01*
X127894819Y-110003333D02*
X127894819Y-110193809D01*
X127894819Y-110193809D02*
X127942438Y-110289047D01*
X127942438Y-110289047D02*
X127990057Y-110336666D01*
X127990057Y-110336666D02*
X128132914Y-110431904D01*
X128132914Y-110431904D02*
X128323390Y-110479523D01*
X128323390Y-110479523D02*
X128704342Y-110479523D01*
X128704342Y-110479523D02*
X128799580Y-110431904D01*
X128799580Y-110431904D02*
X128847200Y-110384285D01*
X128847200Y-110384285D02*
X128894819Y-110289047D01*
X128894819Y-110289047D02*
X128894819Y-110098571D01*
X128894819Y-110098571D02*
X128847200Y-110003333D01*
X128847200Y-110003333D02*
X128799580Y-109955714D01*
X128799580Y-109955714D02*
X128704342Y-109908095D01*
X128704342Y-109908095D02*
X128466247Y-109908095D01*
X128466247Y-109908095D02*
X128371009Y-109955714D01*
X128371009Y-109955714D02*
X128323390Y-110003333D01*
X128323390Y-110003333D02*
X128275771Y-110098571D01*
X128275771Y-110098571D02*
X128275771Y-110289047D01*
X128275771Y-110289047D02*
X128323390Y-110384285D01*
X128323390Y-110384285D02*
X128371009Y-110431904D01*
X128371009Y-110431904D02*
X128466247Y-110479523D01*
X187907142Y-73534819D02*
X187573809Y-73058628D01*
X187335714Y-73534819D02*
X187335714Y-72534819D01*
X187335714Y-72534819D02*
X187716666Y-72534819D01*
X187716666Y-72534819D02*
X187811904Y-72582438D01*
X187811904Y-72582438D02*
X187859523Y-72630057D01*
X187859523Y-72630057D02*
X187907142Y-72725295D01*
X187907142Y-72725295D02*
X187907142Y-72868152D01*
X187907142Y-72868152D02*
X187859523Y-72963390D01*
X187859523Y-72963390D02*
X187811904Y-73011009D01*
X187811904Y-73011009D02*
X187716666Y-73058628D01*
X187716666Y-73058628D02*
X187335714Y-73058628D01*
X188288095Y-72630057D02*
X188335714Y-72582438D01*
X188335714Y-72582438D02*
X188430952Y-72534819D01*
X188430952Y-72534819D02*
X188669047Y-72534819D01*
X188669047Y-72534819D02*
X188764285Y-72582438D01*
X188764285Y-72582438D02*
X188811904Y-72630057D01*
X188811904Y-72630057D02*
X188859523Y-72725295D01*
X188859523Y-72725295D02*
X188859523Y-72820533D01*
X188859523Y-72820533D02*
X188811904Y-72963390D01*
X188811904Y-72963390D02*
X188240476Y-73534819D01*
X188240476Y-73534819D02*
X188859523Y-73534819D01*
X189764285Y-72534819D02*
X189288095Y-72534819D01*
X189288095Y-72534819D02*
X189240476Y-73011009D01*
X189240476Y-73011009D02*
X189288095Y-72963390D01*
X189288095Y-72963390D02*
X189383333Y-72915771D01*
X189383333Y-72915771D02*
X189621428Y-72915771D01*
X189621428Y-72915771D02*
X189716666Y-72963390D01*
X189716666Y-72963390D02*
X189764285Y-73011009D01*
X189764285Y-73011009D02*
X189811904Y-73106247D01*
X189811904Y-73106247D02*
X189811904Y-73344342D01*
X189811904Y-73344342D02*
X189764285Y-73439580D01*
X189764285Y-73439580D02*
X189716666Y-73487200D01*
X189716666Y-73487200D02*
X189621428Y-73534819D01*
X189621428Y-73534819D02*
X189383333Y-73534819D01*
X189383333Y-73534819D02*
X189288095Y-73487200D01*
X189288095Y-73487200D02*
X189240476Y-73439580D01*
X164884819Y-124562857D02*
X164408628Y-124896190D01*
X164884819Y-125134285D02*
X163884819Y-125134285D01*
X163884819Y-125134285D02*
X163884819Y-124753333D01*
X163884819Y-124753333D02*
X163932438Y-124658095D01*
X163932438Y-124658095D02*
X163980057Y-124610476D01*
X163980057Y-124610476D02*
X164075295Y-124562857D01*
X164075295Y-124562857D02*
X164218152Y-124562857D01*
X164218152Y-124562857D02*
X164313390Y-124610476D01*
X164313390Y-124610476D02*
X164361009Y-124658095D01*
X164361009Y-124658095D02*
X164408628Y-124753333D01*
X164408628Y-124753333D02*
X164408628Y-125134285D01*
X163980057Y-124181904D02*
X163932438Y-124134285D01*
X163932438Y-124134285D02*
X163884819Y-124039047D01*
X163884819Y-124039047D02*
X163884819Y-123800952D01*
X163884819Y-123800952D02*
X163932438Y-123705714D01*
X163932438Y-123705714D02*
X163980057Y-123658095D01*
X163980057Y-123658095D02*
X164075295Y-123610476D01*
X164075295Y-123610476D02*
X164170533Y-123610476D01*
X164170533Y-123610476D02*
X164313390Y-123658095D01*
X164313390Y-123658095D02*
X164884819Y-124229523D01*
X164884819Y-124229523D02*
X164884819Y-123610476D01*
X163884819Y-122991428D02*
X163884819Y-122896190D01*
X163884819Y-122896190D02*
X163932438Y-122800952D01*
X163932438Y-122800952D02*
X163980057Y-122753333D01*
X163980057Y-122753333D02*
X164075295Y-122705714D01*
X164075295Y-122705714D02*
X164265771Y-122658095D01*
X164265771Y-122658095D02*
X164503866Y-122658095D01*
X164503866Y-122658095D02*
X164694342Y-122705714D01*
X164694342Y-122705714D02*
X164789580Y-122753333D01*
X164789580Y-122753333D02*
X164837200Y-122800952D01*
X164837200Y-122800952D02*
X164884819Y-122896190D01*
X164884819Y-122896190D02*
X164884819Y-122991428D01*
X164884819Y-122991428D02*
X164837200Y-123086666D01*
X164837200Y-123086666D02*
X164789580Y-123134285D01*
X164789580Y-123134285D02*
X164694342Y-123181904D01*
X164694342Y-123181904D02*
X164503866Y-123229523D01*
X164503866Y-123229523D02*
X164265771Y-123229523D01*
X164265771Y-123229523D02*
X164075295Y-123181904D01*
X164075295Y-123181904D02*
X163980057Y-123134285D01*
X163980057Y-123134285D02*
X163932438Y-123086666D01*
X163932438Y-123086666D02*
X163884819Y-122991428D01*
X33128571Y-56160536D02*
X32795238Y-56160536D01*
X32795238Y-56684346D02*
X32795238Y-55684346D01*
X32795238Y-55684346D02*
X33271428Y-55684346D01*
X33652381Y-56684346D02*
X33652381Y-55684346D01*
X34128571Y-56684346D02*
X34128571Y-55684346D01*
X34128571Y-55684346D02*
X34366666Y-55684346D01*
X34366666Y-55684346D02*
X34509523Y-55731965D01*
X34509523Y-55731965D02*
X34604761Y-55827203D01*
X34604761Y-55827203D02*
X34652380Y-55922441D01*
X34652380Y-55922441D02*
X34699999Y-56112917D01*
X34699999Y-56112917D02*
X34699999Y-56255774D01*
X34699999Y-56255774D02*
X34652380Y-56446250D01*
X34652380Y-56446250D02*
X34604761Y-56541488D01*
X34604761Y-56541488D02*
X34509523Y-56636727D01*
X34509523Y-56636727D02*
X34366666Y-56684346D01*
X34366666Y-56684346D02*
X34128571Y-56684346D01*
X35652380Y-56684346D02*
X35080952Y-56684346D01*
X35366666Y-56684346D02*
X35366666Y-55684346D01*
X35366666Y-55684346D02*
X35271428Y-55827203D01*
X35271428Y-55827203D02*
X35176190Y-55922441D01*
X35176190Y-55922441D02*
X35080952Y-55970060D01*
X192776666Y-141934819D02*
X192776666Y-142649104D01*
X192776666Y-142649104D02*
X192729047Y-142791961D01*
X192729047Y-142791961D02*
X192633809Y-142887200D01*
X192633809Y-142887200D02*
X192490952Y-142934819D01*
X192490952Y-142934819D02*
X192395714Y-142934819D01*
X193157619Y-141934819D02*
X193776666Y-141934819D01*
X193776666Y-141934819D02*
X193443333Y-142315771D01*
X193443333Y-142315771D02*
X193586190Y-142315771D01*
X193586190Y-142315771D02*
X193681428Y-142363390D01*
X193681428Y-142363390D02*
X193729047Y-142411009D01*
X193729047Y-142411009D02*
X193776666Y-142506247D01*
X193776666Y-142506247D02*
X193776666Y-142744342D01*
X193776666Y-142744342D02*
X193729047Y-142839580D01*
X193729047Y-142839580D02*
X193681428Y-142887200D01*
X193681428Y-142887200D02*
X193586190Y-142934819D01*
X193586190Y-142934819D02*
X193300476Y-142934819D01*
X193300476Y-142934819D02*
X193205238Y-142887200D01*
X193205238Y-142887200D02*
X193157619Y-142839580D01*
X184324819Y-135222857D02*
X183848628Y-135556190D01*
X184324819Y-135794285D02*
X183324819Y-135794285D01*
X183324819Y-135794285D02*
X183324819Y-135413333D01*
X183324819Y-135413333D02*
X183372438Y-135318095D01*
X183372438Y-135318095D02*
X183420057Y-135270476D01*
X183420057Y-135270476D02*
X183515295Y-135222857D01*
X183515295Y-135222857D02*
X183658152Y-135222857D01*
X183658152Y-135222857D02*
X183753390Y-135270476D01*
X183753390Y-135270476D02*
X183801009Y-135318095D01*
X183801009Y-135318095D02*
X183848628Y-135413333D01*
X183848628Y-135413333D02*
X183848628Y-135794285D01*
X184324819Y-134270476D02*
X184324819Y-134841904D01*
X184324819Y-134556190D02*
X183324819Y-134556190D01*
X183324819Y-134556190D02*
X183467676Y-134651428D01*
X183467676Y-134651428D02*
X183562914Y-134746666D01*
X183562914Y-134746666D02*
X183610533Y-134841904D01*
X184324819Y-133318095D02*
X184324819Y-133889523D01*
X184324819Y-133603809D02*
X183324819Y-133603809D01*
X183324819Y-133603809D02*
X183467676Y-133699047D01*
X183467676Y-133699047D02*
X183562914Y-133794285D01*
X183562914Y-133794285D02*
X183610533Y-133889523D01*
X139544819Y-111712857D02*
X139068628Y-112046190D01*
X139544819Y-112284285D02*
X138544819Y-112284285D01*
X138544819Y-112284285D02*
X138544819Y-111903333D01*
X138544819Y-111903333D02*
X138592438Y-111808095D01*
X138592438Y-111808095D02*
X138640057Y-111760476D01*
X138640057Y-111760476D02*
X138735295Y-111712857D01*
X138735295Y-111712857D02*
X138878152Y-111712857D01*
X138878152Y-111712857D02*
X138973390Y-111760476D01*
X138973390Y-111760476D02*
X139021009Y-111808095D01*
X139021009Y-111808095D02*
X139068628Y-111903333D01*
X139068628Y-111903333D02*
X139068628Y-112284285D01*
X139544819Y-110760476D02*
X139544819Y-111331904D01*
X139544819Y-111046190D02*
X138544819Y-111046190D01*
X138544819Y-111046190D02*
X138687676Y-111141428D01*
X138687676Y-111141428D02*
X138782914Y-111236666D01*
X138782914Y-111236666D02*
X138830533Y-111331904D01*
X138544819Y-109855714D02*
X138544819Y-110331904D01*
X138544819Y-110331904D02*
X139021009Y-110379523D01*
X139021009Y-110379523D02*
X138973390Y-110331904D01*
X138973390Y-110331904D02*
X138925771Y-110236666D01*
X138925771Y-110236666D02*
X138925771Y-109998571D01*
X138925771Y-109998571D02*
X138973390Y-109903333D01*
X138973390Y-109903333D02*
X139021009Y-109855714D01*
X139021009Y-109855714D02*
X139116247Y-109808095D01*
X139116247Y-109808095D02*
X139354342Y-109808095D01*
X139354342Y-109808095D02*
X139449580Y-109855714D01*
X139449580Y-109855714D02*
X139497200Y-109903333D01*
X139497200Y-109903333D02*
X139544819Y-109998571D01*
X139544819Y-109998571D02*
X139544819Y-110236666D01*
X139544819Y-110236666D02*
X139497200Y-110331904D01*
X139497200Y-110331904D02*
X139449580Y-110379523D01*
X219342478Y-77514112D02*
X219009145Y-77514112D01*
X219009145Y-78037922D02*
X219009145Y-77037922D01*
X219009145Y-77037922D02*
X219485335Y-77037922D01*
X220294859Y-77371255D02*
X220294859Y-78037922D01*
X220056764Y-76990303D02*
X219818669Y-77704588D01*
X219818669Y-77704588D02*
X220437716Y-77704588D01*
X212916666Y-87031009D02*
X212583333Y-87031009D01*
X212583333Y-87554819D02*
X212583333Y-86554819D01*
X212583333Y-86554819D02*
X213059523Y-86554819D01*
X213345238Y-86554819D02*
X213964285Y-86554819D01*
X213964285Y-86554819D02*
X213630952Y-86935771D01*
X213630952Y-86935771D02*
X213773809Y-86935771D01*
X213773809Y-86935771D02*
X213869047Y-86983390D01*
X213869047Y-86983390D02*
X213916666Y-87031009D01*
X213916666Y-87031009D02*
X213964285Y-87126247D01*
X213964285Y-87126247D02*
X213964285Y-87364342D01*
X213964285Y-87364342D02*
X213916666Y-87459580D01*
X213916666Y-87459580D02*
X213869047Y-87507200D01*
X213869047Y-87507200D02*
X213773809Y-87554819D01*
X213773809Y-87554819D02*
X213488095Y-87554819D01*
X213488095Y-87554819D02*
X213392857Y-87507200D01*
X213392857Y-87507200D02*
X213345238Y-87459580D01*
X70664819Y-71376666D02*
X70188628Y-71709999D01*
X70664819Y-71948094D02*
X69664819Y-71948094D01*
X69664819Y-71948094D02*
X69664819Y-71567142D01*
X69664819Y-71567142D02*
X69712438Y-71471904D01*
X69712438Y-71471904D02*
X69760057Y-71424285D01*
X69760057Y-71424285D02*
X69855295Y-71376666D01*
X69855295Y-71376666D02*
X69998152Y-71376666D01*
X69998152Y-71376666D02*
X70093390Y-71424285D01*
X70093390Y-71424285D02*
X70141009Y-71471904D01*
X70141009Y-71471904D02*
X70188628Y-71567142D01*
X70188628Y-71567142D02*
X70188628Y-71948094D01*
X69998152Y-70519523D02*
X70664819Y-70519523D01*
X69617200Y-70757618D02*
X70331485Y-70995713D01*
X70331485Y-70995713D02*
X70331485Y-70376666D01*
X180476666Y-141934819D02*
X180476666Y-142649104D01*
X180476666Y-142649104D02*
X180429047Y-142791961D01*
X180429047Y-142791961D02*
X180333809Y-142887200D01*
X180333809Y-142887200D02*
X180190952Y-142934819D01*
X180190952Y-142934819D02*
X180095714Y-142934819D01*
X180905238Y-142030057D02*
X180952857Y-141982438D01*
X180952857Y-141982438D02*
X181048095Y-141934819D01*
X181048095Y-141934819D02*
X181286190Y-141934819D01*
X181286190Y-141934819D02*
X181381428Y-141982438D01*
X181381428Y-141982438D02*
X181429047Y-142030057D01*
X181429047Y-142030057D02*
X181476666Y-142125295D01*
X181476666Y-142125295D02*
X181476666Y-142220533D01*
X181476666Y-142220533D02*
X181429047Y-142363390D01*
X181429047Y-142363390D02*
X180857619Y-142934819D01*
X180857619Y-142934819D02*
X181476666Y-142934819D01*
X177044819Y-76052857D02*
X176568628Y-76386190D01*
X177044819Y-76624285D02*
X176044819Y-76624285D01*
X176044819Y-76624285D02*
X176044819Y-76243333D01*
X176044819Y-76243333D02*
X176092438Y-76148095D01*
X176092438Y-76148095D02*
X176140057Y-76100476D01*
X176140057Y-76100476D02*
X176235295Y-76052857D01*
X176235295Y-76052857D02*
X176378152Y-76052857D01*
X176378152Y-76052857D02*
X176473390Y-76100476D01*
X176473390Y-76100476D02*
X176521009Y-76148095D01*
X176521009Y-76148095D02*
X176568628Y-76243333D01*
X176568628Y-76243333D02*
X176568628Y-76624285D01*
X176140057Y-75671904D02*
X176092438Y-75624285D01*
X176092438Y-75624285D02*
X176044819Y-75529047D01*
X176044819Y-75529047D02*
X176044819Y-75290952D01*
X176044819Y-75290952D02*
X176092438Y-75195714D01*
X176092438Y-75195714D02*
X176140057Y-75148095D01*
X176140057Y-75148095D02*
X176235295Y-75100476D01*
X176235295Y-75100476D02*
X176330533Y-75100476D01*
X176330533Y-75100476D02*
X176473390Y-75148095D01*
X176473390Y-75148095D02*
X177044819Y-75719523D01*
X177044819Y-75719523D02*
X177044819Y-75100476D01*
X176044819Y-74243333D02*
X176044819Y-74433809D01*
X176044819Y-74433809D02*
X176092438Y-74529047D01*
X176092438Y-74529047D02*
X176140057Y-74576666D01*
X176140057Y-74576666D02*
X176282914Y-74671904D01*
X176282914Y-74671904D02*
X176473390Y-74719523D01*
X176473390Y-74719523D02*
X176854342Y-74719523D01*
X176854342Y-74719523D02*
X176949580Y-74671904D01*
X176949580Y-74671904D02*
X176997200Y-74624285D01*
X176997200Y-74624285D02*
X177044819Y-74529047D01*
X177044819Y-74529047D02*
X177044819Y-74338571D01*
X177044819Y-74338571D02*
X176997200Y-74243333D01*
X176997200Y-74243333D02*
X176949580Y-74195714D01*
X176949580Y-74195714D02*
X176854342Y-74148095D01*
X176854342Y-74148095D02*
X176616247Y-74148095D01*
X176616247Y-74148095D02*
X176521009Y-74195714D01*
X176521009Y-74195714D02*
X176473390Y-74243333D01*
X176473390Y-74243333D02*
X176425771Y-74338571D01*
X176425771Y-74338571D02*
X176425771Y-74529047D01*
X176425771Y-74529047D02*
X176473390Y-74624285D01*
X176473390Y-74624285D02*
X176521009Y-74671904D01*
X176521009Y-74671904D02*
X176616247Y-74719523D01*
X163974819Y-73469523D02*
X164689104Y-73469523D01*
X164689104Y-73469523D02*
X164831961Y-73517142D01*
X164831961Y-73517142D02*
X164927200Y-73612380D01*
X164927200Y-73612380D02*
X164974819Y-73755237D01*
X164974819Y-73755237D02*
X164974819Y-73850475D01*
X164070057Y-73040951D02*
X164022438Y-72993332D01*
X164022438Y-72993332D02*
X163974819Y-72898094D01*
X163974819Y-72898094D02*
X163974819Y-72659999D01*
X163974819Y-72659999D02*
X164022438Y-72564761D01*
X164022438Y-72564761D02*
X164070057Y-72517142D01*
X164070057Y-72517142D02*
X164165295Y-72469523D01*
X164165295Y-72469523D02*
X164260533Y-72469523D01*
X164260533Y-72469523D02*
X164403390Y-72517142D01*
X164403390Y-72517142D02*
X164974819Y-73088570D01*
X164974819Y-73088570D02*
X164974819Y-72469523D01*
X163974819Y-71850475D02*
X163974819Y-71755237D01*
X163974819Y-71755237D02*
X164022438Y-71659999D01*
X164022438Y-71659999D02*
X164070057Y-71612380D01*
X164070057Y-71612380D02*
X164165295Y-71564761D01*
X164165295Y-71564761D02*
X164355771Y-71517142D01*
X164355771Y-71517142D02*
X164593866Y-71517142D01*
X164593866Y-71517142D02*
X164784342Y-71564761D01*
X164784342Y-71564761D02*
X164879580Y-71612380D01*
X164879580Y-71612380D02*
X164927200Y-71659999D01*
X164927200Y-71659999D02*
X164974819Y-71755237D01*
X164974819Y-71755237D02*
X164974819Y-71850475D01*
X164974819Y-71850475D02*
X164927200Y-71945713D01*
X164927200Y-71945713D02*
X164879580Y-71993332D01*
X164879580Y-71993332D02*
X164784342Y-72040951D01*
X164784342Y-72040951D02*
X164593866Y-72088570D01*
X164593866Y-72088570D02*
X164355771Y-72088570D01*
X164355771Y-72088570D02*
X164165295Y-72040951D01*
X164165295Y-72040951D02*
X164070057Y-71993332D01*
X164070057Y-71993332D02*
X164022438Y-71945713D01*
X164022438Y-71945713D02*
X163974819Y-71850475D01*
X151650057Y-136135238D02*
X151602438Y-136230476D01*
X151602438Y-136230476D02*
X151507200Y-136325714D01*
X151507200Y-136325714D02*
X151364342Y-136468571D01*
X151364342Y-136468571D02*
X151316723Y-136563809D01*
X151316723Y-136563809D02*
X151316723Y-136659047D01*
X151554819Y-136611428D02*
X151507200Y-136706666D01*
X151507200Y-136706666D02*
X151411961Y-136801904D01*
X151411961Y-136801904D02*
X151221485Y-136849523D01*
X151221485Y-136849523D02*
X150888152Y-136849523D01*
X150888152Y-136849523D02*
X150697676Y-136801904D01*
X150697676Y-136801904D02*
X150602438Y-136706666D01*
X150602438Y-136706666D02*
X150554819Y-136611428D01*
X150554819Y-136611428D02*
X150554819Y-136420952D01*
X150554819Y-136420952D02*
X150602438Y-136325714D01*
X150602438Y-136325714D02*
X150697676Y-136230476D01*
X150697676Y-136230476D02*
X150888152Y-136182857D01*
X150888152Y-136182857D02*
X151221485Y-136182857D01*
X151221485Y-136182857D02*
X151411961Y-136230476D01*
X151411961Y-136230476D02*
X151507200Y-136325714D01*
X151507200Y-136325714D02*
X151554819Y-136420952D01*
X151554819Y-136420952D02*
X151554819Y-136611428D01*
X151554819Y-135230476D02*
X151554819Y-135801904D01*
X151554819Y-135516190D02*
X150554819Y-135516190D01*
X150554819Y-135516190D02*
X150697676Y-135611428D01*
X150697676Y-135611428D02*
X150792914Y-135706666D01*
X150792914Y-135706666D02*
X150840533Y-135801904D01*
X197033333Y-109909580D02*
X196985714Y-109957200D01*
X196985714Y-109957200D02*
X196842857Y-110004819D01*
X196842857Y-110004819D02*
X196747619Y-110004819D01*
X196747619Y-110004819D02*
X196604762Y-109957200D01*
X196604762Y-109957200D02*
X196509524Y-109861961D01*
X196509524Y-109861961D02*
X196461905Y-109766723D01*
X196461905Y-109766723D02*
X196414286Y-109576247D01*
X196414286Y-109576247D02*
X196414286Y-109433390D01*
X196414286Y-109433390D02*
X196461905Y-109242914D01*
X196461905Y-109242914D02*
X196509524Y-109147676D01*
X196509524Y-109147676D02*
X196604762Y-109052438D01*
X196604762Y-109052438D02*
X196747619Y-109004819D01*
X196747619Y-109004819D02*
X196842857Y-109004819D01*
X196842857Y-109004819D02*
X196985714Y-109052438D01*
X196985714Y-109052438D02*
X197033333Y-109100057D01*
X197890476Y-109004819D02*
X197700000Y-109004819D01*
X197700000Y-109004819D02*
X197604762Y-109052438D01*
X197604762Y-109052438D02*
X197557143Y-109100057D01*
X197557143Y-109100057D02*
X197461905Y-109242914D01*
X197461905Y-109242914D02*
X197414286Y-109433390D01*
X197414286Y-109433390D02*
X197414286Y-109814342D01*
X197414286Y-109814342D02*
X197461905Y-109909580D01*
X197461905Y-109909580D02*
X197509524Y-109957200D01*
X197509524Y-109957200D02*
X197604762Y-110004819D01*
X197604762Y-110004819D02*
X197795238Y-110004819D01*
X197795238Y-110004819D02*
X197890476Y-109957200D01*
X197890476Y-109957200D02*
X197938095Y-109909580D01*
X197938095Y-109909580D02*
X197985714Y-109814342D01*
X197985714Y-109814342D02*
X197985714Y-109576247D01*
X197985714Y-109576247D02*
X197938095Y-109481009D01*
X197938095Y-109481009D02*
X197890476Y-109433390D01*
X197890476Y-109433390D02*
X197795238Y-109385771D01*
X197795238Y-109385771D02*
X197604762Y-109385771D01*
X197604762Y-109385771D02*
X197509524Y-109433390D01*
X197509524Y-109433390D02*
X197461905Y-109481009D01*
X197461905Y-109481009D02*
X197414286Y-109576247D01*
X236724819Y-131762857D02*
X236248628Y-132096190D01*
X236724819Y-132334285D02*
X235724819Y-132334285D01*
X235724819Y-132334285D02*
X235724819Y-131953333D01*
X235724819Y-131953333D02*
X235772438Y-131858095D01*
X235772438Y-131858095D02*
X235820057Y-131810476D01*
X235820057Y-131810476D02*
X235915295Y-131762857D01*
X235915295Y-131762857D02*
X236058152Y-131762857D01*
X236058152Y-131762857D02*
X236153390Y-131810476D01*
X236153390Y-131810476D02*
X236201009Y-131858095D01*
X236201009Y-131858095D02*
X236248628Y-131953333D01*
X236248628Y-131953333D02*
X236248628Y-132334285D01*
X235820057Y-131381904D02*
X235772438Y-131334285D01*
X235772438Y-131334285D02*
X235724819Y-131239047D01*
X235724819Y-131239047D02*
X235724819Y-131000952D01*
X235724819Y-131000952D02*
X235772438Y-130905714D01*
X235772438Y-130905714D02*
X235820057Y-130858095D01*
X235820057Y-130858095D02*
X235915295Y-130810476D01*
X235915295Y-130810476D02*
X236010533Y-130810476D01*
X236010533Y-130810476D02*
X236153390Y-130858095D01*
X236153390Y-130858095D02*
X236724819Y-131429523D01*
X236724819Y-131429523D02*
X236724819Y-130810476D01*
X235724819Y-130477142D02*
X235724819Y-129810476D01*
X235724819Y-129810476D02*
X236724819Y-130239047D01*
X116140476Y-47704819D02*
X116140476Y-48419104D01*
X116140476Y-48419104D02*
X116092857Y-48561961D01*
X116092857Y-48561961D02*
X115997619Y-48657200D01*
X115997619Y-48657200D02*
X115854762Y-48704819D01*
X115854762Y-48704819D02*
X115759524Y-48704819D01*
X117140476Y-48704819D02*
X116569048Y-48704819D01*
X116854762Y-48704819D02*
X116854762Y-47704819D01*
X116854762Y-47704819D02*
X116759524Y-47847676D01*
X116759524Y-47847676D02*
X116664286Y-47942914D01*
X116664286Y-47942914D02*
X116569048Y-47990533D01*
X117473810Y-47704819D02*
X118092857Y-47704819D01*
X118092857Y-47704819D02*
X117759524Y-48085771D01*
X117759524Y-48085771D02*
X117902381Y-48085771D01*
X117902381Y-48085771D02*
X117997619Y-48133390D01*
X117997619Y-48133390D02*
X118045238Y-48181009D01*
X118045238Y-48181009D02*
X118092857Y-48276247D01*
X118092857Y-48276247D02*
X118092857Y-48514342D01*
X118092857Y-48514342D02*
X118045238Y-48609580D01*
X118045238Y-48609580D02*
X117997619Y-48657200D01*
X117997619Y-48657200D02*
X117902381Y-48704819D01*
X117902381Y-48704819D02*
X117616667Y-48704819D01*
X117616667Y-48704819D02*
X117521429Y-48657200D01*
X117521429Y-48657200D02*
X117473810Y-48609580D01*
%TO.C,C8*%
D13*
X202630000Y-56580000D02*
X202967000Y-56580000D01*
X202630000Y-61820000D02*
X202630000Y-56580000D01*
X202967000Y-61820000D02*
X202630000Y-61820000D01*
X205033000Y-56580000D02*
X205370000Y-56580000D01*
X205370000Y-56580000D02*
X205370000Y-61820000D01*
X205370000Y-61820000D02*
X205033000Y-61820000D01*
%TO.C,J33*%
X130120000Y-47980000D02*
X131500000Y-47980000D01*
X130120000Y-49360000D02*
X130120000Y-47980000D01*
X130120000Y-50630000D02*
X130120000Y-63440000D01*
X130120000Y-50630000D02*
X132880000Y-50630000D01*
X130120000Y-63440000D02*
X132880000Y-63440000D01*
X132880000Y-50630000D02*
X132880000Y-63440000D01*
%TO.C,J8*%
D14*
X208400000Y-48100000D02*
X226400000Y-48100000D01*
X208400000Y-60900000D02*
X208400000Y-48100000D01*
X209600000Y-60900000D02*
X208400000Y-60900000D01*
D15*
X210900000Y-63950000D02*
X210900000Y-63950000D01*
X211100000Y-63950000D02*
X211100000Y-63950000D01*
D14*
X226400000Y-48100000D02*
X226400000Y-60900000D01*
X226400000Y-60900000D02*
X225350000Y-60900000D01*
D15*
X210900000Y-63950000D02*
G75*
G02*
X211100000Y-63950000I100000J0D01*
G01*
X211100000Y-63950000D02*
G75*
G02*
X210900000Y-63950000I-100000J0D01*
G01*
%TO.C,J7*%
X229640000Y-89775000D02*
X239550000Y-89775000D01*
X229640000Y-90700000D02*
X229640000Y-89775000D01*
X229640000Y-108625000D02*
X229640000Y-107700000D01*
D14*
X232300000Y-89200000D02*
X232300000Y-89200000D01*
X232300000Y-89300000D02*
X232300000Y-89300000D01*
D15*
X239550000Y-89775000D02*
X239550000Y-108625000D01*
X239550000Y-108625000D02*
X229640000Y-108625000D01*
D14*
X232300000Y-89200000D02*
G75*
G02*
X232300000Y-89300000I0J-50000D01*
G01*
X232300000Y-89300000D02*
G75*
G02*
X232300000Y-89200000I0J50000D01*
G01*
%TO.C,R7*%
D13*
X75090000Y-75660000D02*
X75860000Y-75660000D01*
X83170000Y-75660000D02*
X82400000Y-75660000D01*
X75860000Y-74290000D02*
X82400000Y-74290000D01*
X82400000Y-77030000D01*
X75860000Y-77030000D01*
X75860000Y-74290000D01*
%TO.C,J36*%
D16*
X157200000Y-143925000D02*
X169600000Y-143925000D01*
X157200000Y-149675000D02*
X157200000Y-143925000D01*
X169600000Y-143925000D02*
X169600000Y-149675000D01*
X169600000Y-149675000D02*
X157200000Y-149675000D01*
D15*
X170500000Y-147325000D02*
G75*
G02*
X170300000Y-147325000I-100000J0D01*
G01*
X170300000Y-147325000D02*
G75*
G02*
X170500000Y-147325000I100000J0D01*
G01*
%TO.C,R12*%
D13*
X177450000Y-130540000D02*
X177450000Y-131310000D01*
X177450000Y-138620000D02*
X177450000Y-137850000D01*
X176080000Y-131310000D02*
X178820000Y-131310000D01*
X178820000Y-137850000D01*
X176080000Y-137850000D01*
X176080000Y-131310000D01*
%TO.C,J34*%
X142820000Y-47980000D02*
X144200000Y-47980000D01*
X142820000Y-49360000D02*
X142820000Y-47980000D01*
X142820000Y-50630000D02*
X142820000Y-63440000D01*
X142820000Y-50630000D02*
X145580000Y-50630000D01*
X142820000Y-63440000D02*
X145580000Y-63440000D01*
X145580000Y-50630000D02*
X145580000Y-63440000D01*
%TO.C,J5*%
X135585000Y-75070000D02*
X135585000Y-76320000D01*
X135585000Y-76320000D02*
X136835000Y-76320000D01*
X138135000Y-68420000D02*
X138135000Y-69170000D01*
X138135000Y-69170000D02*
X141085000Y-69170000D01*
X138135000Y-75270000D02*
X141085000Y-75270000D01*
X138135000Y-76020000D02*
X138135000Y-75270000D01*
X141085000Y-69170000D02*
X141085000Y-72220000D01*
X141085000Y-75270000D02*
X141085000Y-72220000D01*
X135875000Y-68410000D02*
X141845000Y-68410000D01*
X141845000Y-76030000D01*
X135875000Y-76030000D01*
X135875000Y-68410000D01*
X135885000Y-68420000D02*
X136635000Y-68420000D01*
X136635000Y-70220000D01*
X135885000Y-70220000D01*
X135885000Y-68420000D01*
X135885000Y-71720000D02*
X136635000Y-71720000D01*
X136635000Y-72720000D01*
X135885000Y-72720000D01*
X135885000Y-71720000D01*
X135885000Y-74220000D02*
X136635000Y-74220000D01*
X136635000Y-76020000D01*
X135885000Y-76020000D01*
X135885000Y-74220000D01*
%TO.C,J6*%
X215530000Y-144800000D02*
X215530000Y-148800000D01*
X216400000Y-143770000D02*
X216400000Y-144370000D01*
X216400000Y-144370000D02*
X218000000Y-144370000D01*
X217200000Y-148790000D02*
X217450000Y-148260000D01*
X217200000Y-148790000D02*
X224820000Y-148790000D01*
X217200000Y-149790000D02*
X217200000Y-148790000D01*
X217450000Y-148260000D02*
X224570000Y-148260000D01*
X217450000Y-149790000D02*
X217450000Y-148790000D01*
X218000000Y-144370000D02*
X218000000Y-143770000D01*
X218940000Y-143770000D02*
X218940000Y-144370000D01*
X218940000Y-144370000D02*
X220540000Y-144370000D01*
X220540000Y-144370000D02*
X220540000Y-143770000D01*
X221480000Y-143770000D02*
X221480000Y-144370000D01*
X221480000Y-144370000D02*
X223080000Y-144370000D01*
X223080000Y-144370000D02*
X223080000Y-143770000D01*
X224020000Y-143770000D02*
X224020000Y-144370000D01*
X224020000Y-144370000D02*
X225620000Y-144370000D01*
X224570000Y-148260000D02*
X224820000Y-148790000D01*
X224570000Y-149790000D02*
X224570000Y-148790000D01*
X224820000Y-148790000D02*
X224820000Y-149790000D01*
X225620000Y-144370000D02*
X225620000Y-143770000D01*
X215820000Y-143770000D02*
X226200000Y-143770000D01*
X226200000Y-149790000D01*
X215820000Y-149790000D01*
X215820000Y-143770000D01*
%TO.C,J22*%
X45550000Y-143550000D02*
X45550000Y-144800000D01*
X45850000Y-146100000D02*
X46600000Y-146100000D01*
X46600000Y-146100000D02*
X46600000Y-149050000D01*
X46600000Y-149050000D02*
X50900000Y-149050000D01*
X46800000Y-143550000D02*
X45550000Y-143550000D01*
X55200000Y-146100000D02*
X55200000Y-149050000D01*
X55200000Y-149050000D02*
X50900000Y-149050000D01*
X55950000Y-146100000D02*
X55200000Y-146100000D01*
X45840000Y-143840000D02*
X55960000Y-143840000D01*
X55960000Y-149810000D01*
X45840000Y-149810000D01*
X45840000Y-143840000D01*
X45850000Y-143850000D02*
X47650000Y-143850000D01*
X47650000Y-144600000D01*
X45850000Y-144600000D01*
X45850000Y-143850000D01*
X49150000Y-143850000D02*
X52650000Y-143850000D01*
X52650000Y-144600000D01*
X49150000Y-144600000D01*
X49150000Y-143850000D01*
X54150000Y-143850000D02*
X55950000Y-143850000D01*
X55950000Y-144600000D01*
X54150000Y-144600000D01*
X54150000Y-143850000D01*
%TO.C,R21*%
X84950000Y-131380000D02*
X84950000Y-132150000D01*
X84950000Y-139460000D02*
X84950000Y-138690000D01*
X83580000Y-132150000D02*
X86320000Y-132150000D01*
X86320000Y-138690000D01*
X83580000Y-138690000D01*
X83580000Y-132150000D01*
%TO.C,R5*%
X64450000Y-74670000D02*
X64450000Y-75440000D01*
X64450000Y-82750000D02*
X64450000Y-81980000D01*
X63080000Y-75440000D02*
X65820000Y-75440000D01*
X65820000Y-81980000D01*
X63080000Y-81980000D01*
X63080000Y-75440000D01*
%TO.C,J26*%
X106150000Y-143450000D02*
X106150000Y-144700000D01*
X106450000Y-146000000D02*
X107200000Y-146000000D01*
X107200000Y-146000000D02*
X107200000Y-148950000D01*
X107200000Y-148950000D02*
X111500000Y-148950000D01*
X107400000Y-143450000D02*
X106150000Y-143450000D01*
X115800000Y-146000000D02*
X115800000Y-148950000D01*
X115800000Y-148950000D02*
X111500000Y-148950000D01*
X116550000Y-146000000D02*
X115800000Y-146000000D01*
X106440000Y-143740000D02*
X116560000Y-143740000D01*
X116560000Y-149710000D01*
X106440000Y-149710000D01*
X106440000Y-143740000D01*
X106450000Y-143750000D02*
X108250000Y-143750000D01*
X108250000Y-144500000D01*
X106450000Y-144500000D01*
X106450000Y-143750000D01*
X109750000Y-143750000D02*
X113250000Y-143750000D01*
X113250000Y-144500000D01*
X109750000Y-144500000D01*
X109750000Y-143750000D01*
X114750000Y-143750000D02*
X116550000Y-143750000D01*
X116550000Y-144500000D01*
X114750000Y-144500000D01*
X114750000Y-143750000D01*
%TO.C,U3*%
D16*
X217680000Y-128920000D02*
X224280000Y-128920000D01*
X217680000Y-129110000D02*
X217680000Y-128920000D01*
X217680000Y-138510000D02*
X217680000Y-138700000D01*
X217680000Y-138700000D02*
X224280000Y-138700000D01*
X224280000Y-128920000D02*
X224280000Y-129110000D01*
X224280000Y-138700000D02*
X224280000Y-138510000D01*
D15*
X215930000Y-130030000D02*
G75*
G02*
X215730000Y-130030000I-100000J0D01*
G01*
X215730000Y-130030000D02*
G75*
G02*
X215930000Y-130030000I100000J0D01*
G01*
%TO.C,R10*%
D13*
X74990000Y-89660000D02*
X75760000Y-89660000D01*
X83070000Y-89660000D02*
X82300000Y-89660000D01*
X75760000Y-88290000D02*
X82300000Y-88290000D01*
X82300000Y-91030000D01*
X75760000Y-91030000D01*
X75760000Y-88290000D01*
%TO.C,Q3*%
X165440000Y-130930000D02*
X170060000Y-130930000D01*
X165440000Y-141150000D02*
X165440000Y-130930000D01*
X168680000Y-130930000D02*
X168680000Y-141150000D01*
X170060000Y-130930000D02*
X170060000Y-141150000D01*
X170060000Y-134190000D02*
X168680000Y-134190000D01*
X170060000Y-137890000D02*
X168680000Y-137890000D01*
X170060000Y-141150000D02*
X165440000Y-141150000D01*
%TO.C,J23*%
X59750000Y-143550000D02*
X59750000Y-144800000D01*
X60050000Y-146100000D02*
X60800000Y-146100000D01*
X60800000Y-146100000D02*
X60800000Y-149050000D01*
X60800000Y-149050000D02*
X65100000Y-149050000D01*
X61000000Y-143550000D02*
X59750000Y-143550000D01*
X69400000Y-146100000D02*
X69400000Y-149050000D01*
X69400000Y-149050000D02*
X65100000Y-149050000D01*
X70150000Y-146100000D02*
X69400000Y-146100000D01*
X60040000Y-143840000D02*
X70160000Y-143840000D01*
X70160000Y-149810000D01*
X60040000Y-149810000D01*
X60040000Y-143840000D01*
X60050000Y-143850000D02*
X61850000Y-143850000D01*
X61850000Y-144600000D01*
X60050000Y-144600000D01*
X60050000Y-143850000D01*
X63350000Y-143850000D02*
X66850000Y-143850000D01*
X66850000Y-144600000D01*
X63350000Y-144600000D01*
X63350000Y-143850000D01*
X68350000Y-143850000D02*
X70150000Y-143850000D01*
X70150000Y-144600000D01*
X68350000Y-144600000D01*
X68350000Y-143850000D01*
%TO.C,J27*%
X122650000Y-143350000D02*
X122650000Y-144600000D01*
X122950000Y-145900000D02*
X123700000Y-145900000D01*
X123700000Y-145900000D02*
X123700000Y-148850000D01*
X123700000Y-148850000D02*
X128000000Y-148850000D01*
X123900000Y-143350000D02*
X122650000Y-143350000D01*
X132300000Y-145900000D02*
X132300000Y-148850000D01*
X132300000Y-148850000D02*
X128000000Y-148850000D01*
X133050000Y-145900000D02*
X132300000Y-145900000D01*
X122940000Y-143640000D02*
X133060000Y-143640000D01*
X133060000Y-149610000D01*
X122940000Y-149610000D01*
X122940000Y-143640000D01*
X122950000Y-143650000D02*
X124750000Y-143650000D01*
X124750000Y-144400000D01*
X122950000Y-144400000D01*
X122950000Y-143650000D01*
X126250000Y-143650000D02*
X129750000Y-143650000D01*
X129750000Y-144400000D01*
X126250000Y-144400000D01*
X126250000Y-143650000D01*
X131250000Y-143650000D02*
X133050000Y-143650000D01*
X133050000Y-144400000D01*
X131250000Y-144400000D01*
X131250000Y-143650000D01*
%TO.C,R13*%
X206950000Y-130540000D02*
X206950000Y-131310000D01*
X206950000Y-138620000D02*
X206950000Y-137850000D01*
X205580000Y-131310000D02*
X208320000Y-131310000D01*
X208320000Y-137850000D01*
X205580000Y-137850000D01*
X205580000Y-131310000D01*
%TO.C,R3*%
X71160000Y-59780000D02*
X71160000Y-60550000D01*
X71160000Y-67860000D02*
X71160000Y-67090000D01*
X69790000Y-60550000D02*
X72530000Y-60550000D01*
X72530000Y-67090000D01*
X69790000Y-67090000D01*
X69790000Y-60550000D01*
%TO.C,C3*%
X190330000Y-120710000D02*
X195570000Y-120710000D01*
X190330000Y-121047000D02*
X190330000Y-120710000D01*
X190330000Y-123450000D02*
X190330000Y-123113000D01*
X195570000Y-120710000D02*
X195570000Y-121047000D01*
X195570000Y-123113000D02*
X195570000Y-123450000D01*
X195570000Y-123450000D02*
X190330000Y-123450000D01*
%TO.C,R24*%
X152890000Y-71230000D02*
X153660000Y-71230000D01*
X160970000Y-71230000D02*
X160200000Y-71230000D01*
X153660000Y-69860000D02*
X160200000Y-69860000D01*
X160200000Y-72600000D01*
X153660000Y-72600000D01*
X153660000Y-69860000D01*
%TO.C,J11*%
X229980000Y-111820000D02*
X238020000Y-111820000D01*
X229980000Y-114640000D02*
X229980000Y-111820000D01*
X229980000Y-122560000D02*
X229980000Y-115240000D01*
X232100000Y-111820000D02*
X232100000Y-113060000D01*
X232100000Y-116820000D02*
X232100000Y-119397000D01*
X232100000Y-120483000D02*
X232100000Y-122560000D01*
X233400000Y-111820000D02*
X233400000Y-113060000D01*
X233400000Y-116820000D02*
X233400000Y-118128000D01*
X233400000Y-121752000D02*
X233400000Y-122560000D01*
X234400000Y-111820000D02*
X234400000Y-113060000D01*
X234400000Y-116820000D02*
X234400000Y-118128000D01*
X234400000Y-121752000D02*
X234400000Y-122560000D01*
X238020000Y-111820000D02*
X238020000Y-122560000D01*
X238020000Y-122560000D02*
X229980000Y-122560000D01*
X229980000Y-114940000D02*
X229370000Y-115380000D01*
X229370000Y-114500000D01*
X229980000Y-114940000D01*
G36*
X229980000Y-114940000D02*
G01*
X229370000Y-115380000D01*
X229370000Y-114500000D01*
X229980000Y-114940000D01*
G37*
%TO.C,D1*%
X185400000Y-92700000D02*
X186595000Y-92700000D01*
X188024500Y-89975000D02*
X188024500Y-95425000D01*
X188144500Y-89975000D02*
X188144500Y-95425000D01*
X188264500Y-89975000D02*
X188264500Y-95425000D01*
X197560000Y-92700000D02*
X196365000Y-92700000D01*
X186595000Y-89975000D02*
X196365000Y-89975000D01*
X196365000Y-95425000D01*
X186595000Y-95425000D01*
X186595000Y-89975000D01*
%TO.C,J19*%
X59000000Y-48400000D02*
X62000000Y-48400000D01*
X59000000Y-51400000D02*
X59000000Y-48400000D01*
X59500000Y-48850000D02*
X70550000Y-48850000D01*
X59500000Y-54700000D02*
X59500000Y-48850000D01*
X59500000Y-54700000D02*
X62150000Y-54700000D01*
X62400000Y-54700000D02*
X63000000Y-54700000D01*
X63250000Y-54700000D02*
X66750000Y-54700000D01*
X67000000Y-54700000D02*
X67600000Y-54700000D01*
X67900000Y-54700000D02*
X70550000Y-54700000D01*
X70550000Y-54700000D02*
X70550000Y-48850000D01*
D17*
%TO.C,G\u002A\u002A\u002A*%
G36*
X200294194Y-49944943D02*
G01*
X200270411Y-49968726D01*
X200246629Y-49944943D01*
X200270411Y-49921160D01*
X200294194Y-49944943D01*
G37*
G36*
X199850249Y-49794319D02*
G01*
X199855942Y-49850768D01*
X199850249Y-49857740D01*
X199821971Y-49851210D01*
X199818539Y-49826029D01*
X199835942Y-49786878D01*
X199850249Y-49794319D01*
G37*
G36*
X200516167Y-49889450D02*
G01*
X200521859Y-49945899D01*
X200516167Y-49952871D01*
X200487889Y-49946341D01*
X200484456Y-49921160D01*
X200501860Y-49882009D01*
X200516167Y-49889450D01*
G37*
G36*
X199910010Y-49964124D02*
G01*
X199951548Y-50018455D01*
X199991325Y-50096847D01*
X199973436Y-50101908D01*
X199912716Y-50038925D01*
X199872233Y-49970902D01*
X199873018Y-49945957D01*
X199910010Y-49964124D01*
G37*
G36*
X200090008Y-49719561D02*
G01*
X200097666Y-49843500D01*
X200089048Y-49909824D01*
X200076190Y-49920943D01*
X200068976Y-49852636D01*
X200068362Y-49802247D01*
X200073045Y-49710132D01*
X200083788Y-49696157D01*
X200090008Y-49719561D01*
G37*
G36*
X200469533Y-50047016D02*
G01*
X200460673Y-50063857D01*
X200415857Y-50109282D01*
X200407494Y-50111423D01*
X200404248Y-50080698D01*
X200413108Y-50063857D01*
X200457925Y-50018432D01*
X200466288Y-50016292D01*
X200469533Y-50047016D01*
G37*
G36*
X200290526Y-49665784D02*
G01*
X200297046Y-49671781D01*
X200334685Y-49728941D01*
X200296086Y-49788575D01*
X200280434Y-49802756D01*
X200234736Y-49837848D01*
X200243081Y-49820403D01*
X200267288Y-49733157D01*
X200259694Y-49689428D01*
X200249719Y-49639030D01*
X200290526Y-49665784D01*
G37*
G36*
X200361767Y-49507495D02*
G01*
X200432380Y-49571356D01*
X200502346Y-49660803D01*
X200518291Y-49735973D01*
X200517610Y-49737835D01*
X200495320Y-49776020D01*
X200488211Y-49734644D01*
X200456803Y-49648684D01*
X200402982Y-49568164D01*
X200353080Y-49505959D01*
X200361767Y-49507495D01*
G37*
G36*
X200070954Y-49497326D02*
G01*
X200050463Y-49539731D01*
X199981707Y-49616179D01*
X199975531Y-49622176D01*
X199901609Y-49683151D01*
X199866550Y-49692053D01*
X199866104Y-49689005D01*
X199894676Y-49636391D01*
X199959299Y-49567019D01*
X200028339Y-49510491D01*
X200070161Y-49496407D01*
X200070954Y-49497326D01*
G37*
G36*
X191980988Y-49885486D02*
G01*
X192146994Y-50325468D01*
X191571062Y-50349250D01*
X190995130Y-50373033D01*
X190982653Y-52121067D01*
X190970176Y-53869101D01*
X190519475Y-53869101D01*
X190068774Y-53869101D01*
X190056297Y-52121067D01*
X190043820Y-50373033D01*
X189366011Y-50359836D01*
X188688202Y-50346638D01*
X188688202Y-49896072D01*
X188688202Y-49445505D01*
X190251592Y-49445505D01*
X191814983Y-49445505D01*
X191980988Y-49885486D01*
G37*
G36*
X199221192Y-52704120D02*
G01*
X199236713Y-52727527D01*
X199331924Y-52803660D01*
X199462200Y-52822659D01*
X199585171Y-52838208D01*
X199628002Y-52887795D01*
X199628276Y-52894007D01*
X199604790Y-52937034D01*
X199522376Y-52959186D01*
X199366666Y-52965355D01*
X199222065Y-52961424D01*
X199124509Y-52951290D01*
X199099110Y-52941572D01*
X199093084Y-52881728D01*
X199087218Y-52775093D01*
X199101498Y-52663340D01*
X199149829Y-52638514D01*
X199221192Y-52704120D01*
G37*
G36*
X188450374Y-51657303D02*
G01*
X188450374Y-53869101D01*
X188006429Y-53869101D01*
X187809523Y-53865903D01*
X187650063Y-53857326D01*
X187550921Y-53844895D01*
X187530773Y-53837390D01*
X187524288Y-53784761D01*
X187518249Y-53646590D01*
X187512793Y-53432468D01*
X187508058Y-53151984D01*
X187504182Y-52814728D01*
X187501301Y-52430289D01*
X187499554Y-52008256D01*
X187499063Y-51625592D01*
X187499063Y-49445505D01*
X187974718Y-49445505D01*
X188450374Y-49445505D01*
X188450374Y-51657303D01*
G37*
G36*
X183741385Y-52956090D02*
G01*
X183741385Y-53993266D01*
X182992228Y-54053463D01*
X182717454Y-54076217D01*
X182460134Y-54098752D01*
X182242524Y-54119032D01*
X182086881Y-54135018D01*
X182040917Y-54140542D01*
X181913404Y-54152033D01*
X181854236Y-54136191D01*
X181838680Y-54085337D01*
X181838570Y-54077719D01*
X181834267Y-53998179D01*
X181822606Y-53842629D01*
X181805235Y-53629761D01*
X181783802Y-53378268D01*
X181759955Y-53106844D01*
X181735339Y-52834182D01*
X181711604Y-52578975D01*
X181690396Y-52359916D01*
X181673364Y-52195698D01*
X181670322Y-52168632D01*
X181641656Y-51918913D01*
X182691520Y-51918913D01*
X183741385Y-51918913D01*
X183741385Y-52956090D01*
G37*
G36*
X199612074Y-51512252D02*
G01*
X199607582Y-51648660D01*
X199581279Y-51748848D01*
X199572796Y-51761971D01*
X199498623Y-51797313D01*
X199371889Y-51818902D01*
X199233352Y-51824082D01*
X199123771Y-51810202D01*
X199090493Y-51793365D01*
X199074876Y-51738001D01*
X199141181Y-51698295D01*
X199276590Y-51681272D01*
X199295318Y-51681086D01*
X199444689Y-51659366D01*
X199515628Y-51606170D01*
X199510990Y-51539443D01*
X199433628Y-51477133D01*
X199286398Y-51437183D01*
X199256023Y-51434022D01*
X199132341Y-51412436D01*
X199094159Y-51381817D01*
X199133567Y-51351152D01*
X199242657Y-51329426D01*
X199352554Y-51324344D01*
X199600053Y-51324344D01*
X199612074Y-51512252D01*
G37*
G36*
X199515753Y-52022549D02*
G01*
X199549556Y-52053464D01*
X199623303Y-52187447D01*
X199621546Y-52319063D01*
X199561505Y-52431451D01*
X199460398Y-52507751D01*
X199335444Y-52531103D01*
X199203861Y-52484647D01*
X199152621Y-52442134D01*
X199068986Y-52310723D01*
X199070421Y-52288494D01*
X199207185Y-52288494D01*
X199217388Y-52323220D01*
X199282214Y-52383214D01*
X199335566Y-52394569D01*
X199442036Y-52359961D01*
X199485580Y-52323220D01*
X199520815Y-52247090D01*
X199485580Y-52180524D01*
X199387595Y-52114581D01*
X199289798Y-52120564D01*
X199220294Y-52183519D01*
X199207185Y-52288494D01*
X199070421Y-52288494D01*
X199078049Y-52170305D01*
X199131535Y-52072194D01*
X199242177Y-51987307D01*
X199383007Y-51970187D01*
X199515753Y-52022549D01*
G37*
G36*
X183741385Y-50658426D02*
G01*
X183741385Y-51681086D01*
X182694943Y-51681086D01*
X182390642Y-51680570D01*
X182120770Y-51679128D01*
X181898975Y-51676912D01*
X181738907Y-51674077D01*
X181654215Y-51670779D01*
X181644334Y-51669194D01*
X181636153Y-51612183D01*
X181622130Y-51480070D01*
X181603804Y-51290609D01*
X181582718Y-51061552D01*
X181560411Y-50810651D01*
X181538425Y-50555659D01*
X181518300Y-50314329D01*
X181501579Y-50104414D01*
X181489800Y-49943666D01*
X181484506Y-49849838D01*
X181484967Y-49833120D01*
X181534478Y-49823856D01*
X181662215Y-49808247D01*
X181851601Y-49787839D01*
X182086058Y-49764177D01*
X182349010Y-49738806D01*
X182623877Y-49713273D01*
X182894084Y-49689121D01*
X183143053Y-49667896D01*
X183354207Y-49651145D01*
X183510968Y-49640411D01*
X183586797Y-49637189D01*
X183741385Y-49635767D01*
X183741385Y-50658426D01*
G37*
G36*
X199496279Y-50624241D02*
G01*
X199594410Y-50723427D01*
X199619048Y-50866185D01*
X199619001Y-50866593D01*
X199623915Y-50959726D01*
X199686489Y-50998733D01*
X199735299Y-51006436D01*
X199833129Y-51039539D01*
X199866104Y-51089676D01*
X199845538Y-51125017D01*
X199773197Y-51146210D01*
X199633120Y-51156115D01*
X199485580Y-51157865D01*
X199308133Y-51156492D01*
X199173635Y-51152845D01*
X199104950Y-51147631D01*
X199100620Y-51145973D01*
X199094763Y-51095831D01*
X199085304Y-50983925D01*
X199081294Y-50930870D01*
X199087149Y-50842989D01*
X199207884Y-50842989D01*
X199224795Y-50943404D01*
X199299121Y-51000366D01*
X199398594Y-51002161D01*
X199485580Y-50943820D01*
X199520531Y-50868349D01*
X199483675Y-50798828D01*
X199392205Y-50744084D01*
X199290221Y-50750912D01*
X199218046Y-50812856D01*
X199207884Y-50842989D01*
X199087149Y-50842989D01*
X199093560Y-50746766D01*
X199165551Y-50634491D01*
X199301295Y-50588746D01*
X199342883Y-50587078D01*
X199496279Y-50624241D01*
G37*
G36*
X199521079Y-53123451D02*
G01*
X199595605Y-53182672D01*
X199625220Y-53305248D01*
X199628276Y-53399497D01*
X199585333Y-53557743D01*
X199474988Y-53688773D01*
X199324971Y-53764949D01*
X199252567Y-53773969D01*
X199112407Y-53741353D01*
X198983172Y-53664566D01*
X198901823Y-53558730D01*
X198853471Y-53426822D01*
X198841773Y-53297890D01*
X198870385Y-53200986D01*
X198920529Y-53166794D01*
X198974842Y-53176898D01*
X198977916Y-53253227D01*
X198975460Y-53266899D01*
X198984505Y-53423851D01*
X199061368Y-53544893D01*
X199183654Y-53612618D01*
X199328974Y-53609619D01*
X199386018Y-53586078D01*
X199454070Y-53514387D01*
X199486841Y-53412841D01*
X199481923Y-53315443D01*
X199436905Y-53256194D01*
X199409778Y-53250748D01*
X199337695Y-53290680D01*
X199309100Y-53345880D01*
X199270603Y-53429941D01*
X199231570Y-53428279D01*
X199204906Y-53349347D01*
X199200187Y-53274531D01*
X199206248Y-53166937D01*
X199242957Y-53119860D01*
X199338097Y-53108319D01*
X199385360Y-53108052D01*
X199521079Y-53123451D01*
G37*
G36*
X185347049Y-51919144D02*
G01*
X185608672Y-51920562D01*
X185798318Y-51924260D01*
X185927563Y-51931330D01*
X186007986Y-51942862D01*
X186051162Y-51959949D01*
X186068669Y-51983682D01*
X186072084Y-52015152D01*
X186072097Y-52019817D01*
X186076297Y-52099348D01*
X186087924Y-52255588D01*
X186105517Y-52470533D01*
X186127617Y-52726175D01*
X186145842Y-52929093D01*
X186169059Y-53195435D01*
X186187183Y-53426932D01*
X186199144Y-53607791D01*
X186203874Y-53722218D01*
X186201797Y-53755255D01*
X186152775Y-53763486D01*
X186025190Y-53778478D01*
X185835246Y-53798691D01*
X185599150Y-53822589D01*
X185333107Y-53848634D01*
X185053321Y-53875287D01*
X184775998Y-53901010D01*
X184517343Y-53924267D01*
X184293562Y-53943518D01*
X184120859Y-53957226D01*
X184015441Y-53963854D01*
X183999721Y-53964232D01*
X183976839Y-53950856D01*
X183959561Y-53903444D01*
X183947159Y-53811067D01*
X183938906Y-53662795D01*
X183934076Y-53447699D01*
X183931939Y-53154850D01*
X183931647Y-52941572D01*
X183931647Y-51918913D01*
X185001872Y-51918913D01*
X185347049Y-51919144D01*
G37*
G36*
X185820345Y-49463291D02*
G01*
X185830239Y-49514022D01*
X185846648Y-49642946D01*
X185867974Y-49833472D01*
X185892616Y-50069011D01*
X185918977Y-50332970D01*
X185945458Y-50608759D01*
X185970458Y-50879787D01*
X185992380Y-51129463D01*
X186009624Y-51341196D01*
X186020592Y-51498395D01*
X186023775Y-51574063D01*
X186024531Y-51681086D01*
X185009800Y-51681086D01*
X184708267Y-51679661D01*
X184439396Y-51675679D01*
X184217553Y-51669574D01*
X184057105Y-51661781D01*
X183972420Y-51652736D01*
X183963358Y-51649375D01*
X183952397Y-51592915D01*
X183943853Y-51459342D01*
X183937682Y-51265820D01*
X183933837Y-51029508D01*
X183932273Y-50767570D01*
X183932946Y-50497165D01*
X183935810Y-50235456D01*
X183940820Y-49999604D01*
X183947931Y-49806771D01*
X183957097Y-49674118D01*
X183968273Y-49618806D01*
X183968706Y-49618478D01*
X184027908Y-49605972D01*
X184162392Y-49588743D01*
X184354291Y-49568289D01*
X184585739Y-49546106D01*
X184838869Y-49523692D01*
X185095815Y-49502545D01*
X185338710Y-49484161D01*
X185549689Y-49470039D01*
X185710884Y-49461676D01*
X185804430Y-49460569D01*
X185820345Y-49463291D01*
G37*
G36*
X197449929Y-49456910D02*
G01*
X199604494Y-49469288D01*
X199618153Y-49907952D01*
X199631811Y-50346617D01*
X198952235Y-50359825D01*
X198272658Y-50373033D01*
X198260179Y-52122782D01*
X198247700Y-53872531D01*
X197784524Y-53858924D01*
X197321348Y-53845318D01*
X197308870Y-52097284D01*
X197296393Y-50349250D01*
X196613344Y-50349250D01*
X195930296Y-50349250D01*
X195348062Y-51907022D01*
X195208131Y-52280537D01*
X195075225Y-52633645D01*
X194953879Y-52954429D01*
X194848625Y-53230969D01*
X194763994Y-53451346D01*
X194704521Y-53603643D01*
X194678753Y-53666947D01*
X194591678Y-53869101D01*
X194166738Y-53869101D01*
X193914157Y-53861713D01*
X193755524Y-53839551D01*
X193694984Y-53809644D01*
X193669326Y-53754448D01*
X193614747Y-53621011D01*
X193535280Y-53420013D01*
X193434956Y-53162137D01*
X193317808Y-52858064D01*
X193187870Y-52518475D01*
X193049173Y-52154053D01*
X192905749Y-51775479D01*
X192761632Y-51393434D01*
X192620854Y-51018601D01*
X192487447Y-50661660D01*
X192365445Y-50333294D01*
X192258878Y-50044185D01*
X192171781Y-49805013D01*
X192108185Y-49626460D01*
X192072123Y-49519209D01*
X192065355Y-49492950D01*
X192112304Y-49467883D01*
X192252195Y-49454893D01*
X192483596Y-49454091D01*
X192552902Y-49455732D01*
X193040449Y-49469288D01*
X193582330Y-51074625D01*
X193708166Y-51445084D01*
X193825257Y-51785336D01*
X193930003Y-52085257D01*
X194018803Y-52334725D01*
X194088056Y-52523615D01*
X194134163Y-52641806D01*
X194153117Y-52679400D01*
X194174726Y-52635901D01*
X194222601Y-52512764D01*
X194292951Y-52320611D01*
X194381985Y-52070061D01*
X194485909Y-51771735D01*
X194600934Y-51436252D01*
X194675314Y-51216759D01*
X194797656Y-50855141D01*
X194912893Y-50516405D01*
X195016842Y-50212706D01*
X195105318Y-49956197D01*
X195174138Y-49759032D01*
X195219119Y-49633366D01*
X195231985Y-49599607D01*
X195295364Y-49444533D01*
X197449929Y-49456910D01*
G37*
%TO.C,J25*%
D13*
X90550000Y-143550000D02*
X90550000Y-144800000D01*
X90850000Y-146100000D02*
X91600000Y-146100000D01*
X91600000Y-146100000D02*
X91600000Y-149050000D01*
X91600000Y-149050000D02*
X95900000Y-149050000D01*
X91800000Y-143550000D02*
X90550000Y-143550000D01*
X100200000Y-146100000D02*
X100200000Y-149050000D01*
X100200000Y-149050000D02*
X95900000Y-149050000D01*
X100950000Y-146100000D02*
X100200000Y-146100000D01*
X90840000Y-143840000D02*
X100960000Y-143840000D01*
X100960000Y-149810000D01*
X90840000Y-149810000D01*
X90840000Y-143840000D01*
X90850000Y-143850000D02*
X92650000Y-143850000D01*
X92650000Y-144600000D01*
X90850000Y-144600000D01*
X90850000Y-143850000D01*
X94150000Y-143850000D02*
X97650000Y-143850000D01*
X97650000Y-144600000D01*
X94150000Y-144600000D01*
X94150000Y-143850000D01*
X99150000Y-143850000D02*
X100950000Y-143850000D01*
X100950000Y-144600000D01*
X99150000Y-144600000D01*
X99150000Y-143850000D01*
%TO.C,J15*%
X92900000Y-48400000D02*
X95900000Y-48400000D01*
X92900000Y-51400000D02*
X92900000Y-48400000D01*
X93400000Y-48850000D02*
X104450000Y-48850000D01*
X93400000Y-54700000D02*
X93400000Y-48850000D01*
X93400000Y-54700000D02*
X96050000Y-54700000D01*
X96300000Y-54700000D02*
X96900000Y-54700000D01*
X97150000Y-54700000D02*
X100650000Y-54700000D01*
X100900000Y-54700000D02*
X101500000Y-54700000D01*
X101800000Y-54700000D02*
X104450000Y-54700000D01*
X104450000Y-54700000D02*
X104450000Y-48850000D01*
%TO.C,R6*%
X60970000Y-82260000D02*
X60970000Y-83030000D01*
X60970000Y-90340000D02*
X60970000Y-89570000D01*
X59600000Y-83030000D02*
X62340000Y-83030000D01*
X62340000Y-89570000D01*
X59600000Y-89570000D01*
X59600000Y-83030000D01*
%TO.C,Q2*%
X155540000Y-131030000D02*
X160160000Y-131030000D01*
X155540000Y-141250000D02*
X155540000Y-131030000D01*
X158780000Y-131030000D02*
X158780000Y-141250000D01*
X160160000Y-131030000D02*
X160160000Y-141250000D01*
X160160000Y-134290000D02*
X158780000Y-134290000D01*
X160160000Y-137990000D02*
X158780000Y-137990000D01*
X160160000Y-141250000D02*
X155540000Y-141250000D01*
%TO.C,C7*%
X230920000Y-73160000D02*
X241080000Y-73160000D01*
X230920000Y-73200000D02*
X241080000Y-73200000D01*
X230921000Y-73080000D02*
X241079000Y-73080000D01*
X230921000Y-73120000D02*
X241079000Y-73120000D01*
X230923000Y-73040000D02*
X241077000Y-73040000D01*
X230924000Y-73000000D02*
X241076000Y-73000000D01*
X230926000Y-72960000D02*
X241074000Y-72960000D01*
X230928000Y-72920000D02*
X241072000Y-72920000D01*
X230930000Y-72880000D02*
X241070000Y-72880000D01*
X230933000Y-72840000D02*
X241067000Y-72840000D01*
X230936000Y-72800000D02*
X241064000Y-72800000D01*
X230939000Y-72760000D02*
X241061000Y-72760000D01*
X230943000Y-72720000D02*
X241057000Y-72720000D01*
X230946000Y-72680000D02*
X241054000Y-72680000D01*
X230951000Y-72640000D02*
X241049000Y-72640000D01*
X230955000Y-72600000D02*
X241045000Y-72600000D01*
X230960000Y-72560000D02*
X241040000Y-72560000D01*
X230965000Y-72520000D02*
X241035000Y-72520000D01*
X230971000Y-72480000D02*
X241029000Y-72480000D01*
X230977000Y-72440000D02*
X241023000Y-72440000D01*
X230983000Y-72400000D02*
X241017000Y-72400000D01*
X230989000Y-72360000D02*
X241011000Y-72360000D01*
X230996000Y-72320000D02*
X241004000Y-72320000D01*
X231003000Y-72280000D02*
X240997000Y-72280000D01*
X231011000Y-72240000D02*
X240989000Y-72240000D01*
X231019000Y-72200000D02*
X240981000Y-72200000D01*
X231027000Y-72160000D02*
X240973000Y-72160000D01*
X231035000Y-72120000D02*
X240965000Y-72120000D01*
X231044000Y-72080000D02*
X240956000Y-72080000D01*
X231053000Y-72040000D02*
X240947000Y-72040000D01*
X231063000Y-72000000D02*
X240937000Y-72000000D01*
X231072000Y-71960000D02*
X240928000Y-71960000D01*
X231083000Y-71920000D02*
X234760000Y-71920000D01*
X231093000Y-71880000D02*
X234760000Y-71880000D01*
X231104000Y-71840000D02*
X234760000Y-71840000D01*
X231115000Y-71800000D02*
X234760000Y-71800000D01*
X231127000Y-71760000D02*
X234760000Y-71760000D01*
X231139000Y-71720000D02*
X234760000Y-71720000D01*
X231151000Y-71680000D02*
X234760000Y-71680000D01*
X231163000Y-71640000D02*
X234760000Y-71640000D01*
X231176000Y-71600000D02*
X234760000Y-71600000D01*
X231190000Y-71560000D02*
X234760000Y-71560000D01*
X231203000Y-71520000D02*
X234760000Y-71520000D01*
X231218000Y-71480000D02*
X234760000Y-71480000D01*
X231232000Y-71440000D02*
X234760000Y-71440000D01*
X231247000Y-71400000D02*
X234760000Y-71400000D01*
X231262000Y-71360000D02*
X234760000Y-71360000D01*
X231278000Y-71320000D02*
X234760000Y-71320000D01*
X231294000Y-71280000D02*
X234760000Y-71280000D01*
X231310000Y-71240000D02*
X234760000Y-71240000D01*
X231327000Y-71200000D02*
X234760000Y-71200000D01*
X231344000Y-71160000D02*
X234760000Y-71160000D01*
X231362000Y-71120000D02*
X234760000Y-71120000D01*
X231380000Y-71080000D02*
X234760000Y-71080000D01*
X231398000Y-71040000D02*
X234760000Y-71040000D01*
X231417000Y-71000000D02*
X234760000Y-71000000D01*
X231436000Y-70960000D02*
X234760000Y-70960000D01*
X231456000Y-70920000D02*
X234760000Y-70920000D01*
X231476000Y-70880000D02*
X234760000Y-70880000D01*
X231496000Y-70840000D02*
X234760000Y-70840000D01*
X231517000Y-70800000D02*
X234760000Y-70800000D01*
X231539000Y-70760000D02*
X234760000Y-70760000D01*
X231561000Y-70720000D02*
X234760000Y-70720000D01*
X231583000Y-70680000D02*
X234760000Y-70680000D01*
X231606000Y-70640000D02*
X234760000Y-70640000D01*
X231629000Y-70600000D02*
X234760000Y-70600000D01*
X231653000Y-70560000D02*
X234760000Y-70560000D01*
X231677000Y-70520000D02*
X234760000Y-70520000D01*
X231702000Y-70480000D02*
X234760000Y-70480000D01*
X231728000Y-70440000D02*
X234760000Y-70440000D01*
X231753000Y-70400000D02*
X234760000Y-70400000D01*
X231780000Y-70360000D02*
X234760000Y-70360000D01*
X231807000Y-70320000D02*
X234760000Y-70320000D01*
X231834000Y-70280000D02*
X234760000Y-70280000D01*
X231862000Y-70240000D02*
X234760000Y-70240000D01*
X231891000Y-70200000D02*
X234760000Y-70200000D01*
X231920000Y-70160000D02*
X234760000Y-70160000D01*
X231950000Y-70120000D02*
X234760000Y-70120000D01*
X231980000Y-70080000D02*
X234760000Y-70080000D01*
X232012000Y-70040000D02*
X234760000Y-70040000D01*
X232043000Y-70000000D02*
X234760000Y-70000000D01*
X232076000Y-69960000D02*
X234760000Y-69960000D01*
X232109000Y-69920000D02*
X234760000Y-69920000D01*
X232142000Y-69880000D02*
X234760000Y-69880000D01*
X232177000Y-69840000D02*
X234760000Y-69840000D01*
X232212000Y-69800000D02*
X234760000Y-69800000D01*
X232248000Y-69760000D02*
X234760000Y-69760000D01*
X232284000Y-69720000D02*
X234760000Y-69720000D01*
X232322000Y-69680000D02*
X234760000Y-69680000D01*
X232360000Y-69640000D02*
X234760000Y-69640000D01*
X232399000Y-69600000D02*
X234760000Y-69600000D01*
X232439000Y-69560000D02*
X234760000Y-69560000D01*
X232480000Y-69520000D02*
X234760000Y-69520000D01*
X232522000Y-69480000D02*
X234760000Y-69480000D01*
X232565000Y-69440000D02*
X239435000Y-69440000D01*
X232609000Y-69400000D02*
X239391000Y-69400000D01*
X232625000Y-78179646D02*
X233625000Y-78179646D01*
X232653000Y-69360000D02*
X239347000Y-69360000D01*
X232699000Y-69320000D02*
X239301000Y-69320000D01*
X232746000Y-69280000D02*
X239254000Y-69280000D01*
X232795000Y-69240000D02*
X239205000Y-69240000D01*
X232844000Y-69200000D02*
X239156000Y-69200000D01*
X232895000Y-69160000D02*
X239105000Y-69160000D01*
X232947000Y-69120000D02*
X239053000Y-69120000D01*
X233000000Y-69080000D02*
X239000000Y-69080000D01*
X233055000Y-69040000D02*
X238945000Y-69040000D01*
X233112000Y-69000000D02*
X238888000Y-69000000D01*
X233125000Y-78679646D02*
X233125000Y-77679646D01*
X233170000Y-68960000D02*
X238830000Y-68960000D01*
X233230000Y-68920000D02*
X238770000Y-68920000D01*
X233292000Y-68880000D02*
X238708000Y-68880000D01*
X233356000Y-68840000D02*
X238644000Y-68840000D01*
X233422000Y-68800000D02*
X238578000Y-68800000D01*
X233490000Y-68760000D02*
X238510000Y-68760000D01*
X233561000Y-68720000D02*
X238439000Y-68720000D01*
X233635000Y-68680000D02*
X238365000Y-68680000D01*
X233712000Y-68640000D02*
X238288000Y-68640000D01*
X233792000Y-68600000D02*
X238208000Y-68600000D01*
X233876000Y-68560000D02*
X238124000Y-68560000D01*
X233963000Y-68520000D02*
X238037000Y-68520000D01*
X234056000Y-68480000D02*
X237944000Y-68480000D01*
X234154000Y-68440000D02*
X237846000Y-68440000D01*
X234258000Y-68400000D02*
X237742000Y-68400000D01*
X234370000Y-68360000D02*
X237630000Y-68360000D01*
X234491000Y-68320000D02*
X237509000Y-68320000D01*
X234623000Y-68280000D02*
X237377000Y-68280000D01*
X234770000Y-68240000D02*
X237230000Y-68240000D01*
X234938000Y-68200000D02*
X237062000Y-68200000D01*
X235138000Y-68160000D02*
X236862000Y-68160000D01*
X235401000Y-68120000D02*
X236599000Y-68120000D01*
X237240000Y-69480000D02*
X239478000Y-69480000D01*
X237240000Y-69520000D02*
X239520000Y-69520000D01*
X237240000Y-69560000D02*
X239561000Y-69560000D01*
X237240000Y-69600000D02*
X239601000Y-69600000D01*
X237240000Y-69640000D02*
X239640000Y-69640000D01*
X237240000Y-69680000D02*
X239678000Y-69680000D01*
X237240000Y-69720000D02*
X239716000Y-69720000D01*
X237240000Y-69760000D02*
X239752000Y-69760000D01*
X237240000Y-69800000D02*
X239788000Y-69800000D01*
X237240000Y-69840000D02*
X239823000Y-69840000D01*
X237240000Y-69880000D02*
X239858000Y-69880000D01*
X237240000Y-69920000D02*
X239891000Y-69920000D01*
X237240000Y-69960000D02*
X239924000Y-69960000D01*
X237240000Y-70000000D02*
X239957000Y-70000000D01*
X237240000Y-70040000D02*
X239988000Y-70040000D01*
X237240000Y-70080000D02*
X240020000Y-70080000D01*
X237240000Y-70120000D02*
X240050000Y-70120000D01*
X237240000Y-70160000D02*
X240080000Y-70160000D01*
X237240000Y-70200000D02*
X240109000Y-70200000D01*
X237240000Y-70240000D02*
X240138000Y-70240000D01*
X237240000Y-70280000D02*
X240166000Y-70280000D01*
X237240000Y-70320000D02*
X240193000Y-70320000D01*
X237240000Y-70360000D02*
X240220000Y-70360000D01*
X237240000Y-70400000D02*
X240247000Y-70400000D01*
X237240000Y-70440000D02*
X240272000Y-70440000D01*
X237240000Y-70480000D02*
X240298000Y-70480000D01*
X237240000Y-70520000D02*
X240323000Y-70520000D01*
X237240000Y-70560000D02*
X240347000Y-70560000D01*
X237240000Y-70600000D02*
X240371000Y-70600000D01*
X237240000Y-70640000D02*
X240394000Y-70640000D01*
X237240000Y-70680000D02*
X240417000Y-70680000D01*
X237240000Y-70720000D02*
X240439000Y-70720000D01*
X237240000Y-70760000D02*
X240461000Y-70760000D01*
X237240000Y-70800000D02*
X240483000Y-70800000D01*
X237240000Y-70840000D02*
X240504000Y-70840000D01*
X237240000Y-70880000D02*
X240524000Y-70880000D01*
X237240000Y-70920000D02*
X240544000Y-70920000D01*
X237240000Y-70960000D02*
X240564000Y-70960000D01*
X237240000Y-71000000D02*
X240583000Y-71000000D01*
X237240000Y-71040000D02*
X240602000Y-71040000D01*
X237240000Y-71080000D02*
X240620000Y-71080000D01*
X237240000Y-71120000D02*
X240638000Y-71120000D01*
X237240000Y-71160000D02*
X240656000Y-71160000D01*
X237240000Y-71200000D02*
X240673000Y-71200000D01*
X237240000Y-71240000D02*
X240690000Y-71240000D01*
X237240000Y-71280000D02*
X240706000Y-71280000D01*
X237240000Y-71320000D02*
X240722000Y-71320000D01*
X237240000Y-71360000D02*
X240738000Y-71360000D01*
X237240000Y-71400000D02*
X240753000Y-71400000D01*
X237240000Y-71440000D02*
X240768000Y-71440000D01*
X237240000Y-71480000D02*
X240782000Y-71480000D01*
X237240000Y-71520000D02*
X240797000Y-71520000D01*
X237240000Y-71560000D02*
X240810000Y-71560000D01*
X237240000Y-71600000D02*
X240824000Y-71600000D01*
X237240000Y-71640000D02*
X240837000Y-71640000D01*
X237240000Y-71680000D02*
X240849000Y-71680000D01*
X237240000Y-71720000D02*
X240861000Y-71720000D01*
X237240000Y-71760000D02*
X240873000Y-71760000D01*
X237240000Y-71800000D02*
X240885000Y-71800000D01*
X237240000Y-71840000D02*
X240896000Y-71840000D01*
X237240000Y-71880000D02*
X240907000Y-71880000D01*
X237240000Y-71920000D02*
X240917000Y-71920000D01*
X241120000Y-73200000D02*
G75*
G02*
X230880000Y-73200000I-5120000J0D01*
G01*
X230880000Y-73200000D02*
G75*
G02*
X241120000Y-73200000I5120000J0D01*
G01*
%TO.C,R1*%
X55950000Y-131380000D02*
X55950000Y-132150000D01*
X55950000Y-139460000D02*
X55950000Y-138690000D01*
X54580000Y-132150000D02*
X57320000Y-132150000D01*
X57320000Y-138690000D01*
X54580000Y-138690000D01*
X54580000Y-132150000D01*
%TO.C,J17*%
X75650000Y-48750000D02*
X75650000Y-50000000D01*
X75950000Y-51300000D02*
X76700000Y-51300000D01*
X76700000Y-51300000D02*
X76700000Y-54250000D01*
X76700000Y-54250000D02*
X82250000Y-54250000D01*
X76900000Y-48750000D02*
X75650000Y-48750000D01*
X87800000Y-51300000D02*
X87800000Y-54250000D01*
X87800000Y-54250000D02*
X82250000Y-54250000D01*
X88550000Y-51300000D02*
X87800000Y-51300000D01*
X75940000Y-49040000D02*
X88560000Y-49040000D01*
X88560000Y-55010000D01*
X75940000Y-55010000D01*
X75940000Y-49040000D01*
X75950000Y-49050000D02*
X77750000Y-49050000D01*
X77750000Y-49800000D01*
X75950000Y-49800000D01*
X75950000Y-49050000D01*
X79250000Y-49050000D02*
X85250000Y-49050000D01*
X85250000Y-49800000D01*
X79250000Y-49800000D01*
X79250000Y-49050000D01*
X86750000Y-49050000D02*
X88550000Y-49050000D01*
X88550000Y-49800000D01*
X86750000Y-49800000D01*
X86750000Y-49050000D01*
%TO.C,R19*%
X157900000Y-119780000D02*
X157900000Y-120550000D01*
X157900000Y-127860000D02*
X157900000Y-127090000D01*
X156530000Y-120550000D02*
X159270000Y-120550000D01*
X159270000Y-127090000D01*
X156530000Y-127090000D01*
X156530000Y-120550000D01*
%TO.C,R9*%
X74990000Y-85330000D02*
X75760000Y-85330000D01*
X83070000Y-85330000D02*
X82300000Y-85330000D01*
X75760000Y-83960000D02*
X82300000Y-83960000D01*
X82300000Y-86700000D01*
X75760000Y-86700000D01*
X75760000Y-83960000D01*
%TO.C,R2*%
X60000000Y-131380000D02*
X60000000Y-132150000D01*
X60000000Y-139460000D02*
X60000000Y-138690000D01*
X58630000Y-132150000D02*
X61370000Y-132150000D01*
X61370000Y-138690000D01*
X58630000Y-138690000D01*
X58630000Y-132150000D01*
%TO.C,J4*%
X202630000Y-144700000D02*
X202630000Y-148700000D01*
X203500000Y-143670000D02*
X203500000Y-144270000D01*
X203500000Y-144270000D02*
X205100000Y-144270000D01*
X204300000Y-148690000D02*
X204550000Y-148160000D01*
X204300000Y-148690000D02*
X211920000Y-148690000D01*
X204300000Y-149690000D02*
X204300000Y-148690000D01*
X204550000Y-148160000D02*
X211670000Y-148160000D01*
X204550000Y-149690000D02*
X204550000Y-148690000D01*
X205100000Y-144270000D02*
X205100000Y-143670000D01*
X206040000Y-143670000D02*
X206040000Y-144270000D01*
X206040000Y-144270000D02*
X207640000Y-144270000D01*
X207640000Y-144270000D02*
X207640000Y-143670000D01*
X208580000Y-143670000D02*
X208580000Y-144270000D01*
X208580000Y-144270000D02*
X210180000Y-144270000D01*
X210180000Y-144270000D02*
X210180000Y-143670000D01*
X211120000Y-143670000D02*
X211120000Y-144270000D01*
X211120000Y-144270000D02*
X212720000Y-144270000D01*
X211670000Y-148160000D02*
X211920000Y-148690000D01*
X211670000Y-149690000D02*
X211670000Y-148690000D01*
X211920000Y-148690000D02*
X211920000Y-149690000D01*
X212720000Y-144270000D02*
X212720000Y-143670000D01*
X202920000Y-143670000D02*
X213300000Y-143670000D01*
X213300000Y-149690000D01*
X202920000Y-149690000D01*
X202920000Y-143670000D01*
%TO.C,U2*%
D16*
X189620000Y-129420000D02*
X196220000Y-129420000D01*
X189620000Y-129610000D02*
X189620000Y-129420000D01*
X189620000Y-139010000D02*
X189620000Y-139200000D01*
X189620000Y-139200000D02*
X196220000Y-139200000D01*
X196220000Y-129420000D02*
X196220000Y-129610000D01*
X196220000Y-139200000D02*
X196220000Y-139010000D01*
D15*
X187870000Y-130530000D02*
G75*
G02*
X187670000Y-130530000I-100000J0D01*
G01*
X187670000Y-130530000D02*
G75*
G02*
X187870000Y-130530000I100000J0D01*
G01*
%TO.C,C10*%
D13*
X163680000Y-97030000D02*
X168920000Y-97030000D01*
X163680000Y-97367000D02*
X163680000Y-97030000D01*
X163680000Y-99770000D02*
X163680000Y-99433000D01*
X168920000Y-97030000D02*
X168920000Y-97367000D01*
X168920000Y-99433000D02*
X168920000Y-99770000D01*
X168920000Y-99770000D02*
X163680000Y-99770000D01*
%TO.C,F1*%
X214367393Y-112848566D02*
X214367393Y-117088566D01*
X214367393Y-112848566D02*
X228607393Y-112848566D01*
X215487393Y-113468566D02*
X227487393Y-113468566D01*
X215487393Y-116468566D02*
X215487393Y-113468566D01*
X227487393Y-113468566D02*
X227487393Y-116468566D01*
X227487393Y-116468566D02*
X215487393Y-116468566D01*
X228607393Y-117088566D02*
X214367393Y-117088566D01*
X228607393Y-117088566D02*
X228607393Y-112848566D01*
%TO.C,R23*%
X147820000Y-72330000D02*
X147820000Y-73100000D01*
X147820000Y-80410000D02*
X147820000Y-79640000D01*
X146450000Y-73100000D02*
X149190000Y-73100000D01*
X149190000Y-79640000D01*
X146450000Y-79640000D01*
X146450000Y-73100000D01*
%TO.C,R18*%
X174700000Y-106440000D02*
X174700000Y-107210000D01*
X174700000Y-114520000D02*
X174700000Y-113750000D01*
X173330000Y-107210000D02*
X176070000Y-107210000D01*
X176070000Y-113750000D01*
X173330000Y-113750000D01*
X173330000Y-107210000D01*
%TO.C,C9*%
X143680000Y-97330000D02*
X148920000Y-97330000D01*
X143680000Y-97667000D02*
X143680000Y-97330000D01*
X143680000Y-100070000D02*
X143680000Y-99733000D01*
X148920000Y-97330000D02*
X148920000Y-97667000D01*
X148920000Y-99733000D02*
X148920000Y-100070000D01*
X148920000Y-100070000D02*
X143680000Y-100070000D01*
%TO.C,J10*%
X41880000Y-66600000D02*
X43260000Y-66600000D01*
X41880000Y-67980000D02*
X41880000Y-66600000D01*
X41880000Y-69250000D02*
X41880000Y-117620000D01*
X41880000Y-69250000D02*
X44530000Y-69250000D01*
X41880000Y-117620000D02*
X47180000Y-117620000D01*
X44530000Y-66600000D02*
X47180000Y-66600000D01*
X44530000Y-69250000D02*
X44530000Y-66600000D01*
X47180000Y-66600000D02*
X47180000Y-117620000D01*
%TO.C,U5*%
D16*
X163400000Y-106110000D02*
X170000000Y-106110000D01*
X163400000Y-106300000D02*
X163400000Y-106110000D01*
X163400000Y-115700000D02*
X163400000Y-115890000D01*
X163400000Y-115890000D02*
X170000000Y-115890000D01*
X170000000Y-106110000D02*
X170000000Y-106300000D01*
X170000000Y-115890000D02*
X170000000Y-115700000D01*
D15*
X161650000Y-107220000D02*
G75*
G02*
X161450000Y-107220000I-100000J0D01*
G01*
X161450000Y-107220000D02*
G75*
G02*
X161650000Y-107220000I100000J0D01*
G01*
%TO.C,C5*%
D13*
X204330000Y-100080000D02*
X204667000Y-100080000D01*
X204330000Y-105320000D02*
X204330000Y-100080000D01*
X204667000Y-105320000D02*
X204330000Y-105320000D01*
X206733000Y-100080000D02*
X207070000Y-100080000D01*
X207070000Y-100080000D02*
X207070000Y-105320000D01*
X207070000Y-105320000D02*
X206733000Y-105320000D01*
%TO.C,J24*%
X75250000Y-143450000D02*
X75250000Y-144700000D01*
X75550000Y-146000000D02*
X76300000Y-146000000D01*
X76300000Y-146000000D02*
X76300000Y-148950000D01*
X76300000Y-148950000D02*
X80600000Y-148950000D01*
X76500000Y-143450000D02*
X75250000Y-143450000D01*
X84900000Y-146000000D02*
X84900000Y-148950000D01*
X84900000Y-148950000D02*
X80600000Y-148950000D01*
X85650000Y-146000000D02*
X84900000Y-146000000D01*
X75540000Y-143740000D02*
X85660000Y-143740000D01*
X85660000Y-149710000D01*
X75540000Y-149710000D01*
X75540000Y-143740000D01*
X75550000Y-143750000D02*
X77350000Y-143750000D01*
X77350000Y-144500000D01*
X75550000Y-144500000D01*
X75550000Y-143750000D01*
X78850000Y-143750000D02*
X82350000Y-143750000D01*
X82350000Y-144500000D01*
X78850000Y-144500000D01*
X78850000Y-143750000D01*
X83850000Y-143750000D02*
X85650000Y-143750000D01*
X85650000Y-144500000D01*
X83850000Y-144500000D01*
X83850000Y-143750000D01*
%TO.C,R8*%
X75060000Y-80510000D02*
X75830000Y-80510000D01*
X83140000Y-80510000D02*
X82370000Y-80510000D01*
X75830000Y-79140000D02*
X82370000Y-79140000D01*
X82370000Y-81880000D01*
X75830000Y-81880000D01*
X75830000Y-79140000D01*
%TO.C,J1*%
X42840000Y-53490000D02*
X42840000Y-52110000D01*
X44220000Y-53490000D02*
X42840000Y-53490000D01*
X45490000Y-50730000D02*
X55760000Y-50730000D01*
X45490000Y-53490000D02*
X45490000Y-50730000D01*
X45490000Y-53490000D02*
X55760000Y-53490000D01*
X55760000Y-53490000D02*
X55760000Y-50730000D01*
%TO.C,C4*%
X218330000Y-120710000D02*
X223570000Y-120710000D01*
X218330000Y-121047000D02*
X218330000Y-120710000D01*
X218330000Y-123450000D02*
X218330000Y-123113000D01*
X223570000Y-120710000D02*
X223570000Y-121047000D01*
X223570000Y-123113000D02*
X223570000Y-123450000D01*
X223570000Y-123450000D02*
X218330000Y-123450000D01*
%TO.C,R14*%
X211000000Y-130540000D02*
X211000000Y-131310000D01*
X211000000Y-138620000D02*
X211000000Y-137850000D01*
X209630000Y-131310000D02*
X212370000Y-131310000D01*
X212370000Y-137850000D01*
X209630000Y-137850000D01*
X209630000Y-131310000D01*
%TO.C,R22*%
X89000000Y-131380000D02*
X89000000Y-132150000D01*
X89000000Y-139460000D02*
X89000000Y-138690000D01*
X87630000Y-132150000D02*
X90370000Y-132150000D01*
X90370000Y-138690000D01*
X87630000Y-138690000D01*
X87630000Y-132150000D01*
%TO.C,J9*%
X149650000Y-48250000D02*
X149650000Y-49500000D01*
X149950000Y-50800000D02*
X150700000Y-50800000D01*
X150700000Y-50800000D02*
X150700000Y-53750000D01*
X150700000Y-53750000D02*
X156250000Y-53750000D01*
X150900000Y-48250000D02*
X149650000Y-48250000D01*
X161800000Y-50800000D02*
X161800000Y-53750000D01*
X161800000Y-53750000D02*
X156250000Y-53750000D01*
X162550000Y-50800000D02*
X161800000Y-50800000D01*
X149940000Y-48540000D02*
X162560000Y-48540000D01*
X162560000Y-54510000D01*
X149940000Y-54510000D01*
X149940000Y-48540000D01*
X149950000Y-48550000D02*
X151750000Y-48550000D01*
X151750000Y-49300000D01*
X149950000Y-49300000D01*
X149950000Y-48550000D01*
X153250000Y-48550000D02*
X159250000Y-48550000D01*
X159250000Y-49300000D01*
X153250000Y-49300000D01*
X153250000Y-48550000D01*
X160750000Y-48550000D02*
X162550000Y-48550000D01*
X162550000Y-49300000D01*
X160750000Y-49300000D01*
X160750000Y-48550000D01*
%TO.C,U4*%
D16*
X143400000Y-106010000D02*
X150000000Y-106010000D01*
X143400000Y-106200000D02*
X143400000Y-106010000D01*
X143400000Y-115600000D02*
X143400000Y-115790000D01*
X143400000Y-115790000D02*
X150000000Y-115790000D01*
X150000000Y-106010000D02*
X150000000Y-106200000D01*
X150000000Y-115790000D02*
X150000000Y-115600000D01*
D15*
X141650000Y-107120000D02*
G75*
G02*
X141450000Y-107120000I-100000J0D01*
G01*
X141450000Y-107120000D02*
G75*
G02*
X141650000Y-107120000I100000J0D01*
G01*
%TO.C,J35*%
D16*
X143000000Y-144025000D02*
X155400000Y-144025000D01*
X143000000Y-149775000D02*
X143000000Y-144025000D01*
X155400000Y-144025000D02*
X155400000Y-149775000D01*
X155400000Y-149775000D02*
X143000000Y-149775000D01*
D15*
X156300000Y-147425000D02*
G75*
G02*
X156100000Y-147425000I-100000J0D01*
G01*
X156100000Y-147425000D02*
G75*
G02*
X156300000Y-147425000I100000J0D01*
G01*
%TO.C,J18*%
D13*
X167000000Y-48000000D02*
X170000000Y-48000000D01*
X167000000Y-51000000D02*
X167000000Y-48000000D01*
X167500000Y-48450000D02*
X178550000Y-48450000D01*
X167500000Y-54300000D02*
X167500000Y-48450000D01*
X167500000Y-54300000D02*
X170150000Y-54300000D01*
X170400000Y-54300000D02*
X171000000Y-54300000D01*
X171250000Y-54300000D02*
X174750000Y-54300000D01*
X175000000Y-54300000D02*
X175600000Y-54300000D01*
X175900000Y-54300000D02*
X178550000Y-54300000D01*
X178550000Y-54300000D02*
X178550000Y-48450000D01*
%TO.C,R17*%
X147000000Y-119780000D02*
X147000000Y-120550000D01*
X147000000Y-127860000D02*
X147000000Y-127090000D01*
X145630000Y-120550000D02*
X148370000Y-120550000D01*
X148370000Y-127090000D01*
X145630000Y-127090000D01*
X145630000Y-120550000D01*
%TO.C,U1*%
D16*
X93830000Y-118230000D02*
X93830000Y-71970000D01*
X94830000Y-70970000D02*
X98800000Y-70970000D01*
X94830000Y-119230000D02*
X103750000Y-119230000D01*
X98800000Y-64230000D02*
X116800000Y-64230000D01*
X98800000Y-70970000D02*
X98800000Y-64230000D01*
X103750000Y-119230000D02*
X103750000Y-120230000D01*
X103750000Y-120230000D02*
X111850000Y-120230000D01*
X111850000Y-119230000D02*
X120770000Y-119230000D01*
X111850000Y-120230000D02*
X111850000Y-119230000D01*
X116800000Y-64230000D02*
X116800000Y-70970000D01*
X116800000Y-70970000D02*
X120770000Y-70970000D01*
X121770000Y-118230000D02*
X121770000Y-71970000D01*
X93830000Y-71970000D02*
G75*
G02*
X94830000Y-70970000I999999J1D01*
G01*
X94830000Y-119230000D02*
G75*
G02*
X93830000Y-118230000I-1J999999D01*
G01*
X120770000Y-70970000D02*
G75*
G02*
X121770000Y-71970000I0J-1000000D01*
G01*
X121770000Y-118230000D02*
G75*
G02*
X120770000Y-119230000I-1000000J0D01*
G01*
D15*
X93400000Y-72265000D02*
G75*
G02*
X93200000Y-72265000I-100000J0D01*
G01*
X93200000Y-72265000D02*
G75*
G02*
X93400000Y-72265000I100000J0D01*
G01*
%TO.C,R16*%
D13*
X131000000Y-107040000D02*
X131000000Y-107810000D01*
X131000000Y-115120000D02*
X131000000Y-114350000D01*
X129630000Y-107810000D02*
X132370000Y-107810000D01*
X132370000Y-114350000D01*
X129630000Y-114350000D01*
X129630000Y-107810000D01*
%TO.C,R25*%
X184510000Y-70710000D02*
X185280000Y-70710000D01*
X192590000Y-70710000D02*
X191820000Y-70710000D01*
X185280000Y-69340000D02*
X191820000Y-69340000D01*
X191820000Y-72080000D01*
X185280000Y-72080000D01*
X185280000Y-69340000D01*
%TO.C,R20*%
X166800000Y-119880000D02*
X166800000Y-120650000D01*
X166800000Y-127960000D02*
X166800000Y-127190000D01*
X165430000Y-120650000D02*
X168170000Y-120650000D01*
X168170000Y-127190000D01*
X165430000Y-127190000D01*
X165430000Y-120650000D01*
%TO.C,J3*%
X187630000Y-144600000D02*
X187630000Y-148600000D01*
X188500000Y-143570000D02*
X188500000Y-144170000D01*
X188500000Y-144170000D02*
X190100000Y-144170000D01*
X189300000Y-148590000D02*
X189550000Y-148060000D01*
X189300000Y-148590000D02*
X196920000Y-148590000D01*
X189300000Y-149590000D02*
X189300000Y-148590000D01*
X189550000Y-148060000D02*
X196670000Y-148060000D01*
X189550000Y-149590000D02*
X189550000Y-148590000D01*
X190100000Y-144170000D02*
X190100000Y-143570000D01*
X191040000Y-143570000D02*
X191040000Y-144170000D01*
X191040000Y-144170000D02*
X192640000Y-144170000D01*
X192640000Y-144170000D02*
X192640000Y-143570000D01*
X193580000Y-143570000D02*
X193580000Y-144170000D01*
X193580000Y-144170000D02*
X195180000Y-144170000D01*
X195180000Y-144170000D02*
X195180000Y-143570000D01*
X196120000Y-143570000D02*
X196120000Y-144170000D01*
X196120000Y-144170000D02*
X197720000Y-144170000D01*
X196670000Y-148060000D02*
X196920000Y-148590000D01*
X196670000Y-149590000D02*
X196670000Y-148590000D01*
X196920000Y-148590000D02*
X196920000Y-149590000D01*
X197720000Y-144170000D02*
X197720000Y-143570000D01*
X187920000Y-143570000D02*
X198300000Y-143570000D01*
X198300000Y-149590000D01*
X187920000Y-149590000D01*
X187920000Y-143570000D01*
%TO.C,R11*%
X181500000Y-130540000D02*
X181500000Y-131310000D01*
X181500000Y-138620000D02*
X181500000Y-137850000D01*
X180130000Y-131310000D02*
X182870000Y-131310000D01*
X182870000Y-137850000D01*
X180130000Y-137850000D01*
X180130000Y-131310000D01*
%TO.C,R15*%
X136100000Y-107040000D02*
X136100000Y-107810000D01*
X136100000Y-115120000D02*
X136100000Y-114350000D01*
X134730000Y-107810000D02*
X137470000Y-107810000D01*
X137470000Y-114350000D01*
X134730000Y-114350000D01*
X134730000Y-107810000D01*
%TO.C,F4*%
X210905812Y-70653103D02*
X210905812Y-74893103D01*
X210905812Y-70653103D02*
X227145812Y-70653103D01*
X211425812Y-71273103D02*
X226625812Y-71273103D01*
X211425812Y-74273103D02*
X211425812Y-71273103D01*
X226625812Y-71273103D02*
X226625812Y-74273103D01*
X226625812Y-74273103D02*
X211425812Y-74273103D01*
X227145812Y-74893103D02*
X210905812Y-74893103D01*
X227145812Y-74893103D02*
X227145812Y-70653103D01*
%TO.C,F3*%
X203250000Y-89780000D02*
X203250000Y-96020000D01*
X203250000Y-89780000D02*
X223190000Y-89780000D01*
X203770000Y-90400000D02*
X222670000Y-90400000D01*
X203770000Y-95400000D02*
X203770000Y-90400000D01*
X222670000Y-90400000D02*
X222670000Y-95400000D01*
X222670000Y-95400000D02*
X203770000Y-95400000D01*
X223190000Y-96020000D02*
X203250000Y-96020000D01*
X223190000Y-96020000D02*
X223190000Y-89780000D01*
%TO.C,R4*%
X67840000Y-67170000D02*
X67840000Y-67940000D01*
X67840000Y-75250000D02*
X67840000Y-74480000D01*
X66470000Y-67940000D02*
X69210000Y-67940000D01*
X69210000Y-74480000D01*
X66470000Y-74480000D01*
X66470000Y-67940000D01*
%TO.C,J2*%
X175330000Y-144600000D02*
X175330000Y-148600000D01*
X176200000Y-143570000D02*
X176200000Y-144170000D01*
X176200000Y-144170000D02*
X177800000Y-144170000D01*
X177000000Y-148590000D02*
X177250000Y-148060000D01*
X177000000Y-148590000D02*
X184620000Y-148590000D01*
X177000000Y-149590000D02*
X177000000Y-148590000D01*
X177250000Y-148060000D02*
X184370000Y-148060000D01*
X177250000Y-149590000D02*
X177250000Y-148590000D01*
X177800000Y-144170000D02*
X177800000Y-143570000D01*
X178740000Y-143570000D02*
X178740000Y-144170000D01*
X178740000Y-144170000D02*
X180340000Y-144170000D01*
X180340000Y-144170000D02*
X180340000Y-143570000D01*
X181280000Y-143570000D02*
X181280000Y-144170000D01*
X181280000Y-144170000D02*
X182880000Y-144170000D01*
X182880000Y-144170000D02*
X182880000Y-143570000D01*
X183820000Y-143570000D02*
X183820000Y-144170000D01*
X183820000Y-144170000D02*
X185420000Y-144170000D01*
X184370000Y-148060000D02*
X184620000Y-148590000D01*
X184370000Y-149590000D02*
X184370000Y-148590000D01*
X184620000Y-148590000D02*
X184620000Y-149590000D01*
X185420000Y-144170000D02*
X185420000Y-143570000D01*
X175620000Y-143570000D02*
X186000000Y-143570000D01*
X186000000Y-149590000D01*
X175620000Y-149590000D01*
X175620000Y-143570000D01*
%TO.C,R26*%
X178960000Y-71370000D02*
X178960000Y-72140000D01*
X178960000Y-79450000D02*
X178960000Y-78680000D01*
X177590000Y-72140000D02*
X180330000Y-72140000D01*
X180330000Y-78680000D01*
X177590000Y-78680000D01*
X177590000Y-72140000D01*
%TO.C,J20*%
X165320000Y-75510000D02*
X165320000Y-76760000D01*
X165320000Y-76760000D02*
X166570000Y-76760000D01*
X167870000Y-68860000D02*
X167870000Y-69610000D01*
X167870000Y-69610000D02*
X170820000Y-69610000D01*
X167870000Y-75710000D02*
X170820000Y-75710000D01*
X167870000Y-76460000D02*
X167870000Y-75710000D01*
X170820000Y-69610000D02*
X170820000Y-72660000D01*
X170820000Y-75710000D02*
X170820000Y-72660000D01*
X165610000Y-68850000D02*
X171580000Y-68850000D01*
X171580000Y-76470000D01*
X165610000Y-76470000D01*
X165610000Y-68850000D01*
X165620000Y-68860000D02*
X166370000Y-68860000D01*
X166370000Y-70660000D01*
X165620000Y-70660000D01*
X165620000Y-68860000D01*
X165620000Y-72160000D02*
X166370000Y-72160000D01*
X166370000Y-73160000D01*
X165620000Y-73160000D01*
X165620000Y-72160000D01*
X165620000Y-74660000D02*
X166370000Y-74660000D01*
X166370000Y-76460000D01*
X165620000Y-76460000D01*
X165620000Y-74660000D01*
%TO.C,Q1*%
X145640000Y-130930000D02*
X150260000Y-130930000D01*
X145640000Y-141150000D02*
X145640000Y-130930000D01*
X148880000Y-130930000D02*
X148880000Y-141150000D01*
X150260000Y-130930000D02*
X150260000Y-141150000D01*
X150260000Y-134190000D02*
X148880000Y-134190000D01*
X150260000Y-137890000D02*
X148880000Y-137890000D01*
X150260000Y-141150000D02*
X145640000Y-141150000D01*
%TO.C,C6*%
X192120000Y-103899000D02*
X192120000Y-102701000D01*
X192160000Y-104162000D02*
X192160000Y-102438000D01*
X192200000Y-104362000D02*
X192200000Y-102238000D01*
X192240000Y-104530000D02*
X192240000Y-102070000D01*
X192280000Y-104677000D02*
X192280000Y-101923000D01*
X192320000Y-104809000D02*
X192320000Y-101791000D01*
X192360000Y-104930000D02*
X192360000Y-101670000D01*
X192400000Y-105042000D02*
X192400000Y-101558000D01*
X192440000Y-105146000D02*
X192440000Y-101454000D01*
X192480000Y-105244000D02*
X192480000Y-101356000D01*
X192520000Y-105337000D02*
X192520000Y-101263000D01*
X192560000Y-105424000D02*
X192560000Y-101176000D01*
X192600000Y-105508000D02*
X192600000Y-101092000D01*
X192640000Y-105588000D02*
X192640000Y-101012000D01*
X192680000Y-105665000D02*
X192680000Y-100935000D01*
X192720000Y-105739000D02*
X192720000Y-100861000D01*
X192760000Y-105810000D02*
X192760000Y-100790000D01*
X192800000Y-105878000D02*
X192800000Y-100722000D01*
X192840000Y-105944000D02*
X192840000Y-100656000D01*
X192880000Y-106008000D02*
X192880000Y-100592000D01*
X192920000Y-106070000D02*
X192920000Y-100530000D01*
X192960000Y-106130000D02*
X192960000Y-100470000D01*
X193000000Y-106188000D02*
X193000000Y-100412000D01*
X193040000Y-106245000D02*
X193040000Y-100355000D01*
X193080000Y-106300000D02*
X193080000Y-100300000D01*
X193120000Y-106353000D02*
X193120000Y-100247000D01*
X193160000Y-106405000D02*
X193160000Y-100195000D01*
X193200000Y-106456000D02*
X193200000Y-100144000D01*
X193240000Y-106505000D02*
X193240000Y-100095000D01*
X193280000Y-106554000D02*
X193280000Y-100046000D01*
X193320000Y-106601000D02*
X193320000Y-99999000D01*
X193360000Y-106647000D02*
X193360000Y-99953000D01*
X193400000Y-106691000D02*
X193400000Y-99909000D01*
X193440000Y-106735000D02*
X193440000Y-99865000D01*
X193480000Y-102060000D02*
X193480000Y-99822000D01*
X193480000Y-106778000D02*
X193480000Y-104540000D01*
X193520000Y-102060000D02*
X193520000Y-99780000D01*
X193520000Y-106820000D02*
X193520000Y-104540000D01*
X193560000Y-102060000D02*
X193560000Y-99739000D01*
X193560000Y-106861000D02*
X193560000Y-104540000D01*
X193600000Y-102060000D02*
X193600000Y-99699000D01*
X193600000Y-106901000D02*
X193600000Y-104540000D01*
X193640000Y-102060000D02*
X193640000Y-99660000D01*
X193640000Y-106940000D02*
X193640000Y-104540000D01*
X193680000Y-102060000D02*
X193680000Y-99622000D01*
X193680000Y-106978000D02*
X193680000Y-104540000D01*
X193720000Y-102060000D02*
X193720000Y-99584000D01*
X193720000Y-107016000D02*
X193720000Y-104540000D01*
X193760000Y-102060000D02*
X193760000Y-99548000D01*
X193760000Y-107052000D02*
X193760000Y-104540000D01*
X193800000Y-102060000D02*
X193800000Y-99512000D01*
X193800000Y-107088000D02*
X193800000Y-104540000D01*
X193840000Y-102060000D02*
X193840000Y-99477000D01*
X193840000Y-107123000D02*
X193840000Y-104540000D01*
X193880000Y-102060000D02*
X193880000Y-99442000D01*
X193880000Y-107158000D02*
X193880000Y-104540000D01*
X193920000Y-102060000D02*
X193920000Y-99409000D01*
X193920000Y-107191000D02*
X193920000Y-104540000D01*
X193960000Y-102060000D02*
X193960000Y-99376000D01*
X193960000Y-107224000D02*
X193960000Y-104540000D01*
X194000000Y-102060000D02*
X194000000Y-99343000D01*
X194000000Y-107257000D02*
X194000000Y-104540000D01*
X194040000Y-102060000D02*
X194040000Y-99312000D01*
X194040000Y-107288000D02*
X194040000Y-104540000D01*
X194080000Y-102060000D02*
X194080000Y-99280000D01*
X194080000Y-107320000D02*
X194080000Y-104540000D01*
X194120000Y-102060000D02*
X194120000Y-99250000D01*
X194120000Y-107350000D02*
X194120000Y-104540000D01*
X194160000Y-102060000D02*
X194160000Y-99220000D01*
X194160000Y-107380000D02*
X194160000Y-104540000D01*
X194200000Y-102060000D02*
X194200000Y-99191000D01*
X194200000Y-107409000D02*
X194200000Y-104540000D01*
X194240000Y-102060000D02*
X194240000Y-99162000D01*
X194240000Y-107438000D02*
X194240000Y-104540000D01*
X194280000Y-102060000D02*
X194280000Y-99134000D01*
X194280000Y-107466000D02*
X194280000Y-104540000D01*
X194320000Y-102060000D02*
X194320000Y-99107000D01*
X194320000Y-107493000D02*
X194320000Y-104540000D01*
X194360000Y-102060000D02*
X194360000Y-99080000D01*
X194360000Y-107520000D02*
X194360000Y-104540000D01*
X194400000Y-102060000D02*
X194400000Y-99053000D01*
X194400000Y-107547000D02*
X194400000Y-104540000D01*
X194440000Y-102060000D02*
X194440000Y-99028000D01*
X194440000Y-107572000D02*
X194440000Y-104540000D01*
X194480000Y-102060000D02*
X194480000Y-99002000D01*
X194480000Y-107598000D02*
X194480000Y-104540000D01*
X194520000Y-102060000D02*
X194520000Y-98977000D01*
X194520000Y-107623000D02*
X194520000Y-104540000D01*
X194560000Y-102060000D02*
X194560000Y-98953000D01*
X194560000Y-107647000D02*
X194560000Y-104540000D01*
X194600000Y-102060000D02*
X194600000Y-98929000D01*
X194600000Y-107671000D02*
X194600000Y-104540000D01*
X194640000Y-102060000D02*
X194640000Y-98906000D01*
X194640000Y-107694000D02*
X194640000Y-104540000D01*
X194680000Y-102060000D02*
X194680000Y-98883000D01*
X194680000Y-107717000D02*
X194680000Y-104540000D01*
X194720000Y-102060000D02*
X194720000Y-98861000D01*
X194720000Y-107739000D02*
X194720000Y-104540000D01*
X194760000Y-102060000D02*
X194760000Y-98839000D01*
X194760000Y-107761000D02*
X194760000Y-104540000D01*
X194800000Y-102060000D02*
X194800000Y-98817000D01*
X194800000Y-107783000D02*
X194800000Y-104540000D01*
X194840000Y-102060000D02*
X194840000Y-98796000D01*
X194840000Y-107804000D02*
X194840000Y-104540000D01*
X194880000Y-102060000D02*
X194880000Y-98776000D01*
X194880000Y-107824000D02*
X194880000Y-104540000D01*
X194920000Y-102060000D02*
X194920000Y-98756000D01*
X194920000Y-107844000D02*
X194920000Y-104540000D01*
X194960000Y-102060000D02*
X194960000Y-98736000D01*
X194960000Y-107864000D02*
X194960000Y-104540000D01*
X195000000Y-102060000D02*
X195000000Y-98717000D01*
X195000000Y-107883000D02*
X195000000Y-104540000D01*
X195040000Y-102060000D02*
X195040000Y-98698000D01*
X195040000Y-107902000D02*
X195040000Y-104540000D01*
X195080000Y-102060000D02*
X195080000Y-98680000D01*
X195080000Y-107920000D02*
X195080000Y-104540000D01*
X195120000Y-102060000D02*
X195120000Y-98662000D01*
X195120000Y-107938000D02*
X195120000Y-104540000D01*
X195160000Y-102060000D02*
X195160000Y-98644000D01*
X195160000Y-107956000D02*
X195160000Y-104540000D01*
X195200000Y-102060000D02*
X195200000Y-98627000D01*
X195200000Y-107973000D02*
X195200000Y-104540000D01*
X195240000Y-102060000D02*
X195240000Y-98610000D01*
X195240000Y-107990000D02*
X195240000Y-104540000D01*
X195280000Y-102060000D02*
X195280000Y-98594000D01*
X195280000Y-108006000D02*
X195280000Y-104540000D01*
X195320000Y-102060000D02*
X195320000Y-98578000D01*
X195320000Y-108022000D02*
X195320000Y-104540000D01*
X195360000Y-102060000D02*
X195360000Y-98562000D01*
X195360000Y-108038000D02*
X195360000Y-104540000D01*
X195400000Y-102060000D02*
X195400000Y-98547000D01*
X195400000Y-108053000D02*
X195400000Y-104540000D01*
X195440000Y-102060000D02*
X195440000Y-98532000D01*
X195440000Y-108068000D02*
X195440000Y-104540000D01*
X195480000Y-102060000D02*
X195480000Y-98518000D01*
X195480000Y-108082000D02*
X195480000Y-104540000D01*
X195520000Y-102060000D02*
X195520000Y-98503000D01*
X195520000Y-108097000D02*
X195520000Y-104540000D01*
X195560000Y-102060000D02*
X195560000Y-98490000D01*
X195560000Y-108110000D02*
X195560000Y-104540000D01*
X195600000Y-102060000D02*
X195600000Y-98476000D01*
X195600000Y-108124000D02*
X195600000Y-104540000D01*
X195640000Y-102060000D02*
X195640000Y-98463000D01*
X195640000Y-108137000D02*
X195640000Y-104540000D01*
X195680000Y-102060000D02*
X195680000Y-98451000D01*
X195680000Y-108149000D02*
X195680000Y-104540000D01*
X195720000Y-102060000D02*
X195720000Y-98439000D01*
X195720000Y-108161000D02*
X195720000Y-104540000D01*
X195760000Y-102060000D02*
X195760000Y-98427000D01*
X195760000Y-108173000D02*
X195760000Y-104540000D01*
X195800000Y-102060000D02*
X195800000Y-98415000D01*
X195800000Y-108185000D02*
X195800000Y-104540000D01*
X195840000Y-102060000D02*
X195840000Y-98404000D01*
X195840000Y-108196000D02*
X195840000Y-104540000D01*
X195880000Y-102060000D02*
X195880000Y-98393000D01*
X195880000Y-108207000D02*
X195880000Y-104540000D01*
X195920000Y-102060000D02*
X195920000Y-98383000D01*
X195920000Y-108217000D02*
X195920000Y-104540000D01*
X195960000Y-108228000D02*
X195960000Y-98372000D01*
X196000000Y-108237000D02*
X196000000Y-98363000D01*
X196040000Y-108247000D02*
X196040000Y-98353000D01*
X196080000Y-108256000D02*
X196080000Y-98344000D01*
X196120000Y-108265000D02*
X196120000Y-98335000D01*
X196160000Y-108273000D02*
X196160000Y-98327000D01*
X196200000Y-108281000D02*
X196200000Y-98319000D01*
X196240000Y-108289000D02*
X196240000Y-98311000D01*
X196280000Y-108297000D02*
X196280000Y-98303000D01*
X196320000Y-108304000D02*
X196320000Y-98296000D01*
X196360000Y-108311000D02*
X196360000Y-98289000D01*
X196400000Y-108317000D02*
X196400000Y-98283000D01*
X196440000Y-108323000D02*
X196440000Y-98277000D01*
X196480000Y-108329000D02*
X196480000Y-98271000D01*
X196520000Y-108335000D02*
X196520000Y-98265000D01*
X196560000Y-108340000D02*
X196560000Y-98260000D01*
X196600000Y-108345000D02*
X196600000Y-98255000D01*
X196640000Y-108349000D02*
X196640000Y-98251000D01*
X196680000Y-108354000D02*
X196680000Y-98246000D01*
X196720000Y-108357000D02*
X196720000Y-98243000D01*
X196760000Y-108361000D02*
X196760000Y-98239000D01*
X196800000Y-108364000D02*
X196800000Y-98236000D01*
X196840000Y-108367000D02*
X196840000Y-98233000D01*
X196880000Y-108370000D02*
X196880000Y-98230000D01*
X196920000Y-108372000D02*
X196920000Y-98228000D01*
X196960000Y-108374000D02*
X196960000Y-98226000D01*
X197000000Y-108376000D02*
X197000000Y-98224000D01*
X197040000Y-108377000D02*
X197040000Y-98223000D01*
X197080000Y-108379000D02*
X197080000Y-98221000D01*
X197120000Y-108379000D02*
X197120000Y-98221000D01*
X197160000Y-108380000D02*
X197160000Y-98220000D01*
X197200000Y-108380000D02*
X197200000Y-98220000D01*
X202179646Y-106675000D02*
X202179646Y-105675000D01*
X202679646Y-106175000D02*
X201679646Y-106175000D01*
X202320000Y-103300000D02*
G75*
G02*
X192080000Y-103300000I-5120000J0D01*
G01*
X192080000Y-103300000D02*
G75*
G02*
X202320000Y-103300000I5120000J0D01*
G01*
%TO.C,R27*%
X233900000Y-127080000D02*
X233900000Y-127850000D01*
X233900000Y-135160000D02*
X233900000Y-134390000D01*
X232530000Y-127850000D02*
X235270000Y-127850000D01*
X235270000Y-134390000D01*
X232530000Y-134390000D01*
X232530000Y-127850000D01*
%TO.C,J13*%
X110350000Y-49050000D02*
X110350000Y-50300000D01*
X110650000Y-51600000D02*
X111400000Y-51600000D01*
X111400000Y-51600000D02*
X111400000Y-54550000D01*
X111400000Y-54550000D02*
X116950000Y-54550000D01*
X111600000Y-49050000D02*
X110350000Y-49050000D01*
X122500000Y-51600000D02*
X122500000Y-54550000D01*
X122500000Y-54550000D02*
X116950000Y-54550000D01*
X123250000Y-51600000D02*
X122500000Y-51600000D01*
X110640000Y-49340000D02*
X123260000Y-49340000D01*
X123260000Y-55310000D01*
X110640000Y-55310000D01*
X110640000Y-49340000D01*
X110650000Y-49350000D02*
X112450000Y-49350000D01*
X112450000Y-50100000D01*
X110650000Y-50100000D01*
X110650000Y-49350000D01*
X113950000Y-49350000D02*
X119950000Y-49350000D01*
X119950000Y-50100000D01*
X113950000Y-50100000D01*
X113950000Y-49350000D01*
X121450000Y-49350000D02*
X123250000Y-49350000D01*
X123250000Y-50100000D01*
X121450000Y-50100000D01*
X121450000Y-49350000D01*
%TD*%
M02*
